<?xml version="1.0" encoding="UTF-8" standalone="no"?>
<!-- Created with Inkscape (http://www.inkscape.org/) -->

<svg
   width="25.4mm"
   height="128.5mm"
   viewBox="0 0 25.4 128.5"
   version="1.1"
   id="svg1"
   inkscape:version="1.3.2 (091e20e, 2023-11-25, custom)"
   sodipodi:docname="Clipper.svg"
   xmlns:inkscape="http://www.inkscape.org/namespaces/inkscape"
   xmlns:sodipodi="http://sodipodi.sourceforge.net/DTD/sodipodi-0.dtd"
   xmlns="http://www.w3.org/2000/svg"
   xmlns:svg="http://www.w3.org/2000/svg"
   xmlns:rdf="http://www.w3.org/1999/02/22-rdf-syntax-ns#"
   xmlns:cc="http://creativecommons.org/ns#"
   xmlns:dc="http://purl.org/dc/elements/1.1/">
  <title
     id="title8">STS Template Medium</title>
  <sodipodi:namedview
     id="namedview1"
     pagecolor="#ffffff"
     bordercolor="#000000"
     borderopacity="0.25"
     inkscape:showpageshadow="2"
     inkscape:pageopacity="0.0"
     inkscape:pagecheckerboard="false"
     inkscape:deskcolor="#d1d1d1"
     inkscape:document-units="mm"
     inkscape:zoom="1.4335938"
     inkscape:cx="-122.76839"
     inkscape:cy="215.54223"
     inkscape:window-width="1920"
     inkscape:window-height="1130"
     inkscape:window-x="-6"
     inkscape:window-y="-6"
     inkscape:window-maximized="1"
     inkscape:current-layer="layer1" />
  <defs
     id="defs1">
    <rect
       x="133.17498"
       y="223.43803"
       width="24.662034"
       height="31.567403"
       id="rect6" />
    <rect
       x="-188.91118"
       y="163.26267"
       width="59.188883"
       height="31.567404"
       id="rect1" />
    <rect
       x="-188.91118"
       y="163.26266"
       width="59.188885"
       height="31.567404"
       id="rect1-7" />
    <rect
       x="-188.91118"
       y="163.26266"
       width="59.188885"
       height="31.567404"
       id="rect1-7-3" />
    <rect
       x="-188.91118"
       y="163.26266"
       width="59.188885"
       height="31.567404"
       id="rect1-7-3-9" />
    <rect
       x="-188.91118"
       y="163.26266"
       width="59.188885"
       height="31.567404"
       id="rect1-9" />
    <rect
       x="-188.91118"
       y="163.26266"
       width="59.188885"
       height="31.567404"
       id="rect1-7-3-9-5" />
    <rect
       x="-188.91118"
       y="163.26266"
       width="59.188885"
       height="31.567404"
       id="rect1-7-3-9-7" />
    <rect
       x="-188.91118"
       y="163.26266"
       width="59.188885"
       height="31.567404"
       id="rect1-7-3-97" />
    <rect
       x="-188.91118"
       y="163.26266"
       width="59.188885"
       height="31.567404"
       id="rect1-7-3-97-3" />
    <rect
       x="-188.91118"
       y="163.26266"
       width="59.188885"
       height="31.567404"
       id="rect1-7-3-97-3-8" />
    <rect
       x="-188.91118"
       y="163.26266"
       width="59.188885"
       height="31.567404"
       id="rect1-7-3-97-3-8-3" />
    <rect
       x="-188.91118"
       y="163.26266"
       width="59.188885"
       height="31.567404"
       id="rect1-7-3-97-3-8-3-9" />
    <rect
       x="-188.91118"
       y="163.26266"
       width="59.188885"
       height="31.567404"
       id="rect1-7-3-97-3-8-3-9-8" />
    <rect
       x="-188.91118"
       y="163.26266"
       width="59.188885"
       height="31.567404"
       id="rect1-7-3-97-3-8-3-9-8-4" />
  </defs>
  <g
     inkscape:label="Layer 1"
     inkscape:groupmode="layer"
     id="layer1"
     style="display:inline">
    <rect
       style="fill:#93b5cf;fill-opacity:1;stroke:#93b5cf;stroke-width:0.065;stroke-linejoin:miter;stroke-miterlimit:0;stroke-dasharray:none;stroke-opacity:1;paint-order:normal"
       id="guid-133bc867-ad6a-494a-bd77-ef0c326a6449"
       width="25.334633"
       height="128.43465"
       x="0.032499999"
       y="0.032683566"
       ry="0"
       inkscape:transform-center-x="0.13475906"
       inkscape:transform-center-y="11.262005"
       inkscape:label="Panel">
      <title
         id="title27">Panel</title>
    </rect>
    <rect
       style="font-size:3.175px;font-family:'Comic Sans MS';-inkscape-font-specification:'Comic Sans MS, Normal';text-align:center;text-anchor:middle;display:inline;fill:#c0c0c0;fill-opacity:1;stroke:#505050;stroke-width:0.167486;stroke-miterlimit:0;stroke-dasharray:none;stroke-opacity:1"
       id="guid-5b20c061-18d6-436b-9422-6e5ea1c08229"
       width="9.8325138"
       height="9.8325138"
       x="2.0837431"
       y="9.0837431"
       ry="2.3805037"
       inkscape:label="Input Block">
      <desc
         id="desc7">Input Block</desc>
      <title
         id="title7">Input Block</title>
    </rect>
    <rect
       style="font-size:3.175px;font-family:'Comic Sans MS';-inkscape-font-specification:'Comic Sans MS, Normal';text-align:center;text-anchor:middle;display:inline;fill:#808080;fill-opacity:1;stroke:#505050;stroke-width:0.167486;stroke-miterlimit:0;stroke-dasharray:none;stroke-opacity:1"
       id="guid-17a95c6b-1a97-4263-9d0a-42aa97d28769"
       width="9.8325138"
       height="9.8325138"
       x="13.483743"
       y="9.0837431"
       ry="2.3805037"
       inkscape:label="Output Block">
      <desc
         id="desc7-0">Input Block</desc>
      <title
         id="title7-9">Output Block</title>
    </rect>
    <g
       id="guid-836c62ac-2363-4971-88ce-5a5d0a73b10b"
       style="font-size:3.175px;font-family:'Comic Sans MS';-inkscape-font-specification:'Comic Sans MS, Normal';text-align:center;text-anchor:middle;stroke:#000000;stroke-width:0;stroke-miterlimit:0"
       inkscape:label="Brand"
       aria-label="Sm@rTAZZ&#10;Studio"
       transform="matrix(0.99997702,0,0,1,8.1047871e-5,-3.81625)">
      <path
         d="m 3.5270624,121.95735 q -0.00155,-0.0651 0.043408,-0.10542 0.046509,-0.0419 0.1131713,-0.0419 0.075964,0 0.1333252,0.0868 0.079065,0.11783 0.1410767,0.15968 0.1317749,0.0868 0.3829224,0.0868 0.2402954,0 0.4464843,-0.10387 0.2635498,-0.13332 0.2635498,-0.37052 0,-0.19534 -0.2216919,-0.30851 -0.1875854,-0.0977 -0.4635376,-0.10542 -0.2449462,-0.009 -0.4170288,-0.10697 -0.2201416,-0.12557 -0.2201416,-0.35967 0,-0.27595 0.3131592,-0.50384 0.2992066,-0.21549 0.6185669,-0.21549 0.1503784,0 0.3395142,0.0512 0.2511474,0.0667 0.2511474,0.17053 0,0.13643 -0.1395264,0.13643 -0.062012,0 -0.217041,-0.0326 -0.1550293,-0.0341 -0.2402954,-0.0326 -0.2418457,0.003 -0.4108276,0.11938 -0.1736328,0.11937 -0.1736328,0.2899 0,0.12868 0.2294433,0.18139 0.085266,0.0202 0.3302124,0.0372 0.3550171,0.0264 0.5550049,0.22324 0.1829346,0.17984 0.1829346,0.43874 0,0.36897 -0.3410645,0.58911 -0.2961059,0.19069 -0.6867797,0.19069 -0.2837036,0 -0.5193482,-0.10853 -0.2883545,-0.13332 -0.2930053,-0.36586 z m 4.1780395,0.51469 q -0.127124,0 -0.1488281,-0.13487 -0.027905,-0.17053 -0.055811,-0.48059 l -0.05271,-0.48059 q -0.015503,-0.10697 -0.05271,-0.20929 -0.05271,-0.13953 -0.1147217,-0.13953 -0.057361,0 -0.2139404,0.0977 -0.1488281,0.0899 -0.1953369,0.14418 -0.00155,0.14572 0.00775,0.29145 l 0.046509,0.41393 q 0.029456,0.24495 0.029456,0.40463 0,0.0682 -0.043408,0.11162 -0.041858,0.045 -0.1085205,0.045 -0.066663,0 -0.1100708,-0.045 -0.041858,-0.0434 -0.041858,-0.11162 0,-0.18759 -0.038757,-0.55346 -0.037207,-0.36742 -0.037207,-0.555 0,-0.16434 -0.046509,-0.2558 -0.1085205,0.0496 -0.2201416,0.16123 l -0.1829345,0.20464 q -0.024805,0.0372 -0.079065,0.0977 0,0.093 -0.017053,0.2744 -0.017053,0.18138 -0.017053,0.2682 0,0.0465 0.013953,0.13022 0.015503,0.0837 0.015503,0.12093 0,0.0636 -0.048059,0.10697 -0.046509,0.0434 -0.1100708,0.0434 -0.1751831,0 -0.1751831,-0.39842 0,-0.093 0.017053,-0.2775 0.017053,-0.18449 0.017053,-0.27751 0,-0.0822 -0.015503,-0.24649 -0.013953,-0.16433 -0.013953,-0.24805 0,-0.35192 0.1581299,-0.35192 0.060461,0 0.1100708,0.0527 0.05116,0.0527 0.05116,0.11472 0,0.0295 -0.00775,0.0915 -0.00775,0.062 -0.00775,0.0946 l 0.0031,0.16278 q 0.080615,-0.16588 0.2371949,-0.29921 0.1565796,-0.13487 0.2666504,-0.13487 0.2433959,0 0.3348632,0.24184 0.085266,-0.11317 0.2030884,-0.16898 0.1178223,-0.0574 0.269751,-0.0574 0.2588989,0 0.3534668,0.27905 0.018604,0.0558 0.063562,0.43564 0.043408,0.26665 0.1116211,0.88831 0.00465,0.062 -0.041858,0.10542 -0.046509,0.0434 -0.1131714,0.0434 z m 2.3068361,-0.76739 q -0.1643313,0 -0.2837039,-0.0481 -0.1193725,-0.0481 -0.1922363,-0.14263 -0.083716,0.0822 -0.1643311,0.12403 -0.079065,0.0418 -0.1550293,0.0418 -0.1720825,0 -0.3255615,-0.13952 -0.1519287,-0.14108 -0.1519287,-0.30851 0,-0.28681 0.2247925,-0.524 0.2263428,-0.2372 0.513147,-0.2372 0.065112,0 0.1085205,0.0481 0.043408,0.0481 0.043408,0.11628 0,0.093 -0.1550293,0.13797 -0.206189,0.0589 -0.2914551,0.13488 -0.1255737,0.11007 -0.1255737,0.32401 0,0.045 0.041858,0.0868 0.048059,0.0465 0.1193725,0.0434 0.1348755,-0.006 0.2495972,-0.25114 0.1038696,-0.21394 0.1844849,-0.21394 0.065112,0 0.1054199,0.048 0.040308,0.0481 0.040308,0.11783 0,0.031 -0.010852,0.093 -0.0093,0.062 -0.0093,0.093 0,0.10077 0.086816,0.12713 0.034106,0.0109 0.1472784,0.0109 0.21239,0 0.297656,-0.10387 0.07752,-0.093 0.07752,-0.30851 0,-0.37982 -0.305408,-0.62012 -0.2790531,-0.22014 -0.6666264,-0.22014 -0.4511352,0 -0.7069335,0.34107 -0.2309937,0.30385 -0.2309937,0.76429 0,0.42478 0.2713013,0.71624 0.2821533,0.30385 0.7255371,0.30385 0.1255737,0 0.2837036,-0.0481 l 0.2713016,-0.10077 q 0.06821,-0.0248 0.08837,-0.0248 0.06356,0 0.11007,0.0512 0.04651,0.0496 0.04651,0.11627 0,0.14728 -0.3302125,0.23875 -0.2495971,0.0682 -0.4666381,0.0682 -0.2185913,0 -0.4480347,-0.0853 -0.2278931,-0.0837 -0.3906738,-0.22479 -0.4805908,-0.41548 -0.4805908,-1.01079 0,-0.59531 0.3286621,-0.99529 0.3488159,-0.42788 0.9286254,-0.42788 0.5239991,0 0.8976204,0.31471 0.392224,0.33331 0.392224,0.84336 0,0.34882 -0.170533,0.5364 -0.178283,0.19379 -0.522448,0.19379 z m 2.353345,-0.50695 q -0.01085,0.19379 -0.15503,0.19379 -0.133325,0 -0.133325,-0.15348 0,-0.0295 -0.0047,-0.10852 l -0.0047,-0.13023 q -0.244946,0.0295 -0.392224,0.13798 -0.137976,0.10077 -0.229443,0.30386 l 0.0031,0.84956 q 0,0.15658 -0.153479,0.15658 -0.136426,0 -0.136426,-0.15658 v -1.08831 q 0,-0.0512 0.0031,-0.15348 0.0047,-0.10232 0.0047,-0.15348 0,-0.15657 0.136426,-0.15657 0.151929,0 0.153479,0.25734 0.297656,-0.2868 0.660425,-0.2868 0.125574,0 0.187585,0.0946 0.06201,0.0946 0.06201,0.28525 0,0.0806 -0.0015,0.10852 z m 2.215368,-0.81235 q -0.114722,0 -0.353467,-0.0186 -0.232544,-0.0171 -0.353467,-0.0155 h -0.11007 q 0.0047,0.21394 0.04186,0.69453 0.03411,0.44804 0.03411,0.69608 0,0.0543 0.01085,0.16434 0.01085,0.11007 0.01085,0.16588 0,0.10542 -0.03411,0.18138 -0.04341,0.10232 -0.134876,0.10232 -0.06201,0 -0.111621,-0.0434 -0.04961,-0.0434 -0.04961,-0.11162 0,-0.0232 0.0078,-0.0698 0.0078,-0.0465 0.0078,-0.0698 0,-0.076 -0.01085,-0.2279 -0.0093,-0.15193 -0.0093,-0.22944 0,-0.22169 -0.03566,-0.62322 -0.03721,-0.43408 -0.04186,-0.62322 l -0.141077,0.002 q -0.339514,0 -0.5333,-0.0496 -0.125574,-0.0326 -0.125574,-0.15347 0,-0.0636 0.04031,-0.11163 0.04651,-0.0543 0.119372,-0.0496 0.05426,0.003 0.248047,0.0279 0.155029,0.0186 0.251147,0.0186 0.09302,0 0.282154,-0.003 0.189136,-0.005 0.282153,-0.005 0.119373,0 0.353467,0.0171 0.235644,0.017 0.355017,0.017 0.06666,0 0.111621,0.0465 0.04496,0.045 0.04496,0.11317 0,0.0667 -0.04496,0.11317 -0.04496,0.045 -0.111621,0.045 z m 1.984375,2.00453 q -0.142627,0 -0.248047,-0.36587 -0.04031,-0.13953 -0.100769,-0.48834 -0.15813,0.0217 -0.413928,0.0775 l -0.412378,0.0853 q -0.07752,0.20309 -0.2651,0.59376 -0.04961,0.0868 -0.134876,0.0868 -0.06201,0 -0.111621,-0.045 -0.04806,-0.045 -0.04806,-0.11162 0,-0.0744 0.234094,-0.56586 -0.02636,-0.0403 -0.02636,-0.093 0,-0.12557 0.151929,-0.16123 0.176733,-0.33176 0.446484,-0.76274 0.36742,-0.58756 0.457337,-0.58756 0.122473,0 0.167431,0.17053 l 0.09767,0.5209 0.230994,1.07745 0.08837,0.24495 q 0.04496,0.12557 0.04496,0.16743 0,0.0667 -0.04806,0.11162 -0.04806,0.045 -0.110071,0.045 z m -0.547254,-1.77199 -0.443383,0.71469 q 0.187585,-0.0481 0.568957,-0.11627 z m 2.894398,-0.21394 -0.20929,0.14263 q -0.282153,0.21859 -0.638721,0.69918 l -0.544153,0.7922 q -0.03876,0.0589 -0.07596,0.10852 l 0.603064,-0.0232 q 0.395325,-0.0186 0.604614,-0.0186 0.204639,0 0.302307,0.0186 0.125574,0.0248 0.130225,0.12712 0.0031,0.076 -0.04961,0.12092 -0.04651,0.0388 -0.116272,0.0388 -0.04496,0 -0.134876,-0.006 -0.08992,-0.005 -0.134875,-0.005 -0.235645,0 -0.708484,0.0109 -0.471289,0.0124 -0.706934,0.0124 -0.178283,0 -0.178283,-0.15658 0,-0.10232 0.09612,-0.25734 l 0.165881,-0.231 0.559656,-0.77825 q 0.345715,-0.45733 0.643371,-0.71003 l -0.542602,0.031 H 17.35103 q -0.01705,0 -0.05116,0.003 -0.03256,0.002 -0.04806,0.002 -0.164331,0 -0.164331,-0.15968 0,-0.10542 0.08372,-0.13953 0.05116,-0.0217 0.168982,-0.0217 0.10697,0 0.31781,0.0233 0.21239,0.0217 0.31936,0.0217 0.119372,0 0.356567,-0.0155 0.238745,-0.0155 0.359668,-0.0155 0.398426,0 0.398426,0.15038 0,0.10232 -0.179834,0.23564 z m 2.201416,0 -0.20929,0.14263 q -0.282153,0.21859 -0.638721,0.69918 l -0.544152,0.7922 q -0.03876,0.0589 -0.07597,0.10852 l 0.603064,-0.0232 q 0.395325,-0.0186 0.604614,-0.0186 0.204639,0 0.302307,0.0186 0.125574,0.0248 0.130225,0.12712 0.0031,0.076 -0.04961,0.12092 -0.04651,0.0388 -0.116272,0.0388 -0.04496,0 -0.134876,-0.006 -0.08992,-0.005 -0.134875,-0.005 -0.235645,0 -0.708484,0.0109 -0.471289,0.0124 -0.706934,0.0124 -0.178283,0 -0.178283,-0.15658 0,-0.10232 0.09612,-0.25734 l 0.165881,-0.231 0.559656,-0.77825 q 0.345715,-0.45733 0.643371,-0.71003 l -0.542602,0.031 h -0.626318 q -0.01705,0 -0.05116,0.003 -0.03256,0.002 -0.04806,0.002 -0.164331,0 -0.164331,-0.15968 0,-0.10542 0.08372,-0.13953 0.05116,-0.0217 0.168982,-0.0217 0.10697,0 0.31781,0.0233 0.21239,0.0217 0.31936,0.0217 0.119372,0 0.356567,-0.0155 0.238745,-0.0155 0.359668,-0.0155 0.398426,0 0.398426,0.15038 0,0.10232 -0.179834,0.23564 z"
         id="path2" />
      <path
         d="m 7.6570428,125.9261 q -0.00155,-0.0651 0.043408,-0.10542 0.046509,-0.0419 0.1131714,-0.0419 0.075964,0 0.1333251,0.0868 0.079065,0.11783 0.1410767,0.15968 0.1317749,0.0868 0.3829224,0.0868 0.2402954,0 0.4464843,-0.10387 0.2635498,-0.13332 0.2635498,-0.37052 0,-0.19534 -0.2216919,-0.30851 -0.1875854,-0.0977 -0.4635376,-0.10542 -0.2449462,-0.009 -0.4170288,-0.10697 -0.2201416,-0.12557 -0.2201416,-0.35967 0,-0.27595 0.3131592,-0.50384 0.2992066,-0.21549 0.6185669,-0.21549 0.1503784,0 0.3395142,0.0512 0.2511474,0.0667 0.2511474,0.17053 0,0.13643 -0.1395263,0.13643 -0.062012,0 -0.2170411,-0.0326 -0.1550293,-0.0341 -0.2402954,-0.0326 -0.2418457,0.003 -0.4108276,0.11938 -0.1736328,0.11937 -0.1736328,0.2899 0,0.12868 0.2294434,0.18139 0.085266,0.0202 0.3302123,0.0372 0.3550171,0.0264 0.5550049,0.22324 0.1829346,0.17984 0.1829346,0.43874 0,0.36897 -0.3410645,0.58911 -0.2961059,0.19069 -0.6867797,0.19069 -0.2837036,0 -0.5193482,-0.10853 -0.2883545,-0.13332 -0.2930053,-0.36586 z m 3.2463132,-0.93483 q -0.03256,0 -0.07751,-0.003 -0.04341,-0.003 -0.07597,-0.003 -0.03566,0 -0.21084,0.0233 l 0.02946,0.91623 0.0015,0.0682 0.0016,0.0791 q 0.0062,0.33952 -0.162781,0.33952 -0.06201,0 -0.108521,-0.0403 -0.04496,-0.0403 -0.04496,-0.10077 0,-0.0589 0.0047,-0.17673 0.0047,-0.11783 0.0047,-0.17674 l -0.03101,-0.90537 q -0.113172,-0.005 -0.3441654,-0.0264 -0.137976,-0.0186 -0.137976,-0.15348 0,-0.0682 0.041858,-0.11317 0.041858,-0.045 0.1069702,-0.045 l 0.3255612,0.0263 q 0,-0.0791 -0.0078,-0.21084 -0.0062,-0.13332 -0.0062,-0.19223 0,-0.0651 0.04496,-0.10697 0.04496,-0.0434 0.110071,-0.0434 0.139526,0 0.162781,0.22789 0.0047,0.0574 0.0047,0.13798 l -0.0031,0.0899 -0.0015,0.0961 q 0.192236,-0.0248 0.220141,-0.0248 0.161231,0 0.21084,0.0155 0.09457,0.031 0.09457,0.14573 0,0.0682 -0.04341,0.11317 -0.04186,0.0434 -0.108521,0.0434 z m 1.723926,0.41548 q 0,0.11162 0.0015,0.33486 0.0016,0.22324 0.0016,0.33486 0,0.0341 0.0046,0.10387 0.0062,0.0698 0.0062,0.10387 0,0.0667 -0.04496,0.10852 -0.04496,0.0434 -0.110071,0.0434 -0.119372,0 -0.151928,-0.14728 -0.193787,0.10077 -0.446485,0.10077 -0.203088,0 -0.336413,-0.0899 -0.147278,-0.0992 -0.175183,-0.28991 -0.06046,-0.41083 -0.06046,-0.73174 0,-0.21239 0.04651,-0.48369 0.0217,-0.13487 0.147278,-0.13487 0.06666,0 0.111621,0.0434 0.04496,0.0419 0.04496,0.10852 0,0.0713 -0.02325,0.2279 -0.0217,0.15658 -0.0217,0.23874 0,0.2589 0.01705,0.44339 0.01705,0.18448 0.05116,0.2961 0.05116,0.0279 0.100769,0.0434 0.04961,0.014 0.09767,0.014 0.20774,0 0.438733,-0.0667 l -0.0015,-0.31471 -0.0031,-0.30076 q 0,-0.33486 0.02946,-0.58136 0.01705,-0.14262 0.150378,-0.14262 0.06666,0 0.111621,0.0434 0.04496,0.0434 0.04186,0.10852 z m 1.813843,-0.46354 q -0.0186,0.22789 -0.0186,0.45579 0,0.51624 0.04806,0.77979 0.0031,0.0217 0.0031,0.0357 0,0.062 -0.04341,0.10232 -0.04341,0.0403 -0.100769,0.0403 -0.09612,0 -0.141077,-0.13953 -0.111621,0.0822 -0.232544,0.12402 -0.119372,0.0419 -0.249597,0.0419 -0.320911,0 -0.531751,-0.21394 -0.217041,-0.21859 -0.217041,-0.5612 0,-0.41393 0.218592,-0.66353 0.220141,-0.2496 0.570508,-0.2496 0.179834,0 0.277502,0.0558 l 0.145728,0.10697 q 0.0217,-0.65267 0.05116,-0.87901 0.02015,-0.13798 0.141077,-0.13798 0.141076,0 0.141076,0.15038 0,0.21549 -0.06201,0.95188 z m -0.68833,0.0403 q -0.26045,0 -0.390674,0.15503 -0.130225,0.15348 -0.130225,0.46353 0,0.19999 0.141077,0.34417 0.142627,0.14418 0.333313,0.14418 0.130225,0 0.220142,-0.0481 0.05271,-0.0279 0.172082,-0.12868 0.02325,-0.0202 0.04496,-0.0481 l -0.0047,-0.2682 0.0015,-0.17983 0.0031,-0.18294 q -0.05891,-0.12557 -0.15658,-0.18758 -0.09767,-0.0636 -0.234094,-0.0636 z m 1.421619,-0.63407 q -0.07442,0 -0.128675,-0.0527 -0.05426,-0.0527 -0.05426,-0.12713 0,-0.0744 0.05426,-0.12712 0.05426,-0.0527 0.128675,-0.0527 0.07441,0 0.127124,0.0527 0.05426,0.0527 0.05426,0.12712 0,0.0744 -0.05426,0.12713 -0.05271,0.0527 -0.127124,0.0527 z m 0.06976,1.25884 q 0,0.093 0.0047,0.27905 0.0062,0.18448 0.0062,0.2775 0,0.0682 -0.04186,0.11162 -0.04186,0.0434 -0.110071,0.0434 -0.06666,0 -0.110071,-0.0434 -0.04186,-0.0434 -0.04186,-0.11162 0,-0.093 -0.0062,-0.2775 -0.0047,-0.18604 -0.0047,-0.27905 0,-0.14573 0.0155,-0.36277 0.0155,-0.21859 0.0155,-0.36432 0,-0.0698 0.04186,-0.11317 0.04341,-0.0434 0.110071,-0.0434 0.06666,0 0.10852,0.0434 0.04341,0.0434 0.04341,0.11317 0,0.14573 -0.0155,0.36432 -0.0155,0.21704 -0.0155,0.36277 z m 1.105358,0.7953 q -0.260449,0 -0.448034,-0.19224 -0.20929,-0.21394 -0.220142,-0.57516 -0.0093,-0.35037 0.176733,-0.61702 0.217041,-0.31471 0.604615,-0.31471 0.310058,0 0.469738,0.28371 0.127124,0.22944 0.122474,0.5519 -0.0047,0.34417 -0.179834,0.58756 -0.198438,0.27596 -0.52555,0.27596 z m 0.09302,-1.38442 q -0.227893,-0.002 -0.355017,0.21705 -0.100769,0.17518 -0.100769,0.39997 0,0.22479 0.122473,0.35037 0.102319,0.10387 0.240295,0.10387 0.161231,0 0.277503,-0.11783 0.131775,-0.13022 0.139526,-0.35191 0.0217,-0.59997 -0.324011,-0.60152 z"
         id="path3" />
      <desc
         id="desc6">Brand</desc>
      <title
         id="title6">Brand</title>
    </g>
    <rect
       style="display:inline;fill:#c0c0c0;fill-opacity:1;stroke:#505050;stroke-width:0.215595;stroke-miterlimit:0;stroke-dasharray:none;stroke-opacity:1"
       id="guid-e177fcca-23db-4d9a-8f50-21ab1e5511d2"
       width="23.184404"
       height="43.784409"
       x="1.1077975"
       y="24.568661"
       ry="2.0181189"
       inkscape:label="Modulation Block">
      <desc
         id="desc9">Output Block</desc>
      <title
         id="title9">Modulation Block</title>
    </rect>
    <rect
       style="display:inline;fill:#c0c0c0;fill-opacity:1;stroke:#505050;stroke-width:0.214054;stroke-miterlimit:0;stroke-dasharray:none;stroke-opacity:1"
       id="guid-c6124b5b-7089-4f40-8008-45f5eb46cf5e"
       width="23.185946"
       height="43.157967"
       x="1.1070268"
       y="70.107025"
       ry="1.9892451"
       inkscape:label="Parameter Block">
      <desc
         id="desc9-4">Output Block</desc>
      <title
         id="title9-9">Parameter Block</title>
    </rect>
    <path
       d="m 8.8155669,5.9301763 q -0.1550294,0 -0.229099,-0.1636421 -0.034451,-0.077515 -0.068902,-0.093018 -0.025838,-0.012058 -0.1360814,-0.012058 -0.2170411,0 -0.5012617,0.3376196 -0.3979088,0.4719784 -0.3979088,0.8836676 0,0.1877578 0.1257461,0.3221166 0.1257461,0.1343588 0.301446,0.1343588 0.1705324,0 0.3462324,-0.089573 0.062012,-0.032729 0.2618274,-0.1688098 0.1343588,-0.089573 0.2032608,-0.089573 0.1033529,0 0.1756999,0.075792 0.067179,0.070625 0.067179,0.1619196 0,0.1016304 -0.089572,0.1774225 -0.4737009,0.3996313 -0.9646274,0.3996313 -0.3875734,0 -0.6545685,-0.282498 -0.2549373,-0.2721627 -0.2549373,-0.6407881 0,-0.5770539 0.5047069,-1.1782235 0.4289146,-0.5098744 0.8767773,-0.5098744 0.075792,0 0.1360814,0.00517 0.062012,0.00517 0.1085206,0.015503 0.075792,-0.07407 0.1825901,-0.07407 0.1757,0 0.2170412,0.2015382 0.029283,0.1446941 0.029283,0.3376196 0,0.086127 -0.049954,0.1567519 -0.065457,0.093018 -0.1894804,0.093018 z m 0.9870205,1.5812999 q 0,0.3272843 -0.2377117,0.3272843 -0.103353,0 -0.1705324,-0.065457 -0.067179,-0.065457 -0.067179,-0.1688098 v -2.382285 q 0,-0.099908 0.072347,-0.1636422 Q 9.4684129,5 9.5700433,5 q 0.1016304,0 0.1670872,0.062012 0.065457,0.060289 0.065457,0.1601971 z m 0.8285456,-1.817289 q -0.110243,0 -0.191203,-0.07407 -0.08096,-0.07407 -0.08096,-0.1808677 0,-0.106798 0.08096,-0.1808676 0.08096,-0.07407 0.191203,-0.07407 0.110243,0 0.189481,0.07407 0.08096,0.07407 0.08096,0.1808676 0,0.1067981 -0.08096,0.1808677 -0.07924,0.07407 -0.189481,0.07407 z m 0.146417,1.2626283 q 0,0.098185 0.0052,0.3152264 0.0069,0.2170412 0.0069,0.3152264 0,0.099908 -0.06718,0.1653647 -0.06718,0.063734 -0.170532,0.063734 -0.103353,0 -0.170532,-0.063734 -0.06718,-0.065457 -0.06718,-0.1653647 0,-0.098185 -0.0069,-0.3152264 -0.0052,-0.2170412 -0.0052,-0.3152264 0,-0.1533069 0.01722,-0.3841284 0.01722,-0.2308216 0.01722,-0.3841284 0,-0.099908 0.06718,-0.1636422 0.06718,-0.065457 0.170532,-0.065457 0.103353,0 0.170533,0.065457 0.06718,0.063734 0.06718,0.1636422 0,0.1533068 -0.01723,0.3841284 -0.01722,0.2308215 -0.01722,0.3841284 z m 1.245403,0.9095058 q -0.148139,0 -0.311782,-0.034451 l -0.0017,0.7027999 q 0,0.099908 -0.06718,0.1653647 -0.06718,0.065457 -0.170533,0.065457 -0.103353,0 -0.170532,-0.065457 -0.06718,-0.065457 -0.06718,-0.1653647 0,-0.08096 0.0034,-0.6425107 0.0034,-0.4168568 0,-0.6804068 -0.0052,-0.3720706 -0.02412,-0.6407882 -0.02584,-0.370348 -0.02584,-0.3393421 0,-0.1429716 0.06373,-0.2446019 0.07407,-0.1154108 0.199816,-0.1154108 0.09646,0 0.161919,0.065457 0.06546,0.065457 0.06546,0.156752 l -0.0017,0.017225 q 0.11541,-0.065457 0.230821,-0.096463 0.117133,-0.032728 0.234267,-0.032728 0.396186,0 0.578776,0.335897 0.136081,0.2532147 0.136081,0.6562912 0,0.3772382 -0.215318,0.6252852 -0.230822,0.2669951 -0.618395,0.2669951 z m 0.118856,-1.4245479 q -0.108521,0 -0.220487,0.051676 -0.111965,0.049954 -0.225653,0.1515843 0.02067,0.3548451 0.02067,0.7114127 0.153307,0.049954 0.306614,0.049954 0.177422,0 0.272163,-0.1257461 0.08613,-0.1136882 0.08613,-0.3066136 0,-0.2325441 -0.02067,-0.3221167 -0.04995,-0.2101509 -0.218763,-0.2101509 z m 1.767335,1.4245479 q -0.148139,0 -0.311782,-0.034451 l -0.0017,0.7027999 q 0,0.099908 -0.06718,0.1653647 -0.06718,0.065457 -0.170532,0.065457 -0.103353,0 -0.170532,-0.065457 -0.06718,-0.065457 -0.06718,-0.1653647 0,-0.08096 0.0034,-0.6425107 0.0034,-0.4168568 0,-0.6804068 -0.0052,-0.3720706 -0.02412,-0.6407882 -0.02584,-0.370348 -0.02584,-0.3393421 0,-0.1429716 0.06373,-0.2446019 0.07407,-0.1154108 0.199816,-0.1154108 0.09646,0 0.161919,0.065457 0.06546,0.065457 0.06546,0.156752 l -0.0017,0.017225 q 0.115411,-0.065457 0.230822,-0.096463 0.117133,-0.032728 0.234267,-0.032728 0.396186,0 0.578776,0.335897 0.136081,0.2532147 0.136081,0.6562912 0,0.3772382 -0.215318,0.6252852 -0.230822,0.2669951 -0.618395,0.2669951 z M 14.028,6.4417734 q -0.108521,0 -0.220487,0.051676 -0.111965,0.049954 -0.225654,0.1515843 0.02067,0.3548451 0.02067,0.7114127 0.153307,0.049954 0.306614,0.049954 0.177422,0 0.272162,-0.1257461 0.08613,-0.1136882 0.08613,-0.3066136 0,-0.2325441 -0.02067,-0.3221167 Q 14.196809,6.4417734 14.028,6.4417734 Z m 1.839682,1.4021547 q -0.411689,0 -0.673516,-0.1963705 -0.289389,-0.2170412 -0.289389,-0.6115049 0,-0.4358049 0.229099,-0.7372509 0.254938,-0.3341745 0.687297,-0.3341745 0.299724,0 0.497817,0.096463 0.260105,0.1274686 0.260105,0.3961862 0,0.1894804 -0.211874,0.335897 -0.09646,0.067179 -0.387573,0.1963706 l -0.580499,0.2566598 q 0.08268,0.089573 0.199816,0.1343588 0.117133,0.044786 0.268717,0.044786 0.230822,0 0.391019,-0.09474 0.142971,-0.084405 0.229099,-0.084405 0.179145,0 0.179145,0.1739774 0,0.1963706 -0.287666,0.3203941 -0.241157,0.1033529 -0.511597,0.1033529 z m -0.04651,-1.462444 q -0.160197,0 -0.273885,0.1067981 -0.113688,0.106798 -0.18259,0.3203941 0.194648,-0.084405 0.387573,-0.1670873 0.232544,-0.1050755 0.370348,-0.194648 -0.11541,-0.065457 -0.301446,-0.065457 z m 2.594159,0.1412491 q -0.0155,0.2635499 -0.239434,0.2635499 -0.217041,0 -0.217041,-0.2239313 l -0.0086,-0.1739775 q -0.387574,0.062012 -0.554661,0.3979088 l 0.0017,0.8664421 q 0,0.098185 -0.06718,0.1619196 -0.06718,0.065457 -0.170532,0.065457 -0.106798,0 -0.165365,-0.068902 -0.05512,-0.062012 -0.05512,-0.1584745 V 6.5244557 q 0,-0.053399 0.0034,-0.1584745 0.0034,-0.106798 0.0034,-0.160197 0,-0.096463 0.05684,-0.1601971 0.05857,-0.065457 0.165365,-0.065457 0.191203,0 0.227376,0.1963705 0.304891,-0.2273764 0.676962,-0.2273764 0.34451,0 0.34451,0.458198 0,0.08785 -0.0017,0.1154108 z"
       id="guid-caa1c78f-7e08-4511-8ae5-d40ea27173a9"
       style="font-weight:bold;font-size:3.52778px;font-family:'Comic Sans MS';-inkscape-font-specification:'Comic Sans MS, Bold';text-align:center;text-anchor:middle;stroke:#000000;stroke-width:0;stroke-linecap:round;stroke-linejoin:round;stroke-miterlimit:0"
       inkscape:label="Module"
       aria-label="Clipper">
      <title
         id="title5">Module</title>
    </path>
    <path
       d="m 6.5192881,20.427192 q -0.1102431,0 -0.2773303,-0.02239 l -0.2773304,-0.03617 q -0.039619,0.501261 -0.039619,0.957737 0,0.120578 0.00689,0.298001 0.00689,0.177422 0.00689,0.298001 0,0.161919 -0.012058,0.294556 l 0.5426029,-0.0069 q 0.072347,0 0.1205784,0.05168 0.049954,0.04995 0.049954,0.124023 0,0.07579 -0.049954,0.127469 -0.048231,0.04995 -0.1205784,0.04995 -0.096463,0 -0.2893882,0.0052 -0.1929255,0.0034 -0.2893882,0.0034 -0.1136882,0 -0.3410647,0.03101 -0.2256539,0.03273 -0.3410647,0.03273 -0.072347,0 -0.1223009,-0.05168 -0.048231,-0.04995 -0.048231,-0.124024 0,-0.07407 0.048231,-0.125746 0.049954,-0.05168 0.1223009,-0.05168 0.1119657,0 0.370348,-0.03617 0.017226,-0.139527 0.017226,-0.318672 0,-0.118855 -0.012058,-0.289388 -0.010335,-0.172255 -0.010335,-0.289388 0,-0.397909 0.048231,-0.993911 l -0.2239314,0.0069 -0.2239313,0.0052 q -0.07407,0 -0.1240236,-0.04995 Q 5,20.266995 5,20.189481 5,20.029284 5.1619196,20.013781 5.3014461,20 5.6838519,20 q 0.3427872,0 0.8595519,0.07407 0.1533069,0.02239 0.1533069,0.184313 0,0.08096 -0.058567,0.129191 -0.051676,0.03962 -0.1188559,0.03962 z m 1.8396822,2.268597 q -0.1481392,0 -0.1670872,-0.161919 l -0.048231,-0.377239 q -0.024116,-0.201538 -0.024116,-0.377238 0,-0.04823 0.00517,-0.163642 0.00689,-0.115411 0.00689,-0.163642 0,-0.372071 -0.1378039,-0.372071 -0.1929255,0 -0.3686255,0.229099 -0.1584745,0.208429 -0.248047,0.5271 -0.00345,0.06718 -0.015503,0.16881 -0.010335,0.08613 -0.010335,0.167087 0,0.05168 0.010335,0.15503 0.010335,0.103353 0.010335,0.155029 0,0.07752 -0.048231,0.125746 -0.046509,0.04823 -0.1205785,0.04823 -0.075792,0 -0.1223009,-0.04823 -0.046509,-0.04823 -0.046509,-0.125746 0,-0.05168 -0.012058,-0.155029 -0.010335,-0.103353 -0.010335,-0.15503 0,-0.177422 0.024116,-0.490926 0.025838,-0.315227 0.025838,-0.492649 0,-0.05512 -0.00689,-0.163642 -0.00517,-0.108521 -0.00517,-0.163642 0,-0.07407 0.048231,-0.120579 0.049954,-0.04823 0.1223009,-0.04823 0.1584745,0 0.1739775,0.223931 l 0.00517,0.201538 q 0.2893882,-0.38585 0.5942794,-0.38585 0.2756078,0 0.3841284,0.242879 0.07407,0.161919 0.08096,0.478868 v 0.173978 l -0.00172,0.160197 q 0,0.142972 0.036174,0.370348 0.037896,0.225654 0.037896,0.366903 0,0.07579 -0.049954,0.122301 -0.048231,0.04823 -0.122301,0.04823 z"
       id="In"
       style="font-size:3.52778px;font-family:'Comic Sans MS';-inkscape-font-specification:'Comic Sans MS, Normal';text-align:center;text-anchor:middle;stroke:#000000;stroke-width:0;stroke-miterlimit:0"
       inkscape:label="In"
       aria-label="In">
      <title
         id="title10">Input</title>
    </path>
    <path
       d="m 16.61402,22.714737 q -0.485759,0 -0.823378,-0.291111 -0.35829,-0.310059 -0.35829,-0.799263 0,-0.596002 0.353122,-1.083483 Q 16.179938,20 16.76905,20 q 0.566718,0 0.842326,0.254937 0.287666,0.265272 0.287666,0.837159 0,0.596001 -0.32384,1.07487 -0.37207,0.547771 -0.961182,0.547771 z m 0.15503,-2.361615 q -0.422025,0 -0.714858,0.420302 -0.27044,0.385851 -0.27044,0.850939 0,0.332452 0.246324,0.54088 0.235989,0.196371 0.583944,0.196371 0.41858,0 0.690742,-0.422024 0.24288,-0.377239 0.24288,-0.847494 0,-0.41169 -0.184313,-0.578777 -0.1757,-0.160197 -0.594279,-0.160197 z m 2.924888,1.250571 q 0,0.124023 0.0017,0.37207 0.0017,0.248047 0.0017,0.372071 0,0.0379 0.0052,0.11541 0.0069,0.07752 0.0069,0.115411 0,0.07407 -0.04995,0.120579 -0.04995,0.04823 -0.122301,0.04823 -0.132637,0 -0.16881,-0.163642 -0.215319,0.111966 -0.496094,0.111966 -0.225654,0 -0.373793,-0.09991 -0.163643,-0.110243 -0.194648,-0.322117 -0.06718,-0.456475 -0.06718,-0.813043 0,-0.235989 0.05168,-0.537435 0.02412,-0.149862 0.163642,-0.149862 0.07407,0 0.124023,0.04823 0.04995,0.04651 0.04995,0.120579 0,0.07924 -0.02584,0.253214 -0.02412,0.173978 -0.02412,0.265273 0,0.287666 0.01895,0.492649 0.01895,0.204983 0.05684,0.329007 0.05684,0.03101 0.111966,0.04823 0.05512,0.0155 0.108521,0.0155 0.230821,0 0.487481,-0.07407 l -0.0017,-0.349678 -0.0034,-0.334174 q 0,-0.372071 0.03273,-0.645956 0.01895,-0.158475 0.167087,-0.158475 0.07407,0 0.124024,0.04823 0.04995,0.04823 0.04651,0.120578 z m 1.581299,-0.461644 q -0.03617,0 -0.08613,-0.0034 -0.04823,-0.0034 -0.08441,-0.0034 -0.03962,0 -0.234267,0.02584 l 0.03273,1.018026 0.0017,0.07579 0.0017,0.08785 q 0.0069,0.377238 -0.180868,0.377238 -0.0689,0 -0.120578,-0.04479 -0.04995,-0.04479 -0.04995,-0.111966 0,-0.06546 0.0052,-0.19637 0.0052,-0.130914 0.0052,-0.196371 l -0.03445,-1.005968 q -0.125746,-0.0052 -0.382406,-0.02928 -0.153307,-0.02067 -0.153307,-0.170532 0,-0.07579 0.04651,-0.125746 0.04651,-0.04995 0.118856,-0.04995 l 0.361735,0.02928 q 0,-0.08785 -0.0086,-0.234266 -0.0069,-0.14814 -0.0069,-0.213596 0,-0.07235 0.04995,-0.118856 0.04995,-0.04823 0.122301,-0.04823 0.15503,0 0.180868,0.253215 0.0052,0.06373 0.0052,0.153307 l -0.0034,0.09991 -0.0017,0.106798 q 0.213596,-0.02756 0.244602,-0.02756 0.179145,0 0.234267,0.01722 0.105075,0.03445 0.105075,0.16192 0,0.07579 -0.04823,0.125746 -0.04651,0.04823 -0.120579,0.04823 z"
       id="In-0"
       style="font-size:3.52778px;font-family:'Comic Sans MS';-inkscape-font-specification:'Comic Sans MS, Normal';text-align:center;text-anchor:middle;stroke:#000000;stroke-width:0;stroke-miterlimit:0"
       inkscape:label="In"
       aria-label="Out" />
    <path
       d="m 12.765427,40.89878 q -0.375005,0 -0.559494,-0.215839 -0.149519,-0.173636 -0.188105,-0.513673 -0.01809,-0.153138 -0.01809,-0.611344 0,-0.168813 0.0072,-0.272512 0.0072,-0.109728 0.0217,-0.153137 0.03015,-0.08802 0.108523,-0.08802 0.110934,0 0.110934,0.203781 v 0.707808 q 0,0.730718 0.511261,0.730718 0.481117,0 0.481117,-1.229922 0,-0.04582 0,-0.118169 -0.0012,-0.07235 -0.0012,-0.09646 0,-0.07476 0.02653,-0.131433 0.03376,-0.07235 0.100082,-0.07235 0.12058,0 0.12058,0.165195 0,0.04944 0.0012,0.14952 0,0.100082 0,0.14952 0,1.396323 -0.722278,1.396323 z m 2.509282,-1.571165 q -0.08923,0 -0.274924,-0.01447 -0.180871,-0.01326 -0.274923,-0.01206 h -0.08561 q 0.0036,0.166402 0.03256,0.540201 0.02653,0.348478 0.02653,0.541407 0,0.0422 0.0084,0.127816 0.0084,0.08561 0.0084,0.129021 0,0.08199 -0.02653,0.141079 -0.03376,0.07958 -0.104905,0.07958 -0.04823,0 -0.08682,-0.03376 -0.03859,-0.03376 -0.03859,-0.08682 0,-0.01809 0.006,-0.05426 0.006,-0.03617 0.006,-0.05426 0,-0.05908 -0.0084,-0.177253 -0.0072,-0.118169 -0.0072,-0.17846 0,-0.17243 -0.02773,-0.484733 -0.02894,-0.337626 -0.03256,-0.484734 l -0.109729,0.0012 q -0.264071,0 -0.414797,-0.03859 -0.09767,-0.02532 -0.09767,-0.119375 0,-0.04944 0.03135,-0.08682 0.03617,-0.0422 0.09285,-0.03859 0.0422,0.0024 0.192929,0.0217 0.120581,0.01447 0.19534,0.01447 0.07235,0 0.219457,-0.0024 0.147108,-0.0036 0.219457,-0.0036 0.09285,0 0.274923,0.01326 0.183283,0.01326 0.27613,0.01326 0.05185,0 0.08682,0.03617 0.03497,0.03497 0.03497,0.08802 0,0.05185 -0.03497,0.08802 -0.03497,0.03497 -0.08682,0.03497 z m 1.995608,1.623015 q -0.06511,0 -0.107316,-0.06752 -0.03617,-0.05788 -0.06511,-0.192929 l -0.04341,-0.207399 q -0.04944,-0.192929 -0.156755,-0.851299 l -0.241161,0.727101 -0.07114,0.229103 q -0.04341,0.136256 -0.09044,0.223074 -0.05064,0.09164 -0.136256,0.09164 -0.07114,0 -0.11214,-0.07717 -0.02653,-0.05064 -0.04823,-0.129021 l -0.03497,-0.133845 q -0.121787,-0.425649 -0.214634,-0.911589 l -0.04341,0.215839 -0.155549,0.636666 q -0.0096,0.11214 -0.06029,0.331596 -0.03617,0.09405 -0.119375,0.09405 -0.05908,0 -0.09405,-0.0422 -0.03015,-0.03617 -0.03015,-0.08923 0,-0.201369 0.0832,-0.49438 l 0.132639,-0.48594 0.06994,-0.379828 q 0.05306,-0.266484 0.11214,-0.348478 0.04823,-0.06994 0.119375,-0.06994 0.07838,0 0.116963,0.08923 0.04703,0.107316 0.101288,0.437707 0.06391,0.39671 0.198958,0.858534 0.178459,-0.464236 0.308686,-0.967056 l 0.03617,-0.176048 q 0.02171,-0.106111 0.05667,-0.171225 0.04703,-0.08923 0.129021,-0.08923 0.1037,0 0.157961,0.200164 0.01929,0.06873 0.04703,0.28457 0.07114,0.545024 0.177254,0.930882 l 0.05908,0.207398 q 0.04582,0.166402 0.04582,0.204987 0,0.05185 -0.03979,0.08682 -0.03859,0.03497 -0.08802,0.03497 z m 2.465873,-0.06391 q -0.110934,0 -0.192929,-0.28457 -0.03135,-0.108523 -0.07838,-0.379829 -0.122993,0.01688 -0.321951,0.06029 l -0.320744,0.06632 q -0.06029,0.15796 -0.206193,0.461823 -0.03858,0.06753 -0.104905,0.06753 -0.04823,0 -0.08682,-0.03497 -0.03738,-0.03497 -0.03738,-0.08682 0,-0.05788 0.182077,-0.440119 -0.0205,-0.03135 -0.0205,-0.07235 0,-0.09767 0.118169,-0.125404 0.137462,-0.258043 0.347272,-0.593257 0.285776,-0.457 0.355713,-0.457 0.09526,0 0.130227,0.132639 l 0.07597,0.40515 0.179665,0.838035 0.06873,0.190518 q 0.03497,0.09767 0.03497,0.130227 0,0.05185 -0.03738,0.08682 -0.03738,0.03497 -0.08561,0.03497 z m -0.42565,-1.378236 -0.34486,0.555876 q 0.145903,-0.03738 0.442531,-0.09043 z m 1.698981,0.314715 q -0.02532,0 -0.06029,-0.0024 -0.03376,-0.0024 -0.05908,-0.0024 -0.02773,0 -0.163989,0.01809 l 0.02291,0.712631 0.0012,0.05306 0.0012,0.0615 q 0.0048,0.264071 -0.12661,0.264071 -0.04823,0 -0.08441,-0.03135 -0.03497,-0.03135 -0.03497,-0.07838 0,-0.04582 0.0036,-0.137462 0.0036,-0.09164 0.0036,-0.137462 l -0.02412,-0.70419 q -0.08802,-0.0036 -0.267689,-0.0205 -0.107317,-0.01447 -0.107317,-0.119375 0,-0.05306 0.03256,-0.08802 0.03256,-0.03497 0.0832,-0.03497 l 0.253219,0.0205 q 0,-0.0615 -0.006,-0.16399 -0.0048,-0.103699 -0.0048,-0.14952 0,-0.05064 0.03497,-0.0832 0.03497,-0.03376 0.08561,-0.03376 0.108523,0 0.12661,0.177254 0.0036,0.04461 0.0036,0.107316 l -0.0024,0.06994 -0.0012,0.07476 q 0.14952,-0.01929 0.171224,-0.01929 0.125404,0 0.16399,0.01206 0.07355,0.02412 0.07355,0.113346 0,0.05306 -0.03376,0.08802 -0.03256,0.03376 -0.08441,0.03376 z m 1.163602,0 q -0.02532,0 -0.06029,-0.0024 -0.03376,-0.0024 -0.05908,-0.0024 -0.02773,0 -0.163989,0.01809 l 0.02291,0.712631 0.0012,0.05306 0.0012,0.0615 q 0.0048,0.264071 -0.12661,0.264071 -0.04823,0 -0.08441,-0.03135 -0.03497,-0.03135 -0.03497,-0.07838 0,-0.04582 0.0036,-0.137462 0.0036,-0.09164 0.0036,-0.137462 l -0.02412,-0.70419 q -0.08802,-0.0036 -0.267689,-0.0205 -0.107317,-0.01447 -0.107317,-0.119375 0,-0.05306 0.03256,-0.08802 0.03256,-0.03497 0.0832,-0.03497 l 0.253219,0.0205 q 0,-0.0615 -0.006,-0.16399 -0.0048,-0.103699 -0.0048,-0.14952 0,-0.05064 0.03497,-0.0832 0.03497,-0.03376 0.08561,-0.03376 0.108523,0 0.12661,0.177254 0.0036,0.04461 0.0036,0.107316 l -0.0024,0.06994 -0.0012,0.07476 q 0.14952,-0.01929 0.171224,-0.01929 0.125404,0 0.16399,0.01206 0.07355,0.02412 0.07355,0.113346 0,0.05306 -0.03376,0.08802 -0.03256,0.03376 -0.08441,0.03376 z m 1.281772,1.112959 q -0.1037,0 -0.116963,-0.113346 l -0.03376,-0.264071 q -0.01688,-0.141079 -0.01688,-0.264072 0,-0.03376 0.0036,-0.114551 0.0048,-0.08079 0.0048,-0.114552 0,-0.260454 -0.09646,-0.260454 -0.13505,0 -0.258043,0.160372 -0.110934,0.145903 -0.173636,0.368977 -0.0024,0.04703 -0.01085,0.118169 -0.0072,0.06029 -0.0072,0.116963 0,0.03617 0.0072,0.108523 0.0072,0.07235 0.0072,0.108522 0,0.05426 -0.03376,0.08802 -0.03256,0.03376 -0.08441,0.03376 -0.05306,0 -0.08561,-0.03376 -0.03256,-0.03376 -0.03256,-0.08802 0,-0.03617 -0.0084,-0.108522 -0.0072,-0.07235 -0.0072,-0.108523 0,-0.124198 0.01688,-0.343655 0.01809,-0.220662 0.01809,-0.34486 0,-0.03859 -0.0048,-0.114552 -0.0036,-0.07597 -0.0036,-0.114551 0,-0.05185 0.03376,-0.08441 0.03497,-0.03376 0.08561,-0.03376 0.110934,0 0.121787,0.156755 l 0.0036,0.141079 q 0.202575,-0.2701 0.416003,-0.2701 0.192929,0 0.268895,0.170018 0.05185,0.113346 0.05667,0.335214 v 0.121786 l -0.0012,0.11214 q 0,0.100082 0.02532,0.259249 0.02653,0.15796 0.02653,0.256836 0,0.05306 -0.03497,0.08561 -0.03376,0.03376 -0.08561,0.03376 z"
       id="In-0-9"
       style="font-size:2.46949px;font-family:'Comic Sans MS';-inkscape-font-specification:'Comic Sans MS, Normal';text-align:center;text-anchor:middle;stroke:#000000;stroke-width:0;stroke-miterlimit:0"
       inkscape:label="In"
       transform="scale(1.0000216,0.99997841)"
       aria-label="UTM Attn" />
    <path
       d="m 2.7656795,40.897898 q -0.374998,0 -0.5594825,-0.215835 -0.1495169,-0.173632 -0.1881019,-0.513663 -0.018087,-0.153134 -0.018087,-0.611331 0,-0.168809 0.00723,-0.272506 0.00723,-0.109727 0.021704,-0.153135 0.030145,-0.08802 0.1085204,-0.08802 0.1109318,0 0.1109318,0.203777 v 0.707794 q 0,0.730703 0.5112513,0.730703 0.4811067,0 0.4811067,-1.229897 0,-0.04582 0,-0.118166 -0.00121,-0.07235 -0.00121,-0.09646 0,-0.07476 0.026527,-0.13143 0.033762,-0.07235 0.1000798,-0.07235 0.1205782,0 0.1205782,0.165192 0,0.04944 0.00121,0.149517 0,0.10008 0,0.149517 0,1.396295 -0.7222629,1.396295 z m 2.5092308,-1.571133 q -0.089228,0 -0.2749181,-0.01447 -0.1808672,-0.01326 -0.2749182,-0.01206 h -0.08561 q 0.00362,0.166398 0.032556,0.54019 0.026527,0.34847 0.026527,0.541395 0,0.0422 0.00844,0.127813 0.00844,0.08561 0.00844,0.129019 0,0.08199 -0.026527,0.141076 -0.033762,0.07958 -0.104903,0.07958 -0.048231,0 -0.086816,-0.03376 -0.038585,-0.03376 -0.038585,-0.08682 0,-0.01809 0.00603,-0.05426 0.00603,-0.03617 0.00603,-0.05426 0,-0.05908 -0.00844,-0.177249 -0.00723,-0.118167 -0.00723,-0.178456 0,-0.172427 -0.027733,-0.484724 -0.028939,-0.337619 -0.032556,-0.484724 l -0.1097261,0.0012 q -0.2640661,0 -0.4147888,-0.03858 -0.097668,-0.02532 -0.097668,-0.119373 0,-0.04944 0.03135,-0.08682 0.036173,-0.0422 0.092845,-0.03858 0.042202,0.0024 0.192925,0.0217 0.1205781,0.01447 0.1953366,0.01447 0.072347,0 0.2194522,-0.0024 0.1471053,-0.0036 0.2194522,-0.0036 0.092845,0 0.2749181,0.01326 0.1832787,0.01326 0.2761239,0.01326 0.051849,0 0.086816,0.03617 0.034968,0.03497 0.034968,0.08802 0,0.05185 -0.034968,0.08802 -0.034968,0.03497 -0.086816,0.03497 z m 1.9955681,1.622981 q -0.065112,0 -0.1073146,-0.06752 -0.036173,-0.05788 -0.065112,-0.192925 L 7.0546435,40.481903 Q 7.0052065,40.288978 6.8978919,39.630622 l -0.2411562,0.727086 -0.071141,0.229098 q -0.043408,0.136254 -0.090434,0.22307 -0.050643,0.09164 -0.1362533,0.09164 -0.071141,0 -0.1121376,-0.07717 -0.026527,-0.05064 -0.048231,-0.129018 L 6.1635712,40.561485 Q 6.0417873,40.135844 5.9489421,39.649914 l -0.043408,0.215835 -0.1555458,0.636653 q -0.00965,0.112137 -0.060289,0.331589 -0.036173,0.09405 -0.1193723,0.09405 -0.059083,0 -0.094051,-0.0422 -0.030145,-0.03617 -0.030145,-0.08923 0,-0.201365 0.083199,-0.49437 l 0.132636,-0.48593 0.069935,-0.379821 q 0.053054,-0.266478 0.1121376,-0.348471 0.048231,-0.06994 0.1193724,-0.06994 0.078376,0 0.1169608,0.08923 0.047025,0.107314 0.1012856,0.437698 0.063906,0.396702 0.1989539,0.858517 0.1784556,-0.464226 0.30868,-0.967037 l 0.036173,-0.176044 q 0.021704,-0.106109 0.056672,-0.171221 0.047026,-0.08923 0.1290186,-0.08923 0.1036972,0 0.1579574,0.20016 0.019292,0.06873 0.047025,0.284564 0.071141,0.545013 0.1772498,0.930863 l 0.059083,0.207395 q 0.04582,0.166398 0.04582,0.204983 0,0.05185 -0.039791,0.08682 -0.038585,0.03497 -0.088022,0.03497 z m 1.0393832,-0.672825 q -0.1639863,0.01688 -0.5835981,0.01688 -0.1012857,0 -0.1012857,-0.09405 0,-0.09405 0.1012857,-0.09405 0.095257,0 0.2857701,-0.0084 0.1905134,-0.0084 0.2857702,-0.0084 0.1073145,0 0.1073145,0.09405 0,0.0832 -0.095257,0.09405 z m 1.3637387,-0.929658 q -0.07717,0 -0.1941308,-0.01567 l -0.1941307,-0.02532 q -0.027733,0.350882 -0.027733,0.670414 0,0.08441 0.00482,0.2086 0.00482,0.124196 0.00482,0.2086 0,0.113344 -0.00844,0.206189 l 0.3798211,-0.0048 q 0.050643,0 0.084405,0.03617 0.034968,0.03497 0.034968,0.08682 0,0.05306 -0.034968,0.08923 -0.033762,0.03497 -0.084405,0.03497 -0.067524,0 -0.2025713,0.0036 -0.1350475,0.0024 -0.2025712,0.0024 -0.079582,0 -0.2387447,0.0217 -0.1579574,0.02291 -0.2387447,0.02291 -0.050643,0 -0.085611,-0.03617 -0.033762,-0.03497 -0.033762,-0.08682 0,-0.05185 0.033762,-0.08802 0.034968,-0.03617 0.085611,-0.03617 0.078376,0 0.259243,-0.02532 0.012058,-0.09767 0.012058,-0.223069 0,-0.0832 -0.00844,-0.202572 -0.00723,-0.120578 -0.00723,-0.202571 0,-0.278535 0.033762,-0.695736 l -0.1567516,0.0048 -0.1567515,0.0036 q -0.051849,0 -0.086816,-0.03497 -0.034968,-0.03497 -0.034968,-0.08923 0,-0.112137 0.1133434,-0.122989 0.097668,-0.0096 0.3653517,-0.0096 0.2399505,0 0.6016849,0.05185 0.1073145,0.01567 0.1073145,0.129019 0,0.05667 -0.040997,0.09043 -0.036173,0.02773 -0.083199,0.02773 z m 1.2877737,1.588014 q -0.103697,0 -0.11696,-0.113343 l -0.03376,-0.264066 q -0.01688,-0.141077 -0.01688,-0.264067 0,-0.03376 0.0036,-0.114549 0.0048,-0.08079 0.0048,-0.114549 0,-0.260449 -0.09646,-0.260449 -0.135048,0 -0.258037,0.160369 -0.110932,0.1459 -0.173633,0.368969 -0.0024,0.04703 -0.01085,0.118167 -0.0072,0.06029 -0.0072,0.116961 0,0.03617 0.0072,0.10852 0.0072,0.07235 0.0072,0.10852 0,0.05426 -0.03376,0.08802 -0.03256,0.03376 -0.08441,0.03376 -0.05305,0 -0.08561,-0.03376 -0.03256,-0.03376 -0.03256,-0.08802 0,-0.03617 -0.0084,-0.10852 -0.0072,-0.07235 -0.0072,-0.10852 0,-0.124196 0.01688,-0.343648 0.01809,-0.220658 0.01809,-0.344854 0,-0.03858 -0.0048,-0.114549 -0.0036,-0.07596 -0.0036,-0.114549 0,-0.05185 0.03376,-0.0844 0.03497,-0.03376 0.08561,-0.03376 0.110932,0 0.121784,0.156752 l 0.0036,0.141076 q 0.202571,-0.270095 0.415995,-0.270095 0.192925,0 0.268889,0.170016 0.05185,0.113343 0.05667,0.335207 v 0.121784 l -0.0012,0.112137 q 0,0.10008 0.02532,0.259243 0.02653,0.157958 0.02653,0.256832 0,0.05305 -0.03497,0.08561 -0.03376,0.03376 -0.08561,0.03376 z"
       id="In-0-97"
       style="font-size:2.46944px;font-family:'Comic Sans MS';-inkscape-font-specification:'Comic Sans MS, Normal';text-align:center;text-anchor:middle;stroke:#000000;stroke-width:0;stroke-miterlimit:0"
       inkscape:label="In"
       aria-label="UTM-In" />
    <path
       d="m 13.114152,61.809877 q -0.136254,0.06391 -0.428053,0.114549 -0.268889,0.04703 -0.438904,0.04703 -0.121784,0 -0.174838,-0.03738 -0.07235,-0.05064 -0.07235,-0.18569 l 0.02412,-0.399114 q 0.03135,-0.552247 0.03135,-1.225073 0,-0.05185 0.03376,-0.08802 0.03497,-0.03617 0.08561,-0.03617 0.05185,0 0.08561,0.03617 0.03497,0.03617 0.03497,0.08802 0,0.681266 -0.03256,1.239543 l -0.01567,0.183279 q -0.0096,0.100079 -0.0072,0.177249 0.314709,0.0036 0.795816,-0.148311 0.0205,-0.006 0.03858,-0.006 0.05185,0 0.08682,0.041 0.03014,0.03738 0.03014,0.08561 0,0.07717 -0.07717,0.113344 z m 1.766469,-1.473465 q -0.08923,0 -0.274918,-0.01447 -0.180867,-0.01326 -0.274918,-0.01206 h -0.08561 q 0.0036,0.166398 0.03256,0.54019 0.02653,0.348471 0.02653,0.541396 0,0.0422 0.0084,0.127813 0.0084,0.08561 0.0084,0.129018 0,0.08199 -0.02653,0.141077 -0.03376,0.07958 -0.104902,0.07958 -0.04823,0 -0.08682,-0.03376 -0.03859,-0.03376 -0.03859,-0.08682 0,-0.01809 0.006,-0.05426 0.006,-0.03617 0.006,-0.05426 0,-0.05908 -0.0084,-0.17725 -0.0072,-0.118167 -0.0072,-0.178456 0,-0.172426 -0.02773,-0.484724 -0.02894,-0.337618 -0.03256,-0.484724 l -0.109726,0.0012 q -0.264066,0 -0.414789,-0.03858 -0.09767,-0.02532 -0.09767,-0.119372 0,-0.04944 0.03135,-0.08682 0.03617,-0.0422 0.09285,-0.03858 0.0422,0.0024 0.192925,0.0217 0.120578,0.01447 0.195337,0.01447 0.07235,0 0.219452,-0.0024 0.147105,-0.0036 0.219452,-0.0036 0.09284,0 0.274918,0.01326 0.183279,0.01326 0.276124,0.01326 0.05185,0 0.08682,0.03617 0.03497,0.03497 0.03497,0.08802 0,0.05185 -0.03497,0.08802 -0.03497,0.03497 -0.08682,0.03497 z m 1.995568,1.622982 q -0.06511,0 -0.107314,-0.06752 -0.03617,-0.05788 -0.06511,-0.192925 l -0.04341,-0.207394 q -0.04944,-0.192925 -0.156751,-0.851282 l -0.241157,0.727086 -0.07114,0.229099 q -0.04341,0.136253 -0.09043,0.223069 -0.05064,0.09164 -0.136254,0.09164 -0.07114,0 -0.112137,-0.07717 -0.02653,-0.05064 -0.04823,-0.129019 l -0.03497,-0.133842 q -0.121784,-0.425641 -0.214629,-0.91157 l -0.04341,0.215834 -0.155546,0.636653 q -0.0096,0.112138 -0.06029,0.33159 -0.03617,0.09405 -0.119372,0.09405 -0.05908,0 -0.09405,-0.0422 -0.03014,-0.03617 -0.03014,-0.08923 0,-0.201366 0.0832,-0.494371 l 0.132636,-0.48593 0.06993,-0.379821 q 0.05306,-0.266477 0.112138,-0.34847 0.04823,-0.06994 0.119372,-0.06994 0.07838,0 0.116961,0.08923 0.04702,0.107315 0.101286,0.437699 0.06391,0.396702 0.198954,0.858516 0.178455,-0.464226 0.30868,-0.967037 l 0.03617,-0.176044 q 0.0217,-0.106108 0.05667,-0.171221 0.04702,-0.08923 0.129018,-0.08923 0.103697,0 0.157958,0.200159 0.01929,0.06873 0.04702,0.284565 0.07114,0.545013 0.17725,0.930863 l 0.05908,0.207394 q 0.04582,0.166398 0.04582,0.204983 0,0.05185 -0.03979,0.08682 -0.03858,0.03497 -0.08802,0.03497 z m 2.465823,-0.06391 q -0.110932,0 -0.192925,-0.284564 -0.03135,-0.10852 -0.07838,-0.379821 -0.12299,0.01688 -0.321944,0.06029 l -0.320738,0.06632 q -0.06029,0.157957 -0.206188,0.461814 -0.03859,0.06752 -0.104903,0.06752 -0.04823,0 -0.08682,-0.03497 -0.03738,-0.03497 -0.03738,-0.08682 0,-0.05788 0.182073,-0.44011 -0.0205,-0.03135 -0.0205,-0.07235 0,-0.09767 0.118167,-0.125401 0.137459,-0.258037 0.347265,-0.593245 0.28577,-0.456991 0.355705,-0.456991 0.09526,0 0.130224,0.132636 l 0.07597,0.405143 0.179661,0.838018 0.06873,0.190513 q 0.03497,0.09767 0.03497,0.130224 0,0.05185 -0.03738,0.08682 -0.03738,0.03497 -0.08561,0.03497 z m -0.425641,-1.378208 -0.344854,0.555866 q 0.1459,-0.03738 0.442522,-0.09043 z m 1.698946,0.314709 q -0.02532,0 -0.06029,-0.0024 -0.03376,-0.0024 -0.05908,-0.0024 -0.02773,0 -0.163987,0.01809 l 0.02291,0.712617 0.0012,0.05305 0.0012,0.0615 q 0.0048,0.264066 -0.126607,0.264066 -0.04823,0 -0.08441,-0.03135 -0.03497,-0.03135 -0.03497,-0.07838 0,-0.04582 0.0036,-0.137459 0.0036,-0.09164 0.0036,-0.137459 l -0.02412,-0.704176 q -0.08802,-0.0036 -0.267683,-0.0205 -0.107315,-0.01447 -0.107315,-0.119372 0,-0.05305 0.03256,-0.08802 0.03256,-0.03497 0.0832,-0.03497 l 0.253214,0.0205 q 0,-0.06149 -0.006,-0.163986 -0.0048,-0.103697 -0.0048,-0.149517 0,-0.05064 0.03497,-0.0832 0.03497,-0.03376 0.08561,-0.03376 0.10852,0 0.126607,0.177249 0.0036,0.04461 0.0036,0.107315 l -0.0024,0.06994 -0.0012,0.07476 q 0.149516,-0.01929 0.171221,-0.01929 0.125401,0 0.163986,0.01206 0.07355,0.02412 0.07355,0.113343 0,0.05306 -0.03376,0.08802 -0.03256,0.03376 -0.08441,0.03376 z m 1.163578,0 q -0.02532,0 -0.06029,-0.0024 -0.03376,-0.0024 -0.05908,-0.0024 -0.02773,0 -0.163986,0.01809 l 0.02291,0.712617 0.0012,0.05305 0.0012,0.0615 q 0.0048,0.264066 -0.126607,0.264066 -0.04823,0 -0.08441,-0.03135 -0.03497,-0.03135 -0.03497,-0.07838 0,-0.04582 0.0036,-0.137459 0.0036,-0.09164 0.0036,-0.137459 l -0.02412,-0.704176 q -0.08802,-0.0036 -0.267684,-0.0205 Q 20.883,60.812696 20.883,60.707793 q 0,-0.05305 0.03256,-0.08802 0.03256,-0.03497 0.0832,-0.03497 l 0.253214,0.0205 q 0,-0.06149 -0.006,-0.163986 -0.0048,-0.103697 -0.0048,-0.149517 0,-0.05064 0.03497,-0.0832 0.03497,-0.03376 0.08561,-0.03376 0.10852,0 0.126607,0.177249 0.0036,0.04461 0.0036,0.107315 l -0.0024,0.06994 -0.0012,0.07476 q 0.149517,-0.01929 0.171221,-0.01929 0.125401,0 0.163986,0.01206 0.07355,0.02412 0.07355,0.113343 0,0.05306 -0.03376,0.08802 -0.03256,0.03376 -0.08441,0.03376 z m 1.281746,1.112936 q -0.103697,0 -0.116961,-0.113343 l -0.03376,-0.264066 q -0.01688,-0.141077 -0.01688,-0.264066 0,-0.03376 0.0036,-0.114549 0.0048,-0.08079 0.0048,-0.11455 0,-0.260448 -0.09646,-0.260448 -0.135047,0 -0.258037,0.160369 -0.110932,0.145899 -0.173632,0.368969 -0.0024,0.04702 -0.01085,0.118166 -0.0072,0.06029 -0.0072,0.116961 0,0.03617 0.0072,0.10852 0.0072,0.07235 0.0072,0.108521 0,0.05426 -0.03376,0.08802 -0.03256,0.03376 -0.0844,0.03376 -0.05306,0 -0.08561,-0.03376 -0.03256,-0.03376 -0.03256,-0.08802 0,-0.03617 -0.0084,-0.108521 -0.0072,-0.07235 -0.0072,-0.10852 0,-0.124196 0.01688,-0.343648 0.01809,-0.220658 0.01809,-0.344853 0,-0.03858 -0.0048,-0.114549 -0.0036,-0.07597 -0.0036,-0.11455 0,-0.05185 0.03376,-0.0844 0.03497,-0.03376 0.08561,-0.03376 0.110931,0 0.121783,0.156751 l 0.0036,0.141077 q 0.202571,-0.270095 0.415994,-0.270095 0.192925,0 0.26889,0.170015 0.05185,0.113343 0.05667,0.335207 v 0.121784 l -0.0012,0.112138 q 0,0.10008 0.02532,0.259243 0.02653,0.157957 0.02653,0.256831 0,0.05305 -0.03497,0.08561 -0.03376,0.03376 -0.08561,0.03376 z"
       id="In-0-97-5"
       style="font-size:2.46944px;font-family:'Comic Sans MS';-inkscape-font-specification:'Comic Sans MS, Normal';text-align:center;text-anchor:middle;stroke:#000000;stroke-width:0;stroke-miterlimit:0"
       inkscape:label="In"
       aria-label="LTM Attn" />
    <path
       d="m 3.1141419,61.809877 q -0.1362533,0.06391 -0.4280524,0.114549 -0.2688892,0.04703 -0.4389043,0.04703 -0.1217839,0 -0.1748383,-0.03738 Q 2,61.88343 2,61.748382 l 0.024116,-0.399114 q 0.03135,-0.552247 0.03135,-1.225073 0,-0.05185 0.033762,-0.08802 0.034968,-0.03617 0.08561,-0.03617 0.051849,0 0.085611,0.03617 0.034968,0.03617 0.034968,0.08802 0,0.681266 -0.032556,1.239543 l -0.015675,0.183279 q -0.00965,0.100079 -0.00723,0.177249 0.3147089,0.0036 0.7958156,-0.148311 0.020498,-0.006 0.038585,-0.006 0.051849,0 0.086816,0.041 0.030145,0.03738 0.030145,0.08561 0,0.07717 -0.07717,0.113344 z m 1.7664695,-1.473465 q -0.089228,0 -0.2749181,-0.01447 -0.1808672,-0.01326 -0.2749181,-0.01206 h -0.08561 q 0.00362,0.166398 0.032556,0.54019 0.026527,0.348471 0.026527,0.541396 0,0.0422 0.00844,0.127813 0.00844,0.08561 0.00844,0.129018 0,0.08199 -0.026527,0.141077 -0.033762,0.07958 -0.1049029,0.07958 -0.048231,0 -0.086816,-0.03376 -0.038585,-0.03376 -0.038585,-0.08682 0,-0.01809 0.00603,-0.05426 0.00603,-0.03617 0.00603,-0.05426 0,-0.05908 -0.00844,-0.17725 -0.00723,-0.118167 -0.00723,-0.178456 0,-0.172426 -0.027733,-0.484724 -0.028939,-0.337618 -0.032556,-0.484724 l -0.1097261,0.0012 q -0.2640661,0 -0.4147887,-0.03858 -0.097668,-0.02532 -0.097668,-0.119372 0,-0.04944 0.03135,-0.08682 0.036173,-0.0422 0.092845,-0.03858 0.042202,0.0024 0.192925,0.0217 0.1205781,0.01447 0.1953365,0.01447 0.072347,0 0.2194522,-0.0024 0.1471053,-0.0036 0.2194522,-0.0036 0.092845,0 0.2749181,0.01326 0.1832788,0.01326 0.2761239,0.01326 0.051849,0 0.086816,0.03617 0.034968,0.03497 0.034968,0.08802 0,0.05185 -0.034968,0.08802 -0.034968,0.03497 -0.086816,0.03497 z m 1.995568,1.622982 q -0.065112,0 -0.1073146,-0.06752 -0.036173,-0.05788 -0.065112,-0.192925 L 6.6603445,61.491551 Q 6.6109075,61.298626 6.503593,60.640269 l -0.2411563,0.727086 -0.071141,0.229099 q -0.043408,0.136253 -0.090434,0.223069 -0.050643,0.09164 -0.1362533,0.09164 -0.071141,0 -0.1121376,-0.07717 -0.026527,-0.05064 -0.048231,-0.129019 L 5.7692722,61.571132 Q 5.6474883,61.145491 5.5546431,60.659562 l -0.043408,0.215834 -0.1555458,0.636653 q -0.00965,0.112138 -0.060289,0.33159 -0.036173,0.09405 -0.1193724,0.09405 -0.059083,0 -0.094051,-0.0422 -0.030145,-0.03617 -0.030145,-0.08923 0,-0.201366 0.083199,-0.494371 l 0.1326359,-0.48593 0.069935,-0.379821 q 0.053054,-0.266477 0.1121377,-0.34847 0.048231,-0.06994 0.1193723,-0.06994 0.078376,0 0.1169608,0.08923 0.047025,0.107315 0.1012856,0.437699 0.063906,0.396702 0.1989539,0.858516 0.1784556,-0.464226 0.30868,-0.967037 l 0.036173,-0.176044 q 0.021704,-0.106108 0.056672,-0.171221 0.047025,-0.08923 0.1290186,-0.08923 0.1036971,0 0.1579573,0.200159 0.019292,0.06873 0.047026,0.284565 0.071141,0.545013 0.1772498,0.930863 l 0.059083,0.207394 q 0.04582,0.166398 0.04582,0.204983 0,0.05185 -0.039791,0.08682 -0.038585,0.03497 -0.088022,0.03497 z m 1.0393834,-0.672826 q -0.1639862,0.01688 -0.5835981,0.01688 -0.1012856,0 -0.1012856,-0.09405 0,-0.09405 0.1012856,-0.09405 0.095257,0 0.2857702,-0.0084 0.1905134,-0.0084 0.2857701,-0.0084 0.1073146,0 0.1073146,0.09405 0,0.0832 -0.095257,0.09405 z m 1.3637388,-0.929657 q -0.07717,0 -0.1941308,-0.01568 L 8.89104,60.315914 q -0.027733,0.350882 -0.027733,0.670414 0,0.0844 0.00482,0.208601 0.00482,0.124195 0.00482,0.2086 0,0.113343 -0.00844,0.206188 l 0.3798211,-0.0048 q 0.050643,0 0.084405,0.03617 0.034968,0.03497 0.034968,0.08682 0,0.05305 -0.034968,0.08923 -0.033762,0.03497 -0.084405,0.03497 -0.067524,0 -0.2025712,0.0036 -0.1350475,0.0024 -0.2025713,0.0024 -0.079582,0 -0.2387447,0.0217 -0.1579573,0.02291 -0.2387447,0.02291 -0.050643,0 -0.08561,-0.03617 -0.033762,-0.03497 -0.033762,-0.08682 0,-0.05185 0.033762,-0.08802 0.034968,-0.03617 0.08561,-0.03617 0.078376,0 0.259243,-0.02532 0.012058,-0.09767 0.012058,-0.22307 0,-0.0832 -0.00844,-0.202571 -0.00723,-0.120578 -0.00723,-0.202571 0,-0.278536 0.033762,-0.695736 l -0.1567515,0.0048 -0.1567516,0.0036 q -0.051849,0 -0.086816,-0.03497 -0.034968,-0.03497 -0.034968,-0.08923 0,-0.112138 0.1133435,-0.12299 0.097668,-0.0096 0.3653517,-0.0096 0.2399504,0 0.6016848,0.05185 0.1073145,0.01568 0.1073145,0.129019 0,0.05667 -0.040997,0.09043 -0.036174,0.02773 -0.083199,0.02773 z m 1.2877744,1.588013 q -0.103698,0 -0.116961,-0.113343 l -0.03376,-0.264066 q -0.01688,-0.141077 -0.01688,-0.264066 0,-0.03376 0.0036,-0.114549 0.0048,-0.08079 0.0048,-0.11455 0,-0.260448 -0.09646,-0.260448 -0.135047,0 -0.258037,0.160369 -0.110932,0.145899 -0.1736327,0.368969 -0.00241,0.04702 -0.010852,0.118166 -0.00723,0.06029 -0.00723,0.116961 0,0.03617 0.00723,0.10852 0.00723,0.07235 0.00723,0.108521 0,0.05426 -0.033762,0.08802 -0.032556,0.03376 -0.084405,0.03376 -0.053054,0 -0.08561,-0.03376 -0.032556,-0.03376 -0.032556,-0.08802 0,-0.03617 -0.00844,-0.108521 -0.00723,-0.07235 -0.00723,-0.10852 0,-0.124196 0.016881,-0.343648 0.018087,-0.220658 0.018087,-0.344853 0,-0.03858 -0.00482,-0.114549 -0.00362,-0.07597 -0.00362,-0.11455 0,-0.05185 0.033762,-0.0844 0.034968,-0.03376 0.08561,-0.03376 0.1109319,0 0.1217839,0.156751 l 0.00362,0.141077 q 0.2025715,-0.270095 0.4159945,-0.270095 0.192925,0 0.268889,0.170015 0.05185,0.113343 0.05667,0.335207 v 0.121784 l -0.0012,0.112138 q 0,0.10008 0.02532,0.259243 0.02653,0.157957 0.02653,0.256831 0,0.05305 -0.03497,0.08561 -0.03376,0.03376 -0.08561,0.03376 z"
       id="In-0-97-5-4"
       style="font-size:2.46944px;font-family:'Comic Sans MS';-inkscape-font-specification:'Comic Sans MS, Normal';text-align:center;text-anchor:middle;stroke:#000000;stroke-width:0;stroke-miterlimit:0"
       inkscape:label="In"
       aria-label="LTM-In" />
    <g
       id="In-0-97-5-4-0"
       style="font-size:3.52778px;font-family:'Comic Sans MS';-inkscape-font-specification:'Comic Sans MS, Normal';text-align:center;text-anchor:middle;stroke:#000000;stroke-width:0;stroke-miterlimit:0"
       inkscape:label="In"
       aria-label="Upper&#10;Threshold">
      <path
         d="m 9.0173846,86.157891 q -0.5357127,0 -0.7992627,-0.308336 -0.213596,-0.248047 -0.2687176,-0.733806 -0.025838,-0.218764 -0.025838,-0.873332 0,-0.241157 0.010335,-0.389296 0.010335,-0.156752 0.031006,-0.218764 0.043064,-0.125746 0.1550294,-0.125746 0.1584745,0 0.1584745,0.291111 v 1.011136 q 0,1.043865 0.7303607,1.043865 0.687297,0 0.687297,-1.757 0,-0.06546 0,-0.16881 -0.00172,-0.103353 -0.00172,-0.137804 0,-0.106798 0.037896,-0.187758 0.048231,-0.103353 0.1429715,-0.103353 0.1722551,0 0.1722551,0.23599 0,0.07062 0.0017,0.213596 0,0.142971 0,0.213596 0,1.994711 -1.0318064,1.994711 z m 2.2100304,-0.0086 q -0.172255,0 -0.378961,-0.05512 l -0.0034,0.823378 q 0,0.07579 -0.04823,0.124024 -0.04651,0.04823 -0.120578,0.04823 -0.07407,0 -0.122301,-0.04823 -0.04651,-0.04823 -0.04651,-0.124024 l 0.0052,-0.689019 v -0.687297 q -0.0052,-0.377238 -0.02584,-0.687297 l -0.02584,-0.349678 q 0,-0.122301 0.04479,-0.206706 0.05168,-0.10163 0.149861,-0.10163 0.06718,0 0.111966,0.04823 0.04651,0.04651 0.04651,0.115411 0,0.0155 -0.0052,0.05684 -0.0086,0.0534 -0.01206,0.09819 0.14814,-0.101631 0.285944,-0.151585 0.137804,-0.05168 0.26355,-0.05168 0.353122,0 0.516764,0.313504 0.129191,0.248047 0.129191,0.656291 0,0.37207 -0.199815,0.613227 -0.211874,0.254937 -0.564996,0.254937 z m 0.118856,-1.493449 q -0.158475,0 -0.285944,0.07062 -0.09129,0.04995 -0.230821,0.18259 0.02239,0.391019 0.02239,0.821656 0.187758,0.07235 0.375516,0.07235 0.215318,0 0.329007,-0.160197 0.09819,-0.139526 0.09819,-0.361735 0,-0.313504 -0.07752,-0.468533 -0.07579,-0.156752 -0.230821,-0.156752 z m 1.767335,1.493449 q -0.172255,0 -0.378961,-0.05512 l -0.0034,0.823378 q 0,0.07579 -0.04823,0.124024 -0.04651,0.04823 -0.120578,0.04823 -0.07407,0 -0.122301,-0.04823 -0.04651,-0.04823 -0.04651,-0.124024 l 0.0052,-0.689019 v -0.687297 q -0.0052,-0.377238 -0.02584,-0.687297 l -0.02584,-0.349678 q 0,-0.122301 0.04479,-0.206706 0.05168,-0.10163 0.149861,-0.10163 0.06718,0 0.111966,0.04823 0.04651,0.04651 0.04651,0.115411 0,0.0155 -0.0052,0.05684 -0.0086,0.0534 -0.01206,0.09819 0.14814,-0.101631 0.285943,-0.151585 0.137804,-0.05168 0.26355,-0.05168 0.353123,0 0.516765,0.313504 0.129191,0.248047 0.129191,0.656291 0,0.37207 -0.199815,0.613227 -0.211874,0.254937 -0.564996,0.254937 z m 0.118855,-1.493449 q -0.158474,0 -0.285943,0.07062 -0.09129,0.04995 -0.230821,0.18259 0.02239,0.391019 0.02239,0.821656 0.187758,0.07235 0.375516,0.07235 0.215318,0 0.329006,-0.160197 0.09819,-0.139526 0.09819,-0.361735 0,-0.313504 -0.07752,-0.468533 -0.07579,-0.156752 -0.230822,-0.156752 z m 1.839683,1.512398 q -0.389296,0 -0.630453,-0.194649 -0.26355,-0.215318 -0.26355,-0.602892 0,-0.447862 0.217041,-0.751031 0.235989,-0.330729 0.630453,-0.330729 0.285943,0 0.46681,0.09646 0.222209,0.118856 0.222209,0.365181 0,0.172255 -0.194648,0.313504 -0.08613,0.06201 -0.36518,0.192925 l -0.658014,0.311782 q 0.09646,0.142971 0.239435,0.215318 0.144694,0.07235 0.335897,0.07235 0.118855,0 0.279052,-0.04479 0.203261,-0.05684 0.261828,-0.148139 0.05857,-0.09302 0.125746,-0.09302 0.06029,0 0.106798,0.04651 0.04823,0.04479 0.04823,0.105075 0,0.191203 -0.308336,0.329007 -0.26355,0.117134 -0.513319,0.117134 z m -0.04651,-1.569243 q -0.210151,0 -0.349678,0.163643 -0.139526,0.161919 -0.208428,0.489204 l 0.528822,-0.251493 q 0.311782,-0.151584 0.444418,-0.26355 -0.148139,-0.137804 -0.415134,-0.137804 z m 2.514921,0.217042 q -0.01206,0.215318 -0.172254,0.215318 -0.14814,0 -0.14814,-0.170532 0,-0.03273 -0.0052,-0.120578 l -0.0052,-0.144695 q -0.272163,0.03273 -0.435805,0.153307 -0.153307,0.111966 -0.254937,0.33762 l 0.0034,0.943957 q 0,0.173977 -0.170532,0.173977 -0.151585,0 -0.151585,-0.173977 v -1.20923 q 0,-0.05684 0.0034,-0.170532 0.0052,-0.113688 0.0052,-0.170532 0,-0.173978 0.151584,-0.173978 0.16881,0 0.170533,0.285943 0.330729,-0.318671 0.733806,-0.318671 0.139526,0 0.208428,0.105075 0.0689,0.105076 0.0689,0.316949 0,0.08957 -0.0017,0.120579 z"
         id="path18" />
      <path
         d="m 6.6462961,88.323135 q -0.1274686,0 -0.3927411,-0.02067 -0.2583824,-0.01895 -0.3927412,-0.01723 H 5.7385129 q 0.00517,0.237712 0.046509,0.771702 0.037896,0.497817 0.037896,0.773424 0,0.06029 0.012058,0.182591 0.012058,0.122301 0.012058,0.184312 0,0.117134 -0.037896,0.201538 -0.048231,0.113689 -0.1498618,0.113689 -0.068902,0 -0.1240235,-0.04823 -0.055122,-0.04823 -0.055122,-0.124023 0,-0.02584 0.00861,-0.07751 0.00861,-0.05168 0.00861,-0.07752 0,-0.0844 -0.012058,-0.253214 -0.010335,-0.16881 -0.010335,-0.254937 0,-0.246325 -0.039619,-0.692465 -0.041341,-0.482314 -0.046509,-0.692465 l -0.156752,0.0017 q -0.3772382,0 -0.5925568,-0.05512 -0.1395265,-0.03617 -0.1395265,-0.170532 0,-0.07062 0.044786,-0.124024 0.051677,-0.06029 0.1326363,-0.05512 0.060289,0.0034 0.2756078,0.03101 0.1722549,0.02067 0.2790529,0.02067 0.1033529,0 0.3135039,-0.0034 0.210151,-0.0052 0.3135039,-0.0052 0.1326363,0 0.3927411,0.01895 0.2618275,0.01895 0.3944637,0.01895 0.07407,0 0.1240235,0.05168 0.049954,0.04995 0.049954,0.125746 0,0.07407 -0.049954,0.125746 -0.049954,0.04995 -0.1240235,0.04995 z m 1.7328842,2.282377 q -0.122301,0 -0.160197,-0.130913 -0.039619,-0.141249 -0.072347,-0.401354 -0.031006,-0.24977 -0.031006,-0.409967 0,-0.04479 0.00345,-0.136081 0.00517,-0.0913 0.00517,-0.136082 0,-0.323839 -0.1619196,-0.323839 -0.2187637,0 -0.3910186,0.198093 -0.08785,0.101631 -0.2411568,0.387574 0,0.656291 -0.055122,0.776869 -0.048231,0.106798 -0.1498618,0.106798 -0.070625,0 -0.1240235,-0.04823 -0.053399,-0.04823 -0.053399,-0.117133 0,-0.02412 0.015503,-0.07579 0.01378,-0.04306 0.018948,-0.251493 l 0.00517,-0.254937 0.00517,-1.266073 q 0.012058,-0.213596 0.012058,-0.287666 0,-0.08785 -0.017225,-0.165365 -0.015503,-0.07924 -0.015503,-0.163642 0,-0.07235 0.049954,-0.118856 0.049954,-0.04823 0.122301,-0.04823 0.141249,0 0.1653647,0.151584 0.027561,0.167088 0.027561,0.301446 0,0.180868 -0.012058,0.377239 -0.010335,0.187757 -0.00861,0.377238 l 0.00172,0.151584 q 0.141249,-0.18948 0.3014461,-0.282498 0.1619196,-0.09474 0.3427872,-0.09474 0.2859431,0 0.3927411,0.186035 0.075792,0.130914 0.086127,0.440973 l 0.01378,0.329007 0.034451,0.35829 q 0.024116,0.201538 0.058567,0.354845 0.00689,0.02928 0.00689,0.04995 0,0.07062 -0.051677,0.117133 -0.051676,0.04823 -0.1240235,0.04823 z m 1.9361447,-1.379761 q -0.01206,0.215318 -0.172255,0.215318 -0.1481391,0 -0.1481391,-0.170532 0,-0.03273 -0.00517,-0.120578 l -0.00517,-0.144695 q -0.2721627,0.03273 -0.4358049,0.153307 -0.1533068,0.111966 -0.2549372,0.33762 l 0.00345,0.943957 q 0,0.173977 -0.1705323,0.173977 -0.1515843,0 -0.1515843,-0.173977 v -1.20923 q 0,-0.05684 0.00345,-0.170532 0.00517,-0.113688 0.00517,-0.170532 0,-0.173978 0.1515843,-0.173978 0.1688098,0 0.1705323,0.285943 0.3307294,-0.318671 0.7338057,-0.318671 0.139527,0 0.208429,0.105075 0.0689,0.105076 0.0689,0.316949 0,0.08957 -0.0017,0.120579 z m 1.159276,1.352201 q -0.389297,0 -0.630453,-0.194648 -0.26355,-0.215319 -0.26355,-0.602893 0,-0.447862 0.217041,-0.751031 0.235989,-0.330729 0.630453,-0.330729 0.285943,0 0.46681,0.09646 0.222209,0.118855 0.222209,0.36518 0,0.172255 -0.194648,0.313504 -0.08613,0.06201 -0.36518,0.192925 l -0.658014,0.311782 q 0.09646,0.142971 0.239434,0.215318 0.144695,0.07235 0.335898,0.07235 0.118855,0 0.279052,-0.04479 0.203261,-0.05684 0.261828,-0.148139 0.05857,-0.09302 0.125746,-0.09302 0.06029,0 0.106798,0.04651 0.04823,0.04479 0.04823,0.105075 0,0.191203 -0.308336,0.329007 -0.26355,0.117134 -0.513319,0.117134 z m -0.04651,-1.569242 q -0.210151,0 -0.349678,0.163642 -0.139526,0.161919 -0.208428,0.489204 l 0.528822,-0.251493 q 0.311782,-0.151584 0.444418,-0.26355 -0.148139,-0.137803 -0.415134,-0.137803 z m 2.337499,0.163642 q -0.09474,0 -0.132636,-0.06374 -0.02584,-0.04479 -0.04479,-0.186035 -0.129191,0.03273 -0.397908,0.120579 -0.277331,0.110243 -0.279053,0.272162 0.05168,0.01895 0.10163,0.02756 0.396186,0.07063 0.589112,0.194648 0.280775,0.180868 0.280775,0.523655 0,0.280775 -0.242879,0.423747 -0.201538,0.117133 -0.509875,0.117133 -0.225654,0 -0.430637,-0.07579 -0.265272,-0.09646 -0.265272,-0.268718 0,-0.0689 0.0534,-0.120578 0.05512,-0.05168 0.124023,-0.05168 0.0534,0 0.137804,0.08268 0.04134,0.03962 0.186035,0.06546 0.115411,0.02067 0.194648,0.02067 0.144694,0 0.254938,-0.03445 0.160197,-0.04995 0.160197,-0.158474 0,-0.234267 -0.327285,-0.316949 l -0.179145,-0.03962 q -0.229099,-0.04995 -0.325562,-0.117133 -0.139526,-0.09646 -0.139526,-0.291111 0,-0.360012 0.339342,-0.513319 0.103353,-0.04651 0.33073,-0.110243 0.227376,-0.06546 0.325561,-0.110244 0.07062,-0.031 0.153307,-0.031 0.07407,0 0.120579,0.04823 0.04823,0.04823 0.04823,0.125746 0,0.04995 0.02067,0.146417 0.02239,0.09646 0.02239,0.146416 0,0.07752 -0.04823,0.125746 -0.04651,0.04823 -0.120578,0.04823 z m 1.996433,1.43316 q -0.122301,0 -0.160197,-0.130913 -0.03962,-0.141249 -0.07235,-0.401354 -0.03101,-0.24977 -0.03101,-0.409967 0,-0.04479 0.0034,-0.136081 0.0052,-0.0913 0.0052,-0.136082 0,-0.323839 -0.16192,-0.323839 -0.218763,0 -0.391018,0.198093 -0.08785,0.101631 -0.241157,0.387574 0,0.656291 -0.05512,0.776869 -0.04823,0.106798 -0.149861,0.106798 -0.07062,0 -0.124024,-0.04823 -0.0534,-0.04823 -0.0534,-0.117133 0,-0.02412 0.0155,-0.07579 0.01378,-0.04306 0.01895,-0.251493 l 0.0052,-0.254937 0.0052,-1.266073 q 0.01206,-0.213596 0.01206,-0.287666 0,-0.08785 -0.01722,-0.165365 -0.0155,-0.07924 -0.0155,-0.163642 0,-0.07235 0.04995,-0.118856 0.04995,-0.04823 0.122301,-0.04823 0.141249,0 0.165364,0.151584 0.02756,0.167088 0.02756,0.301446 0,0.180868 -0.01206,0.377239 -0.01034,0.187757 -0.0086,0.377238 l 0.0017,0.151584 q 0.141249,-0.18948 0.301446,-0.282498 0.16192,-0.09474 0.342787,-0.09474 0.285944,0 0.392742,0.186035 0.07579,0.130914 0.08613,0.440973 l 0.01378,0.329007 0.03445,0.35829 q 0.02412,0.201538 0.05857,0.354845 0.0069,0.02928 0.0069,0.04995 0,0.07062 -0.05168,0.117133 -0.05168,0.04823 -0.124024,0.04823 z m 1.241959,-0.0052 q -0.289389,0 -0.497817,-0.213596 -0.232544,-0.237712 -0.244602,-0.639066 -0.01034,-0.389296 0.196371,-0.685574 0.241157,-0.349678 0.671794,-0.349678 0.34451,0 0.521932,0.315227 0.141249,0.254937 0.136081,0.613227 -0.0052,0.382406 -0.199815,0.652846 -0.220486,0.306614 -0.583944,0.306614 z m 0.103353,-1.538236 q -0.253215,-0.0017 -0.394464,0.241156 -0.111966,0.194648 -0.111966,0.444418 0,0.24977 0.136082,0.389296 0.113688,0.115411 0.266995,0.115411 0.179145,0 0.308336,-0.130914 0.146417,-0.144694 0.155029,-0.391018 0.02412,-0.666627 -0.360012,-0.668349 z m 1.543403,0.08268 -0.02584,0.856107 q 0,0.136081 -0.01378,0.399631 -0.01722,0.172255 -0.16881,0.172255 -0.168809,0 -0.168809,-0.1757 0,-0.208428 0.01895,-0.625285 0.01895,-0.41858 0.01895,-0.627008 0,-0.272163 0.0086,-0.62184 0.0086,-0.3514 0.0086,-0.623563 0,-0.172255 0.16881,-0.172255 0.170532,0 0.170532,0.172255 0,0.272163 -0.0086,0.623563 -0.0086,0.349677 -0.0086,0.62184 z m 2.11529,-0.167087 q -0.02067,0.253214 -0.02067,0.506429 0,0.573609 0.0534,0.866442 0.0034,0.02412 0.0034,0.03962 0,0.0689 -0.04823,0.113688 -0.04823,0.04479 -0.111966,0.04479 -0.106798,0 -0.156752,-0.155029 -0.124023,0.0913 -0.258382,0.137804 -0.132637,0.04651 -0.277331,0.04651 -0.356567,0 -0.590834,-0.237712 -0.241157,-0.24288 -0.241157,-0.623563 0,-0.45992 0.24288,-0.737251 0.244602,-0.27733 0.633898,-0.27733 0.199815,0 0.308336,0.06201 l 0.161919,0.118856 q 0.02412,-0.725194 0.05684,-0.976686 0.02239,-0.153307 0.156751,-0.153307 0.156752,0 0.156752,0.167088 0,0.239434 -0.0689,1.057645 z m -0.764811,0.04479 q -0.289388,0 -0.434083,0.172255 -0.144694,0.170532 -0.144694,0.515042 0,0.222209 0.156752,0.382406 0.158475,0.160197 0.370348,0.160197 0.144694,0 0.244602,-0.0534 0.05857,-0.03101 0.191203,-0.142972 0.02584,-0.02239 0.04995,-0.0534 l -0.0052,-0.298001 0.0017,-0.199815 0.0034,-0.203261 q -0.06546,-0.139527 -0.173977,-0.208429 -0.108521,-0.07062 -0.260105,-0.07062 z"
         id="path19" />
    </g>
    <g
       id="In-0-97-5-4-0-8"
       style="font-size:3.52778px;font-family:'Comic Sans MS';-inkscape-font-specification:'Comic Sans MS, Normal';text-align:center;text-anchor:middle;stroke:#000000;stroke-width:0;stroke-miterlimit:0"
       inkscape:label="In"
       aria-label="Lower&#10;Threshold">
      <path
         d="m 9.5022821,105.58555 q -0.194648,0.0913 -0.6115048,0.16364 -0.3841284,0.0672 -0.6270078,0.0672 -0.1739774,0 -0.2497696,-0.0534 -0.1033529,-0.0724 -0.1033529,-0.26527 l 0.034451,-0.57016 q 0.044786,-0.78893 0.044786,-1.75011 0,-0.0741 0.048231,-0.12575 Q 8.0880695,103 8.1604166,103 q 0.07407,0 0.1223009,0.0517 0.049954,0.0517 0.049954,0.12575 0,0.97324 -0.046509,1.77078 l -0.022393,0.26182 q -0.01378,0.14298 -0.010335,0.25322 0.4495853,0.005 1.1368822,-0.21188 0.029283,-0.009 0.055122,-0.009 0.07407,0 0.1240235,0.0586 0.043064,0.0534 0.043064,0.1223 0,0.11024 -0.1102431,0.16192 z m 1.0628129,0.17225 q -0.289388,0 -0.497817,-0.21359 -0.2325439,-0.23771 -0.2446018,-0.63907 -0.010335,-0.38929 0.1963708,-0.68557 0.241157,-0.34968 0.671794,-0.34968 0.34451,0 0.521932,0.31523 0.141249,0.25493 0.136082,0.61322 -0.0052,0.38241 -0.199816,0.65285 -0.220486,0.30661 -0.583944,0.30661 z m 0.103353,-1.53823 q -0.253215,-0.002 -0.394464,0.24115 -0.111966,0.19465 -0.111966,0.44442 0,0.24977 0.136082,0.3893 0.113688,0.11541 0.266995,0.11541 0.179145,0 0.308336,-0.13091 0.146417,-0.1447 0.155029,-0.39102 0.02412,-0.66663 -0.360012,-0.66835 z m 3.167767,-0.10508 q -0.134359,0.56155 -0.3514,1.26952 -0.04823,0.15675 -0.160197,0.32212 -0.06029,0.0913 -0.163642,0.0896 -0.187758,-0.003 -0.292833,-0.46681 -0.03445,-0.14814 -0.07062,-0.40308 l -0.05684,-0.38413 -0.141249,0.32901 -0.261828,0.71141 q -0.02239,0.0655 -0.06546,0.0999 -0.05168,0.0999 -0.165365,0.10335 -0.130914,0.005 -0.253215,-0.51331 -0.06201,-0.267 -0.124023,-0.72348 l -0.04134,-0.25838 q -0.02239,-0.15503 -0.02239,-0.2601 0,-0.0724 0.04995,-0.11886 0.05168,-0.0482 0.124024,-0.0482 0.130914,0 0.161919,0.14297 0.02239,0.10163 0.03617,0.25149 l 0.02584,0.25322 0.101631,0.77342 q 0.191203,-0.53054 0.396186,-1.22301 0.05684,-0.1912 0.198093,-0.1912 0.136081,0 0.184313,0.2136 0.04479,0.20153 0.111965,0.62011 0.0689,0.43409 0.122301,0.67697 l 0.125746,-0.46854 0.222209,-0.93879 q 0.02584,-0.10507 0.148139,-0.10507 0.07235,0 0.125746,0.0499 0.0534,0.0482 0.0534,0.11714 0,0.009 -0.01723,0.0792 z m 1.15583,1.62092 q -0.389296,0 -0.630453,-0.19465 -0.26355,-0.21532 -0.26355,-0.60289 0,-0.44786 0.217042,-0.75103 0.235989,-0.33073 0.630452,-0.33073 0.285944,0 0.466811,0.0965 0.222209,0.11886 0.222209,0.36518 0,0.17226 -0.194648,0.31351 -0.08613,0.062 -0.36518,0.19292 l -0.658014,0.31178 q 0.09646,0.14298 0.239434,0.21532 0.144694,0.0724 0.335897,0.0724 0.118856,0 0.279053,-0.0448 0.203261,-0.0568 0.261828,-0.14814 0.05857,-0.093 0.125746,-0.093 0.06029,0 0.106798,0.0465 0.04823,0.0448 0.04823,0.10507 0,0.1912 -0.308336,0.32901 -0.26355,0.11713 -0.51332,0.11713 z m -0.04651,-1.56924 q -0.21015,0 -0.349677,0.16364 -0.139526,0.16192 -0.208428,0.4892 l 0.528822,-0.25149 q 0.311781,-0.15158 0.444418,-0.26355 -0.148139,-0.1378 -0.415135,-0.1378 z m 2.514922,0.21704 q -0.01206,0.21532 -0.172255,0.21532 -0.148139,0 -0.148139,-0.17053 0,-0.0327 -0.0052,-0.12058 l -0.0052,-0.1447 q -0.272162,0.0327 -0.435805,0.15331 -0.153306,0.11197 -0.254937,0.33762 l 0.0034,0.94396 q 0,0.17397 -0.170532,0.17397 -0.151584,0 -0.151584,-0.17397 v -1.20923 q 0,-0.0568 0.0034,-0.17053 0.0052,-0.11369 0.0052,-0.17054 0,-0.17397 0.151585,-0.17397 0.168809,0 0.170532,0.28594 0.330729,-0.31867 0.733806,-0.31867 0.139526,0 0.208428,0.10507 0.0689,0.10508 0.0689,0.31695 0,0.0896 -0.0017,0.12058 z"
         id="path20" />
      <path
         d="m 6.6462961,107.89032 q -0.1274686,0 -0.3927411,-0.0207 -0.2583824,-0.0189 -0.3927412,-0.0172 H 5.7385129 q 0.00517,0.23772 0.046509,0.77171 0.037896,0.49781 0.037896,0.77342 0,0.0603 0.012058,0.18259 0.012058,0.1223 0.012058,0.18431 0,0.11714 -0.037896,0.20154 -0.048231,0.11369 -0.1498618,0.11369 -0.068902,0 -0.1240235,-0.0482 -0.055122,-0.0482 -0.055122,-0.12403 0,-0.0258 0.00861,-0.0775 0.00861,-0.0517 0.00861,-0.0775 0,-0.0844 -0.012058,-0.25321 -0.010335,-0.16881 -0.010335,-0.25494 0,-0.24632 -0.039619,-0.69246 -0.041341,-0.48232 -0.046509,-0.69247 l -0.156752,0.002 q -0.3772382,0 -0.5925568,-0.0551 -0.1395265,-0.0362 -0.1395265,-0.17053 0,-0.0706 0.044786,-0.12402 0.051677,-0.0603 0.1326363,-0.0551 0.060289,0.003 0.2756078,0.031 0.1722549,0.0207 0.2790529,0.0207 0.1033529,0 0.3135039,-0.003 0.210151,-0.005 0.3135039,-0.005 0.1326363,0 0.3927411,0.0189 0.2618275,0.019 0.3944637,0.019 0.07407,0 0.1240235,0.0517 0.049954,0.05 0.049954,0.12575 0,0.0741 -0.049954,0.12575 -0.049954,0.05 -0.1240235,0.05 z m 1.7328842,2.28238 q -0.122301,0 -0.160197,-0.13092 -0.039619,-0.14125 -0.072347,-0.40135 -0.031006,-0.24977 -0.031006,-0.40997 0,-0.0448 0.00345,-0.13608 0.00517,-0.0913 0.00517,-0.13608 0,-0.32384 -0.1619196,-0.32384 -0.2187637,0 -0.3910186,0.19809 -0.08785,0.10163 -0.2411568,0.38758 0,0.65629 -0.055122,0.77687 -0.048231,0.10679 -0.1498618,0.10679 -0.070625,0 -0.1240235,-0.0482 -0.053399,-0.0482 -0.053399,-0.11713 0,-0.0241 0.015503,-0.0758 0.01378,-0.0431 0.018948,-0.25149 l 0.00517,-0.25494 0.00517,-1.26607 q 0.012058,-0.2136 0.012058,-0.28767 0,-0.0879 -0.017225,-0.16537 -0.015503,-0.0792 -0.015503,-0.16364 0,-0.0723 0.049954,-0.11885 0.049954,-0.0482 0.122301,-0.0482 0.141249,0 0.1653647,0.15158 0.027561,0.16709 0.027561,0.30145 0,0.18086 -0.012058,0.37723 -0.010335,0.18776 -0.00861,0.37724 l 0.00172,0.15159 q 0.141249,-0.18948 0.3014461,-0.2825 0.1619196,-0.0947 0.3427872,-0.0947 0.2859431,0 0.3927411,0.18603 0.075792,0.13092 0.086127,0.44098 l 0.01378,0.329 0.034451,0.35829 q 0.024116,0.20154 0.058567,0.35485 0.00689,0.0293 0.00689,0.0499 0,0.0706 -0.051677,0.11714 -0.051676,0.0482 -0.1240235,0.0482 z m 1.9361447,-1.37976 q -0.01206,0.21531 -0.172255,0.21531 -0.1481391,0 -0.1481391,-0.17053 0,-0.0327 -0.00517,-0.12058 l -0.00517,-0.14469 q -0.2721627,0.0327 -0.4358049,0.15331 -0.1533068,0.11196 -0.2549372,0.33762 l 0.00345,0.94395 q 0,0.17398 -0.1705323,0.17398 -0.1515843,0 -0.1515843,-0.17398 v -1.20923 q 0,-0.0568 0.00345,-0.17053 0.00517,-0.11369 0.00517,-0.17053 0,-0.17398 0.1515843,-0.17398 0.1688098,0 0.1705323,0.28594 0.3307294,-0.31867 0.7338057,-0.31867 0.139527,0 0.208429,0.10508 0.0689,0.10507 0.0689,0.31695 0,0.0896 -0.0017,0.12058 z m 1.159276,1.3522 q -0.389297,0 -0.630453,-0.19465 -0.26355,-0.21532 -0.26355,-0.60289 0,-0.44787 0.217041,-0.75104 0.235989,-0.33072 0.630453,-0.33072 0.285943,0 0.46681,0.0965 0.222209,0.11885 0.222209,0.36518 0,0.17225 -0.194648,0.3135 -0.08613,0.062 -0.36518,0.19293 l -0.658014,0.31178 q 0.09646,0.14297 0.239434,0.21532 0.144695,0.0723 0.335898,0.0723 0.118855,0 0.279052,-0.0448 0.203261,-0.0569 0.261828,-0.14814 0.05857,-0.093 0.125746,-0.093 0.06029,0 0.106798,0.0465 0.04823,0.0448 0.04823,0.10508 0,0.1912 -0.308336,0.329 -0.26355,0.11714 -0.513319,0.11714 z m -0.04651,-1.56925 q -0.210151,0 -0.349678,0.16365 -0.139526,0.16192 -0.208428,0.4892 l 0.528822,-0.25149 q 0.311782,-0.15159 0.444418,-0.26355 -0.148139,-0.13781 -0.415134,-0.13781 z m 2.337499,0.16365 q -0.09474,0 -0.132636,-0.0637 -0.02584,-0.0448 -0.04479,-0.18603 -0.129191,0.0327 -0.397908,0.12057 -0.277331,0.11025 -0.279053,0.27217 0.05168,0.019 0.10163,0.0276 0.396186,0.0706 0.589112,0.19465 0.280775,0.18086 0.280775,0.52365 0,0.28078 -0.242879,0.42375 -0.201538,0.11713 -0.509875,0.11713 -0.225654,0 -0.430637,-0.0758 -0.265272,-0.0965 -0.265272,-0.26872 0,-0.0689 0.0534,-0.12058 0.05512,-0.0517 0.124023,-0.0517 0.0534,0 0.137804,0.0827 0.04134,0.0396 0.186035,0.0655 0.115411,0.0207 0.194648,0.0207 0.144694,0 0.254938,-0.0344 0.160197,-0.05 0.160197,-0.15848 0,-0.23427 -0.327285,-0.31695 l -0.179145,-0.0396 q -0.229099,-0.0499 -0.325562,-0.11713 -0.139526,-0.0965 -0.139526,-0.29111 0,-0.36001 0.339342,-0.51332 0.103353,-0.0465 0.33073,-0.11024 0.227376,-0.0655 0.325561,-0.11025 0.07062,-0.031 0.153307,-0.031 0.07407,0 0.120579,0.0482 0.04823,0.0482 0.04823,0.12575 0,0.05 0.02067,0.14641 0.02239,0.0965 0.02239,0.14642 0,0.0775 -0.04823,0.12574 -0.04651,0.0482 -0.120578,0.0482 z m 1.996433,1.43316 q -0.122301,0 -0.160197,-0.13092 -0.03962,-0.14125 -0.07235,-0.40135 -0.03101,-0.24977 -0.03101,-0.40997 0,-0.0448 0.0034,-0.13608 0.0052,-0.0913 0.0052,-0.13608 0,-0.32384 -0.16192,-0.32384 -0.218763,0 -0.391018,0.19809 -0.08785,0.10163 -0.241157,0.38758 0,0.65629 -0.05512,0.77687 -0.04823,0.10679 -0.149861,0.10679 -0.07062,0 -0.124024,-0.0482 -0.0534,-0.0482 -0.0534,-0.11713 0,-0.0241 0.0155,-0.0758 0.01378,-0.0431 0.01895,-0.25149 l 0.0052,-0.25494 0.0052,-1.26607 q 0.01206,-0.2136 0.01206,-0.28767 0,-0.0879 -0.01722,-0.16537 -0.0155,-0.0792 -0.0155,-0.16364 0,-0.0723 0.04995,-0.11885 0.04995,-0.0482 0.122301,-0.0482 0.141249,0 0.165364,0.15158 0.02756,0.16709 0.02756,0.30145 0,0.18086 -0.01206,0.37723 -0.01034,0.18776 -0.0086,0.37724 l 0.0017,0.15159 q 0.141249,-0.18948 0.301446,-0.2825 0.16192,-0.0947 0.342787,-0.0947 0.285944,0 0.392742,0.18603 0.07579,0.13092 0.08613,0.44098 l 0.01378,0.329 0.03445,0.35829 q 0.02412,0.20154 0.05857,0.35485 0.0069,0.0293 0.0069,0.0499 0,0.0706 -0.05168,0.11714 -0.05168,0.0482 -0.124024,0.0482 z m 1.241959,-0.005 q -0.289389,0 -0.497817,-0.2136 -0.232544,-0.23771 -0.244602,-0.63906 -0.01034,-0.3893 0.196371,-0.68558 0.241157,-0.34967 0.671794,-0.34967 0.34451,0 0.521932,0.31522 0.141249,0.25494 0.136081,0.61323 -0.0052,0.38241 -0.199815,0.65285 -0.220486,0.30661 -0.583944,0.30661 z m 0.103353,-1.53824 q -0.253215,-0.002 -0.394464,0.24116 -0.111966,0.19465 -0.111966,0.44442 0,0.24977 0.136082,0.38929 0.113688,0.11541 0.266995,0.11541 0.179145,0 0.308336,-0.13091 0.146417,-0.14469 0.155029,-0.39102 0.02412,-0.66662 -0.360012,-0.66835 z m 1.543403,0.0827 -0.02584,0.8561 q 0,0.13608 -0.01378,0.39963 -0.01722,0.17226 -0.16881,0.17226 -0.168809,0 -0.168809,-0.1757 0,-0.20843 0.01895,-0.62529 0.01895,-0.41858 0.01895,-0.627 0,-0.27217 0.0086,-0.62184 0.0086,-0.3514 0.0086,-0.62357 0,-0.17225 0.16881,-0.17225 0.170532,0 0.170532,0.17225 0,0.27217 -0.0086,0.62357 -0.0086,0.34967 -0.0086,0.62184 z m 2.11529,-0.16709 q -0.02067,0.25321 -0.02067,0.50643 0,0.57361 0.0534,0.86644 0.0034,0.0241 0.0034,0.0396 0,0.0689 -0.04823,0.11369 -0.04823,0.0448 -0.111966,0.0448 -0.106798,0 -0.156752,-0.15503 -0.124023,0.0913 -0.258382,0.13781 -0.132637,0.0465 -0.277331,0.0465 -0.356567,0 -0.590834,-0.23772 -0.241157,-0.24288 -0.241157,-0.62356 0,-0.45992 0.24288,-0.73725 0.244602,-0.27733 0.633898,-0.27733 0.199815,0 0.308336,0.062 l 0.161919,0.11886 q 0.02412,-0.7252 0.05684,-0.97669 0.02239,-0.1533 0.156751,-0.1533 0.156752,0 0.156752,0.16708 0,0.23944 -0.0689,1.05765 z m -0.764811,0.0448 q -0.289388,0 -0.434083,0.17226 -0.144694,0.17053 -0.144694,0.51504 0,0.22221 0.156752,0.38241 0.158475,0.16019 0.370348,0.16019 0.144694,0 0.244602,-0.0534 0.05857,-0.031 0.191203,-0.14298 0.02584,-0.0224 0.04995,-0.0534 l -0.0052,-0.298 0.0017,-0.19981 0.0034,-0.20326 q -0.06546,-0.13953 -0.173977,-0.20843 -0.108521,-0.0706 -0.260105,-0.0706 z"
         id="path21" />
    </g>
  </g>
  <g
     inkscape:groupmode="layer"
     id="layer2"
     inkscape:label="components"
     style="display:none">
    <circle
       style="display:inline;fill:#0000ff;fill-opacity:1;stroke:#0000ff;stroke-width:0;stroke-miterlimit:0;stroke-opacity:1"
       id="guid-a9c30311-ec54-40a1-9071-744922170655"
       cx="18.5"
       cy="14"
       inkscape:label="Output"
       r="2.5">
      <title
         id="title15">Output</title>
    </circle>
    <circle
       style="display:inline;fill:#ff0000;fill-opacity:1;stroke:#ff0000;stroke-width:0;stroke-miterlimit:0;stroke-opacity:1"
       id="guid-d7bc7031-b5cb-44bb-b936-e21ebeb97e3e"
       cx="12.7"
       cy="97.199997"
       inkscape:label="Lower  Threshold"
       r="2.5">
      <title
         id="title13">Lower  Threshold</title>
    </circle>
    <circle
       style="display:inline;fill:#ff0000;fill-opacity:1;stroke:#ff0000;stroke-width:0;stroke-miterlimit:0;stroke-opacity:1"
       id="guid-0b8c06c9-0cee-4fb4-9205-9088f2582c7e"
       cx="12.7"
       cy="76.5"
       inkscape:label="Upper Threshold"
       r="2.5">
      <title
         id="title12">Upper Threshold</title>
    </circle>
    <ellipse
       style="display:inline;fill:#ff0000;fill-opacity:1;stroke:#ff0000;stroke-width:0;stroke-miterlimit:0;stroke-opacity:1"
       id="guid-d9e53a4f-69fc-46a7-9c1e-b13b52292838"
       cx="18.500158"
       cy="52.5"
       inkscape:label="LTM Attn"
       rx="2.500025"
       ry="2.5">
      <title
         id="title4">LTM Attn</title>
    </ellipse>
    <circle
       style="display:inline;fill:#00ff00;fill-opacity:1;stroke:#00ff00;stroke-width:0;stroke-miterlimit:0;stroke-opacity:1"
       id="guid-86ad5fe8-16fa-40cc-887b-735f5e6b3c3c"
       cx="6.5000134"
       cy="52.5"
       inkscape:label="LTM-In"
       r="2.5">
      <title
         id="title3">LTM-In</title>
    </circle>
    <ellipse
       style="display:inline;fill:#ff0000;fill-opacity:1;stroke:#ff0000;stroke-width:0;stroke-miterlimit:0;stroke-opacity:1"
       id="guid-24c9da2d-774a-45c3-90bf-a176ca527638"
       cx="18.500158"
       cy="32.5"
       inkscape:label="UTM Attn"
       rx="2.500025"
       ry="2.5">
      <title
         id="title28">UTM Attn</title>
    </ellipse>
    <ellipse
       style="display:inline;fill:#00ff00;fill-opacity:1;stroke:#00ff00;stroke-width:0;stroke-miterlimit:0;stroke-opacity:1"
       id="guif-b36c6462-3c82-4ef8-8787-623bff0e9651"
       cx="6.5000381"
       cy="32.5"
       inkscape:label="UTM-In"
       rx="2.500025"
       ry="2.5">
      <title
         id="title2">UTM-In</title>
    </ellipse>
    <circle
       style="display:inline;fill:#00ff00;fill-opacity:1;stroke:#00ff00;stroke-width:0;stroke-miterlimit:0;stroke-opacity:1"
       id="guid-0c6a422c-8084-4159-921d-08edca51f80f"
       cx="7"
       cy="14"
       inkscape:label="Input"
       r="2.5">
      <title
         id="title1">Input</title>
    </circle>
  </g>
  <metadata
     id="metadata8">
    <rdf:RDF>
      <cc:Work
         rdf:about="">
        <dc:title>STS Template Medium</dc:title>
        <dc:date>Jan 2, 2024</dc:date>
        <dc:creator>
          <cc:Agent>
            <dc:title>Marinko Laban</dc:title>
          </cc:Agent>
        </dc:creator>
        <dc:rights>
          <cc:Agent>
            <dc:title>(C) SmarTazz Studio</dc:title>
          </cc:Agent>
        </dc:rights>
      </cc:Work>
    </rdf:RDF>
  </metadata>
</svg>
