<?xml version="1.0" encoding="UTF-8" standalone="no"?>
<!-- Created with Inkscape (http://www.inkscape.org/) -->

<svg
   width="25.4mm"
   height="128.5mm"
   viewBox="0 0 25.4 128.5"
   version="1.1"
   id="svg1"
   inkscape:version="1.3.2 (091e20e, 2023-11-25, custom)"
   sodipodi:docname="Clipper.svg"
   xmlns:inkscape="http://www.inkscape.org/namespaces/inkscape"
   xmlns:sodipodi="http://sodipodi.sourceforge.net/DTD/sodipodi-0.dtd"
   xmlns="http://www.w3.org/2000/svg"
   xmlns:svg="http://www.w3.org/2000/svg"
   xmlns:rdf="http://www.w3.org/1999/02/22-rdf-syntax-ns#"
   xmlns:cc="http://creativecommons.org/ns#"
   xmlns:dc="http://purl.org/dc/elements/1.1/">
  <title
     id="title8">STS Template Medium</title>
  <sodipodi:namedview
     id="namedview1"
     pagecolor="#ffffff"
     bordercolor="#000000"
     borderopacity="0.25"
     inkscape:showpageshadow="2"
     inkscape:pageopacity="0.0"
     inkscape:pagecheckerboard="false"
     inkscape:deskcolor="#d1d1d1"
     inkscape:document-units="mm"
     inkscape:zoom="5.7343752"
     inkscape:cx="62.692096"
     inkscape:cy="332.38146"
     inkscape:window-width="1920"
     inkscape:window-height="1010"
     inkscape:window-x="-6"
     inkscape:window-y="-6"
     inkscape:window-maximized="1"
     inkscape:current-layer="layer1" />
  <defs
     id="defs1">
    <rect
       x="133.17498"
       y="223.43803"
       width="24.662034"
       height="31.567403"
       id="rect6" />
    <rect
       x="-188.91118"
       y="163.26267"
       width="59.188883"
       height="31.567404"
       id="rect1" />
    <rect
       x="-188.91118"
       y="163.26266"
       width="59.188885"
       height="31.567404"
       id="rect1-7" />
    <rect
       x="-188.91118"
       y="163.26266"
       width="59.188885"
       height="31.567404"
       id="rect1-7-3" />
    <rect
       x="-188.91118"
       y="163.26266"
       width="59.188885"
       height="31.567404"
       id="rect1-7-3-9" />
    <rect
       x="-188.91118"
       y="163.26266"
       width="59.188885"
       height="31.567404"
       id="rect1-9" />
    <rect
       x="-188.91118"
       y="163.26266"
       width="59.188885"
       height="31.567404"
       id="rect1-7-3-9-5" />
    <rect
       x="-188.91118"
       y="163.26266"
       width="59.188885"
       height="31.567404"
       id="rect1-7-3-9-7" />
    <rect
       x="-188.91118"
       y="163.26266"
       width="59.188885"
       height="31.567404"
       id="rect1-7-3-97" />
    <rect
       x="-188.91118"
       y="163.26266"
       width="59.188885"
       height="31.567404"
       id="rect1-7-3-97-3" />
    <rect
       x="-188.91118"
       y="163.26266"
       width="59.188885"
       height="31.567404"
       id="rect1-7-3-97-3-8" />
    <rect
       x="-188.91118"
       y="163.26266"
       width="59.188885"
       height="31.567404"
       id="rect1-7-3-97-3-8-3" />
    <rect
       x="-188.91118"
       y="163.26266"
       width="59.188885"
       height="31.567404"
       id="rect1-7-3-97-3-8-3-9" />
    <rect
       x="-188.91118"
       y="163.26266"
       width="59.188885"
       height="31.567404"
       id="rect1-7-3-97-3-8-3-9-8" />
    <rect
       x="-188.91118"
       y="163.26266"
       width="59.188885"
       height="31.567404"
       id="rect1-7-3-97-3-8-3-9-8-4" />
  </defs>
  <g
     inkscape:label="Layer 1"
     inkscape:groupmode="layer"
     id="layer1"
     style="display:inline">
    <rect
       style="fill:#93b5cf;fill-opacity:1;stroke:#93b5cf;stroke-width:0.065;stroke-linejoin:miter;stroke-miterlimit:0;stroke-dasharray:none;stroke-opacity:1;paint-order:normal"
       id="guid-133bc867-ad6a-494a-bd77-ef0c326a6449"
       width="25.334633"
       height="128.43465"
       x="0.032499999"
       y="0.032683566"
       ry="0"
       inkscape:transform-center-x="0.13475906"
       inkscape:transform-center-y="11.262005"
       inkscape:label="Panel">
      <title
         id="title27">Panel</title>
    </rect>
    <rect
       style="font-size:3.175px;font-family:'Comic Sans MS';-inkscape-font-specification:'Comic Sans MS, Normal';text-align:center;text-anchor:middle;display:inline;fill:#c0c0c0;fill-opacity:1;stroke:#505050;stroke-width:0.167486;stroke-miterlimit:0;stroke-dasharray:none;stroke-opacity:1"
       id="guid-5b20c061-18d6-436b-9422-6e5ea1c08229"
       width="9.8325138"
       height="9.8325138"
       x="2.0837431"
       y="9.0837431"
       ry="2.3805037"
       inkscape:label="Input Block">
      <desc
         id="desc7">Input Block</desc>
      <title
         id="title7">Input Block</title>
    </rect>
    <rect
       style="font-size:3.175px;font-family:'Comic Sans MS';-inkscape-font-specification:'Comic Sans MS, Normal';text-align:center;text-anchor:middle;display:inline;fill:#a0a0a0;fill-opacity:1;stroke:#505050;stroke-width:0.167486;stroke-miterlimit:0;stroke-dasharray:none;stroke-opacity:1"
       id="guid-17a95c6b-1a97-4263-9d0a-42aa97d28769"
       width="9.8325138"
       height="9.8325138"
       x="13.483743"
       y="9.0837431"
       ry="2.3805037"
       inkscape:label="Output Block">
      <desc
         id="desc7-0">Input Block</desc>
      <title
         id="title7-9">Output Block</title>
    </rect>
    <g
       id="guid-836c62ac-2363-4971-88ce-5a5d0a73b10b"
       style="font-size:3.175px;font-family:'Comic Sans MS';-inkscape-font-specification:'Comic Sans MS, Normal';text-align:center;text-anchor:middle;stroke:#000000;stroke-width:0;stroke-miterlimit:0"
       inkscape:label="Brand"
       aria-label="Sm@rTAZZ&#10;Studio"
       transform="matrix(0.99997702,0,0,1,8.1047871e-5,-3.81625)">
      <path
         d="m 3.5270624,121.95735 q -0.00155,-0.0651 0.043408,-0.10542 0.046509,-0.0419 0.1131713,-0.0419 0.075964,0 0.1333252,0.0868 0.079065,0.11783 0.1410767,0.15968 0.1317749,0.0868 0.3829224,0.0868 0.2402954,0 0.4464843,-0.10387 0.2635498,-0.13332 0.2635498,-0.37052 0,-0.19534 -0.2216919,-0.30851 -0.1875854,-0.0977 -0.4635376,-0.10542 -0.2449462,-0.009 -0.4170288,-0.10697 -0.2201416,-0.12557 -0.2201416,-0.35967 0,-0.27595 0.3131592,-0.50384 0.2992066,-0.21549 0.6185669,-0.21549 0.1503784,0 0.3395142,0.0512 0.2511474,0.0667 0.2511474,0.17053 0,0.13643 -0.1395264,0.13643 -0.062012,0 -0.217041,-0.0326 -0.1550293,-0.0341 -0.2402954,-0.0326 -0.2418457,0.003 -0.4108276,0.11938 -0.1736328,0.11937 -0.1736328,0.2899 0,0.12868 0.2294433,0.18139 0.085266,0.0202 0.3302124,0.0372 0.3550171,0.0264 0.5550049,0.22324 0.1829346,0.17984 0.1829346,0.43874 0,0.36897 -0.3410645,0.58911 -0.2961059,0.19069 -0.6867797,0.19069 -0.2837036,0 -0.5193482,-0.10853 -0.2883545,-0.13332 -0.2930053,-0.36586 z m 4.1780395,0.51469 q -0.127124,0 -0.1488281,-0.13487 -0.027905,-0.17053 -0.055811,-0.48059 l -0.05271,-0.48059 q -0.015503,-0.10697 -0.05271,-0.20929 -0.05271,-0.13953 -0.1147217,-0.13953 -0.057361,0 -0.2139404,0.0977 -0.1488281,0.0899 -0.1953369,0.14418 -0.00155,0.14572 0.00775,0.29145 l 0.046509,0.41393 q 0.029456,0.24495 0.029456,0.40463 0,0.0682 -0.043408,0.11162 -0.041858,0.045 -0.1085205,0.045 -0.066663,0 -0.1100708,-0.045 -0.041858,-0.0434 -0.041858,-0.11162 0,-0.18759 -0.038757,-0.55346 -0.037207,-0.36742 -0.037207,-0.555 0,-0.16434 -0.046509,-0.2558 -0.1085205,0.0496 -0.2201416,0.16123 l -0.1829345,0.20464 q -0.024805,0.0372 -0.079065,0.0977 0,0.093 -0.017053,0.2744 -0.017053,0.18138 -0.017053,0.2682 0,0.0465 0.013953,0.13022 0.015503,0.0837 0.015503,0.12093 0,0.0636 -0.048059,0.10697 -0.046509,0.0434 -0.1100708,0.0434 -0.1751831,0 -0.1751831,-0.39842 0,-0.093 0.017053,-0.2775 0.017053,-0.18449 0.017053,-0.27751 0,-0.0822 -0.015503,-0.24649 -0.013953,-0.16433 -0.013953,-0.24805 0,-0.35192 0.1581299,-0.35192 0.060461,0 0.1100708,0.0527 0.05116,0.0527 0.05116,0.11472 0,0.0295 -0.00775,0.0915 -0.00775,0.062 -0.00775,0.0946 l 0.0031,0.16278 q 0.080615,-0.16588 0.2371949,-0.29921 0.1565796,-0.13487 0.2666504,-0.13487 0.2433959,0 0.3348632,0.24184 0.085266,-0.11317 0.2030884,-0.16898 0.1178223,-0.0574 0.269751,-0.0574 0.2588989,0 0.3534668,0.27905 0.018604,0.0558 0.063562,0.43564 0.043408,0.26665 0.1116211,0.88831 0.00465,0.062 -0.041858,0.10542 -0.046509,0.0434 -0.1131714,0.0434 z m 2.3068361,-0.76739 q -0.1643313,0 -0.2837039,-0.0481 -0.1193725,-0.0481 -0.1922363,-0.14263 -0.083716,0.0822 -0.1643311,0.12403 -0.079065,0.0418 -0.1550293,0.0418 -0.1720825,0 -0.3255615,-0.13952 -0.1519287,-0.14108 -0.1519287,-0.30851 0,-0.28681 0.2247925,-0.524 0.2263428,-0.2372 0.513147,-0.2372 0.065112,0 0.1085205,0.0481 0.043408,0.0481 0.043408,0.11628 0,0.093 -0.1550293,0.13797 -0.206189,0.0589 -0.2914551,0.13488 -0.1255737,0.11007 -0.1255737,0.32401 0,0.045 0.041858,0.0868 0.048059,0.0465 0.1193725,0.0434 0.1348755,-0.006 0.2495972,-0.25114 0.1038696,-0.21394 0.1844849,-0.21394 0.065112,0 0.1054199,0.048 0.040308,0.0481 0.040308,0.11783 0,0.031 -0.010852,0.093 -0.0093,0.062 -0.0093,0.093 0,0.10077 0.086816,0.12713 0.034106,0.0109 0.1472784,0.0109 0.21239,0 0.297656,-0.10387 0.07752,-0.093 0.07752,-0.30851 0,-0.37982 -0.305408,-0.62012 -0.2790531,-0.22014 -0.6666264,-0.22014 -0.4511352,0 -0.7069335,0.34107 -0.2309937,0.30385 -0.2309937,0.76429 0,0.42478 0.2713013,0.71624 0.2821533,0.30385 0.7255371,0.30385 0.1255737,0 0.2837036,-0.0481 l 0.2713016,-0.10077 q 0.06821,-0.0248 0.08837,-0.0248 0.06356,0 0.11007,0.0512 0.04651,0.0496 0.04651,0.11627 0,0.14728 -0.3302125,0.23875 -0.2495971,0.0682 -0.4666381,0.0682 -0.2185913,0 -0.4480347,-0.0853 -0.2278931,-0.0837 -0.3906738,-0.22479 -0.4805908,-0.41548 -0.4805908,-1.01079 0,-0.59531 0.3286621,-0.99529 0.3488159,-0.42788 0.9286254,-0.42788 0.5239991,0 0.8976204,0.31471 0.392224,0.33331 0.392224,0.84336 0,0.34882 -0.170533,0.5364 -0.178283,0.19379 -0.522448,0.19379 z m 2.353345,-0.50695 q -0.01085,0.19379 -0.15503,0.19379 -0.133325,0 -0.133325,-0.15348 0,-0.0295 -0.0047,-0.10852 l -0.0047,-0.13023 q -0.244946,0.0295 -0.392224,0.13798 -0.137976,0.10077 -0.229443,0.30386 l 0.0031,0.84956 q 0,0.15658 -0.153479,0.15658 -0.136426,0 -0.136426,-0.15658 v -1.08831 q 0,-0.0512 0.0031,-0.15348 0.0047,-0.10232 0.0047,-0.15348 0,-0.15657 0.136426,-0.15657 0.151929,0 0.153479,0.25734 0.297656,-0.2868 0.660425,-0.2868 0.125574,0 0.187585,0.0946 0.06201,0.0946 0.06201,0.28525 0,0.0806 -0.0015,0.10852 z m 2.215368,-0.81235 q -0.114722,0 -0.353467,-0.0186 -0.232544,-0.0171 -0.353467,-0.0155 h -0.11007 q 0.0047,0.21394 0.04186,0.69453 0.03411,0.44804 0.03411,0.69608 0,0.0543 0.01085,0.16434 0.01085,0.11007 0.01085,0.16588 0,0.10542 -0.03411,0.18138 -0.04341,0.10232 -0.134876,0.10232 -0.06201,0 -0.111621,-0.0434 -0.04961,-0.0434 -0.04961,-0.11162 0,-0.0232 0.0078,-0.0698 0.0078,-0.0465 0.0078,-0.0698 0,-0.076 -0.01085,-0.2279 -0.0093,-0.15193 -0.0093,-0.22944 0,-0.22169 -0.03566,-0.62322 -0.03721,-0.43408 -0.04186,-0.62322 l -0.141077,0.002 q -0.339514,0 -0.5333,-0.0496 -0.125574,-0.0326 -0.125574,-0.15347 0,-0.0636 0.04031,-0.11163 0.04651,-0.0543 0.119372,-0.0496 0.05426,0.003 0.248047,0.0279 0.155029,0.0186 0.251147,0.0186 0.09302,0 0.282154,-0.003 0.189136,-0.005 0.282153,-0.005 0.119373,0 0.353467,0.0171 0.235644,0.017 0.355017,0.017 0.06666,0 0.111621,0.0465 0.04496,0.045 0.04496,0.11317 0,0.0667 -0.04496,0.11317 -0.04496,0.045 -0.111621,0.045 z m 1.984375,2.00453 q -0.142627,0 -0.248047,-0.36587 -0.04031,-0.13953 -0.100769,-0.48834 -0.15813,0.0217 -0.413928,0.0775 l -0.412378,0.0853 q -0.07752,0.20309 -0.2651,0.59376 -0.04961,0.0868 -0.134876,0.0868 -0.06201,0 -0.111621,-0.045 -0.04806,-0.045 -0.04806,-0.11162 0,-0.0744 0.234094,-0.56586 -0.02636,-0.0403 -0.02636,-0.093 0,-0.12557 0.151929,-0.16123 0.176733,-0.33176 0.446484,-0.76274 0.36742,-0.58756 0.457337,-0.58756 0.122473,0 0.167431,0.17053 l 0.09767,0.5209 0.230994,1.07745 0.08837,0.24495 q 0.04496,0.12557 0.04496,0.16743 0,0.0667 -0.04806,0.11162 -0.04806,0.045 -0.110071,0.045 z m -0.547254,-1.77199 -0.443383,0.71469 q 0.187585,-0.0481 0.568957,-0.11627 z m 2.894398,-0.21394 -0.20929,0.14263 q -0.282153,0.21859 -0.638721,0.69918 l -0.544153,0.7922 q -0.03876,0.0589 -0.07596,0.10852 l 0.603064,-0.0232 q 0.395325,-0.0186 0.604614,-0.0186 0.204639,0 0.302307,0.0186 0.125574,0.0248 0.130225,0.12712 0.0031,0.076 -0.04961,0.12092 -0.04651,0.0388 -0.116272,0.0388 -0.04496,0 -0.134876,-0.006 -0.08992,-0.005 -0.134875,-0.005 -0.235645,0 -0.708484,0.0109 -0.471289,0.0124 -0.706934,0.0124 -0.178283,0 -0.178283,-0.15658 0,-0.10232 0.09612,-0.25734 l 0.165881,-0.231 0.559656,-0.77825 q 0.345715,-0.45733 0.643371,-0.71003 l -0.542602,0.031 H 17.35103 q -0.01705,0 -0.05116,0.003 -0.03256,0.002 -0.04806,0.002 -0.164331,0 -0.164331,-0.15968 0,-0.10542 0.08372,-0.13953 0.05116,-0.0217 0.168982,-0.0217 0.10697,0 0.31781,0.0233 0.21239,0.0217 0.31936,0.0217 0.119372,0 0.356567,-0.0155 0.238745,-0.0155 0.359668,-0.0155 0.398426,0 0.398426,0.15038 0,0.10232 -0.179834,0.23564 z m 2.201416,0 -0.20929,0.14263 q -0.282153,0.21859 -0.638721,0.69918 l -0.544152,0.7922 q -0.03876,0.0589 -0.07597,0.10852 l 0.603064,-0.0232 q 0.395325,-0.0186 0.604614,-0.0186 0.204639,0 0.302307,0.0186 0.125574,0.0248 0.130225,0.12712 0.0031,0.076 -0.04961,0.12092 -0.04651,0.0388 -0.116272,0.0388 -0.04496,0 -0.134876,-0.006 -0.08992,-0.005 -0.134875,-0.005 -0.235645,0 -0.708484,0.0109 -0.471289,0.0124 -0.706934,0.0124 -0.178283,0 -0.178283,-0.15658 0,-0.10232 0.09612,-0.25734 l 0.165881,-0.231 0.559656,-0.77825 q 0.345715,-0.45733 0.643371,-0.71003 l -0.542602,0.031 h -0.626318 q -0.01705,0 -0.05116,0.003 -0.03256,0.002 -0.04806,0.002 -0.164331,0 -0.164331,-0.15968 0,-0.10542 0.08372,-0.13953 0.05116,-0.0217 0.168982,-0.0217 0.10697,0 0.31781,0.0233 0.21239,0.0217 0.31936,0.0217 0.119372,0 0.356567,-0.0155 0.238745,-0.0155 0.359668,-0.0155 0.398426,0 0.398426,0.15038 0,0.10232 -0.179834,0.23564 z"
         id="path2" />
      <path
         d="m 7.6570428,125.9261 q -0.00155,-0.0651 0.043408,-0.10542 0.046509,-0.0419 0.1131714,-0.0419 0.075964,0 0.1333251,0.0868 0.079065,0.11783 0.1410767,0.15968 0.1317749,0.0868 0.3829224,0.0868 0.2402954,0 0.4464843,-0.10387 0.2635498,-0.13332 0.2635498,-0.37052 0,-0.19534 -0.2216919,-0.30851 -0.1875854,-0.0977 -0.4635376,-0.10542 -0.2449462,-0.009 -0.4170288,-0.10697 -0.2201416,-0.12557 -0.2201416,-0.35967 0,-0.27595 0.3131592,-0.50384 0.2992066,-0.21549 0.6185669,-0.21549 0.1503784,0 0.3395142,0.0512 0.2511474,0.0667 0.2511474,0.17053 0,0.13643 -0.1395263,0.13643 -0.062012,0 -0.2170411,-0.0326 -0.1550293,-0.0341 -0.2402954,-0.0326 -0.2418457,0.003 -0.4108276,0.11938 -0.1736328,0.11937 -0.1736328,0.2899 0,0.12868 0.2294434,0.18139 0.085266,0.0202 0.3302123,0.0372 0.3550171,0.0264 0.5550049,0.22324 0.1829346,0.17984 0.1829346,0.43874 0,0.36897 -0.3410645,0.58911 -0.2961059,0.19069 -0.6867797,0.19069 -0.2837036,0 -0.5193482,-0.10853 -0.2883545,-0.13332 -0.2930053,-0.36586 z m 3.2463132,-0.93483 q -0.03256,0 -0.07751,-0.003 -0.04341,-0.003 -0.07597,-0.003 -0.03566,0 -0.21084,0.0233 l 0.02946,0.91623 0.0015,0.0682 0.0016,0.0791 q 0.0062,0.33952 -0.162781,0.33952 -0.06201,0 -0.108521,-0.0403 -0.04496,-0.0403 -0.04496,-0.10077 0,-0.0589 0.0047,-0.17673 0.0047,-0.11783 0.0047,-0.17674 l -0.03101,-0.90537 q -0.113172,-0.005 -0.3441654,-0.0264 -0.137976,-0.0186 -0.137976,-0.15348 0,-0.0682 0.041858,-0.11317 0.041858,-0.045 0.1069702,-0.045 l 0.3255612,0.0263 q 0,-0.0791 -0.0078,-0.21084 -0.0062,-0.13332 -0.0062,-0.19223 0,-0.0651 0.04496,-0.10697 0.04496,-0.0434 0.110071,-0.0434 0.139526,0 0.162781,0.22789 0.0047,0.0574 0.0047,0.13798 l -0.0031,0.0899 -0.0015,0.0961 q 0.192236,-0.0248 0.220141,-0.0248 0.161231,0 0.21084,0.0155 0.09457,0.031 0.09457,0.14573 0,0.0682 -0.04341,0.11317 -0.04186,0.0434 -0.108521,0.0434 z m 1.723926,0.41548 q 0,0.11162 0.0015,0.33486 0.0016,0.22324 0.0016,0.33486 0,0.0341 0.0046,0.10387 0.0062,0.0698 0.0062,0.10387 0,0.0667 -0.04496,0.10852 -0.04496,0.0434 -0.110071,0.0434 -0.119372,0 -0.151928,-0.14728 -0.193787,0.10077 -0.446485,0.10077 -0.203088,0 -0.336413,-0.0899 -0.147278,-0.0992 -0.175183,-0.28991 -0.06046,-0.41083 -0.06046,-0.73174 0,-0.21239 0.04651,-0.48369 0.0217,-0.13487 0.147278,-0.13487 0.06666,0 0.111621,0.0434 0.04496,0.0419 0.04496,0.10852 0,0.0713 -0.02325,0.2279 -0.0217,0.15658 -0.0217,0.23874 0,0.2589 0.01705,0.44339 0.01705,0.18448 0.05116,0.2961 0.05116,0.0279 0.100769,0.0434 0.04961,0.014 0.09767,0.014 0.20774,0 0.438733,-0.0667 l -0.0015,-0.31471 -0.0031,-0.30076 q 0,-0.33486 0.02946,-0.58136 0.01705,-0.14262 0.150378,-0.14262 0.06666,0 0.111621,0.0434 0.04496,0.0434 0.04186,0.10852 z m 1.813843,-0.46354 q -0.0186,0.22789 -0.0186,0.45579 0,0.51624 0.04806,0.77979 0.0031,0.0217 0.0031,0.0357 0,0.062 -0.04341,0.10232 -0.04341,0.0403 -0.100769,0.0403 -0.09612,0 -0.141077,-0.13953 -0.111621,0.0822 -0.232544,0.12402 -0.119372,0.0419 -0.249597,0.0419 -0.320911,0 -0.531751,-0.21394 -0.217041,-0.21859 -0.217041,-0.5612 0,-0.41393 0.218592,-0.66353 0.220141,-0.2496 0.570508,-0.2496 0.179834,0 0.277502,0.0558 l 0.145728,0.10697 q 0.0217,-0.65267 0.05116,-0.87901 0.02015,-0.13798 0.141077,-0.13798 0.141076,0 0.141076,0.15038 0,0.21549 -0.06201,0.95188 z m -0.68833,0.0403 q -0.26045,0 -0.390674,0.15503 -0.130225,0.15348 -0.130225,0.46353 0,0.19999 0.141077,0.34417 0.142627,0.14418 0.333313,0.14418 0.130225,0 0.220142,-0.0481 0.05271,-0.0279 0.172082,-0.12868 0.02325,-0.0202 0.04496,-0.0481 l -0.0047,-0.2682 0.0015,-0.17983 0.0031,-0.18294 q -0.05891,-0.12557 -0.15658,-0.18758 -0.09767,-0.0636 -0.234094,-0.0636 z m 1.421619,-0.63407 q -0.07442,0 -0.128675,-0.0527 -0.05426,-0.0527 -0.05426,-0.12713 0,-0.0744 0.05426,-0.12712 0.05426,-0.0527 0.128675,-0.0527 0.07441,0 0.127124,0.0527 0.05426,0.0527 0.05426,0.12712 0,0.0744 -0.05426,0.12713 -0.05271,0.0527 -0.127124,0.0527 z m 0.06976,1.25884 q 0,0.093 0.0047,0.27905 0.0062,0.18448 0.0062,0.2775 0,0.0682 -0.04186,0.11162 -0.04186,0.0434 -0.110071,0.0434 -0.06666,0 -0.110071,-0.0434 -0.04186,-0.0434 -0.04186,-0.11162 0,-0.093 -0.0062,-0.2775 -0.0047,-0.18604 -0.0047,-0.27905 0,-0.14573 0.0155,-0.36277 0.0155,-0.21859 0.0155,-0.36432 0,-0.0698 0.04186,-0.11317 0.04341,-0.0434 0.110071,-0.0434 0.06666,0 0.10852,0.0434 0.04341,0.0434 0.04341,0.11317 0,0.14573 -0.0155,0.36432 -0.0155,0.21704 -0.0155,0.36277 z m 1.105358,0.7953 q -0.260449,0 -0.448034,-0.19224 -0.20929,-0.21394 -0.220142,-0.57516 -0.0093,-0.35037 0.176733,-0.61702 0.217041,-0.31471 0.604615,-0.31471 0.310058,0 0.469738,0.28371 0.127124,0.22944 0.122474,0.5519 -0.0047,0.34417 -0.179834,0.58756 -0.198438,0.27596 -0.52555,0.27596 z m 0.09302,-1.38442 q -0.227893,-0.002 -0.355017,0.21705 -0.100769,0.17518 -0.100769,0.39997 0,0.22479 0.122473,0.35037 0.102319,0.10387 0.240295,0.10387 0.161231,0 0.277503,-0.11783 0.131775,-0.13022 0.139526,-0.35191 0.0217,-0.59997 -0.324011,-0.60152 z"
         id="path3" />
      <desc
         id="desc6">Brand</desc>
      <title
         id="title6">Brand</title>
    </g>
    <rect
       style="display:inline;fill:#c0c0c0;fill-opacity:1;stroke:#505050;stroke-width:0.215595;stroke-miterlimit:0;stroke-dasharray:none;stroke-opacity:1"
       id="guid-e177fcca-23db-4d9a-8f50-21ab1e5511d2"
       width="23.184404"
       height="43.784409"
       x="1.1077975"
       y="24.568661"
       ry="2.0181189"
       inkscape:label="Modulation Block">
      <desc
         id="desc9">Output Block</desc>
      <title
         id="title9">Modulation Block</title>
    </rect>
    <rect
       style="display:inline;fill:#c0c0c0;fill-opacity:1;stroke:#505050;stroke-width:0.214054;stroke-miterlimit:0;stroke-dasharray:none;stroke-opacity:1"
       id="guid-c6124b5b-7089-4f40-8008-45f5eb46cf5e"
       width="23.185946"
       height="43.157967"
       x="1.1070268"
       y="70.107025"
       ry="1.9892451"
       inkscape:label="Parameter Block">
      <desc
         id="desc9-4">Output Block</desc>
      <title
         id="title9-9">Parameter Block</title>
    </rect>
    <path
       d="m -168.4082,169.88718 q 0,-2.13867 1.14843,-3.34571 1.14844,-1.21289 2.96485,-1.21289 1.18945,0 2.14453,0.56836 0.95508,0.56836 1.45312,1.58789 0.50391,1.01368 0.50391,2.30274 0,1.30664 -0.52734,2.33789 -0.52735,1.03125 -1.49414,1.56445 -0.9668,0.52735 -2.08594,0.52735 -1.21289,0 -2.16797,-0.58594 -0.95508,-0.58594 -1.44727,-1.59961 -0.49218,-1.01367 -0.49218,-2.14453 z m 1.17187,0.0176 q 0,1.55273 0.83203,2.44921 0.83789,0.89063 2.09766,0.89063 1.2832,0 2.10937,-0.90234 0.83204,-0.90235 0.83204,-2.56055 0,-1.04883 -0.35743,-1.82813 -0.35156,-0.78515 -1.03711,-1.21289 -0.67968,-0.43359 -1.52929,-0.43359 -1.20703,0 -2.08008,0.83203 -0.86719,0.82617 -0.86719,2.76563 z m 12.45117,4.16601 v -0.91406 q -0.72656,1.05469 -1.97461,1.05469 -0.55078,0 -1.03125,-0.21094 -0.4746,-0.21094 -0.70898,-0.52734 -0.22852,-0.32227 -0.32227,-0.78516 -0.0644,-0.31055 -0.0644,-0.98438 v -3.85546 h 1.05469 v 3.45117 q 0,0.82617 0.0644,1.11328 0.0996,0.41601 0.42188,0.65625 0.32226,0.23437 0.79687,0.23437 0.47461,0 0.89063,-0.24023 0.41601,-0.24609 0.58593,-0.66211 0.17579,-0.42188 0.17579,-1.21875 v -3.33398 h 1.05468 v 6.22265 z m 4.89844,-0.94336 0.15235,0.93164 q -0.44532,0.0937 -0.79688,0.0937 -0.57422,0 -0.89062,-0.18164 -0.31641,-0.18164 -0.44532,-0.47461 -0.1289,-0.29883 -0.1289,-1.24804 v -3.58008 h -0.77344 v -0.82031 h 0.77344 v -1.54102 l 1.04882,-0.63281 v 2.17383 h 1.06055 v 0.82031 h -1.06055 v 3.63867 q 0,0.45117 0.0527,0.58008 0.0586,0.1289 0.18164,0.20508 0.12891,0.0762 0.36328,0.0762 0.17578,0 0.46289,-0.041 z"
       id="guid-37658660-4641-49a3-b4d1-90e9afedfbba"
       style="font-size:12px;font-family:Arial;-inkscape-font-specification:'Arial, Normal';text-align:center;white-space:pre;stroke:#00ff00;stroke-width:0;stroke-miterlimit:0"
       inkscape:label="Out label"
       transform="matrix(0.26458333,0,0,0.26458333,60.958003,-23.743187)"
       aria-label="Out">
      <title
         id="title26">Out label</title>
    </path>
    <path
       style="display:inline;font-size:12px;font-family:Arial;-inkscape-font-specification:'Arial, Normal';text-align:center;white-space:pre;stroke:#000000;stroke-width:0;stroke-miterlimit:0"
       d="m -166.60937,174.07077 -3.32813,-8.58984 h 1.23047 l 2.23242,6.24023 q 0.26953,0.75 0.45117,1.40625 0.19922,-0.70312 0.46289,-1.40625 l 2.32032,-6.24023 h 1.16015 l -3.36328,8.58984 z m 4.34179,-2.57812 v -1.06055 h 3.24024 v 1.06055 z m 4.73438,2.57812 v -8.58984 h 1.13672 v 8.58984 z m 3.00586,0 v -6.22265 h 0.94922 v 0.88476 q 0.68554,-1.02539 1.98046,-1.02539 0.5625,0 1.03125,0.20508 0.47461,0.19922 0.70899,0.52734 0.23437,0.32813 0.32812,0.7793 0.0586,0.29297 0.0586,1.02539 v 3.82617 h -1.05469 v -3.78515 q 0,-0.64454 -0.12305,-0.96094 -0.12304,-0.32227 -0.43945,-0.50977 -0.31055,-0.19336 -0.73242,-0.19336 -0.67383,0 -1.16602,0.42774 -0.48633,0.42773 -0.48633,1.62304 v 3.39844 z"
       id="guid-8e31c4c7-f0d4-41eb-a0d9-0d129d38e8be"
       transform="matrix(0.26458333,0,0,0.26458333,48.96263,-23.783495)"
       aria-label="V-In"
       inkscape:label="V-In label">
      <title
         id="title16">V-In label</title>
    </path>
    <path
       d="m 8.8155669,5.9301763 q -0.1550294,0 -0.229099,-0.1636421 -0.034451,-0.077515 -0.068902,-0.093018 -0.025838,-0.012058 -0.1360814,-0.012058 -0.2170411,0 -0.5012617,0.3376196 -0.3979088,0.4719784 -0.3979088,0.8836676 0,0.1877578 0.1257461,0.3221166 0.1257461,0.1343588 0.301446,0.1343588 0.1705324,0 0.3462324,-0.089573 0.062012,-0.032729 0.2618274,-0.1688098 0.1343588,-0.089573 0.2032608,-0.089573 0.1033529,0 0.1756999,0.075792 0.067179,0.070625 0.067179,0.1619196 0,0.1016304 -0.089572,0.1774225 -0.4737009,0.3996313 -0.9646274,0.3996313 -0.3875734,0 -0.6545685,-0.282498 -0.2549373,-0.2721627 -0.2549373,-0.6407881 0,-0.5770539 0.5047069,-1.1782235 0.4289146,-0.5098744 0.8767773,-0.5098744 0.075792,0 0.1360814,0.00517 0.062012,0.00517 0.1085206,0.015503 0.075792,-0.07407 0.1825901,-0.07407 0.1757,0 0.2170412,0.2015382 0.029283,0.1446941 0.029283,0.3376196 0,0.086127 -0.049954,0.1567519 -0.065457,0.093018 -0.1894804,0.093018 z m 0.9870205,1.5812999 q 0,0.3272843 -0.2377117,0.3272843 -0.103353,0 -0.1705324,-0.065457 -0.067179,-0.065457 -0.067179,-0.1688098 v -2.382285 q 0,-0.099908 0.072347,-0.1636422 Q 9.4684129,5 9.5700433,5 q 0.1016304,0 0.1670872,0.062012 0.065457,0.060289 0.065457,0.1601971 z m 0.8285456,-1.817289 q -0.110243,0 -0.191203,-0.07407 -0.08096,-0.07407 -0.08096,-0.1808677 0,-0.106798 0.08096,-0.1808676 0.08096,-0.07407 0.191203,-0.07407 0.110243,0 0.189481,0.07407 0.08096,0.07407 0.08096,0.1808676 0,0.1067981 -0.08096,0.1808677 -0.07924,0.07407 -0.189481,0.07407 z m 0.146417,1.2626283 q 0,0.098185 0.0052,0.3152264 0.0069,0.2170412 0.0069,0.3152264 0,0.099908 -0.06718,0.1653647 -0.06718,0.063734 -0.170532,0.063734 -0.103353,0 -0.170532,-0.063734 -0.06718,-0.065457 -0.06718,-0.1653647 0,-0.098185 -0.0069,-0.3152264 -0.0052,-0.2170412 -0.0052,-0.3152264 0,-0.1533069 0.01722,-0.3841284 0.01722,-0.2308216 0.01722,-0.3841284 0,-0.099908 0.06718,-0.1636422 0.06718,-0.065457 0.170532,-0.065457 0.103353,0 0.170533,0.065457 0.06718,0.063734 0.06718,0.1636422 0,0.1533068 -0.01723,0.3841284 -0.01722,0.2308215 -0.01722,0.3841284 z m 1.245403,0.9095058 q -0.148139,0 -0.311782,-0.034451 l -0.0017,0.7027999 q 0,0.099908 -0.06718,0.1653647 -0.06718,0.065457 -0.170533,0.065457 -0.103353,0 -0.170532,-0.065457 -0.06718,-0.065457 -0.06718,-0.1653647 0,-0.08096 0.0034,-0.6425107 0.0034,-0.4168568 0,-0.6804068 -0.0052,-0.3720706 -0.02412,-0.6407882 -0.02584,-0.370348 -0.02584,-0.3393421 0,-0.1429716 0.06373,-0.2446019 0.07407,-0.1154108 0.199816,-0.1154108 0.09646,0 0.161919,0.065457 0.06546,0.065457 0.06546,0.156752 l -0.0017,0.017225 q 0.11541,-0.065457 0.230821,-0.096463 0.117133,-0.032728 0.234267,-0.032728 0.396186,0 0.578776,0.335897 0.136081,0.2532147 0.136081,0.6562912 0,0.3772382 -0.215318,0.6252852 -0.230822,0.2669951 -0.618395,0.2669951 z m 0.118856,-1.4245479 q -0.108521,0 -0.220487,0.051676 -0.111965,0.049954 -0.225653,0.1515843 0.02067,0.3548451 0.02067,0.7114127 0.153307,0.049954 0.306614,0.049954 0.177422,0 0.272163,-0.1257461 0.08613,-0.1136882 0.08613,-0.3066136 0,-0.2325441 -0.02067,-0.3221167 -0.04995,-0.2101509 -0.218763,-0.2101509 z m 1.767335,1.4245479 q -0.148139,0 -0.311782,-0.034451 l -0.0017,0.7027999 q 0,0.099908 -0.06718,0.1653647 -0.06718,0.065457 -0.170532,0.065457 -0.103353,0 -0.170532,-0.065457 -0.06718,-0.065457 -0.06718,-0.1653647 0,-0.08096 0.0034,-0.6425107 0.0034,-0.4168568 0,-0.6804068 -0.0052,-0.3720706 -0.02412,-0.6407882 -0.02584,-0.370348 -0.02584,-0.3393421 0,-0.1429716 0.06373,-0.2446019 0.07407,-0.1154108 0.199816,-0.1154108 0.09646,0 0.161919,0.065457 0.06546,0.065457 0.06546,0.156752 l -0.0017,0.017225 q 0.115411,-0.065457 0.230822,-0.096463 0.117133,-0.032728 0.234267,-0.032728 0.396186,0 0.578776,0.335897 0.136081,0.2532147 0.136081,0.6562912 0,0.3772382 -0.215318,0.6252852 -0.230822,0.2669951 -0.618395,0.2669951 z M 14.028,6.4417734 q -0.108521,0 -0.220487,0.051676 -0.111965,0.049954 -0.225654,0.1515843 0.02067,0.3548451 0.02067,0.7114127 0.153307,0.049954 0.306614,0.049954 0.177422,0 0.272162,-0.1257461 0.08613,-0.1136882 0.08613,-0.3066136 0,-0.2325441 -0.02067,-0.3221167 Q 14.196809,6.4417734 14.028,6.4417734 Z m 1.839682,1.4021547 q -0.411689,0 -0.673516,-0.1963705 -0.289389,-0.2170412 -0.289389,-0.6115049 0,-0.4358049 0.229099,-0.7372509 0.254938,-0.3341745 0.687297,-0.3341745 0.299724,0 0.497817,0.096463 0.260105,0.1274686 0.260105,0.3961862 0,0.1894804 -0.211874,0.335897 -0.09646,0.067179 -0.387573,0.1963706 l -0.580499,0.2566598 q 0.08268,0.089573 0.199816,0.1343588 0.117133,0.044786 0.268717,0.044786 0.230822,0 0.391019,-0.09474 0.142971,-0.084405 0.229099,-0.084405 0.179145,0 0.179145,0.1739774 0,0.1963706 -0.287666,0.3203941 -0.241157,0.1033529 -0.511597,0.1033529 z m -0.04651,-1.462444 q -0.160197,0 -0.273885,0.1067981 -0.113688,0.106798 -0.18259,0.3203941 0.194648,-0.084405 0.387573,-0.1670873 0.232544,-0.1050755 0.370348,-0.194648 -0.11541,-0.065457 -0.301446,-0.065457 z m 2.594159,0.1412491 q -0.0155,0.2635499 -0.239434,0.2635499 -0.217041,0 -0.217041,-0.2239313 l -0.0086,-0.1739775 q -0.387574,0.062012 -0.554661,0.3979088 l 0.0017,0.8664421 q 0,0.098185 -0.06718,0.1619196 -0.06718,0.065457 -0.170532,0.065457 -0.106798,0 -0.165365,-0.068902 -0.05512,-0.062012 -0.05512,-0.1584745 V 6.5244557 q 0,-0.053399 0.0034,-0.1584745 0.0034,-0.106798 0.0034,-0.160197 0,-0.096463 0.05684,-0.1601971 0.05857,-0.065457 0.165365,-0.065457 0.191203,0 0.227376,0.1963705 0.304891,-0.2273764 0.676962,-0.2273764 0.34451,0 0.34451,0.458198 0,0.08785 -0.0017,0.1154108 z"
       id="guid-caa1c78f-7e08-4511-8ae5-d40ea27173a9"
       style="font-weight:bold;font-size:3.52778px;font-family:'Comic Sans MS';-inkscape-font-specification:'Comic Sans MS, Bold';text-align:center;text-anchor:middle;stroke:#000000;stroke-width:0;stroke-linecap:round;stroke-linejoin:round;stroke-miterlimit:0"
       inkscape:label="Module"
       aria-label="Clipper">
      <title
         id="title5">Module</title>
    </path>
    <g
       id="guid-4da73f78-1d4b-4c20-aedf-7b9f502fd0f3"
       style="font-size:3.52778px;font-family:Arial;-inkscape-font-specification:'Arial, Normal';text-align:center;text-anchor:middle;stroke:#000000;stroke-width:0;stroke-linecap:round;stroke-linejoin:round;stroke-miterlimit:0"
       inkscape:label="Upper Threshhold label"
       aria-label="Upper &#10;Threshold"
       transform="translate(0.4000005,3.156002)">
      <path
         d="m 8.8959442,80.343998 h 0.3341745 v 1.458999 q 0,0.380684 -0.086127,0.604615 -0.086127,0.223931 -0.3117814,0.36518 -0.2239313,0.139527 -0.5891117,0.139527 -0.3548451,0 -0.580499,-0.122301 Q 7.4369457,82.667717 7.340483,82.436895 7.24402,82.204351 7.24402,81.802997 v -1.458999 h 0.3341744 v 1.457277 q 0,0.329007 0.060289,0.485759 0.062012,0.155029 0.2101509,0.239434 0.1498618,0.08441 0.3651804,0.08441 0.3686254,0 0.5253774,-0.167088 0.1567519,-0.167087 0.1567519,-0.64251 z m 0.8509393,3.226334 v -2.530424 h 0.2824975 v 0.237712 q 0.09991,-0.139527 0.225654,-0.208428 0.125746,-0.07063 0.304892,-0.07063 0.234266,0 0.413411,0.120578 0.179145,0.120579 0.27044,0.341065 0.0913,0.218764 0.0913,0.480591 0,0.280776 -0.101631,0.50643 -0.09991,0.223931 -0.292833,0.344509 -0.191203,0.118856 -0.403077,0.118856 -0.155029,0 -0.279053,-0.06546 -0.1223,-0.06546 -0.201538,-0.165364 v 0.890557 z m 0.2807755,-1.605415 q 0,0.353122 0.142971,0.521932 0.142972,0.16881 0.346233,0.16881 0.206706,0 0.353122,-0.173977 0.14814,-0.1757 0.14814,-0.542603 0,-0.349678 -0.144695,-0.523655 -0.142971,-0.173978 -0.342787,-0.173978 -0.198093,0 -0.3514,0.186036 -0.151584,0.184312 -0.151584,0.537435 z m 1.681208,1.605415 v -2.530424 h 0.282498 v 0.237712 q 0.09991,-0.139527 0.225654,-0.208428 0.125746,-0.07063 0.304891,-0.07063 0.234266,0 0.413411,0.120578 0.179146,0.120579 0.270441,0.341065 0.0913,0.218764 0.0913,0.480591 0,0.280776 -0.101631,0.50643 -0.09991,0.223931 -0.292833,0.344509 -0.191203,0.118856 -0.403076,0.118856 -0.15503,0 -0.279053,-0.06546 -0.122301,-0.06546 -0.201539,-0.165364 v 0.890557 z m 0.280775,-1.605415 q 0,0.353122 0.142972,0.521932 0.142971,0.16881 0.346232,0.16881 0.206706,0 0.353123,-0.173977 0.148139,-0.1757 0.148139,-0.542603 0,-0.349678 -0.144694,-0.523655 -0.142972,-0.173978 -0.342788,-0.173978 -0.198093,0 -0.3514,0.186036 -0.151584,0.184312 -0.151584,0.537435 z m 2.933501,0.315226 0.320394,0.03962 q -0.07579,0.280775 -0.280775,0.435805 -0.204984,0.155029 -0.523655,0.155029 -0.401354,0 -0.637343,-0.246324 -0.234267,-0.248047 -0.234267,-0.694187 0,-0.461644 0.237712,-0.716581 0.237711,-0.254937 0.616672,-0.254937 0.366903,0 0.599447,0.24977 0.232544,0.249769 0.232544,0.7028 0,0.02756 -0.0017,0.08268 h -1.364259 q 0.01723,0.301446 0.170532,0.461643 0.153307,0.160197 0.382406,0.160197 0.170533,0 0.291111,-0.08957 0.120578,-0.08957 0.191203,-0.285943 z m -1.018026,-0.501261 h 1.021471 q -0.02067,-0.230822 -0.117133,-0.346233 -0.14814,-0.179145 -0.384129,-0.179145 -0.213596,0 -0.360012,0.142972 -0.144695,0.142971 -0.160197,0.382406 z m 1.724271,1.090373 v -1.829347 h 0.279053 v 0.277331 q 0.106798,-0.194648 0.19637,-0.25666 0.0913,-0.06201 0.199816,-0.06201 0.156752,0 0.318672,0.09991 l -0.106798,0.287666 q -0.113689,-0.06718 -0.227377,-0.06718 -0.10163,0 -0.18259,0.06201 -0.08096,0.06029 -0.115411,0.16881 -0.05168,0.165364 -0.05168,0.361735 v 0.957737 z"
         id="path1" />
      <path
         d="M 5.3319906,87.27898 V 85.051724 H 4.4999995 v -0.298 h 2.0016018 v 0.298 H 5.6661651 v 2.227256 z m 1.4727794,0 v -2.525256 h 0.3100587 v 0.90606 q 0.2170412,-0.251492 0.5477706,-0.251492 0.2032607,0 0.3531225,0.08096 0.1498617,0.07924 0.2135961,0.220486 0.065457,0.141249 0.065457,0.409967 v 1.159275 h -0.310059 v -1.159275 q 0,-0.232544 -0.1016304,-0.33762 -0.099908,-0.106798 -0.2842205,-0.106798 -0.1378039,0 -0.2601049,0.07235 -0.1205784,0.07062 -0.1722549,0.192926 -0.051676,0.122301 -0.051676,0.337619 v 1.000801 z m 1.9585381,0 V 85.449633 H 9.042361 v 0.277331 q 0.106798,-0.194648 0.1963705,-0.25666 0.091295,-0.06201 0.1998157,-0.06201 0.156752,0 0.3186715,0.09991 l -0.106798,0.287666 q -0.1136882,-0.06718 -0.2273764,-0.06718 -0.1016304,0 -0.1825902,0.06201 -0.08096,0.06029 -0.1154108,0.16881 -0.051676,0.165364 -0.051676,0.361735 v 0.957737 z m 2.4305169,-0.589112 0.320394,0.03962 q -0.07579,0.280776 -0.280776,0.435805 -0.204983,0.155029 -0.523655,0.155029 -0.401353,0 -0.637343,-0.246324 -0.2342663,-0.248047 -0.2342663,-0.694187 0,-0.461643 0.2377113,-0.716581 0.237712,-0.254937 0.616673,-0.254937 0.366903,0 0.599447,0.24977 0.232544,0.249769 0.232544,0.7028 0,0.02756 -0.0017,0.08268 h -1.364258 q 0.01722,0.301446 0.170532,0.461643 0.153307,0.160197 0.382406,0.160197 0.170532,0 0.291111,-0.08957 0.120578,-0.08957 0.191203,-0.285944 z m -1.018027,-0.501261 h 1.021472 q -0.02067,-0.230822 -0.117134,-0.346233 -0.148139,-0.179145 -0.384128,-0.179145 -0.213596,0 -0.360013,0.142972 -0.144694,0.142971 -0.160197,0.382406 z m 1.603693,0.544325 0.306614,-0.04823 q 0.02584,0.184313 0.142972,0.282498 0.118855,0.09819 0.330729,0.09819 0.213596,0 0.316949,-0.08613 0.103353,-0.08785 0.103353,-0.204984 0,-0.105075 -0.09129,-0.165364 -0.06374,-0.04134 -0.316949,-0.105076 -0.341065,-0.08613 -0.473701,-0.148139 -0.130914,-0.06373 -0.199816,-0.173977 -0.06718,-0.111966 -0.06718,-0.246325 0,-0.122301 0.05512,-0.225654 0.05684,-0.105075 0.153307,-0.173977 0.07235,-0.0534 0.196371,-0.08957 0.125746,-0.0379 0.268717,-0.0379 0.215319,0 0.377239,0.06201 0.163642,0.06201 0.241156,0.16881 0.07752,0.105075 0.106798,0.282498 l -0.303168,0.04134 q -0.02067,-0.141249 -0.120579,-0.220486 -0.09818,-0.07924 -0.279052,-0.07924 -0.213597,0 -0.304892,0.07062 -0.0913,0.07062 -0.0913,0.165365 0,0.06029 0.0379,0.10852 0.0379,0.04995 0.118856,0.08268 0.04651,0.01723 0.273885,0.07924 0.329007,0.08785 0.458198,0.144694 0.130914,0.05512 0.204984,0.161919 0.07407,0.106798 0.07407,0.265273 0,0.155029 -0.0913,0.292833 -0.08957,0.136082 -0.260105,0.211874 -0.170532,0.07407 -0.385851,0.07407 -0.356567,0 -0.544325,-0.148139 -0.186035,-0.148139 -0.237712,-0.43925 z m 1.887914,0.546048 v -2.525256 h 0.310059 v 0.90606 q 0.217041,-0.251492 0.54777,-0.251492 0.203261,0 0.353123,0.08096 0.149862,0.07924 0.213596,0.220486 0.06546,0.141249 0.06546,0.409967 v 1.159275 h -0.310059 v -1.159275 q 0,-0.232544 -0.10163,-0.33762 -0.09991,-0.106798 -0.284221,-0.106798 -0.137804,0 -0.260105,0.07235 -0.120578,0.07062 -0.172255,0.192926 -0.05168,0.122301 -0.05168,0.337619 v 1.000801 z m 1.846572,-0.914673 q 0,-0.508152 0.282498,-0.752754 0.235989,-0.203261 0.575331,-0.203261 0.377239,0 0.616673,0.248047 0.239434,0.246325 0.239434,0.682129 0,0.353123 -0.106798,0.556384 -0.105075,0.201538 -0.308336,0.313504 -0.201538,0.111965 -0.440973,0.111965 -0.384128,0 -0.62184,-0.246324 -0.235989,-0.246325 -0.235989,-0.70969 z m 0.318672,0 q 0,0.3514 0.153306,0.5271 0.153307,0.173977 0.385851,0.173977 0.230822,0 0.384129,-0.1757 0.153307,-0.1757 0.153307,-0.535713 0,-0.339342 -0.15503,-0.513319 -0.153307,-0.1757 -0.382406,-0.1757 -0.232544,0 -0.385851,0.173977 -0.153306,0.173978 -0.153306,0.525378 z m 1.751832,0.914673 v -2.525256 h 0.310059 v 2.525256 z m 1.977486,0 v -0.230821 q -0.173978,0.272162 -0.511597,0.272162 -0.218764,0 -0.403077,-0.120578 -0.18259,-0.120579 -0.28422,-0.335897 -0.09991,-0.217041 -0.09991,-0.497817 0,-0.273885 0.09129,-0.496094 0.09129,-0.223931 0.273885,-0.342787 0.18259,-0.118856 0.408244,-0.118856 0.165365,0 0.294556,0.07062 0.129191,0.0689 0.210151,0.180867 v -0.90606 h 0.308336 v 2.525256 z m -0.980131,-0.912951 q 0,0.3514 0.14814,0.525378 0.148139,0.173977 0.349677,0.173977 0.203261,0 0.34451,-0.165365 0.142971,-0.167087 0.142971,-0.508152 0,-0.375515 -0.144694,-0.551215 -0.144694,-0.1757 -0.356567,-0.1757 -0.206706,0 -0.346233,0.16881 -0.137804,0.168809 -0.137804,0.532267 z"
         id="path4" />
      <title
         id="title25">Upper Threshhold label</title>
    </g>
    <g
       id="guid-2ae4ad0e-14ea-4e45-bf58-142c174ee346"
       style="font-size:3.52778px;font-family:Arial;-inkscape-font-specification:'Arial, Normal';text-align:center;text-anchor:middle;stroke:#000000;stroke-width:0;stroke-linecap:round;stroke-linejoin:round;stroke-miterlimit:0"
       inkscape:label="Lower Threshold label"
       aria-label="Lower &#10;Threshold"
       transform="translate(0.4000005,0.87268)">
      <path
         d="m 7.2250718,104.65258 v -2.52526 h 0.3341745 v 2.22726 h 1.2436803 v 0.298 z m 1.8207342,-0.91467 q 0,-0.50816 0.282498,-0.75276 0.2359892,-0.20326 0.5753314,-0.20326 0.3772386,0 0.6166726,0.24805 0.239434,0.24632 0.239434,0.68213 0,0.35312 -0.106798,0.55638 -0.105075,0.20154 -0.308336,0.31351 -0.201538,0.11196 -0.4409726,0.11196 -0.3841284,0 -0.6218402,-0.24632 -0.2359892,-0.24633 -0.2359892,-0.70969 z m 0.3186716,0 q 0,0.3514 0.1533068,0.5271 0.1533069,0.17397 0.385851,0.17397 0.2308216,0 0.3841286,-0.1757 0.153307,-0.1757 0.153307,-0.53571 0,-0.33934 -0.15503,-0.51332 -0.153307,-0.1757 -0.3824056,-0.1757 -0.2325441,0 -0.385851,0.17398 -0.1533068,0.17398 -0.1533068,0.52538 z m 2.0963424,0.91467 -0.559829,-1.82935 h 0.320394 l 0.291111,1.05593 0.108521,0.39274 q 0.0069,-0.0293 0.09474,-0.37724 l 0.291111,-1.07143 h 0.318671 l 0.273885,1.06109 0.09129,0.34968 0.105076,-0.35312 0.313504,-1.05765 h 0.301446 l -0.571886,1.82935 h -0.322117 l -0.291111,-1.09554 -0.07062,-0.31178 -0.370348,1.40732 z m 3.462323,-0.58911 0.320394,0.0396 q -0.07579,0.28077 -0.280775,0.4358 -0.204984,0.15503 -0.523655,0.15503 -0.401354,0 -0.637343,-0.24632 -0.234267,-0.24805 -0.234267,-0.69419 0,-0.46164 0.237712,-0.71658 0.237711,-0.25494 0.616672,-0.25494 0.366903,0 0.599447,0.24977 0.232544,0.24977 0.232544,0.7028 0,0.0276 -0.0017,0.0827 h -1.364259 q 0.01723,0.30145 0.170532,0.46165 0.153307,0.16019 0.382406,0.16019 0.170533,0 0.291111,-0.0896 0.120578,-0.0896 0.191203,-0.28594 z m -1.018026,-0.50126 h 1.021471 q -0.02067,-0.23082 -0.117133,-0.34624 -0.14814,-0.17914 -0.384129,-0.17914 -0.213596,0 -0.360012,0.14297 -0.144695,0.14297 -0.160197,0.38241 z m 1.724271,1.09037 v -1.82935 h 0.279053 v 0.27733 q 0.106798,-0.19464 0.19637,-0.25666 0.0913,-0.062 0.199816,-0.062 0.156752,0 0.318672,0.0999 l -0.106798,0.28767 q -0.113689,-0.0672 -0.227377,-0.0672 -0.10163,0 -0.18259,0.062 -0.08096,0.0603 -0.115411,0.16881 -0.05168,0.16536 -0.05168,0.36173 v 0.95774 z"
         id="path5" />
      <path
         d="m 5.3319906,109.06231 v -2.22726 H 4.4999995 v -0.298 h 2.0016018 v 0.298 H 5.6661651 v 2.22726 z m 1.4727794,0 v -2.52526 h 0.3100587 v 0.90606 q 0.2170412,-0.25149 0.5477706,-0.25149 0.2032607,0 0.3531225,0.081 0.1498617,0.0792 0.2135961,0.22048 0.065457,0.14125 0.065457,0.40997 v 1.15928 h -0.310059 v -1.15928 q 0,-0.23254 -0.1016304,-0.33762 -0.099908,-0.1068 -0.2842205,-0.1068 -0.1378039,0 -0.2601049,0.0724 -0.1205784,0.0706 -0.1722549,0.19292 -0.051676,0.12231 -0.051676,0.33762 v 1.00081 z m 1.9585381,0 v -1.82935 H 9.042361 v 0.27733 q 0.106798,-0.19465 0.1963705,-0.25666 0.091295,-0.062 0.1998157,-0.062 0.156752,0 0.3186715,0.0999 l -0.106798,0.28766 q -0.1136882,-0.0672 -0.2273764,-0.0672 -0.1016304,0 -0.1825902,0.062 -0.08096,0.0603 -0.1154108,0.16881 -0.051676,0.16537 -0.051676,0.36174 v 0.95774 z m 2.4305169,-0.58912 0.320394,0.0396 q -0.07579,0.28078 -0.280776,0.43581 -0.204983,0.15503 -0.523655,0.15503 -0.401353,0 -0.637343,-0.24633 -0.2342663,-0.24805 -0.2342663,-0.69419 0,-0.46164 0.2377113,-0.71658 0.237712,-0.25493 0.616673,-0.25493 0.366903,0 0.599447,0.24977 0.232544,0.24977 0.232544,0.7028 0,0.0276 -0.0017,0.0827 h -1.364258 q 0.01722,0.30145 0.170532,0.46164 0.153307,0.1602 0.382406,0.1602 0.170532,0 0.291111,-0.0896 0.120578,-0.0896 0.191203,-0.28595 z m -1.018027,-0.50126 h 1.021472 q -0.02067,-0.23082 -0.117134,-0.34623 -0.148139,-0.17915 -0.384128,-0.17915 -0.213596,0 -0.360013,0.14298 -0.144694,0.14297 -0.160197,0.3824 z m 1.603693,0.54433 0.306614,-0.0482 q 0.02584,0.18431 0.142972,0.28249 0.118855,0.0982 0.330729,0.0982 0.213596,0 0.316949,-0.0861 0.103353,-0.0879 0.103353,-0.20498 0,-0.10508 -0.09129,-0.16537 -0.06374,-0.0413 -0.316949,-0.10507 -0.341065,-0.0861 -0.473701,-0.14814 -0.130914,-0.0637 -0.199816,-0.17398 -0.06718,-0.11196 -0.06718,-0.24632 0,-0.1223 0.05512,-0.22566 0.05684,-0.10507 0.153307,-0.17397 0.07235,-0.0534 0.196371,-0.0896 0.125746,-0.0379 0.268717,-0.0379 0.215319,0 0.377239,0.062 0.163642,0.062 0.241156,0.16881 0.07752,0.10507 0.106798,0.2825 l -0.303168,0.0413 q -0.02067,-0.14125 -0.120579,-0.22049 -0.09818,-0.0792 -0.279052,-0.0792 -0.213597,0 -0.304892,0.0706 -0.0913,0.0706 -0.0913,0.16536 0,0.0603 0.0379,0.10852 0.0379,0.05 0.118856,0.0827 0.04651,0.0172 0.273885,0.0792 0.329007,0.0879 0.458198,0.1447 0.130914,0.0551 0.204984,0.16192 0.07407,0.1068 0.07407,0.26527 0,0.15503 -0.0913,0.29283 -0.08957,0.13608 -0.260105,0.21188 -0.170532,0.0741 -0.385851,0.0741 -0.356567,0 -0.544325,-0.14814 -0.186035,-0.14814 -0.237712,-0.43925 z m 1.887914,0.54605 v -2.52526 h 0.310059 v 0.90606 q 0.217041,-0.25149 0.54777,-0.25149 0.203261,0 0.353123,0.081 0.149862,0.0792 0.213596,0.22048 0.06546,0.14125 0.06546,0.40997 v 1.15928 h -0.310059 v -1.15928 q 0,-0.23254 -0.10163,-0.33762 -0.09991,-0.1068 -0.284221,-0.1068 -0.137804,0 -0.260105,0.0724 -0.120578,0.0706 -0.172255,0.19292 -0.05168,0.12231 -0.05168,0.33762 v 1.00081 z m 1.846572,-0.91468 q 0,-0.50815 0.282498,-0.75275 0.235989,-0.20326 0.575331,-0.20326 0.377239,0 0.616673,0.24804 0.239434,0.24633 0.239434,0.68213 0,0.35313 -0.106798,0.55639 -0.105075,0.20154 -0.308336,0.3135 -0.201538,0.11197 -0.440973,0.11197 -0.384128,0 -0.62184,-0.24633 -0.235989,-0.24632 -0.235989,-0.70969 z m 0.318672,0 q 0,0.3514 0.153306,0.5271 0.153307,0.17398 0.385851,0.17398 0.230822,0 0.384129,-0.1757 0.153307,-0.1757 0.153307,-0.53571 0,-0.33935 -0.15503,-0.51332 -0.153307,-0.1757 -0.382406,-0.1757 -0.232544,0 -0.385851,0.17397 -0.153306,0.17398 -0.153306,0.52538 z m 1.751832,0.91468 v -2.52526 h 0.310059 v 2.52526 z m 1.977486,0 v -0.23083 q -0.173978,0.27217 -0.511597,0.27217 -0.218764,0 -0.403077,-0.12058 -0.18259,-0.12058 -0.28422,-0.3359 -0.09991,-0.21704 -0.09991,-0.49782 0,-0.27388 0.09129,-0.49609 0.09129,-0.22393 0.273885,-0.34279 0.18259,-0.11885 0.408244,-0.11885 0.165365,0 0.294556,0.0706 0.129191,0.0689 0.210151,0.18087 v -0.90606 h 0.308336 v 2.52526 z m -0.980131,-0.91296 q 0,0.3514 0.14814,0.52538 0.148139,0.17398 0.349677,0.17398 0.203261,0 0.34451,-0.16537 0.142971,-0.16708 0.142971,-0.50815 0,-0.37551 -0.144694,-0.55121 -0.144694,-0.1757 -0.356567,-0.1757 -0.206706,0 -0.346233,0.16881 -0.137804,0.16881 -0.137804,0.53226 z"
         id="path6" />
      <title
         id="title24">Lower Threshold label</title>
    </g>
    <path
       d="m 3.3215375,39 h 0.2673392 v 1.167198 q 0,0.304546 -0.068902,0.483691 -0.068902,0.179145 -0.2494247,0.292144 -0.1791448,0.111621 -0.4712887,0.111621 -0.2838757,0 -0.4643985,-0.09784 -0.1805229,-0.09784 -0.257693,-0.282498 -0.07717,-0.186035 -0.07717,-0.507117 V 39 H 2.267339 v 1.16582 q 0,0.263205 0.048231,0.388606 0.049609,0.124023 0.1681206,0.191547 0.1198892,0.06752 0.2921438,0.06752 0.2949,0 0.4203014,-0.13367 0.1254014,-0.133669 0.1254014,-0.514007 z m 1.226453,2.020203 V 39.238401 H 3.8823986 V 39 h 1.6012791 v 0.238401 h -0.668348 v 1.781802 z m 1.2016486,0 V 39 h 0.4023868 l 0.4781789,1.430403 q 0.066146,0.199815 0.096463,0.299034 0.034451,-0.110243 0.1074869,-0.323839 L 7.3178453,39 H 7.677513 v 2.020203 H 7.4198201 V 39.329351 L 6.8327763,41.020203 H 6.5916198 L 6.007332,39.300412 v 1.719791 z M 7.980681,40.413866 v -0.249424 h 0.7620545 v 0.249424 z m 1.1134544,0.606337 V 39 h 0.2673392 v 2.020203 z m 0.7069328,0 V 39.556727 H 10.02431 v 0.208084 q 0.161231,-0.241157 0.465777,-0.241157 0.132291,0 0.242534,0.04823 0.111621,0.04685 0.166743,0.124023 0.05512,0.07717 0.07717,0.183279 0.01378,0.0689 0.01378,0.241156 v 0.899859 h -0.248046 v -0.890212 q 0,-0.151584 -0.02894,-0.225998 -0.02894,-0.07579 -0.103353,-0.11989 -0.07304,-0.04548 -0.172255,-0.04548 -0.158474,0 -0.274229,0.100597 -0.114377,0.100597 -0.114377,0.381716 v 0.799262 z"
       id="guid-fdbe9815-a800-435d-9275-375cda2e6a0c"
       style="font-size:2.82222px;font-family:Arial;-inkscape-font-specification:'Arial, Normal';text-align:center;text-anchor:middle;stroke:#000000;stroke-width:0;stroke-linecap:round;stroke-linejoin:round;stroke-miterlimit:0"
       inkscape:label="UTM-In label"
       aria-label="UTM-In">
      <title
         id="title23">UTM-In label</title>
    </path>
    <path
       d="m 13.541576,39 h 0.267339 v 1.167198 q 0,0.304546 -0.0689,0.483691 -0.0689,0.179145 -0.249425,0.292144 -0.179145,0.111621 -0.471289,0.111621 -0.283875,0 -0.464398,-0.09784 -0.180523,-0.09784 -0.257693,-0.282498 -0.07717,-0.186035 -0.07717,-0.507117 V 39 h 0.267339 v 1.16582 q 0,0.263205 0.04823,0.388606 0.04961,0.124023 0.168121,0.191547 0.119889,0.06752 0.292144,0.06752 0.2949,0 0.420301,-0.13367 0.125401,-0.133669 0.125401,-0.514007 z m 1.226453,2.020203 V 39.238401 H 14.102437 V 39 h 1.60128 v 0.238401 h -0.668348 v 1.781802 z m 1.201649,0 V 39 h 0.402387 l 0.478179,1.430403 q 0.06614,0.199815 0.09646,0.299034 0.03445,-0.110243 0.107487,-0.323839 L 17.537884,39 h 0.359668 v 2.020203 h -0.257693 v -1.690852 l -0.587044,1.690852 h -0.241156 l -0.584288,-1.719791 v 1.719791 z m 2.76572,0 L 19.511233,39 h 0.28801 l 0.826822,2.020203 h -0.304546 l -0.235644,-0.611849 h -0.844737 l -0.221864,0.611849 z m 0.58291,-0.829579 h 0.684885 l -0.21084,-0.559483 q -0.09646,-0.254937 -0.143316,-0.418923 -0.03859,0.194303 -0.108865,0.38585 z m 2.031227,0.607715 0.03583,0.219108 q -0.104731,0.02205 -0.187413,0.02205 -0.135048,0 -0.209462,-0.04272 -0.07441,-0.04272 -0.104731,-0.111621 -0.03032,-0.07028 -0.03032,-0.293522 V 39.749652 H 20.67154 v -0.192925 h 0.181901 v -0.362424 l 0.246669,-0.148828 v 0.511252 h 0.249425 v 0.192925 H 21.10011 v 0.855761 q 0,0.106109 0.0124,0.136426 0.01378,0.03032 0.04272,0.04823 0.03032,0.01792 0.08544,0.01792 0.04134,0 0.108865,-0.0096 z m 0.784103,0 0.03583,0.219108 q -0.104731,0.02205 -0.187413,0.02205 -0.135048,0 -0.209462,-0.04272 -0.07441,-0.04272 -0.10473,-0.111621 -0.03032,-0.07028 -0.03032,-0.293522 v -0.841981 h -0.181901 v -0.192925 h 0.181901 v -0.362424 l 0.246668,-0.148828 v 0.511252 h 0.249425 v 0.192925 h -0.249425 v 0.855761 q 0,0.106109 0.0124,0.136426 0.01378,0.03032 0.04272,0.04823 0.03032,0.01792 0.08544,0.01792 0.04134,0 0.108865,-0.0096 z m 0.242535,0.221864 v -1.463476 h 0.223242 v 0.208084 q 0.16123,-0.241157 0.465776,-0.241157 0.132292,0 0.242535,0.04823 0.111621,0.04685 0.166742,0.124023 0.05512,0.07717 0.07717,0.183279 0.01378,0.0689 0.01378,0.241156 v 0.899859 h -0.248047 v -0.890212 q 0,-0.151584 -0.02894,-0.225998 -0.02894,-0.07579 -0.103352,-0.11989 -0.07304,-0.04548 -0.172255,-0.04548 -0.158474,0 -0.274229,0.100597 -0.114377,0.100597 -0.114377,0.381716 v 0.799262 z"
       id="guid-cd99f03b-3593-4875-8659-f716f60075d4"
       style="font-size:2.82222px;font-family:Arial;-inkscape-font-specification:'Arial, Normal';text-align:center;text-anchor:middle;stroke:#000000;stroke-width:0;stroke-linecap:round;stroke-linejoin:round;stroke-miterlimit:0"
       inkscape:label="UTM Attn label"
       aria-label="UTM Attn">
      <title
         id="title22">UTM Attn label</title>
    </path>
    <path
       d="M 1.9999998,62.020203 V 60 h 0.2673393 v 1.781802 h 0.9949428 v 0.238401 z m 1.8851549,0 V 60.238401 H 3.2195627 V 60 h 1.6012792 v 0.238401 h -0.668348 v 1.781802 z m 1.2016485,0 V 60 h 0.4023869 l 0.4781789,1.430403 q 0.066146,0.199815 0.096463,0.299034 0.034451,-0.110243 0.1074869,-0.323839 L 6.6550095,60 h 0.3596677 v 2.020203 H 6.7569843 V 60.329351 L 6.1699404,62.020203 H 5.9287839 L 5.3444962,60.300412 v 1.719791 z m 2.231042,-0.606337 v -0.249424 h 0.7620545 v 0.249424 z m 1.1134539,0.606337 V 60 h 0.2673392 v 2.020203 z m 0.7069333,0 v -1.463476 h 0.223242 v 0.208084 q 0.1612304,-0.241157 0.4657766,-0.241157 0.1322916,0 0.242535,0.04823 0.111621,0.04685 0.166742,0.124023 0.05512,0.07717 0.07717,0.183279 0.01378,0.0689 0.01378,0.241156 v 0.899859 h -0.248046 v -0.890212 q 0,-0.151584 -0.02894,-0.225998 -0.02894,-0.07579 -0.1033528,-0.11989 -0.073036,-0.04548 -0.1722546,-0.04548 -0.1584743,0 -0.2742294,0.100597 -0.1143771,0.100597 -0.1143771,0.381716 v 0.799262 z"
       id="guid-a2a06947-1339-484f-a2f7-26e055900ed5"
       style="font-size:2.82222px;font-family:Arial;-inkscape-font-specification:'Arial, Normal';text-align:center;text-anchor:middle;stroke:#000000;stroke-width:0;stroke-linecap:round;stroke-linejoin:round;stroke-miterlimit:0"
       inkscape:label="LTM-In label"
       aria-label="LTM-In">
      <title
         id="title21">LTM-In label</title>
    </path>
    <path
       d="M 12.4,62.020203 V 60 h 0.26734 v 1.781802 h 0.994942 v 0.238401 z m 1.885155,0 V 60.238401 H 13.619563 V 60 h 1.601279 v 0.238401 h -0.668348 v 1.781802 z m 1.201649,0 V 60 h 0.402387 l 0.478178,1.430403 q 0.06615,0.199815 0.09646,0.299034 0.03445,-0.110243 0.107487,-0.323839 L 17.05501,60 h 0.359668 v 2.020203 h -0.257693 v -1.690852 l -0.587044,1.690852 h -0.241157 l -0.584287,-1.719791 v 1.719791 z m 2.76572,0 L 19.028359,60 h 0.28801 l 0.826822,2.020203 H 19.838645 L 19.603001,61.408354 H 18.758264 L 18.5364,62.020203 Z m 0.58291,-0.829579 h 0.684884 l -0.210839,-0.559483 q -0.09646,-0.254937 -0.143316,-0.418923 -0.03859,0.194303 -0.108865,0.38585 z m 2.031227,0.607715 0.03583,0.219108 q -0.104731,0.02205 -0.187414,0.02205 -0.135047,0 -0.209461,-0.04272 -0.07441,-0.04272 -0.104731,-0.111621 -0.03032,-0.07028 -0.03032,-0.293522 v -0.841981 h -0.181901 v -0.192925 h 0.181901 v -0.362424 l 0.246669,-0.148828 v 0.511252 h 0.249425 v 0.192925 h -0.249425 v 0.855761 q 0,0.106109 0.0124,0.136426 0.01378,0.03032 0.04272,0.04823 0.03032,0.01792 0.08544,0.01792 0.04134,0 0.108865,-0.0096 z m 0.784102,0 0.03583,0.219108 q -0.10473,0.02205 -0.187413,0.02205 -0.135047,0 -0.209461,-0.04272 -0.07441,-0.04272 -0.104731,-0.111621 -0.03032,-0.07028 -0.03032,-0.293522 v -0.841981 h -0.181901 v -0.192925 h 0.181901 v -0.362424 l 0.246669,-0.148828 v 0.511252 h 0.249424 v 0.192925 h -0.249424 v 0.855761 q 0,0.106109 0.0124,0.136426 0.01378,0.03032 0.04272,0.04823 0.03032,0.01792 0.08544,0.01792 0.04134,0 0.108864,-0.0096 z m 0.242535,0.221864 v -1.463476 h 0.223242 v 0.208084 q 0.161231,-0.241157 0.465777,-0.241157 0.132291,0 0.242534,0.04823 0.111621,0.04685 0.166743,0.124023 0.05512,0.07717 0.07717,0.183279 0.01378,0.0689 0.01378,0.241156 v 0.899859 h -0.248046 v -0.890212 q 0,-0.151584 -0.02894,-0.225998 -0.02894,-0.07579 -0.103353,-0.11989 -0.07304,-0.04548 -0.172255,-0.04548 -0.158474,0 -0.274229,0.100597 -0.114377,0.100597 -0.114377,0.381716 v 0.799262 z"
       id="guid-c85f7996-52f3-4d9e-8f51-495c8dfe0b2f"
       style="font-size:2.82222px;font-family:Arial;-inkscape-font-specification:'Arial, Normal';text-align:center;text-anchor:middle;stroke:#000000;stroke-width:0;stroke-linecap:round;stroke-linejoin:round;stroke-miterlimit:0"
       inkscape:label="LTM Attn label"
       aria-label="LTM Attn">
      <title
         id="title20">LTM Attn label</title>
    </path>
  </g>
  <g
     inkscape:groupmode="layer"
     id="layer2"
     inkscape:label="components"
     style="display:inline">
    <circle
       style="display:inline;fill:#0000ff;fill-opacity:1;stroke:#0000ff;stroke-width:0;stroke-miterlimit:0;stroke-opacity:1"
       id="guid-a9c30311-ec54-40a1-9071-744922170655"
       cx="18.5"
       cy="14"
       inkscape:label="Output"
       r="2.5">
      <title
         id="title15">Output</title>
    </circle>
    <circle
       style="display:inline;fill:#ff0000;fill-opacity:1;stroke:#ff0000;stroke-width:0;stroke-miterlimit:0;stroke-opacity:1"
       id="guid-d7bc7031-b5cb-44bb-b936-e21ebeb97e3e"
       cx="12.7"
       cy="97.199997"
       inkscape:label="Lower  Threshold"
       r="2.5">
      <title
         id="title13">Lower  Threshold</title>
    </circle>
    <circle
       style="display:inline;fill:#ff0000;fill-opacity:1;stroke:#ff0000;stroke-width:0;stroke-miterlimit:0;stroke-opacity:1"
       id="guid-0b8c06c9-0cee-4fb4-9205-9088f2582c7e"
       cx="12.7"
       cy="76.5"
       inkscape:label="Upper Threshold"
       r="2.5">
      <title
         id="title12">Upper Threshold</title>
    </circle>
    <ellipse
       style="display:inline;fill:#ff0000;fill-opacity:1;stroke:#ff0000;stroke-width:0;stroke-miterlimit:0;stroke-opacity:1"
       id="guid-d9e53a4f-69fc-46a7-9c1e-b13b52292838"
       cx="18.500158"
       cy="52.5"
       inkscape:label="LTM Attn"
       rx="2.500025"
       ry="2.5">
      <title
         id="title4">LTM Attn</title>
    </ellipse>
    <circle
       style="display:inline;fill:#00ff00;fill-opacity:1;stroke:#00ff00;stroke-width:0;stroke-miterlimit:0;stroke-opacity:1"
       id="guid-86ad5fe8-16fa-40cc-887b-735f5e6b3c3c"
       cx="6.5000134"
       cy="52.5"
       inkscape:label="LTM-In"
       r="2.5">
      <title
         id="title3">LTM-In</title>
    </circle>
    <ellipse
       style="display:inline;fill:#ff0000;fill-opacity:1;stroke:#ff0000;stroke-width:0;stroke-miterlimit:0;stroke-opacity:1"
       id="guid-24c9da2d-774a-45c3-90bf-a176ca527638"
       cx="18.500158"
       cy="32.5"
       inkscape:label="UTM Attn"
       rx="2.500025"
       ry="2.5">
      <title
         id="title28">UTM Attn</title>
    </ellipse>
    <ellipse
       style="display:inline;fill:#00ff00;fill-opacity:1;stroke:#00ff00;stroke-width:0;stroke-miterlimit:0;stroke-opacity:1"
       id="guif-b36c6462-3c82-4ef8-8787-623bff0e9651"
       cx="6.5000381"
       cy="32.5"
       inkscape:label="UTM-In"
       rx="2.500025"
       ry="2.5">
      <title
         id="title2">UTM-In</title>
    </ellipse>
    <circle
       style="display:inline;fill:#00ff00;fill-opacity:1;stroke:#00ff00;stroke-width:0;stroke-miterlimit:0;stroke-opacity:1"
       id="guid-0c6a422c-8084-4159-921d-08edca51f80f"
       cx="7"
       cy="14"
       inkscape:label="V-Oct In"
       r="2.5">
      <title
         id="title1">V-Oct In</title>
    </circle>
  </g>
  <metadata
     id="metadata8">
    <rdf:RDF>
      <cc:Work
         rdf:about="">
        <dc:title>STS Template Medium</dc:title>
        <dc:date>Jan 2, 2024</dc:date>
        <dc:creator>
          <cc:Agent>
            <dc:title>Marinko Laban</dc:title>
          </cc:Agent>
        </dc:creator>
        <dc:rights>
          <cc:Agent>
            <dc:title>(C) SmarTazz Studio</dc:title>
          </cc:Agent>
        </dc:rights>
      </cc:Work>
    </rdf:RDF>
  </metadata>
</svg>
