<?xml version="1.0" encoding="UTF-8" standalone="no"?>
<!-- Created with Inkscape (http://www.inkscape.org/) -->

<svg
   width="25.4mm"
   height="128.5mm"
   viewBox="0 0 25.4 128.5"
   version="1.1"
   id="svg1"
   inkscape:version="1.3.2 (091e20e, 2023-11-25, custom)"
   sodipodi:docname="D-Octer.svg"
   xmlns:inkscape="http://www.inkscape.org/namespaces/inkscape"
   xmlns:sodipodi="http://sodipodi.sourceforge.net/DTD/sodipodi-0.dtd"
   xmlns:xlink="http://www.w3.org/1999/xlink"
   xmlns="http://www.w3.org/2000/svg"
   xmlns:svg="http://www.w3.org/2000/svg">
  <title
     id="title8">STS Splitter</title>
  <sodipodi:namedview
     id="namedview1"
     pagecolor="#ffffff"
     bordercolor="#000000"
     borderopacity="0.25"
     inkscape:showpageshadow="2"
     inkscape:pageopacity="0.0"
     inkscape:pagecheckerboard="false"
     inkscape:deskcolor="#d1d1d1"
     inkscape:document-units="mm"
     inkscape:zoom="1.6760422"
     inkscape:cx="48.029817"
     inkscape:cy="242.83398"
     inkscape:window-width="1920"
     inkscape:window-height="1010"
     inkscape:window-x="-6"
     inkscape:window-y="-6"
     inkscape:window-maximized="1"
     inkscape:current-layer="layer1" />
  <defs
     id="defs1">
    <inkscape:path-effect
       effect="bspline"
       id="path-effect6"
       is_visible="true"
       lpeversion="1.3"
       weight="33.333333"
       steps="2"
       helper_size="0"
       apply_no_weight="true"
       apply_with_weight="true"
       only_selected="false"
       uniform="false" />
    <inkscape:path-effect
       effect="bspline"
       id="path-effect5"
       is_visible="true"
       lpeversion="1.3"
       weight="33.333333"
       steps="2"
       helper_size="0"
       apply_no_weight="true"
       apply_with_weight="true"
       only_selected="false"
       uniform="false" />
    <inkscape:path-effect
       effect="bspline"
       id="path-effect2"
       is_visible="true"
       lpeversion="1.3"
       weight="33.333333"
       steps="2"
       helper_size="0"
       apply_no_weight="true"
       apply_with_weight="true"
       only_selected="false"
       uniform="false" />
    <inkscape:path-effect
       effect="bspline"
       id="path-effect1"
       is_visible="true"
       lpeversion="1.3"
       weight="33.333333"
       steps="2"
       helper_size="0"
       apply_no_weight="true"
       apply_with_weight="true"
       only_selected="false"
       uniform="false" />
    <linearGradient
       id="linearGradient1"
       inkscape:collect="always">
      <stop
         style="stop-color:#00ff00;stop-opacity:1;"
         offset="0"
         id="stop1" />
      <stop
         style="stop-color:#00ff00;stop-opacity:0;"
         offset="1"
         id="stop2" />
    </linearGradient>
    <linearGradient
       inkscape:collect="always"
       xlink:href="#linearGradient1"
       id="linearGradient2"
       x1="7.6999998"
       y1="20.585909"
       x2="17.7"
       y2="20.585909"
       gradientUnits="userSpaceOnUse" />
  </defs>
  <g
     inkscape:label="Layer 1"
     inkscape:groupmode="layer"
     id="layer1"
     style="display:inline">
    <rect
       style="display:inline;fill:#93b5cf;fill-opacity:1;stroke:#97c6c1;stroke-width:0.065;stroke-linejoin:miter;stroke-miterlimit:0;stroke-dasharray:none;stroke-opacity:1;paint-order:normal"
       id="guid-133bc867-ad6a-494a-bd77-ef0c326a6449"
       width="25.334633"
       height="128.43465"
       x="0.03268335"
       y="0.032683566"
       ry="0"
       inkscape:transform-center-x="0.13475906"
       inkscape:transform-center-y="11.262005"
       inkscape:label="Panel" />
    <rect
       style="display:inline;fill:#a0a0a0;stroke:#4f4f4f;stroke-width:0.2;stroke-miterlimit:0;stroke-opacity:1;stroke-dasharray:none;fill-opacity:1"
       id="OutputBlock"
       width="13"
       height="67.198601"
       x="6.1"
       y="31.924915"
       ry="3.0973301"
       inkscape:label="Output Block">
      <desc
         id="desc9">Output Block</desc>
      <title
         id="title9">Output Block</title>
    </rect>
    <rect
       style="display:inline;font-size:3.175px;font-family:'Comic Sans MS';-inkscape-font-specification:'Comic Sans MS, Normal';text-align:center;text-anchor:middle;fill:#c0c0c0;fill-opacity:1;stroke:#505050;stroke-width:0.2;stroke-miterlimit:0;stroke-opacity:1;stroke-dasharray:none"
       id="InputBlock"
       width="13"
       height="10.604429"
       x="6.1"
       y="15.292705"
       ry="2.5673883"
       inkscape:label="Input Block">
      <desc
         id="desc7">Input Block</desc>
      <title
         id="title7">Input Block</title>
    </rect>
    <!-- aria-label="			 STS Multiplier		" -->
    <g
       id="guid-836c62ac-2363-4971-88ce-5a5d0a73b10b"
       style="display:inline;font-size:3.175px;font-family:'Comic Sans MS';-inkscape-font-specification:'Comic Sans MS, Normal';text-align:center;text-anchor:middle;stroke:#000000;stroke-width:0;stroke-miterlimit:0"
       inkscape:label="Brand"
       aria-label="Sm@rTAZZ&#10;Studio"
       transform="translate(0,-4.5766487)">
      <path
         d="m 3.5270624,121.95735 q -0.00155,-0.0651 0.043408,-0.10542 0.046509,-0.0419 0.1131713,-0.0419 0.075964,0 0.1333252,0.0868 0.079065,0.11783 0.1410767,0.15968 0.1317749,0.0868 0.3829224,0.0868 0.2402954,0 0.4464843,-0.10387 0.2635498,-0.13332 0.2635498,-0.37052 0,-0.19534 -0.2216919,-0.30851 -0.1875854,-0.0977 -0.4635376,-0.10542 -0.2449462,-0.009 -0.4170288,-0.10697 -0.2201416,-0.12557 -0.2201416,-0.35967 0,-0.27595 0.3131592,-0.50384 0.2992066,-0.21549 0.6185669,-0.21549 0.1503784,0 0.3395142,0.0512 0.2511474,0.0667 0.2511474,0.17053 0,0.13643 -0.1395264,0.13643 -0.062012,0 -0.217041,-0.0326 -0.1550293,-0.0341 -0.2402954,-0.0326 -0.2418457,0.003 -0.4108276,0.11938 -0.1736328,0.11937 -0.1736328,0.2899 0,0.12868 0.2294433,0.18139 0.085266,0.0202 0.3302124,0.0372 0.3550171,0.0264 0.5550049,0.22324 0.1829346,0.17984 0.1829346,0.43874 0,0.36897 -0.3410645,0.58911 -0.2961059,0.19069 -0.6867797,0.19069 -0.2837036,0 -0.5193482,-0.10853 -0.2883545,-0.13332 -0.2930053,-0.36586 z m 4.1780395,0.51469 q -0.127124,0 -0.1488281,-0.13487 -0.027905,-0.17053 -0.055811,-0.48059 l -0.05271,-0.48059 q -0.015503,-0.10697 -0.05271,-0.20929 -0.05271,-0.13953 -0.1147217,-0.13953 -0.057361,0 -0.2139404,0.0977 -0.1488281,0.0899 -0.1953369,0.14418 -0.00155,0.14572 0.00775,0.29145 l 0.046509,0.41393 q 0.029456,0.24495 0.029456,0.40463 0,0.0682 -0.043408,0.11162 -0.041858,0.045 -0.1085205,0.045 -0.066663,0 -0.1100708,-0.045 -0.041858,-0.0434 -0.041858,-0.11162 0,-0.18759 -0.038757,-0.55346 -0.037207,-0.36742 -0.037207,-0.555 0,-0.16434 -0.046509,-0.2558 -0.1085205,0.0496 -0.2201416,0.16123 l -0.1829345,0.20464 q -0.024805,0.0372 -0.079065,0.0977 0,0.093 -0.017053,0.2744 -0.017053,0.18138 -0.017053,0.2682 0,0.0465 0.013953,0.13022 0.015503,0.0837 0.015503,0.12093 0,0.0636 -0.048059,0.10697 -0.046509,0.0434 -0.1100708,0.0434 -0.1751831,0 -0.1751831,-0.39842 0,-0.093 0.017053,-0.2775 0.017053,-0.18449 0.017053,-0.27751 0,-0.0822 -0.015503,-0.24649 -0.013953,-0.16433 -0.013953,-0.24805 0,-0.35192 0.1581299,-0.35192 0.060461,0 0.1100708,0.0527 0.05116,0.0527 0.05116,0.11472 0,0.0295 -0.00775,0.0915 -0.00775,0.062 -0.00775,0.0946 l 0.0031,0.16278 q 0.080615,-0.16588 0.2371949,-0.29921 0.1565796,-0.13487 0.2666504,-0.13487 0.2433959,0 0.3348632,0.24184 0.085266,-0.11317 0.2030884,-0.16898 0.1178223,-0.0574 0.269751,-0.0574 0.2588989,0 0.3534668,0.27905 0.018604,0.0558 0.063562,0.43564 0.043408,0.26665 0.1116211,0.88831 0.00465,0.062 -0.041858,0.10542 -0.046509,0.0434 -0.1131714,0.0434 z m 2.3068361,-0.76739 q -0.1643313,0 -0.2837039,-0.0481 -0.1193725,-0.0481 -0.1922363,-0.14263 -0.083716,0.0822 -0.1643311,0.12403 -0.079065,0.0418 -0.1550293,0.0418 -0.1720825,0 -0.3255615,-0.13952 -0.1519287,-0.14108 -0.1519287,-0.30851 0,-0.28681 0.2247925,-0.524 0.2263428,-0.2372 0.513147,-0.2372 0.065112,0 0.1085205,0.0481 0.043408,0.0481 0.043408,0.11628 0,0.093 -0.1550293,0.13797 -0.206189,0.0589 -0.2914551,0.13488 -0.1255737,0.11007 -0.1255737,0.32401 0,0.045 0.041858,0.0868 0.048059,0.0465 0.1193725,0.0434 0.1348755,-0.006 0.2495972,-0.25114 0.1038696,-0.21394 0.1844849,-0.21394 0.065112,0 0.1054199,0.048 0.040308,0.0481 0.040308,0.11783 0,0.031 -0.010852,0.093 -0.0093,0.062 -0.0093,0.093 0,0.10077 0.086816,0.12713 0.034106,0.0109 0.1472784,0.0109 0.21239,0 0.297656,-0.10387 0.07752,-0.093 0.07752,-0.30851 0,-0.37982 -0.305408,-0.62012 -0.2790531,-0.22014 -0.6666264,-0.22014 -0.4511352,0 -0.7069335,0.34107 -0.2309937,0.30385 -0.2309937,0.76429 0,0.42478 0.2713013,0.71624 0.2821533,0.30385 0.7255371,0.30385 0.1255737,0 0.2837036,-0.0481 l 0.2713016,-0.10077 q 0.06821,-0.0248 0.08837,-0.0248 0.06356,0 0.11007,0.0512 0.04651,0.0496 0.04651,0.11627 0,0.14728 -0.3302125,0.23875 -0.2495971,0.0682 -0.4666381,0.0682 -0.2185913,0 -0.4480347,-0.0853 -0.2278931,-0.0837 -0.3906738,-0.22479 -0.4805908,-0.41548 -0.4805908,-1.01079 0,-0.59531 0.3286621,-0.99529 0.3488159,-0.42788 0.9286254,-0.42788 0.5239991,0 0.8976204,0.31471 0.392224,0.33331 0.392224,0.84336 0,0.34882 -0.170533,0.5364 -0.178283,0.19379 -0.522448,0.19379 z m 2.353345,-0.50695 q -0.01085,0.19379 -0.15503,0.19379 -0.133325,0 -0.133325,-0.15348 0,-0.0295 -0.0047,-0.10852 l -0.0047,-0.13023 q -0.244946,0.0295 -0.392224,0.13798 -0.137976,0.10077 -0.229443,0.30386 l 0.0031,0.84956 q 0,0.15658 -0.153479,0.15658 -0.136426,0 -0.136426,-0.15658 v -1.08831 q 0,-0.0512 0.0031,-0.15348 0.0047,-0.10232 0.0047,-0.15348 0,-0.15657 0.136426,-0.15657 0.151929,0 0.153479,0.25734 0.297656,-0.2868 0.660425,-0.2868 0.125574,0 0.187585,0.0946 0.06201,0.0946 0.06201,0.28525 0,0.0806 -0.0015,0.10852 z m 2.215368,-0.81235 q -0.114722,0 -0.353467,-0.0186 -0.232544,-0.0171 -0.353467,-0.0155 h -0.11007 q 0.0047,0.21394 0.04186,0.69453 0.03411,0.44804 0.03411,0.69608 0,0.0543 0.01085,0.16434 0.01085,0.11007 0.01085,0.16588 0,0.10542 -0.03411,0.18138 -0.04341,0.10232 -0.134876,0.10232 -0.06201,0 -0.111621,-0.0434 -0.04961,-0.0434 -0.04961,-0.11162 0,-0.0232 0.0078,-0.0698 0.0078,-0.0465 0.0078,-0.0698 0,-0.076 -0.01085,-0.2279 -0.0093,-0.15193 -0.0093,-0.22944 0,-0.22169 -0.03566,-0.62322 -0.03721,-0.43408 -0.04186,-0.62322 l -0.141077,0.002 q -0.339514,0 -0.5333,-0.0496 -0.125574,-0.0326 -0.125574,-0.15347 0,-0.0636 0.04031,-0.11163 0.04651,-0.0543 0.119372,-0.0496 0.05426,0.003 0.248047,0.0279 0.155029,0.0186 0.251147,0.0186 0.09302,0 0.282154,-0.003 0.189136,-0.005 0.282153,-0.005 0.119373,0 0.353467,0.0171 0.235644,0.017 0.355017,0.017 0.06666,0 0.111621,0.0465 0.04496,0.045 0.04496,0.11317 0,0.0667 -0.04496,0.11317 -0.04496,0.045 -0.111621,0.045 z m 1.984375,2.00453 q -0.142627,0 -0.248047,-0.36587 -0.04031,-0.13953 -0.100769,-0.48834 -0.15813,0.0217 -0.413928,0.0775 l -0.412378,0.0853 q -0.07752,0.20309 -0.2651,0.59376 -0.04961,0.0868 -0.134876,0.0868 -0.06201,0 -0.111621,-0.045 -0.04806,-0.045 -0.04806,-0.11162 0,-0.0744 0.234094,-0.56586 -0.02636,-0.0403 -0.02636,-0.093 0,-0.12557 0.151929,-0.16123 0.176733,-0.33176 0.446484,-0.76274 0.36742,-0.58756 0.457337,-0.58756 0.122473,0 0.167431,0.17053 l 0.09767,0.5209 0.230994,1.07745 0.08837,0.24495 q 0.04496,0.12557 0.04496,0.16743 0,0.0667 -0.04806,0.11162 -0.04806,0.045 -0.110071,0.045 z m -0.547254,-1.77199 -0.443383,0.71469 q 0.187585,-0.0481 0.568957,-0.11627 z m 2.894398,-0.21394 -0.20929,0.14263 q -0.282153,0.21859 -0.638721,0.69918 l -0.544153,0.7922 q -0.03876,0.0589 -0.07596,0.10852 l 0.603064,-0.0232 q 0.395325,-0.0186 0.604614,-0.0186 0.204639,0 0.302307,0.0186 0.125574,0.0248 0.130225,0.12712 0.0031,0.076 -0.04961,0.12092 -0.04651,0.0388 -0.116272,0.0388 -0.04496,0 -0.134876,-0.006 -0.08992,-0.005 -0.134875,-0.005 -0.235645,0 -0.708484,0.0109 -0.471289,0.0124 -0.706934,0.0124 -0.178283,0 -0.178283,-0.15658 0,-0.10232 0.09612,-0.25734 l 0.165881,-0.231 0.559656,-0.77825 q 0.345715,-0.45733 0.643371,-0.71003 l -0.542602,0.031 H 17.35103 q -0.01705,0 -0.05116,0.003 -0.03256,0.002 -0.04806,0.002 -0.164331,0 -0.164331,-0.15968 0,-0.10542 0.08372,-0.13953 0.05116,-0.0217 0.168982,-0.0217 0.10697,0 0.31781,0.0233 0.21239,0.0217 0.31936,0.0217 0.119372,0 0.356567,-0.0155 0.238745,-0.0155 0.359668,-0.0155 0.398426,0 0.398426,0.15038 0,0.10232 -0.179834,0.23564 z m 2.201416,0 -0.20929,0.14263 q -0.282153,0.21859 -0.638721,0.69918 l -0.544152,0.7922 q -0.03876,0.0589 -0.07597,0.10852 l 0.603064,-0.0232 q 0.395325,-0.0186 0.604614,-0.0186 0.204639,0 0.302307,0.0186 0.125574,0.0248 0.130225,0.12712 0.0031,0.076 -0.04961,0.12092 -0.04651,0.0388 -0.116272,0.0388 -0.04496,0 -0.134876,-0.006 -0.08992,-0.005 -0.134875,-0.005 -0.235645,0 -0.708484,0.0109 -0.471289,0.0124 -0.706934,0.0124 -0.178283,0 -0.178283,-0.15658 0,-0.10232 0.09612,-0.25734 l 0.165881,-0.231 0.559656,-0.77825 q 0.345715,-0.45733 0.643371,-0.71003 l -0.542602,0.031 h -0.626318 q -0.01705,0 -0.05116,0.003 -0.03256,0.002 -0.04806,0.002 -0.164331,0 -0.164331,-0.15968 0,-0.10542 0.08372,-0.13953 0.05116,-0.0217 0.168982,-0.0217 0.10697,0 0.31781,0.0233 0.21239,0.0217 0.31936,0.0217 0.119372,0 0.356567,-0.0155 0.238745,-0.0155 0.359668,-0.0155 0.398426,0 0.398426,0.15038 0,0.10232 -0.179834,0.23564 z"
         id="path3" />
      <path
         d="m 7.6570428,125.9261 q -0.00155,-0.0651 0.043408,-0.10542 0.046509,-0.0419 0.1131714,-0.0419 0.075964,0 0.1333251,0.0868 0.079065,0.11783 0.1410767,0.15968 0.1317749,0.0868 0.3829224,0.0868 0.2402954,0 0.4464843,-0.10387 0.2635498,-0.13332 0.2635498,-0.37052 0,-0.19534 -0.2216919,-0.30851 -0.1875854,-0.0977 -0.4635376,-0.10542 -0.2449462,-0.009 -0.4170288,-0.10697 -0.2201416,-0.12557 -0.2201416,-0.35967 0,-0.27595 0.3131592,-0.50384 0.2992066,-0.21549 0.6185669,-0.21549 0.1503784,0 0.3395142,0.0512 0.2511474,0.0667 0.2511474,0.17053 0,0.13643 -0.1395263,0.13643 -0.062012,0 -0.2170411,-0.0326 -0.1550293,-0.0341 -0.2402954,-0.0326 -0.2418457,0.003 -0.4108276,0.11938 -0.1736328,0.11937 -0.1736328,0.2899 0,0.12868 0.2294434,0.18139 0.085266,0.0202 0.3302123,0.0372 0.3550171,0.0264 0.5550049,0.22324 0.1829346,0.17984 0.1829346,0.43874 0,0.36897 -0.3410645,0.58911 -0.2961059,0.19069 -0.6867797,0.19069 -0.2837036,0 -0.5193482,-0.10853 -0.2883545,-0.13332 -0.2930053,-0.36586 z m 3.2463132,-0.93483 q -0.03256,0 -0.07751,-0.003 -0.04341,-0.003 -0.07597,-0.003 -0.03566,0 -0.21084,0.0233 l 0.02946,0.91623 0.0015,0.0682 0.0016,0.0791 q 0.0062,0.33952 -0.162781,0.33952 -0.06201,0 -0.108521,-0.0403 -0.04496,-0.0403 -0.04496,-0.10077 0,-0.0589 0.0047,-0.17673 0.0047,-0.11783 0.0047,-0.17674 l -0.03101,-0.90537 q -0.113172,-0.005 -0.3441654,-0.0264 -0.137976,-0.0186 -0.137976,-0.15348 0,-0.0682 0.041858,-0.11317 0.041858,-0.045 0.1069702,-0.045 l 0.3255612,0.0263 q 0,-0.0791 -0.0078,-0.21084 -0.0062,-0.13332 -0.0062,-0.19223 0,-0.0651 0.04496,-0.10697 0.04496,-0.0434 0.110071,-0.0434 0.139526,0 0.162781,0.22789 0.0047,0.0574 0.0047,0.13798 l -0.0031,0.0899 -0.0015,0.0961 q 0.192236,-0.0248 0.220141,-0.0248 0.161231,0 0.21084,0.0155 0.09457,0.031 0.09457,0.14573 0,0.0682 -0.04341,0.11317 -0.04186,0.0434 -0.108521,0.0434 z m 1.723926,0.41548 q 0,0.11162 0.0015,0.33486 0.0016,0.22324 0.0016,0.33486 0,0.0341 0.0046,0.10387 0.0062,0.0698 0.0062,0.10387 0,0.0667 -0.04496,0.10852 -0.04496,0.0434 -0.110071,0.0434 -0.119372,0 -0.151928,-0.14728 -0.193787,0.10077 -0.446485,0.10077 -0.203088,0 -0.336413,-0.0899 -0.147278,-0.0992 -0.175183,-0.28991 -0.06046,-0.41083 -0.06046,-0.73174 0,-0.21239 0.04651,-0.48369 0.0217,-0.13487 0.147278,-0.13487 0.06666,0 0.111621,0.0434 0.04496,0.0419 0.04496,0.10852 0,0.0713 -0.02325,0.2279 -0.0217,0.15658 -0.0217,0.23874 0,0.2589 0.01705,0.44339 0.01705,0.18448 0.05116,0.2961 0.05116,0.0279 0.100769,0.0434 0.04961,0.014 0.09767,0.014 0.20774,0 0.438733,-0.0667 l -0.0015,-0.31471 -0.0031,-0.30076 q 0,-0.33486 0.02946,-0.58136 0.01705,-0.14262 0.150378,-0.14262 0.06666,0 0.111621,0.0434 0.04496,0.0434 0.04186,0.10852 z m 1.813843,-0.46354 q -0.0186,0.22789 -0.0186,0.45579 0,0.51624 0.04806,0.77979 0.0031,0.0217 0.0031,0.0357 0,0.062 -0.04341,0.10232 -0.04341,0.0403 -0.100769,0.0403 -0.09612,0 -0.141077,-0.13953 -0.111621,0.0822 -0.232544,0.12402 -0.119372,0.0419 -0.249597,0.0419 -0.320911,0 -0.531751,-0.21394 -0.217041,-0.21859 -0.217041,-0.5612 0,-0.41393 0.218592,-0.66353 0.220141,-0.2496 0.570508,-0.2496 0.179834,0 0.277502,0.0558 l 0.145728,0.10697 q 0.0217,-0.65267 0.05116,-0.87901 0.02015,-0.13798 0.141077,-0.13798 0.141076,0 0.141076,0.15038 0,0.21549 -0.06201,0.95188 z m -0.68833,0.0403 q -0.26045,0 -0.390674,0.15503 -0.130225,0.15348 -0.130225,0.46353 0,0.19999 0.141077,0.34417 0.142627,0.14418 0.333313,0.14418 0.130225,0 0.220142,-0.0481 0.05271,-0.0279 0.172082,-0.12868 0.02325,-0.0202 0.04496,-0.0481 l -0.0047,-0.2682 0.0015,-0.17983 0.0031,-0.18294 q -0.05891,-0.12557 -0.15658,-0.18758 -0.09767,-0.0636 -0.234094,-0.0636 z m 1.421619,-0.63407 q -0.07442,0 -0.128675,-0.0527 -0.05426,-0.0527 -0.05426,-0.12713 0,-0.0744 0.05426,-0.12712 0.05426,-0.0527 0.128675,-0.0527 0.07441,0 0.127124,0.0527 0.05426,0.0527 0.05426,0.12712 0,0.0744 -0.05426,0.12713 -0.05271,0.0527 -0.127124,0.0527 z m 0.06976,1.25884 q 0,0.093 0.0047,0.27905 0.0062,0.18448 0.0062,0.2775 0,0.0682 -0.04186,0.11162 -0.04186,0.0434 -0.110071,0.0434 -0.06666,0 -0.110071,-0.0434 -0.04186,-0.0434 -0.04186,-0.11162 0,-0.093 -0.0062,-0.2775 -0.0047,-0.18604 -0.0047,-0.27905 0,-0.14573 0.0155,-0.36277 0.0155,-0.21859 0.0155,-0.36432 0,-0.0698 0.04186,-0.11317 0.04341,-0.0434 0.110071,-0.0434 0.06666,0 0.10852,0.0434 0.04341,0.0434 0.04341,0.11317 0,0.14573 -0.0155,0.36432 -0.0155,0.21704 -0.0155,0.36277 z m 1.105358,0.7953 q -0.260449,0 -0.448034,-0.19224 -0.20929,-0.21394 -0.220142,-0.57516 -0.0093,-0.35037 0.176733,-0.61702 0.217041,-0.31471 0.604615,-0.31471 0.310058,0 0.469738,0.28371 0.127124,0.22944 0.122474,0.5519 -0.0047,0.34417 -0.179834,0.58756 -0.198438,0.27596 -0.52555,0.27596 z m 0.09302,-1.38442 q -0.227893,-0.002 -0.355017,0.21705 -0.100769,0.17518 -0.100769,0.39997 0,0.22479 0.122473,0.35037 0.102319,0.10387 0.240295,0.10387 0.161231,0 0.277503,-0.11783 0.131775,-0.13022 0.139526,-0.35191 0.0217,-0.59997 -0.324011,-0.60152 z"
         id="path4" />
      <desc
         id="desc6">Brand</desc>
      <title
         id="title6">Brand</title>
    </g>
    <path
       d="m 8.6816651,97.750921 q -0.4857574,0 -0.823376,-0.29111 Q 7.5,97.149754 7.5,96.660551 q 0,-0.596 0.3531215,-1.08348 0.3944626,-0.540879 0.9835726,-0.540879 0.566717,0 0.842324,0.254937 0.2876648,0.265271 0.2876648,0.837156 0,0.596 -0.3238382,1.074867 -0.3720695,0.547769 -0.9611796,0.547769 z m 0.155029,-2.361607 q -0.4220233,0 -0.7148558,0.4203 -0.2704394,0.38585 -0.2704394,0.850937 0,0.332451 0.2463238,0.540879 0.2359886,0.19637 0.5839424,0.19637 0.4185782,0 0.6907402,-0.422023 0.2428787,-0.377237 0.2428787,-0.847492 0,-0.411688 -0.1843122,-0.578775 -0.1756995,-0.160196 -0.5942777,-0.160196 z m 2.2978739,2.365053 q -0.353122,0 -0.58911,-0.213596 -0.248047,-0.223931 -0.248047,-0.590833 0,-0.349676 0.232544,-0.721745 0.258381,-0.413411 0.58222,-0.413411 0.168809,0 0.377237,0.07924 0.263549,0.10163 0.263549,0.248046 0,0.06546 -0.04306,0.117133 -0.04306,0.04995 -0.106797,0.04995 -0.04995,0 -0.08785,-0.02928 -0.03617,-0.03101 -0.07062,-0.06029 -0.101631,-0.08096 -0.332451,-0.08096 -0.1757,0 -0.347954,0.313503 -0.156752,0.287665 -0.156752,0.497815 0,0.227376 0.155029,0.35829 0.144694,0.1223 0.37207,0.1223 0.103352,0 0.220485,-0.05512 l 0.199815,-0.106798 q 0.05168,-0.02756 0.07407,-0.02756 0.06373,0 0.110243,0.05168 0.04651,0.04995 0.04651,0.11541 0,0.125746 -0.265272,0.242879 -0.232543,0.103353 -0.385849,0.103353 z m 2.185908,-1.576128 q -0.03617,0 -0.08613,-0.0034 -0.04823,-0.0034 -0.08441,-0.0034 -0.03962,0 -0.234266,0.02584 l 0.03273,1.018023 0.0017,0.07579 0.0017,0.08785 q 0.0069,0.377237 -0.180867,0.377237 -0.0689,0 -0.120579,-0.04479 -0.04995,-0.04479 -0.04995,-0.111965 0,-0.06546 0.0052,-0.19637 0.0052,-0.130914 0.0052,-0.19637 l -0.03445,-1.005966 q -0.125746,-0.0052 -0.382405,-0.02928 -0.153306,-0.02067 -0.153306,-0.170532 0,-0.07579 0.04651,-0.125746 0.04651,-0.04995 0.118855,-0.04995 l 0.361734,0.02928 q 0,-0.08785 -0.0086,-0.234266 -0.0069,-0.148139 -0.0069,-0.213596 0,-0.07235 0.04995,-0.118855 0.04995,-0.04823 0.122301,-0.04823 0.155029,0 0.180867,0.253214 0.0052,0.06373 0.0052,0.153307 l -0.0034,0.09991 -0.0017,0.106798 q 0.213595,-0.02756 0.244601,-0.02756 0.179145,0 0.234266,0.01723 0.105075,0.03445 0.105075,0.161919 0,0.07579 -0.04823,0.125746 -0.04651,0.04823 -0.120578,0.04823 z m 1.843122,0.360011 q 0,0.06374 -0.04306,0.111966 -0.04134,0.04651 -0.105075,0.04651 -0.02067,0 -0.06201,-0.0069 -0.04134,-0.0069 -0.06373,-0.0069 l -0.172255,0.0034 q -0.105075,0.0034 -0.172254,0 v 0.404798 q 0,0.155029 -0.153307,0.155029 -0.07579,0 -0.11541,-0.0379 -0.0379,-0.03962 -0.0379,-0.117133 l -0.0017,-0.198092 -0.0017,-0.199816 q -0.208428,0.01206 -0.294555,0.01206 -0.266995,0 -0.266995,-0.158474 0,-0.111965 0.09474,-0.139526 0.03273,-0.0086 0.172255,-0.0086 0.08613,0 0.294555,-0.01206 l -0.0017,-0.201538 q 0,-0.156752 0.0155,-0.217041 0.01723,-0.06201 0.0534,-0.09302 0.03617,-0.03101 0.09302,-0.03101 0.06546,0 0.110243,0.04306 0.04651,0.04134 0.04651,0.106798 0,0.02928 -0.0069,0.09302 -0.0052,0.06373 -0.0052,0.09646 l 0.0017,0.19637 0.12919,0.0052 q 0.03445,0 0.105076,-0.0034 0.07062,-0.0052 0.105075,-0.0052 0.282497,0 0.282497,0.161919 z m 1.858625,1.111041 q -0.04306,0 -0.1223,-0.02584 -0.07752,-0.02756 -0.118856,-0.02756 -0.08785,0 -0.263549,0.01034 -0.1757,0.01033 -0.265272,0.01033 -0.06718,0 -0.199815,0.01722 -0.130913,0.01723 -0.198093,0.01723 -0.01895,0 -0.05512,-0.0069 -0.03617,-0.0069 -0.05512,-0.0069 -0.118856,0 -0.155029,-0.115411 -0.02067,-0.06029 -0.02067,-0.206705 0,-0.401353 0.218763,-0.645954 0.09991,-0.111966 0.539156,-0.413411 0.246324,-0.168809 0.329006,-0.263549 0.148139,-0.165364 0.148139,-0.387572 0,-0.110243 -0.142971,-0.19637 -0.125746,-0.07751 -0.246324,-0.07751 -0.158474,0 -0.301445,0.09129 l -0.246324,0.192925 q -0.07407,0.05857 -0.118855,0.05857 -0.177422,0 -0.177422,-0.141248 0,-0.08096 0.06546,-0.139526 0.201538,-0.18948 0.349677,-0.273885 Q 16.193687,95 16.414172,95 q 0.279052,0 0.497815,0.151584 0.244602,0.170531 0.244602,0.437526 0,0.175699 -0.04995,0.323838 -0.04995,0.148139 -0.151584,0.270439 -0.129191,0.155029 -0.437526,0.346232 -0.323838,0.20326 -0.425469,0.308335 -0.191202,0.198093 -0.187757,0.48059 l 0.354844,-0.03273 q 0.365179,-0.02067 0.521931,-0.02067 0.130913,0 0.248046,0.04479 0.155029,0.06029 0.155029,0.167087 0,0.06718 -0.04651,0.120578 -0.04651,0.05168 -0.115411,0.05168 z"
       id="Oct_2"
       style="font-size:3.52777px;font-family:'Comic Sans MS';-inkscape-font-specification:'Comic Sans MS, Normal';text-align:center;text-anchor:middle;display:inline;stroke:#000000;stroke-width:0;stroke-miterlimit:0"
       inkscape:label="Oct+2"
       aria-label="Oct+2">
      <title
         id="title16">Octave + 2</title>
    </path>
    <path
       d="m 9.1816649,81.290523 q -0.4857574,0 -0.823376,-0.29111 -0.3582891,-0.310058 -0.3582891,-0.79926 0,-0.596001 0.3531215,-1.083481 0.3944626,-0.540878 0.9835726,-0.540878 0.566717,0 0.8423241,0.254936 0.287665,0.265272 0.287665,0.837156 0,0.596001 -0.323839,1.074868 -0.372069,0.547769 -0.9611791,0.547769 z m 0.155029,-2.361608 q -0.4220233,0 -0.7148557,0.420301 -0.2704395,0.38585 -0.2704395,0.850937 0,0.332451 0.2463238,0.540878 0.2359886,0.19637 0.5839424,0.19637 0.4185782,0 0.6907402,-0.422023 0.2428789,-0.377237 0.2428789,-0.847492 0,-0.411688 -0.1843124,-0.578774 -0.1756995,-0.160197 -0.5942777,-0.160197 z m 2.2978731,2.365053 q -0.353121,0 -0.58911,-0.213595 -0.248046,-0.223931 -0.248046,-0.590833 0,-0.349676 0.232544,-0.721746 0.258381,-0.413411 0.582219,-0.413411 0.16881,0 0.377238,0.07924 0.263549,0.101631 0.263549,0.248047 0,0.06546 -0.04306,0.117133 -0.04306,0.04995 -0.106798,0.04995 -0.04995,0 -0.08785,-0.02928 -0.03617,-0.031 -0.07062,-0.06029 -0.10163,-0.08096 -0.332451,-0.08096 -0.175699,0 -0.347954,0.313503 -0.156751,0.287665 -0.156751,0.497815 0,0.227376 0.155029,0.358289 0.144694,0.122301 0.372069,0.122301 0.103353,0 0.220486,-0.05512 l 0.199815,-0.106797 q 0.05168,-0.02756 0.07407,-0.02756 0.06373,0 0.110242,0.05168 0.04651,0.04995 0.04651,0.115411 0,0.125745 -0.265272,0.242878 -0.232543,0.103353 -0.38585,0.103353 z m 2.185909,-1.576128 q -0.03617,0 -0.08613,-0.0034 -0.04823,-0.0034 -0.08441,-0.0034 -0.03962,0 -0.234266,0.02584 l 0.03273,1.018024 0.0017,0.07579 0.0017,0.08785 q 0.0069,0.377238 -0.180867,0.377238 -0.0689,0 -0.120578,-0.04479 -0.04995,-0.04479 -0.04995,-0.111965 0,-0.06546 0.0052,-0.19637 0.0052,-0.130913 0.0052,-0.19637 l -0.03445,-1.005966 q -0.125746,-0.0052 -0.382405,-0.02928 -0.153306,-0.02067 -0.153306,-0.170532 0,-0.07579 0.04651,-0.125746 0.04651,-0.04995 0.118856,-0.04995 l 0.361734,0.02928 q 0,-0.08785 -0.0086,-0.234266 -0.0069,-0.148139 -0.0069,-0.213595 0,-0.07235 0.04995,-0.118856 0.04995,-0.04823 0.122301,-0.04823 0.155029,0 0.180867,0.253214 0.0052,0.06373 0.0052,0.153306 l -0.0034,0.09991 -0.0017,0.106797 q 0.213595,-0.02756 0.244601,-0.02756 0.179145,0 0.234266,0.01723 0.105075,0.03445 0.105075,0.161919 0,0.07579 -0.04823,0.125746 -0.04651,0.04823 -0.120578,0.04823 z m 1.843122,0.360012 q 0,0.06373 -0.04306,0.111965 -0.04134,0.04651 -0.105075,0.04651 -0.02067,0 -0.06201,-0.0069 -0.04134,-0.0069 -0.06373,-0.0069 l -0.172254,0.0034 q -0.105075,0.0034 -0.172254,0 v 0.404798 q 0,0.155028 -0.153307,0.155028 -0.07579,0 -0.11541,-0.03789 -0.0379,-0.03962 -0.0379,-0.117133 l -0.0017,-0.198093 -0.0017,-0.199815 q -0.208428,0.01206 -0.294555,0.01206 -0.266995,0 -0.266995,-0.158474 0,-0.111966 0.09474,-0.139526 0.03273,-0.0086 0.172255,-0.0086 0.08613,0 0.294555,-0.01206 l -0.0017,-0.201538 q 0,-0.156751 0.0155,-0.21704 0.01722,-0.06201 0.0534,-0.09302 0.03617,-0.031 0.09302,-0.031 0.06546,0 0.110243,0.04306 0.04651,0.04134 0.04651,0.106798 0,0.02928 -0.0069,0.09302 -0.0052,0.06374 -0.0052,0.09646 l 0.0017,0.19637 0.129191,0.0052 q 0.03445,0 0.105075,-0.0034 0.07062,-0.0052 0.105076,-0.0052 0.282497,0 0.282497,0.161919 z m 1.334972,1.109318 h -0.342787 l -0.341063,-0.0017 q -0.120578,0 -0.16881,-0.0155 -0.08785,-0.03101 -0.08785,-0.130914 0,-0.173976 0.270439,-0.173976 l 0.08268,0.0017 0.07062,0.0034 q 0,-0.08268 -0.0155,-0.244601 -0.01378,-0.161919 -0.01378,-0.242879 0,-0.218763 0.03962,-0.664902 0.0379,-0.439248 0.03617,-0.666624 -0.230821,0.179144 -0.294555,0.179144 -0.0689,0 -0.120578,-0.05168 -0.04995,-0.05168 -0.04995,-0.118856 0,-0.08096 0.148139,-0.19637 0.09302,-0.06546 0.263549,-0.21015 0.151584,-0.153306 0.289388,-0.153306 0.11541,0 0.11541,0.132636 0,0.03962 -0.01034,0.118855 -0.01033,0.07752 -0.01033,0.117133 0,0.05684 0.0052,0.172254 0.0069,0.115411 0.0069,0.172255 0,0.19637 -0.04134,0.585665 -0.04134,0.389295 -0.04134,0.583942 0,0.09991 0.01378,0.242879 0.01378,0.142971 0.0155,0.234266 l 0.180868,-0.0034 q 0.07235,0 0.118855,0.04823 0.04823,0.04651 0.04823,0.117133 0,0.07235 -0.04823,0.118856 -0.04651,0.04651 -0.118855,0.04651 z"
       id="Oct_1"
       style="display:inline;font-size:3.52777px;font-family:'Comic Sans MS';-inkscape-font-specification:'Comic Sans MS, Normal';text-align:center;text-anchor:middle;stroke:#000000;stroke-width:0;stroke-miterlimit:0"
       inkscape:label="Oct+1"
       aria-label="Oct+1">
      <title
         id="title17">Octave + 1</title>
    </path>
    <path
       d="m 9.1816652,64.290523 q -0.4857574,0 -0.823376,-0.29111 -0.3582891,-0.310058 -0.3582891,-0.79926 0,-0.596001 0.3531215,-1.083481 0.3944625,-0.540878 0.9835726,-0.540878 0.5667169,0 0.8423238,0.254936 0.287665,0.265272 0.287665,0.837156 0,0.596001 -0.323838,1.074868 -0.3720697,0.547769 -0.9611798,0.547769 z m 0.155029,-2.361608 q -0.4220233,0 -0.7148558,0.420301 -0.2704394,0.38585 -0.2704394,0.850937 0,0.332451 0.2463238,0.540878 0.2359885,0.19637 0.5839424,0.19637 0.4185782,0 0.6907402,-0.422023 0.2428786,-0.377237 0.2428786,-0.847492 0,-0.411688 -0.1843122,-0.578774 -0.1756994,-0.160197 -0.5942776,-0.160197 z m 2.2978738,2.365053 q -0.353122,0 -0.58911,-0.213595 -0.248047,-0.223931 -0.248047,-0.590833 0,-0.349676 0.232544,-0.721746 0.258381,-0.413411 0.58222,-0.413411 0.168809,0 0.377237,0.07924 0.263549,0.101631 0.263549,0.248047 0,0.06546 -0.04306,0.117133 -0.04306,0.04995 -0.106797,0.04995 -0.04995,0 -0.08785,-0.02928 -0.03617,-0.03101 -0.07062,-0.06029 -0.10163,-0.08096 -0.332451,-0.08096 -0.1757,0 -0.347954,0.313503 -0.156752,0.287665 -0.156752,0.497815 0,0.227376 0.155029,0.358289 0.144694,0.122301 0.37207,0.122301 0.103352,0 0.220485,-0.05512 l 0.199815,-0.106797 q 0.05168,-0.02756 0.07407,-0.02756 0.06373,0 0.110243,0.05168 0.04651,0.04995 0.04651,0.115411 0,0.125745 -0.265271,0.242878 -0.232544,0.103353 -0.38585,0.103353 z m 2.185908,-1.576128 q -0.03617,0 -0.08613,-0.0034 -0.04823,-0.0034 -0.08441,-0.0034 -0.03962,0 -0.234266,0.02584 l 0.03273,1.018024 0.0017,0.07579 0.0017,0.08785 q 0.0069,0.377238 -0.180867,0.377238 -0.0689,0 -0.120578,-0.04479 -0.04995,-0.04479 -0.04995,-0.111965 0,-0.06546 0.0052,-0.19637 0.0052,-0.130913 0.0052,-0.19637 l -0.03445,-1.005966 q -0.125746,-0.0052 -0.382405,-0.02928 -0.153306,-0.02067 -0.153306,-0.170532 0,-0.07579 0.04651,-0.125746 0.04651,-0.04995 0.118855,-0.04995 l 0.361734,0.02928 q 0,-0.08785 -0.0086,-0.234266 -0.0069,-0.148139 -0.0069,-0.213595 0,-0.07235 0.04995,-0.118856 0.04995,-0.04823 0.122301,-0.04823 0.155029,0 0.180867,0.253214 0.0052,0.06373 0.0052,0.153306 l -0.0034,0.09991 -0.0017,0.106797 q 0.213596,-0.02756 0.244601,-0.02756 0.179145,0 0.234266,0.01722 0.105075,0.03445 0.105075,0.161919 0,0.07579 -0.04823,0.125746 -0.04651,0.04823 -0.120578,0.04823 z m 1.440047,0.649399 q -0.234266,0.02412 -0.833711,0.02412 -0.144694,0 -0.144694,-0.134359 0,-0.134358 0.144694,-0.134358 0.13608,0 0.408242,-0.01206 0.272162,-0.01206 0.408243,-0.01206 0.153307,0 0.153307,0.134359 0,0.118855 -0.136081,0.134358 z m 1.512393,0.819931 H 16.43013 l -0.341064,-0.0017 q -0.120578,0 -0.168809,-0.0155 -0.08785,-0.03101 -0.08785,-0.130914 0,-0.173976 0.27044,-0.173976 l 0.08268,0.0017 0.07062,0.0034 q 0,-0.08268 -0.0155,-0.244601 -0.01378,-0.161919 -0.01378,-0.242879 0,-0.218763 0.03962,-0.664902 0.0379,-0.439248 0.03617,-0.666624 -0.230821,0.179144 -0.294555,0.179144 -0.0689,0 -0.120578,-0.05168 -0.04995,-0.05168 -0.04995,-0.118856 0,-0.08096 0.148139,-0.19637 0.09302,-0.06546 0.263549,-0.21015 0.151584,-0.153306 0.289387,-0.153306 0.115411,0 0.115411,0.132636 0,0.03962 -0.01034,0.118855 -0.01034,0.07751 -0.01034,0.117133 0,0.05684 0.0052,0.172254 0.0069,0.115411 0.0069,0.172255 0,0.19637 -0.04134,0.585665 -0.04134,0.389295 -0.04134,0.583942 0,0.09991 0.01378,0.242879 0.01378,0.142971 0.0155,0.234266 l 0.180867,-0.0034 q 0.07235,0 0.118856,0.04823 0.04823,0.04651 0.04823,0.117133 0,0.07235 -0.04823,0.118856 -0.04651,0.04651 -0.118856,0.04651 z"
       id="Oct-1"
       style="display:inline;font-size:3.52777px;font-family:'Comic Sans MS';-inkscape-font-specification:'Comic Sans MS, Normal';text-align:center;text-anchor:middle;stroke:#000000;stroke-width:0;stroke-miterlimit:0"
       inkscape:label="Oct-1"
       aria-label="Oct-1">
      <title
         id="title19">Octave - 1</title>
    </path>
    <path
       d="m 8.6818273,46.749695 q -0.485745,0 -0.823355,-0.291102 -0.35828,-0.31005 -0.35828,-0.79924 0,-0.595985 0.3531125,-1.083453 0.3944525,-0.540865 0.9835475,-0.540865 0.5667025,0 0.8423025,0.25493 0.2876575,0.265265 0.2876575,0.837135 0,0.595985 -0.32383,1.07484 -0.37206,0.547755 -0.961155,0.547755 z m 0.155025,-2.361547 q -0.4220125,0 -0.7148375,0.42029 -0.2704325,0.38584 -0.2704325,0.850915 0,0.332442 0.2463175,0.540865 0.2359825,0.196365 0.5839275,0.196365 0.4185675,0 0.6907225,-0.422013 0.2428725,-0.377227 0.2428725,-0.84747 0,-0.411677 -0.1843075,-0.57876 -0.175695,-0.160192 -0.5942625,-0.160192 z m 2.2978147,2.364992 q -0.353112,0 -0.589095,-0.21359 -0.24804,-0.223925 -0.24804,-0.590817 0,-0.349668 0.232538,-0.721728 0.258375,-0.4134 0.582205,-0.4134 0.168805,0 0.377227,0.07923 0.263543,0.101628 0.263543,0.24804 0,0.06546 -0.04306,0.11713 -0.04306,0.04995 -0.106795,0.04995 -0.04995,0 -0.08785,-0.02928 -0.03617,-0.03101 -0.07062,-0.06029 -0.101627,-0.08096 -0.332442,-0.08096 -0.175695,0 -0.347945,0.313495 -0.156748,0.287658 -0.156748,0.497803 0,0.22737 0.155025,0.35828 0.14469,0.122297 0.37206,0.122297 0.10335,0 0.22048,-0.05512 l 0.19981,-0.106795 q 0.05167,-0.02756 0.07407,-0.02756 0.06373,0 0.11024,0.05168 0.04651,0.04995 0.04651,0.115408 0,0.125742 -0.265265,0.242872 -0.232537,0.10335 -0.38584,0.10335 z m 2.185853,-1.576087 q -0.03617,0 -0.08613,-0.0034 -0.04823,-0.0034 -0.0844,-0.0034 -0.03962,0 -0.23426,0.02584 l 0.03273,1.017998 0.0017,0.07579 0.0017,0.08785 q 0.0069,0.377228 -0.180863,0.377228 -0.0689,0 -0.120575,-0.04478 -0.04995,-0.04479 -0.04995,-0.111963 0,-0.06546 0.0052,-0.196365 0.0052,-0.13091 0.0052,-0.196365 l -0.03445,-1.00594 q -0.125743,-0.0052 -0.382395,-0.02928 -0.153303,-0.02067 -0.153303,-0.170528 0,-0.07579 0.04651,-0.125742 0.04651,-0.04995 0.118852,-0.04995 l 0.361725,0.02928 q 0,-0.08785 -0.0086,-0.23426 -0.0069,-0.148135 -0.0069,-0.21359 0,-0.07234 0.04995,-0.118853 0.04995,-0.04823 0.122298,-0.04823 0.155025,0 0.180862,0.253208 0.0052,0.06373 0.0052,0.153302 l -0.0034,0.09991 -0.0017,0.106795 q 0.21359,-0.02756 0.244595,-0.02756 0.17914,0 0.23426,0.01722 0.105073,0.03445 0.105073,0.161915 0,0.07579 -0.04823,0.125743 -0.04651,0.04823 -0.120575,0.04823 z m 1.44001,0.649382 q -0.23426,0.02412 -0.83369,0.02412 -0.14469,0 -0.14469,-0.134355 0,-0.134355 0.14469,-0.134355 0.136078,0 0.408233,-0.01206 0.272155,-0.01206 0.408232,-0.01206 0.153303,0 0.153303,0.134355 0,0.118853 -0.136078,0.134355 z m 2.035995,0.821633 q -0.04306,0 -0.122298,-0.02584 -0.07751,-0.02756 -0.118852,-0.02756 -0.08785,0 -0.263543,0.01033 -0.175695,0.01034 -0.265265,0.01034 -0.06718,0 -0.19981,0.01722 -0.13091,0.01723 -0.198087,0.01723 -0.01895,0 -0.05512,-0.0069 -0.03617,-0.0069 -0.05512,-0.0069 -0.118853,0 -0.155025,-0.115407 -0.02067,-0.06029 -0.02067,-0.2067 0,-0.401343 0.218757,-0.645938 0.0999,-0.111962 0.539143,-0.4134 0.246317,-0.168805 0.328997,-0.263542 0.148135,-0.16536 0.148135,-0.387563 0,-0.11024 -0.142967,-0.196365 -0.125743,-0.07751 -0.246318,-0.07751 -0.15847,0 -0.301437,0.09129 l -0.246318,0.19292 q -0.07407,0.05856 -0.118852,0.05856 -0.177418,0 -0.177418,-0.141245 0,-0.08096 0.06546,-0.139522 0.201533,-0.189475 0.349668,-0.273878 0.208422,-0.118852 0.428902,-0.118852 0.279045,0 0.497803,0.15158 0.244595,0.170527 0.244595,0.437515 0,0.175695 -0.04995,0.32383 -0.04995,0.148135 -0.15158,0.270432 -0.129187,0.155025 -0.437515,0.346223 -0.32383,0.203255 -0.425457,0.308327 -0.191198,0.198088 -0.187753,0.480578 l 0.354835,-0.03273 q 0.36517,-0.02067 0.521918,-0.02067 0.13091,0 0.24804,0.04478 0.155025,0.06029 0.155025,0.167083 0,0.06718 -0.04651,0.120575 -0.04651,0.05168 -0.115407,0.05168 z"
       id="Oct-2"
       style="font-size:3.52768px;font-family:'Comic Sans MS';-inkscape-font-specification:'Comic Sans MS, Normal';text-align:center;text-anchor:middle;stroke:#000000;stroke-width:0;stroke-miterlimit:0"
       inkscape:label="Oct-2"
       transform="scale(0.99997417,1.0000258)"
       aria-label="Oct-2">
      <title
         id="title20">Octave - 2</title>
    </path>
    <path
       style="display:inline;font-size:3.52778px;font-family:'Comic Sans MS';-inkscape-font-specification:'Comic Sans MS, Normal';text-align:center;text-anchor:middle;stroke:#000000;stroke-width:0;stroke-miterlimit:0"
       d="m 10.499879,27.282497 q -0.106798,0.160197 -0.173977,0.335897 l -0.130914,0.377238 -0.4633658,1.252293 q -0.08096,0.220487 -0.1894804,0.430638 -0.055122,0.103353 -0.1550294,0.103353 -0.1326363,0 -0.1860353,-0.134359 -0.2084284,-0.523655 -0.4633656,-1.507231 l -0.1360814,-0.4737 q -0.1016304,-0.358291 -0.1016304,-0.468534 0,-0.07751 0.055122,-0.127468 0.049954,-0.04651 0.1205784,-0.04651 0.1309137,0 0.1688098,0.141249 l 0.063734,0.299723 0.1653647,0.585667 q 0.1653647,0.640788 0.3221166,1.104154 l 0.010335,-0.02756 0.4616431,-1.25057 0.1464165,-0.422025 q 0.09818,-0.254937 0.208429,-0.385851 0.05684,-0.0689 0.134358,-0.0689 0.0689,0 0.122301,0.0534 0.05512,0.05168 0.05512,0.125746 0,0.05168 -0.03445,0.103353 z m 1.212674,1.543404 q -0.234266,0.02412 -0.833713,0.02412 -0.144694,0 -0.144694,-0.134359 0,-0.134359 0.144694,-0.134359 0.136081,0 0.408244,-0.01206 0.272162,-0.01206 0.408244,-0.01206 0.153307,0 0.153307,0.134359 0,0.118856 -0.136082,0.134359 z m 1.948203,-1.328085 q -0.110243,0 -0.27733,-0.02239 l -0.277331,-0.03617 q -0.03962,0.501262 -0.03962,0.957737 0,0.120579 0.0069,0.298001 0.0069,0.177423 0.0069,0.298001 0,0.16192 -0.01206,0.294556 l 0.542603,-0.0069 q 0.07235,0 0.120578,0.05168 0.04995,0.04995 0.04995,0.124024 0,0.07579 -0.04995,0.127468 -0.04823,0.04995 -0.120578,0.04995 -0.09646,0 -0.289388,0.0052 -0.192926,0.0034 -0.289388,0.0034 -0.113689,0 -0.341065,0.03101 -0.225654,0.03273 -0.341065,0.03273 -0.07235,0 -0.122301,-0.05168 -0.04823,-0.04995 -0.04823,-0.124024 0,-0.07407 0.04823,-0.125746 0.04995,-0.05168 0.122301,-0.05168 0.111966,0 0.370348,-0.03617 0.01723,-0.139526 0.01723,-0.318671 0,-0.118856 -0.01206,-0.289388 -0.01033,-0.172255 -0.01033,-0.289389 0,-0.397908 0.04823,-0.99391 l -0.223931,0.0069 -0.223932,0.0052 q -0.07407,0 -0.124023,-0.04995 -0.04995,-0.04995 -0.04995,-0.127469 0,-0.160197 0.161919,-0.1757 0.139527,-0.01378 0.521933,-0.01378 0.342787,0 0.859552,0.07407 0.153307,0.02239 0.153307,0.184313 0,0.08096 -0.05857,0.129191 -0.05168,0.03962 -0.118856,0.03962 z m 1.839682,2.268597 q -0.148139,0 -0.167087,-0.16192 l -0.04823,-0.377238 q -0.02412,-0.201538 -0.02412,-0.377238 0,-0.04823 0.0052,-0.163643 0.0069,-0.11541 0.0069,-0.163642 0,-0.37207 -0.137804,-0.37207 -0.192925,0 -0.368625,0.229099 -0.158475,0.208428 -0.248047,0.5271 -0.0034,0.06718 -0.0155,0.16881 -0.01034,0.08613 -0.01034,0.167087 0,0.05168 0.01034,0.155029 0.01033,0.103353 0.01033,0.15503 0,0.07751 -0.04823,0.125746 -0.04651,0.04823 -0.120579,0.04823 -0.07579,0 -0.122301,-0.04823 -0.04651,-0.04823 -0.04651,-0.125746 0,-0.05168 -0.01206,-0.15503 -0.01034,-0.103353 -0.01034,-0.155029 0,-0.177423 0.02412,-0.490927 0.02584,-0.315226 0.02584,-0.492649 0,-0.05512 -0.0069,-0.163642 -0.0052,-0.10852 -0.0052,-0.163642 0,-0.07407 0.04823,-0.120578 0.04995,-0.04823 0.122301,-0.04823 0.158474,0 0.173977,0.223932 l 0.0052,0.201538 q 0.289388,-0.385851 0.594279,-0.385851 0.275608,0 0.384128,0.242879 0.07407,0.16192 0.08096,0.478869 v 0.173977 l -0.0017,0.160197 q 0,0.142972 0.03617,0.370348 0.0379,0.225654 0.0379,0.366903 0,0.07579 -0.04995,0.122301 -0.04823,0.04823 -0.122301,0.04823 z"
       id="V-In"
       inkscape:label="V-In"
       aria-label="V-In">
      <title
         id="title21">V/Oct Input</title>
    </path>
    <path
       style="display:inline;font-weight:bold;font-size:3.52778px;font-family:'Comic Sans MS';-inkscape-font-specification:'Comic Sans MS, Bold';text-align:center;text-anchor:middle;stroke:#000000;stroke-width:0;stroke-linecap:round;stroke-linejoin:round;stroke-miterlimit:0"
       d="M 6.2394338,9.1975119 Q 6.1378035,9.1957893 6.0689015,9.1286099 5.9999996,9.059708 5.9999996,8.9632453 q 0,-0.1722549 0.015503,-0.5167647 0.017225,-0.3445098 0.017225,-0.5167647 0,-0.1912029 -0.00861,-0.5736087 -0.00689,-0.3824059 -0.00689,-0.5736088 0,-0.09474 0.091295,-0.1877578 0.091295,-0.09474 0.1946481,-0.09474 0.056844,0 0.2859431,0.106798 0.266995,0.1274686 0.316949,0.1429716 0.5047068,0.1636421 0.8612744,0.5064293 0.4254696,0.4082441 0.4254696,0.9026156 0,0.298001 -0.1464167,0.5667186 -0.1464167,0.2738853 -0.4013539,0.43925 -0.2859431,0.1860352 -0.8044303,0.1860352 -0.1257461,0 -0.2893882,-0.036174 Q 6.3531221,9.2698589 6.2394338,9.1975119 Z M 7.2075063,7.4267317 Q 7.0404191,7.3216562 6.490926,7.0960023 v 1.7053234 q 0.067179,0.043064 0.1533068,0.065457 0.08785,0.020671 0.1946481,0.020671 0.3720705,0 0.5339901,-0.1033529 0.1533068,-0.098185 0.2428794,-0.2669951 0.091295,-0.1688098 0.091295,-0.3514 0,-0.4271921 -0.4995392,-0.7389734 z m 2.5976038,1.0111362 q -0.2377118,0.017225 -0.8457715,0.017225 -0.1067981,0 -0.1877579,-0.048231 -0.09474,-0.058567 -0.09474,-0.1584745 0,-0.099908 0.09474,-0.1584745 0.08096,-0.049954 0.1877579,-0.049954 0.1360813,0 0.408244,-0.00689 0.2721628,-0.00861 0.4082441,-0.00861 0.1067981,0 0.1877579,0.043064 0.1033524,0.055122 0.1033524,0.1636422 0,0.1877578 -0.2618269,0.2067059 z m 2.0016019,0.847494 q -0.509875,0 -0.868165,-0.2928333 -0.382406,-0.3135039 -0.382406,-0.8113205 0,-0.5856666 0.366903,-1.0679803 0.411689,-0.5426029 1.036975,-0.5426029 0.601169,0 0.900893,0.2756078 0.299723,0.2756078 0.299723,0.828546 0,0.5856666 -0.337619,1.0610901 -0.389296,0.5494931 -1.016304,0.5494931 z m 0.153307,-2.2479263 q -0.384129,0 -0.658014,0.3720706 -0.25666,0.3479549 -0.25666,0.7717019 0,0.2859431 0.222209,0.4650882 0.213596,0.1722548 0.539158,0.1722548 0.378961,0 0.632175,-0.3720705 0.232544,-0.3393421 0.232544,-0.7717019 0,-0.3617353 -0.161919,-0.5029843 -0.15503,-0.1343588 -0.549493,-0.1343588 z m 2.27721,2.2513714 q -0.378961,0 -0.635621,-0.2153186 -0.27044,-0.2273765 -0.27044,-0.599447 0,-0.3427872 0.242879,-0.7079676 0.275608,-0.4168568 0.640788,-0.4168568 0.179145,0 0.41858,0.096463 0.291111,0.1188559 0.291111,0.2738853 0,0.084405 -0.05857,0.1498617 -0.06201,0.070625 -0.160197,0.070625 -0.07407,0 -0.179145,-0.079237 -0.103353,-0.08096 -0.311782,-0.08096 -0.132636,0 -0.287665,0.2601049 -0.148139,0.2514921 -0.148139,0.4340823 0,0.1808676 0.130913,0.2842205 0.124024,0.098185 0.327285,0.098185 0.11541,0 0.282498,-0.08785 0.167087,-0.08785 0.211873,-0.08785 0.09302,0 0.158475,0.067179 0.06718,0.067179 0.06718,0.1533069 0,0.1343588 -0.292833,0.2687176 -0.261828,0.1188559 -0.427192,0.1188559 z m 2.235868,-1.4951724 q -0.03617,0 -0.08613,-0.00172 -0.04823,-0.00345 -0.0844,-0.00345 -0.07062,0 -0.163643,0.01378 0.03101,0.6959098 0.03101,0.9095058 0,0.022393 0.0017,0.084405 0.0017,0.060289 0.0017,0.098185 0,0.3961862 -0.249769,0.3961862 -0.09474,0 -0.163642,-0.058567 -0.07579,-0.062012 -0.07579,-0.1550294 0,-0.062012 0.0052,-0.1860353 0.0052,-0.1240235 0.0052,-0.1860353 0,-0.2084284 -0.03101,-0.8922803 -0.106798,-0.00517 -0.323839,-0.027561 -0.215319,-0.024116 -0.215319,-0.2239313 0,-0.096463 0.06546,-0.1636422 0.06546,-0.067179 0.16881,-0.067179 0.06373,0 0.292833,0.020671 -0.0017,-0.055122 -0.0086,-0.1825902 -0.0069,-0.1102431 -0.0069,-0.1705323 0,-0.096463 0.07062,-0.160197 0.07062,-0.063734 0.170532,-0.063734 0.254937,0 0.254937,0.4289146 l -0.0034,0.141249 q 0.106798,-0.015503 0.173978,-0.015503 0.198093,0 0.27044,0.025838 0.137804,0.048231 0.137804,0.210151 0,0.098185 -0.06718,0.1636421 -0.06718,0.065457 -0.170532,0.065457 z m 1.314304,1.4658891 q -0.411689,0 -0.673516,-0.1963706 -0.289389,-0.2170412 -0.289389,-0.6115049 0,-0.4358048 0.229099,-0.7372509 0.254938,-0.3341744 0.687297,-0.3341744 0.299724,0 0.497817,0.096463 0.260105,0.1274686 0.260105,0.3961862 0,0.1894804 -0.211874,0.3358971 -0.09646,0.067179 -0.387573,0.1963705 l -0.580499,0.2566598 q 0.08268,0.089572 0.199816,0.1343588 0.117133,0.044786 0.268717,0.044786 0.230822,0 0.391019,-0.09474 0.142971,-0.084405 0.229099,-0.084405 0.179145,0 0.179145,0.1739774 0,0.1963706 -0.287666,0.3203941 -0.241157,0.103353 -0.511597,0.103353 z m -0.04651,-1.462444 q -0.160197,0 -0.273885,0.106798 -0.113688,0.106798 -0.18259,0.3203941 0.194648,-0.084405 0.387573,-0.1670872 0.232544,-0.1050755 0.370348,-0.1946481 -0.11541,-0.065457 -0.301446,-0.065457 z m 2.594159,0.141249 q -0.0155,0.26355 -0.239434,0.26355 -0.217041,0 -0.217041,-0.2239314 l -0.0086,-0.1739774 q -0.387574,0.062012 -0.554661,0.3979088 l 0.0017,0.866442 q 0,0.098185 -0.06718,0.1619196 -0.06718,0.065457 -0.170532,0.065457 -0.106798,0 -0.165365,-0.068902 -0.05512,-0.062012 -0.05512,-0.1584745 V 7.9400512 q 0,-0.053399 0.0034,-0.1584745 0.0034,-0.106798 0.0034,-0.160197 0,-0.096463 0.05684,-0.1601971 0.05857,-0.065457 0.165365,-0.065457 0.191203,0 0.227376,0.1963706 0.304891,-0.2273765 0.676962,-0.2273765 0.34451,0 0.34451,0.458198 0,0.08785 -0.0017,0.1154108 z"
       id="text1"
       inkscape:label="Module"
       aria-label="D-Octer" />
  </g>
  <g
     inkscape:groupmode="layer"
     id="layer2"
     inkscape:label="components"
     style="display:none">
    <circle
       style="display:inline;fill:#0000ff"
       id="guid-d3b3f50f-dde3-4a64-ae52-29039fc3ca22"
       data-name="OCT+2_OUT#PJ301MPort"
       cx="12.7"
       cy="88.585907"
       r="5"
       inkscape:label="OCT+2_OUT">
      <title
         id="title1">Octave + 2</title>
    </circle>
    <circle
       style="display:inline;fill:#0000ff"
       id="guid-db2c56fb-3459-447c-afe7-cfdd8b1d091c"
       data-name="OCT+1_OUT#PJ301MPort"
       cx="12.7"
       cy="71.585907"
       r="5"
       inkscape:label="OCT+1_OUT">
      <title
         id="title2">Octave + 1</title>
    </circle>
    <circle
       style="fill:#0000ff"
       id="guid-04545355-8e75-4d92-bb04-987e59fac65a"
       data-name="OCT-1_OUT#PJ301MPort"
       cx="12.7"
       cy="54.585911"
       r="5"
       inkscape:label="OCT-1_OUT">
      <title
         id="title3">Octave - 1</title>
    </circle>
    <circle
       style="display:inline;fill:#0000ff"
       id="guid-f04a8e42-c2b6-4f11-8367-55466c0df6d4"
       data-name="OCT-2_OUT#PJ301MPort"
       cx="12.7"
       cy="37.585911"
       r="5"
       inkscape:label="OCT-2_OUT">
      <title
         id="title4">Octave - 2</title>
    </circle>
    <circle
       style="display:inline;fill:#00ff00;fill-opacity:1"
       id="guid-02a7bebb-177d-449f-aca3-055687f4c9a1"
       data-name="In#PJ301MPort"
       cx="12.7"
       cy="20.5"
       r="5"
       inkscape:label="POLY_IN">
      <title
         id="title18">Poly In</title>
    </circle>
  </g>
</svg>
