<?xml version="1.0" encoding="UTF-8" standalone="no"?>
<!-- Created with Inkscape (http://www.inkscape.org/) -->

<svg
   width="25.4mm"
   height="128.5mm"
   viewBox="0 0 25.4 128.5"
   version="1.1"
   id="svg1"
   inkscape:version="1.3.2 (091e20e, 2023-11-25, custom)"
   sodipodi:docname="STS-Multiplier.svg"
   xmlns:inkscape="http://www.inkscape.org/namespaces/inkscape"
   xmlns:sodipodi="http://sodipodi.sourceforge.net/DTD/sodipodi-0.dtd"
   xmlns="http://www.w3.org/2000/svg"
   xmlns:svg="http://www.w3.org/2000/svg"
   xmlns:rdf="http://www.w3.org/1999/02/22-rdf-syntax-ns#"
   xmlns:cc="http://creativecommons.org/ns#"
   xmlns:dc="http://purl.org/dc/elements/1.1/">
  <title
     id="title8">STS Template Medium</title>
  <sodipodi:namedview
     id="namedview1"
     pagecolor="#ffffff"
     bordercolor="#000000"
     borderopacity="0.25"
     inkscape:showpageshadow="2"
     inkscape:pageopacity="0.0"
     inkscape:pagecheckerboard="false"
     inkscape:deskcolor="#d1d1d1"
     inkscape:document-units="mm"
     inkscape:zoom="2.3702751"
     inkscape:cx="-6.1174334"
     inkscape:cy="156.94381"
     inkscape:window-width="1920"
     inkscape:window-height="1010"
     inkscape:window-x="-6"
     inkscape:window-y="-6"
     inkscape:window-maximized="1"
     inkscape:current-layer="layer1" />
  <defs
     id="defs1" />
  <g
     inkscape:label="Layer 1"
     inkscape:groupmode="layer"
     id="layer1"
     style="display:inline">
    <rect
       style="fill:#93b5cf;fill-opacity:1;stroke:#97c6c1;stroke-width:0.0653667;stroke-linejoin:miter;stroke-miterlimit:0;stroke-dasharray:none;stroke-opacity:1;paint-order:normal"
       id="guid-133bc867-ad6a-494a-bd77-ef0c326a6449"
       width="25.334633"
       height="128.43465"
       x="0.03268335"
       y="0.032683566"
       ry="0"
       inkscape:transform-center-x="0.13475906"
       inkscape:transform-center-y="11.262005"
       inkscape:label="Panel" />
    <g
       id="guid-836c62ac-2363-4971-88ce-5a5d0a73b10b"
       style="font-size:3.175px;font-family:'Comic Sans MS';-inkscape-font-specification:'Comic Sans MS, Normal';text-align:center;text-anchor:middle;stroke:#000000;stroke-width:0;stroke-miterlimit:0"
       inkscape:label="Brand"
       aria-label="Sm@rTAZZ&#10;Studio"
       transform="translate(0,-4.5766488)">
      <path
         d="m 3.5270624,121.95735 q -0.00155,-0.0651 0.043408,-0.10542 0.046509,-0.0419 0.1131713,-0.0419 0.075964,0 0.1333252,0.0868 0.079065,0.11783 0.1410767,0.15968 0.1317749,0.0868 0.3829224,0.0868 0.2402954,0 0.4464843,-0.10387 0.2635498,-0.13332 0.2635498,-0.37052 0,-0.19534 -0.2216919,-0.30851 -0.1875854,-0.0977 -0.4635376,-0.10542 -0.2449462,-0.009 -0.4170288,-0.10697 -0.2201416,-0.12557 -0.2201416,-0.35967 0,-0.27595 0.3131592,-0.50384 0.2992066,-0.21549 0.6185669,-0.21549 0.1503784,0 0.3395142,0.0512 0.2511474,0.0667 0.2511474,0.17053 0,0.13643 -0.1395264,0.13643 -0.062012,0 -0.217041,-0.0326 -0.1550293,-0.0341 -0.2402954,-0.0326 -0.2418457,0.003 -0.4108276,0.11938 -0.1736328,0.11937 -0.1736328,0.2899 0,0.12868 0.2294433,0.18139 0.085266,0.0202 0.3302124,0.0372 0.3550171,0.0264 0.5550049,0.22324 0.1829346,0.17984 0.1829346,0.43874 0,0.36897 -0.3410645,0.58911 -0.2961059,0.19069 -0.6867797,0.19069 -0.2837036,0 -0.5193482,-0.10853 -0.2883545,-0.13332 -0.2930053,-0.36586 z m 4.1780395,0.51469 q -0.127124,0 -0.1488281,-0.13487 -0.027905,-0.17053 -0.055811,-0.48059 l -0.05271,-0.48059 q -0.015503,-0.10697 -0.05271,-0.20929 -0.05271,-0.13953 -0.1147217,-0.13953 -0.057361,0 -0.2139404,0.0977 -0.1488281,0.0899 -0.1953369,0.14418 -0.00155,0.14572 0.00775,0.29145 l 0.046509,0.41393 q 0.029456,0.24495 0.029456,0.40463 0,0.0682 -0.043408,0.11162 -0.041858,0.045 -0.1085205,0.045 -0.066663,0 -0.1100708,-0.045 -0.041858,-0.0434 -0.041858,-0.11162 0,-0.18759 -0.038757,-0.55346 -0.037207,-0.36742 -0.037207,-0.555 0,-0.16434 -0.046509,-0.2558 -0.1085205,0.0496 -0.2201416,0.16123 l -0.1829345,0.20464 q -0.024805,0.0372 -0.079065,0.0977 0,0.093 -0.017053,0.2744 -0.017053,0.18138 -0.017053,0.2682 0,0.0465 0.013953,0.13022 0.015503,0.0837 0.015503,0.12093 0,0.0636 -0.048059,0.10697 -0.046509,0.0434 -0.1100708,0.0434 -0.1751831,0 -0.1751831,-0.39842 0,-0.093 0.017053,-0.2775 0.017053,-0.18449 0.017053,-0.27751 0,-0.0822 -0.015503,-0.24649 -0.013953,-0.16433 -0.013953,-0.24805 0,-0.35192 0.1581299,-0.35192 0.060461,0 0.1100708,0.0527 0.05116,0.0527 0.05116,0.11472 0,0.0295 -0.00775,0.0915 -0.00775,0.062 -0.00775,0.0946 l 0.0031,0.16278 q 0.080615,-0.16588 0.2371949,-0.29921 0.1565796,-0.13487 0.2666504,-0.13487 0.2433959,0 0.3348632,0.24184 0.085266,-0.11317 0.2030884,-0.16898 0.1178223,-0.0574 0.269751,-0.0574 0.2588989,0 0.3534668,0.27905 0.018604,0.0558 0.063562,0.43564 0.043408,0.26665 0.1116211,0.88831 0.00465,0.062 -0.041858,0.10542 -0.046509,0.0434 -0.1131714,0.0434 z m 2.3068361,-0.76739 q -0.1643313,0 -0.2837039,-0.0481 -0.1193725,-0.0481 -0.1922363,-0.14263 -0.083716,0.0822 -0.1643311,0.12403 -0.079065,0.0418 -0.1550293,0.0418 -0.1720825,0 -0.3255615,-0.13952 -0.1519287,-0.14108 -0.1519287,-0.30851 0,-0.28681 0.2247925,-0.524 0.2263428,-0.2372 0.513147,-0.2372 0.065112,0 0.1085205,0.0481 0.043408,0.0481 0.043408,0.11628 0,0.093 -0.1550293,0.13797 -0.206189,0.0589 -0.2914551,0.13488 -0.1255737,0.11007 -0.1255737,0.32401 0,0.045 0.041858,0.0868 0.048059,0.0465 0.1193725,0.0434 0.1348755,-0.006 0.2495972,-0.25114 0.1038696,-0.21394 0.1844849,-0.21394 0.065112,0 0.1054199,0.048 0.040308,0.0481 0.040308,0.11783 0,0.031 -0.010852,0.093 -0.0093,0.062 -0.0093,0.093 0,0.10077 0.086816,0.12713 0.034106,0.0109 0.1472784,0.0109 0.21239,0 0.297656,-0.10387 0.07752,-0.093 0.07752,-0.30851 0,-0.37982 -0.305408,-0.62012 -0.2790531,-0.22014 -0.6666264,-0.22014 -0.4511352,0 -0.7069335,0.34107 -0.2309937,0.30385 -0.2309937,0.76429 0,0.42478 0.2713013,0.71624 0.2821533,0.30385 0.7255371,0.30385 0.1255737,0 0.2837036,-0.0481 l 0.2713016,-0.10077 q 0.06821,-0.0248 0.08837,-0.0248 0.06356,0 0.11007,0.0512 0.04651,0.0496 0.04651,0.11627 0,0.14728 -0.3302125,0.23875 -0.2495971,0.0682 -0.4666381,0.0682 -0.2185913,0 -0.4480347,-0.0853 -0.2278931,-0.0837 -0.3906738,-0.22479 -0.4805908,-0.41548 -0.4805908,-1.01079 0,-0.59531 0.3286621,-0.99529 0.3488159,-0.42788 0.9286254,-0.42788 0.5239991,0 0.8976204,0.31471 0.392224,0.33331 0.392224,0.84336 0,0.34882 -0.170533,0.5364 -0.178283,0.19379 -0.522448,0.19379 z m 2.353345,-0.50695 q -0.01085,0.19379 -0.15503,0.19379 -0.133325,0 -0.133325,-0.15348 0,-0.0295 -0.0047,-0.10852 l -0.0047,-0.13023 q -0.244946,0.0295 -0.392224,0.13798 -0.137976,0.10077 -0.229443,0.30386 l 0.0031,0.84956 q 0,0.15658 -0.153479,0.15658 -0.136426,0 -0.136426,-0.15658 v -1.08831 q 0,-0.0512 0.0031,-0.15348 0.0047,-0.10232 0.0047,-0.15348 0,-0.15657 0.136426,-0.15657 0.151929,0 0.153479,0.25734 0.297656,-0.2868 0.660425,-0.2868 0.125574,0 0.187585,0.0946 0.06201,0.0946 0.06201,0.28525 0,0.0806 -0.0015,0.10852 z m 2.215368,-0.81235 q -0.114722,0 -0.353467,-0.0186 -0.232544,-0.0171 -0.353467,-0.0155 h -0.11007 q 0.0047,0.21394 0.04186,0.69453 0.03411,0.44804 0.03411,0.69608 0,0.0543 0.01085,0.16434 0.01085,0.11007 0.01085,0.16588 0,0.10542 -0.03411,0.18138 -0.04341,0.10232 -0.134876,0.10232 -0.06201,0 -0.111621,-0.0434 -0.04961,-0.0434 -0.04961,-0.11162 0,-0.0232 0.0078,-0.0698 0.0078,-0.0465 0.0078,-0.0698 0,-0.076 -0.01085,-0.2279 -0.0093,-0.15193 -0.0093,-0.22944 0,-0.22169 -0.03566,-0.62322 -0.03721,-0.43408 -0.04186,-0.62322 l -0.141077,0.002 q -0.339514,0 -0.5333,-0.0496 -0.125574,-0.0326 -0.125574,-0.15347 0,-0.0636 0.04031,-0.11163 0.04651,-0.0543 0.119372,-0.0496 0.05426,0.003 0.248047,0.0279 0.155029,0.0186 0.251147,0.0186 0.09302,0 0.282154,-0.003 0.189136,-0.005 0.282153,-0.005 0.119373,0 0.353467,0.0171 0.235644,0.017 0.355017,0.017 0.06666,0 0.111621,0.0465 0.04496,0.045 0.04496,0.11317 0,0.0667 -0.04496,0.11317 -0.04496,0.045 -0.111621,0.045 z m 1.984375,2.00453 q -0.142627,0 -0.248047,-0.36587 -0.04031,-0.13953 -0.100769,-0.48834 -0.15813,0.0217 -0.413928,0.0775 l -0.412378,0.0853 q -0.07752,0.20309 -0.2651,0.59376 -0.04961,0.0868 -0.134876,0.0868 -0.06201,0 -0.111621,-0.045 -0.04806,-0.045 -0.04806,-0.11162 0,-0.0744 0.234094,-0.56586 -0.02636,-0.0403 -0.02636,-0.093 0,-0.12557 0.151929,-0.16123 0.176733,-0.33176 0.446484,-0.76274 0.36742,-0.58756 0.457337,-0.58756 0.122473,0 0.167431,0.17053 l 0.09767,0.5209 0.230994,1.07745 0.08837,0.24495 q 0.04496,0.12557 0.04496,0.16743 0,0.0667 -0.04806,0.11162 -0.04806,0.045 -0.110071,0.045 z m -0.547254,-1.77199 -0.443383,0.71469 q 0.187585,-0.0481 0.568957,-0.11627 z m 2.894398,-0.21394 -0.20929,0.14263 q -0.282153,0.21859 -0.638721,0.69918 l -0.544153,0.7922 q -0.03876,0.0589 -0.07596,0.10852 l 0.603064,-0.0232 q 0.395325,-0.0186 0.604614,-0.0186 0.204639,0 0.302307,0.0186 0.125574,0.0248 0.130225,0.12712 0.0031,0.076 -0.04961,0.12092 -0.04651,0.0388 -0.116272,0.0388 -0.04496,0 -0.134876,-0.006 -0.08992,-0.005 -0.134875,-0.005 -0.235645,0 -0.708484,0.0109 -0.471289,0.0124 -0.706934,0.0124 -0.178283,0 -0.178283,-0.15658 0,-0.10232 0.09612,-0.25734 l 0.165881,-0.231 0.559656,-0.77825 q 0.345715,-0.45733 0.643371,-0.71003 l -0.542602,0.031 H 17.35103 q -0.01705,0 -0.05116,0.003 -0.03256,0.002 -0.04806,0.002 -0.164331,0 -0.164331,-0.15968 0,-0.10542 0.08372,-0.13953 0.05116,-0.0217 0.168982,-0.0217 0.10697,0 0.31781,0.0233 0.21239,0.0217 0.31936,0.0217 0.119372,0 0.356567,-0.0155 0.238745,-0.0155 0.359668,-0.0155 0.398426,0 0.398426,0.15038 0,0.10232 -0.179834,0.23564 z m 2.201416,0 -0.20929,0.14263 q -0.282153,0.21859 -0.638721,0.69918 l -0.544152,0.7922 q -0.03876,0.0589 -0.07597,0.10852 l 0.603064,-0.0232 q 0.395325,-0.0186 0.604614,-0.0186 0.204639,0 0.302307,0.0186 0.125574,0.0248 0.130225,0.12712 0.0031,0.076 -0.04961,0.12092 -0.04651,0.0388 -0.116272,0.0388 -0.04496,0 -0.134876,-0.006 -0.08992,-0.005 -0.134875,-0.005 -0.235645,0 -0.708484,0.0109 -0.471289,0.0124 -0.706934,0.0124 -0.178283,0 -0.178283,-0.15658 0,-0.10232 0.09612,-0.25734 l 0.165881,-0.231 0.559656,-0.77825 q 0.345715,-0.45733 0.643371,-0.71003 l -0.542602,0.031 h -0.626318 q -0.01705,0 -0.05116,0.003 -0.03256,0.002 -0.04806,0.002 -0.164331,0 -0.164331,-0.15968 0,-0.10542 0.08372,-0.13953 0.05116,-0.0217 0.168982,-0.0217 0.10697,0 0.31781,0.0233 0.21239,0.0217 0.31936,0.0217 0.119372,0 0.356567,-0.0155 0.238745,-0.0155 0.359668,-0.0155 0.398426,0 0.398426,0.15038 0,0.10232 -0.179834,0.23564 z"
         id="path3" />
      <path
         d="m 7.6570428,125.9261 q -0.00155,-0.0651 0.043408,-0.10542 0.046509,-0.0419 0.1131714,-0.0419 0.075964,0 0.1333251,0.0868 0.079065,0.11783 0.1410767,0.15968 0.1317749,0.0868 0.3829224,0.0868 0.2402954,0 0.4464843,-0.10387 0.2635498,-0.13332 0.2635498,-0.37052 0,-0.19534 -0.2216919,-0.30851 -0.1875854,-0.0977 -0.4635376,-0.10542 -0.2449462,-0.009 -0.4170288,-0.10697 -0.2201416,-0.12557 -0.2201416,-0.35967 0,-0.27595 0.3131592,-0.50384 0.2992066,-0.21549 0.6185669,-0.21549 0.1503784,0 0.3395142,0.0512 0.2511474,0.0667 0.2511474,0.17053 0,0.13643 -0.1395263,0.13643 -0.062012,0 -0.2170411,-0.0326 -0.1550293,-0.0341 -0.2402954,-0.0326 -0.2418457,0.003 -0.4108276,0.11938 -0.1736328,0.11937 -0.1736328,0.2899 0,0.12868 0.2294434,0.18139 0.085266,0.0202 0.3302123,0.0372 0.3550171,0.0264 0.5550049,0.22324 0.1829346,0.17984 0.1829346,0.43874 0,0.36897 -0.3410645,0.58911 -0.2961059,0.19069 -0.6867797,0.19069 -0.2837036,0 -0.5193482,-0.10853 -0.2883545,-0.13332 -0.2930053,-0.36586 z m 3.2463132,-0.93483 q -0.03256,0 -0.07751,-0.003 -0.04341,-0.003 -0.07597,-0.003 -0.03566,0 -0.21084,0.0233 l 0.02946,0.91623 0.0015,0.0682 0.0016,0.0791 q 0.0062,0.33952 -0.162781,0.33952 -0.06201,0 -0.108521,-0.0403 -0.04496,-0.0403 -0.04496,-0.10077 0,-0.0589 0.0047,-0.17673 0.0047,-0.11783 0.0047,-0.17674 l -0.03101,-0.90537 q -0.113172,-0.005 -0.3441654,-0.0264 -0.137976,-0.0186 -0.137976,-0.15348 0,-0.0682 0.041858,-0.11317 0.041858,-0.045 0.1069702,-0.045 l 0.3255612,0.0263 q 0,-0.0791 -0.0078,-0.21084 -0.0062,-0.13332 -0.0062,-0.19223 0,-0.0651 0.04496,-0.10697 0.04496,-0.0434 0.110071,-0.0434 0.139526,0 0.162781,0.22789 0.0047,0.0574 0.0047,0.13798 l -0.0031,0.0899 -0.0015,0.0961 q 0.192236,-0.0248 0.220141,-0.0248 0.161231,0 0.21084,0.0155 0.09457,0.031 0.09457,0.14573 0,0.0682 -0.04341,0.11317 -0.04186,0.0434 -0.108521,0.0434 z m 1.723926,0.41548 q 0,0.11162 0.0015,0.33486 0.0016,0.22324 0.0016,0.33486 0,0.0341 0.0046,0.10387 0.0062,0.0698 0.0062,0.10387 0,0.0667 -0.04496,0.10852 -0.04496,0.0434 -0.110071,0.0434 -0.119372,0 -0.151928,-0.14728 -0.193787,0.10077 -0.446485,0.10077 -0.203088,0 -0.336413,-0.0899 -0.147278,-0.0992 -0.175183,-0.28991 -0.06046,-0.41083 -0.06046,-0.73174 0,-0.21239 0.04651,-0.48369 0.0217,-0.13487 0.147278,-0.13487 0.06666,0 0.111621,0.0434 0.04496,0.0419 0.04496,0.10852 0,0.0713 -0.02325,0.2279 -0.0217,0.15658 -0.0217,0.23874 0,0.2589 0.01705,0.44339 0.01705,0.18448 0.05116,0.2961 0.05116,0.0279 0.100769,0.0434 0.04961,0.014 0.09767,0.014 0.20774,0 0.438733,-0.0667 l -0.0015,-0.31471 -0.0031,-0.30076 q 0,-0.33486 0.02946,-0.58136 0.01705,-0.14262 0.150378,-0.14262 0.06666,0 0.111621,0.0434 0.04496,0.0434 0.04186,0.10852 z m 1.813843,-0.46354 q -0.0186,0.22789 -0.0186,0.45579 0,0.51624 0.04806,0.77979 0.0031,0.0217 0.0031,0.0357 0,0.062 -0.04341,0.10232 -0.04341,0.0403 -0.100769,0.0403 -0.09612,0 -0.141077,-0.13953 -0.111621,0.0822 -0.232544,0.12402 -0.119372,0.0419 -0.249597,0.0419 -0.320911,0 -0.531751,-0.21394 -0.217041,-0.21859 -0.217041,-0.5612 0,-0.41393 0.218592,-0.66353 0.220141,-0.2496 0.570508,-0.2496 0.179834,0 0.277502,0.0558 l 0.145728,0.10697 q 0.0217,-0.65267 0.05116,-0.87901 0.02015,-0.13798 0.141077,-0.13798 0.141076,0 0.141076,0.15038 0,0.21549 -0.06201,0.95188 z m -0.68833,0.0403 q -0.26045,0 -0.390674,0.15503 -0.130225,0.15348 -0.130225,0.46353 0,0.19999 0.141077,0.34417 0.142627,0.14418 0.333313,0.14418 0.130225,0 0.220142,-0.0481 0.05271,-0.0279 0.172082,-0.12868 0.02325,-0.0202 0.04496,-0.0481 l -0.0047,-0.2682 0.0015,-0.17983 0.0031,-0.18294 q -0.05891,-0.12557 -0.15658,-0.18758 -0.09767,-0.0636 -0.234094,-0.0636 z m 1.421619,-0.63407 q -0.07442,0 -0.128675,-0.0527 -0.05426,-0.0527 -0.05426,-0.12713 0,-0.0744 0.05426,-0.12712 0.05426,-0.0527 0.128675,-0.0527 0.07441,0 0.127124,0.0527 0.05426,0.0527 0.05426,0.12712 0,0.0744 -0.05426,0.12713 -0.05271,0.0527 -0.127124,0.0527 z m 0.06976,1.25884 q 0,0.093 0.0047,0.27905 0.0062,0.18448 0.0062,0.2775 0,0.0682 -0.04186,0.11162 -0.04186,0.0434 -0.110071,0.0434 -0.06666,0 -0.110071,-0.0434 -0.04186,-0.0434 -0.04186,-0.11162 0,-0.093 -0.0062,-0.2775 -0.0047,-0.18604 -0.0047,-0.27905 0,-0.14573 0.0155,-0.36277 0.0155,-0.21859 0.0155,-0.36432 0,-0.0698 0.04186,-0.11317 0.04341,-0.0434 0.110071,-0.0434 0.06666,0 0.10852,0.0434 0.04341,0.0434 0.04341,0.11317 0,0.14573 -0.0155,0.36432 -0.0155,0.21704 -0.0155,0.36277 z m 1.105358,0.7953 q -0.260449,0 -0.448034,-0.19224 -0.20929,-0.21394 -0.220142,-0.57516 -0.0093,-0.35037 0.176733,-0.61702 0.217041,-0.31471 0.604615,-0.31471 0.310058,0 0.469738,0.28371 0.127124,0.22944 0.122474,0.5519 -0.0047,0.34417 -0.179834,0.58756 -0.198438,0.27596 -0.52555,0.27596 z m 0.09302,-1.38442 q -0.227893,-0.002 -0.355017,0.21705 -0.100769,0.17518 -0.100769,0.39997 0,0.22479 0.122473,0.35037 0.102319,0.10387 0.240295,0.10387 0.161231,0 0.277503,-0.11783 0.131775,-0.13022 0.139526,-0.35191 0.0217,-0.59997 -0.324011,-0.60152 z"
         id="path4" />
      <desc
         id="desc6">Brand</desc>
      <title
         id="title6">Brand</title>
    </g>
    <rect
       style="font-size:3.175px;font-family:'Comic Sans MS';-inkscape-font-specification:'Comic Sans MS, Normal';text-align:center;text-anchor:middle;display:inline;fill:#c0c0c0;fill-opacity:1;stroke:#505050;stroke-width:0.2;stroke-miterlimit:0;stroke-opacity:1;stroke-dasharray:none"
       id="InputBlock"
       width="13"
       height="10.604429"
       x="6.1"
       y="15.292705"
       ry="2.5673883"
       inkscape:label="Input Block">
      <desc
         id="desc7">Input Block</desc>
      <title
         id="title7">Input Block</title>
    </rect>
    <rect
       style="display:inline;fill:#a0a0a0;stroke:#4f4f4f;stroke-width:0.2;stroke-miterlimit:0;stroke-opacity:1;stroke-dasharray:none;fill-opacity:1"
       id="OutputBlock"
       width="13"
       height="67.198601"
       x="6.1"
       y="31.924915"
       ry="3.0973301"
       inkscape:label="Output Block">
      <desc
         id="desc9">Output Block</desc>
      <title
         id="title9">Output Block</title>
    </rect>
    <!-- aria-label="			 STS Multiplier		" -->
    <path
       d="m 7.7414122,97.683678 -0.8805664,-2.27273 h 0.3255615 l 0.5906616,1.651062 q 0.071314,0.198438 0.1193726,0.372071 0.05271,-0.186036 0.1224731,-0.372071 l 0.613916,-1.651062 h 0.306958 l -0.8898681,2.27273 z m 1.1487673,-0.682129 v -0.280603 h 0.857312 v 0.280603 z m 1.1100095,-0.42478 q 0,-0.565857 0.303857,-0.885218 0.303858,-0.32091 0.784449,-0.32091 0.314709,0 0.567407,0.150378 0.252698,0.150378 0.384473,0.420129 0.133325,0.268201 0.133325,0.609266 0,0.345715 -0.139527,0.618566 -0.139526,0.272852 -0.395324,0.413929 -0.255799,0.139526 -0.551905,0.139526 -0.32091,0 -0.573608,-0.155029 -0.252698,-0.15503 -0.382922,-0.42323 -0.130225,-0.268201 -0.130225,-0.567407 z m 0.310059,0.0046 q 0,0.410828 0.220141,0.648023 0.221692,0.235644 0.555005,0.235644 0.339514,0 0.558106,-0.238745 0.220141,-0.238745 0.220141,-0.677478 0,-0.277502 -0.09457,-0.483691 -0.09302,-0.207739 -0.274402,-0.320911 -0.179834,-0.114721 -0.404626,-0.114721 -0.31936,0 -0.550354,0.220141 -0.229443,0.218591 -0.229443,0.731738 z m 3.294372,1.102259 v -0.241846 q -0.192236,0.279053 -0.522448,0.279053 -0.145728,0 -0.272852,-0.05581 -0.125574,-0.05581 -0.187585,-0.139526 -0.06046,-0.08527 -0.08527,-0.207739 -0.01705,-0.08217 -0.01705,-0.26045 v -1.020092 h 0.279053 v 0.913122 q 0,0.218591 0.01705,0.294556 0.02635,0.110071 0.111621,0.173633 0.08527,0.06201 0.21084,0.06201 0.125574,0 0.235645,-0.06356 0.110071,-0.06511 0.155029,-0.175183 0.04651,-0.111621 0.04651,-0.322461 v -0.882116 h 0.279053 v 1.646411 z m 1.296045,-0.249597 0.04031,0.246496 q -0.117823,0.02481 -0.21084,0.02481 -0.151929,0 -0.235645,-0.04806 -0.08372,-0.04806 -0.117822,-0.125574 -0.03411,-0.07906 -0.03411,-0.330212 v -0.947229 h -0.204638 v -0.217041 h 0.204638 V 95.62954 l 0.277503,-0.167432 v 0.575159 h 0.280603 v 0.217041 h -0.280603 v 0.962731 q 0,0.119373 0.01395,0.153479 0.0155,0.03411 0.04806,0.05426 0.03411,0.02015 0.09612,0.02015 0.04651,0 0.122473,-0.01085 z m 1.971973,0.249597 v -0.544153 h -0.985987 v -0.255798 l 1.037146,-1.472779 h 0.227893 v 1.472779 h 0.306959 v 0.255798 H 17.15169 v 0.544153 z m 0,-0.799951 v -1.024744 l -0.711585,1.024744 z"
       id="Output4"
       style="font-size:3.175px;font-family:Arial;-inkscape-font-specification:'Arial, Normal';text-align:center;text-anchor:middle;stroke:#000000;stroke-width:0;stroke-miterlimit:0"
       inkscape:label="Output 4"
       aria-label="    V-Out 4  ">
      <desc
         id="desc5">Output 4</desc>
      <title
         id="title5">Output 4</title>
    </path>
    <path
       d="m 7.6823435,80.828499 -0.8805664,-2.27273 h 0.3255615 l 0.5906616,1.651062 q 0.071314,0.198438 0.1193726,0.372071 0.05271,-0.186035 0.1224731,-0.372071 l 0.613916,-1.651062 H 8.88072 l -0.8898682,2.27273 z M 8.8311108,80.14637 v -0.280603 h 0.857312 v 0.280603 z m 1.1100096,-0.42478 q 0,-0.565857 0.3038576,-0.885218 0.303857,-0.32091 0.784448,-0.32091 0.314709,0 0.567407,0.150378 0.252698,0.150379 0.384473,0.42013 0.133325,0.2682 0.133325,0.609265 0,0.345715 -0.139526,0.618567 -0.139527,0.272851 -0.395325,0.413928 -0.255798,0.139526 -0.551904,0.139526 -0.320911,0 -0.573609,-0.155029 Q 10.20157,80.557198 10.071345,80.288997 9.9411204,80.020796 9.9411204,79.72159 Z m 0.3100586,0.0047 q 0,0.410827 0.220142,0.648022 0.221691,0.235645 0.555004,0.235645 0.339515,0 0.558106,-0.238746 0.220141,-0.238745 0.220141,-0.677478 0,-0.277502 -0.09457,-0.483691 -0.09302,-0.207739 -0.274402,-0.320911 -0.179834,-0.114721 -0.404627,-0.114721 -0.31936,0 -0.550354,0.220141 -0.229443,0.218592 -0.229443,0.731739 z m 3.294373,1.102258 v -0.241846 q -0.192237,0.279053 -0.522449,0.279053 -0.145728,0 -0.272852,-0.05581 -0.125573,-0.05581 -0.187585,-0.139526 -0.06046,-0.08527 -0.08527,-0.207739 -0.01705,-0.08217 -0.01705,-0.26045 v -1.020092 h 0.279052 v 0.913122 q 0,0.218592 0.01705,0.294556 0.02635,0.110071 0.111621,0.173633 0.08527,0.06201 0.21084,0.06201 0.125573,0 0.235644,-0.06356 0.110071,-0.06511 0.155029,-0.175183 0.04651,-0.111621 0.04651,-0.322461 v -0.882116 h 0.279053 v 1.646411 z m 1.296044,-0.249597 0.04031,0.246496 q -0.117822,0.0248 -0.21084,0.0248 -0.151929,0 -0.235645,-0.04806 -0.08371,-0.04806 -0.117822,-0.125574 -0.03411,-0.07906 -0.03411,-0.330212 v -0.947229 h -0.204639 v -0.217041 h 0.204639 v -0.407727 l 0.277502,-0.167432 v 0.575159 h 0.280603 v 0.217041 h -0.280603 v 0.962732 q 0,0.119372 0.01395,0.153479 0.0155,0.03411 0.04806,0.05426 0.03411,0.02015 0.09612,0.02015 0.04651,0 0.122473,-0.01085 z m 1.079004,-0.350367 0.279053,-0.03721 q 0.04806,0.237195 0.162781,0.342615 0.116272,0.10387 0.282153,0.10387 0.196887,0 0.331763,-0.136426 0.136426,-0.136426 0.136426,-0.337964 0,-0.192236 -0.125574,-0.31626 -0.125574,-0.125573 -0.31936,-0.125573 -0.07906,0 -0.196888,0.03101 l 0.03101,-0.244947 q 0.02791,0.0031 0.04496,0.0031 0.178283,0 0.32091,-0.09302 0.142627,-0.09302 0.142627,-0.286804 0,-0.153479 -0.103869,-0.254248 -0.10387,-0.100769 -0.268201,-0.100769 -0.162781,0 -0.271301,0.102319 -0.108521,0.10232 -0.139527,0.306958 l -0.279052,-0.04961 q 0.05116,-0.280603 0.232544,-0.434082 0.181384,-0.155029 0.451135,-0.155029 0.186035,0 0.342615,0.08061 0.156579,0.07906 0.238745,0.217041 0.08372,0.137976 0.08372,0.293005 0,0.147278 -0.07906,0.268201 -0.07906,0.120923 -0.234095,0.192236 0.201538,0.04651 0.313159,0.193787 0.111622,0.145727 0.111622,0.365869 0,0.297656 -0.217041,0.505395 -0.217041,0.206189 -0.548804,0.206189 -0.299207,0 -0.497644,-0.178283 -0.196887,-0.178284 -0.224793,-0.461988 z"
       id="Output3"
       style="font-size:3.175px;font-family:Arial;-inkscape-font-specification:'Arial, Normal';text-align:center;text-anchor:middle;stroke:#000000;stroke-width:0;stroke-miterlimit:0"
       inkscape:label="Output 3"
       aria-label="    V-Out 3  ">
      <desc
         id="desc4">Output 3</desc>
      <title
         id="title4">Output 3</title>
    </path>
    <path
       d="M 7.7353354,63.863453 6.854769,61.590723 h 0.3255615 l 0.5906616,1.651062 q 0.071314,0.198438 0.1193726,0.372071 0.05271,-0.186035 0.1224731,-0.372071 l 0.613916,-1.651062 h 0.306958 l -0.8898681,2.27273 z m 1.1487673,-0.682129 v -0.280603 h 0.857312 v 0.280603 z m 1.1100095,-0.42478 q 0,-0.565857 0.3038578,-0.885218 0.303857,-0.32091 0.784448,-0.32091 0.314709,0 0.567407,0.150378 0.252698,0.150379 0.384473,0.42013 0.133325,0.2682 0.133325,0.609265 0,0.345715 -0.139526,0.618567 -0.139527,0.272851 -0.395325,0.413928 -0.255798,0.139526 -0.551904,0.139526 -0.320911,0 -0.573609,-0.155029 -0.252698,-0.155029 -0.382922,-0.42323 Q 9.9941122,63.05575 9.9941122,62.756544 Z m 0.3100588,0.0047 q 0,0.410827 0.220141,0.648022 0.221692,0.235645 0.555005,0.235645 0.339514,0 0.558106,-0.238746 0.220141,-0.238745 0.220141,-0.677478 0,-0.277502 -0.09457,-0.483691 -0.09302,-0.207739 -0.274401,-0.320911 -0.179834,-0.114721 -0.404627,-0.114721 -0.31936,0 -0.550354,0.220141 -0.229443,0.218592 -0.229443,0.731739 z m 3.294373,1.102258 v -0.241846 q -0.192237,0.279053 -0.522449,0.279053 -0.145728,0 -0.272852,-0.05581 -0.125573,-0.05581 -0.187585,-0.139526 -0.06046,-0.08527 -0.08527,-0.207739 -0.01705,-0.08217 -0.01705,-0.260449 v -1.020093 h 0.279052 v 0.913122 q 0,0.218592 0.01705,0.294556 0.02636,0.110071 0.111622,0.173633 0.08527,0.06201 0.210839,0.06201 0.125574,0 0.235645,-0.06356 0.110071,-0.06511 0.155029,-0.175184 0.04651,-0.111621 0.04651,-0.322461 v -0.882116 h 0.279053 v 1.646411 z m 1.296044,-0.249597 0.04031,0.246496 q -0.117823,0.02481 -0.21084,0.02481 -0.151929,0 -0.235645,-0.04806 -0.08371,-0.04806 -0.117822,-0.125574 -0.03411,-0.07906 -0.03411,-0.330212 v -0.947229 h -0.204639 v -0.217041 h 0.204639 v -0.407727 l 0.277502,-0.167432 v 0.575159 h 0.280603 v 0.217041 h -0.280603 v 0.962732 q 0,0.119372 0.01395,0.153479 0.0155,0.03411 0.04806,0.05426 0.03411,0.02015 0.09612,0.02015 0.04651,0 0.122473,-0.01085 z m 2.544031,-0.0186 v 0.268201 h -1.502234 q -0.0031,-0.100769 0.03256,-0.193787 0.05736,-0.153479 0.182935,-0.302307 0.127124,-0.148828 0.365869,-0.344165 0.37052,-0.303857 0.500745,-0.480591 0.130224,-0.178283 0.130224,-0.336413 0,-0.165882 -0.119372,-0.279053 -0.117823,-0.114722 -0.308509,-0.114722 -0.201538,0 -0.322461,0.120923 -0.120922,0.120923 -0.122473,0.334863 l -0.286804,-0.02945 q 0.02946,-0.320911 0.221692,-0.488342 0.192236,-0.168982 0.516248,-0.168982 0.327111,0 0.517797,0.181384 0.190686,0.181384 0.190686,0.449585 0,0.136426 -0.05581,0.268201 -0.05581,0.131775 -0.186035,0.277502 -0.128675,0.145728 -0.429431,0.399976 -0.251148,0.210839 -0.322461,0.286804 -0.07131,0.07441 -0.117823,0.150378 z"
       id="Output2"
       style="font-size:3.175px;font-family:Arial;-inkscape-font-specification:'Arial, Normal';text-align:center;text-anchor:middle;stroke:#000000;stroke-width:0;stroke-miterlimit:0"
       inkscape:label="Output 2"
       aria-label="    V-Out 2  ">
      <desc
         id="desc3">Output 2</desc>
      <title
         id="title3">Output 2</title>
    </path>
    <path
       d="M 7.8384876,46.157177 6.9579213,43.884448 h 0.3255615 l 0.5906616,1.651062 q 0.071314,0.198437 0.1193725,0.37207 0.05271,-0.186035 0.1224732,-0.37207 l 0.613916,-1.651062 h 0.306958 l -0.8898682,2.272729 z m 1.1487673,-0.682129 v -0.280603 h 0.857312 v 0.280603 z m 1.1100101,-0.42478 q 0,-0.565857 0.303857,-0.885217 0.303857,-0.320911 0.784448,-0.320911 0.31471,0 0.567407,0.150378 0.252698,0.150379 0.384473,0.42013 0.133325,0.2682 0.133325,0.609265 0,0.345715 -0.139526,0.618567 -0.139527,0.272851 -0.395325,0.413928 -0.255798,0.139526 -0.551904,0.139526 -0.320911,0 -0.573609,-0.155029 -0.252697,-0.155029 -0.382922,-0.42323 -0.130224,-0.268201 -0.130224,-0.567407 z m 0.310058,0.0047 q 0,0.410827 0.220142,0.648022 0.221692,0.235645 0.555005,0.235645 0.339514,0 0.558105,-0.238745 0.220142,-0.238746 0.220142,-0.677478 0,-0.277503 -0.09457,-0.483692 -0.09302,-0.207739 -0.274402,-0.320911 -0.179834,-0.114721 -0.404627,-0.114721 -0.31936,0 -0.550354,0.220141 -0.229443,0.218592 -0.229443,0.731739 z m 3.294373,1.102258 v -0.241846 q -0.192236,0.279053 -0.522449,0.279053 -0.145727,0 -0.272851,-0.05581 -0.125574,-0.05581 -0.187586,-0.139526 -0.06046,-0.08527 -0.08527,-0.207739 -0.01705,-0.08217 -0.01705,-0.260449 v -1.020093 h 0.279053 v 0.913122 q 0,0.218592 0.01705,0.294556 0.02636,0.110071 0.111621,0.173633 0.08527,0.06201 0.21084,0.06201 0.125573,0 0.235644,-0.06356 0.110071,-0.06511 0.155029,-0.175184 0.04651,-0.111621 0.04651,-0.32246 v -0.882117 h 0.279053 v 1.646411 z m 1.296044,-0.249597 0.04031,0.246496 q -0.117822,0.0248 -0.21084,0.0248 -0.151929,0 -0.235644,-0.04806 -0.08372,-0.04806 -0.117823,-0.125574 -0.03411,-0.07906 -0.03411,-0.330212 v -0.947229 h -0.204639 v -0.217041 h 0.204639 v -0.407727 l 0.277502,-0.167432 v 0.575159 h 0.280603 v 0.217041 h -0.280603 v 0.962732 q 0,0.119372 0.01395,0.153479 0.0155,0.03411 0.04806,0.05426 0.03411,0.02015 0.09612,0.02015 0.04651,0 0.122473,-0.01085 z m 2.128553,0.249597 H 16.84724 v -1.778186 q -0.100769,0.09612 -0.2651,0.192236 -0.162781,0.09612 -0.293005,0.144178 v -0.269751 q 0.234094,-0.110071 0.409277,-0.266651 0.175183,-0.156579 0.248047,-0.303857 h 0.179834 z"
       id="Output1"
       style="font-size:3.175px;font-family:Arial;-inkscape-font-specification:'Arial, Normal';text-align:center;text-anchor:middle;stroke:#000000;stroke-width:0;stroke-miterlimit:0"
       inkscape:label="Output 1"
       aria-label="    V-Out 1  ">
      <desc
         id="desc2">Output 1</desc>
      <title
         id="title2">Output 1</title>
    </path>
    <path
       d="M 10.508873,29.02265 9.6283064,26.74992 h 0.3255615 l 0.5906621,1.651062 q 0.07131,0.198438 0.119372,0.372071 0.05271,-0.186036 0.122473,-0.372071 l 0.613916,-1.651062 h 0.306958 l -0.889868,2.27273 z m 1.148767,-0.682129 v -0.280603 h 0.857312 v 0.280603 z m 1.252637,0.682129 v -2.27273 h 0.300756 v 2.27273 z m 0.7953,0 v -1.646411 h 0.251147 v 0.234094 q 0.181384,-0.271301 0.523999,-0.271301 0.148828,0 0.272852,0.05426 0.125573,0.05271 0.187585,0.139526 0.06201,0.08682 0.08682,0.206189 0.0155,0.07751 0.0155,0.271301 v 1.012342 h -0.279052 v -1.001489 q 0,-0.170533 -0.03256,-0.254249 -0.03256,-0.08527 -0.116272,-0.134875 -0.08216,-0.05116 -0.193786,-0.05116 -0.178284,0 -0.308508,0.113172 -0.128675,0.113171 -0.128675,0.429431 v 0.89917 z"
       id="Input"
       style="font-size:3.175px;font-family:Arial;-inkscape-font-specification:'Arial, Normal';text-align:center;text-anchor:middle;stroke:#000000;stroke-width:0;stroke-miterlimit:0"
       inkscape:label="Input"
       aria-label="    V-In  ">
      <desc
         id="desc1">Input (V-In)</desc>
      <title
         id="title1">Input</title>
    </path>
    <path
       style="display:inline;font-weight:bold;font-size:3.52778px;font-family:'Comic Sans MS';-inkscape-font-specification:'Comic Sans MS, Bold';text-align:center;text-anchor:middle;stroke:#000000;stroke-width:0;stroke-linecap:round;stroke-linejoin:round;stroke-miterlimit:0"
       d="m 5.7872046,7.9041095 q -0.077515,0.2790529 -0.2170412,0.8423264 -0.032728,0.194648 -0.063734,0.3875735 -0.070625,0.2446019 -0.2601048,0.2446019 -0.1188559,0 -0.1877579,-0.08096 -0.058567,-0.068902 -0.058567,-0.1636421 0,-0.2790529 0.1188558,-0.6804068 0.1774226,-0.6011696 0.191203,-0.6666264 0.049954,-0.2652725 0.1016303,-0.5305451 0.077515,-0.3651803 0.1670873,-0.4857587 0.091295,-0.122301 0.229099,-0.122301 0.1567519,0 0.2308215,0.1584745 0.068902,0.1498617 0.1481392,0.6132274 0.075792,0.4495852 0.2256539,0.9680724 0.1963706,-0.511597 0.3651804,-1.1231018 l 0.096463,-0.3961863 q 0.093018,-0.2463244 0.2876657,-0.2463244 0.1877578,0 0.2790529,0.2859431 0.037896,0.1154107 0.08096,0.4306372 0.099908,0.7338058 0.2514921,1.2574606 0.1533069,0.5322676 0.1533069,0.5787765 0,0.1016303 -0.08096,0.1705323 -0.075792,0.062012 -0.1705324,0.062012 -0.1877578,0 -0.2790529,-0.2687177 L 7.2996025,8.7223202 Q 7.2169201,8.4122614 7.1204574,7.8317624 7.0429427,8.062584 6.8637976,8.5569555 l -0.1033529,0.316949 q -0.063734,0.1877578 -0.1326363,0.3083363 -0.091295,0.160197 -0.2549372,0.160197 -0.1619196,0 -0.248047,-0.1912029 L 6.0283614,8.8308408 Q 5.8940026,8.3898683 5.7872046,7.9041095 Z m 3.8877929,0.3651804 q 0,0.1154107 0.00172,0.3479548 0.00172,0.2325441 0.00172,0.3479549 0,0.036174 0.00517,0.1085206 0.00689,0.070624 0.00689,0.106798 0,0.096463 -0.070624,0.1584745 -0.068902,0.063734 -0.1705323,0.063734 -0.1429716,0 -0.2084284,-0.1291912 -0.2204863,0.08096 -0.4564755,0.08096 -0.2446019,0 -0.4116892,-0.1033529 Q 8.1849927,9.1322868 8.1488192,8.9049104 8.0816398,8.4742732 8.0816398,8.134931 q 0,-0.2239313 0.051676,-0.511597 0.034451,-0.194648 0.2325441,-0.194648 0.099908,0 0.1705324,0.063734 0.070624,0.062012 0.070624,0.1584745 0,0.075792 -0.025838,0.2377118 -0.024116,0.1619196 -0.024116,0.2463244 0,0.2428794 0.015503,0.4254696 0.017225,0.1808676 0.049954,0.2997235 0.043064,0.018948 0.082682,0.029283 0.041341,0.010335 0.079237,0.010335 0.1912029,0 0.4203019,-0.055121 0,-0.1326363 -0.00172,-0.3014461 -0.00345,-0.2015382 -0.00345,-0.2893882 0,-0.3531225 0.032728,-0.6097823 0.025838,-0.2049833 0.2342667,-0.2049833 0.1016303,0 0.1739774,0.063734 0.072347,0.063734 0.067179,0.1601971 -0.032728,0.6562911 -0.032728,0.6063372 z m 0.8561065,0.7424185 q 0,0.3272843 -0.237711,0.3272843 -0.103353,0 -0.170533,-0.065457 -0.06718,-0.065457 -0.06718,-0.1688097 V 6.722441 q 0,-0.099908 0.07235,-0.1636422 0.0689,-0.058567 0.170532,-0.058567 0.101631,0 0.167087,0.062012 0.06546,0.060289 0.06546,0.1601971 z m 1.651924,-1.1334371 q -0.03617,0 -0.08613,-0.00172 -0.04823,-0.00345 -0.08441,-0.00345 -0.07062,0 -0.163642,0.01378 0.03101,0.6959097 0.03101,0.9095058 0,0.022393 0.0017,0.084405 0.0017,0.060289 0.0017,0.098185 0,0.3961862 -0.24977,0.3961862 -0.09474,0 -0.163642,-0.058567 -0.07579,-0.062012 -0.07579,-0.1550294 0,-0.062012 0.0052,-0.1860353 0.0052,-0.1240235 0.0052,-0.1860353 0,-0.2084284 -0.03101,-0.8922803 -0.106798,-0.00517 -0.323839,-0.027561 -0.215318,-0.024116 -0.215318,-0.2239313 0,-0.096463 0.06546,-0.1636422 0.06546,-0.067179 0.16881,-0.067179 0.06374,0 0.292834,0.020671 -0.0017,-0.055122 -0.0086,-0.1825902 -0.0069,-0.1102431 -0.0069,-0.1705323 0,-0.096463 0.07062,-0.160197 0.07062,-0.063734 0.170532,-0.063734 0.254938,0 0.254938,0.4289147 l -0.0034,0.141249 q 0.106798,-0.015503 0.173977,-0.015503 0.198093,0 0.27044,0.025838 0.137804,0.048231 0.137804,0.210151 0,0.098185 -0.06718,0.1636421 -0.06718,0.065457 -0.170533,0.065457 z M 13.02191,7.1944194 q -0.110243,0 -0.191203,-0.07407 -0.08096,-0.07407 -0.08096,-0.1808677 0,-0.106798 0.08096,-0.1808676 0.08096,-0.07407 0.191203,-0.07407 0.110243,0 0.18948,0.07407 0.08096,0.07407 0.08096,0.1808676 0,0.1067981 -0.08096,0.1808677 -0.07924,0.07407 -0.18948,0.07407 z m 0.146417,1.2626283 q 0,0.098185 0.0052,0.3152264 0.0069,0.2170412 0.0069,0.3152265 0,0.099908 -0.06718,0.1653647 -0.06718,0.063734 -0.170532,0.063734 -0.103353,0 -0.170533,-0.063734 -0.06718,-0.065457 -0.06718,-0.1653647 0,-0.098185 -0.0069,-0.3152265 -0.0052,-0.2170411 -0.0052,-0.3152264 0,-0.1533069 0.01723,-0.3841284 0.01722,-0.2308216 0.01722,-0.3841284 0,-0.099908 0.06718,-0.1636421 0.06718,-0.065457 0.170532,-0.065457 0.103353,0 0.170532,0.065457 0.06718,0.063734 0.06718,0.1636421 0,0.1533068 -0.01723,0.3841284 -0.01722,0.2308215 -0.01722,0.3841284 z m 1.245402,0.9095058 q -0.148139,0 -0.311781,-0.034451 l -0.0017,0.7027995 q 0,0.09991 -0.06718,0.165365 -0.06718,0.06546 -0.170532,0.06546 -0.103353,0 -0.170533,-0.06546 -0.06718,-0.06546 -0.06718,-0.165365 0,-0.080959 0.0034,-0.6425103 0.0034,-0.4168568 0,-0.6804068 -0.0052,-0.3720705 -0.02412,-0.6407882 -0.02584,-0.370348 -0.02584,-0.3393421 0,-0.1429715 0.06373,-0.2446019 0.07407,-0.1154108 0.199816,-0.1154108 0.09646,0 0.16192,0.065457 0.06546,0.065457 0.06546,0.1567519 l -0.0017,0.017225 q 0.115411,-0.065457 0.230822,-0.096463 0.117133,-0.032729 0.234266,-0.032729 0.396186,0 0.578777,0.3358971 0.136081,0.2532146 0.136081,0.6562911 0,0.3772382 -0.215319,0.6252852 -0.230821,0.2669951 -0.618395,0.2669951 z m 0.118856,-1.4245479 q -0.10852,0 -0.220486,0.051676 -0.111966,0.049954 -0.225654,0.1515843 0.02067,0.3548451 0.02067,0.7114127 0.153306,0.049954 0.306613,0.049954 0.177423,0 0.272163,-0.125746 0.08613,-0.1136883 0.08613,-0.3066137 0,-0.2325441 -0.02067,-0.3221167 -0.04995,-0.2101509 -0.218764,-0.2101509 z m 1.502063,1.0697028 q 0,0.3272843 -0.237712,0.3272843 -0.103352,0 -0.170532,-0.065457 -0.06718,-0.065457 -0.06718,-0.1688097 V 6.722441 q 0,-0.099908 0.07235,-0.1636422 0.0689,-0.058567 0.170532,-0.058567 0.10163,0 0.167087,0.062012 0.06546,0.060289 0.06546,0.1601971 z m 0.828546,-1.817289 q -0.110243,0 -0.191203,-0.07407 -0.08096,-0.07407 -0.08096,-0.1808677 0,-0.106798 0.08096,-0.1808676 0.08096,-0.07407 0.191203,-0.07407 0.110243,0 0.18948,0.07407 0.08096,0.07407 0.08096,0.1808676 0,0.1067981 -0.08096,0.1808677 -0.07924,0.07407 -0.18948,0.07407 z m 0.146417,1.2626283 q 0,0.098185 0.0052,0.3152264 0.0069,0.2170412 0.0069,0.3152265 0,0.099908 -0.06718,0.1653647 -0.06718,0.063734 -0.170532,0.063734 -0.103353,0 -0.170533,-0.063734 -0.06718,-0.065457 -0.06718,-0.1653647 0,-0.098185 -0.0069,-0.3152265 -0.0052,-0.2170411 -0.0052,-0.3152264 0,-0.1533069 0.01723,-0.3841284 0.01722,-0.2308216 0.01722,-0.3841284 0,-0.099908 0.06718,-0.1636421 0.06718,-0.065457 0.170533,-0.065457 0.103353,0 0.170532,0.065457 0.06718,0.063734 0.06718,0.1636421 0,0.1533068 -0.01723,0.3841284 -0.01722,0.2308215 -0.01722,0.3841284 z m 1.317749,0.8871126 q -0.411689,0 -0.673516,-0.1963705 -0.289389,-0.2170412 -0.289389,-0.6115049 0,-0.4358048 0.229099,-0.7372509 0.254938,-0.3341745 0.687297,-0.3341745 0.299724,0 0.497817,0.096463 0.260105,0.1274686 0.260105,0.3961862 0,0.1894804 -0.211874,0.335897 -0.09646,0.067179 -0.387573,0.1963706 l -0.580499,0.2566598 q 0.08268,0.089573 0.199816,0.1343588 0.117133,0.044786 0.268717,0.044786 0.230822,0 0.391019,-0.09474 0.142971,-0.084405 0.229099,-0.084405 0.179145,0 0.179145,0.1739774 0,0.1963706 -0.287666,0.3203941 Q 18.5978,9.3441603 18.32736,9.3441603 Z m -0.04651,-1.4624439 q -0.160197,0 -0.273885,0.106798 -0.113688,0.106798 -0.18259,0.3203941 0.194648,-0.084405 0.387573,-0.1670873 0.232545,-0.1050754 0.370348,-0.194648 -0.11541,-0.065457 -0.301446,-0.065457 z m 2.594159,0.141249 q -0.0155,0.2635499 -0.239434,0.2635499 -0.217041,0 -0.217041,-0.2239313 l -0.0086,-0.1739774 q -0.387574,0.062012 -0.554661,0.3979087 l 0.0017,0.8664421 q 0,0.098185 -0.06718,0.1619196 -0.06718,0.065457 -0.170532,0.065457 -0.106798,0 -0.165365,-0.068902 -0.05512,-0.062012 -0.05512,-0.1584745 V 8.0246879 q 0,-0.053399 0.0034,-0.1584745 0.0034,-0.106798 0.0034,-0.160197 0,-0.096463 0.05684,-0.1601971 0.05857,-0.065457 0.165365,-0.065457 0.191203,0 0.227376,0.1963706 0.304891,-0.2273765 0.676962,-0.2273765 0.34451,0 0.34451,0.458198 0,0.08785 -0.0017,0.1154108 z"
       id="guid-562ce0a7-9f7f-4ee0-8970-484b13cce7c0"
       inkscape:label="Module"
       aria-label="Multiplier" />
  </g>
  <g
     inkscape:groupmode="layer"
     id="layer2"
     inkscape:label="components"
     style="display:none">
    <circle
       style="fill:#00ff00"
       id="guid-5c296dbc-12e6-4bd3-8970-d6884106705d"
       data-name="In#PJ301MPort"
       cx="12.7"
       cy="20.585909"
       r="5" />
    <circle
       style="fill:#0000ff"
       id="guid-f04a8e42-c2b6-4f11-8367-55466c0df6d4"
       data-name="Out1#PJ301MPort"
       cx="12.7"
       cy="37.585911"
       r="5" />
    <circle
       style="fill:#0000ff"
       id="guid-04545355-8e75-4d92-bb04-987e59fac65a"
       data-name="Out2#PJ301MPort"
       cx="12.7"
       cy="54.585911"
       r="5" />
    <circle
       style="fill:#0000ff"
       id="guid-db2c56fb-3459-447c-afe7-cfdd8b1d091c"
       data-name="Out3#PJ301MPort"
       cx="12.7"
       cy="71.585907"
       r="5" />
    <circle
       style="display:inline;fill:#0000ff"
       id="guid-d3b3f50f-dde3-4a64-ae52-29039fc3ca22"
       data-name="Out4#PJ301MPort"
       cx="12.7"
       cy="88.585907"
       r="5" />
  </g>
  <metadata
     id="metadata8">
    <rdf:RDF>
      <cc:Work
         rdf:about="">
        <dc:title>STS Template Medium</dc:title>
        <dc:date>Jan 2, 2024</dc:date>
        <dc:creator>
          <cc:Agent>
            <dc:title>Marinko Laban</dc:title>
          </cc:Agent>
        </dc:creator>
        <dc:rights>
          <cc:Agent>
            <dc:title>(C) Sm@rTazz Studio</dc:title>
          </cc:Agent>
        </dc:rights>
      </cc:Work>
    </rdf:RDF>
  </metadata>
</svg>
