<?xml version="1.0" encoding="UTF-8" standalone="no"?>
<!-- Created with Inkscape (http://www.inkscape.org/) -->

<svg
   width="25.4mm"
   height="128.5mm"
   viewBox="0 0 25.4 128.5"
   version="1.1"
   id="svg1"
   inkscape:version="1.3.2 (091e20e, 2023-11-25, custom)"
   sodipodi:docname="Saw-VCO.svg"
   xmlns:inkscape="http://www.inkscape.org/namespaces/inkscape"
   xmlns:sodipodi="http://sodipodi.sourceforge.net/DTD/sodipodi-0.dtd"
   xmlns="http://www.w3.org/2000/svg"
   xmlns:svg="http://www.w3.org/2000/svg"
   xmlns:rdf="http://www.w3.org/1999/02/22-rdf-syntax-ns#"
   xmlns:cc="http://creativecommons.org/ns#"
   xmlns:dc="http://purl.org/dc/elements/1.1/">
  <title
     id="title8">STS Template Medium</title>
  <sodipodi:namedview
     id="namedview1"
     pagecolor="#ffffff"
     bordercolor="#000000"
     borderopacity="0.25"
     inkscape:showpageshadow="2"
     inkscape:pageopacity="0.0"
     inkscape:pagecheckerboard="false"
     inkscape:deskcolor="#d1d1d1"
     inkscape:document-units="mm"
     inkscape:zoom="2.0274078"
     inkscape:cx="70.286797"
     inkscape:cy="106.04675"
     inkscape:window-width="1920"
     inkscape:window-height="1010"
     inkscape:window-x="-6"
     inkscape:window-y="-6"
     inkscape:window-maximized="1"
     inkscape:current-layer="layer1" />
  <defs
     id="defs1">
    <rect
       x="-188.91118"
       y="163.26267"
       width="59.188883"
       height="31.567404"
       id="rect1" />
    <rect
       x="-188.91118"
       y="163.26266"
       width="59.188885"
       height="31.567404"
       id="rect1-7" />
    <rect
       x="-188.91118"
       y="163.26266"
       width="59.188885"
       height="31.567404"
       id="rect1-7-3" />
    <rect
       x="-188.91118"
       y="163.26266"
       width="59.188885"
       height="31.567404"
       id="rect1-7-3-9" />
    <rect
       x="-188.91118"
       y="163.26266"
       width="59.188885"
       height="31.567404"
       id="rect1-9" />
    <rect
       x="-188.91118"
       y="163.26266"
       width="59.188885"
       height="31.567404"
       id="rect1-7-3-9-5" />
    <rect
       x="-188.91118"
       y="163.26266"
       width="59.188885"
       height="31.567404"
       id="rect1-7-3-9-7" />
    <rect
       x="-188.91118"
       y="163.26266"
       width="59.188885"
       height="31.567404"
       id="rect1-7-3-97" />
    <rect
       x="-188.91118"
       y="163.26266"
       width="59.188885"
       height="31.567404"
       id="rect1-7-3-97-3" />
    <rect
       x="-188.91118"
       y="163.26266"
       width="59.188885"
       height="31.567404"
       id="rect1-7-3-97-3-8" />
    <rect
       x="-188.91118"
       y="163.26266"
       width="59.188885"
       height="31.567404"
       id="rect1-7-3-97-3-8-3" />
    <rect
       x="-188.91118"
       y="163.26266"
       width="59.188885"
       height="31.567404"
       id="rect1-7-3-97-3-8-3-9" />
    <rect
       x="-188.91118"
       y="163.26266"
       width="59.188885"
       height="31.567404"
       id="rect1-7-3-97-3-8-3-9-8" />
    <rect
       x="-188.91118"
       y="163.26266"
       width="59.188885"
       height="31.567404"
       id="rect1-7-3-97-3-8-3-9-8-4" />
  </defs>
  <g
     inkscape:label="Layer 1"
     inkscape:groupmode="layer"
     id="layer1"
     style="display:inline">
    <rect
       style="fill:#93b5cf;fill-opacity:1;stroke:#93b5cf;stroke-width:0.065;stroke-linejoin:miter;stroke-miterlimit:0;stroke-dasharray:none;stroke-opacity:1;paint-order:normal"
       id="guid-133bc867-ad6a-494a-bd77-ef0c326a6449"
       width="25.334633"
       height="128.43465"
       x="0.032499999"
       y="0.032683566"
       ry="0"
       inkscape:transform-center-x="0.13475906"
       inkscape:transform-center-y="11.262005"
       inkscape:label="Panel">
      <title
         id="title27">Panel</title>
    </rect>
    <rect
       style="font-size:3.175px;font-family:'Comic Sans MS';-inkscape-font-specification:'Comic Sans MS, Normal';text-align:center;text-anchor:middle;display:inline;fill:#c0c0c0;fill-opacity:1;stroke:#505050;stroke-width:0.167486;stroke-miterlimit:0;stroke-dasharray:none;stroke-opacity:1"
       id="guid-5b20c061-18d6-436b-9422-6e5ea1c08229"
       width="9.8325138"
       height="9.8325138"
       x="2.0837431"
       y="9.0837431"
       ry="2.3805037"
       inkscape:label="Input Block">
      <desc
         id="desc7">Input Block</desc>
      <title
         id="title7">Input Block</title>
    </rect>
    <rect
       style="font-size:3.175px;font-family:'Comic Sans MS';-inkscape-font-specification:'Comic Sans MS, Normal';text-align:center;text-anchor:middle;display:inline;fill:#a0a0a0;fill-opacity:1;stroke:#505050;stroke-width:0.167486;stroke-miterlimit:0;stroke-dasharray:none;stroke-opacity:1"
       id="guid-17a95c6b-1a97-4263-9d0a-42aa97d28769"
       width="9.8325138"
       height="9.8325138"
       x="13.483743"
       y="9.0837431"
       ry="2.3805037"
       inkscape:label="Output Block">
      <desc
         id="desc7-0">Input Block</desc>
      <title
         id="title7-9">Output Block</title>
    </rect>
    <g
       id="guid-836c62ac-2363-4971-88ce-5a5d0a73b10b"
       style="font-size:3.175px;font-family:'Comic Sans MS';-inkscape-font-specification:'Comic Sans MS, Normal';text-align:center;text-anchor:middle;stroke:#000000;stroke-width:0;stroke-miterlimit:0"
       inkscape:label="Brand"
       aria-label="Sm@rTAZZ&#10;Studio"
       transform="matrix(0.99997702,0,0,1,8.1047871e-5,-3.81625)">
      <path
         d="m 3.5270624,121.95735 q -0.00155,-0.0651 0.043408,-0.10542 0.046509,-0.0419 0.1131713,-0.0419 0.075964,0 0.1333252,0.0868 0.079065,0.11783 0.1410767,0.15968 0.1317749,0.0868 0.3829224,0.0868 0.2402954,0 0.4464843,-0.10387 0.2635498,-0.13332 0.2635498,-0.37052 0,-0.19534 -0.2216919,-0.30851 -0.1875854,-0.0977 -0.4635376,-0.10542 -0.2449462,-0.009 -0.4170288,-0.10697 -0.2201416,-0.12557 -0.2201416,-0.35967 0,-0.27595 0.3131592,-0.50384 0.2992066,-0.21549 0.6185669,-0.21549 0.1503784,0 0.3395142,0.0512 0.2511474,0.0667 0.2511474,0.17053 0,0.13643 -0.1395264,0.13643 -0.062012,0 -0.217041,-0.0326 -0.1550293,-0.0341 -0.2402954,-0.0326 -0.2418457,0.003 -0.4108276,0.11938 -0.1736328,0.11937 -0.1736328,0.2899 0,0.12868 0.2294433,0.18139 0.085266,0.0202 0.3302124,0.0372 0.3550171,0.0264 0.5550049,0.22324 0.1829346,0.17984 0.1829346,0.43874 0,0.36897 -0.3410645,0.58911 -0.2961059,0.19069 -0.6867797,0.19069 -0.2837036,0 -0.5193482,-0.10853 -0.2883545,-0.13332 -0.2930053,-0.36586 z m 4.1780395,0.51469 q -0.127124,0 -0.1488281,-0.13487 -0.027905,-0.17053 -0.055811,-0.48059 l -0.05271,-0.48059 q -0.015503,-0.10697 -0.05271,-0.20929 -0.05271,-0.13953 -0.1147217,-0.13953 -0.057361,0 -0.2139404,0.0977 -0.1488281,0.0899 -0.1953369,0.14418 -0.00155,0.14572 0.00775,0.29145 l 0.046509,0.41393 q 0.029456,0.24495 0.029456,0.40463 0,0.0682 -0.043408,0.11162 -0.041858,0.045 -0.1085205,0.045 -0.066663,0 -0.1100708,-0.045 -0.041858,-0.0434 -0.041858,-0.11162 0,-0.18759 -0.038757,-0.55346 -0.037207,-0.36742 -0.037207,-0.555 0,-0.16434 -0.046509,-0.2558 -0.1085205,0.0496 -0.2201416,0.16123 l -0.1829345,0.20464 q -0.024805,0.0372 -0.079065,0.0977 0,0.093 -0.017053,0.2744 -0.017053,0.18138 -0.017053,0.2682 0,0.0465 0.013953,0.13022 0.015503,0.0837 0.015503,0.12093 0,0.0636 -0.048059,0.10697 -0.046509,0.0434 -0.1100708,0.0434 -0.1751831,0 -0.1751831,-0.39842 0,-0.093 0.017053,-0.2775 0.017053,-0.18449 0.017053,-0.27751 0,-0.0822 -0.015503,-0.24649 -0.013953,-0.16433 -0.013953,-0.24805 0,-0.35192 0.1581299,-0.35192 0.060461,0 0.1100708,0.0527 0.05116,0.0527 0.05116,0.11472 0,0.0295 -0.00775,0.0915 -0.00775,0.062 -0.00775,0.0946 l 0.0031,0.16278 q 0.080615,-0.16588 0.2371949,-0.29921 0.1565796,-0.13487 0.2666504,-0.13487 0.2433959,0 0.3348632,0.24184 0.085266,-0.11317 0.2030884,-0.16898 0.1178223,-0.0574 0.269751,-0.0574 0.2588989,0 0.3534668,0.27905 0.018604,0.0558 0.063562,0.43564 0.043408,0.26665 0.1116211,0.88831 0.00465,0.062 -0.041858,0.10542 -0.046509,0.0434 -0.1131714,0.0434 z m 2.3068361,-0.76739 q -0.1643313,0 -0.2837039,-0.0481 -0.1193725,-0.0481 -0.1922363,-0.14263 -0.083716,0.0822 -0.1643311,0.12403 -0.079065,0.0418 -0.1550293,0.0418 -0.1720825,0 -0.3255615,-0.13952 -0.1519287,-0.14108 -0.1519287,-0.30851 0,-0.28681 0.2247925,-0.524 0.2263428,-0.2372 0.513147,-0.2372 0.065112,0 0.1085205,0.0481 0.043408,0.0481 0.043408,0.11628 0,0.093 -0.1550293,0.13797 -0.206189,0.0589 -0.2914551,0.13488 -0.1255737,0.11007 -0.1255737,0.32401 0,0.045 0.041858,0.0868 0.048059,0.0465 0.1193725,0.0434 0.1348755,-0.006 0.2495972,-0.25114 0.1038696,-0.21394 0.1844849,-0.21394 0.065112,0 0.1054199,0.048 0.040308,0.0481 0.040308,0.11783 0,0.031 -0.010852,0.093 -0.0093,0.062 -0.0093,0.093 0,0.10077 0.086816,0.12713 0.034106,0.0109 0.1472784,0.0109 0.21239,0 0.297656,-0.10387 0.07752,-0.093 0.07752,-0.30851 0,-0.37982 -0.305408,-0.62012 -0.2790531,-0.22014 -0.6666264,-0.22014 -0.4511352,0 -0.7069335,0.34107 -0.2309937,0.30385 -0.2309937,0.76429 0,0.42478 0.2713013,0.71624 0.2821533,0.30385 0.7255371,0.30385 0.1255737,0 0.2837036,-0.0481 l 0.2713016,-0.10077 q 0.06821,-0.0248 0.08837,-0.0248 0.06356,0 0.11007,0.0512 0.04651,0.0496 0.04651,0.11627 0,0.14728 -0.3302125,0.23875 -0.2495971,0.0682 -0.4666381,0.0682 -0.2185913,0 -0.4480347,-0.0853 -0.2278931,-0.0837 -0.3906738,-0.22479 -0.4805908,-0.41548 -0.4805908,-1.01079 0,-0.59531 0.3286621,-0.99529 0.3488159,-0.42788 0.9286254,-0.42788 0.5239991,0 0.8976204,0.31471 0.392224,0.33331 0.392224,0.84336 0,0.34882 -0.170533,0.5364 -0.178283,0.19379 -0.522448,0.19379 z m 2.353345,-0.50695 q -0.01085,0.19379 -0.15503,0.19379 -0.133325,0 -0.133325,-0.15348 0,-0.0295 -0.0047,-0.10852 l -0.0047,-0.13023 q -0.244946,0.0295 -0.392224,0.13798 -0.137976,0.10077 -0.229443,0.30386 l 0.0031,0.84956 q 0,0.15658 -0.153479,0.15658 -0.136426,0 -0.136426,-0.15658 v -1.08831 q 0,-0.0512 0.0031,-0.15348 0.0047,-0.10232 0.0047,-0.15348 0,-0.15657 0.136426,-0.15657 0.151929,0 0.153479,0.25734 0.297656,-0.2868 0.660425,-0.2868 0.125574,0 0.187585,0.0946 0.06201,0.0946 0.06201,0.28525 0,0.0806 -0.0015,0.10852 z m 2.215368,-0.81235 q -0.114722,0 -0.353467,-0.0186 -0.232544,-0.0171 -0.353467,-0.0155 h -0.11007 q 0.0047,0.21394 0.04186,0.69453 0.03411,0.44804 0.03411,0.69608 0,0.0543 0.01085,0.16434 0.01085,0.11007 0.01085,0.16588 0,0.10542 -0.03411,0.18138 -0.04341,0.10232 -0.134876,0.10232 -0.06201,0 -0.111621,-0.0434 -0.04961,-0.0434 -0.04961,-0.11162 0,-0.0232 0.0078,-0.0698 0.0078,-0.0465 0.0078,-0.0698 0,-0.076 -0.01085,-0.2279 -0.0093,-0.15193 -0.0093,-0.22944 0,-0.22169 -0.03566,-0.62322 -0.03721,-0.43408 -0.04186,-0.62322 l -0.141077,0.002 q -0.339514,0 -0.5333,-0.0496 -0.125574,-0.0326 -0.125574,-0.15347 0,-0.0636 0.04031,-0.11163 0.04651,-0.0543 0.119372,-0.0496 0.05426,0.003 0.248047,0.0279 0.155029,0.0186 0.251147,0.0186 0.09302,0 0.282154,-0.003 0.189136,-0.005 0.282153,-0.005 0.119373,0 0.353467,0.0171 0.235644,0.017 0.355017,0.017 0.06666,0 0.111621,0.0465 0.04496,0.045 0.04496,0.11317 0,0.0667 -0.04496,0.11317 -0.04496,0.045 -0.111621,0.045 z m 1.984375,2.00453 q -0.142627,0 -0.248047,-0.36587 -0.04031,-0.13953 -0.100769,-0.48834 -0.15813,0.0217 -0.413928,0.0775 l -0.412378,0.0853 q -0.07752,0.20309 -0.2651,0.59376 -0.04961,0.0868 -0.134876,0.0868 -0.06201,0 -0.111621,-0.045 -0.04806,-0.045 -0.04806,-0.11162 0,-0.0744 0.234094,-0.56586 -0.02636,-0.0403 -0.02636,-0.093 0,-0.12557 0.151929,-0.16123 0.176733,-0.33176 0.446484,-0.76274 0.36742,-0.58756 0.457337,-0.58756 0.122473,0 0.167431,0.17053 l 0.09767,0.5209 0.230994,1.07745 0.08837,0.24495 q 0.04496,0.12557 0.04496,0.16743 0,0.0667 -0.04806,0.11162 -0.04806,0.045 -0.110071,0.045 z m -0.547254,-1.77199 -0.443383,0.71469 q 0.187585,-0.0481 0.568957,-0.11627 z m 2.894398,-0.21394 -0.20929,0.14263 q -0.282153,0.21859 -0.638721,0.69918 l -0.544153,0.7922 q -0.03876,0.0589 -0.07596,0.10852 l 0.603064,-0.0232 q 0.395325,-0.0186 0.604614,-0.0186 0.204639,0 0.302307,0.0186 0.125574,0.0248 0.130225,0.12712 0.0031,0.076 -0.04961,0.12092 -0.04651,0.0388 -0.116272,0.0388 -0.04496,0 -0.134876,-0.006 -0.08992,-0.005 -0.134875,-0.005 -0.235645,0 -0.708484,0.0109 -0.471289,0.0124 -0.706934,0.0124 -0.178283,0 -0.178283,-0.15658 0,-0.10232 0.09612,-0.25734 l 0.165881,-0.231 0.559656,-0.77825 q 0.345715,-0.45733 0.643371,-0.71003 l -0.542602,0.031 H 17.35103 q -0.01705,0 -0.05116,0.003 -0.03256,0.002 -0.04806,0.002 -0.164331,0 -0.164331,-0.15968 0,-0.10542 0.08372,-0.13953 0.05116,-0.0217 0.168982,-0.0217 0.10697,0 0.31781,0.0233 0.21239,0.0217 0.31936,0.0217 0.119372,0 0.356567,-0.0155 0.238745,-0.0155 0.359668,-0.0155 0.398426,0 0.398426,0.15038 0,0.10232 -0.179834,0.23564 z m 2.201416,0 -0.20929,0.14263 q -0.282153,0.21859 -0.638721,0.69918 l -0.544152,0.7922 q -0.03876,0.0589 -0.07597,0.10852 l 0.603064,-0.0232 q 0.395325,-0.0186 0.604614,-0.0186 0.204639,0 0.302307,0.0186 0.125574,0.0248 0.130225,0.12712 0.0031,0.076 -0.04961,0.12092 -0.04651,0.0388 -0.116272,0.0388 -0.04496,0 -0.134876,-0.006 -0.08992,-0.005 -0.134875,-0.005 -0.235645,0 -0.708484,0.0109 -0.471289,0.0124 -0.706934,0.0124 -0.178283,0 -0.178283,-0.15658 0,-0.10232 0.09612,-0.25734 l 0.165881,-0.231 0.559656,-0.77825 q 0.345715,-0.45733 0.643371,-0.71003 l -0.542602,0.031 h -0.626318 q -0.01705,0 -0.05116,0.003 -0.03256,0.002 -0.04806,0.002 -0.164331,0 -0.164331,-0.15968 0,-0.10542 0.08372,-0.13953 0.05116,-0.0217 0.168982,-0.0217 0.10697,0 0.31781,0.0233 0.21239,0.0217 0.31936,0.0217 0.119372,0 0.356567,-0.0155 0.238745,-0.0155 0.359668,-0.0155 0.398426,0 0.398426,0.15038 0,0.10232 -0.179834,0.23564 z"
         id="path2" />
      <path
         d="m 7.6570428,125.9261 q -0.00155,-0.0651 0.043408,-0.10542 0.046509,-0.0419 0.1131714,-0.0419 0.075964,0 0.1333251,0.0868 0.079065,0.11783 0.1410767,0.15968 0.1317749,0.0868 0.3829224,0.0868 0.2402954,0 0.4464843,-0.10387 0.2635498,-0.13332 0.2635498,-0.37052 0,-0.19534 -0.2216919,-0.30851 -0.1875854,-0.0977 -0.4635376,-0.10542 -0.2449462,-0.009 -0.4170288,-0.10697 -0.2201416,-0.12557 -0.2201416,-0.35967 0,-0.27595 0.3131592,-0.50384 0.2992066,-0.21549 0.6185669,-0.21549 0.1503784,0 0.3395142,0.0512 0.2511474,0.0667 0.2511474,0.17053 0,0.13643 -0.1395263,0.13643 -0.062012,0 -0.2170411,-0.0326 -0.1550293,-0.0341 -0.2402954,-0.0326 -0.2418457,0.003 -0.4108276,0.11938 -0.1736328,0.11937 -0.1736328,0.2899 0,0.12868 0.2294434,0.18139 0.085266,0.0202 0.3302123,0.0372 0.3550171,0.0264 0.5550049,0.22324 0.1829346,0.17984 0.1829346,0.43874 0,0.36897 -0.3410645,0.58911 -0.2961059,0.19069 -0.6867797,0.19069 -0.2837036,0 -0.5193482,-0.10853 -0.2883545,-0.13332 -0.2930053,-0.36586 z m 3.2463132,-0.93483 q -0.03256,0 -0.07751,-0.003 -0.04341,-0.003 -0.07597,-0.003 -0.03566,0 -0.21084,0.0233 l 0.02946,0.91623 0.0015,0.0682 0.0016,0.0791 q 0.0062,0.33952 -0.162781,0.33952 -0.06201,0 -0.108521,-0.0403 -0.04496,-0.0403 -0.04496,-0.10077 0,-0.0589 0.0047,-0.17673 0.0047,-0.11783 0.0047,-0.17674 l -0.03101,-0.90537 q -0.113172,-0.005 -0.3441654,-0.0264 -0.137976,-0.0186 -0.137976,-0.15348 0,-0.0682 0.041858,-0.11317 0.041858,-0.045 0.1069702,-0.045 l 0.3255612,0.0263 q 0,-0.0791 -0.0078,-0.21084 -0.0062,-0.13332 -0.0062,-0.19223 0,-0.0651 0.04496,-0.10697 0.04496,-0.0434 0.110071,-0.0434 0.139526,0 0.162781,0.22789 0.0047,0.0574 0.0047,0.13798 l -0.0031,0.0899 -0.0015,0.0961 q 0.192236,-0.0248 0.220141,-0.0248 0.161231,0 0.21084,0.0155 0.09457,0.031 0.09457,0.14573 0,0.0682 -0.04341,0.11317 -0.04186,0.0434 -0.108521,0.0434 z m 1.723926,0.41548 q 0,0.11162 0.0015,0.33486 0.0016,0.22324 0.0016,0.33486 0,0.0341 0.0046,0.10387 0.0062,0.0698 0.0062,0.10387 0,0.0667 -0.04496,0.10852 -0.04496,0.0434 -0.110071,0.0434 -0.119372,0 -0.151928,-0.14728 -0.193787,0.10077 -0.446485,0.10077 -0.203088,0 -0.336413,-0.0899 -0.147278,-0.0992 -0.175183,-0.28991 -0.06046,-0.41083 -0.06046,-0.73174 0,-0.21239 0.04651,-0.48369 0.0217,-0.13487 0.147278,-0.13487 0.06666,0 0.111621,0.0434 0.04496,0.0419 0.04496,0.10852 0,0.0713 -0.02325,0.2279 -0.0217,0.15658 -0.0217,0.23874 0,0.2589 0.01705,0.44339 0.01705,0.18448 0.05116,0.2961 0.05116,0.0279 0.100769,0.0434 0.04961,0.014 0.09767,0.014 0.20774,0 0.438733,-0.0667 l -0.0015,-0.31471 -0.0031,-0.30076 q 0,-0.33486 0.02946,-0.58136 0.01705,-0.14262 0.150378,-0.14262 0.06666,0 0.111621,0.0434 0.04496,0.0434 0.04186,0.10852 z m 1.813843,-0.46354 q -0.0186,0.22789 -0.0186,0.45579 0,0.51624 0.04806,0.77979 0.0031,0.0217 0.0031,0.0357 0,0.062 -0.04341,0.10232 -0.04341,0.0403 -0.100769,0.0403 -0.09612,0 -0.141077,-0.13953 -0.111621,0.0822 -0.232544,0.12402 -0.119372,0.0419 -0.249597,0.0419 -0.320911,0 -0.531751,-0.21394 -0.217041,-0.21859 -0.217041,-0.5612 0,-0.41393 0.218592,-0.66353 0.220141,-0.2496 0.570508,-0.2496 0.179834,0 0.277502,0.0558 l 0.145728,0.10697 q 0.0217,-0.65267 0.05116,-0.87901 0.02015,-0.13798 0.141077,-0.13798 0.141076,0 0.141076,0.15038 0,0.21549 -0.06201,0.95188 z m -0.68833,0.0403 q -0.26045,0 -0.390674,0.15503 -0.130225,0.15348 -0.130225,0.46353 0,0.19999 0.141077,0.34417 0.142627,0.14418 0.333313,0.14418 0.130225,0 0.220142,-0.0481 0.05271,-0.0279 0.172082,-0.12868 0.02325,-0.0202 0.04496,-0.0481 l -0.0047,-0.2682 0.0015,-0.17983 0.0031,-0.18294 q -0.05891,-0.12557 -0.15658,-0.18758 -0.09767,-0.0636 -0.234094,-0.0636 z m 1.421619,-0.63407 q -0.07442,0 -0.128675,-0.0527 -0.05426,-0.0527 -0.05426,-0.12713 0,-0.0744 0.05426,-0.12712 0.05426,-0.0527 0.128675,-0.0527 0.07441,0 0.127124,0.0527 0.05426,0.0527 0.05426,0.12712 0,0.0744 -0.05426,0.12713 -0.05271,0.0527 -0.127124,0.0527 z m 0.06976,1.25884 q 0,0.093 0.0047,0.27905 0.0062,0.18448 0.0062,0.2775 0,0.0682 -0.04186,0.11162 -0.04186,0.0434 -0.110071,0.0434 -0.06666,0 -0.110071,-0.0434 -0.04186,-0.0434 -0.04186,-0.11162 0,-0.093 -0.0062,-0.2775 -0.0047,-0.18604 -0.0047,-0.27905 0,-0.14573 0.0155,-0.36277 0.0155,-0.21859 0.0155,-0.36432 0,-0.0698 0.04186,-0.11317 0.04341,-0.0434 0.110071,-0.0434 0.06666,0 0.10852,0.0434 0.04341,0.0434 0.04341,0.11317 0,0.14573 -0.0155,0.36432 -0.0155,0.21704 -0.0155,0.36277 z m 1.105358,0.7953 q -0.260449,0 -0.448034,-0.19224 -0.20929,-0.21394 -0.220142,-0.57516 -0.0093,-0.35037 0.176733,-0.61702 0.217041,-0.31471 0.604615,-0.31471 0.310058,0 0.469738,0.28371 0.127124,0.22944 0.122474,0.5519 -0.0047,0.34417 -0.179834,0.58756 -0.198438,0.27596 -0.52555,0.27596 z m 0.09302,-1.38442 q -0.227893,-0.002 -0.355017,0.21705 -0.100769,0.17518 -0.100769,0.39997 0,0.22479 0.122473,0.35037 0.102319,0.10387 0.240295,0.10387 0.161231,0 0.277503,-0.11783 0.131775,-0.13022 0.139526,-0.35191 0.0217,-0.59997 -0.324011,-0.60152 z"
         id="path3" />
      <desc
         id="desc6">Brand</desc>
      <title
         id="title6">Brand</title>
    </g>
    <rect
       style="display:inline;fill:#c0c0c0;fill-opacity:1;stroke:#505050;stroke-width:0.214884;stroke-miterlimit:0;stroke-dasharray:none;stroke-opacity:1"
       id="guid-e177fcca-23db-4d9a-8f50-21ab1e5511d2"
       width="23.03142"
       height="43.785118"
       x="1.1145678"
       y="24.568306"
       ry="2.0181518"
       inkscape:label="Modulation Block">
      <desc
         id="desc9">Output Block</desc>
      <title
         id="title9">Modulation Block</title>
    </rect>
    <rect
       style="display:inline;fill:#c0c0c0;fill-opacity:1;stroke:#505050;stroke-width:0.213348;stroke-miterlimit:0;stroke-dasharray:none;stroke-opacity:1"
       id="guid-c6124b5b-7089-4f40-8008-45f5eb46cf5e"
       width="23.032955"
       height="43.158672"
       x="0.90042377"
       y="70.106674"
       ry="1.9892776"
       inkscape:label="Parameter Block">
      <desc
         id="desc9-4">Output Block</desc>
      <title
         id="title9-9">Parameter Block</title>
    </rect>
    <path
       d="m -168.4082,169.88718 q 0,-2.13867 1.14843,-3.34571 1.14844,-1.21289 2.96485,-1.21289 1.18945,0 2.14453,0.56836 0.95508,0.56836 1.45312,1.58789 0.50391,1.01368 0.50391,2.30274 0,1.30664 -0.52734,2.33789 -0.52735,1.03125 -1.49414,1.56445 -0.9668,0.52735 -2.08594,0.52735 -1.21289,0 -2.16797,-0.58594 -0.95508,-0.58594 -1.44727,-1.59961 -0.49218,-1.01367 -0.49218,-2.14453 z m 1.17187,0.0176 q 0,1.55273 0.83203,2.44921 0.83789,0.89063 2.09766,0.89063 1.2832,0 2.10937,-0.90234 0.83204,-0.90235 0.83204,-2.56055 0,-1.04883 -0.35743,-1.82813 -0.35156,-0.78515 -1.03711,-1.21289 -0.67968,-0.43359 -1.52929,-0.43359 -1.20703,0 -2.08008,0.83203 -0.86719,0.82617 -0.86719,2.76563 z m 12.45117,4.16601 v -0.91406 q -0.72656,1.05469 -1.97461,1.05469 -0.55078,0 -1.03125,-0.21094 -0.4746,-0.21094 -0.70898,-0.52734 -0.22852,-0.32227 -0.32227,-0.78516 -0.0644,-0.31055 -0.0644,-0.98438 v -3.85546 h 1.05469 v 3.45117 q 0,0.82617 0.0644,1.11328 0.0996,0.41601 0.42188,0.65625 0.32226,0.23437 0.79687,0.23437 0.47461,0 0.89063,-0.24023 0.41601,-0.24609 0.58593,-0.66211 0.17579,-0.42188 0.17579,-1.21875 v -3.33398 h 1.05468 v 6.22265 z m 4.89844,-0.94336 0.15235,0.93164 q -0.44532,0.0937 -0.79688,0.0937 -0.57422,0 -0.89062,-0.18164 -0.31641,-0.18164 -0.44532,-0.47461 -0.1289,-0.29883 -0.1289,-1.24804 v -3.58008 h -0.77344 v -0.82031 h 0.77344 v -1.54102 l 1.04882,-0.63281 v 2.17383 h 1.06055 v 0.82031 h -1.06055 v 3.63867 q 0,0.45117 0.0527,0.58008 0.0586,0.1289 0.18164,0.20508 0.12891,0.0762 0.36328,0.0762 0.17578,0 0.46289,-0.041 z"
       id="guid-37658660-4641-49a3-b4d1-90e9afedfbba"
       style="font-size:12px;font-family:Arial;-inkscape-font-specification:'Arial, Normal';text-align:center;white-space:pre;stroke:#00ff00;stroke-width:0;stroke-miterlimit:0"
       inkscape:label="Out label"
       transform="matrix(0.26458333,0,0,0.26458333,60.958003,-23.743187)"
       aria-label="Out">
      <title
         id="title26">Out label</title>
    </path>
    <path
       style="font-size:12px;font-family:Arial;-inkscape-font-specification:'Arial, Normal';text-align:center;white-space:pre;stroke:#000000;stroke-width:0;stroke-miterlimit:0"
       d="m -174.39355,174.07077 v -8.58984 h 3.24023 q 0.85547,0 1.30664,0.082 0.63281,0.10547 1.06055,0.4043 0.42773,0.29296 0.68554,0.82617 0.26368,0.5332 0.26368,1.17187 0,1.09571 -0.69727,1.85742 -0.69727,0.75586 -2.51953,0.75586 h -2.20313 v 3.49219 z m 1.13671,-4.50586 h 2.22071 q 1.10156,0 1.56445,-0.41015 0.46289,-0.41016 0.46289,-1.1543 0,-0.53906 -0.27539,-0.91992 -0.26953,-0.38672 -0.71484,-0.50977 -0.28711,-0.0762 -1.06055,-0.0762 h -2.19727 z m 6.83204,4.50586 v -8.58984 h 1.71093 l 2.03321,6.08203 q 0.28125,0.84961 0.41015,1.27148 0.14649,-0.46875 0.45703,-1.37695 l 2.05664,-5.97656 h 1.5293 v 8.58984 h -1.0957 v -7.18945 l -2.4961,7.18945 h -1.02539 l -2.48437,-7.3125 v 7.3125 z m 9.48632,-2.57812 v -1.06055 h 3.24024 v 1.06055 z m 4.73438,2.57812 v -8.58984 h 1.13672 v 8.58984 z m 3.00586,0 v -6.22265 h 0.94922 v 0.88476 q 0.68554,-1.02539 1.98047,-1.02539 0.5625,0 1.03125,0.20508 0.4746,0.19922 0.70898,0.52734 0.23437,0.32813 0.32812,0.7793 0.0586,0.29297 0.0586,1.02539 v 3.82617 h -1.05469 v -3.78515 q 0,-0.64454 -0.12305,-0.96094 -0.12304,-0.32227 -0.43945,-0.50977 -0.31055,-0.19336 -0.73242,-0.19336 -0.67383,0 -1.16602,0.42774 -0.48632,0.42773 -0.48632,1.62304 v 3.39844 z"
       id="guid-cf0d8384-f17a-4bb3-93d2-d556ab45062b"
       transform="matrix(0.26458597,0,0,0.26458333,49.055192,6.216505)"
       aria-label="PM-In"
       inkscape:label="PM-In label">
      <title
         id="title25">PM-In label</title>
    </path>
    <path
       style="font-size:12px;font-family:Arial;-inkscape-font-specification:'Arial, Normal';text-align:center;white-space:pre;stroke:#000000;stroke-width:0;stroke-miterlimit:0"
       d="m -173.99805,174.07077 v -8.58984 h 5.79493 v 1.01367 h -4.65821 v 2.66016 h 4.03125 v 1.01367 h -4.03125 v 3.90234 z m 7.23633,0 v -8.58984 h 1.71094 l 2.0332,6.08203 q 0.28125,0.84961 0.41016,1.27148 0.14648,-0.46875 0.45703,-1.37695 l 2.05664,-5.97656 h 1.5293 v 8.58984 h -1.09571 v -7.18945 l -2.49609,7.18945 h -1.02539 l -2.48438,-7.3125 v 7.3125 z m 9.48633,-2.57812 v -1.06055 h 3.24023 v 1.06055 z m 4.73437,2.57812 v -8.58984 h 1.13672 v 8.58984 z m 3.00586,0 v -6.22265 h 0.94922 v 0.88476 q 0.68555,-1.02539 1.98047,-1.02539 0.5625,0 1.03125,0.20508 0.47461,0.19922 0.70899,0.52734 0.23437,0.32813 0.32812,0.7793 0.0586,0.29297 0.0586,1.02539 v 3.82617 h -1.05468 v -3.78515 q 0,-0.64454 -0.12305,-0.96094 -0.12305,-0.32227 -0.43945,-0.50977 -0.31055,-0.19336 -0.73242,-0.19336 -0.67383,0 -1.16602,0.42774 -0.48633,0.42773 -0.48633,1.62304 v 3.39844 z"
       id="guid-ac70a577-6f01-4c9e-a4c6-03339188387c"
       transform="matrix(0.26458597,0,0,0.26458333,49.284901,-8.783495)"
       aria-label="FM-In"
       inkscape:label="FM-In label">
      <title
         id="title24">FM-In label</title>
    </path>
    <path
       style="font-size:12px;font-family:Arial;-inkscape-font-specification:'Arial, Normal';text-align:center;white-space:pre;stroke:#000000;stroke-width:0;stroke-miterlimit:0"
       d="m -179.00488,174.07077 v -8.58984 h 5.79492 v 1.01367 h -4.6582 v 2.66016 h 4.03125 v 1.01367 h -4.03125 v 3.90234 z m 7.23633,0 v -8.58984 h 1.71093 l 2.03321,6.08203 q 0.28125,0.84961 0.41015,1.27148 0.14649,-0.46875 0.45703,-1.37695 l 2.05664,-5.97656 h 1.5293 v 8.58984 h -1.0957 v -7.18945 l -2.4961,7.18945 h -1.02539 l -2.48437,-7.3125 v 7.3125 z m 11.75976,0 3.29883,-8.58984 h 1.22461 l 3.51562,8.58984 h -1.29492 l -1.00195,-2.60156 h -3.5918 l -0.94336,2.60156 z m 2.47852,-3.52734 h 2.91211 l -0.89649,-2.37891 q -0.41015,-1.08398 -0.60937,-1.78125 -0.16407,0.82617 -0.46289,1.64063 z m 8.63672,2.58398 0.15234,0.93164 q -0.44531,0.0937 -0.79688,0.0937 -0.57421,0 -0.89062,-0.18164 -0.31641,-0.18164 -0.44531,-0.47461 -0.12891,-0.29883 -0.12891,-1.24804 v -3.58008 h -0.77344 v -0.82031 h 0.77344 v -1.54102 l 1.04883,-0.63281 v 2.17383 h 1.06055 v 0.82031 h -1.06055 v 3.63867 q 0,0.45117 0.0527,0.58008 0.0586,0.1289 0.18164,0.20508 0.12891,0.0762 0.36328,0.0762 0.17579,0 0.4629,-0.041 z m 3.33398,0 0.15234,0.93164 q -0.44531,0.0937 -0.79687,0.0937 -0.57422,0 -0.89063,-0.18164 -0.3164,-0.18164 -0.44531,-0.47461 -0.12891,-0.29883 -0.12891,-1.24804 v -3.58008 h -0.77343 v -0.82031 h 0.77343 v -1.54102 l 1.04883,-0.63281 v 2.17383 h 1.06055 v 0.82031 h -1.06055 v 3.63867 q 0,0.45117 0.0527,0.58008 0.0586,0.1289 0.18164,0.20508 0.1289,0.0762 0.36328,0.0762 0.17578,0 0.46289,-0.041 z m 1.03125,0.94336 v -6.22265 h 0.94922 v 0.88476 q 0.68555,-1.02539 1.98047,-1.02539 0.5625,0 1.03125,0.20508 0.47461,0.19922 0.70898,0.52734 0.23438,0.32813 0.32813,0.7793 0.0586,0.29297 0.0586,1.02539 v 3.82617 h -1.05469 v -3.78515 q 0,-0.64454 -0.12304,-0.96094 -0.12305,-0.32227 -0.43946,-0.50977 -0.31054,-0.19336 -0.73242,-0.19336 -0.67383,0 -1.16601,0.42774 -0.48633,0.42773 -0.48633,1.62304 v 3.39844 z"
       id="guid-f4c2415b-d89d-4397-8c17-181637d51a17"
       transform="matrix(0.26458597,0,0,0.26458333,60.554794,-8.783495)"
       aria-label="FM Attn"
       inkscape:label="FM Attn label">
      <title
         id="title23">FM Attn label</title>
    </path>
    <path
       style="font-size:12px;font-family:Arial;-inkscape-font-specification:'Arial, Normal';text-align:center;white-space:pre;stroke:#000000;stroke-width:0;stroke-miterlimit:0"
       d="m -179.40039,174.07077 v -8.58984 h 3.24023 q 0.85547,0 1.30664,0.082 0.63282,0.10547 1.06055,0.4043 0.42774,0.29296 0.68555,0.82617 0.26367,0.5332 0.26367,1.17187 0,1.09571 -0.69727,1.85742 -0.69726,0.75586 -2.51953,0.75586 h -2.20312 v 3.49219 z m 1.13672,-4.50586 h 2.2207 q 1.10156,0 1.56445,-0.41015 0.4629,-0.41016 0.4629,-1.1543 0,-0.53906 -0.2754,-0.91992 -0.26953,-0.38672 -0.71484,-0.50977 -0.28711,-0.0762 -1.06055,-0.0762 h -2.19726 z m 6.83203,4.50586 v -8.58984 h 1.71094 l 2.0332,6.08203 q 0.28125,0.84961 0.41016,1.27148 0.14648,-0.46875 0.45703,-1.37695 l 2.05664,-5.97656 h 1.5293 v 8.58984 h -1.09571 v -7.18945 l -2.49609,7.18945 h -1.02539 l -2.48438,-7.3125 v 7.3125 z m 11.75977,0 3.29882,-8.58984 h 1.22461 l 3.51563,8.58984 h -1.29492 l -1.00196,-2.60156 h -3.59179 l -0.94336,2.60156 z m 2.47851,-3.52734 h 2.91211 l -0.89648,-2.37891 q -0.41016,-1.08398 -0.60938,-1.78125 -0.16406,0.82617 -0.46289,1.64063 z m 8.63672,2.58398 0.15234,0.93164 q -0.44531,0.0937 -0.79687,0.0937 -0.57422,0 -0.89063,-0.18164 -0.3164,-0.18164 -0.44531,-0.47461 -0.12891,-0.29883 -0.12891,-1.24804 v -3.58008 h -0.77343 v -0.82031 h 0.77343 v -1.54102 l 1.04883,-0.63281 v 2.17383 h 1.06055 v 0.82031 h -1.06055 v 3.63867 q 0,0.45117 0.0527,0.58008 0.0586,0.1289 0.18164,0.20508 0.1289,0.0762 0.36328,0.0762 0.17578,0 0.46289,-0.041 z m 3.33398,0 0.15235,0.93164 q -0.44531,0.0937 -0.79688,0.0937 -0.57422,0 -0.89062,-0.18164 -0.31641,-0.18164 -0.44531,-0.47461 -0.12891,-0.29883 -0.12891,-1.24804 v -3.58008 h -0.77344 v -0.82031 h 0.77344 v -1.54102 l 1.04883,-0.63281 v 2.17383 h 1.06054 v 0.82031 h -1.06054 v 3.63867 q 0,0.45117 0.0527,0.58008 0.0586,0.1289 0.18164,0.20508 0.12891,0.0762 0.36328,0.0762 0.17578,0 0.46289,-0.041 z m 1.03125,0.94336 v -6.22265 h 0.94922 v 0.88476 q 0.68555,-1.02539 1.98047,-1.02539 0.5625,0 1.03125,0.20508 0.47461,0.19922 0.70899,0.52734 0.23437,0.32813 0.32812,0.7793 0.0586,0.29297 0.0586,1.02539 v 3.82617 h -1.05468 v -3.78515 q 0,-0.64454 -0.12305,-0.96094 -0.12305,-0.32227 -0.43945,-0.50977 -0.31055,-0.19336 -0.73242,-0.19336 -0.67383,0 -1.16602,0.42774 -0.48633,0.42773 -0.48633,1.62304 v 3.39844 z"
       id="guid-678346f9-6204-405a-9cea-c57d2708c03f"
       transform="matrix(0.26459036,0,0,0.26458333,60.363069,6.216505)"
       aria-label="PM Attn"
       inkscape:label="PM Attn label">
      <title
         id="title22">PM Attn label</title>
    </path>
    <path
       style="font-size:12px;font-family:Arial;-inkscape-font-specification:'Arial, Normal';text-align:center;white-space:pre;stroke:#000000;stroke-width:0;stroke-miterlimit:0"
       d="m -176.94531,174.07077 -3.32813,-8.58984 h 1.23047 l 2.23242,6.24023 q 0.26953,0.75 0.45118,1.40625 0.19921,-0.70312 0.46289,-1.40625 l 2.32031,-6.24023 h 1.16015 l -3.36328,8.58984 z m 5.51367,0 v -8.58984 h 1.71094 l 2.0332,6.08203 q 0.28125,0.84961 0.41016,1.27148 0.14648,-0.46875 0.45703,-1.37695 l 2.05664,-5.97656 h 1.5293 v 8.58984 h -1.09571 v -7.18945 l -2.49609,7.18945 h -1.02539 l -2.48438,-7.3125 v 7.3125 z m 11.75977,0 3.29882,-8.58984 h 1.22461 l 3.51563,8.58984 h -1.29492 l -1.00196,-2.60156 h -3.59179 l -0.94336,2.60156 z m 2.47851,-3.52734 h 2.91211 l -0.89648,-2.37891 q -0.41016,-1.08398 -0.60938,-1.78125 -0.16406,0.82617 -0.46289,1.64063 z m 8.63672,2.58398 0.15234,0.93164 q -0.44531,0.0937 -0.79687,0.0937 -0.57422,0 -0.89063,-0.18164 -0.3164,-0.18164 -0.44531,-0.47461 -0.12891,-0.29883 -0.12891,-1.24804 v -3.58008 h -0.77343 v -0.82031 h 0.77343 v -1.54102 l 1.04883,-0.63281 v 2.17383 h 1.06055 v 0.82031 h -1.06055 v 3.63867 q 0,0.45117 0.0527,0.58008 0.0586,0.1289 0.18164,0.20508 0.1289,0.0762 0.36328,0.0762 0.17578,0 0.46289,-0.041 z m 3.33398,0 0.15235,0.93164 q -0.44531,0.0937 -0.79688,0.0937 -0.57422,0 -0.89062,-0.18164 -0.31641,-0.18164 -0.44531,-0.47461 -0.12891,-0.29883 -0.12891,-1.24804 v -3.58008 h -0.77344 v -0.82031 h 0.77344 v -1.54102 l 1.04883,-0.63281 v 2.17383 h 1.06054 v 0.82031 h -1.06054 v 3.63867 q 0,0.45117 0.0527,0.58008 0.0586,0.1289 0.18164,0.20508 0.12891,0.0762 0.36328,0.0762 0.17578,0 0.46289,-0.041 z m 1.03125,0.94336 v -6.22265 h 0.94922 v 0.88476 q 0.68555,-1.02539 1.98047,-1.02539 0.5625,0 1.03125,0.20508 0.47461,0.19922 0.70899,0.52734 0.23437,0.32813 0.32812,0.7793 0.0586,0.29297 0.0586,1.02539 v 3.82617 h -1.05468 v -3.78515 q 0,-0.64454 -0.12305,-0.96094 -0.12305,-0.32227 -0.43945,-0.50977 -0.31055,-0.19336 -0.73242,-0.19336 -0.67383,0 -1.16602,0.42774 -0.48633,0.42773 -0.48633,1.62304 v 3.39844 z"
       id="guid-60eabbb4-174c-4dbe-abb6-dd18b7d339ca"
       transform="matrix(0.26459036,0,0,0.26458333,60.467717,21.216505)"
       aria-label="VM Attn"
       inkscape:label="VM Attn label">
      <title
         id="title21">VM Attn label</title>
    </path>
    <path
       style="font-size:12px;font-family:Arial;-inkscape-font-specification:'Arial, Normal';text-align:center;white-space:pre;stroke:#000000;stroke-width:0;stroke-miterlimit:0"
       d="m -171.73047,174.07077 v -8.58984 h 3.24024 q 0.85546,0 1.30664,0.082 0.63281,0.10547 1.06054,0.4043 0.42774,0.29296 0.68555,0.82617 0.26367,0.5332 0.26367,1.17187 0,1.09571 -0.69726,1.85742 -0.69727,0.75586 -2.51953,0.75586 h -2.20313 v 3.49219 z m 1.13672,-4.50586 h 2.2207 q 1.10157,0 1.56446,-0.41015 0.46289,-0.41016 0.46289,-1.1543 0,-0.53906 -0.27539,-0.91992 -0.26953,-0.38672 -0.71485,-0.50977 -0.28711,-0.0762 -1.06054,-0.0762 h -2.19727 z m 6.73828,-2.87109 v -1.21289 h 1.05469 v 1.21289 z m 0,7.37695 v -6.22265 h 1.05469 v 6.22265 z m 4.96289,-0.94336 0.15235,0.93164 q -0.44532,0.0937 -0.79688,0.0937 -0.57422,0 -0.89062,-0.18164 -0.31641,-0.18164 -0.44532,-0.47461 -0.1289,-0.29883 -0.1289,-1.24804 v -3.58008 h -0.77344 v -0.82031 h 0.77344 v -1.54102 l 1.04883,-0.63281 v 2.17383 h 1.06054 v 0.82031 h -1.06054 v 3.63867 q 0,0.45117 0.0527,0.58008 0.0586,0.1289 0.18164,0.20508 0.12891,0.0762 0.36328,0.0762 0.17578,0 0.46289,-0.041 z m 5.0918,-1.33594 1.03711,0.13477 q -0.16992,1.07227 -0.87305,1.68164 -0.69726,0.60352 -1.7168,0.60352 -1.27734,0 -2.05664,-0.83203 -0.77343,-0.8379 -0.77343,-2.39649 0,-1.00781 0.33398,-1.76367 0.33399,-0.75586 1.01367,-1.13086 0.68555,-0.38086 1.48828,-0.38086 1.01368,0 1.65821,0.51563 0.64453,0.50976 0.82617,1.45312 l -1.02539,0.1582 q -0.14649,-0.62695 -0.52149,-0.94336 -0.36914,-0.3164 -0.89648,-0.3164 -0.79688,0 -1.29492,0.57422 -0.49805,0.56836 -0.49805,1.80468 0,1.25391 0.48047,1.82227 0.48047,0.56836 1.25391,0.56836 0.62109,0 1.03711,-0.38086 0.41601,-0.38086 0.52734,-1.17188 z m 1.93945,2.2793 v -8.58984 h 1.05469 v 3.08203 q 0.73828,-0.85547 1.86328,-0.85547 0.69141,0 1.20117,0.27539 0.50977,0.26953 0.72657,0.75 0.22265,0.48047 0.22265,1.39453 v 3.94336 h -1.05469 v -3.94336 q 0,-0.79101 -0.3457,-1.14844 -0.33984,-0.36328 -0.9668,-0.36328 -0.46875,0 -0.88476,0.2461 -0.41016,0.24023 -0.58594,0.65625 -0.17578,0.41601 -0.17578,1.14843 v 3.4043 z"
       id="guid-4e362417-c965-4f4f-a764-e104275f5997"
       transform="matrix(0.26458772,0,0,0.26458333,54.859428,36.216505)"
       aria-label="Pitch"
       inkscape:label="Pitch label">
      <title
         id="title20">Pitch label</title>
    </path>
    <path
       style="font-size:12px;font-family:Arial;-inkscape-font-specification:'Arial, Normal';text-align:center;white-space:pre;stroke:#000000;stroke-width:0;stroke-miterlimit:0"
       d="m -175.4043,174.07077 v -8.58984 h 3.24024 q 0.85547,0 1.30664,0.082 0.63281,0.10547 1.06055,0.4043 0.42773,0.29296 0.68554,0.82617 0.26367,0.5332 0.26367,1.17187 0,1.09571 -0.69726,1.85742 -0.69727,0.75586 -2.51953,0.75586 h -2.20313 v 3.49219 z m 1.13672,-4.50586 h 2.22071 q 1.10156,0 1.56445,-0.41015 0.46289,-0.41016 0.46289,-1.1543 0,-0.53906 -0.27539,-0.91992 -0.26953,-0.38672 -0.71485,-0.50977 -0.2871,-0.0762 -1.06054,-0.0762 h -2.19727 z m 6.73242,4.50586 v -8.58984 h 1.05469 v 3.08203 q 0.73828,-0.85547 1.86328,-0.85547 0.69141,0 1.20117,0.27539 0.50977,0.26953 0.72657,0.75 0.22265,0.48047 0.22265,1.39453 v 3.94336 h -1.05468 v -3.94336 q 0,-0.79101 -0.34571,-1.14844 -0.33984,-0.36328 -0.96679,-0.36328 -0.46875,0 -0.88477,0.2461 -0.41016,0.24023 -0.58594,0.65625 -0.17578,0.41601 -0.17578,1.14843 v 3.4043 z m 10.73438,-0.76758 q -0.58594,0.49805 -1.13086,0.70313 -0.53906,0.20508 -1.16016,0.20508 -1.02539,0 -1.57617,-0.49805 -0.55078,-0.50391 -0.55078,-1.2832 0,-0.45703 0.20508,-0.83203 0.21094,-0.38086 0.54492,-0.60938 0.33984,-0.22852 0.76172,-0.3457 0.31055,-0.082 0.9375,-0.15821 1.27734,-0.15234 1.88086,-0.36328 0.006,-0.21679 0.006,-0.27539 0,-0.64453 -0.29883,-0.9082 -0.4043,-0.35742 -1.20117,-0.35742 -0.74414,0 -1.10156,0.26367 -0.35157,0.25781 -0.52149,0.91992 l -1.03125,-0.14062 q 0.14063,-0.66211 0.46289,-1.06641 0.32227,-0.41016 0.93164,-0.62695 0.60938,-0.22266 1.41211,-0.22266 0.79688,0 1.29492,0.1875 0.49805,0.1875 0.73243,0.47461 0.23437,0.28125 0.32812,0.71484 0.0527,0.26953 0.0527,0.97266 v 1.40625 q 0,1.4707 0.0645,1.86328 0.0703,0.38672 0.26953,0.74414 h -1.10156 q -0.16407,-0.32812 -0.21094,-0.76758 z m -0.0879,-2.35547 q -0.57422,0.23438 -1.72266,0.39844 -0.65039,0.0937 -0.91992,0.21094 -0.26953,0.11719 -0.41602,0.3457 -0.14648,0.22266 -0.14648,0.49805 0,0.42187 0.31641,0.70312 0.32226,0.28125 0.9375,0.28125 0.60937,0 1.08398,-0.26367 0.47461,-0.26953 0.69727,-0.73242 0.16992,-0.35742 0.16992,-1.05469 z m 2.2793,1.26563 1.04296,-0.16406 q 0.0879,0.62695 0.48633,0.96093 0.4043,0.33399 1.125,0.33399 0.72656,0 1.07813,-0.29297 0.35156,-0.29883 0.35156,-0.69727 0,-0.35742 -0.31055,-0.5625 -0.21679,-0.14062 -1.07812,-0.35742 -1.16016,-0.29297 -1.61133,-0.5039 -0.44531,-0.2168 -0.67969,-0.5918 -0.22851,-0.38086 -0.22851,-0.83789 0,-0.41602 0.1875,-0.76758 0.19336,-0.35742 0.52148,-0.5918 0.24609,-0.18164 0.66797,-0.30468 0.42773,-0.12891 0.91406,-0.12891 0.73242,0 1.28321,0.21094 0.55664,0.21094 0.82031,0.57422 0.26367,0.35742 0.36328,0.96093 l -1.03125,0.14063 q -0.0703,-0.48047 -0.41016,-0.75 -0.33398,-0.26953 -0.94922,-0.26953 -0.72656,0 -1.03711,0.24023 -0.31054,0.24024 -0.31054,0.5625 0,0.20508 0.1289,0.36914 0.12891,0.16992 0.4043,0.28125 0.1582,0.0586 0.93164,0.26953 1.11914,0.29883 1.5586,0.49219 0.44531,0.1875 0.69726,0.55078 0.25195,0.36328 0.25195,0.90235 0,0.52734 -0.31054,0.99609 -0.30469,0.46289 -0.88477,0.7207 -0.58008,0.25196 -1.3125,0.25196 -1.21289,0 -1.85156,-0.50391 -0.63281,-0.50391 -0.80859,-1.49414 z m 10.68164,-0.14648 1.08984,0.13476 q -0.25781,0.95508 -0.95508,1.48242 -0.69726,0.52735 -1.78125,0.52735 -1.36523,0 -2.16797,-0.83789 -0.79687,-0.84375 -0.79687,-2.36133 0,-1.57031 0.80859,-2.4375 0.8086,-0.86719 2.09766,-0.86719 1.24804,0 2.03906,0.84961 0.79102,0.84961 0.79102,2.39062 0,0.0937 -0.006,0.28125 h -4.64063 q 0.0586,1.0254 0.58008,1.57032 0.52148,0.54492 1.30078,0.54492 0.58008,0 0.99024,-0.30469 0.41015,-0.30469 0.65039,-0.97265 z m -3.46289,-1.70508 h 3.4746 q -0.0703,-0.78516 -0.39843,-1.17774 -0.50391,-0.60937 -1.30664,-0.60937 -0.72657,0 -1.22461,0.48633 -0.49219,0.48632 -0.54492,1.30078 z"
       id="guid-c62db9bc-4c46-4e97-a41d-542dd05a9c53"
       transform="matrix(0.26458772,0,0,0.26458333,54.56367,51.216505)"
       aria-label="Phase"
       inkscape:label="Phase label">
      <title
         id="title19">Phase label</title>
    </path>
    <path
       style="font-size:12px;font-family:Arial;-inkscape-font-specification:'Arial, Normal';text-align:center;white-space:pre;stroke:#000000;stroke-width:0;stroke-miterlimit:0"
       d="m -175.94922,174.07077 -3.32812,-8.58984 h 1.23047 l 2.23242,6.24023 q 0.26953,0.75 0.45117,1.40625 0.19922,-0.70312 0.46289,-1.40625 l 2.32031,-6.24023 h 1.16016 l -3.36328,8.58984 z m 4.35938,-3.11133 q 0,-1.72851 0.96093,-2.56054 0.80274,-0.69141 1.95704,-0.69141 1.2832,0 2.09765,0.84375 0.81445,0.83789 0.81445,2.32031 0,1.20117 -0.36328,1.89258 -0.35742,0.68555 -1.04882,1.06641 -0.68555,0.38086 -1.5,0.38086 -1.30665,0 -2.11524,-0.83789 -0.80273,-0.83789 -0.80273,-2.41407 z m 1.08398,0 q 0,1.19532 0.52149,1.79297 0.52148,0.5918 1.3125,0.5918 0.78515,0 1.30664,-0.59766 0.52148,-0.59765 0.52148,-1.82226 0,-1.1543 -0.52734,-1.7461 -0.52149,-0.59765 -1.30078,-0.59765 -0.79102,0 -1.3125,0.59179 -0.52149,0.5918 -0.52149,1.78711 z m 5.95899,3.11133 v -8.58984 h 1.05468 v 8.58984 z m 6.76757,0 v -0.91406 q -0.72656,1.05469 -1.97461,1.05469 -0.55078,0 -1.03125,-0.21094 -0.47461,-0.21094 -0.70898,-0.52734 -0.22852,-0.32227 -0.32227,-0.78516 -0.0645,-0.31055 -0.0645,-0.98438 v -3.85546 h 1.05469 v 3.45117 q 0,0.82617 0.0644,1.11328 0.0996,0.41601 0.42188,0.65625 0.32226,0.23437 0.79687,0.23437 0.47461,0 0.89063,-0.24023 0.41601,-0.24609 0.58593,-0.66211 0.17579,-0.42188 0.17579,-1.21875 v -3.33398 h 1.05468 v 6.22265 z m 2.59571,0 v -6.22265 h 0.94336 v 0.87304 q 0.29296,-0.45703 0.77929,-0.73242 0.48633,-0.28125 1.10742,-0.28125 0.69141,0 1.13086,0.28711 0.44532,0.28711 0.62696,0.80273 0.73828,-1.08984 1.92187,-1.08984 0.92578,0 1.42383,0.51563 0.49805,0.50976 0.49805,1.57617 v 4.27148 h -1.04883 v -3.91992 q 0,-0.63281 -0.10547,-0.9082 -0.0996,-0.28125 -0.36914,-0.45118 -0.26953,-0.16992 -0.63281,-0.16992 -0.65625,0 -1.08985,0.43946 -0.43359,0.43359 -0.43359,1.39453 v 3.61523 h -1.05469 v -4.04297 q 0,-0.70312 -0.25781,-1.05468 -0.25781,-0.35157 -0.84375,-0.35157 -0.44531,0 -0.82617,0.23438 -0.375,0.23437 -0.54492,0.68554 -0.16993,0.45118 -0.16993,1.30079 v 3.22851 z m 14.25586,-2.0039 1.08984,0.13476 q -0.25781,0.95508 -0.95508,1.48242 -0.69726,0.52735 -1.78125,0.52735 -1.36523,0 -2.16797,-0.83789 -0.79687,-0.84375 -0.79687,-2.36133 0,-1.57031 0.80859,-2.4375 0.8086,-0.86719 2.09766,-0.86719 1.24804,0 2.03906,0.84961 0.79102,0.84961 0.79102,2.39062 0,0.0937 -0.006,0.28125 h -4.64063 q 0.0586,1.0254 0.58008,1.57032 0.52148,0.54492 1.30078,0.54492 0.58008,0 0.99024,-0.30469 0.41015,-0.30469 0.65039,-0.97265 z m -3.46289,-1.70508 h 3.4746 q -0.0703,-0.78516 -0.39843,-1.17774 -0.50391,-0.60937 -1.30664,-0.60937 -0.72657,0 -1.22461,0.48633 -0.49219,0.48632 -0.54492,1.30078 z"
       id="guid-f55fc6b0-4bfb-4d9e-abc7-1a4276d46e68"
       transform="matrix(0.26458772,0,0,0.26458333,54.492133,66.216505)"
       aria-label="Volume"
       inkscape:label="Volume label">
      <title
         id="title18">Volume label</title>
    </path>
    <path
       style="font-size:12px;font-family:Arial;-inkscape-font-specification:'Arial, Normal';text-align:center;white-space:pre;stroke:#000000;stroke-width:0;stroke-miterlimit:0"
       d="m -171.93848,174.07077 -3.32812,-8.58984 h 1.23047 l 2.23242,6.24023 q 0.26953,0.75 0.45117,1.40625 0.19922,-0.70312 0.46289,-1.40625 l 2.32031,-6.24023 h 1.16016 l -3.36328,8.58984 z m 5.51368,0 v -8.58984 h 1.71093 l 2.03321,6.08203 q 0.28125,0.84961 0.41015,1.27148 0.14649,-0.46875 0.45703,-1.37695 l 2.05664,-5.97656 h 1.5293 v 8.58984 h -1.0957 v -7.18945 l -2.4961,7.18945 h -1.02539 l -2.48437,-7.3125 v 7.3125 z m 9.48632,-2.57812 v -1.06055 h 3.24024 v 1.06055 z m 4.73438,2.57812 v -8.58984 h 1.13672 v 8.58984 z m 3.00586,0 v -6.22265 h 0.94922 v 0.88476 q 0.68554,-1.02539 1.98047,-1.02539 0.5625,0 1.03125,0.20508 0.4746,0.19922 0.70898,0.52734 0.23437,0.32813 0.32812,0.7793 0.0586,0.29297 0.0586,1.02539 v 3.82617 h -1.05469 v -3.78515 q 0,-0.64454 -0.12305,-0.96094 -0.12304,-0.32227 -0.43945,-0.50977 -0.31055,-0.19336 -0.73242,-0.19336 -0.67383,0 -1.16602,0.42774 -0.48632,0.42773 -0.48632,1.62304 v 3.39844 z"
       id="guid-38616f39-12dd-448f-acc9-7c5a5dc56087"
       transform="matrix(0.26458597,0,0,0.26458333,49.056083,21.216505)"
       aria-label="VM-In"
       inkscape:label="VM-In label">
      <title
         id="title17">VM-In label</title>
    </path>
    <path
       style="display:inline;font-size:12px;font-family:Arial;-inkscape-font-specification:'Arial, Normal';text-align:center;white-space:pre;stroke:#000000;stroke-width:0;stroke-miterlimit:0"
       d="m -166.60937,174.07077 -3.32813,-8.58984 h 1.23047 l 2.23242,6.24023 q 0.26953,0.75 0.45117,1.40625 0.19922,-0.70312 0.46289,-1.40625 l 2.32032,-6.24023 h 1.16015 l -3.36328,8.58984 z m 4.34179,-2.57812 v -1.06055 h 3.24024 v 1.06055 z m 4.73438,2.57812 v -8.58984 h 1.13672 v 8.58984 z m 3.00586,0 v -6.22265 h 0.94922 v 0.88476 q 0.68554,-1.02539 1.98046,-1.02539 0.5625,0 1.03125,0.20508 0.47461,0.19922 0.70899,0.52734 0.23437,0.32813 0.32812,0.7793 0.0586,0.29297 0.0586,1.02539 v 3.82617 h -1.05469 v -3.78515 q 0,-0.64454 -0.12305,-0.96094 -0.12304,-0.32227 -0.43945,-0.50977 -0.31055,-0.19336 -0.73242,-0.19336 -0.67383,0 -1.16602,0.42774 -0.48633,0.42773 -0.48633,1.62304 v 3.39844 z"
       id="guid-8e31c4c7-f0d4-41eb-a0d9-0d129d38e8be"
       transform="matrix(0.26458333,0,0,0.26458333,48.96263,-23.783495)"
       aria-label="V-In"
       inkscape:label="V-In label">
      <title
         id="title16">V-In label</title>
    </path>
    <path
       d="m 5.9009362,8.247366 q -0.4375212,0 -0.6890098,-0.1946452 Q 5.0000559,7.8908035 5.0000559,7.678933 q 0,-0.1085191 0.065456,-0.1791426 0.065456,-0.072346 0.180865,-0.072346 0.1550272,0 0.2273732,0.1584722 0.098184,0.2118705 0.4444113,0.2118705 0.2962742,0 0.5736007,-0.1291893 0.2876615,-0.1326344 0.2876615,-0.2911066 0,-0.2170381 -0.1791425,-0.2859391 Q 6.4728143,7.0415989 6.0886914,7.0329863 5.7906946,7.0260962 5.5547088,6.9210222 5.2360418,6.7780527 5.2412093,6.5110614 5.2463769,6.1751691 5.5994944,5.8961202 5.9526119,5.6153487 6.3780755,5.6153487 q 0.1688073,0 0.4168509,0.077514 0.3083318,0.096461 0.3083318,0.2222057 0,0.089571 -0.062011,0.1584722 -0.068901,0.077514 -0.1774201,0.077514 -0.080959,0 -0.2428759,-0.03445 Q 6.4607566,6.0821528 6.3780755,6.0821528 6.1558698,6.0838754 5.956057,6.1889493 5.749354,6.2957459 5.749354,6.4214901 q 0,0.065456 0.062011,0.1085191 0.063733,0.041341 0.1894777,0.058566 0.2204831,0.012058 0.4392437,0.024115 0.3824005,0.029283 0.6046061,0.2153156 0.2445985,0.2067029 0.2445985,0.5718781 0,0.4444113 -0.5064222,0.673507 -0.3858455,0.173975 -0.8819325,0.173975 z m 3.1246592,0.00861 q -0.079236,0 -0.2514885,-0.1722524 -0.1584723,0.075791 -0.279049,0.1136866 -0.1205767,0.039618 -0.2049804,0.039618 -0.4151284,0 -0.6235538,-0.2222057 -0.206703,-0.2222056 -0.206703,-0.6648944 0,-0.4151284 0.3066094,-0.7096801 0.3066093,-0.2962742 0.7337954,-0.2962742 0.1636398,0 0.3789553,0.093016 0.2601012,0.111964 0.2601012,0.2601011 0,0.062011 -0.039618,0.1085191 -0.017225,0.068901 -0.02756,0.1739749 -0.00861,0.1033515 -0.00861,0.242876 0,0.3290022 0.046508,0.4736942 0.00517,0.015503 0.079236,0.1791425 0.067178,0.1481371 0.067178,0.1688074 0,0.091294 -0.070623,0.1515822 -0.068901,0.060288 -0.1601948,0.060288 z M 8.5984094,7.0743269 q 0,-0.055121 0.00689,-0.1257443 0.00861,-0.072346 0.024115,-0.1601948 -0.034451,-0.017225 -0.062011,-0.024115 -0.025838,-0.00861 -0.044786,-0.00861 -0.2342633,0 -0.4099608,0.1843101 Q 7.93696,7.1225576 7.93696,7.363711 q 0,0.2308183 0.082681,0.3479499 0.082681,0.1154092 0.2480435,0.1154092 0.1067965,0 0.2015353,-0.034451 0.096461,-0.036173 0.1808651,-0.105074 Q 8.5984094,7.2775848 8.5984094,7.0743269 Z M 11.702399,6.624748 q -0.180866,0.6752296 -0.363453,1.2264374 -0.05168,0.1550272 -0.168808,0.318667 -0.08268,0.1136866 -0.220483,0.1119641 -0.217038,-0.00344 -0.341059,-0.4185734 -0.04651,-0.1584723 -0.110242,-0.5908259 -0.03617,0.075791 -0.04479,0.1016289 -0.08957,0.2135931 -0.261823,0.6631719 -0.02584,0.072346 -0.07751,0.1154092 Q 10.041885,8.2680363 9.8989155,8.2732039 9.8179568,8.2766489 9.7283856,8.1285118 9.6336467,7.9786522 9.5750809,7.7426664 9.5216826,7.5290733 9.4097186,6.8125032 9.3856032,6.657476 9.3856032,6.5696272 q 0,-0.094739 0.070623,-0.1567497 0.072346,-0.063733 0.1722525,-0.063733 0.1860326,0 0.2290957,0.1843101 0.022393,0.096461 0.037896,0.2377084 0.02067,0.2032579 0.025838,0.2394309 0.022393,0.1343569 0.068901,0.4392437 0.1274667,-0.3496724 0.2928287,-0.8698748 0.07062,-0.2239282 0.265269,-0.2239282 0.1912,0 0.251489,0.2497661 0.04306,0.1756974 0.09129,0.4564689 0.07062,0.4082383 0.08613,0.4857519 0.0155,-0.053398 0.270436,-1.0472948 0.0379,-0.1481371 0.215316,-0.1481371 0.09818,0 0.172252,0.063733 0.07579,0.063733 0.07579,0.1584722 0,0.017225 -0.0086,0.049953 z m 2.656132,0.7940838 q 0.260101,-0.6545593 0.40307,-1.0421273 0.07579,-0.2049804 0.14986,-0.4116833 0.101629,-0.2445985 0.21876,-0.3772329 0.07751,-0.087849 0.186033,-0.087849 0.09818,0 0.172253,0.068901 0.07407,0.067178 0.07407,0.1653623 0,0.068901 -0.04651,0.1360794 -0.09302,0.1343569 -0.17053,0.3238346 -0.0034,0.00689 -0.127467,0.3410598 -0.155027,0.3979032 -0.461636,1.1937095 -0.07924,0.2084254 -0.194646,0.4168509 -0.07407,0.1343569 -0.215315,0.1343569 -0.179143,0 -0.249766,-0.1688074 -0.210148,-0.5012546 -0.466804,-1.445198 -0.07062,-0.2325408 -0.14297,-0.4650816 -0.09646,-0.3238346 -0.09646,-0.4495789 0,-0.1016289 0.07579,-0.1688073 0.07235,-0.062011 0.168807,-0.062011 0.165363,0 0.230819,0.1722524 0.03445,0.1498596 0.0689,0.2979967 0.05684,0.1860327 0.163639,0.5580979 0.134357,0.492642 0.260102,0.8698749 z m 3.190115,-1.1110283 q -0.155027,0 -0.229095,-0.1636398 -0.03445,-0.077514 -0.0689,-0.093016 -0.02584,-0.012058 -0.13608,-0.012058 -0.217038,0 -0.501254,0.3376148 -0.397903,0.4719717 -0.397903,0.883655 0,0.1877552 0.125744,0.3221121 0.125744,0.1343569 0.301442,0.1343569 0.17053,0 0.346227,-0.089571 0.06201,-0.032728 0.261824,-0.1688074 0.134357,-0.089571 0.203258,-0.089571 0.103351,0 0.175697,0.075791 0.06718,0.070623 0.06718,0.1619173 0,0.101629 -0.08957,0.17742 -0.473694,0.3996257 -0.964613,0.3996257 -0.387568,0 -0.65456,-0.282494 -0.254933,-0.2721589 -0.254933,-0.6407791 0,-0.5770457 0.504699,-1.1782067 0.428909,-0.5098672 0.876765,-0.5098672 0.07579,0 0.13608,0.00517 0.06201,0.00517 0.108519,0.015503 0.07579,-0.074069 0.182587,-0.074069 0.175698,0 0.217038,0.2015354 0.02928,0.1446921 0.02928,0.3376148 0,0.086126 -0.04995,0.1567497 -0.06546,0.093016 -0.189478,0.093016 z m 1.634676,1.9395625 q -0.509868,0 -0.868153,-0.2928291 -0.3824,-0.3134995 -0.3824,-0.811309 0,-0.5856583 0.366898,-1.0679652 0.411683,-0.5425952 1.036959,-0.5425952 0.601161,0 0.90088,0.2756039 0.29972,0.275604 0.29972,0.8285343 0,0.5856583 -0.337615,1.061075 Q 19.81032,8.247366 19.183322,8.247366 Z m 0.153304,-2.2478943 q -0.384123,0 -0.658004,0.3720652 -0.256656,0.34795 -0.256656,0.771691 0,0.285939 0.222205,0.4650816 0.213593,0.1722524 0.539151,0.1722524 0.378955,0 0.632166,-0.3720653 0.232541,-0.3393373 0.232541,-0.7716909 0,-0.3617301 -0.161917,-0.5029771 -0.155028,-0.1343569 -0.549486,-0.1343569 z"
       id="guid-76491a3c-83ce-4825-8248-8bcce1da0398"
       style="display:inline;font-weight:bold;font-size:3.52773px;font-family:'Comic Sans MS';-inkscape-font-specification:'Comic Sans MS, Bold';text-align:center;text-anchor:middle;stroke:#000000;stroke-width:0;stroke-linecap:round;stroke-linejoin:round;stroke-miterlimit:0"
       inkscape:label="Module"
       transform="scale(0.99998882,1.0000112)"
       aria-label="Saw VCO" />
  </g>
  <g
     inkscape:groupmode="layer"
     id="layer2"
     inkscape:label="components"
     style="display:none">
    <circle
       style="display:inline;fill:#0000ff;fill-opacity:1;stroke:#0000ff;stroke-width:0;stroke-miterlimit:0;stroke-opacity:1"
       id="guid-a9c30311-ec54-40a1-9071-744922170655"
       cx="18.5"
       cy="14"
       inkscape:label="Output"
       r="2.5">
      <title
         id="title15">Output</title>
    </circle>
    <circle
       style="display:inline;fill:#ff0000;fill-opacity:1;stroke:#ff0000;stroke-width:0;stroke-miterlimit:0;stroke-opacity:1"
       id="guid-8f37b48a-3637-414f-82d8-9c5ad212e3d2"
       cx="12.7"
       cy="104.5"
       inkscape:label="Volume"
       r="2.5">
      <title
         id="title14">Volume</title>
    </circle>
    <circle
       style="display:inline;fill:#ff0000;fill-opacity:1;stroke:#ff0000;stroke-width:0;stroke-miterlimit:0;stroke-opacity:1"
       id="guid-d7bc7031-b5cb-44bb-b936-e21ebeb97e3e"
       cx="12.7"
       cy="89.5"
       inkscape:label="Phase"
       r="2.5">
      <title
         id="title13">Phase</title>
    </circle>
    <circle
       style="display:inline;fill:#ff0000;fill-opacity:1;stroke:#ff0000;stroke-width:0;stroke-miterlimit:0;stroke-opacity:1"
       id="guid-0b8c06c9-0cee-4fb4-9205-9088f2582c7e"
       cx="12.7"
       cy="74.5"
       inkscape:label="Pitch"
       r="2.5">
      <title
         id="title12">Pitch</title>
    </circle>
    <ellipse
       style="display:inline;fill:#ff0000;fill-opacity:1;stroke:#ff0000;stroke-width:0;stroke-miterlimit:0;stroke-opacity:1"
       id="guid-5311432b-da94-4877-b1b4-d35952ab2305"
       cx="18.500158"
       cy="59.5"
       inkscape:label="VM Attn"
       rx="2.500025"
       ry="2.5">
      <title
         id="title11">VM Attn</title>
    </ellipse>
    <ellipse
       style="display:inline;fill:#00ff00;fill-opacity:1;stroke:#00ff00;stroke-width:0;stroke-miterlimit:0;stroke-opacity:1"
       id="guid-b60d8bcf-c346-40fe-8eeb-cf399ec7d822"
       cx="6.5000381"
       cy="59.5"
       inkscape:label="VM In"
       rx="2.500025"
       ry="2.5">
      <title
         id="title10">VM In</title>
    </ellipse>
    <ellipse
       style="display:inline;fill:#ff0000;fill-opacity:1;stroke:#ff0000;stroke-width:0;stroke-miterlimit:0;stroke-opacity:1"
       id="guid-d9e53a4f-69fc-46a7-9c1e-b13b52292838"
       cx="18.500158"
       cy="44.5"
       inkscape:label="PM Attn"
       rx="2.500025"
       ry="2.5">
      <title
         id="title4">PM Attn</title>
    </ellipse>
    <ellipse
       style="display:inline;fill:#00ff00;fill-opacity:1;stroke:#00ff00;stroke-width:0;stroke-miterlimit:0;stroke-opacity:1"
       id="guid-86ad5fe8-16fa-40cc-887b-735f5e6b3c3c"
       cx="6.5000381"
       cy="44.5"
       inkscape:label="PM In"
       rx="2.500025"
       ry="2.5">
      <title
         id="title3">PM In</title>
    </ellipse>
    <ellipse
       style="display:inline;fill:#ff0000;fill-opacity:1;stroke:#ff0000;stroke-width:0;stroke-miterlimit:0;stroke-opacity:1"
       id="path1-3-2"
       cx="18.500158"
       cy="29.5"
       inkscape:label="FM Attn"
       rx="2.500025"
       ry="2.5" />
    <ellipse
       style="display:inline;fill:#00ff00;fill-opacity:1;stroke:#00ff00;stroke-width:0;stroke-miterlimit:0;stroke-opacity:1"
       id="guif-b36c6462-3c82-4ef8-8787-623bff0e9651"
       cx="6.5000381"
       cy="29.5"
       inkscape:label="FM In"
       rx="2.500025"
       ry="2.5">
      <title
         id="title2">FM In</title>
    </ellipse>
    <circle
       style="display:inline;fill:#00ff00;fill-opacity:1;stroke:#00ff00;stroke-width:0;stroke-miterlimit:0;stroke-opacity:1"
       id="guid-0c6a422c-8084-4159-921d-08edca51f80f"
       cx="7"
       cy="14"
       inkscape:label="V-Oct In"
       r="2.5">
      <title
         id="title1">V-Oct In</title>
    </circle>
  </g>
  <metadata
     id="metadata8">
    <rdf:RDF>
      <cc:Work
         rdf:about="">
        <dc:title>STS Template Medium</dc:title>
        <dc:date>Jan 2, 2024</dc:date>
        <dc:creator>
          <cc:Agent>
            <dc:title>Marinko Laban</dc:title>
          </cc:Agent>
        </dc:creator>
        <dc:rights>
          <cc:Agent>
            <dc:title>(C) SmarTazz Studio</dc:title>
          </cc:Agent>
        </dc:rights>
      </cc:Work>
    </rdf:RDF>
  </metadata>
</svg>
