<?xml version="1.0" encoding="UTF-8" standalone="no"?>
<!-- Created with Inkscape (http://www.inkscape.org/) -->

<svg
   width="25.4mm"
   height="128.5mm"
   viewBox="0 0 25.4 128.5"
   version="1.1"
   id="svg1"
   inkscape:version="1.3.2 (091e20e, 2023-11-25, custom)"
   sodipodi:docname="Sine-VCO.svg"
   xmlns:inkscape="http://www.inkscape.org/namespaces/inkscape"
   xmlns:sodipodi="http://sodipodi.sourceforge.net/DTD/sodipodi-0.dtd"
   xmlns="http://www.w3.org/2000/svg"
   xmlns:svg="http://www.w3.org/2000/svg"
   xmlns:rdf="http://www.w3.org/1999/02/22-rdf-syntax-ns#"
   xmlns:cc="http://creativecommons.org/ns#"
   xmlns:dc="http://purl.org/dc/elements/1.1/">
  <title
     id="title8">STS Template Medium</title>
  <sodipodi:namedview
     id="namedview1"
     pagecolor="#ffffff"
     bordercolor="#000000"
     borderopacity="0.25"
     inkscape:showpageshadow="2"
     inkscape:pageopacity="0.0"
     inkscape:pagecheckerboard="false"
     inkscape:deskcolor="#d1d1d1"
     inkscape:document-units="mm"
     inkscape:zoom="2.0274078"
     inkscape:cx="72.50638"
     inkscape:cy="208.64081"
     inkscape:window-width="1920"
     inkscape:window-height="1130"
     inkscape:window-x="-6"
     inkscape:window-y="-6"
     inkscape:window-maximized="1"
     inkscape:current-layer="layer1" />
  <defs
     id="defs1">
    <rect
       x="-15.783702"
       y="10.851295"
       width="145.01276"
       height="20.222868"
       id="rect2" />
    <rect
       x="-188.91118"
       y="163.26267"
       width="59.188883"
       height="31.567404"
       id="rect1" />
    <rect
       x="-188.91118"
       y="163.26266"
       width="59.188885"
       height="31.567404"
       id="rect1-7" />
    <rect
       x="-188.91118"
       y="163.26266"
       width="59.188885"
       height="31.567404"
       id="rect1-7-3" />
    <rect
       x="-188.91118"
       y="163.26266"
       width="59.188885"
       height="31.567404"
       id="rect1-7-3-9" />
    <rect
       x="-188.91118"
       y="163.26266"
       width="59.188885"
       height="31.567404"
       id="rect1-9" />
    <rect
       x="-188.91118"
       y="163.26266"
       width="59.188885"
       height="31.567404"
       id="rect1-7-3-9-5" />
    <rect
       x="-188.91118"
       y="163.26266"
       width="59.188885"
       height="31.567404"
       id="rect1-7-3-9-7" />
    <rect
       x="-188.91118"
       y="163.26266"
       width="59.188885"
       height="31.567404"
       id="rect1-7-3-97" />
    <rect
       x="-188.91118"
       y="163.26266"
       width="59.188885"
       height="31.567404"
       id="rect1-7-3-97-3" />
    <rect
       x="-188.91118"
       y="163.26266"
       width="59.188885"
       height="31.567404"
       id="rect1-7-3-97-3-8" />
    <rect
       x="-188.91118"
       y="163.26266"
       width="59.188885"
       height="31.567404"
       id="rect1-7-3-97-3-8-3" />
    <rect
       x="-188.91118"
       y="163.26266"
       width="59.188885"
       height="31.567404"
       id="rect1-7-3-97-3-8-3-9" />
    <rect
       x="-188.91118"
       y="163.26266"
       width="59.188885"
       height="31.567404"
       id="rect1-7-3-97-3-8-3-9-8" />
    <rect
       x="-188.91118"
       y="163.26266"
       width="59.188885"
       height="31.567404"
       id="rect1-7-3-97-3-8-3-9-8-4" />
  </defs>
  <g
     inkscape:label="Layer 1"
     inkscape:groupmode="layer"
     id="layer1"
     style="display:inline">
    <rect
       style="fill:#93b5cf;fill-opacity:1;stroke:#93b5cf;stroke-width:0.065;stroke-linejoin:miter;stroke-miterlimit:0;stroke-dasharray:none;stroke-opacity:1;paint-order:normal"
       id="guid-133bc867-ad6a-494a-bd77-ef0c326a6449"
       width="25.334633"
       height="128.43465"
       x="0.032499999"
       y="0.032683566"
       ry="0"
       inkscape:transform-center-x="0.13475906"
       inkscape:transform-center-y="11.262005"
       inkscape:label="Panel">
      <title
         id="title27">Panel</title>
    </rect>
    <rect
       style="display:inline;fill:#c0c0c0;fill-opacity:1;stroke:#505050;stroke-width:0.213348;stroke-miterlimit:0;stroke-dasharray:none;stroke-opacity:1"
       id="guid-c6124b5b-7089-4f40-8008-45f5eb46cf5e"
       width="23.032955"
       height="43.158672"
       x="0.90042377"
       y="70.106674"
       ry="1.9892776"
       inkscape:label="Parameter Block">
      <desc
         id="desc9-4">Output Block</desc>
      <title
         id="title9-9">Parameter Block</title>
    </rect>
    <rect
       style="display:inline;fill:#c0c0c0;fill-opacity:1;stroke:#505050;stroke-width:0.214884;stroke-miterlimit:0;stroke-dasharray:none;stroke-opacity:1"
       id="guid-e177fcca-23db-4d9a-8f50-21ab1e5511d2"
       width="23.03142"
       height="43.785118"
       x="1.1145678"
       y="24.568306"
       ry="2.0181518"
       inkscape:label="Modulation Block">
      <desc
         id="desc9">Output Block</desc>
      <title
         id="title9">Modulation Block</title>
    </rect>
    <rect
       style="display:inline;font-size:3.175px;font-family:'Comic Sans MS';-inkscape-font-specification:'Comic Sans MS, Normal';text-align:center;text-anchor:middle;fill:#808080;fill-opacity:1;stroke:#505050;stroke-width:0.167486;stroke-miterlimit:0;stroke-dasharray:none;stroke-opacity:1"
       id="guid-17a95c6b-1a97-4263-9d0a-42aa97d28769"
       width="9.8325138"
       height="9.8325138"
       x="13.483743"
       y="9.0837431"
       ry="2.3805037"
       inkscape:label="Output Block">
      <desc
         id="desc7-0">Input Block</desc>
      <title
         id="title7-9">Output Block</title>
    </rect>
    <rect
       style="display:inline;font-size:3.175px;font-family:'Comic Sans MS';-inkscape-font-specification:'Comic Sans MS, Normal';text-align:center;text-anchor:middle;fill:#c0c0c0;fill-opacity:1;stroke:#505050;stroke-width:0.167486;stroke-miterlimit:0;stroke-dasharray:none;stroke-opacity:1"
       id="guid-5b20c061-18d6-436b-9422-6e5ea1c08229"
       width="9.8325138"
       height="9.8325138"
       x="2.0837431"
       y="9.0837431"
       ry="2.3805037"
       inkscape:label="Input Block">
      <desc
         id="desc7">Input Block</desc>
      <title
         id="title7">Input Block</title>
    </rect>
    <g
       id="guid-836c62ac-2363-4971-88ce-5a5d0a73b10b"
       style="display:inline;font-size:3.175px;font-family:'Comic Sans MS';-inkscape-font-specification:'Comic Sans MS, Normal';text-align:center;text-anchor:middle;stroke:#000000;stroke-width:0;stroke-miterlimit:0"
       inkscape:label="Brand"
       aria-label="Sm@rTAZZ&#10;Studio"
       transform="matrix(0.99997702,0,0,1,8.104787e-5,-3.81625)">
      <path
         d="m 3.5270624,121.95735 q -0.00155,-0.0651 0.043408,-0.10542 0.046509,-0.0419 0.1131713,-0.0419 0.075964,0 0.1333252,0.0868 0.079065,0.11783 0.1410767,0.15968 0.1317749,0.0868 0.3829224,0.0868 0.2402954,0 0.4464843,-0.10387 0.2635498,-0.13332 0.2635498,-0.37052 0,-0.19534 -0.2216919,-0.30851 -0.1875854,-0.0977 -0.4635376,-0.10542 -0.2449462,-0.009 -0.4170288,-0.10697 -0.2201416,-0.12557 -0.2201416,-0.35967 0,-0.27595 0.3131592,-0.50384 0.2992066,-0.21549 0.6185669,-0.21549 0.1503784,0 0.3395142,0.0512 0.2511474,0.0667 0.2511474,0.17053 0,0.13643 -0.1395264,0.13643 -0.062012,0 -0.217041,-0.0326 -0.1550293,-0.0341 -0.2402954,-0.0326 -0.2418457,0.003 -0.4108276,0.11938 -0.1736328,0.11937 -0.1736328,0.2899 0,0.12868 0.2294433,0.18139 0.085266,0.0202 0.3302124,0.0372 0.3550171,0.0264 0.5550049,0.22324 0.1829346,0.17984 0.1829346,0.43874 0,0.36897 -0.3410645,0.58911 -0.2961059,0.19069 -0.6867797,0.19069 -0.2837036,0 -0.5193482,-0.10853 -0.2883545,-0.13332 -0.2930053,-0.36586 z m 4.1780395,0.51469 q -0.127124,0 -0.1488281,-0.13487 -0.027905,-0.17053 -0.055811,-0.48059 l -0.05271,-0.48059 q -0.015503,-0.10697 -0.05271,-0.20929 -0.05271,-0.13953 -0.1147217,-0.13953 -0.057361,0 -0.2139404,0.0977 -0.1488281,0.0899 -0.1953369,0.14418 -0.00155,0.14572 0.00775,0.29145 l 0.046509,0.41393 q 0.029456,0.24495 0.029456,0.40463 0,0.0682 -0.043408,0.11162 -0.041858,0.045 -0.1085205,0.045 -0.066663,0 -0.1100708,-0.045 -0.041858,-0.0434 -0.041858,-0.11162 0,-0.18759 -0.038757,-0.55346 -0.037207,-0.36742 -0.037207,-0.555 0,-0.16434 -0.046509,-0.2558 -0.1085205,0.0496 -0.2201416,0.16123 l -0.1829345,0.20464 q -0.024805,0.0372 -0.079065,0.0977 0,0.093 -0.017053,0.2744 -0.017053,0.18138 -0.017053,0.2682 0,0.0465 0.013953,0.13022 0.015503,0.0837 0.015503,0.12093 0,0.0636 -0.048059,0.10697 -0.046509,0.0434 -0.1100708,0.0434 -0.1751831,0 -0.1751831,-0.39842 0,-0.093 0.017053,-0.2775 0.017053,-0.18449 0.017053,-0.27751 0,-0.0822 -0.015503,-0.24649 -0.013953,-0.16433 -0.013953,-0.24805 0,-0.35192 0.1581299,-0.35192 0.060461,0 0.1100708,0.0527 0.05116,0.0527 0.05116,0.11472 0,0.0295 -0.00775,0.0915 -0.00775,0.062 -0.00775,0.0946 l 0.0031,0.16278 q 0.080615,-0.16588 0.2371949,-0.29921 0.1565796,-0.13487 0.2666504,-0.13487 0.2433959,0 0.3348632,0.24184 0.085266,-0.11317 0.2030884,-0.16898 0.1178223,-0.0574 0.269751,-0.0574 0.2588989,0 0.3534668,0.27905 0.018604,0.0558 0.063562,0.43564 0.043408,0.26665 0.1116211,0.88831 0.00465,0.062 -0.041858,0.10542 -0.046509,0.0434 -0.1131714,0.0434 z m 2.3068361,-0.76739 q -0.1643313,0 -0.2837039,-0.0481 -0.1193725,-0.0481 -0.1922363,-0.14263 -0.083716,0.0822 -0.1643311,0.12403 -0.079065,0.0418 -0.1550293,0.0418 -0.1720825,0 -0.3255615,-0.13952 -0.1519287,-0.14108 -0.1519287,-0.30851 0,-0.28681 0.2247925,-0.524 0.2263428,-0.2372 0.513147,-0.2372 0.065112,0 0.1085205,0.0481 0.043408,0.0481 0.043408,0.11628 0,0.093 -0.1550293,0.13797 -0.206189,0.0589 -0.2914551,0.13488 -0.1255737,0.11007 -0.1255737,0.32401 0,0.045 0.041858,0.0868 0.048059,0.0465 0.1193725,0.0434 0.1348755,-0.006 0.2495972,-0.25114 0.1038696,-0.21394 0.1844849,-0.21394 0.065112,0 0.1054199,0.048 0.040308,0.0481 0.040308,0.11783 0,0.031 -0.010852,0.093 -0.0093,0.062 -0.0093,0.093 0,0.10077 0.086816,0.12713 0.034106,0.0109 0.1472784,0.0109 0.21239,0 0.297656,-0.10387 0.07752,-0.093 0.07752,-0.30851 0,-0.37982 -0.305408,-0.62012 -0.2790531,-0.22014 -0.6666264,-0.22014 -0.4511352,0 -0.7069335,0.34107 -0.2309937,0.30385 -0.2309937,0.76429 0,0.42478 0.2713013,0.71624 0.2821533,0.30385 0.7255371,0.30385 0.1255737,0 0.2837036,-0.0481 l 0.2713016,-0.10077 q 0.06821,-0.0248 0.08837,-0.0248 0.06356,0 0.11007,0.0512 0.04651,0.0496 0.04651,0.11627 0,0.14728 -0.3302125,0.23875 -0.2495971,0.0682 -0.4666381,0.0682 -0.2185913,0 -0.4480347,-0.0853 -0.2278931,-0.0837 -0.3906738,-0.22479 -0.4805908,-0.41548 -0.4805908,-1.01079 0,-0.59531 0.3286621,-0.99529 0.3488159,-0.42788 0.9286254,-0.42788 0.5239991,0 0.8976204,0.31471 0.392224,0.33331 0.392224,0.84336 0,0.34882 -0.170533,0.5364 -0.178283,0.19379 -0.522448,0.19379 z m 2.353345,-0.50695 q -0.01085,0.19379 -0.15503,0.19379 -0.133325,0 -0.133325,-0.15348 0,-0.0295 -0.0047,-0.10852 l -0.0047,-0.13023 q -0.244946,0.0295 -0.392224,0.13798 -0.137976,0.10077 -0.229443,0.30386 l 0.0031,0.84956 q 0,0.15658 -0.153479,0.15658 -0.136426,0 -0.136426,-0.15658 v -1.08831 q 0,-0.0512 0.0031,-0.15348 0.0047,-0.10232 0.0047,-0.15348 0,-0.15657 0.136426,-0.15657 0.151929,0 0.153479,0.25734 0.297656,-0.2868 0.660425,-0.2868 0.125574,0 0.187585,0.0946 0.06201,0.0946 0.06201,0.28525 0,0.0806 -0.0015,0.10852 z m 2.215368,-0.81235 q -0.114722,0 -0.353467,-0.0186 -0.232544,-0.0171 -0.353467,-0.0155 h -0.11007 q 0.0047,0.21394 0.04186,0.69453 0.03411,0.44804 0.03411,0.69608 0,0.0543 0.01085,0.16434 0.01085,0.11007 0.01085,0.16588 0,0.10542 -0.03411,0.18138 -0.04341,0.10232 -0.134876,0.10232 -0.06201,0 -0.111621,-0.0434 -0.04961,-0.0434 -0.04961,-0.11162 0,-0.0232 0.0078,-0.0698 0.0078,-0.0465 0.0078,-0.0698 0,-0.076 -0.01085,-0.2279 -0.0093,-0.15193 -0.0093,-0.22944 0,-0.22169 -0.03566,-0.62322 -0.03721,-0.43408 -0.04186,-0.62322 l -0.141077,0.002 q -0.339514,0 -0.5333,-0.0496 -0.125574,-0.0326 -0.125574,-0.15347 0,-0.0636 0.04031,-0.11163 0.04651,-0.0543 0.119372,-0.0496 0.05426,0.003 0.248047,0.0279 0.155029,0.0186 0.251147,0.0186 0.09302,0 0.282154,-0.003 0.189136,-0.005 0.282153,-0.005 0.119373,0 0.353467,0.0171 0.235644,0.017 0.355017,0.017 0.06666,0 0.111621,0.0465 0.04496,0.045 0.04496,0.11317 0,0.0667 -0.04496,0.11317 -0.04496,0.045 -0.111621,0.045 z m 1.984375,2.00453 q -0.142627,0 -0.248047,-0.36587 -0.04031,-0.13953 -0.100769,-0.48834 -0.15813,0.0217 -0.413928,0.0775 l -0.412378,0.0853 q -0.07752,0.20309 -0.2651,0.59376 -0.04961,0.0868 -0.134876,0.0868 -0.06201,0 -0.111621,-0.045 -0.04806,-0.045 -0.04806,-0.11162 0,-0.0744 0.234094,-0.56586 -0.02636,-0.0403 -0.02636,-0.093 0,-0.12557 0.151929,-0.16123 0.176733,-0.33176 0.446484,-0.76274 0.36742,-0.58756 0.457337,-0.58756 0.122473,0 0.167431,0.17053 l 0.09767,0.5209 0.230994,1.07745 0.08837,0.24495 q 0.04496,0.12557 0.04496,0.16743 0,0.0667 -0.04806,0.11162 -0.04806,0.045 -0.110071,0.045 z m -0.547254,-1.77199 -0.443383,0.71469 q 0.187585,-0.0481 0.568957,-0.11627 z m 2.894398,-0.21394 -0.20929,0.14263 q -0.282153,0.21859 -0.638721,0.69918 l -0.544153,0.7922 q -0.03876,0.0589 -0.07596,0.10852 l 0.603064,-0.0232 q 0.395325,-0.0186 0.604614,-0.0186 0.204639,0 0.302307,0.0186 0.125574,0.0248 0.130225,0.12712 0.0031,0.076 -0.04961,0.12092 -0.04651,0.0388 -0.116272,0.0388 -0.04496,0 -0.134876,-0.006 -0.08992,-0.005 -0.134875,-0.005 -0.235645,0 -0.708484,0.0109 -0.471289,0.0124 -0.706934,0.0124 -0.178283,0 -0.178283,-0.15658 0,-0.10232 0.09612,-0.25734 l 0.165881,-0.231 0.559656,-0.77825 q 0.345715,-0.45733 0.643371,-0.71003 l -0.542602,0.031 H 17.35103 q -0.01705,0 -0.05116,0.003 -0.03256,0.002 -0.04806,0.002 -0.164331,0 -0.164331,-0.15968 0,-0.10542 0.08372,-0.13953 0.05116,-0.0217 0.168982,-0.0217 0.10697,0 0.31781,0.0233 0.21239,0.0217 0.31936,0.0217 0.119372,0 0.356567,-0.0155 0.238745,-0.0155 0.359668,-0.0155 0.398426,0 0.398426,0.15038 0,0.10232 -0.179834,0.23564 z m 2.201416,0 -0.20929,0.14263 q -0.282153,0.21859 -0.638721,0.69918 l -0.544152,0.7922 q -0.03876,0.0589 -0.07597,0.10852 l 0.603064,-0.0232 q 0.395325,-0.0186 0.604614,-0.0186 0.204639,0 0.302307,0.0186 0.125574,0.0248 0.130225,0.12712 0.0031,0.076 -0.04961,0.12092 -0.04651,0.0388 -0.116272,0.0388 -0.04496,0 -0.134876,-0.006 -0.08992,-0.005 -0.134875,-0.005 -0.235645,0 -0.708484,0.0109 -0.471289,0.0124 -0.706934,0.0124 -0.178283,0 -0.178283,-0.15658 0,-0.10232 0.09612,-0.25734 l 0.165881,-0.231 0.559656,-0.77825 q 0.345715,-0.45733 0.643371,-0.71003 l -0.542602,0.031 h -0.626318 q -0.01705,0 -0.05116,0.003 -0.03256,0.002 -0.04806,0.002 -0.164331,0 -0.164331,-0.15968 0,-0.10542 0.08372,-0.13953 0.05116,-0.0217 0.168982,-0.0217 0.10697,0 0.31781,0.0233 0.21239,0.0217 0.31936,0.0217 0.119372,0 0.356567,-0.0155 0.238745,-0.0155 0.359668,-0.0155 0.398426,0 0.398426,0.15038 0,0.10232 -0.179834,0.23564 z"
         id="path2" />
      <path
         d="m 7.6570428,125.9261 q -0.00155,-0.0651 0.043408,-0.10542 0.046509,-0.0419 0.1131714,-0.0419 0.075964,0 0.1333251,0.0868 0.079065,0.11783 0.1410767,0.15968 0.1317749,0.0868 0.3829224,0.0868 0.2402954,0 0.4464843,-0.10387 0.2635498,-0.13332 0.2635498,-0.37052 0,-0.19534 -0.2216919,-0.30851 -0.1875854,-0.0977 -0.4635376,-0.10542 -0.2449462,-0.009 -0.4170288,-0.10697 -0.2201416,-0.12557 -0.2201416,-0.35967 0,-0.27595 0.3131592,-0.50384 0.2992066,-0.21549 0.6185669,-0.21549 0.1503784,0 0.3395142,0.0512 0.2511474,0.0667 0.2511474,0.17053 0,0.13643 -0.1395263,0.13643 -0.062012,0 -0.2170411,-0.0326 -0.1550293,-0.0341 -0.2402954,-0.0326 -0.2418457,0.003 -0.4108276,0.11938 -0.1736328,0.11937 -0.1736328,0.2899 0,0.12868 0.2294434,0.18139 0.085266,0.0202 0.3302123,0.0372 0.3550171,0.0264 0.5550049,0.22324 0.1829346,0.17984 0.1829346,0.43874 0,0.36897 -0.3410645,0.58911 -0.2961059,0.19069 -0.6867797,0.19069 -0.2837036,0 -0.5193482,-0.10853 -0.2883545,-0.13332 -0.2930053,-0.36586 z m 3.2463132,-0.93483 q -0.03256,0 -0.07751,-0.003 -0.04341,-0.003 -0.07597,-0.003 -0.03566,0 -0.21084,0.0233 l 0.02946,0.91623 0.0015,0.0682 0.0016,0.0791 q 0.0062,0.33952 -0.162781,0.33952 -0.06201,0 -0.108521,-0.0403 -0.04496,-0.0403 -0.04496,-0.10077 0,-0.0589 0.0047,-0.17673 0.0047,-0.11783 0.0047,-0.17674 l -0.03101,-0.90537 q -0.113172,-0.005 -0.3441654,-0.0264 -0.137976,-0.0186 -0.137976,-0.15348 0,-0.0682 0.041858,-0.11317 0.041858,-0.045 0.1069702,-0.045 l 0.3255612,0.0263 q 0,-0.0791 -0.0078,-0.21084 -0.0062,-0.13332 -0.0062,-0.19223 0,-0.0651 0.04496,-0.10697 0.04496,-0.0434 0.110071,-0.0434 0.139526,0 0.162781,0.22789 0.0047,0.0574 0.0047,0.13798 l -0.0031,0.0899 -0.0015,0.0961 q 0.192236,-0.0248 0.220141,-0.0248 0.161231,0 0.21084,0.0155 0.09457,0.031 0.09457,0.14573 0,0.0682 -0.04341,0.11317 -0.04186,0.0434 -0.108521,0.0434 z m 1.723926,0.41548 q 0,0.11162 0.0015,0.33486 0.0016,0.22324 0.0016,0.33486 0,0.0341 0.0046,0.10387 0.0062,0.0698 0.0062,0.10387 0,0.0667 -0.04496,0.10852 -0.04496,0.0434 -0.110071,0.0434 -0.119372,0 -0.151928,-0.14728 -0.193787,0.10077 -0.446485,0.10077 -0.203088,0 -0.336413,-0.0899 -0.147278,-0.0992 -0.175183,-0.28991 -0.06046,-0.41083 -0.06046,-0.73174 0,-0.21239 0.04651,-0.48369 0.0217,-0.13487 0.147278,-0.13487 0.06666,0 0.111621,0.0434 0.04496,0.0419 0.04496,0.10852 0,0.0713 -0.02325,0.2279 -0.0217,0.15658 -0.0217,0.23874 0,0.2589 0.01705,0.44339 0.01705,0.18448 0.05116,0.2961 0.05116,0.0279 0.100769,0.0434 0.04961,0.014 0.09767,0.014 0.20774,0 0.438733,-0.0667 l -0.0015,-0.31471 -0.0031,-0.30076 q 0,-0.33486 0.02946,-0.58136 0.01705,-0.14262 0.150378,-0.14262 0.06666,0 0.111621,0.0434 0.04496,0.0434 0.04186,0.10852 z m 1.813843,-0.46354 q -0.0186,0.22789 -0.0186,0.45579 0,0.51624 0.04806,0.77979 0.0031,0.0217 0.0031,0.0357 0,0.062 -0.04341,0.10232 -0.04341,0.0403 -0.100769,0.0403 -0.09612,0 -0.141077,-0.13953 -0.111621,0.0822 -0.232544,0.12402 -0.119372,0.0419 -0.249597,0.0419 -0.320911,0 -0.531751,-0.21394 -0.217041,-0.21859 -0.217041,-0.5612 0,-0.41393 0.218592,-0.66353 0.220141,-0.2496 0.570508,-0.2496 0.179834,0 0.277502,0.0558 l 0.145728,0.10697 q 0.0217,-0.65267 0.05116,-0.87901 0.02015,-0.13798 0.141077,-0.13798 0.141076,0 0.141076,0.15038 0,0.21549 -0.06201,0.95188 z m -0.68833,0.0403 q -0.26045,0 -0.390674,0.15503 -0.130225,0.15348 -0.130225,0.46353 0,0.19999 0.141077,0.34417 0.142627,0.14418 0.333313,0.14418 0.130225,0 0.220142,-0.0481 0.05271,-0.0279 0.172082,-0.12868 0.02325,-0.0202 0.04496,-0.0481 l -0.0047,-0.2682 0.0015,-0.17983 0.0031,-0.18294 q -0.05891,-0.12557 -0.15658,-0.18758 -0.09767,-0.0636 -0.234094,-0.0636 z m 1.421619,-0.63407 q -0.07442,0 -0.128675,-0.0527 -0.05426,-0.0527 -0.05426,-0.12713 0,-0.0744 0.05426,-0.12712 0.05426,-0.0527 0.128675,-0.0527 0.07441,0 0.127124,0.0527 0.05426,0.0527 0.05426,0.12712 0,0.0744 -0.05426,0.12713 -0.05271,0.0527 -0.127124,0.0527 z m 0.06976,1.25884 q 0,0.093 0.0047,0.27905 0.0062,0.18448 0.0062,0.2775 0,0.0682 -0.04186,0.11162 -0.04186,0.0434 -0.110071,0.0434 -0.06666,0 -0.110071,-0.0434 -0.04186,-0.0434 -0.04186,-0.11162 0,-0.093 -0.0062,-0.2775 -0.0047,-0.18604 -0.0047,-0.27905 0,-0.14573 0.0155,-0.36277 0.0155,-0.21859 0.0155,-0.36432 0,-0.0698 0.04186,-0.11317 0.04341,-0.0434 0.110071,-0.0434 0.06666,0 0.10852,0.0434 0.04341,0.0434 0.04341,0.11317 0,0.14573 -0.0155,0.36432 -0.0155,0.21704 -0.0155,0.36277 z m 1.105358,0.7953 q -0.260449,0 -0.448034,-0.19224 -0.20929,-0.21394 -0.220142,-0.57516 -0.0093,-0.35037 0.176733,-0.61702 0.217041,-0.31471 0.604615,-0.31471 0.310058,0 0.469738,0.28371 0.127124,0.22944 0.122474,0.5519 -0.0047,0.34417 -0.179834,0.58756 -0.198438,0.27596 -0.52555,0.27596 z m 0.09302,-1.38442 q -0.227893,-0.002 -0.355017,0.21705 -0.100769,0.17518 -0.100769,0.39997 0,0.22479 0.122473,0.35037 0.102319,0.10387 0.240295,0.10387 0.161231,0 0.277503,-0.11783 0.131775,-0.13022 0.139526,-0.35191 0.0217,-0.59997 -0.324011,-0.60152 z"
         id="path3" />
      <desc
         id="desc6">Brand</desc>
      <title
         id="title6">Brand</title>
    </g>
    <path
       d="m 8.9998748,109.05022 q -0.1067977,0.1602 -0.1739769,0.3359 l -0.1309134,0.37723 -0.4633643,1.25229 q -0.08096,0.22049 -0.1894798,0.43064 -0.055121,0.10335 -0.155029,0.10335 -0.1326359,0 -0.1860347,-0.13436 -0.2084278,-0.52365 -0.4633644,-1.50722 l -0.1360809,-0.4737 q -0.1016301,-0.35829 -0.1016301,-0.46854 0,-0.0775 0.055121,-0.12746 0.049954,-0.0465 0.1205781,-0.0465 0.1309133,0 0.1688093,0.14125 l 0.063734,0.29972 0.1653642,0.58566 q 0.1653642,0.64079 0.3221157,1.10415 l 0.010335,-0.0276 0.4616418,-1.25056 0.1464162,-0.42203 q 0.098185,-0.25493 0.2084278,-0.38585 0.056844,-0.0689 0.1343585,-0.0689 0.068902,0 0.1223006,0.0534 0.055121,0.0517 0.055121,0.12575 0,0.0517 -0.034451,0.10335 z m 0.9284512,2.46324 q -0.2893874,0 -0.4978152,-0.2136 -0.2325434,-0.23771 -0.2446012,-0.63906 -0.010335,-0.3893 0.19637,-0.68557 0.2411561,-0.34968 0.6717924,-0.34968 0.344509,0 0.521931,0.31522 0.141248,0.25494 0.136081,0.61323 -0.0052,0.3824 -0.199816,0.65284 -0.220485,0.30662 -0.583942,0.30662 z m 0.103353,-1.53823 q -0.2532143,-0.002 -0.3944629,0.24115 -0.1119654,0.19465 -0.1119654,0.44442 0,0.24977 0.136081,0.38929 0.1136879,0.11541 0.2669943,0.11541 0.179145,0 0.308335,-0.13091 0.146417,-0.14469 0.155029,-0.39102 0.02412,-0.66662 -0.360011,-0.66834 z m 1.543399,0.0827 -0.02584,0.8561 q 0,0.13608 -0.01378,0.39963 -0.01722,0.17226 -0.168809,0.17226 -0.168809,0 -0.168809,-0.1757 0,-0.20843 0.01895,-0.62529 0.01895,-0.41857 0.01895,-0.627 0,-0.27216 0.0086,-0.62184 0.0086,-0.3514 0.0086,-0.62356 0,-0.17226 0.16881,-0.17226 0.170531,0 0.170531,0.17226 0,0.27216 -0.0086,0.62356 -0.0086,0.34968 -0.0086,0.62184 z m 1.934417,0.34795 q 0,0.12402 0.0017,0.37207 0.0017,0.24805 0.0017,0.37207 0,0.0379 0.0052,0.11541 0.0069,0.0775 0.0069,0.11541 0,0.0741 -0.04995,0.12058 -0.04995,0.0482 -0.122301,0.0482 -0.132635,0 -0.168809,-0.16364 -0.215318,0.11196 -0.496093,0.11196 -0.225653,0 -0.373792,-0.0999 -0.163641,-0.11025 -0.194647,-0.32212 -0.06718,-0.45647 -0.06718,-0.81304 0,-0.23599 0.05168,-0.53743 0.02412,-0.14986 0.163642,-0.14986 0.07407,0 0.124023,0.0482 0.04995,0.0465 0.04995,0.12057 0,0.0792 -0.02584,0.25322 -0.02412,0.17398 -0.02412,0.26527 0,0.28767 0.01895,0.49265 0.01895,0.20498 0.05684,0.329 0.05684,0.031 0.111965,0.0482 0.05512,0.0155 0.10852,0.0155 0.230821,0 0.48748,-0.0741 l -0.0017,-0.34968 -0.0034,-0.33417 q 0,-0.37207 0.03273,-0.64596 0.01895,-0.15847 0.167087,-0.15847 0.07407,0 0.124023,0.0482 0.04995,0.0482 0.04651,0.12058 z m 2.616544,1.14894 q -0.141248,0 -0.165364,-0.14986 -0.03101,-0.18948 -0.06201,-0.53399 l -0.05857,-0.53399 q -0.01722,-0.11886 -0.05857,-0.23254 -0.05857,-0.15503 -0.127468,-0.15503 -0.06373,0 -0.237711,0.10852 -0.165364,0.0999 -0.21704,0.16019 -0.0017,0.16192 0.0086,0.32384 l 0.05168,0.45992 q 0.03273,0.27216 0.03273,0.44959 0,0.0758 -0.04823,0.12402 -0.04651,0.05 -0.120578,0.05 -0.07407,0 -0.122301,-0.05 -0.04651,-0.0482 -0.04651,-0.12402 0,-0.20843 -0.04306,-0.61495 -0.04134,-0.40825 -0.04134,-0.61667 0,-0.18259 -0.05168,-0.28422 -0.120578,0.0551 -0.244601,0.17914 l -0.20326,0.22738 q -0.02756,0.0413 -0.08785,0.10852 0,0.10335 -0.01895,0.30489 -0.01895,0.20154 -0.01895,0.298 0,0.0517 0.0155,0.14469 0.01723,0.093 0.01723,0.13436 0,0.0706 -0.0534,0.11886 -0.05168,0.0482 -0.122301,0.0482 -0.194647,0 -0.194647,-0.4427 0,-0.10335 0.01895,-0.30833 0.01895,-0.20499 0.01895,-0.30834 0,-0.0913 -0.01723,-0.27388 -0.0155,-0.18259 -0.0155,-0.27561 0,-0.39102 0.1757,-0.39102 0.06718,0 0.1223,0.0586 0.05684,0.0586 0.05684,0.12747 0,0.0327 -0.0086,0.10163 -0.0086,0.0689 -0.0086,0.10507 l 0.0034,0.18087 q 0.08957,-0.18431 0.263549,-0.33245 0.173977,-0.14986 0.296278,-0.14986 0.270439,0 0.372069,0.26871 0.09474,-0.12574 0.225653,-0.18775 0.130914,-0.0637 0.299723,-0.0637 0.287665,0 0.39274,0.31006 0.02067,0.062 0.07062,0.48404 0.04823,0.29627 0.124024,0.98701 0.0052,0.0689 -0.04651,0.11714 -0.05168,0.0482 -0.125746,0.0482 z m 1.357365,-0.0637 q -0.389295,0 -0.630451,-0.19464 -0.263549,-0.21532 -0.263549,-0.60289 0,-0.44787 0.21704,-0.75103 0.235989,-0.33073 0.630451,-0.33073 0.285943,0 0.46681,0.0965 0.222208,0.11886 0.222208,0.36518 0,0.17225 -0.194647,0.3135 -0.08613,0.062 -0.36518,0.19293 l -0.658012,0.31178 q 0.09646,0.14297 0.239434,0.21532 0.144694,0.0723 0.335896,0.0723 0.118856,0 0.279052,-0.0448 0.20326,-0.0568 0.261827,-0.14814 0.05857,-0.093 0.125746,-0.093 0.06029,0 0.106797,0.0465 0.04823,0.0448 0.04823,0.10508 0,0.1912 -0.308336,0.329 -0.263549,0.11713 -0.513318,0.11713 z m -0.04651,-1.56923 q -0.21015,0 -0.349676,0.16364 -0.139526,0.16192 -0.208428,0.4892 l 0.528821,-0.25149 q 0.311781,-0.15158 0.444417,-0.26355 -0.148139,-0.1378 -0.415134,-0.1378 z"
       id="Volume"
       style="display:inline;font-size:3.52777px;font-family:'Comic Sans MS';-inkscape-font-specification:'Comic Sans MS, Normal';text-align:center;text-anchor:middle;stroke:#000000;stroke-width:0;stroke-miterlimit:0"
       inkscape:label="Volume"
       aria-label="Volume">
      <title
         id="title34">Volume</title>
    </path>
    <path
       d="m 8.539156,96.748381 q -0.048231,0 -0.2101503,-0.02239 -0.01378,0.260105 -0.01378,0.911226 0,0.0689 -0.044786,0.117133 -0.044786,0.04651 -0.1119654,0.04651 -0.068902,0 -0.1136879,-0.04651 -0.044786,-0.04823 -0.044786,-0.117133 v -0.506428 q 0,-0.253214 0.031006,-0.713133 0.034451,-0.497815 0.037896,-0.713133 v -0.237711 q 0,-0.170532 0.020671,-0.248046 0.039618,-0.151584 0.1688093,-0.130914 0.055121,-0.01722 0.1567515,-0.02584 0.1016301,-0.0086 0.2497689,-0.0086 0.3152255,0 0.5908325,0.215318 0.3031678,0.237711 0.3031678,0.571885 0,0.427191 -0.3238383,0.680405 -0.2893874,0.227376 -0.6959078,0.227376 z m 0.086127,-1.3677 q -0.075792,0 -0.1360809,0.0034 -0.058567,0.0034 -0.099908,0.01034 l -0.00345,0.316948 -0.036173,0.685573 0.1894798,0.02239 q 0.2893874,0 0.48748,-0.146417 0.2170405,-0.160196 0.2170405,-0.432358 0,-0.192925 -0.2067052,-0.332451 -0.1912024,-0.127468 -0.4116881,-0.127468 z m 2.7198968,2.485631 q -0.1223,0 -0.160196,-0.130914 -0.03962,-0.141248 -0.07235,-0.401353 -0.03101,-0.249768 -0.03101,-0.409965 0,-0.04479 0.0034,-0.136081 0.0052,-0.0913 0.0052,-0.136081 0,-0.323838 -0.16192,-0.323838 -0.218763,0 -0.391017,0.198092 -0.08785,0.10163 -0.241156,0.387573 0,0.656289 -0.05512,0.776867 -0.04823,0.106798 -0.149861,0.106798 -0.07062,0 -0.124023,-0.04823 -0.053399,-0.04823 -0.053399,-0.117133 0,-0.02412 0.015503,-0.07579 0.01378,-0.04306 0.018948,-0.251492 l 0.00517,-0.254936 0.00517,-1.26607 Q 9.97059,95.57016 9.97059,95.496091 q 0,-0.08785 -0.017225,-0.165364 -0.015503,-0.07924 -0.015503,-0.163642 0,-0.07235 0.049954,-0.118855 0.049954,-0.04823 0.1223005,-0.04823 0.141249,0 0.165364,0.151584 0.02756,0.167087 0.02756,0.301445 0,0.180868 -0.01206,0.377238 -0.01034,0.187757 -0.0086,0.377237 l 0.0017,0.151584 q 0.141249,-0.18948 0.301445,-0.282498 0.161919,-0.09474 0.342786,-0.09474 0.285943,0 0.392741,0.186035 0.07579,0.130914 0.08613,0.440971 l 0.01378,0.329006 0.03445,0.35829 q 0.02412,0.201537 0.05857,0.354844 0.0069,0.02928 0.0069,0.04995 0,0.07063 -0.05168,0.117133 -0.05168,0.04823 -0.124023,0.04823 z m 1.941307,0.0069 q -0.03273,0 -0.118855,-0.07579 -0.07752,-0.07062 -0.115411,-0.125746 -0.165364,0.08957 -0.29111,0.134359 -0.125745,0.04651 -0.21015,0.04651 -0.403075,0 -0.587387,-0.227376 -0.173977,-0.213595 -0.173977,-0.654566 0,-0.416856 0.285942,-0.713133 0.287665,-0.296278 0.685572,-0.296278 0.149862,0 0.335897,0.07751 0.234265,0.09646 0.234265,0.232544 0,0.04651 -0.03445,0.08268 -0.01723,0.06546 -0.02756,0.215318 -0.0086,0.149861 -0.01033,0.384127 -0.0017,0.213596 0.02928,0.337619 0.01722,0.07579 0.10852,0.303168 0.01206,0.03101 0.03962,0.09129 l 0.01033,0.02928 q 0,0.0689 -0.04823,0.113688 -0.04823,0.04479 -0.111966,0.04479 z m -0.358289,-1.197168 q 0,-0.07407 0.0086,-0.160197 0.01033,-0.08785 0.02928,-0.186035 -0.06373,-0.03273 -0.110243,-0.04823 -0.04479,-0.0155 -0.07235,-0.0155 -0.266995,0 -0.461642,0.218763 -0.192925,0.217041 -0.192925,0.501261 0,0.282497 0.09991,0.423745 0.09991,0.141249 0.299723,0.141249 0.165364,0 0.280775,-0.06029 0.06201,-0.03273 0.173977,-0.130913 -0.05512,-0.456474 -0.05512,-0.68385 z m 1.980926,-0.242879 q -0.09474,0 -0.132636,-0.06373 -0.02584,-0.04479 -0.04479,-0.186035 -0.12919,0.03273 -0.397907,0.120578 -0.27733,0.110243 -0.279052,0.272162 0.05168,0.01895 0.10163,0.02756 0.396185,0.07062 0.58911,0.194647 0.280775,0.180867 0.280775,0.523654 0,0.280774 -0.242879,0.423746 -0.201538,0.117132 -0.509873,0.117132 -0.225653,0 -0.430636,-0.07579 -0.265272,-0.09646 -0.265272,-0.268717 0,-0.0689 0.0534,-0.120578 0.05512,-0.05168 0.124023,-0.05168 0.0534,0 0.137804,0.08268 0.04134,0.03962 0.186034,0.06546 0.115411,0.02067 0.194648,0.02067 0.144693,0 0.254936,-0.03445 0.160197,-0.04995 0.160197,-0.158474 0,-0.234266 -0.327283,-0.316948 l -0.179145,-0.03962 q -0.229098,-0.04995 -0.325561,-0.117133 -0.139526,-0.09646 -0.139526,-0.29111 0,-0.360012 0.339341,-0.513318 0.103353,-0.04651 0.330729,-0.110243 0.227376,-0.06546 0.325561,-0.110243 0.07062,-0.03101 0.153306,-0.03101 0.07407,0 0.120578,0.04823 0.04823,0.04823 0.04823,0.125746 0,0.04995 0.02067,0.146416 0.02239,0.09646 0.02239,0.146416 0,0.07751 -0.04823,0.125746 -0.04651,0.04823 -0.120578,0.04823 z m 1.359087,1.405596 q -0.389295,0 -0.630451,-0.194648 -0.26355,-0.215318 -0.26355,-0.60289 0,-0.447861 0.217041,-0.751029 0.235988,-0.330729 0.630451,-0.330729 0.285942,0 0.466809,0.09646 0.222209,0.118855 0.222209,0.365179 0,0.172255 -0.194648,0.313503 -0.08613,0.06201 -0.365179,0.192925 l -0.658012,0.311781 q 0.09646,0.142971 0.239434,0.215318 0.144693,0.07235 0.335896,0.07235 0.118855,0 0.279052,-0.04479 0.20326,-0.05684 0.261826,-0.148139 0.05857,-0.09302 0.125746,-0.09302 0.06029,0 0.106798,0.04651 0.04823,0.04479 0.04823,0.105075 0,0.191202 -0.308335,0.329006 -0.26355,0.117133 -0.513318,0.117133 z m -0.04651,-1.569238 q -0.21015,0 -0.349676,0.163642 -0.139527,0.161919 -0.208428,0.489202 l 0.528821,-0.251491 q 0.31178,-0.151584 0.444416,-0.263549 -0.148139,-0.137804 -0.415133,-0.137804 z"
       id="Phase"
       style="display:inline;font-size:3.52777px;font-family:'Comic Sans MS';-inkscape-font-specification:'Comic Sans MS, Normal';text-align:center;text-anchor:middle;stroke:#000000;stroke-width:0;stroke-miterlimit:0"
       inkscape:label="Phase"
       aria-label="Phase">
      <title
         id="title36">Phase</title>
    </path>
    <path
       d="m 9.5391559,81.748381 q -0.048231,0 -0.2101504,-0.02239 -0.01378,0.260105 -0.01378,0.911226 0,0.0689 -0.044786,0.117133 -0.044786,0.04651 -0.1119654,0.04651 -0.068902,0 -0.1136879,-0.04651 -0.044786,-0.04823 -0.044786,-0.117133 v -0.506428 q 0,-0.253214 0.031006,-0.713133 0.034451,-0.497815 0.037896,-0.713133 v -0.237711 q 0,-0.170532 0.02067,-0.248046 0.039619,-0.151584 0.1688093,-0.130914 0.055122,-0.01722 0.1567515,-0.02584 0.1016301,-0.0086 0.2497689,-0.0086 0.3152256,0 0.5908324,0.215318 0.303168,0.237711 0.303168,0.571885 0,0.427191 -0.323838,0.680405 -0.2893877,0.227376 -0.6959081,0.227376 z m 0.086127,-1.3677 q -0.075792,0 -0.136081,0.0034 -0.058566,0.0034 -0.099908,0.01034 l -0.00345,0.316948 -0.036173,0.685573 0.1894798,0.02239 q 0.2893874,0 0.4874801,-0.146417 0.21704,-0.160196 0.21704,-0.432358 0,-0.192925 -0.206705,-0.332451 -0.1912023,-0.127468 -0.4116879,-0.127468 z m 1.6071339,0.198092 q -0.08268,0 -0.142972,-0.05857 -0.06029,-0.05857 -0.06029,-0.141249 0,-0.08268 0.06029,-0.141249 0.06029,-0.05857 0.142972,-0.05857 0.08268,0 0.141248,0.05857 0.06029,0.05857 0.06029,0.141249 0,0.08268 -0.06029,0.141249 -0.05857,0.05857 -0.141248,0.05857 z m 0.07751,1.398706 q 0,0.103353 0.0052,0.310058 0.0069,0.204983 0.0069,0.308335 0,0.07579 -0.04651,0.124023 -0.04651,0.04823 -0.1223,0.04823 -0.07407,0 -0.122301,-0.04823 -0.04651,-0.04823 -0.04651,-0.124023 0,-0.103352 -0.0069,-0.308335 -0.0052,-0.206705 -0.0052,-0.310058 0,-0.161919 0.01723,-0.403075 0.01722,-0.242879 0.01722,-0.404798 0,-0.07752 0.04651,-0.125746 0.04823,-0.04823 0.122301,-0.04823 0.07407,0 0.120578,0.04823 0.04823,0.04823 0.04823,0.125746 0,0.161919 -0.01722,0.404798 -0.01723,0.241156 -0.01723,0.403075 z m 1.734602,-0.685573 q -0.03617,0 -0.08613,-0.0034 -0.04823,-0.0034 -0.08441,-0.0034 -0.03962,0 -0.234266,0.02584 l 0.03273,1.018024 0.0017,0.07579 0.0017,0.08785 q 0.0069,0.377237 -0.180868,0.377237 -0.0689,0 -0.120578,-0.04479 -0.04995,-0.04479 -0.04995,-0.111966 0,-0.06546 0.0052,-0.19637 0.0052,-0.130913 0.0052,-0.19637 l -0.03445,-1.005966 q -0.125746,-0.0052 -0.382405,-0.02928 -0.153306,-0.02067 -0.153306,-0.170532 0,-0.07579 0.04651,-0.125745 0.04651,-0.04995 0.118856,-0.04995 l 0.361734,0.02928 q 0,-0.08785 -0.0086,-0.234266 -0.0069,-0.148139 -0.0069,-0.213595 0,-0.07235 0.04995,-0.118856 0.04995,-0.04823 0.122301,-0.04823 0.155029,0 0.180867,0.253214 0.0052,0.06373 0.0052,0.153306 l -0.0034,0.09991 -0.0017,0.106798 q 0.213595,-0.02756 0.244601,-0.02756 0.179145,0 0.234266,0.01723 0.105075,0.03445 0.105075,0.161919 0,0.07579 -0.04823,0.125746 -0.04651,0.04823 -0.120578,0.04823 z m 1.288463,1.576128 q -0.353122,0 -0.58911,-0.213595 -0.248047,-0.223931 -0.248047,-0.590833 0,-0.349676 0.232544,-0.721746 0.258381,-0.41341 0.58222,-0.41341 0.168809,0 0.377237,0.07924 0.263549,0.10163 0.263549,0.248046 0,0.06546 -0.04306,0.117133 -0.04306,0.04995 -0.106797,0.04995 -0.04995,0 -0.08785,-0.02928 -0.03617,-0.031 -0.07062,-0.06029 -0.10163,-0.08096 -0.332451,-0.08096 -0.1757,0 -0.347954,0.313503 -0.156752,0.287665 -0.156752,0.497815 0,0.227376 0.155029,0.358289 0.144694,0.122301 0.37207,0.122301 0.103352,0 0.220485,-0.05512 l 0.199815,-0.106797 q 0.05168,-0.02756 0.07407,-0.02756 0.06373,0 0.110243,0.05168 0.04651,0.04995 0.04651,0.115411 0,0.125745 -0.265271,0.242878 -0.232544,0.103353 -0.38585,0.103353 z m 2.475295,-0.0017 q -0.1223,0 -0.160196,-0.130914 -0.03962,-0.141248 -0.07235,-0.401353 -0.03101,-0.249768 -0.03101,-0.409965 0,-0.04479 0.0034,-0.136081 0.0052,-0.0913 0.0052,-0.136081 0,-0.323838 -0.161919,-0.323838 -0.218763,0 -0.391018,0.198092 -0.08785,0.10163 -0.241156,0.387573 0,0.656289 -0.05512,0.776867 -0.04823,0.106798 -0.149862,0.106798 -0.07062,0 -0.124023,-0.04823 -0.0534,-0.04823 -0.0534,-0.117133 0,-0.02412 0.0155,-0.07579 0.01378,-0.04306 0.01895,-0.251492 l 0.0052,-0.254936 0.0052,-1.26607 q 0.01206,-0.213596 0.01206,-0.287665 0,-0.08785 -0.01722,-0.165364 -0.0155,-0.07924 -0.0155,-0.163642 0,-0.07235 0.04995,-0.118855 0.04995,-0.04823 0.1223,-0.04823 0.141249,0 0.165364,0.151584 0.02756,0.167087 0.02756,0.301445 0,0.180868 -0.01206,0.377238 -0.01033,0.187757 -0.0086,0.377237 l 0.0017,0.151584 q 0.141249,-0.18948 0.301445,-0.282498 0.16192,-0.09474 0.342787,-0.09474 0.285942,0 0.39274,0.186035 0.07579,0.130914 0.08613,0.440971 l 0.01378,0.329006 0.03445,0.35829 q 0.02412,0.201537 0.05857,0.354844 0.0069,0.02928 0.0069,0.04995 0,0.07063 -0.05168,0.117133 -0.05168,0.04823 -0.124023,0.04823 z"
       id="Pitch"
       style="display:inline;font-size:3.52777px;font-family:'Comic Sans MS';-inkscape-font-specification:'Comic Sans MS, Normal';text-align:center;text-anchor:middle;stroke:#000000;stroke-width:0;stroke-miterlimit:0"
       inkscape:label="Pitch"
       aria-label="Pitch">
      <title
         id="title35">Pitch</title>
    </path>
    <path
       d="m 13.599902,64.726004 q -0.08544,0.128157 -0.139181,0.268717 l -0.104731,0.30179 -0.370692,1.001833 q -0.06477,0.176389 -0.151584,0.34451 -0.0441,0.08268 -0.124024,0.08268 -0.106108,0 -0.148828,-0.107487 -0.166742,-0.418923 -0.370692,-1.205783 l -0.108865,-0.37896 q -0.0813,-0.28663 -0.0813,-0.374824 0,-0.06201 0.0441,-0.101975 0.03996,-0.03721 0.09646,-0.03721 0.104731,0 0.135048,0.112999 l 0.05099,0.239779 0.132292,0.468532 q 0.132291,0.51263 0.257693,0.883322 l 0.0083,-0.02205 0.369314,-1.000455 0.117133,-0.337619 q 0.07855,-0.20395 0.166742,-0.308681 0.04548,-0.05512 0.107487,-0.05512 0.05512,0 0.09784,0.04272 0.0441,0.04134 0.0441,0.100597 0,0.04134 -0.02756,0.08268 z m 2.273762,2.003666 q -0.07441,0 -0.122646,-0.07717 -0.04134,-0.06615 -0.07441,-0.220486 l -0.04961,-0.237023 q -0.0565,-0.220485 -0.179145,-0.972894 l -0.275607,0.830957 -0.0813,0.261827 q -0.04961,0.155718 -0.103353,0.254937 -0.05788,0.10473 -0.155718,0.10473 -0.08131,0 -0.128158,-0.08819 -0.03032,-0.05788 -0.05512,-0.14745 l -0.03996,-0.152962 q -0.139193,-0.486451 -0.245302,-1.0418 l -0.04961,0.246668 -0.177767,0.727604 q -0.01102,0.128158 -0.0689,0.37896 -0.04134,0.107487 -0.136426,0.107487 -0.06752,0 -0.107487,-0.04823 -0.03445,-0.04134 -0.03445,-0.101975 0,-0.230132 0.09508,-0.564995 l 0.151584,-0.555349 0.07993,-0.434082 q 0.06063,-0.304546 0.128158,-0.398252 0.05512,-0.07993 0.136425,-0.07993 0.08957,0 0.13367,0.101975 0.05374,0.122645 0.115755,0.500228 0.07304,0.453374 0.227376,0.981162 0.20395,-0.530544 0.352778,-1.105186 l 0.04134,-0.201193 q 0.0248,-0.121267 0.06477,-0.195681 0.05374,-0.101975 0.14745,-0.101975 0.118511,0 0.180523,0.228754 0.02205,0.07855 0.05374,0.325217 0.0813,0.622873 0.202571,1.063844 l 0.06752,0.237023 q 0.05237,0.190169 0.05237,0.234266 0,0.05926 -0.04548,0.09922 -0.0441,0.03996 -0.100596,0.03996 z m 2.818086,-0.07304 q -0.12678,0 -0.220486,-0.325217 -0.03583,-0.124023 -0.08957,-0.434082 -0.140559,0.01929 -0.367936,0.0689 l -0.366558,0.07579 q -0.0689,0.180523 -0.235644,0.527789 -0.0441,0.07717 -0.119889,0.07717 -0.05512,0 -0.09922,-0.03996 -0.04272,-0.03996 -0.04272,-0.09922 0,-0.06615 0.208084,-0.502984 -0.02343,-0.03583 -0.02343,-0.08268 0,-0.111621 0.135048,-0.143316 0.157096,-0.2949 0.396874,-0.677994 0.326595,-0.522276 0.406521,-0.522276 0.108865,0 0.148828,0.151584 l 0.08682,0.46302 0.205327,0.957736 0.07855,0.21773 q 0.03996,0.111621 0.03996,0.148828 0,0.05926 -0.04272,0.09922 -0.04272,0.03996 -0.09784,0.03996 z m -0.486447,-1.575097 -0.394119,0.635276 q 0.166742,-0.04272 0.50574,-0.103353 z m 1.941654,0.359668 q -0.02894,0 -0.0689,-0.0028 -0.03859,-0.0028 -0.06752,-0.0028 -0.03169,0 -0.187413,0.02067 l 0.02618,0.814419 0.0014,0.06063 0.0014,0.07028 q 0.0055,0.30179 -0.144694,0.30179 -0.05512,0 -0.09646,-0.03583 -0.03996,-0.03583 -0.03996,-0.08957 0,-0.05237 0.0041,-0.157096 0.0041,-0.104731 0.0041,-0.157097 l -0.02756,-0.804773 q -0.100597,-0.0041 -0.305924,-0.02343 -0.122646,-0.01654 -0.122646,-0.136426 0,-0.06063 0.03721,-0.100596 0.03721,-0.03996 0.09508,-0.03996 l 0.289388,0.02343 q 0,-0.07028 -0.0069,-0.187413 -0.0055,-0.118511 -0.0055,-0.170877 0,-0.05788 0.03996,-0.09508 0.03996,-0.03858 0.09784,-0.03858 0.124023,0 0.144694,0.202571 0.0041,0.05099 0.0041,0.122646 l -0.0028,0.07993 -0.0014,0.08544 q 0.170876,-0.02205 0.195681,-0.02205 0.143316,0 0.187413,0.01378 0.08406,0.02756 0.08406,0.129535 0,0.06063 -0.03859,0.100597 -0.03721,0.03858 -0.09646,0.03858 z m 1.329806,0 q -0.02894,0 -0.0689,-0.0028 -0.03859,-0.0028 -0.06752,-0.0028 -0.03169,0 -0.187413,0.02067 l 0.02618,0.814419 0.0014,0.06063 0.0014,0.07028 q 0.0055,0.30179 -0.144694,0.30179 -0.05512,0 -0.09646,-0.03583 -0.03996,-0.03583 -0.03996,-0.08957 0,-0.05237 0.0041,-0.157096 0.0041,-0.104731 0.0041,-0.157097 l -0.02756,-0.804773 q -0.100597,-0.0041 -0.305925,-0.02343 -0.122645,-0.01654 -0.122645,-0.136426 0,-0.06063 0.03721,-0.100596 0.03721,-0.03996 0.09509,-0.03996 l 0.289387,0.02343 q 0,-0.07028 -0.0069,-0.187413 -0.0055,-0.118511 -0.0055,-0.170877 0,-0.05788 0.03996,-0.09508 0.03996,-0.03858 0.09784,-0.03858 0.124023,0 0.144694,0.202571 0.0041,0.05099 0.0041,0.122646 l -0.0028,0.07993 -0.0014,0.08544 q 0.170876,-0.02205 0.195681,-0.02205 0.143316,0 0.187413,0.01378 0.08406,0.02756 0.08406,0.129535 0,0.06063 -0.03859,0.100597 -0.03721,0.03858 -0.09646,0.03858 z m 1.464854,1.271928 q -0.118512,0 -0.13367,-0.129535 l -0.03859,-0.30179 q -0.01929,-0.161231 -0.01929,-0.30179 0,-0.03858 0.0041,-0.130914 0.0055,-0.09233 0.0055,-0.130913 0,-0.297656 -0.110243,-0.297656 -0.15434,0 -0.2949,0.183279 -0.12678,0.166742 -0.198438,0.421679 -0.0028,0.05374 -0.0124,0.135048 -0.0083,0.0689 -0.0083,0.133669 0,0.04134 0.0083,0.124023 0.0083,0.08268 0.0083,0.124024 0,0.06201 -0.03859,0.100597 -0.03721,0.03858 -0.09646,0.03858 -0.06063,0 -0.09784,-0.03858 -0.03721,-0.03859 -0.03721,-0.100597 0,-0.04134 -0.0096,-0.124024 -0.0083,-0.08268 -0.0083,-0.124023 0,-0.141938 0.01929,-0.39274 0.02067,-0.252181 0.02067,-0.394119 0,-0.0441 -0.0055,-0.130914 -0.0041,-0.08682 -0.0041,-0.130913 0,-0.05926 0.03858,-0.09646 0.03996,-0.03858 0.09784,-0.03858 0.12678,0 0.139182,0.179145 l 0.0041,0.16123 q 0.23151,-0.30868 0.475423,-0.30868 0.220486,0 0.307302,0.194303 0.05926,0.129536 0.06477,0.383095 v 0.139181 l -0.0014,0.128158 q 0,0.114377 0.02894,0.296278 0.03032,0.180523 0.03032,0.293522 0,0.06063 -0.03996,0.09784 -0.03859,0.03858 -0.09784,0.03858 z"
       id="VM_Attn"
       style="font-size:2.82222px;font-family:'Comic Sans MS';-inkscape-font-specification:'Comic Sans MS, Normal';text-align:center;text-anchor:middle;display:inline;stroke:#000000;stroke-width:0;stroke-miterlimit:0"
       inkscape:label="VM Attn"
       aria-label="VM Attn">
      <title
         id="title33">VM Attn</title>
    </path>
    <path
       d="m 3.5999022,64.726004 q -0.085438,0.128157 -0.1391817,0.268717 l -0.1047309,0.30179 -0.3706919,1.001833 q -0.064768,0.176389 -0.1515841,0.34451 -0.044097,0.08268 -0.1240234,0.08268 -0.1061088,0 -0.148828,-0.107487 -0.1667425,-0.418923 -0.370692,-1.205783 l -0.1088649,-0.37896 q -0.081304,-0.286632 -0.081304,-0.374826 0,-0.06201 0.044097,-0.101975 0.039963,-0.03721 0.096463,-0.03721 0.1047308,0 0.1350476,0.112999 l 0.050987,0.239779 0.1322916,0.468532 q 0.1322915,0.51263 0.2576929,0.883322 l 0.00827,-0.02205 0.369314,-1.000455 0.1171331,-0.337619 Q 3.2898455,64.659851 3.37804,64.55512 3.423515,64.5 3.4855269,64.5 q 0.055121,0 0.097841,0.04272 0.044097,0.04134 0.044097,0.100597 0,0.04134 -0.027561,0.08268 z m 2.2737614,2.003666 q -0.074414,0 -0.1226454,-0.07717 -0.041341,-0.06615 -0.074414,-0.220486 l -0.049609,-0.237023 q -0.0565,-0.220485 -0.1791448,-0.972894 l -0.2756075,0.830957 -0.081304,0.261827 q -0.049609,0.155718 -0.1033528,0.254937 -0.057878,0.10473 -0.1557182,0.10473 -0.081304,0 -0.1281575,-0.08819 -0.030317,-0.05788 -0.055122,-0.14745 L 4.6086254,66.285942 Q 4.4694437,65.799495 4.3633348,65.244146 l -0.049609,0.246668 -0.1777668,0.727604 q -0.011024,0.128158 -0.068902,0.37896 -0.041341,0.107487 -0.1364256,0.107487 -0.067524,0 -0.1074869,-0.04823 -0.034451,-0.04134 -0.034451,-0.101975 0,-0.230132 0.095085,-0.564995 l 0.1515841,-0.555349 0.079926,-0.434082 q 0.060634,-0.304546 0.1281575,-0.398252 0.055121,-0.07993 0.1364257,-0.07993 0.089572,0 0.1336696,0.101975 0.053743,0.122645 0.1157551,0.500228 0.073036,0.453374 0.2273761,0.981162 0.2039495,-0.530544 0.3527775,-1.105186 l 0.041341,-0.201193 q 0.024805,-0.121267 0.064768,-0.195681 0.053744,-0.101975 0.14745,-0.101975 0.1185112,0 0.1805229,0.228754 0.022049,0.07855 0.053743,0.325217 0.081304,0.622873 0.2025715,1.063844 l 0.067524,0.237023 q 0.052365,0.190169 0.052365,0.234266 0,0.05926 -0.045475,0.09922 -0.044097,0.03996 -0.1005967,0.03996 z m 1.1878681,-0.768945 q -0.187413,0.01929 -0.66697,0.01929 -0.1157551,0 -0.1157551,-0.107487 0,-0.107487 0.1157551,-0.107487 0.108865,0 0.3265949,-0.0096 0.2177298,-0.0096 0.3265948,-0.0096 0.1226453,0 0.1226453,0.107487 0,0.09508 -0.108865,0.107487 z m 1.5585599,-1.062467 q -0.088194,0 -0.2218639,-0.01791 l -0.221864,-0.02894 q -0.031695,0.401009 -0.031695,0.766189 0,0.09646 0.00551,0.2384 0.00551,0.141938 0.00551,0.238401 0,0.129535 -0.00965,0.235644 l 0.4340817,-0.0055 q 0.057878,0 0.096463,0.04134 0.039963,0.03996 0.039963,0.09922 0,0.06063 -0.039963,0.101974 -0.038585,0.03996 -0.096463,0.03996 -0.07717,0 -0.2315103,0.0041 -0.1543401,0.0028 -0.2315102,0.0028 -0.09095,0 -0.2728514,0.0248 -0.1805228,0.02618 -0.2728513,0.02618 -0.057878,0 -0.097841,-0.04134 -0.038585,-0.03996 -0.038585,-0.09922 0,-0.05926 0.038585,-0.100596 0.039963,-0.04134 0.097841,-0.04134 0.089572,0 0.296278,-0.02894 0.01378,-0.111621 0.01378,-0.254937 0,-0.09508 -0.00965,-0.23151 -0.00827,-0.137804 -0.00827,-0.231511 0,-0.318326 0.038585,-0.795127 l -0.1791448,0.0055 -0.1791449,0.0041 q -0.059256,0 -0.099219,-0.03996 -0.039963,-0.03996 -0.039963,-0.101975 0,-0.128157 0.1295355,-0.140559 0.111621,-0.01103 0.4175452,-0.01103 0.2742294,0 0.6876406,0.05926 0.1226453,0.01791 0.1226453,0.14745 0,0.06477 -0.046853,0.103353 -0.041341,0.03169 -0.095085,0.03169 z m 1.4717444,1.814875 q -0.1185121,0 -0.1336701,-0.129535 l -0.03858,-0.30179 q -0.01929,-0.161231 -0.01929,-0.30179 0,-0.03858 0.0041,-0.130914 0.0055,-0.09233 0.0055,-0.130913 0,-0.297656 -0.110243,-0.297656 -0.154341,0 -0.2949,0.183279 -0.1267797,0.166742 -0.1984377,0.421679 -0.00276,0.05374 -0.012402,0.135048 -0.00827,0.0689 -0.00827,0.133669 0,0.04134 0.00827,0.124023 0.00827,0.08268 0.00827,0.124024 0,0.06201 -0.038585,0.100597 -0.037207,0.03858 -0.096463,0.03858 -0.060634,0 -0.097841,-0.03858 -0.037207,-0.03859 -0.037207,-0.100597 0,-0.04134 -0.00965,-0.124024 -0.00827,-0.08268 -0.00827,-0.124023 0,-0.141938 0.019293,-0.39274 0.02067,-0.252181 0.02067,-0.394119 0,-0.0441 -0.00551,-0.130914 -0.00413,-0.08682 -0.00413,-0.130913 0,-0.05926 0.038585,-0.09646 0.039963,-0.03858 0.097841,-0.03858 0.1267795,0 0.1391818,0.179145 l 0.00413,0.16123 q 0.2315102,-0.30868 0.4754232,-0.30868 0.2204858,0 0.3073018,0.194303 0.05926,0.129536 0.06477,0.383095 v 0.139181 l -0.0014,0.128158 q 0,0.114377 0.02894,0.296278 0.03032,0.180523 0.03032,0.293522 0,0.06063 -0.03996,0.09784 -0.03858,0.03858 -0.09784,0.03858 z"
       id="VM-In"
       style="font-size:2.82222px;font-family:'Comic Sans MS';-inkscape-font-specification:'Comic Sans MS, Normal';text-align:center;text-anchor:middle;display:inline;stroke:#000000;stroke-width:0;stroke-miterlimit:0"
       inkscape:label="VM-In"
       aria-label="VM-In">
      <title
         id="title31">VM Input</title>
    </path>
    <path
       d="m 12.431326,51.85599 q -0.03858,0 -0.16812,-0.01791 -0.01102,0.208083 -0.01102,0.728981 0,0.05512 -0.03583,0.09371 -0.03583,0.03721 -0.08957,0.03721 -0.05512,0 -0.09095,-0.03721 -0.03584,-0.03859 -0.03584,-0.09371 v -0.405143 q 0,-0.202571 0.0248,-0.570507 0.02756,-0.398253 0.03032,-0.570507 v -0.19017 q 0,-0.136425 0.01654,-0.198437 0.0317,-0.121267 0.135047,-0.104731 0.0441,-0.01378 0.125402,-0.02067 0.0813,-0.0069 0.199815,-0.0069 0.252181,0 0.472667,0.172254 0.242534,0.190169 0.242534,0.457509 0,0.341753 -0.259071,0.544324 -0.23151,0.181901 -0.556727,0.181901 z m 0.0689,-1.094161 q -0.06063,0 -0.108865,0.0028 -0.04685,0.0028 -0.07993,0.0083 l -0.0028,0.253559 -0.02894,0.548459 0.151584,0.01791 q 0.231511,0 0.389985,-0.117133 0.173633,-0.128158 0.173633,-0.345887 0,-0.154341 -0.165365,-0.265962 -0.152962,-0.101974 -0.329351,-0.101974 z m 3.070267,2.017446 q -0.07441,0 -0.122645,-0.07717 -0.04134,-0.06615 -0.07441,-0.220486 l -0.04961,-0.237022 q -0.0565,-0.220486 -0.179144,-0.972895 l -0.275608,0.830957 -0.0813,0.261827 q -0.04961,0.155718 -0.103353,0.254937 -0.05788,0.104731 -0.155718,0.104731 -0.0813,0 -0.128158,-0.08819 -0.03032,-0.05788 -0.05512,-0.14745 l -0.03996,-0.152962 Q 14.166275,51.8491 14.060166,51.293751 l -0.04961,0.246669 -0.177767,0.727603 q -0.01102,0.128158 -0.0689,0.37896 -0.04134,0.107487 -0.136425,0.107487 -0.06752,0 -0.107487,-0.04823 -0.03445,-0.04134 -0.03445,-0.101975 0,-0.230132 0.09508,-0.564995 l 0.151584,-0.555349 0.07993,-0.434082 q 0.06063,-0.304546 0.128157,-0.398252 0.05512,-0.07993 0.136426,-0.07993 0.08957,0 0.133669,0.101975 0.05374,0.122646 0.115755,0.500228 0.07304,0.453374 0.227377,0.981162 0.203949,-0.530544 0.352777,-1.105186 l 0.04134,-0.201193 q 0.02481,-0.121267 0.06477,-0.195681 0.05374,-0.101975 0.14745,-0.101975 0.118511,0 0.180523,0.228754 0.02205,0.07855 0.05374,0.325217 0.0813,0.622873 0.202572,1.063845 l 0.06752,0.237022 q 0.05237,0.190169 0.05237,0.234266 0,0.05926 -0.04547,0.09922 -0.0441,0.03996 -0.100597,0.03996 z m 2.818086,-0.07304 q -0.12678,0 -0.220486,-0.325217 -0.03583,-0.124023 -0.08957,-0.434081 -0.140559,0.01929 -0.367935,0.0689 l -0.366558,0.07579 q -0.0689,0.180523 -0.235645,0.527789 -0.0441,0.07717 -0.119889,0.07717 -0.05512,0 -0.09922,-0.03996 -0.04272,-0.03996 -0.04272,-0.09922 0,-0.06615 0.208084,-0.502984 -0.02343,-0.03583 -0.02343,-0.08268 0,-0.111621 0.135048,-0.143316 0.157096,-0.2949 0.396875,-0.677994 0.326594,-0.522276 0.406521,-0.522276 0.108864,0 0.148828,0.151584 l 0.08682,0.463021 0.205327,0.957735 0.07855,0.21773 q 0.03996,0.111621 0.03996,0.148828 0,0.05926 -0.04272,0.09922 -0.04272,0.03996 -0.09784,0.03996 z m -0.486447,-1.575096 -0.394119,0.635275 q 0.166743,-0.04272 0.50574,-0.103353 z m 1.941654,0.359667 q -0.02894,0 -0.0689,-0.0028 -0.03859,-0.0028 -0.06752,-0.0028 -0.03169,0 -0.187413,0.02067 l 0.02618,0.81442 0.0014,0.06063 0.0014,0.07028 q 0.0055,0.30179 -0.144694,0.30179 -0.05512,0 -0.09646,-0.03583 -0.03996,-0.03583 -0.03996,-0.08957 0,-0.05237 0.0041,-0.157096 0.0041,-0.104731 0.0041,-0.157097 l -0.02756,-0.804773 q -0.100597,-0.0041 -0.305924,-0.02343 -0.122646,-0.01654 -0.122646,-0.136426 0,-0.06063 0.03721,-0.100596 0.03721,-0.03996 0.09509,-0.03996 l 0.289388,0.02343 q 0,-0.07028 -0.0069,-0.187413 -0.0055,-0.118511 -0.0055,-0.170876 0,-0.05788 0.03996,-0.09508 0.03996,-0.03858 0.09784,-0.03858 0.124023,0 0.144694,0.202571 0.0041,0.05099 0.0041,0.122646 l -0.0028,0.07993 -0.0014,0.08544 q 0.170877,-0.02205 0.195681,-0.02205 0.143316,0 0.187413,0.01378 0.08406,0.02756 0.08406,0.129536 0,0.06063 -0.03859,0.100596 -0.03721,0.03859 -0.09646,0.03859 z m 1.329806,0 q -0.02894,0 -0.0689,-0.0028 -0.03858,-0.0028 -0.06752,-0.0028 -0.03169,0 -0.187413,0.02067 l 0.02618,0.81442 0.0014,0.06063 0.0014,0.07028 q 0.0055,0.30179 -0.144694,0.30179 -0.05512,0 -0.09646,-0.03583 -0.03996,-0.03583 -0.03996,-0.08957 0,-0.05237 0.0041,-0.157096 0.0041,-0.104731 0.0041,-0.157097 l -0.02756,-0.804773 q -0.100597,-0.0041 -0.305924,-0.02343 -0.122646,-0.01654 -0.122646,-0.136426 0,-0.06063 0.03721,-0.100596 0.03721,-0.03996 0.09509,-0.03996 l 0.289388,0.02343 q 0,-0.07028 -0.0069,-0.187413 -0.0055,-0.118511 -0.0055,-0.170876 0,-0.05788 0.03996,-0.09508 0.03996,-0.03858 0.09784,-0.03858 0.124023,0 0.144694,0.202571 0.0041,0.05099 0.0041,0.122646 l -0.0028,0.07993 -0.0014,0.08544 q 0.170876,-0.02205 0.195681,-0.02205 0.143316,0 0.187413,0.01378 0.08406,0.02756 0.08406,0.129536 0,0.06063 -0.03859,0.100596 -0.03721,0.03859 -0.09646,0.03859 z m 1.464854,1.271929 q -0.118511,0 -0.13367,-0.129536 l -0.03859,-0.30179 q -0.01929,-0.16123 -0.01929,-0.30179 0,-0.03858 0.0041,-0.130914 0.0055,-0.09233 0.0055,-0.130913 0,-0.297656 -0.110243,-0.297656 -0.15434,0 -0.2949,0.183279 -0.126779,0.166742 -0.198437,0.421679 -0.0028,0.05374 -0.0124,0.135048 -0.0083,0.0689 -0.0083,0.133669 0,0.04134 0.0083,0.124024 0.0083,0.08268 0.0083,0.124023 0,0.06201 -0.03859,0.100597 -0.03721,0.03858 -0.09646,0.03858 -0.06063,0 -0.09784,-0.03858 -0.03721,-0.03858 -0.03721,-0.100597 0,-0.04134 -0.0096,-0.124023 -0.0083,-0.08268 -0.0083,-0.124024 0,-0.141938 0.01929,-0.39274 0.02067,-0.252181 0.02067,-0.394119 0,-0.0441 -0.0055,-0.130913 -0.0041,-0.08682 -0.0041,-0.130914 0,-0.05926 0.03859,-0.09646 0.03996,-0.03859 0.09784,-0.03859 0.12678,0 0.139182,0.179145 l 0.0041,0.161231 q 0.23151,-0.308681 0.475423,-0.308681 0.220486,0 0.307302,0.194303 0.05926,0.129536 0.06477,0.383095 v 0.139182 l -0.0014,0.128157 q 0,0.114377 0.02894,0.296278 0.03032,0.180523 0.03032,0.293522 0,0.06063 -0.03996,0.09784 -0.03859,0.03859 -0.09784,0.03859 z"
       id="PM_Attn"
       style="font-size:2.82222px;font-family:'Comic Sans MS';-inkscape-font-specification:'Comic Sans MS, Normal';text-align:center;text-anchor:middle;stroke:#000000;stroke-width:0;stroke-miterlimit:0"
       inkscape:label="PM Attn"
       aria-label="PM Attn">
      <title
         id="title32">PM Attn</title>
    </path>
    <path
       d="m 2.4313267,51.85599 q -0.038585,0 -0.1681206,-0.01791 -0.011024,0.208083 -0.011024,0.728981 0,0.05512 -0.035829,0.09371 -0.035829,0.03721 -0.089572,0.03721 -0.055121,0 -0.09095,-0.03721 -0.035829,-0.03858 -0.035829,-0.09371 v -0.405143 q 0,-0.202571 0.024805,-0.570507 0.027561,-0.398253 0.030317,-0.570507 v -0.19017 q 0,-0.136425 0.016536,-0.198437 0.031695,-0.121267 0.1350476,-0.104731 0.044097,-0.01378 0.1254014,-0.02067 0.081304,-0.0069 0.1998154,-0.0069 0.2521808,0 0.4726667,0.172254 0.2425346,0.190169 0.2425346,0.457509 0,0.341753 -0.259071,0.544324 -0.2315103,0.181901 -0.556727,0.181901 z m 0.068902,-1.094161 q -0.060634,0 -0.1088649,0.0028 -0.046853,0.0028 -0.079926,0.0083 l -0.00276,0.253559 -0.028939,0.548459 0.1515841,0.01791 q 0.2315102,0 0.3899845,-0.117133 0.1736327,-0.128158 0.1736327,-0.345887 0,-0.154341 -0.1653645,-0.265962 -0.1529621,-0.101974 -0.3293509,-0.101974 z m 3.0702668,2.017446 q -0.074414,0 -0.1226453,-0.07717 -0.041341,-0.06615 -0.074414,-0.220486 l -0.049609,-0.237022 q -0.0565,-0.220486 -0.1791448,-0.972895 L 4.869075,52.102659 4.787771,52.364486 q -0.049609,0.155718 -0.1033528,0.254937 -0.057878,0.104731 -0.1557182,0.104731 -0.081304,0 -0.1281574,-0.08819 -0.030317,-0.05788 -0.055122,-0.14745 L 4.3054572,52.335547 Q 4.1662754,51.8491 4.0601666,51.293751 l -0.049609,0.246669 -0.1777668,0.727603 q -0.011024,0.128158 -0.068902,0.37896 -0.041341,0.107487 -0.1364257,0.107487 -0.067524,0 -0.1074869,-0.04823 -0.034451,-0.04134 -0.034451,-0.101975 0,-0.230132 0.095085,-0.564995 l 0.1515835,-0.55535 0.079926,-0.434082 q 0.060634,-0.304546 0.1281574,-0.398252 0.055122,-0.07993 0.1364257,-0.07993 0.089572,0 0.1336696,0.101975 0.053744,0.122646 0.1157551,0.500228 0.073036,0.453374 0.2273762,0.981162 0.2039495,-0.530544 0.3527775,-1.105186 l 0.041341,-0.201193 q 0.024805,-0.121267 0.064768,-0.195681 0.053744,-0.101975 0.14745,-0.101975 0.1185112,0 0.1805229,0.228754 0.022049,0.07855 0.053743,0.325217 0.081304,0.622873 0.2025715,1.063845 l 0.067524,0.237022 q 0.052365,0.190169 0.052365,0.234266 0,0.05926 -0.045475,0.09922 -0.044097,0.03996 -0.1005967,0.03996 z m 1.187868,-0.768945 q -0.187413,0.01929 -0.6669699,0.01929 -0.1157552,0 -0.1157552,-0.107487 0,-0.107487 0.1157552,-0.107487 0.1088649,0 0.3265948,-0.0096 0.2177298,-0.0096 0.3265948,-0.0096 0.1226453,0 0.1226453,0.107487 0,0.09509 -0.108865,0.107487 z m 1.55856,-1.062466 q -0.088194,0 -0.221864,-0.01792 l -0.221864,-0.02894 q -0.031695,0.401009 -0.031695,0.766189 0,0.09646 0.00551,0.2384 0.00551,0.141938 0.00551,0.238401 0,0.129535 -0.00965,0.235644 l 0.4340817,-0.0055 q 0.057878,0 0.096463,0.04134 0.039963,0.03996 0.039963,0.09922 0,0.06063 -0.039963,0.101975 -0.038585,0.03996 -0.096463,0.03996 -0.07717,0 -0.2315103,0.0041 -0.1543401,0.0028 -0.2315102,0.0028 -0.09095,0 -0.2728514,0.02481 -0.1805228,0.02618 -0.2728513,0.02618 -0.057878,0 -0.097841,-0.04134 -0.038585,-0.03996 -0.038585,-0.09922 0,-0.05926 0.038585,-0.100596 0.039963,-0.04134 0.097841,-0.04134 0.089572,0 0.296278,-0.02894 0.01378,-0.111621 0.01378,-0.254937 0,-0.09508 -0.00965,-0.23151 -0.00827,-0.137804 -0.00827,-0.23151 0,-0.318327 0.038585,-0.795128 l -0.1791448,0.0055 -0.1791449,0.0041 q -0.059256,0 -0.099219,-0.03996 -0.039963,-0.03996 -0.039963,-0.101974 0,-0.128158 0.1295355,-0.14056 0.111621,-0.01102 0.4175452,-0.01102 0.2742294,0 0.6876406,0.05926 0.1226453,0.01791 0.1226453,0.14745 0,0.06477 -0.046853,0.103353 -0.041341,0.0317 -0.095085,0.0317 z m 1.4717436,1.814875 q -0.118511,0 -0.133669,-0.129536 l -0.03859,-0.30179 q -0.01929,-0.16123 -0.01929,-0.30179 0,-0.03858 0.0041,-0.130914 0.0055,-0.09233 0.0055,-0.130913 0,-0.297656 -0.1102428,-0.297656 -0.1543401,0 -0.2948999,0.183279 -0.1267794,0.166742 -0.1984374,0.421679 -0.00276,0.05374 -0.012402,0.135048 -0.00827,0.0689 -0.00827,0.133669 0,0.04134 0.00827,0.124024 0.00827,0.08268 0.00827,0.124023 0,0.06201 -0.038585,0.100597 -0.037207,0.03858 -0.096463,0.03858 -0.060634,0 -0.097841,-0.03858 -0.037207,-0.03858 -0.037207,-0.100597 0,-0.04134 -0.00965,-0.124023 -0.00827,-0.08268 -0.00827,-0.124024 0,-0.141938 0.019293,-0.39274 0.02067,-0.252181 0.02067,-0.394119 0,-0.0441 -0.00551,-0.130913 -0.00413,-0.08682 -0.00413,-0.130914 0,-0.05926 0.038585,-0.09646 0.039963,-0.03859 0.097841,-0.03859 0.1267794,0 0.1391817,0.179145 l 0.00413,0.161231 q 0.2315103,-0.308681 0.4754228,-0.308681 0.2204858,0 0.3073028,0.194303 0.05926,0.129536 0.06477,0.383095 v 0.139182 l -0.0014,0.128157 q 0,0.114377 0.02894,0.296278 0.03032,0.180523 0.03032,0.293522 0,0.06063 -0.03996,0.09784 -0.03858,0.03859 -0.09784,0.03859 z"
       id="PM-In"
       style="font-size:2.82222px;font-family:'Comic Sans MS';-inkscape-font-specification:'Comic Sans MS, Normal';text-align:center;text-anchor:middle;display:inline;stroke:#000000;stroke-width:0;stroke-miterlimit:0"
       inkscape:label="PM-In"
       aria-label="PM-In">
      <title
         id="title30">PM Input</title>
    </path>
    <path
       d="m 13.285763,35.856914 q -0.02481,0 -0.05237,-0.01102 -0.170884,-0.06339 -0.452014,-0.06339 -0.09095,0 -0.213605,0.01378 -0.121273,0.0124 -0.272863,0.03996 l -0.0028,0.595313 q 0.265972,-0.07028 0.399647,-0.07028 0.212226,0 0.439612,0.02481 0.129541,0.01378 0.129541,0.14056 0,0.06201 -0.03996,0.103353 -0.03996,0.03996 -0.09922,0.03996 -0.07166,0 -0.214983,-0.0124 -0.143322,-0.0124 -0.214983,-0.0124 -0.09371,0 -0.405159,0.07993 l -0.0124,0.948092 q 0,0.05926 -0.03859,0.09922 -0.03859,0.04134 -0.09784,0.04134 -0.05926,0 -0.09922,-0.04134 -0.03859,-0.03996 -0.03859,-0.09922 0,-0.271474 0.0096,-0.814421 0.01103,-0.544326 0.01103,-0.8158 0,-0.06064 -0.0028,-0.1819 -0.0014,-0.122646 -0.0014,-0.18328 0,-0.06064 0.03721,-0.101975 0.03859,-0.04134 0.09922,-0.04134 0.04548,0 0.08131,0.02481 0.170883,-0.03032 0.307315,-0.0441 0.136432,-0.01516 0.239789,-0.01516 0.15848,0 0.362438,0.04548 0.276996,0.06339 0.276996,0.165365 0,0.05512 -0.03583,0.09784 -0.03996,0.04823 -0.09922,0.04823 z m 2.428201,1.925121 q -0.07442,0 -0.122651,-0.07717 -0.04134,-0.06615 -0.07442,-0.220486 l -0.04961,-0.237023 q -0.0565,-0.220486 -0.179153,-0.972895 l -0.275618,0.830958 -0.08131,0.261827 q -0.04961,0.155719 -0.103357,0.254937 -0.05788,0.104731 -0.155724,0.104731 -0.08131,0 -0.128163,-0.0882 -0.03032,-0.05788 -0.05512,-0.14745 l -0.03996,-0.152962 q -0.139188,-0.486448 -0.245301,-1.041797 l -0.04961,0.246668 -0.177775,0.727606 q -0.01102,0.128157 -0.0689,0.37896 -0.04134,0.107487 -0.136432,0.107487 -0.06753,0 -0.107491,-0.04823 -0.03445,-0.04134 -0.03445,-0.101975 0,-0.230132 0.09509,-0.564997 l 0.15159,-0.555349 0.07993,-0.434082 q 0.06064,-0.304547 0.128163,-0.398253 0.05512,-0.07993 0.136431,-0.07993 0.08957,0 0.133675,0.101975 0.05374,0.122646 0.11576,0.500228 0.07304,0.453375 0.227386,0.981164 0.203958,-0.530545 0.352792,-1.105187 l 0.04134,-0.201194 q 0.0248,-0.121268 0.06477,-0.195681 0.05374,-0.101975 0.147456,-0.101975 0.118516,0 0.18053,0.228754 0.02205,0.07855 0.05374,0.325217 0.08131,0.622873 0.20258,1.063847 l 0.06752,0.237022 q 0.05237,0.190169 0.05237,0.234266 0,0.05926 -0.04548,0.09922 -0.0441,0.03996 -0.100601,0.03996 z m 2.818202,-0.07304 q -0.126785,0 -0.220496,-0.325218 -0.03583,-0.124023 -0.08957,-0.434082 -0.140566,0.01929 -0.367952,0.0689 l -0.366573,0.07579 q -0.0689,0.180524 -0.235654,0.527789 -0.0441,0.07717 -0.119894,0.07717 -0.05512,0 -0.09922,-0.03996 -0.04272,-0.03996 -0.04272,-0.09922 0,-0.06615 0.208092,-0.502984 -0.02343,-0.03583 -0.02343,-0.08268 0,-0.111621 0.135053,-0.143317 0.157103,-0.2949 0.396891,-0.677994 0.326609,-0.522277 0.406537,-0.522277 0.108871,0 0.148835,0.151584 l 0.08682,0.463021 0.205336,0.957737 0.07855,0.217731 q 0.03996,0.11162 0.03996,0.148828 0,0.05926 -0.04272,0.09922 -0.04272,0.03996 -0.09784,0.03996 z m -0.486468,-1.575099 -0.394135,0.635276 q 0.16675,-0.04272 0.505761,-0.103353 z m 1.941734,0.359668 q -0.02894,0 -0.0689,-0.0028 -0.03859,-0.0028 -0.06752,-0.0028 -0.03169,0 -0.187421,0.02067 l 0.02618,0.814421 0.0014,0.06063 0.0014,0.07028 q 0.0055,0.301791 -0.1447,0.301791 -0.05512,0 -0.09646,-0.03583 -0.03996,-0.03583 -0.03996,-0.08957 0,-0.05237 0.0041,-0.157097 0.0041,-0.104731 0.0041,-0.157096 l -0.02756,-0.804775 q -0.100601,-0.0041 -0.305937,-0.02343 -0.122651,-0.01654 -0.122651,-0.136426 0,-0.06063 0.03721,-0.100597 0.03721,-0.03996 0.09509,-0.03996 l 0.2894,0.02343 q 0,-0.07028 -0.0069,-0.187413 -0.0055,-0.118512 -0.0055,-0.170878 0,-0.05788 0.03996,-0.09509 0.03996,-0.03859 0.09784,-0.03859 0.124029,0 0.1447,0.202572 0.0041,0.05099 0.0041,0.122645 l -0.0028,0.07993 -0.0014,0.08544 q 0.170883,-0.02205 0.195689,-0.02205 0.143322,0 0.187421,0.01378 0.08406,0.02756 0.08406,0.129536 0,0.06063 -0.03859,0.100597 -0.03721,0.03859 -0.09646,0.03859 z m 1.329861,0 q -0.02894,0 -0.0689,-0.0028 -0.03858,-0.0028 -0.06752,-0.0028 -0.03169,0 -0.187421,0.02067 l 0.02618,0.814421 0.0014,0.06063 0.0014,0.07028 q 0.0055,0.301791 -0.1447,0.301791 -0.05512,0 -0.09646,-0.03583 -0.03996,-0.03583 -0.03996,-0.08957 0,-0.05237 0.0041,-0.157097 0.0041,-0.104731 0.0041,-0.157096 l -0.02756,-0.804775 q -0.100601,-0.0041 -0.305937,-0.02343 -0.12265,-0.01654 -0.12265,-0.136426 0,-0.06063 0.03721,-0.100597 0.03721,-0.03996 0.09509,-0.03996 l 0.2894,0.02343 q 0,-0.07028 -0.0069,-0.187413 -0.0055,-0.118512 -0.0055,-0.170878 0,-0.05788 0.03996,-0.09509 0.03996,-0.03859 0.09784,-0.03859 0.124029,0 0.1447,0.202572 0.0041,0.05099 0.0041,0.122645 l -0.0028,0.07993 -0.0014,0.08544 q 0.170884,-0.02205 0.195689,-0.02205 0.143322,0 0.187421,0.01378 0.08406,0.02756 0.08406,0.129536 0,0.06063 -0.03859,0.100597 -0.03721,0.03859 -0.09646,0.03859 z m 1.464913,1.27193 q -0.118516,0 -0.133675,-0.129536 l -0.03859,-0.30179 q -0.01929,-0.16123 -0.01929,-0.301791 0,-0.03859 0.0041,-0.130913 0.0055,-0.09233 0.0055,-0.130914 0,-0.297657 -0.110247,-0.297657 -0.154346,0 -0.294912,0.18328 -0.126784,0.166743 -0.198446,0.421679 -0.0028,0.05374 -0.0124,0.135049 -0.0083,0.0689 -0.0083,0.133669 0,0.04134 0.0083,0.124024 0.0083,0.08268 0.0083,0.124023 0,0.06201 -0.03859,0.100597 -0.03721,0.03859 -0.09646,0.03859 -0.06063,0 -0.09784,-0.03859 -0.03721,-0.03859 -0.03721,-0.100597 0,-0.04134 -0.0096,-0.124023 -0.0083,-0.08268 -0.0083,-0.124024 0,-0.141938 0.01929,-0.392741 0.02067,-0.252181 0.02067,-0.394119 0,-0.0441 -0.0055,-0.130914 -0.0041,-0.08682 -0.0041,-0.130913 0,-0.05926 0.03859,-0.09647 0.03996,-0.03859 0.09784,-0.03859 0.126784,0 0.139188,0.179145 l 0.0041,0.161231 q 0.231519,-0.308681 0.475442,-0.308681 0.220495,0 0.307315,0.194303 0.05926,0.129536 0.06477,0.383095 v 0.139182 l -0.0014,0.128157 q 0,0.114378 0.02894,0.296279 0.03032,0.180523 0.03032,0.293523 0,0.06063 -0.03996,0.09784 -0.03859,0.03859 -0.09784,0.03859 z"
       id="FM_Attn"
       style="font-size:2.82228px;font-family:'Comic Sans MS';-inkscape-font-specification:'Comic Sans MS, Normal';text-align:center;text-anchor:middle;display:inline;stroke:#000000;stroke-width:0;stroke-miterlimit:0"
       inkscape:label="FM Attn"
       aria-label="FM Attn">
      <title
         id="title29">FM Attn</title>
    </path>
    <path
       d="m 3.2856987,35.856917 q -0.024805,0 -0.052364,-0.01102 -0.1708748,-0.06339 -0.4519913,-0.06339 -0.090949,0 -0.2135934,0.01378 -0.121266,0.0124 -0.2728485,0.03996 l -0.00276,0.595318 q 0.2659583,-0.07028 0.3996264,-0.07028 0.2122155,0 0.4395892,0.02481 0.1295341,0.01378 0.1295341,0.140561 0,0.06201 -0.039963,0.103355 -0.039963,0.03996 -0.099218,0.03996 -0.071657,0 -0.2149715,-0.0124 -0.1433143,-0.0124 -0.2149715,-0.0124 -0.093706,0 -0.4051385,0.07993 l -0.012402,0.9481 q 0,0.05926 -0.038585,0.09922 -0.038585,0.04134 -0.09784,0.04134 -0.059255,0 -0.099218,-0.04134 Q 2,37.732463 2,37.673202 q 0,-0.271477 0.00965,-0.814429 0.011024,-0.544331 0.011024,-0.815807 0,-0.06063 -0.00276,-0.181903 -0.00138,-0.122646 -0.00138,-0.183281 0,-0.06063 0.037207,-0.101976 0.038585,-0.04134 0.099218,-0.04134 0.045474,0 0.081303,0.02481 0.1708747,-0.03032 0.307299,-0.0441 0.1364241,-0.01516 0.2397758,-0.01516 0.1584726,0 0.3624199,0.04548 0.2769825,0.06339 0.2769825,0.165367 0,0.05512 -0.035829,0.09784 -0.039963,0.04823 -0.099218,0.04823 z m 2.4280754,1.925139 q -0.074413,0 -0.122644,-0.07717 -0.041341,-0.06615 -0.074413,-0.220488 L 5.4671084,37.247371 Q 5.410609,37.026883 5.2879656,36.274467 l -0.2756045,0.830966 -0.081303,0.26183 q -0.049608,0.155719 -0.1033517,0.254938 -0.057877,0.104732 -0.1557165,0.104732 -0.081303,0 -0.1281561,-0.08819 -0.030317,-0.05788 -0.055121,-0.147451 L 4.4487496,37.338323 Q 4.3095693,36.851871 4.2034615,36.296516 l -0.049608,0.246671 -0.1777649,0.727612 q -0.011024,0.128158 -0.068901,0.378964 -0.041341,0.107488 -0.1364242,0.107488 -0.067523,0 -0.1074857,-0.04823 -0.034451,-0.04134 -0.034451,-0.101976 0,-0.230134 0.095083,-0.565001 l 0.1515825,-0.555355 0.079925,-0.434087 q 0.060633,-0.304549 0.128156,-0.398257 0.055121,-0.07993 0.1364243,-0.07993 0.089571,0 0.1336681,0.101976 0.053742,0.122647 0.1157539,0.500233 0.073035,0.45338 0.2273736,0.981173 0.2039473,-0.530549 0.3527738,-1.105198 l 0.041341,-0.201195 q 0.024805,-0.121269 0.064767,-0.195684 0.053742,-0.101975 0.1474484,-0.101975 0.1185099,0 0.1805209,0.228756 0.022049,0.07855 0.053742,0.325221 0.081303,0.622879 0.2025693,1.063855 l 0.067523,0.237026 q 0.052364,0.190171 0.052364,0.234269 0,0.05926 -0.045475,0.09922 -0.044096,0.03996 -0.1005956,0.03996 z m 1.1878553,-0.768953 q -0.187411,0.01929 -0.6669628,0.01929 -0.1157539,0 -0.1157539,-0.107488 0,-0.107488 0.1157539,-0.107488 0.1088638,0 0.3265913,-0.0096 0.2177275,-0.0096 0.3265913,-0.0096 0.122644,0 0.122644,0.107489 0,0.09508 -0.1088638,0.107488 z m 1.5585432,-1.062479 q -0.088193,0 -0.2218616,-0.01791 l -0.2218617,-0.02894 q -0.031695,0.401013 -0.031695,0.766197 0,0.09646 0.00551,0.238403 0.00551,0.141939 0.00551,0.238403 0,0.129537 -0.00965,0.235647 l 0.434077,-0.0055 q 0.057877,0 0.096462,0.04134 0.039963,0.03996 0.039963,0.09922 0,0.06063 -0.039963,0.101975 -0.038584,0.03996 -0.096462,0.03996 -0.077169,0 -0.2315078,0.0041 -0.1543385,0.0028 -0.2315077,0.0028 -0.090949,0 -0.2728485,0.0248 -0.1805208,0.02618 -0.2728483,0.02618 -0.057877,0 -0.09784,-0.04134 -0.038585,-0.03996 -0.038585,-0.09922 0,-0.05926 0.038585,-0.100598 0.039963,-0.04134 0.09784,-0.04134 0.089571,0 0.2962748,-0.02894 0.01378,-0.111622 0.01378,-0.25494 0,-0.09508 -0.00965,-0.231513 -0.00827,-0.137805 -0.00827,-0.231513 0,-0.318329 0.038585,-0.795135 l -0.1791429,0.0055 -0.1791429,0.0041 q -0.059255,0 -0.099218,-0.03996 -0.039962,-0.03996 -0.039962,-0.101976 0,-0.128158 0.1295341,-0.140561 0.1116198,-0.01102 0.4175407,-0.01102 0.2742264,0 0.6876332,0.05926 0.1226439,0.01791 0.1226439,0.147452 0,0.06477 -0.046852,0.103354 -0.041341,0.03169 -0.095084,0.03169 z m 1.4717278,1.814895 q -0.1185097,0 -0.1336686,-0.129537 l -0.038579,-0.301793 q -0.01929,-0.161233 -0.01929,-0.301793 0,-0.03859 0.0041,-0.130915 0.0055,-0.09233 0.0055,-0.130916 0,-0.297659 -0.1102419,-0.297659 -0.1543383,0 -0.2948966,0.183281 -0.126778,0.166745 -0.1984352,0.421684 -0.00276,0.05374 -0.012402,0.135049 -0.00827,0.0689 -0.00827,0.133671 0,0.04134 0.00827,0.124025 0.00827,0.08268 0.00827,0.124025 0,0.06201 -0.038585,0.100597 -0.037207,0.03858 -0.096462,0.03858 -0.060633,0 -0.09784,-0.03858 -0.037207,-0.03858 -0.037207,-0.100597 0,-0.04134 -0.00965,-0.124025 -0.00827,-0.08268 -0.00827,-0.124025 0,-0.141939 0.019293,-0.392745 0.02067,-0.252183 0.02067,-0.394122 0,-0.0441 -0.00551,-0.130916 -0.00413,-0.08682 -0.00413,-0.130914 0,-0.05926 0.038585,-0.09646 0.039962,-0.03859 0.09784,-0.03859 0.126778,0 0.1391802,0.179146 l 0.00413,0.161232 q 0.2315078,-0.308683 0.4754175,-0.308683 0.2204837,0 0.3072987,0.194305 0.05926,0.129537 0.06477,0.383099 v 0.139183 l -0.0014,0.128159 q 0,0.114378 0.02894,0.296281 0.03032,0.180525 0.03032,0.293525 0,0.06063 -0.03996,0.09784 -0.03858,0.03858 -0.097839,0.03858 z"
       id="FM-In"
       style="font-size:2.82222px;font-family:'Comic Sans MS';-inkscape-font-specification:'Comic Sans MS, Normal';text-align:center;text-anchor:middle;display:inline;stroke:#000000;stroke-width:0;stroke-miterlimit:0"
       inkscape:label="FM-In"
       aria-label="FM-In">
      <title
         id="title28">FM Input</title>
    </path>
    <path
       d="m 16.681665,22.714729 q -0.485757,0 -0.823376,-0.29111 Q 15.5,22.113561 15.5,21.624358 q 0,-0.596 0.353122,-1.08348 0.394462,-0.540879 0.983572,-0.540879 0.566717,0 0.842324,0.254937 0.287665,0.265272 0.287665,0.837156 0,0.596 -0.323838,1.074868 -0.372069,0.547769 -0.96118,0.547769 z m 0.155029,-2.361608 q -0.422023,0 -0.714855,0.420301 -0.27044,0.385849 -0.27044,0.850936 0,0.332451 0.246324,0.540879 0.235989,0.19637 0.583942,0.19637 0.418579,0 0.690741,-0.422023 0.242878,-0.377237 0.242878,-0.847492 0,-0.411688 -0.184312,-0.578775 -0.175699,-0.160196 -0.594278,-0.160196 z m 2.92488,1.250567 q 0,0.124023 0.0017,0.372069 0.0017,0.248047 0.0017,0.37207 0,0.0379 0.0052,0.11541 0.0069,0.07752 0.0069,0.115411 0,0.07407 -0.04995,0.120578 -0.04995,0.04823 -0.1223,0.04823 -0.132636,0 -0.16881,-0.163642 -0.215318,0.111966 -0.496092,0.111966 -0.225654,0 -0.373793,-0.09991 -0.163641,-0.110243 -0.194647,-0.322116 -0.06718,-0.456474 -0.06718,-0.81304 0,-0.235989 0.05168,-0.537434 0.02412,-0.149861 0.163642,-0.149861 0.07407,0 0.124023,0.04823 0.04995,0.04651 0.04995,0.120578 0,0.07924 -0.02584,0.253214 -0.02412,0.173977 -0.02412,0.265272 0,0.287664 0.01895,0.492647 0.01895,0.204983 0.05684,0.329006 0.05684,0.03101 0.111965,0.04823 0.05512,0.0155 0.108521,0.0155 0.23082,0 0.487479,-0.07407 l -0.0017,-0.349677 -0.0034,-0.334173 q 0,-0.37207 0.03273,-0.645954 0.01895,-0.158474 0.167087,-0.158474 0.07407,0 0.124023,0.04823 0.04995,0.04823 0.04651,0.120578 z m 1.581295,-0.461642 q -0.03617,0 -0.08613,-0.0034 -0.04823,-0.0034 -0.08441,-0.0034 -0.03962,0 -0.234266,0.02584 l 0.03273,1.018023 0.0017,0.07579 0.0017,0.08785 q 0.0069,0.377237 -0.180867,0.377237 -0.0689,0 -0.120578,-0.04479 -0.04995,-0.04479 -0.04995,-0.111965 0,-0.06546 0.0052,-0.19637 0.0052,-0.130914 0.0052,-0.19637 l -0.03445,-1.005966 q -0.125746,-0.0052 -0.382405,-0.02928 -0.153306,-0.02067 -0.153306,-0.170532 0,-0.07579 0.04651,-0.125746 0.04651,-0.04995 0.118855,-0.04995 l 0.361734,0.02928 q 0,-0.08785 -0.0086,-0.234266 -0.0069,-0.148139 -0.0069,-0.213596 0,-0.07235 0.04995,-0.118855 0.04995,-0.04823 0.122301,-0.04823 0.155029,0 0.180867,0.253214 0.0052,0.06373 0.0052,0.153306 l -0.0034,0.09991 -0.0017,0.106798 q 0.213596,-0.02756 0.244601,-0.02756 0.179145,0 0.234266,0.01722 0.105075,0.03445 0.105075,0.161919 0,0.07579 -0.04823,0.125746 -0.04651,0.04823 -0.120578,0.04823 z"
       id="Out"
       style="display:inline;font-size:3.52777px;font-family:'Comic Sans MS';-inkscape-font-specification:'Comic Sans MS, Normal';text-align:center;text-anchor:middle;stroke:#000000;stroke-width:0;stroke-miterlimit:0"
       inkscape:label="Out"
       aria-label="Out">
      <title
         id="title26">Output</title>
    </path>
    <path
       d="m 5.2821117,20.282497 q -0.106798,0.160197 -0.1739774,0.335897 l -0.1309137,0.377238 -0.4633657,1.252293 q -0.08096,0.220487 -0.1894803,0.430638 -0.055122,0.103353 -0.1550294,0.103353 -0.1326363,0 -0.1860353,-0.134359 -0.2084284,-0.523655 -0.4633657,-1.507231 l -0.1360813,-0.4737 q -0.1016304,-0.358291 -0.1016304,-0.468534 0,-0.07751 0.055122,-0.127468 0.049954,-0.04651 0.1205784,-0.04651 0.1309137,0 0.1688098,0.141249 l 0.063734,0.299723 0.1653647,0.585667 q 0.1653647,0.640788 0.3221166,1.104154 l 0.010335,-0.02756 0.4616431,-1.25057 0.1464166,-0.422025 q 0.098185,-0.254937 0.2084285,-0.385851 0.056844,-0.0689 0.1343588,-0.0689 0.068902,0 0.1223009,0.0534 0.055122,0.05168 0.055122,0.125746 0,0.05168 -0.034451,0.103353 z m 1.2126743,1.543404 q -0.2342666,0.02412 -0.8337136,0.02412 -0.1446941,0 -0.1446941,-0.134359 0,-0.134359 0.1446941,-0.134359 0.1360814,0 0.4082441,-0.01206 0.2721627,-0.01206 0.4082441,-0.01206 0.1533068,0 0.1533068,0.134359 0,0.118856 -0.1360814,0.134359 z m 1.9482027,-1.328085 q -0.1102431,0 -0.2773303,-0.02239 L 7.888328,20.439249 q -0.039619,0.501262 -0.039619,0.957737 0,0.120579 0.00689,0.298001 0.00689,0.177423 0.00689,0.298001 0,0.16192 -0.012058,0.294556 l 0.5426029,-0.0069 q 0.072347,0 0.1205785,0.05168 0.049954,0.04995 0.049954,0.124024 0,0.07579 -0.049954,0.127468 -0.048231,0.04995 -0.1205785,0.04995 -0.096463,0 -0.2893882,0.0052 -0.1929254,0.0034 -0.2893882,0.0034 -0.1136882,0 -0.3410647,0.03101 -0.2256539,0.03273 -0.3410646,0.03273 -0.072347,0 -0.122301,-0.05168 -0.048231,-0.04995 -0.048231,-0.124024 0,-0.07407 0.048231,-0.125746 0.049954,-0.05168 0.122301,-0.05168 0.1119656,0 0.370348,-0.03617 0.017225,-0.139526 0.017225,-0.318671 0,-0.118856 -0.012058,-0.289388 -0.010335,-0.172255 -0.010335,-0.289389 0,-0.397908 0.048231,-0.99391 l -0.2239314,0.0069 -0.2239313,0.0052 q -0.07407,0 -0.1240235,-0.04995 -0.049954,-0.04995 -0.049954,-0.127469 0,-0.160197 0.1619196,-0.1757 0.1395264,-0.01378 0.5219323,-0.01378 0.3427872,0 0.8595518,0.07407 0.1533069,0.02239 0.1533069,0.184313 0,0.08096 -0.058567,0.129191 -0.051676,0.03962 -0.1188559,0.03962 z m 1.8396823,2.268597 q -0.148139,0 -0.167087,-0.16192 l -0.04823,-0.377238 q -0.02412,-0.201538 -0.02412,-0.377238 0,-0.04823 0.0052,-0.163643 0.0069,-0.11541 0.0069,-0.163642 0,-0.37207 -0.1378042,-0.37207 -0.1929254,0 -0.3686254,0.229099 -0.1584745,0.208428 -0.2480471,0.5271 -0.00345,0.06718 -0.015503,0.16881 -0.010335,0.08613 -0.010335,0.167087 0,0.05168 0.010335,0.155029 0.010335,0.103353 0.010335,0.15503 0,0.07751 -0.048231,0.125746 -0.046509,0.04823 -0.1205784,0.04823 -0.075792,0 -0.122301,-0.04823 -0.046509,-0.04823 -0.046509,-0.125746 0,-0.05168 -0.012058,-0.15503 -0.010335,-0.103353 -0.010335,-0.155029 0,-0.177423 0.024116,-0.490927 0.025838,-0.315226 0.025838,-0.492649 0,-0.05512 -0.00689,-0.163642 -0.00517,-0.10852 -0.00517,-0.163642 0,-0.07407 0.048231,-0.120578 0.049954,-0.04823 0.122301,-0.04823 0.1584745,0 0.1739774,0.223932 l 0.00517,0.201538 q 0.2893882,-0.385851 0.5942793,-0.385851 0.2756082,0 0.3841282,0.242879 0.07407,0.16192 0.08096,0.478869 v 0.173977 l -0.0017,0.160197 q 0,0.142972 0.03617,0.370348 0.0379,0.225654 0.0379,0.366903 0,0.07579 -0.04995,0.122301 -0.04823,0.04823 -0.122301,0.04823 z"
       id="V-In"
       style="display:inline;font-size:3.52778px;font-family:'Comic Sans MS';-inkscape-font-specification:'Comic Sans MS, Normal';text-align:center;text-anchor:middle;stroke:#000000;stroke-width:0;stroke-miterlimit:0"
       inkscape:label="V-In"
       aria-label="V-In">
      <title
         id="title16">V/Oct Input</title>
    </path>
    <path
       d="m 5.9009507,7.7473538 q -0.43752,0 -0.6890078,-0.1946447 Q 5.000073,7.3907923 5.000073,7.1789224 q 0,-0.1085188 0.065456,-0.1791421 0.065456,-0.072346 0.1808646,-0.072346 0.1550267,0 0.2273726,0.1584718 0.098184,0.2118699 0.44441,0.2118699 0.2962734,0 0.573599,-0.129189 0.2876608,-0.132634 0.2876608,-0.2911058 0,-0.2170374 -0.1791421,-0.2859382 Q 6.4728272,6.5415901 6.0887053,6.5329775 5.7907095,6.5260875 5.5547243,6.4210138 5.2360582,6.2780446 5.2412257,6.0110541 5.2463933,5.6751628 5.5995098,5.3961146 5.9526263,5.115344 6.3780886,5.115344 q 0.1688069,0 0.4168497,0.077513 0.308331,0.096461 0.308331,0.2222051 0,0.089571 -0.062011,0.1584718 -0.068901,0.077513 -0.1774195,0.077513 -0.080958,0 -0.2428752,-0.03445 -0.1601944,-0.03445 -0.2428753,-0.03445 -0.222205,0.00172 -0.4220173,0.1067962 -0.2067023,0.1067962 -0.2067023,0.2325401 0,0.065456 0.062011,0.1085187 0.063733,0.041341 0.1894771,0.058566 0.2204825,0.012058 0.4392425,0.024115 0.3823993,0.029283 0.6046044,0.2153149 0.2445977,0.2067024 0.2445977,0.5718765 0,0.44441 -0.5064207,0.6735051 -0.3858444,0.1739745 -0.88193,0.1739745 z M 7.9318012,5.5718116 q -0.1102413,0 -0.1911997,-0.074068 -0.080958,-0.074068 -0.080958,-0.1808645 0,-0.1067963 0.080958,-0.1808646 0.080958,-0.074068 0.1911997,-0.074068 0.1102412,0 0.1894771,0.074068 0.080958,0.074068 0.080958,0.1808646 0,0.1067962 -0.080958,0.1808645 -0.079236,0.074068 -0.1894771,0.074068 z m 0.1464141,1.2626068 q 0,0.098184 0.00517,0.3152211 0.00689,0.2170375 0.00689,0.3152211 0,0.099906 -0.067178,0.1653619 -0.067178,0.063733 -0.1705294,0.063733 -0.1033512,0 -0.1705294,-0.063733 -0.067178,-0.065456 -0.067178,-0.1653619 0,-0.098184 -0.00689,-0.3152211 Q 7.6028,6.9326021 7.6028,6.8344184 q 0,-0.1533042 0.017225,-0.3841218 0.017225,-0.2308176 0.017225,-0.3841219 0,-0.099906 0.067178,-0.1636393 0.067178,-0.065456 0.1705294,-0.065456 0.1033512,0 0.1705295,0.065456 0.067178,0.063733 0.067178,0.1636393 0,0.1533043 -0.017225,0.3841219 -0.017225,0.2308176 -0.017225,0.3841218 z m 1.806923,0.9301606 q -0.2118699,0 -0.2359852,-0.2084249 Q 9.6250378,7.3787346 9.6009225,7.1995926 9.5750847,7.0101154 9.5750847,6.843031 q 0,-0.044785 0.00517,-0.1533042 0.00689,-0.1085187 0.00689,-0.1533042 0,-0.012058 0.00345,-0.060288 0.00345,-0.049953 0.00345,-0.080958 0,-0.1429691 -0.074068,-0.1429691 -0.1584718,0 -0.311776,0.1860321 -0.1515817,0.1843095 -0.2377077,0.4685253 -0.00345,0.056843 -0.015503,0.1515817 -0.010335,0.077513 -0.010335,0.1515817 0,0.04823 0.010335,0.1464142 0.012058,0.096461 0.012058,0.1446916 0,0.098184 -0.068901,0.1619168 -0.067178,0.065456 -0.1705295,0.065456 -0.1033511,0 -0.1705294,-0.065456 -0.067178,-0.063733 -0.067178,-0.1619168 0,-0.04823 -0.010335,-0.1446916 -0.010335,-0.098184 -0.010335,-0.1464142 0,-0.1653619 0.024115,-0.4599127 0.024115,-0.2945508 0.024115,-0.4599127 0,-0.051676 -0.00689,-0.1533043 -0.00517,-0.1033511 -0.00517,-0.1533042 0,-0.096461 0.068901,-0.1584718 0.070623,-0.063733 0.172252,-0.063733 0.22565,0 0.2411527,0.2704356 l 0.00172,0.018948 q 0.2514879,-0.2532104 0.530536,-0.2532104 0.3255562,0 0.4495776,0.2721581 0.082681,0.1825871 0.082681,0.5460387 v 0.1222989 q -0.0017,0.079236 -0.0017,0.1119637 0,0.1343565 0.03617,0.3462264 0.0379,0.2118699 0.0379,0.344504 0,0.096461 -0.0689,0.1601943 -0.068901,0.063733 -0.1705297,0.063733 z M 11.242484,7.721516 q -0.411683,0 -0.673505,-0.1963672 -0.289384,-0.2170375 -0.289384,-0.6114945 0,-0.4357974 0.229095,-0.7372383 0.254933,-0.3341688 0.687286,-0.3341688 0.299718,0 0.497808,0.096461 0.2601,0.1274664 0.2601,0.3961795 0,0.1894771 -0.21187,0.3358913 -0.09646,0.067178 -0.387567,0.1963672 l -0.580489,0.2566554 q 0.08268,0.089571 0.199813,0.1343565 0.117131,0.044786 0.268713,0.044786 0.230817,0 0.391012,-0.094739 0.142969,-0.084404 0.229095,-0.084404 0.179142,0 0.179142,0.1739745 0,0.1963672 -0.287661,0.3203886 -0.241153,0.1033512 -0.511588,0.1033512 z m -0.04651,-1.4624191 q -0.160195,0 -0.273881,0.1067962 -0.113686,0.1067962 -0.182587,0.3203887 0.194645,-0.084403 0.387567,-0.1670844 0.23254,-0.1050737 0.370342,-0.1946447 -0.115409,-0.065456 -0.301441,-0.065456 z m 3.59662,0.659725 q 0.260101,-0.6545574 0.40307,-1.0421243 0.07579,-0.2049798 0.149859,-0.4116822 0.101629,-0.2445977 0.21876,-0.3772317 0.07751,-0.087848 0.186032,-0.087848 0.09818,0 0.172252,0.068901 0.07407,0.067178 0.07407,0.1653619 0,0.068901 -0.04651,0.1360791 -0.09302,0.1343565 -0.170529,0.3238336 -0.0034,0.00689 -0.127466,0.3410589 -0.155027,0.397902 -0.461636,1.193706 -0.07924,0.2084249 -0.194644,0.4168497 -0.07407,0.1343566 -0.215315,0.1343566 -0.179142,0 -0.249766,-0.1688069 Q 14.320626,7.1100216 14.063971,6.1660809 13.993347,5.9335407 13.921001,5.7010006 13.82454,5.3771669 13.82454,5.251423 q 0,-0.1016286 0.07579,-0.1688069 0.07235,-0.062011 0.168807,-0.062011 0.165362,0 0.230818,0.1722519 0.03445,0.1498592 0.0689,0.2979959 0.05684,0.1860321 0.16364,0.5580963 0.134356,0.4926406 0.2601,0.8698724 z m 3.190106,-1.1110251 q -0.155027,0 -0.229095,-0.1636393 -0.03445,-0.077513 -0.0689,-0.093016 -0.02584,-0.012058 -0.136079,-0.012058 -0.217037,0 -0.501253,0.3376138 -0.397902,0.4719703 -0.397902,0.8836525 0,0.1877546 0.125744,0.3221112 0.125744,0.1343565 0.301441,0.1343565 0.170529,0 0.346226,-0.089571 0.06201,-0.032728 0.261823,-0.1688069 0.134357,-0.089571 0.203258,-0.089571 0.103351,0 0.175697,0.075791 0.06718,0.070623 0.06718,0.1619168 0,0.1016287 -0.08957,0.1774195 -0.473693,0.3996246 -0.964611,0.3996246 -0.387567,0 -0.654557,-0.2824932 -0.254933,-0.2721581 -0.254933,-0.6407773 0,-0.577044 0.504698,-1.1782033 0.428907,-0.5098658 0.876762,-0.5098658 0.07579,0 0.136079,0.00517 0.06201,0.00517 0.108519,0.015503 0.07579,-0.074068 0.182587,-0.074068 0.175697,0 0.217038,0.2015348 0.02928,0.1446916 0.02928,0.3376138 0,0.086126 -0.04995,0.1567493 -0.06546,0.093016 -0.189477,0.093016 z m 1.634671,1.939557 q -0.509866,0 -0.86815,-0.2928283 -0.382399,-0.3134986 -0.382399,-0.8113067 0,-0.5856567 0.366897,-1.0679621 0.411682,-0.5425937 1.036956,-0.5425937 0.60116,0 0.900878,0.2756032 0.299719,0.2756031 0.299719,0.8285318 0,0.5856567 -0.337614,1.0610721 -0.38929,0.5494837 -1.016287,0.5494837 z m 0.153304,-2.247888 q -0.384121,0 -0.658002,0.3720642 -0.256655,0.347949 -0.256655,0.7716888 0,0.2859382 0.222205,0.4650803 0.213592,0.1722519 0.539148,0.1722519 0.378954,0 0.632165,-0.3720642 0.23254,-0.3393364 0.23254,-0.7716888 0,-0.3617291 -0.161917,-0.5029757 -0.155027,-0.1343565 -0.549484,-0.1343565 z"
       id="guid-6a5ecc04-f813-4e76-bab8-c8f316e761cd"
       style="display:inline;font-weight:bold;font-size:3.52772px;font-family:'Comic Sans MS';-inkscape-font-specification:'Comic Sans MS, Bold';text-align:center;text-anchor:middle;stroke:#000000;stroke-width:0;stroke-linecap:round;stroke-linejoin:round;stroke-miterlimit:0"
       inkscape:label="Module"
       transform="scale(0.99998662,1.0000134)"
       aria-label="Sine VCO" />
  </g>
  <g
     inkscape:groupmode="layer"
     id="layer2"
     inkscape:label="components"
     style="display:none">
    <circle
       style="display:inline;fill:#0000ff;fill-opacity:1;stroke:#0000ff;stroke-width:0;stroke-miterlimit:0;stroke-opacity:1"
       id="guid-a9c30311-ec54-40a1-9071-744922170655"
       cx="18.5"
       cy="14"
       inkscape:label="Output"
       r="2.5">
      <title
         id="title15">Output</title>
    </circle>
    <circle
       style="display:inline;fill:#ff0000;fill-opacity:1;stroke:#ff0000;stroke-width:0;stroke-miterlimit:0;stroke-opacity:1"
       id="guid-8f37b48a-3637-414f-82d8-9c5ad212e3d2"
       cx="12.7"
       cy="104.5"
       inkscape:label="Volume"
       r="2.5">
      <title
         id="title14">Volume</title>
    </circle>
    <circle
       style="display:inline;fill:#ff0000;fill-opacity:1;stroke:#ff0000;stroke-width:0;stroke-miterlimit:0;stroke-opacity:1"
       id="guid-d7bc7031-b5cb-44bb-b936-e21ebeb97e3e"
       cx="12.7"
       cy="89.5"
       inkscape:label="Phase"
       r="2.5">
      <title
         id="title13">Phase</title>
    </circle>
    <circle
       style="display:inline;fill:#ff0000;fill-opacity:1;stroke:#ff0000;stroke-width:0;stroke-miterlimit:0;stroke-opacity:1"
       id="guid-0b8c06c9-0cee-4fb4-9205-9088f2582c7e"
       cx="12.7"
       cy="74.5"
       inkscape:label="Pitch"
       r="2.5">
      <title
         id="title12">Pitch</title>
    </circle>
    <ellipse
       style="display:inline;fill:#ff0000;fill-opacity:1;stroke:#ff0000;stroke-width:0;stroke-miterlimit:0;stroke-opacity:1"
       id="guid-5311432b-da94-4877-b1b4-d35952ab2305"
       cx="18.500158"
       cy="59.5"
       inkscape:label="VM Attn"
       rx="2.500025"
       ry="2.5">
      <title
         id="title11">VM Attn</title>
    </ellipse>
    <ellipse
       style="display:inline;fill:#00ff00;fill-opacity:1;stroke:#00ff00;stroke-width:0;stroke-miterlimit:0;stroke-opacity:1"
       id="guid-b60d8bcf-c346-40fe-8eeb-cf399ec7d822"
       cx="6.5000381"
       cy="59.5"
       inkscape:label="VM In"
       rx="2.500025"
       ry="2.5">
      <title
         id="title10">VM In</title>
    </ellipse>
    <ellipse
       style="display:inline;fill:#ff0000;fill-opacity:1;stroke:#ff0000;stroke-width:0;stroke-miterlimit:0;stroke-opacity:1"
       id="guid-d9e53a4f-69fc-46a7-9c1e-b13b52292838"
       cx="18.500158"
       cy="44.5"
       inkscape:label="PM Attn"
       rx="2.500025"
       ry="2.5">
      <title
         id="title4">PM Attn</title>
    </ellipse>
    <ellipse
       style="display:inline;fill:#00ff00;fill-opacity:1;stroke:#00ff00;stroke-width:0;stroke-miterlimit:0;stroke-opacity:1"
       id="guid-86ad5fe8-16fa-40cc-887b-735f5e6b3c3c"
       cx="6.5000381"
       cy="44.5"
       inkscape:label="PM In"
       rx="2.500025"
       ry="2.5">
      <title
         id="title3">PM In</title>
    </ellipse>
    <ellipse
       style="display:inline;fill:#ff0000;fill-opacity:1;stroke:#ff0000;stroke-width:0;stroke-miterlimit:0;stroke-opacity:1"
       id="path1-3-2"
       cx="18.500158"
       cy="29.5"
       inkscape:label="FM Attn"
       rx="2.500025"
       ry="2.5" />
    <ellipse
       style="display:inline;fill:#00ff00;fill-opacity:1;stroke:#00ff00;stroke-width:0;stroke-miterlimit:0;stroke-opacity:1"
       id="guif-b36c6462-3c82-4ef8-8787-623bff0e9651"
       cx="6.5000381"
       cy="29.5"
       inkscape:label="FM In"
       rx="2.500025"
       ry="2.5">
      <title
         id="title2">FM In</title>
    </ellipse>
    <circle
       style="display:inline;fill:#00ff00;fill-opacity:1;stroke:#00ff00;stroke-width:0;stroke-miterlimit:0;stroke-opacity:1"
       id="guid-0c6a422c-8084-4159-921d-08edca51f80f"
       cx="7"
       cy="14"
       inkscape:label="V-Oct In"
       r="2.5">
      <title
         id="title1">V-Oct In</title>
    </circle>
  </g>
  <metadata
     id="metadata8">
    <rdf:RDF>
      <cc:Work
         rdf:about="">
        <dc:title>STS Template Medium</dc:title>
        <dc:date>Jan 2, 2024</dc:date>
        <dc:creator>
          <cc:Agent>
            <dc:title>Marinko Laban</dc:title>
          </cc:Agent>
        </dc:creator>
        <dc:rights>
          <cc:Agent>
            <dc:title>(C) SmarTazz Studio</dc:title>
          </cc:Agent>
        </dc:rights>
      </cc:Work>
    </rdf:RDF>
  </metadata>
</svg>
