<?xml version="1.0" encoding="UTF-8" standalone="no"?>
<!-- Created with Inkscape (http://www.inkscape.org/) -->

<svg
   width="101.6mm"
   height="128.5mm"
   viewBox="0 0 101.6 128.5"
   version="1.1"
   id="svg1"
   inkscape:version="1.3.2 (091e20e, 2023-11-25, custom)"
   sodipodi:docname="Spiquencer.svg"
   xmlns:inkscape="http://www.inkscape.org/namespaces/inkscape"
   xmlns:sodipodi="http://sodipodi.sourceforge.net/DTD/sodipodi-0.dtd"
   xmlns:xlink="http://www.w3.org/1999/xlink"
   xmlns="http://www.w3.org/2000/svg"
   xmlns:svg="http://www.w3.org/2000/svg"
   xmlns:rdf="http://www.w3.org/1999/02/22-rdf-syntax-ns#"
   xmlns:cc="http://creativecommons.org/ns#"
   xmlns:dc="http://purl.org/dc/elements/1.1/">
  <title
     id="title8">STS Splitter</title>
  <sodipodi:namedview
     id="namedview1"
     pagecolor="#ffffff"
     bordercolor="#000000"
     borderopacity="0.25"
     inkscape:showpageshadow="2"
     inkscape:pageopacity="0.0"
     inkscape:pagecheckerboard="false"
     inkscape:deskcolor="#d1d1d1"
     inkscape:document-units="mm"
     inkscape:zoom="2.3702752"
     inkscape:cx="211.78975"
     inkscape:cy="225.71219"
     inkscape:window-width="1920"
     inkscape:window-height="1130"
     inkscape:window-x="-6"
     inkscape:window-y="-6"
     inkscape:window-maximized="1"
     inkscape:current-layer="layer1"
     showguides="true"
     showgrid="true">
    <inkscape:grid
       id="grid1"
       units="mm"
       originx="0"
       originy="0"
       spacingx="0.50000001"
       spacingy="0.50000001"
       empcolor="#0099e5"
       empopacity="0.30196078"
       color="#0099e5"
       opacity="0.14901961"
       empspacing="5"
       dotted="false"
       gridanglex="30"
       gridanglez="30"
       visible="true" />
  </sodipodi:namedview>
  <defs
     id="defs1">
    <inkscape:path-effect
       effect="bspline"
       id="path-effect6"
       is_visible="true"
       lpeversion="1.3"
       weight="33.333333"
       steps="2"
       helper_size="0"
       apply_no_weight="true"
       apply_with_weight="true"
       only_selected="false"
       uniform="false" />
    <inkscape:path-effect
       effect="bspline"
       id="path-effect5"
       is_visible="true"
       lpeversion="1.3"
       weight="33.333333"
       steps="2"
       helper_size="0"
       apply_no_weight="true"
       apply_with_weight="true"
       only_selected="false"
       uniform="false" />
    <inkscape:path-effect
       effect="bspline"
       id="path-effect2"
       is_visible="true"
       lpeversion="1.3"
       weight="33.333333"
       steps="2"
       helper_size="0"
       apply_no_weight="true"
       apply_with_weight="true"
       only_selected="false"
       uniform="false" />
    <inkscape:path-effect
       effect="bspline"
       id="path-effect1"
       is_visible="true"
       lpeversion="1.3"
       weight="33.333333"
       steps="2"
       helper_size="0"
       apply_no_weight="true"
       apply_with_weight="true"
       only_selected="false"
       uniform="false" />
    <linearGradient
       id="linearGradient1"
       inkscape:collect="always">
      <stop
         style="stop-color:#00ff00;stop-opacity:1;"
         offset="0"
         id="stop1" />
      <stop
         style="stop-color:#00ff00;stop-opacity:0;"
         offset="1"
         id="stop2" />
    </linearGradient>
    <linearGradient
       inkscape:collect="always"
       xlink:href="#linearGradient1"
       id="linearGradient2"
       x1="7.6999998"
       y1="20.585909"
       x2="17.700001"
       y2="20.585909"
       gradientUnits="userSpaceOnUse" />
  </defs>
  <g
     inkscape:label="Layer 1"
     inkscape:groupmode="layer"
     id="layer1"
     style="display:inline">
    <rect
       style="fill:#93b5cf;fill-opacity:1;stroke:#97c6c1;stroke-width:0.130784;stroke-linejoin:miter;stroke-miterlimit:0;stroke-dasharray:none;stroke-opacity:1;paint-order:normal"
       id="guid-133bc867-ad6a-494a-bd77-ef0c326a6449"
       width="101.46922"
       height="128.36923"
       x="0.065392196"
       y="0.065392412"
       ry="0"
       inkscape:transform-center-x="0.53972624"
       inkscape:transform-center-y="11.25627"
       inkscape:label="Panel" />
    <g
       id="guid-836c62ac-2363-4971-88ce-5a5d0a73b10b"
       style="font-size:3.175px;font-family:'Comic Sans MS';-inkscape-font-specification:'Comic Sans MS, Normal';text-align:center;text-anchor:middle;stroke:#000000;stroke-width:0;stroke-miterlimit:0"
       inkscape:label="Brand"
       aria-label="Sm@rTAZZ&#10;Studio"
       transform="translate(38.845702,-4.57625)">
      <path
         d="m 3.5270624,121.95735 q -0.00155,-0.0651 0.043408,-0.10542 0.046509,-0.0419 0.1131713,-0.0419 0.075964,0 0.1333252,0.0868 0.079065,0.11783 0.1410767,0.15968 0.1317749,0.0868 0.3829224,0.0868 0.2402954,0 0.4464843,-0.10387 0.2635498,-0.13332 0.2635498,-0.37052 0,-0.19534 -0.2216919,-0.30851 -0.1875854,-0.0977 -0.4635376,-0.10542 -0.2449462,-0.009 -0.4170288,-0.10697 -0.2201416,-0.12557 -0.2201416,-0.35967 0,-0.27595 0.3131592,-0.50384 0.2992066,-0.21549 0.6185669,-0.21549 0.1503784,0 0.3395142,0.0512 0.2511474,0.0667 0.2511474,0.17053 0,0.13643 -0.1395264,0.13643 -0.062012,0 -0.217041,-0.0326 -0.1550293,-0.0341 -0.2402954,-0.0326 -0.2418457,0.003 -0.4108276,0.11938 -0.1736328,0.11937 -0.1736328,0.2899 0,0.12868 0.2294433,0.18139 0.085266,0.0202 0.3302124,0.0372 0.3550171,0.0264 0.5550049,0.22324 0.1829346,0.17984 0.1829346,0.43874 0,0.36897 -0.3410645,0.58911 -0.2961059,0.19069 -0.6867797,0.19069 -0.2837036,0 -0.5193482,-0.10853 -0.2883545,-0.13332 -0.2930053,-0.36586 z m 4.1780395,0.51469 q -0.127124,0 -0.1488281,-0.13487 -0.027905,-0.17053 -0.055811,-0.48059 l -0.05271,-0.48059 q -0.015503,-0.10697 -0.05271,-0.20929 -0.05271,-0.13953 -0.1147217,-0.13953 -0.057361,0 -0.2139404,0.0977 -0.1488281,0.0899 -0.1953369,0.14418 -0.00155,0.14572 0.00775,0.29145 l 0.046509,0.41393 q 0.029456,0.24495 0.029456,0.40463 0,0.0682 -0.043408,0.11162 -0.041858,0.045 -0.1085205,0.045 -0.066663,0 -0.1100708,-0.045 -0.041858,-0.0434 -0.041858,-0.11162 0,-0.18759 -0.038757,-0.55346 -0.037207,-0.36742 -0.037207,-0.555 0,-0.16434 -0.046509,-0.2558 -0.1085205,0.0496 -0.2201416,0.16123 l -0.1829345,0.20464 q -0.024805,0.0372 -0.079065,0.0977 0,0.093 -0.017053,0.2744 -0.017053,0.18138 -0.017053,0.2682 0,0.0465 0.013953,0.13022 0.015503,0.0837 0.015503,0.12093 0,0.0636 -0.048059,0.10697 -0.046509,0.0434 -0.1100708,0.0434 -0.1751831,0 -0.1751831,-0.39842 0,-0.093 0.017053,-0.2775 0.017053,-0.18449 0.017053,-0.27751 0,-0.0822 -0.015503,-0.24649 -0.013953,-0.16433 -0.013953,-0.24805 0,-0.35192 0.1581299,-0.35192 0.060461,0 0.1100708,0.0527 0.05116,0.0527 0.05116,0.11472 0,0.0295 -0.00775,0.0915 -0.00775,0.062 -0.00775,0.0946 l 0.0031,0.16278 q 0.080615,-0.16588 0.2371949,-0.29921 0.1565796,-0.13487 0.2666504,-0.13487 0.2433959,0 0.3348632,0.24184 0.085266,-0.11317 0.2030884,-0.16898 0.1178223,-0.0574 0.269751,-0.0574 0.2588989,0 0.3534668,0.27905 0.018604,0.0558 0.063562,0.43564 0.043408,0.26665 0.1116211,0.88831 0.00465,0.062 -0.041858,0.10542 -0.046509,0.0434 -0.1131714,0.0434 z m 2.3068361,-0.76739 q -0.1643313,0 -0.2837039,-0.0481 -0.1193725,-0.0481 -0.1922363,-0.14263 -0.083716,0.0822 -0.1643311,0.12403 -0.079065,0.0418 -0.1550293,0.0418 -0.1720825,0 -0.3255615,-0.13952 -0.1519287,-0.14108 -0.1519287,-0.30851 0,-0.28681 0.2247925,-0.524 0.2263428,-0.2372 0.513147,-0.2372 0.065112,0 0.1085205,0.0481 0.043408,0.0481 0.043408,0.11628 0,0.093 -0.1550293,0.13797 -0.206189,0.0589 -0.2914551,0.13488 -0.1255737,0.11007 -0.1255737,0.32401 0,0.045 0.041858,0.0868 0.048059,0.0465 0.1193725,0.0434 0.1348755,-0.006 0.2495972,-0.25114 0.1038696,-0.21394 0.1844849,-0.21394 0.065112,0 0.1054199,0.048 0.040308,0.0481 0.040308,0.11783 0,0.031 -0.010852,0.093 -0.0093,0.062 -0.0093,0.093 0,0.10077 0.086816,0.12713 0.034106,0.0109 0.1472784,0.0109 0.21239,0 0.297656,-0.10387 0.07752,-0.093 0.07752,-0.30851 0,-0.37982 -0.305408,-0.62012 -0.2790531,-0.22014 -0.6666264,-0.22014 -0.4511352,0 -0.7069335,0.34107 -0.2309937,0.30385 -0.2309937,0.76429 0,0.42478 0.2713013,0.71624 0.2821533,0.30385 0.7255371,0.30385 0.1255737,0 0.2837036,-0.0481 l 0.2713016,-0.10077 q 0.06821,-0.0248 0.08837,-0.0248 0.06356,0 0.11007,0.0512 0.04651,0.0496 0.04651,0.11627 0,0.14728 -0.3302125,0.23875 -0.2495971,0.0682 -0.4666381,0.0682 -0.2185913,0 -0.4480347,-0.0853 -0.2278931,-0.0837 -0.3906738,-0.22479 -0.4805908,-0.41548 -0.4805908,-1.01079 0,-0.59531 0.3286621,-0.99529 0.3488159,-0.42788 0.9286254,-0.42788 0.5239991,0 0.8976204,0.31471 0.392224,0.33331 0.392224,0.84336 0,0.34882 -0.170533,0.5364 -0.178283,0.19379 -0.522448,0.19379 z m 2.353345,-0.50695 q -0.01085,0.19379 -0.15503,0.19379 -0.133325,0 -0.133325,-0.15348 0,-0.0295 -0.0047,-0.10852 l -0.0047,-0.13023 q -0.244946,0.0295 -0.392224,0.13798 -0.137976,0.10077 -0.229443,0.30386 l 0.0031,0.84956 q 0,0.15658 -0.153479,0.15658 -0.136426,0 -0.136426,-0.15658 v -1.08831 q 0,-0.0512 0.0031,-0.15348 0.0047,-0.10232 0.0047,-0.15348 0,-0.15657 0.136426,-0.15657 0.151929,0 0.153479,0.25734 0.297656,-0.2868 0.660425,-0.2868 0.125574,0 0.187585,0.0946 0.06201,0.0946 0.06201,0.28525 0,0.0806 -0.0015,0.10852 z m 2.215368,-0.81235 q -0.114722,0 -0.353467,-0.0186 -0.232544,-0.0171 -0.353467,-0.0155 h -0.11007 q 0.0047,0.21394 0.04186,0.69453 0.03411,0.44804 0.03411,0.69608 0,0.0543 0.01085,0.16434 0.01085,0.11007 0.01085,0.16588 0,0.10542 -0.03411,0.18138 -0.04341,0.10232 -0.134876,0.10232 -0.06201,0 -0.111621,-0.0434 -0.04961,-0.0434 -0.04961,-0.11162 0,-0.0232 0.0078,-0.0698 0.0078,-0.0465 0.0078,-0.0698 0,-0.076 -0.01085,-0.2279 -0.0093,-0.15193 -0.0093,-0.22944 0,-0.22169 -0.03566,-0.62322 -0.03721,-0.43408 -0.04186,-0.62322 l -0.141077,0.002 q -0.339514,0 -0.5333,-0.0496 -0.125574,-0.0326 -0.125574,-0.15347 0,-0.0636 0.04031,-0.11163 0.04651,-0.0543 0.119372,-0.0496 0.05426,0.003 0.248047,0.0279 0.155029,0.0186 0.251147,0.0186 0.09302,0 0.282154,-0.003 0.189136,-0.005 0.282153,-0.005 0.119373,0 0.353467,0.0171 0.235644,0.017 0.355017,0.017 0.06666,0 0.111621,0.0465 0.04496,0.045 0.04496,0.11317 0,0.0667 -0.04496,0.11317 -0.04496,0.045 -0.111621,0.045 z m 1.984375,2.00453 q -0.142627,0 -0.248047,-0.36587 -0.04031,-0.13953 -0.100769,-0.48834 -0.15813,0.0217 -0.413928,0.0775 l -0.412378,0.0853 q -0.07752,0.20309 -0.2651,0.59376 -0.04961,0.0868 -0.134876,0.0868 -0.06201,0 -0.111621,-0.045 -0.04806,-0.045 -0.04806,-0.11162 0,-0.0744 0.234094,-0.56586 -0.02636,-0.0403 -0.02636,-0.093 0,-0.12557 0.151929,-0.16123 0.176733,-0.33176 0.446484,-0.76274 0.36742,-0.58756 0.457337,-0.58756 0.122473,0 0.167431,0.17053 l 0.09767,0.5209 0.230994,1.07745 0.08837,0.24495 q 0.04496,0.12557 0.04496,0.16743 0,0.0667 -0.04806,0.11162 -0.04806,0.045 -0.110071,0.045 z m -0.547254,-1.77199 -0.443383,0.71469 q 0.187585,-0.0481 0.568957,-0.11627 z m 2.894398,-0.21394 -0.20929,0.14263 q -0.282153,0.21859 -0.638721,0.69918 l -0.544153,0.7922 q -0.03876,0.0589 -0.07596,0.10852 l 0.603064,-0.0232 q 0.395325,-0.0186 0.604614,-0.0186 0.204639,0 0.302307,0.0186 0.125574,0.0248 0.130225,0.12712 0.0031,0.076 -0.04961,0.12092 -0.04651,0.0388 -0.116272,0.0388 -0.04496,0 -0.134876,-0.006 -0.08992,-0.005 -0.134875,-0.005 -0.235645,0 -0.708484,0.0109 -0.471289,0.0124 -0.706934,0.0124 -0.178283,0 -0.178283,-0.15658 0,-0.10232 0.09612,-0.25734 l 0.165881,-0.231 0.559656,-0.77825 q 0.345715,-0.45733 0.643371,-0.71003 l -0.542602,0.031 H 17.35103 q -0.01705,0 -0.05116,0.003 -0.03256,0.002 -0.04806,0.002 -0.164331,0 -0.164331,-0.15968 0,-0.10542 0.08372,-0.13953 0.05116,-0.0217 0.168982,-0.0217 0.10697,0 0.31781,0.0233 0.21239,0.0217 0.31936,0.0217 0.119372,0 0.356567,-0.0155 0.238745,-0.0155 0.359668,-0.0155 0.398426,0 0.398426,0.15038 0,0.10232 -0.179834,0.23564 z m 2.201416,0 -0.20929,0.14263 q -0.282153,0.21859 -0.638721,0.69918 l -0.544152,0.7922 q -0.03876,0.0589 -0.07597,0.10852 l 0.603064,-0.0232 q 0.395325,-0.0186 0.604614,-0.0186 0.204639,0 0.302307,0.0186 0.125574,0.0248 0.130225,0.12712 0.0031,0.076 -0.04961,0.12092 -0.04651,0.0388 -0.116272,0.0388 -0.04496,0 -0.134876,-0.006 -0.08992,-0.005 -0.134875,-0.005 -0.235645,0 -0.708484,0.0109 -0.471289,0.0124 -0.706934,0.0124 -0.178283,0 -0.178283,-0.15658 0,-0.10232 0.09612,-0.25734 l 0.165881,-0.231 0.559656,-0.77825 q 0.345715,-0.45733 0.643371,-0.71003 l -0.542602,0.031 h -0.626318 q -0.01705,0 -0.05116,0.003 -0.03256,0.002 -0.04806,0.002 -0.164331,0 -0.164331,-0.15968 0,-0.10542 0.08372,-0.13953 0.05116,-0.0217 0.168982,-0.0217 0.10697,0 0.31781,0.0233 0.21239,0.0217 0.31936,0.0217 0.119372,0 0.356567,-0.0155 0.238745,-0.0155 0.359668,-0.0155 0.398426,0 0.398426,0.15038 0,0.10232 -0.179834,0.23564 z"
         id="path3" />
      <path
         d="m 7.6570428,125.9261 q -0.00155,-0.0651 0.043408,-0.10542 0.046509,-0.0419 0.1131714,-0.0419 0.075964,0 0.1333251,0.0868 0.079065,0.11783 0.1410767,0.15968 0.1317749,0.0868 0.3829224,0.0868 0.2402954,0 0.4464843,-0.10387 0.2635498,-0.13332 0.2635498,-0.37052 0,-0.19534 -0.2216919,-0.30851 -0.1875854,-0.0977 -0.4635376,-0.10542 -0.2449462,-0.009 -0.4170288,-0.10697 -0.2201416,-0.12557 -0.2201416,-0.35967 0,-0.27595 0.3131592,-0.50384 0.2992066,-0.21549 0.6185669,-0.21549 0.1503784,0 0.3395142,0.0512 0.2511474,0.0667 0.2511474,0.17053 0,0.13643 -0.1395263,0.13643 -0.062012,0 -0.2170411,-0.0326 -0.1550293,-0.0341 -0.2402954,-0.0326 -0.2418457,0.003 -0.4108276,0.11938 -0.1736328,0.11937 -0.1736328,0.2899 0,0.12868 0.2294434,0.18139 0.085266,0.0202 0.3302123,0.0372 0.3550171,0.0264 0.5550049,0.22324 0.1829346,0.17984 0.1829346,0.43874 0,0.36897 -0.3410645,0.58911 -0.2961059,0.19069 -0.6867797,0.19069 -0.2837036,0 -0.5193482,-0.10853 -0.2883545,-0.13332 -0.2930053,-0.36586 z m 3.2463132,-0.93483 q -0.03256,0 -0.07751,-0.003 -0.04341,-0.003 -0.07597,-0.003 -0.03566,0 -0.21084,0.0233 l 0.02946,0.91623 0.0015,0.0682 0.0016,0.0791 q 0.0062,0.33952 -0.162781,0.33952 -0.06201,0 -0.108521,-0.0403 -0.04496,-0.0403 -0.04496,-0.10077 0,-0.0589 0.0047,-0.17673 0.0047,-0.11783 0.0047,-0.17674 l -0.03101,-0.90537 q -0.113172,-0.005 -0.3441654,-0.0264 -0.137976,-0.0186 -0.137976,-0.15348 0,-0.0682 0.041858,-0.11317 0.041858,-0.045 0.1069702,-0.045 l 0.3255612,0.0263 q 0,-0.0791 -0.0078,-0.21084 -0.0062,-0.13332 -0.0062,-0.19223 0,-0.0651 0.04496,-0.10697 0.04496,-0.0434 0.110071,-0.0434 0.139526,0 0.162781,0.22789 0.0047,0.0574 0.0047,0.13798 l -0.0031,0.0899 -0.0015,0.0961 q 0.192236,-0.0248 0.220141,-0.0248 0.161231,0 0.21084,0.0155 0.09457,0.031 0.09457,0.14573 0,0.0682 -0.04341,0.11317 -0.04186,0.0434 -0.108521,0.0434 z m 1.723926,0.41548 q 0,0.11162 0.0015,0.33486 0.0016,0.22324 0.0016,0.33486 0,0.0341 0.0046,0.10387 0.0062,0.0698 0.0062,0.10387 0,0.0667 -0.04496,0.10852 -0.04496,0.0434 -0.110071,0.0434 -0.119372,0 -0.151928,-0.14728 -0.193787,0.10077 -0.446485,0.10077 -0.203088,0 -0.336413,-0.0899 -0.147278,-0.0992 -0.175183,-0.28991 -0.06046,-0.41083 -0.06046,-0.73174 0,-0.21239 0.04651,-0.48369 0.0217,-0.13487 0.147278,-0.13487 0.06666,0 0.111621,0.0434 0.04496,0.0419 0.04496,0.10852 0,0.0713 -0.02325,0.2279 -0.0217,0.15658 -0.0217,0.23874 0,0.2589 0.01705,0.44339 0.01705,0.18448 0.05116,0.2961 0.05116,0.0279 0.100769,0.0434 0.04961,0.014 0.09767,0.014 0.20774,0 0.438733,-0.0667 l -0.0015,-0.31471 -0.0031,-0.30076 q 0,-0.33486 0.02946,-0.58136 0.01705,-0.14262 0.150378,-0.14262 0.06666,0 0.111621,0.0434 0.04496,0.0434 0.04186,0.10852 z m 1.813843,-0.46354 q -0.0186,0.22789 -0.0186,0.45579 0,0.51624 0.04806,0.77979 0.0031,0.0217 0.0031,0.0357 0,0.062 -0.04341,0.10232 -0.04341,0.0403 -0.100769,0.0403 -0.09612,0 -0.141077,-0.13953 -0.111621,0.0822 -0.232544,0.12402 -0.119372,0.0419 -0.249597,0.0419 -0.320911,0 -0.531751,-0.21394 -0.217041,-0.21859 -0.217041,-0.5612 0,-0.41393 0.218592,-0.66353 0.220141,-0.2496 0.570508,-0.2496 0.179834,0 0.277502,0.0558 l 0.145728,0.10697 q 0.0217,-0.65267 0.05116,-0.87901 0.02015,-0.13798 0.141077,-0.13798 0.141076,0 0.141076,0.15038 0,0.21549 -0.06201,0.95188 z m -0.68833,0.0403 q -0.26045,0 -0.390674,0.15503 -0.130225,0.15348 -0.130225,0.46353 0,0.19999 0.141077,0.34417 0.142627,0.14418 0.333313,0.14418 0.130225,0 0.220142,-0.0481 0.05271,-0.0279 0.172082,-0.12868 0.02325,-0.0202 0.04496,-0.0481 l -0.0047,-0.2682 0.0015,-0.17983 0.0031,-0.18294 q -0.05891,-0.12557 -0.15658,-0.18758 -0.09767,-0.0636 -0.234094,-0.0636 z m 1.421619,-0.63407 q -0.07442,0 -0.128675,-0.0527 -0.05426,-0.0527 -0.05426,-0.12713 0,-0.0744 0.05426,-0.12712 0.05426,-0.0527 0.128675,-0.0527 0.07441,0 0.127124,0.0527 0.05426,0.0527 0.05426,0.12712 0,0.0744 -0.05426,0.12713 -0.05271,0.0527 -0.127124,0.0527 z m 0.06976,1.25884 q 0,0.093 0.0047,0.27905 0.0062,0.18448 0.0062,0.2775 0,0.0682 -0.04186,0.11162 -0.04186,0.0434 -0.110071,0.0434 -0.06666,0 -0.110071,-0.0434 -0.04186,-0.0434 -0.04186,-0.11162 0,-0.093 -0.0062,-0.2775 -0.0047,-0.18604 -0.0047,-0.27905 0,-0.14573 0.0155,-0.36277 0.0155,-0.21859 0.0155,-0.36432 0,-0.0698 0.04186,-0.11317 0.04341,-0.0434 0.110071,-0.0434 0.06666,0 0.10852,0.0434 0.04341,0.0434 0.04341,0.11317 0,0.14573 -0.0155,0.36432 -0.0155,0.21704 -0.0155,0.36277 z m 1.105358,0.7953 q -0.260449,0 -0.448034,-0.19224 -0.20929,-0.21394 -0.220142,-0.57516 -0.0093,-0.35037 0.176733,-0.61702 0.217041,-0.31471 0.604615,-0.31471 0.310058,0 0.469738,0.28371 0.127124,0.22944 0.122474,0.5519 -0.0047,0.34417 -0.179834,0.58756 -0.198438,0.27596 -0.52555,0.27596 z m 0.09302,-1.38442 q -0.227893,-0.002 -0.355017,0.21705 -0.100769,0.17518 -0.100769,0.39997 0,0.22479 0.122473,0.35037 0.102319,0.10387 0.240295,0.10387 0.161231,0 0.277503,-0.11783 0.131775,-0.13022 0.139526,-0.35191 0.0217,-0.59997 -0.324011,-0.60152 z"
         id="path4" />
      <desc
         id="desc6">Brand</desc>
      <title
         id="title6">Brand</title>
    </g>
    <!-- aria-label="			 STS Multiplier		" -->
    <path
       d="m 43.066419,9.0351225 q -0.437527,0 -0.689019,-0.194648 -0.211874,-0.1619196 -0.211874,-0.3737931 0,-0.1085206 0.06546,-0.1791451 0.06546,-0.072347 0.180868,-0.072347 0.155029,0 0.227376,0.1584745 0.09819,0.2118735 0.444418,0.2118735 0.296278,0 0.573608,-0.1291912 0.287666,-0.1326363 0.287666,-0.2911108 0,-0.2170411 -0.179145,-0.2859431 -0.127469,-0.049954 -0.511597,-0.058567 -0.298001,-0.00689 -0.53399,-0.1119657 -0.318672,-0.1429716 -0.313504,-0.4099666 0.0052,-0.3358971 0.35829,-0.61495 0.353123,-0.2807754 0.778592,-0.2807754 0.16881,0 0.416857,0.077515 0.308336,0.096463 0.308336,0.2222088 0,0.089573 -0.06201,0.1584745 -0.0689,0.077515 -0.177423,0.077515 -0.08096,0 -0.242879,-0.034451 -0.160197,-0.034451 -0.24288,-0.034451 -0.222209,0.00172 -0.422024,0.106798 -0.206706,0.1067981 -0.206706,0.2325441 0,0.065457 0.06201,0.1085206 0.06373,0.041341 0.18948,0.058567 0.220486,0.012058 0.43925,0.024116 0.382406,0.029283 0.604615,0.2153186 0.244602,0.2067058 0.244602,0.5718862 0,0.4444176 -0.50643,0.6735166 -0.385851,0.1739774 -0.881945,0.1739774 z m 2.433962,-0.00345 q -0.148139,0 -0.311782,-0.034451 l -0.0017,0.7028 q 0,0.099908 -0.06718,0.1653647 -0.06718,0.065457 -0.170532,0.065457 -0.103353,0 -0.170532,-0.065457 -0.06718,-0.065457 -0.06718,-0.1653647 0,-0.08096 0.0034,-0.6425107 0.0034,-0.4168569 0,-0.6804068 -0.0052,-0.3720706 -0.02411,-0.6407882 -0.02584,-0.370348 -0.02584,-0.3393421 0,-0.1429716 0.06373,-0.244602 0.07407,-0.1154108 0.199816,-0.1154108 0.09646,0 0.161919,0.065457 0.06546,0.065457 0.06546,0.1567519 l -0.0017,0.017226 q 0.115411,-0.065457 0.230822,-0.096463 0.117133,-0.032728 0.234267,-0.032728 0.396186,0 0.578776,0.335897 0.136081,0.2532147 0.136081,0.6562911 0,0.3772382 -0.215318,0.6252852 -0.230822,0.2669951 -0.618395,0.2669951 z m 0.118856,-1.4245479 q -0.108521,0 -0.220487,0.051677 -0.111965,0.049954 -0.225654,0.1515843 0.02067,0.354845 0.02067,0.7114127 0.153307,0.049954 0.306614,0.049954 0.177422,0 0.272162,-0.1257461 0.08613,-0.1136882 0.08613,-0.3066137 0,-0.2325441 -0.02067,-0.3221166 -0.04995,-0.210151 -0.218763,-0.210151 z m 1.364258,-0.7475862 q -0.110243,0 -0.191202,-0.07407 -0.08096,-0.07407 -0.08096,-0.1808676 0,-0.106798 0.08096,-0.1808676 0.08096,-0.07407 0.191202,-0.07407 0.110244,0 0.189481,0.07407 0.08096,0.07407 0.08096,0.1808676 0,0.106798 -0.08096,0.1808676 -0.07924,0.07407 -0.189481,0.07407 z m 0.146417,1.2626283 q 0,0.098185 0.0052,0.3152265 0.0069,0.2170411 0.0069,0.3152264 0,0.099908 -0.06718,0.1653647 -0.06718,0.063734 -0.170533,0.063734 -0.103353,0 -0.170532,-0.063734 -0.06718,-0.065457 -0.06718,-0.1653647 0,-0.098185 -0.0069,-0.3152264 -0.0052,-0.2170412 -0.0052,-0.3152265 0,-0.1533068 0.01723,-0.3841284 0.01723,-0.2308215 0.01723,-0.3841284 0,-0.099908 0.06718,-0.1636421 0.06718,-0.065457 0.170532,-0.065457 0.103353,0 0.170533,0.065457 0.06718,0.063734 0.06718,0.1636421 0,0.1533069 -0.01723,0.3841284 -0.01723,0.2308216 -0.01723,0.3841284 z m 1.908584,0.2756078 q -0.03962,0.3135039 -0.07924,0.6287304 -0.04306,0.3479548 -0.04306,0.6304529 0,0.099908 -0.06718,0.1653646 -0.06718,0.065457 -0.170533,0.065457 -0.237711,0 -0.237711,-0.2876657 0,-0.043064 0.0052,-0.08785 0.0155,-0.1240235 0.04823,-0.496094 -0.07062,0.015503 -0.129192,0.015503 -0.399631,0 -0.652846,-0.1998156 -0.273885,-0.2170412 -0.273885,-0.5994471 0,-0.5064293 0.301446,-0.8164881 0.313504,-0.3186715 0.845772,-0.316949 0.0913,0 0.149861,0.046509 0.06029,-0.037896 0.122301,-0.037896 0.09819,0 0.16881,0.072347 0.07062,0.072347 0.07062,0.1653647 0,0.4892039 -0.05857,1.0524773 z M 48.576853,7.517557 q -0.08613,-0.00861 -0.103353,-0.00517 -0.285943,0.048231 -0.43236,0.2756078 -0.120578,0.1894804 -0.120578,0.4495853 0,0.1670872 0.103353,0.2704402 0.117133,0.1136882 0.327284,0.1085205 0.118856,-0.00345 0.177423,-0.1309137 0.07751,-0.1688098 0.08268,-0.599447 0,-0.029283 0.02067,-0.3651803 -0.02239,0 -0.05512,-0.00345 z m 2.346112,0.4168568 q 0,0.1154108 0.0017,0.3479549 0.0017,0.2325441 0.0017,0.3479548 0,0.036174 0.0052,0.1085206 0.0069,0.070625 0.0069,0.106798 0,0.096463 -0.07062,0.1584745 -0.0689,0.063734 -0.170532,0.063734 -0.142972,0 -0.208429,-0.1291911 -0.220486,0.08096 -0.456475,0.08096 -0.244602,0 -0.411689,-0.103353 -0.187758,-0.1188558 -0.223932,-0.3462323 -0.06718,-0.4306372 -0.06718,-0.7699793 0,-0.2239314 0.05168,-0.511597 0.03445,-0.194648 0.232544,-0.194648 0.09991,0 0.170533,0.063734 0.07062,0.062012 0.07062,0.1584745 0,0.075792 -0.02584,0.2377117 -0.02412,0.1619196 -0.02412,0.2463245 0,0.2428794 0.0155,0.4254696 0.01723,0.1808676 0.04995,0.2997235 0.04306,0.018948 0.08268,0.029283 0.04134,0.010335 0.07924,0.010335 0.191203,0 0.420302,-0.055122 0,-0.1326362 -0.0017,-0.301446 -0.0034,-0.2015383 -0.0034,-0.2893882 0,-0.3531226 0.03273,-0.6097823 0.02584,-0.2049834 0.234267,-0.2049834 0.101631,0 0.173978,0.063734 0.07235,0.063734 0.06718,0.160197 -0.03273,0.6562911 -0.03273,0.6063372 z m 1.193726,1.0748705 q -0.411689,0 -0.673517,-0.1963706 -0.289388,-0.2170411 -0.289388,-0.6115048 0,-0.4358049 0.229099,-0.7372509 0.254937,-0.3341745 0.687297,-0.3341745 0.299724,0 0.497817,0.096463 0.260105,0.1274686 0.260105,0.3961863 0,0.1894803 -0.211874,0.335897 -0.09646,0.067179 -0.387573,0.1963706 l -0.580499,0.2566597 q 0.08268,0.089573 0.199815,0.1343588 0.117134,0.044786 0.268718,0.044786 0.230822,0 0.391019,-0.09474 0.142971,-0.084405 0.229099,-0.084405 0.179145,0 0.179145,0.1739775 0,0.1963705 -0.287666,0.3203941 -0.241157,0.1033529 -0.511597,0.1033528 z m -0.04651,-1.462444 q -0.160197,0 -0.273885,0.106798 -0.113688,0.1067981 -0.18259,0.3203941 0.194648,-0.084405 0.387573,-0.1670872 0.232544,-0.1050755 0.370348,-0.194648 -0.115411,-0.065457 -0.301446,-0.065457 z m 2.508032,1.5055077 q -0.211874,0 -0.23599,-0.2084284 -0.02412,-0.1774225 -0.04823,-0.3565676 -0.02584,-0.1894804 -0.02584,-0.3565676 0,-0.044786 0.0052,-0.1533069 0.0069,-0.1085206 0.0069,-0.1533068 0,-0.012058 0.0034,-0.060289 0.0034,-0.049954 0.0034,-0.08096 0,-0.1429716 -0.07407,-0.1429716 -0.158474,0 -0.311781,0.1860353 -0.151584,0.1843127 -0.237712,0.4685333 -0.0034,0.056844 -0.0155,0.1515843 -0.01034,0.077515 -0.01034,0.1515843 0,0.048231 0.01034,0.1464166 0.01206,0.096463 0.01206,0.1446941 0,0.098185 -0.0689,0.1619196 -0.06718,0.065457 -0.170532,0.065457 -0.103353,0 -0.170533,-0.065457 -0.06718,-0.063734 -0.06718,-0.1619196 0,-0.048231 -0.01033,-0.1446941 -0.01034,-0.098185 -0.01034,-0.1464166 0,-0.1653647 0.02412,-0.4599206 0.02412,-0.2945558 0.02412,-0.4599205 0,-0.051677 -0.0069,-0.1533069 -0.0052,-0.1033529 -0.0052,-0.1533068 0,-0.096463 0.0689,-0.1584745 0.07062,-0.063734 0.172255,-0.063734 0.225654,0 0.241157,0.2704402 l 0.0017,0.018948 q 0.251492,-0.2532147 0.530545,-0.2532147 0.325562,0 0.449585,0.2721627 0.08268,0.1825902 0.08268,0.546048 v 0.122301 q -0.0017,0.079237 -0.0017,0.1119657 0,0.1343588 0.03617,0.3462323 0.0379,0.2118735 0.0379,0.3445098 0,0.096463 -0.0689,0.160197 -0.0689,0.063734 -0.170532,0.063734 z m 1.281575,-0.01378 q -0.37896,0 -0.63562,-0.2153186 -0.27044,-0.2273764 -0.27044,-0.599447 0,-0.3427872 0.242879,-0.7079676 0.275608,-0.4168568 0.640788,-0.4168568 0.179145,0 0.41858,0.096463 0.29111,0.1188559 0.29111,0.2738853 0,0.084405 -0.05857,0.1498618 -0.06201,0.070624 -0.160197,0.070624 -0.07407,0 -0.179145,-0.079237 -0.103353,-0.08096 -0.311782,-0.08096 -0.132636,0 -0.287665,0.2601049 -0.14814,0.2514921 -0.14814,0.4340823 0,0.1808676 0.130914,0.2842206 0.124024,0.098185 0.327284,0.098185 0.115411,0 0.282498,-0.08785 0.167088,-0.08785 0.211874,-0.08785 0.09302,0 0.158474,0.067179 0.06718,0.067179 0.06718,0.1533068 0,0.1343588 -0.292833,0.2687176 -0.261828,0.1188559 -0.427193,0.1188559 z m 1.887914,-0.029283 q -0.411689,0 -0.673517,-0.1963706 -0.289388,-0.2170411 -0.289388,-0.6115048 0,-0.4358049 0.229099,-0.7372509 0.254937,-0.3341745 0.687297,-0.3341745 0.299724,0 0.497817,0.096463 0.260105,0.1274686 0.260105,0.3961863 0,0.1894803 -0.211874,0.335897 -0.09646,0.067179 -0.387573,0.1963706 L 57.27917,8.4115598 q 0.08268,0.089573 0.199815,0.1343588 0.117134,0.044786 0.268718,0.044786 0.230822,0 0.391019,-0.09474 0.142971,-0.084405 0.229099,-0.084405 0.179145,0 0.179145,0.1739775 0,0.1963705 -0.287666,0.3203941 -0.241157,0.1033529 -0.511597,0.1033529 z m -0.04651,-1.462444 q -0.160197,0 -0.273885,0.106798 -0.113688,0.1067981 -0.18259,0.3203941 0.194648,-0.084405 0.387573,-0.1670872 0.232544,-0.1050755 0.370348,-0.194648 -0.115411,-0.065457 -0.301446,-0.065457 z m 2.594159,0.141249 q -0.0155,0.26355 -0.239434,0.26355 -0.217042,0 -0.217042,-0.2239314 l -0.0086,-0.1739774 Q 59.442701,7.6157432 59.275614,7.95164 l 0.0017,0.8664421 q 0,0.098185 -0.06718,0.1619196 -0.06718,0.065457 -0.170532,0.065457 -0.106798,0 -0.165365,-0.068902 -0.05512,-0.062012 -0.05512,-0.1584745 V 7.6898119 q 0,-0.053399 0.0034,-0.1584745 0.0034,-0.1067981 0.0034,-0.1601971 0,-0.096463 0.05684,-0.160197 0.05857,-0.065457 0.165365,-0.065457 0.191202,0 0.227376,0.1963706 0.304891,-0.2273765 0.676962,-0.2273765 0.344509,0 0.344509,0.458198 0,0.08785 -0.0017,0.1154108 z"
       id="text1"
       style="font-weight:bold;font-size:3.52778px;font-family:'Comic Sans MS';-inkscape-font-specification:'Comic Sans MS, Bold';stroke-width:0.264583"
       inkscape:label="Module"
       aria-label="Spiquencer" />
    <path
       id="Sequence_Grid"
       style="fill:#808080;stroke:#505050;stroke-width:0.313157;stroke-linejoin:round;stroke-miterlimit:0;stroke-dasharray:none;stroke-opacity:1"
       inkscape:transform-center-x="-0.082418014"
       inkscape:transform-center-y="-8.0288455"
       d="M 92.429852,74.476106 C 90.777748,77.01277 11.689684,76.903374 10.046453,74.362155 8.403222,71.820933 48.053742,10.941011 51.349077,10.94557 c 3.295336,0.0046 42.732882,60.993871 41.080775,63.530536 z"
       inkscape:label="Sequence Grid">
      <title
         id="title14">Sequence Grid</title>
    </path>
    <rect
       style="display:inline;fill:#808080;fill-opacity:1;stroke:#505050;stroke-width:0.300354;stroke-linejoin:round;stroke-miterlimit:0;stroke-dasharray:none;stroke-opacity:1"
       id="Seq_Output_Panel"
       width="21.499647"
       height="15.83557"
       x="52.040543"
       y="97.662506"
       ry="0.72989613"
       inkscape:label="Seq Output Panel">
      <desc
         id="desc9-7-5-4">Output Block</desc>
      <title
         id="title9-0-8-8">Seq Output Panel</title>
    </rect>
    <rect
       style="display:inline;fill:#c0c0c0;fill-opacity:1;stroke:#505050;stroke-width:0.3;stroke-linejoin:round;stroke-miterlimit:0;stroke-dasharray:none;stroke-opacity:1"
       id="Seq_Input_Panel"
       width="40.048573"
       height="15.869566"
       x="2.0889812"
       y="97.405342"
       ry="0.73146284"
       inkscape:label="Seq Input Panel">
      <desc
         id="desc9-7-4-8-5-3">Output Block</desc>
      <title
         id="title9-0-4-0-2-2">Seq Input Panel</title>
    </rect>
    <path
       d="m 61.021227,113.06873 q -0.485757,0 -0.823376,-0.29111 -0.358289,-0.31006 -0.358289,-0.79926 0,-0.596 0.353122,-1.08348 0.394462,-0.54088 0.983572,-0.54088 0.566717,0 0.842324,0.25494 0.287665,0.26527 0.287665,0.83715 0,0.596 -0.323838,1.07487 -0.372069,0.54777 -0.96118,0.54777 z m 0.155029,-2.36161 q -0.422023,0 -0.714855,0.4203 -0.27044,0.38585 -0.27044,0.85094 0,0.33245 0.246324,0.54088 0.235989,0.19637 0.583942,0.19637 0.418579,0 0.690741,-0.42203 0.242878,-0.37723 0.242878,-0.84749 0,-0.41169 -0.184312,-0.57877 -0.175699,-0.1602 -0.594278,-0.1602 z m 2.92488,1.25057 q 0,0.12402 0.0017,0.37207 0.0017,0.24804 0.0017,0.37207 0,0.0379 0.0052,0.11541 0.0069,0.0775 0.0069,0.11541 0,0.0741 -0.04995,0.12058 -0.04995,0.0482 -0.1223,0.0482 -0.132636,0 -0.16881,-0.16365 -0.215318,0.11197 -0.496092,0.11197 -0.225654,0 -0.373793,-0.0999 -0.163641,-0.11024 -0.194647,-0.32212 -0.06718,-0.45647 -0.06718,-0.81304 0,-0.23599 0.05168,-0.53743 0.02412,-0.14986 0.163642,-0.14986 0.07407,0 0.124023,0.0482 0.04995,0.0465 0.04995,0.12058 0,0.0792 -0.02584,0.25321 -0.02412,0.17398 -0.02412,0.26527 0,0.28767 0.01895,0.49265 0.01895,0.20498 0.05684,0.32901 0.05684,0.031 0.111965,0.0482 0.05512,0.0155 0.108521,0.0155 0.23082,0 0.487479,-0.0741 l -0.0017,-0.34968 -0.0034,-0.33417 q 0,-0.37207 0.03273,-0.64596 0.01895,-0.15847 0.167087,-0.15847 0.07407,0 0.124023,0.0482 0.04995,0.0482 0.04651,0.12058 z m 1.581295,-0.46164 q -0.03617,0 -0.08613,-0.003 -0.04823,-0.003 -0.08441,-0.003 -0.03962,0 -0.234266,0.0258 l 0.03273,1.01802 0.0017,0.0758 0.0017,0.0879 q 0.0069,0.37724 -0.180867,0.37724 -0.0689,0 -0.120578,-0.0448 -0.04995,-0.0448 -0.04995,-0.11197 0,-0.0655 0.0052,-0.19637 0.0052,-0.13091 0.0052,-0.19637 l -0.03445,-1.00597 q -0.125746,-0.005 -0.382405,-0.0293 -0.153306,-0.0207 -0.153306,-0.17053 0,-0.0758 0.04651,-0.12574 0.04651,-0.0499 0.118855,-0.0499 l 0.361734,0.0293 q 0,-0.0879 -0.0086,-0.23427 -0.0069,-0.14814 -0.0069,-0.2136 0,-0.0724 0.04995,-0.11885 0.04995,-0.0482 0.122301,-0.0482 0.155029,0 0.180867,0.25321 0.0052,0.0637 0.0052,0.15331 l -0.0034,0.0999 -0.0017,0.1068 q 0.213596,-0.0276 0.244601,-0.0276 0.179145,0 0.234266,0.0172 0.105075,0.0345 0.105075,0.16192 0,0.0758 -0.04823,0.12574 -0.04651,0.0482 -0.120578,0.0482 z"
       id="Out"
       style="font-size:3.52777px;font-family:'Comic Sans MS';-inkscape-font-specification:'Comic Sans MS, Normal';text-align:center;text-anchor:middle;display:inline;stroke:#000000;stroke-width:0;stroke-miterlimit:0"
       inkscape:label="Out"
       aria-label="Out">
      <title
         id="title26">Output</title>
    </path>
    <path
       style="font-size:2.82222px;font-family:'Comic Sans MS';-inkscape-font-specification:'Comic Sans MS, Normal';display:inline;stroke:#000000;stroke-width:0;stroke-linejoin:round;stroke-miterlimit:0"
       d="m 18.641803,112.48647 q -0.0524,0 -0.0978,-0.0441 -0.45613,-0.45062 -1.01423,-0.60634 l 0.011,0.2701 0.007,0.27147 q 0,0.0606 -0.04,0.1006 -0.0386,0.0413 -0.0978,0.0413 -0.0593,0 -0.0992,-0.0413 -0.0386,-0.04 -0.0386,-0.1006 0,-0.10887 -0.011,-0.32384 -0.01,-0.21635 -0.01,-0.32522 0,-0.12678 0.0276,-0.37758 0.0276,-0.2508 0.0276,-0.3762 0,-0.0703 -0.0138,-0.20809 -0.0124,-0.1378 -0.0124,-0.20808 0,-0.0786 0.0441,-0.13781 0.0524,-0.073 0.14469,-0.0662 l 0.33211,0.0262 q 0.18879,0.0234 0.31832,0.0923 0.55811,0.29628 0.55811,0.72347 0,0.20947 -0.19017,0.3707 -0.15296,0.12953 -0.38172,0.19706 0.42857,0.23013 0.64079,0.48507 0.0358,0.0441 0.0358,0.0937 0,0.0579 -0.0427,0.10059 -0.0413,0.0427 -0.0978,0.0427 z m -0.87781,-1.82177 -0.20395,-0.0165 0.0138,0.16674 q 0.01,0.10198 0.01,0.16674 0,0.11025 -0.0179,0.27424 l -0.0289,0.27422 q 0.0193,0 0.0593,10e-4 0.0413,0.001 0.062,0.001 0.3514,0 0.52641,-0.0937 0.0772,-0.0427 0.14332,-0.11162 0.073,-0.0772 0.073,-0.13091 0,-0.19155 -0.21773,-0.35691 -0.19982,-0.15159 -0.41893,-0.17501 z m 1.93477,1.87 q -0.31144,0 -0.50437,-0.15572 -0.21083,-0.17225 -0.21083,-0.48231 0,-0.35829 0.17363,-0.60083 0.18879,-0.26458 0.50436,-0.26458 0.22875,0 0.37345,0.0772 0.17777,0.0951 0.17777,0.29214 0,0.13781 -0.15572,0.25081 -0.0689,0.0496 -0.29215,0.15434 l -0.52641,0.24942 q 0.0772,0.11438 0.19155,0.17226 0.11575,0.0579 0.26872,0.0579 0.0951,0 0.22324,-0.0358 0.16261,-0.0455 0.20946,-0.11852 0.0469,-0.0744 0.1006,-0.0744 0.0482,0 0.0854,0.0372 0.0386,0.0358 0.0386,0.0841 0,0.15297 -0.24667,0.26321 -0.21084,0.0937 -0.41066,0.0937 z m -0.0372,-1.2554 q -0.16812,0 -0.27974,0.13092 -0.11163,0.12953 -0.16675,0.39136 l 0.42306,-0.20119 q 0.24943,-0.12127 0.35553,-0.21084 -0.11851,-0.11025 -0.3321,-0.11025 z m 1.87,0.13092 q -0.0758,0 -0.10611,-0.051 -0.0207,-0.0358 -0.0358,-0.14883 -0.10336,0.0262 -0.31833,0.0965 -0.22186,0.0882 -0.22324,0.21773 0.0413,0.0152 0.0813,0.022 0.31695,0.0565 0.47129,0.15572 0.22462,0.14469 0.22462,0.41892 0,0.22462 -0.19431,0.339 -0.16123,0.0937 -0.4079,0.0937 -0.18052,0 -0.34451,-0.0606 -0.21221,-0.0772 -0.21221,-0.21498 0,-0.0551 0.0427,-0.0964 0.0441,-0.0414 0.0992,-0.0414 0.0427,0 0.11024,0.0662 0.0331,0.0317 0.14883,0.0524 0.0923,0.0165 0.15572,0.0165 0.11575,0 0.20395,-0.0276 0.12815,-0.04 0.12815,-0.12678 0,-0.18742 -0.26182,-0.25356 l -0.14332,-0.0317 q -0.18328,-0.04 -0.26045,-0.0937 -0.11162,-0.0772 -0.11162,-0.23289 0,-0.28801 0.27147,-0.41066 0.0827,-0.0372 0.26459,-0.0882 0.1819,-0.0524 0.26045,-0.0882 0.0565,-0.0248 0.12264,-0.0248 0.0593,0 0.0965,0.0386 0.0386,0.0386 0.0386,0.1006 0,0.04 0.0165,0.11713 0.0179,0.0772 0.0179,0.11714 0,0.062 -0.0386,0.10059 -0.0372,0.0386 -0.0965,0.0386 z m 1.08727,1.12448 q -0.31144,0 -0.50436,-0.15572 -0.21084,-0.17225 -0.21084,-0.48231 0,-0.35829 0.17363,-0.60083 0.18879,-0.26458 0.50436,-0.26458 0.22876,0 0.37345,0.0772 0.17777,0.0951 0.17777,0.29214 0,0.13781 -0.15572,0.25081 -0.0689,0.0496 -0.29215,0.15434 l -0.52641,0.24942 q 0.0772,0.11438 0.19155,0.17226 0.11576,0.0579 0.26872,0.0579 0.0951,0 0.22324,-0.0358 0.16261,-0.0455 0.20946,-0.11852 0.0468,-0.0744 0.1006,-0.0744 0.0482,0 0.0854,0.0372 0.0386,0.0358 0.0386,0.0841 0,0.15297 -0.24667,0.26321 -0.21084,0.0937 -0.41065,0.0937 z m -0.0372,-1.2554 q -0.16812,0 -0.27974,0.13092 -0.11162,0.12953 -0.16675,0.39136 l 0.42306,-0.20119 q 0.24943,-0.12127 0.35554,-0.21084 -0.11852,-0.11025 -0.33211,-0.11025 z m 1.86173,0.0179 q -0.0289,0 -0.0689,-0.003 -0.0386,-0.003 -0.0675,-0.003 -0.0317,0 -0.18741,0.0207 l 0.0262,0.81442 0.001,0.0606 0.001,0.0703 q 0.005,0.30179 -0.1447,0.30179 -0.0551,0 -0.0965,-0.0358 -0.04,-0.0358 -0.04,-0.0896 0,-0.0524 0.004,-0.1571 0.004,-0.10473 0.004,-0.1571 l -0.0276,-0.80477 q -0.1006,-0.004 -0.30592,-0.0234 -0.12265,-0.0165 -0.12265,-0.13643 0,-0.0606 0.0372,-0.10059 0.0372,-0.04 0.0951,-0.04 l 0.28939,0.0234 q 0,-0.0703 -0.007,-0.18741 -0.005,-0.11851 -0.005,-0.17088 0,-0.0579 0.04,-0.0951 0.04,-0.0386 0.0978,-0.0386 0.12402,0 0.14469,0.20257 0.004,0.051 0.004,0.12265 l -0.003,0.0799 -0.001,0.0854 q 0.17088,-0.0221 0.19569,-0.0221 0.14331,0 0.18741,0.0138 0.0841,0.0276 0.0841,0.12954 0,0.0606 -0.0386,0.10059 -0.0372,0.0386 -0.0965,0.0386 z"
       id="Reset_In_Label"
       aria-label="Reset"
       inkscape:label="Reset In Label">
      <title
         id="title19">Reset In Label</title>
    </path>
    <path
       d="m 8.4611578,111.68516 q -0.08544,0.42306 -0.359682,0.67662 -0.272862,0.25218 -0.644946,0.25218 -0.33901,0 -0.508516,-0.18879 -0.169504,-0.19017 -0.169504,-0.56913 0,-0.35691 0.168126,-0.73449 0.169506,-0.37896 0.434099,-0.61185 0.176396,-0.15572 0.373462,-0.15572 0.125407,0 0.330742,0.0827 0.250812,0.0992 0.250812,0.21911 0,0.0565 -0.04134,0.1006 -0.04134,0.0441 -0.09922,0.0441 -0.03032,0 -0.08544,-0.0345 -0.210847,-0.12816 -0.355547,-0.12816 -0.103356,0 -0.21636,0.10749 -0.0565,0.0537 -0.162615,0.19568 -0.318339,0.42168 -0.318339,0.91501 0,0.25907 0.07993,0.36242 0.08682,0.113 0.319717,0.113 0.246678,0 0.428586,-0.15571 0.191555,-0.16537 0.267349,-0.47267 -0.381731,0.0193 -0.654592,0.14745 -0.0317,0.0152 -0.06201,0.0152 -0.06064,0 -0.1006,-0.0468 -0.03721,-0.0427 -0.03721,-0.0992 0,-0.0758 0.07304,-0.12127 0.297668,-0.1819 1.026677,-0.1819 0.05926,0 0.09922,0.04 0.03996,0.04 0.03996,0.1006 0,0.0896 -0.07579,0.12815 z m 1.3946264,0.92466 q -0.02618,0 -0.09509,-0.0606 -0.06201,-0.0565 -0.09233,-0.10059 -0.132297,0.0717 -0.232898,0.10748 -0.1006,0.0372 -0.168126,0.0372 -0.322474,0 -0.469929,-0.1819 -0.139187,-0.17087 -0.139187,-0.52365 0,-0.33348 0.228763,-0.57051 0.230141,-0.23702 0.548479,-0.23702 0.119895,0 0.268728,0.062 0.1874214,0.0772 0.1874214,0.18604 0,0.0372 -0.02756,0.0662 -0.01378,0.0524 -0.02205,0.17225 -0.0069,0.11989 -0.0083,0.3073 -0.0014,0.17088 0.02343,0.2701 0.01378,0.0606 0.08682,0.24253 0.0096,0.0248 0.03169,0.073 l 0.0083,0.0234 q 0,0.0551 -0.03859,0.0909 -0.03859,0.0358 -0.08957,0.0358 z m -0.2866434,-0.95773 q 0,-0.0593 0.0069,-0.12816 0.0083,-0.0703 0.02343,-0.14883 -0.05099,-0.0262 -0.0882,-0.0386 -0.03583,-0.0124 -0.05788,-0.0124 -0.213603,0 -0.369327,0.17502 -0.154346,0.17363 -0.154346,0.401 0,0.226 0.07993,0.339 0.07993,0.113 0.239788,0.113 0.132296,0 0.224628,-0.0482 0.04961,-0.0262 0.139187,-0.10473 -0.0441,-0.36518 -0.0441,-0.54708 z m 1.5765342,-0.3073 q -0.02894,0 -0.0689,-0.003 -0.03858,-0.003 -0.06753,-0.003 -0.03169,0 -0.18742,0.0207 l 0.02618,0.81442 0.0014,0.0606 0.0014,0.0703 q 0.0055,0.30179 -0.144699,0.30179 -0.05512,0 -0.09646,-0.0358 -0.03996,-0.0358 -0.03996,-0.0896 0,-0.0524 0.0041,-0.1571 0.0041,-0.10473 0.0041,-0.1571 l -0.02756,-0.80477 q -0.100601,-0.004 -0.305937,-0.0234 -0.12265,-0.0165 -0.12265,-0.13642 0,-0.0606 0.03721,-0.1006 0.03721,-0.04 0.09509,-0.04 l 0.289399,0.0234 q 0,-0.0703 -0.0069,-0.18741 -0.0055,-0.11851 -0.0055,-0.17088 0,-0.0579 0.03996,-0.0951 0.03996,-0.0386 0.09784,-0.0386 0.124028,0 0.1447,0.20257 0.0041,0.051 0.0041,0.12265 l -0.0028,0.0799 -0.0014,0.0854 q 0.170883,-0.022 0.195689,-0.022 0.143321,0 0.18742,0.0138 0.08406,0.0276 0.08406,0.12953 0,0.0606 -0.03859,0.1006 -0.03721,0.0386 -0.09646,0.0386 z m 1.051484,1.23747 q -0.311449,0 -0.504382,-0.15571 -0.210847,-0.17226 -0.210847,-0.48232 0,-0.35829 0.173638,-0.60082 0.188799,-0.26458 0.504382,-0.26458 0.228762,0 0.373463,0.0772 0.177773,0.0951 0.177773,0.29214 0,0.1378 -0.155724,0.2508 -0.0689,0.0496 -0.292155,0.15434 l -0.526431,0.24943 q 0.07717,0.11437 0.191555,0.17225 0.11576,0.0579 0.268728,0.0579 0.09509,0 0.22325,-0.0358 0.162615,-0.0455 0.20947,-0.11851 0.04685,-0.0744 0.1006,-0.0744 0.04823,0 0.08544,0.0372 0.03859,0.0358 0.03859,0.0841 0,0.15296 -0.246679,0.26321 -0.210848,0.0937 -0.41067,0.0937 z m -0.03721,-1.25539 q -0.168127,0 -0.279754,0.13092 -0.111625,0.12953 -0.166748,0.39136 l 0.423074,-0.20119 q 0.249434,-0.12127 0.355548,-0.21084 -0.118517,-0.11025 -0.33212,-0.11025 z"
       id="Gate_Input_Label"
       style="display:inline;font-size:2.82227px;font-family:'Comic Sans MS';-inkscape-font-specification:'Comic Sans MS, Normal';stroke-width:0.264588;stroke-linejoin:round;stroke-miterlimit:0"
       inkscape:label="Gate Input Label"
       aria-label="Gate">
      <title
         id="title4-3">Gate Input Label</title>
    </path>
  </g>
  <g
     inkscape:groupmode="layer"
     id="layer2"
     inkscape:label="components"
     style="display:inline">
    <circle
       style="display:inline;fill:#00ff00;fill-opacity:1"
       id="guid-2dffc9b2-6468-463a-9d7f-cc9811c2f466"
       data-name="In#PJ301MPort"
       cx="10"
       cy="105"
       r="5"
       inkscape:label="GATE_IN">
      <title
         id="title18">Gate In</title>
    </circle>
    <circle
       style="display:inline;fill:#00ff00;fill-opacity:1"
       id="guid-a61a95a6-0e86-49ad-bda5-18b91ef26bfb"
       data-name="In#PJ301MPort"
       cx="21"
       cy="105"
       r="5"
       inkscape:label="RESET_IN">
      <title
         id="title18-9">Reset In</title>
    </circle>
    <circle
       style="display:inline;fill:#0000ff"
       id="guid-f68b0f2e-aa81-487e-a3dd-5296425ae370"
       data-name="Out1#PJ301MPort"
       cx="63"
       cy="105"
       r="5"
       inkscape:label="V-OUT">
      <title
         id="title12-8-0-5-3-4">V-Oct Out</title>
    </circle>
    <circle
       style="display:inline;fill:#ff0000;fill-opacity:1;stroke:#ff0000;stroke-width:0;stroke-miterlimit:0;stroke-opacity:1"
       id="path1-3-2-4-1-9-7-39"
       cx="17.553802"
       cy="70.13945"
       inkscape:label="V_81"
       r="2.5" />
    <circle
       style="display:inline;fill:#ff00ff;fill-opacity:1"
       id="guid-627104b8-4408-4868-bc45-a8737c1ea93c-3-4-8-4-04"
       data-name="Out0#PJ301MPort"
       cx="17.547241"
       cy="70.13945"
       inkscape:label="LGT_81"
       r="1.5">
      <title
         id="title10-8-4-8-1-0">Light Out 1</title>
    </circle>
    <circle
       style="display:inline;fill:#ff0000;fill-opacity:1;stroke:#ff0000;stroke-width:0;stroke-miterlimit:0;stroke-opacity:1"
       id="path1-3-2-4-1-9-7-8-1"
       cx="27.122355"
       cy="70.13945"
       inkscape:label="V_82"
       r="2.5" />
    <circle
       style="display:inline;fill:#ff00ff;fill-opacity:1"
       id="guid-627104b8-4408-4868-bc45-a8737c1ea93c-3-4-8-4-5-6"
       data-name="Out0#PJ301MPort"
       cx="27.115793"
       cy="70.13945"
       inkscape:label="LGT_82"
       r="1.5">
      <title
         id="title10-8-4-8-1-5-3">Light Out 1</title>
    </circle>
    <circle
       style="display:inline;fill:#ff0000;fill-opacity:1;stroke:#ff0000;stroke-width:0;stroke-miterlimit:0;stroke-opacity:1"
       id="path1-3-2-4-1-9-7-4-4"
       cx="36.690903"
       cy="70.13945"
       inkscape:label="V_83"
       r="2.5" />
    <circle
       style="display:inline;fill:#ff00ff;fill-opacity:1"
       id="guid-627104b8-4408-4868-bc45-a8737c1ea93c-3-4-8-4-0-7"
       data-name="Out0#PJ301MPort"
       cx="36.684341"
       cy="70.13945"
       inkscape:label="LGT_83"
       r="1.5">
      <title
         id="title10-8-4-8-1-55-4">Light Out 1</title>
    </circle>
    <circle
       style="display:inline;fill:#ff0000;fill-opacity:1;stroke:#ff0000;stroke-width:0;stroke-miterlimit:0;stroke-opacity:1"
       id="path1-3-2-4-1-9-7-9-4"
       cx="46.259453"
       cy="70.13945"
       inkscape:label="V_84"
       r="2.5" />
    <circle
       style="display:inline;fill:#ff00ff;fill-opacity:1"
       id="guid-627104b8-4408-4868-bc45-a8737c1ea93c-3-4-8-4-3-7"
       data-name="Out0#PJ301MPort"
       cx="46.252892"
       cy="70.13945"
       inkscape:label="LGT_84"
       r="1.5">
      <title
         id="title10-8-4-8-1-54-3">Light Out 1</title>
    </circle>
    <circle
       style="display:inline;fill:#ff0000;fill-opacity:1;stroke:#ff0000;stroke-width:0;stroke-miterlimit:0;stroke-opacity:1"
       id="path1-3-2-4-1-9-7-3-2"
       cx="55.828007"
       cy="70.13945"
       inkscape:label="V_85"
       r="2.5" />
    <circle
       style="display:inline;fill:#ff00ff;fill-opacity:1"
       id="guid-627104b8-4408-4868-bc45-a8737c1ea93c-3-4-8-4-4-9"
       data-name="Out0#PJ301MPort"
       cx="55.821445"
       cy="70.13945"
       inkscape:label="LGT_85"
       r="1.5">
      <title
         id="title10-8-4-8-1-8-5">Light Out 1</title>
    </circle>
    <circle
       style="display:inline;fill:#ff0000;fill-opacity:1;stroke:#ff0000;stroke-width:0;stroke-miterlimit:0;stroke-opacity:1"
       id="path1-3-2-4-1-9-7-85-4"
       cx="65.396561"
       cy="70.13945"
       inkscape:label="V_86"
       r="2.5" />
    <circle
       style="display:inline;fill:#ff00ff;fill-opacity:1"
       id="guid-627104b8-4408-4868-bc45-a8737c1ea93c-3-4-8-4-06-1"
       data-name="Out0#PJ301MPort"
       cx="65.389999"
       cy="70.13945"
       inkscape:label="LGT_86"
       r="1.5">
      <title
         id="title10-8-4-8-1-4-9">Light Out 1</title>
    </circle>
    <circle
       style="display:inline;fill:#ff0000;fill-opacity:1;stroke:#ff0000;stroke-width:0;stroke-miterlimit:0;stroke-opacity:1"
       id="path1-3-2-4-1-9-7-1-9"
       cx="74.965111"
       cy="70.13945"
       inkscape:label="V_87"
       r="2.5" />
    <circle
       style="display:inline;fill:#ff00ff;fill-opacity:1"
       id="guid-627104b8-4408-4868-bc45-a8737c1ea93c-3-4-8-4-2-4"
       data-name="Out0#PJ301MPort"
       cx="74.958549"
       cy="70.13945"
       inkscape:label="LGT_87"
       r="1.5">
      <title
         id="title10-8-4-8-1-43-0">Light Out 1</title>
    </circle>
    <circle
       style="display:inline;fill:#ff0000;fill-opacity:1;stroke:#ff0000;stroke-width:0;stroke-miterlimit:0;stroke-opacity:1"
       id="path1-3-2-4-1-9-7-47-8"
       cx="84.533661"
       cy="70.13945"
       inkscape:label="V_88"
       r="2.5" />
    <circle
       style="display:inline;fill:#ff00ff;fill-opacity:1"
       id="guid-627104b8-4408-4868-bc45-a8737c1ea93c-3-4-8-4-8-4"
       data-name="Out0#PJ301MPort"
       cx="84.5271"
       cy="70.13945"
       inkscape:label="LGT_88"
       r="1.5">
      <title
         id="title10-8-4-8-1-6-7">Light Out 1</title>
    </circle>
    <circle
       style="display:inline;fill:#ff0000;fill-opacity:1;stroke:#ff0000;stroke-width:0;stroke-miterlimit:0;stroke-opacity:1"
       id="path1-3-2-4-1-9-7-39-3"
       cx="22.556564"
       cy="62.606415"
       inkscape:label="V_71"
       r="2.5" />
    <circle
       style="display:inline;fill:#ff00ff;fill-opacity:1"
       id="guid-627104b8-4408-4868-bc45-a8737c1ea93c-3-4-8-4-04-7"
       data-name="Out0#PJ301MPort"
       cx="22.550003"
       cy="62.606415"
       inkscape:label="LGT_71"
       r="1.5">
      <title
         id="title10-8-4-8-1-0-8">Light Out 1</title>
    </circle>
    <circle
       style="display:inline;fill:#ff0000;fill-opacity:1;stroke:#ff0000;stroke-width:0;stroke-miterlimit:0;stroke-opacity:1"
       id="path1-3-2-4-1-9-7-8-1-5"
       cx="32.125114"
       cy="62.606415"
       inkscape:label="V_72"
       r="2.5" />
    <circle
       style="display:inline;fill:#ff00ff;fill-opacity:1"
       id="guid-627104b8-4408-4868-bc45-a8737c1ea93c-3-4-8-4-5-6-4"
       data-name="Out0#PJ301MPort"
       cx="32.118553"
       cy="62.606415"
       inkscape:label="LGT_72"
       r="1.5">
      <title
         id="title10-8-4-8-1-5-3-7">Light Out 1</title>
    </circle>
    <circle
       style="display:inline;fill:#ff0000;fill-opacity:1;stroke:#ff0000;stroke-width:0;stroke-miterlimit:0;stroke-opacity:1"
       id="path1-3-2-4-1-9-7-4-4-5"
       cx="41.693665"
       cy="62.606415"
       inkscape:label="V_73"
       r="2.5" />
    <circle
       style="display:inline;fill:#ff00ff;fill-opacity:1"
       id="guid-627104b8-4408-4868-bc45-a8737c1ea93c-3-4-8-4-0-7-8"
       data-name="Out0#PJ301MPort"
       cx="41.687103"
       cy="62.606415"
       inkscape:label="LGT_73"
       r="1.5">
      <title
         id="title10-8-4-8-1-55-4-0">Light Out 1</title>
    </circle>
    <circle
       style="display:inline;fill:#ff0000;fill-opacity:1;stroke:#ff0000;stroke-width:0;stroke-miterlimit:0;stroke-opacity:1"
       id="path1-3-2-4-1-9-7-9-4-8"
       cx="51.262215"
       cy="62.606415"
       inkscape:label="V_74"
       r="2.5" />
    <circle
       style="display:inline;fill:#ff00ff;fill-opacity:1"
       id="guid-627104b8-4408-4868-bc45-a8737c1ea93c-3-4-8-4-3-7-7"
       data-name="Out0#PJ301MPort"
       cx="51.255653"
       cy="62.606415"
       inkscape:label="LGT_74"
       r="1.5">
      <title
         id="title10-8-4-8-1-54-3-8">Light Out 1</title>
    </circle>
    <circle
       style="display:inline;fill:#ff0000;fill-opacity:1;stroke:#ff0000;stroke-width:0;stroke-miterlimit:0;stroke-opacity:1"
       id="path1-3-2-4-1-9-7-3-2-3"
       cx="60.830769"
       cy="62.606415"
       inkscape:label="V_75"
       r="2.5" />
    <circle
       style="display:inline;fill:#ff00ff;fill-opacity:1"
       id="guid-627104b8-4408-4868-bc45-a8737c1ea93c-3-4-8-4-4-9-1"
       data-name="Out0#PJ301MPort"
       cx="60.824207"
       cy="62.606415"
       inkscape:label="LGT_75"
       r="1.5">
      <title
         id="title10-8-4-8-1-8-5-7">Light Out 1</title>
    </circle>
    <circle
       style="display:inline;fill:#ff0000;fill-opacity:1;stroke:#ff0000;stroke-width:0;stroke-miterlimit:0;stroke-opacity:1"
       id="path1-3-2-4-1-9-7-85-4-0"
       cx="70.399315"
       cy="62.606415"
       inkscape:label="V_76"
       r="2.5" />
    <circle
       style="display:inline;fill:#ff00ff;fill-opacity:1"
       id="guid-627104b8-4408-4868-bc45-a8737c1ea93c-3-4-8-4-06-1-8"
       data-name="Out0#PJ301MPort"
       cx="70.392754"
       cy="62.606415"
       inkscape:label="LGT_76"
       r="1.5">
      <title
         id="title10-8-4-8-1-4-9-9">Light Out 1</title>
    </circle>
    <circle
       style="display:inline;fill:#ff0000;fill-opacity:1;stroke:#ff0000;stroke-width:0;stroke-miterlimit:0;stroke-opacity:1"
       id="path1-3-2-4-1-9-7-1-9-3"
       cx="79.967873"
       cy="62.606415"
       inkscape:label="V_77"
       r="2.5" />
    <circle
       style="display:inline;fill:#ff00ff;fill-opacity:1"
       id="guid-627104b8-4408-4868-bc45-a8737c1ea93c-3-4-8-4-2-4-9"
       data-name="Out0#PJ301MPort"
       cx="79.961311"
       cy="62.606415"
       inkscape:label="LGT_77"
       r="1.5">
      <title
         id="title10-8-4-8-1-43-0-7">Light Out 1</title>
    </circle>
    <circle
       style="display:inline;fill:#ff0000;fill-opacity:1;stroke:#ff0000;stroke-width:0;stroke-miterlimit:0;stroke-opacity:1"
       id="path1-3-2-4-1-9-7-85-4-0-8"
       cx="75.032433"
       cy="55.02808"
       inkscape:label="V_66"
       r="2.5" />
    <circle
       style="display:inline;fill:#ff00ff;fill-opacity:1"
       id="guid-627104b8-4408-4868-bc45-a8737c1ea93c-3-4-8-4-06-1-8-4"
       data-name="Out0#PJ301MPort"
       cx="75.025871"
       cy="55.02808"
       inkscape:label="LGT_66"
       r="1.5">
      <title
         id="title10-8-4-8-1-4-9-9-7">Light Out 1</title>
    </circle>
    <circle
       style="display:inline;fill:#ff0000;fill-opacity:1;stroke:#ff0000;stroke-width:0;stroke-miterlimit:0;stroke-opacity:1"
       id="path1-3-2-4-1-9-7-3-2-3-7"
       cx="65.463882"
       cy="55.02808"
       inkscape:label="V_65"
       r="2.5" />
    <circle
       style="display:inline;fill:#ff00ff;fill-opacity:1"
       id="guid-627104b8-4408-4868-bc45-a8737c1ea93c-3-4-8-4-4-9-1-5"
       data-name="Out0#PJ301MPort"
       cx="65.457321"
       cy="55.02808"
       inkscape:label="LGT_65"
       r="1.5">
      <title
         id="title10-8-4-8-1-8-5-7-4">Light Out 1</title>
    </circle>
    <circle
       style="display:inline;fill:#ff0000;fill-opacity:1;stroke:#ff0000;stroke-width:0;stroke-miterlimit:0;stroke-opacity:1"
       id="path1-3-2-4-1-9-7-9-4-8-9"
       cx="55.895329"
       cy="55.02808"
       inkscape:label="V_64"
       r="2.5" />
    <circle
       style="display:inline;fill:#ff00ff;fill-opacity:1"
       id="guid-627104b8-4408-4868-bc45-a8737c1ea93c-3-4-8-4-3-7-7-1"
       data-name="Out0#PJ301MPort"
       cx="55.888767"
       cy="55.02808"
       inkscape:label="LGT_64"
       r="1.5">
      <title
         id="title10-8-4-8-1-54-3-8-4">Light Out 1</title>
    </circle>
    <circle
       style="display:inline;fill:#ff0000;fill-opacity:1;stroke:#ff0000;stroke-width:0;stroke-miterlimit:0;stroke-opacity:1"
       id="path1-3-2-4-1-9-7-4-4-5-5"
       cx="46.326778"
       cy="55.02808"
       inkscape:label="V_63"
       r="2.5" />
    <circle
       style="display:inline;fill:#ff00ff;fill-opacity:1"
       id="guid-627104b8-4408-4868-bc45-a8737c1ea93c-3-4-8-4-0-7-8-7"
       data-name="Out0#PJ301MPort"
       cx="46.320217"
       cy="55.02808"
       inkscape:label="LGT_63"
       r="1.5">
      <title
         id="title10-8-4-8-1-55-4-0-1">Light Out 1</title>
    </circle>
    <circle
       style="display:inline;fill:#ff0000;fill-opacity:1;stroke:#ff0000;stroke-width:0;stroke-miterlimit:0;stroke-opacity:1"
       id="path1-3-2-4-1-9-7-8-1-5-8"
       cx="36.758228"
       cy="55.02808"
       inkscape:label="V_62"
       r="2.5" />
    <circle
       style="display:inline;fill:#ff00ff;fill-opacity:1"
       id="guid-627104b8-4408-4868-bc45-a8737c1ea93c-3-4-8-4-5-6-4-2"
       data-name="Out0#PJ301MPort"
       cx="36.751667"
       cy="55.02808"
       inkscape:label="LGT_62"
       r="1.5">
      <title
         id="title10-8-4-8-1-5-3-7-9">Light Out 1</title>
    </circle>
    <circle
       style="display:inline;fill:#ff0000;fill-opacity:1;stroke:#ff0000;stroke-width:0;stroke-miterlimit:0;stroke-opacity:1"
       id="path1-3-2-4-1-9-7-39-3-0"
       cx="27.189678"
       cy="55.02808"
       inkscape:label="V_61"
       r="2.5" />
    <circle
       style="display:inline;fill:#ff00ff;fill-opacity:1"
       id="guid-627104b8-4408-4868-bc45-a8737c1ea93c-3-4-8-4-04-7-4"
       data-name="Out0#PJ301MPort"
       cx="27.183117"
       cy="55.02808"
       inkscape:label="LGT_61"
       r="1.5">
      <title
         id="title10-8-4-8-1-0-8-5">Light Out 1</title>
    </circle>
    <circle
       style="display:inline;fill:#ff0000;fill-opacity:1;stroke:#ff0000;stroke-width:0;stroke-miterlimit:0;stroke-opacity:1"
       id="path1-3-2-4-1-9-7-3-2-3-2"
       cx="70.418915"
       cy="47.500877"
       inkscape:label="V_55"
       r="2.5" />
    <circle
       style="display:inline;fill:#ff00ff;fill-opacity:1"
       id="guid-627104b8-4408-4868-bc45-a8737c1ea93c-3-4-8-4-4-9-1-2"
       data-name="Out0#PJ301MPort"
       cx="70.412354"
       cy="47.500877"
       inkscape:label="LGT_55"
       r="1.5">
      <title
         id="title10-8-4-8-1-8-5-7-7">Light Out 1</title>
    </circle>
    <circle
       style="display:inline;fill:#ff0000;fill-opacity:1;stroke:#ff0000;stroke-width:0;stroke-miterlimit:0;stroke-opacity:1"
       id="path1-3-2-4-1-9-7-9-4-8-2"
       cx="60.850365"
       cy="47.500877"
       inkscape:label="V_54"
       r="2.5" />
    <circle
       style="display:inline;fill:#ff00ff;fill-opacity:1"
       id="guid-627104b8-4408-4868-bc45-a8737c1ea93c-3-4-8-4-3-7-7-9"
       data-name="Out0#PJ301MPort"
       cx="60.843803"
       cy="47.500877"
       inkscape:label="LGT_54"
       r="1.5">
      <title
         id="title10-8-4-8-1-54-3-8-0">Light Out 1</title>
    </circle>
    <circle
       style="display:inline;fill:#ff0000;fill-opacity:1;stroke:#ff0000;stroke-width:0;stroke-miterlimit:0;stroke-opacity:1"
       id="path1-3-2-4-1-9-7-4-4-5-9"
       cx="51.281811"
       cy="47.500877"
       inkscape:label="V_53"
       r="2.5" />
    <circle
       style="display:inline;fill:#ff00ff;fill-opacity:1"
       id="guid-627104b8-4408-4868-bc45-a8737c1ea93c-3-4-8-4-0-7-8-4"
       data-name="Out0#PJ301MPort"
       cx="51.275249"
       cy="47.500877"
       inkscape:label="LGT_53"
       r="1.5">
      <title
         id="title10-8-4-8-1-55-4-0-4">Light Out 1</title>
    </circle>
    <circle
       style="display:inline;fill:#ff0000;fill-opacity:1;stroke:#ff0000;stroke-width:0;stroke-miterlimit:0;stroke-opacity:1"
       id="path1-3-2-4-1-9-7-8-1-5-9"
       cx="41.713264"
       cy="47.500877"
       inkscape:label="V_52"
       r="2.5" />
    <circle
       style="display:inline;fill:#ff00ff;fill-opacity:1"
       id="guid-627104b8-4408-4868-bc45-a8737c1ea93c-3-4-8-4-5-6-4-5"
       data-name="Out0#PJ301MPort"
       cx="41.706703"
       cy="47.500877"
       inkscape:label="LGT_52"
       r="1.5">
      <title
         id="title10-8-4-8-1-5-3-7-4">Light Out 1</title>
    </circle>
    <circle
       style="display:inline;fill:#ff0000;fill-opacity:1;stroke:#ff0000;stroke-width:0;stroke-miterlimit:0;stroke-opacity:1"
       id="guid-2f34073a-aaf5-496f-820d-5ccf543fc635"
       cx="32.144714"
       cy="47.500877"
       inkscape:label="V_51"
       r="2.5">
      <title
         id="title13">V/Oct Out 51</title>
    </circle>
    <circle
       style="display:inline;fill:#ff00ff;fill-opacity:1"
       id="guid-e56f8d6b-f7d5-49f2-88d7-1a5a6042713d"
       data-name="Out0#PJ301MPort"
       cx="32.138153"
       cy="47.500877"
       inkscape:label="LGT_51"
       r="1.5">
      <title
         id="title10-8-4-8-1-0-8-2">Light Out 51</title>
    </circle>
    <circle
       style="display:inline;fill:#ff0000;fill-opacity:1;stroke:#ff0000;stroke-width:0;stroke-miterlimit:0;stroke-opacity:1"
       id="guid-c6896962-60c0-447d-aa17-0abf8fbd0d01"
       cx="65.536156"
       cy="40.018528"
       inkscape:label="V_44"
       r="2.5">
      <title
         id="title12">V/Oct Out 44</title>
    </circle>
    <circle
       style="display:inline;fill:#ff00ff;fill-opacity:1"
       id="guid-558aa04b-71b1-4bcd-87f3-927087757e2a"
       data-name="Out0#PJ301MPort"
       cx="65.529594"
       cy="40.018528"
       inkscape:label="LGT_44"
       r="1.5">
      <title
         id="title10-8-4-8-1-54-3-8-0-8">Light Out 44</title>
    </circle>
    <circle
       style="display:inline;fill:#ff0000;fill-opacity:1;stroke:#ff0000;stroke-width:0;stroke-miterlimit:0;stroke-opacity:1"
       id="guid-50721996-2561-4f39-b7f0-c642271d4837"
       cx="55.967609"
       cy="40.018528"
       inkscape:label="V_43"
       r="2.5">
      <title
         id="title11">V/Oct Out 43</title>
    </circle>
    <circle
       style="display:inline;fill:#ff00ff;fill-opacity:1"
       id="guid-c8bbecc7-cfa8-4306-abd2-7ca7996539fb"
       data-name="Out0#PJ301MPort"
       cx="55.961048"
       cy="40.018528"
       inkscape:label="LGT_43"
       r="1.5">
      <title
         id="title10-8-4-8-1-55-4-0-4-6">Light Out 43</title>
    </circle>
    <circle
       style="display:inline;fill:#ff0000;fill-opacity:1;stroke:#ff0000;stroke-width:0;stroke-miterlimit:0;stroke-opacity:1"
       id="guid-c87be665-c2f2-44df-a545-c675fad429b7"
       cx="46.399059"
       cy="40.018528"
       inkscape:label="V_42"
       r="2.5">
      <title
         id="title10">V/Oct Out 42</title>
    </circle>
    <circle
       style="display:inline;fill:#ff00ff;fill-opacity:1"
       id="guid-1851513e-0b2a-4690-8881-be8e7a7a7c76"
       data-name="Out0#PJ301MPort"
       cx="46.392498"
       cy="40.018528"
       inkscape:label="LGT_42"
       r="1.5">
      <title
         id="title10-8-4-8-1-5-3-7-4-0">Light Out 42</title>
    </circle>
    <circle
       style="display:inline;fill:#ff0000;fill-opacity:1;stroke:#ff0000;stroke-width:0;stroke-miterlimit:0;stroke-opacity:1"
       id="guid-9e87f05b-2ab0-4c41-a1a4-12ee66de3459"
       cx="36.830505"
       cy="40.018528"
       inkscape:label="V_41"
       r="2.5">
      <title
         id="title9">V/Oct Out 42</title>
    </circle>
    <circle
       style="display:inline;fill:#ff00ff;fill-opacity:1"
       id="guid-428eb014-318e-4df0-8122-0f670222a7aa"
       data-name="Out0#PJ301MPort"
       cx="36.823944"
       cy="40.018528"
       inkscape:label="LGT_41"
       r="1.5">
      <title
         id="title10-8-4-8-1-0-8-2-5">Light Out 41</title>
    </circle>
    <circle
       style="display:inline;fill:#ff0000;fill-opacity:1;stroke:#ff0000;stroke-width:0;stroke-miterlimit:0;stroke-opacity:1"
       id="guid-27c65e5f-6187-43a3-a106-fd76dfd95d35"
       cx="60.756237"
       cy="32.585217"
       inkscape:label="V_33"
       r="2.5">
      <title
         id="title7">V/Oct Out 33</title>
    </circle>
    <circle
       style="display:inline;fill:#ff00ff;fill-opacity:1"
       id="guid-ab72668e-858b-4368-bad0-563c1191641b"
       data-name="Out0#PJ301MPort"
       cx="60.749676"
       cy="32.585217"
       inkscape:label="LGT_33"
       r="1.5">
      <title
         id="title10-8-4-8-1-55-4-0-4-4">Light Out 33</title>
    </circle>
    <circle
       style="display:inline;fill:#ff0000;fill-opacity:1;stroke:#ff0000;stroke-width:0;stroke-miterlimit:0;stroke-opacity:1"
       id="guid-5f332390-1336-4512-b090-2c1c303b1002"
       cx="51.187687"
       cy="32.585217"
       inkscape:label="V_32"
       r="2.5">
      <title
         id="title5">V/Oct Out 32</title>
    </circle>
    <circle
       style="display:inline;fill:#ff00ff;fill-opacity:1"
       id="guid-4eeef367-2b58-4935-97d3-c248c92755cd"
       data-name="Out0#PJ301MPort"
       cx="51.181126"
       cy="32.585217"
       inkscape:label="LGT_32"
       r="1.5">
      <title
         id="title10-8-4-8-1-5-3-7-4-9">Light Out 32</title>
    </circle>
    <circle
       style="display:inline;fill:#ff0000;fill-opacity:1;stroke:#ff0000;stroke-width:0;stroke-miterlimit:0;stroke-opacity:1"
       id="guid-95f48469-38a6-4ad3-92de-55f783d47a20"
       cx="41.619137"
       cy="32.585217"
       inkscape:label="V_31"
       r="2.5">
      <title
         id="title4">V/Oct Out 31</title>
    </circle>
    <circle
       style="display:inline;fill:#ff00ff;fill-opacity:1"
       id="guid-f7e207f5-6a15-4bc7-801a-80a767f1c976"
       data-name="Out0#PJ301MPort"
       cx="41.612576"
       cy="32.585217"
       inkscape:label="LGT_31"
       r="1.5">
      <title
         id="title10-8-4-8-1-0-8-2-9">Light Out 31</title>
    </circle>
    <circle
       style="display:inline;fill:#ff0000;fill-opacity:1;stroke:#ff0000;stroke-width:0;stroke-miterlimit:0;stroke-opacity:1"
       id="guid-4fddd678-26b5-4e30-afc3-b5834a77bbda"
       cx="56.104424"
       cy="24.981306"
       inkscape:label="V_22"
       r="2.5">
      <title
         id="title3">V/Oct Out 22</title>
    </circle>
    <circle
       style="display:inline;fill:#ff00ff;fill-opacity:1"
       id="guid-71fbc091-b346-46e4-b50b-11d3d7978745"
       data-name="Out0#PJ301MPort"
       cx="56.097862"
       cy="24.981306"
       inkscape:label="LGT_22"
       r="1.5">
      <title
         id="title10-8-4-8-1-5-3-7-4-9-3">Light Out 22</title>
    </circle>
    <circle
       style="display:inline;fill:#ff0000;fill-opacity:1;stroke:#ff0000;stroke-width:0;stroke-miterlimit:0;stroke-opacity:1"
       id="guid-474ff152-06c9-4d69-b198-2a7ab8ee640a"
       cx="46.535873"
       cy="24.981306"
       inkscape:label="V_21"
       r="2.5">
      <title
         id="title2">V/Oct Out 21</title>
    </circle>
    <circle
       style="display:inline;fill:#ff00ff;fill-opacity:1"
       id="guid-f65ae618-7779-4c70-ad7d-bcd27170fa3a"
       data-name="Out0#PJ301MPort"
       cx="46.529312"
       cy="24.981306"
       inkscape:label="LGT_21"
       r="1.5">
      <title
         id="title10-8-4-8-1-0-8-2-9-3">Light Out 21</title>
    </circle>
    <circle
       style="display:inline;fill:#ff0000;fill-opacity:1;stroke:#ff0000;stroke-width:0;stroke-miterlimit:0;stroke-opacity:1"
       id="guid-18a2c4a7-ecac-4bc2-8e3d-566fc4feff5e"
       cx="51.16235"
       cy="17.579861"
       inkscape:label="V_11"
       r="2.5">
      <title
         id="title1">V/Oct Out 11</title>
    </circle>
    <circle
       style="display:inline;fill:#ff00ff;fill-opacity:1"
       id="031daa98-26dc-4c31-91a5-e12b215b8759"
       data-name="Out0#PJ301MPort"
       cx="51.155788"
       cy="17.579861"
       inkscape:label="LGT_11"
       r="1.5">
      <title
         id="title10-8-4-8-1-5-3-7-4-9-3-6">Light Out 11</title>
    </circle>
  </g>
  <metadata
     id="metadata1">
    <rdf:RDF>
      <cc:Work
         rdf:about="">
        <dc:title>STS Splitter</dc:title>
      </cc:Work>
    </rdf:RDF>
  </metadata>
</svg>
