<?xml version="1.0" encoding="UTF-8" standalone="no"?>
<!-- Created with Inkscape (http://www.inkscape.org/) -->

<svg
   width="25.4mm"
   height="128.5mm"
   viewBox="0 0 25.4 128.5"
   version="1.1"
   id="svg1"
   inkscape:version="1.3.2 (091e20e, 2023-11-25, custom)"
   sodipodi:docname="Splitter.svg"
   xmlns:inkscape="http://www.inkscape.org/namespaces/inkscape"
   xmlns:sodipodi="http://sodipodi.sourceforge.net/DTD/sodipodi-0.dtd"
   xmlns:xlink="http://www.w3.org/1999/xlink"
   xmlns="http://www.w3.org/2000/svg"
   xmlns:svg="http://www.w3.org/2000/svg">
  <title
     id="title8">STS Splitter</title>
  <sodipodi:namedview
     id="namedview1"
     pagecolor="#ffffff"
     bordercolor="#000000"
     borderopacity="0.25"
     inkscape:showpageshadow="2"
     inkscape:pageopacity="0.0"
     inkscape:pagecheckerboard="false"
     inkscape:deskcolor="#d1d1d1"
     inkscape:document-units="mm"
     inkscape:zoom="2.3702751"
     inkscape:cx="53.791224"
     inkscape:cy="243.00977"
     inkscape:window-width="1920"
     inkscape:window-height="1010"
     inkscape:window-x="-6"
     inkscape:window-y="-6"
     inkscape:window-maximized="1"
     inkscape:current-layer="layer1" />
  <defs
     id="defs1">
    <inkscape:path-effect
       effect="bspline"
       id="path-effect6"
       is_visible="true"
       lpeversion="1.3"
       weight="33.333333"
       steps="2"
       helper_size="0"
       apply_no_weight="true"
       apply_with_weight="true"
       only_selected="false"
       uniform="false" />
    <inkscape:path-effect
       effect="bspline"
       id="path-effect5"
       is_visible="true"
       lpeversion="1.3"
       weight="33.333333"
       steps="2"
       helper_size="0"
       apply_no_weight="true"
       apply_with_weight="true"
       only_selected="false"
       uniform="false" />
    <inkscape:path-effect
       effect="bspline"
       id="path-effect2"
       is_visible="true"
       lpeversion="1.3"
       weight="33.333333"
       steps="2"
       helper_size="0"
       apply_no_weight="true"
       apply_with_weight="true"
       only_selected="false"
       uniform="false" />
    <inkscape:path-effect
       effect="bspline"
       id="path-effect1"
       is_visible="true"
       lpeversion="1.3"
       weight="33.333333"
       steps="2"
       helper_size="0"
       apply_no_weight="true"
       apply_with_weight="true"
       only_selected="false"
       uniform="false" />
    <linearGradient
       id="linearGradient1"
       inkscape:collect="always">
      <stop
         style="stop-color:#00ff00;stop-opacity:1;"
         offset="0"
         id="stop1" />
      <stop
         style="stop-color:#00ff00;stop-opacity:0;"
         offset="1"
         id="stop2" />
    </linearGradient>
    <linearGradient
       inkscape:collect="always"
       xlink:href="#linearGradient1"
       id="linearGradient2"
       x1="7.6999998"
       y1="20.585909"
       x2="17.7"
       y2="20.585909"
       gradientUnits="userSpaceOnUse" />
  </defs>
  <g
     inkscape:label="Layer 1"
     inkscape:groupmode="layer"
     id="layer1"
     style="display:inline">
    <rect
       style="fill:#93b5cf;fill-opacity:1;stroke:#97c6c1;stroke-width:0.0653667;stroke-linejoin:miter;stroke-miterlimit:0;stroke-dasharray:none;stroke-opacity:1;paint-order:normal"
       id="guid-133bc867-ad6a-494a-bd77-ef0c326a6449"
       width="25.334633"
       height="128.43465"
       x="0.03268335"
       y="0.032683566"
       ry="0"
       inkscape:transform-center-x="0.13475906"
       inkscape:transform-center-y="11.262005"
       inkscape:label="Panel" />
    <g
       id="guid-836c62ac-2363-4971-88ce-5a5d0a73b10b"
       style="font-size:3.175px;font-family:'Comic Sans MS';-inkscape-font-specification:'Comic Sans MS, Normal';text-align:center;text-anchor:middle;stroke:#000000;stroke-width:0;stroke-miterlimit:0"
       inkscape:label="Brand"
       aria-label="Sm@rTAZZ&#10;Studio"
       transform="translate(0,-4.5766488)">
      <path
         d="m 3.5270624,121.95735 q -0.00155,-0.0651 0.043408,-0.10542 0.046509,-0.0419 0.1131713,-0.0419 0.075964,0 0.1333252,0.0868 0.079065,0.11783 0.1410767,0.15968 0.1317749,0.0868 0.3829224,0.0868 0.2402954,0 0.4464843,-0.10387 0.2635498,-0.13332 0.2635498,-0.37052 0,-0.19534 -0.2216919,-0.30851 -0.1875854,-0.0977 -0.4635376,-0.10542 -0.2449462,-0.009 -0.4170288,-0.10697 -0.2201416,-0.12557 -0.2201416,-0.35967 0,-0.27595 0.3131592,-0.50384 0.2992066,-0.21549 0.6185669,-0.21549 0.1503784,0 0.3395142,0.0512 0.2511474,0.0667 0.2511474,0.17053 0,0.13643 -0.1395264,0.13643 -0.062012,0 -0.217041,-0.0326 -0.1550293,-0.0341 -0.2402954,-0.0326 -0.2418457,0.003 -0.4108276,0.11938 -0.1736328,0.11937 -0.1736328,0.2899 0,0.12868 0.2294433,0.18139 0.085266,0.0202 0.3302124,0.0372 0.3550171,0.0264 0.5550049,0.22324 0.1829346,0.17984 0.1829346,0.43874 0,0.36897 -0.3410645,0.58911 -0.2961059,0.19069 -0.6867797,0.19069 -0.2837036,0 -0.5193482,-0.10853 -0.2883545,-0.13332 -0.2930053,-0.36586 z m 4.1780395,0.51469 q -0.127124,0 -0.1488281,-0.13487 -0.027905,-0.17053 -0.055811,-0.48059 l -0.05271,-0.48059 q -0.015503,-0.10697 -0.05271,-0.20929 -0.05271,-0.13953 -0.1147217,-0.13953 -0.057361,0 -0.2139404,0.0977 -0.1488281,0.0899 -0.1953369,0.14418 -0.00155,0.14572 0.00775,0.29145 l 0.046509,0.41393 q 0.029456,0.24495 0.029456,0.40463 0,0.0682 -0.043408,0.11162 -0.041858,0.045 -0.1085205,0.045 -0.066663,0 -0.1100708,-0.045 -0.041858,-0.0434 -0.041858,-0.11162 0,-0.18759 -0.038757,-0.55346 -0.037207,-0.36742 -0.037207,-0.555 0,-0.16434 -0.046509,-0.2558 -0.1085205,0.0496 -0.2201416,0.16123 l -0.1829345,0.20464 q -0.024805,0.0372 -0.079065,0.0977 0,0.093 -0.017053,0.2744 -0.017053,0.18138 -0.017053,0.2682 0,0.0465 0.013953,0.13022 0.015503,0.0837 0.015503,0.12093 0,0.0636 -0.048059,0.10697 -0.046509,0.0434 -0.1100708,0.0434 -0.1751831,0 -0.1751831,-0.39842 0,-0.093 0.017053,-0.2775 0.017053,-0.18449 0.017053,-0.27751 0,-0.0822 -0.015503,-0.24649 -0.013953,-0.16433 -0.013953,-0.24805 0,-0.35192 0.1581299,-0.35192 0.060461,0 0.1100708,0.0527 0.05116,0.0527 0.05116,0.11472 0,0.0295 -0.00775,0.0915 -0.00775,0.062 -0.00775,0.0946 l 0.0031,0.16278 q 0.080615,-0.16588 0.2371949,-0.29921 0.1565796,-0.13487 0.2666504,-0.13487 0.2433959,0 0.3348632,0.24184 0.085266,-0.11317 0.2030884,-0.16898 0.1178223,-0.0574 0.269751,-0.0574 0.2588989,0 0.3534668,0.27905 0.018604,0.0558 0.063562,0.43564 0.043408,0.26665 0.1116211,0.88831 0.00465,0.062 -0.041858,0.10542 -0.046509,0.0434 -0.1131714,0.0434 z m 2.3068361,-0.76739 q -0.1643313,0 -0.2837039,-0.0481 -0.1193725,-0.0481 -0.1922363,-0.14263 -0.083716,0.0822 -0.1643311,0.12403 -0.079065,0.0418 -0.1550293,0.0418 -0.1720825,0 -0.3255615,-0.13952 -0.1519287,-0.14108 -0.1519287,-0.30851 0,-0.28681 0.2247925,-0.524 0.2263428,-0.2372 0.513147,-0.2372 0.065112,0 0.1085205,0.0481 0.043408,0.0481 0.043408,0.11628 0,0.093 -0.1550293,0.13797 -0.206189,0.0589 -0.2914551,0.13488 -0.1255737,0.11007 -0.1255737,0.32401 0,0.045 0.041858,0.0868 0.048059,0.0465 0.1193725,0.0434 0.1348755,-0.006 0.2495972,-0.25114 0.1038696,-0.21394 0.1844849,-0.21394 0.065112,0 0.1054199,0.048 0.040308,0.0481 0.040308,0.11783 0,0.031 -0.010852,0.093 -0.0093,0.062 -0.0093,0.093 0,0.10077 0.086816,0.12713 0.034106,0.0109 0.1472784,0.0109 0.21239,0 0.297656,-0.10387 0.07752,-0.093 0.07752,-0.30851 0,-0.37982 -0.305408,-0.62012 -0.2790531,-0.22014 -0.6666264,-0.22014 -0.4511352,0 -0.7069335,0.34107 -0.2309937,0.30385 -0.2309937,0.76429 0,0.42478 0.2713013,0.71624 0.2821533,0.30385 0.7255371,0.30385 0.1255737,0 0.2837036,-0.0481 l 0.2713016,-0.10077 q 0.06821,-0.0248 0.08837,-0.0248 0.06356,0 0.11007,0.0512 0.04651,0.0496 0.04651,0.11627 0,0.14728 -0.3302125,0.23875 -0.2495971,0.0682 -0.4666381,0.0682 -0.2185913,0 -0.4480347,-0.0853 -0.2278931,-0.0837 -0.3906738,-0.22479 -0.4805908,-0.41548 -0.4805908,-1.01079 0,-0.59531 0.3286621,-0.99529 0.3488159,-0.42788 0.9286254,-0.42788 0.5239991,0 0.8976204,0.31471 0.392224,0.33331 0.392224,0.84336 0,0.34882 -0.170533,0.5364 -0.178283,0.19379 -0.522448,0.19379 z m 2.353345,-0.50695 q -0.01085,0.19379 -0.15503,0.19379 -0.133325,0 -0.133325,-0.15348 0,-0.0295 -0.0047,-0.10852 l -0.0047,-0.13023 q -0.244946,0.0295 -0.392224,0.13798 -0.137976,0.10077 -0.229443,0.30386 l 0.0031,0.84956 q 0,0.15658 -0.153479,0.15658 -0.136426,0 -0.136426,-0.15658 v -1.08831 q 0,-0.0512 0.0031,-0.15348 0.0047,-0.10232 0.0047,-0.15348 0,-0.15657 0.136426,-0.15657 0.151929,0 0.153479,0.25734 0.297656,-0.2868 0.660425,-0.2868 0.125574,0 0.187585,0.0946 0.06201,0.0946 0.06201,0.28525 0,0.0806 -0.0015,0.10852 z m 2.215368,-0.81235 q -0.114722,0 -0.353467,-0.0186 -0.232544,-0.0171 -0.353467,-0.0155 h -0.11007 q 0.0047,0.21394 0.04186,0.69453 0.03411,0.44804 0.03411,0.69608 0,0.0543 0.01085,0.16434 0.01085,0.11007 0.01085,0.16588 0,0.10542 -0.03411,0.18138 -0.04341,0.10232 -0.134876,0.10232 -0.06201,0 -0.111621,-0.0434 -0.04961,-0.0434 -0.04961,-0.11162 0,-0.0232 0.0078,-0.0698 0.0078,-0.0465 0.0078,-0.0698 0,-0.076 -0.01085,-0.2279 -0.0093,-0.15193 -0.0093,-0.22944 0,-0.22169 -0.03566,-0.62322 -0.03721,-0.43408 -0.04186,-0.62322 l -0.141077,0.002 q -0.339514,0 -0.5333,-0.0496 -0.125574,-0.0326 -0.125574,-0.15347 0,-0.0636 0.04031,-0.11163 0.04651,-0.0543 0.119372,-0.0496 0.05426,0.003 0.248047,0.0279 0.155029,0.0186 0.251147,0.0186 0.09302,0 0.282154,-0.003 0.189136,-0.005 0.282153,-0.005 0.119373,0 0.353467,0.0171 0.235644,0.017 0.355017,0.017 0.06666,0 0.111621,0.0465 0.04496,0.045 0.04496,0.11317 0,0.0667 -0.04496,0.11317 -0.04496,0.045 -0.111621,0.045 z m 1.984375,2.00453 q -0.142627,0 -0.248047,-0.36587 -0.04031,-0.13953 -0.100769,-0.48834 -0.15813,0.0217 -0.413928,0.0775 l -0.412378,0.0853 q -0.07752,0.20309 -0.2651,0.59376 -0.04961,0.0868 -0.134876,0.0868 -0.06201,0 -0.111621,-0.045 -0.04806,-0.045 -0.04806,-0.11162 0,-0.0744 0.234094,-0.56586 -0.02636,-0.0403 -0.02636,-0.093 0,-0.12557 0.151929,-0.16123 0.176733,-0.33176 0.446484,-0.76274 0.36742,-0.58756 0.457337,-0.58756 0.122473,0 0.167431,0.17053 l 0.09767,0.5209 0.230994,1.07745 0.08837,0.24495 q 0.04496,0.12557 0.04496,0.16743 0,0.0667 -0.04806,0.11162 -0.04806,0.045 -0.110071,0.045 z m -0.547254,-1.77199 -0.443383,0.71469 q 0.187585,-0.0481 0.568957,-0.11627 z m 2.894398,-0.21394 -0.20929,0.14263 q -0.282153,0.21859 -0.638721,0.69918 l -0.544153,0.7922 q -0.03876,0.0589 -0.07596,0.10852 l 0.603064,-0.0232 q 0.395325,-0.0186 0.604614,-0.0186 0.204639,0 0.302307,0.0186 0.125574,0.0248 0.130225,0.12712 0.0031,0.076 -0.04961,0.12092 -0.04651,0.0388 -0.116272,0.0388 -0.04496,0 -0.134876,-0.006 -0.08992,-0.005 -0.134875,-0.005 -0.235645,0 -0.708484,0.0109 -0.471289,0.0124 -0.706934,0.0124 -0.178283,0 -0.178283,-0.15658 0,-0.10232 0.09612,-0.25734 l 0.165881,-0.231 0.559656,-0.77825 q 0.345715,-0.45733 0.643371,-0.71003 l -0.542602,0.031 H 17.35103 q -0.01705,0 -0.05116,0.003 -0.03256,0.002 -0.04806,0.002 -0.164331,0 -0.164331,-0.15968 0,-0.10542 0.08372,-0.13953 0.05116,-0.0217 0.168982,-0.0217 0.10697,0 0.31781,0.0233 0.21239,0.0217 0.31936,0.0217 0.119372,0 0.356567,-0.0155 0.238745,-0.0155 0.359668,-0.0155 0.398426,0 0.398426,0.15038 0,0.10232 -0.179834,0.23564 z m 2.201416,0 -0.20929,0.14263 q -0.282153,0.21859 -0.638721,0.69918 l -0.544152,0.7922 q -0.03876,0.0589 -0.07597,0.10852 l 0.603064,-0.0232 q 0.395325,-0.0186 0.604614,-0.0186 0.204639,0 0.302307,0.0186 0.125574,0.0248 0.130225,0.12712 0.0031,0.076 -0.04961,0.12092 -0.04651,0.0388 -0.116272,0.0388 -0.04496,0 -0.134876,-0.006 -0.08992,-0.005 -0.134875,-0.005 -0.235645,0 -0.708484,0.0109 -0.471289,0.0124 -0.706934,0.0124 -0.178283,0 -0.178283,-0.15658 0,-0.10232 0.09612,-0.25734 l 0.165881,-0.231 0.559656,-0.77825 q 0.345715,-0.45733 0.643371,-0.71003 l -0.542602,0.031 h -0.626318 q -0.01705,0 -0.05116,0.003 -0.03256,0.002 -0.04806,0.002 -0.164331,0 -0.164331,-0.15968 0,-0.10542 0.08372,-0.13953 0.05116,-0.0217 0.168982,-0.0217 0.10697,0 0.31781,0.0233 0.21239,0.0217 0.31936,0.0217 0.119372,0 0.356567,-0.0155 0.238745,-0.0155 0.359668,-0.0155 0.398426,0 0.398426,0.15038 0,0.10232 -0.179834,0.23564 z"
         id="path3" />
      <path
         d="m 7.6570428,125.9261 q -0.00155,-0.0651 0.043408,-0.10542 0.046509,-0.0419 0.1131714,-0.0419 0.075964,0 0.1333251,0.0868 0.079065,0.11783 0.1410767,0.15968 0.1317749,0.0868 0.3829224,0.0868 0.2402954,0 0.4464843,-0.10387 0.2635498,-0.13332 0.2635498,-0.37052 0,-0.19534 -0.2216919,-0.30851 -0.1875854,-0.0977 -0.4635376,-0.10542 -0.2449462,-0.009 -0.4170288,-0.10697 -0.2201416,-0.12557 -0.2201416,-0.35967 0,-0.27595 0.3131592,-0.50384 0.2992066,-0.21549 0.6185669,-0.21549 0.1503784,0 0.3395142,0.0512 0.2511474,0.0667 0.2511474,0.17053 0,0.13643 -0.1395263,0.13643 -0.062012,0 -0.2170411,-0.0326 -0.1550293,-0.0341 -0.2402954,-0.0326 -0.2418457,0.003 -0.4108276,0.11938 -0.1736328,0.11937 -0.1736328,0.2899 0,0.12868 0.2294434,0.18139 0.085266,0.0202 0.3302123,0.0372 0.3550171,0.0264 0.5550049,0.22324 0.1829346,0.17984 0.1829346,0.43874 0,0.36897 -0.3410645,0.58911 -0.2961059,0.19069 -0.6867797,0.19069 -0.2837036,0 -0.5193482,-0.10853 -0.2883545,-0.13332 -0.2930053,-0.36586 z m 3.2463132,-0.93483 q -0.03256,0 -0.07751,-0.003 -0.04341,-0.003 -0.07597,-0.003 -0.03566,0 -0.21084,0.0233 l 0.02946,0.91623 0.0015,0.0682 0.0016,0.0791 q 0.0062,0.33952 -0.162781,0.33952 -0.06201,0 -0.108521,-0.0403 -0.04496,-0.0403 -0.04496,-0.10077 0,-0.0589 0.0047,-0.17673 0.0047,-0.11783 0.0047,-0.17674 l -0.03101,-0.90537 q -0.113172,-0.005 -0.3441654,-0.0264 -0.137976,-0.0186 -0.137976,-0.15348 0,-0.0682 0.041858,-0.11317 0.041858,-0.045 0.1069702,-0.045 l 0.3255612,0.0263 q 0,-0.0791 -0.0078,-0.21084 -0.0062,-0.13332 -0.0062,-0.19223 0,-0.0651 0.04496,-0.10697 0.04496,-0.0434 0.110071,-0.0434 0.139526,0 0.162781,0.22789 0.0047,0.0574 0.0047,0.13798 l -0.0031,0.0899 -0.0015,0.0961 q 0.192236,-0.0248 0.220141,-0.0248 0.161231,0 0.21084,0.0155 0.09457,0.031 0.09457,0.14573 0,0.0682 -0.04341,0.11317 -0.04186,0.0434 -0.108521,0.0434 z m 1.723926,0.41548 q 0,0.11162 0.0015,0.33486 0.0016,0.22324 0.0016,0.33486 0,0.0341 0.0046,0.10387 0.0062,0.0698 0.0062,0.10387 0,0.0667 -0.04496,0.10852 -0.04496,0.0434 -0.110071,0.0434 -0.119372,0 -0.151928,-0.14728 -0.193787,0.10077 -0.446485,0.10077 -0.203088,0 -0.336413,-0.0899 -0.147278,-0.0992 -0.175183,-0.28991 -0.06046,-0.41083 -0.06046,-0.73174 0,-0.21239 0.04651,-0.48369 0.0217,-0.13487 0.147278,-0.13487 0.06666,0 0.111621,0.0434 0.04496,0.0419 0.04496,0.10852 0,0.0713 -0.02325,0.2279 -0.0217,0.15658 -0.0217,0.23874 0,0.2589 0.01705,0.44339 0.01705,0.18448 0.05116,0.2961 0.05116,0.0279 0.100769,0.0434 0.04961,0.014 0.09767,0.014 0.20774,0 0.438733,-0.0667 l -0.0015,-0.31471 -0.0031,-0.30076 q 0,-0.33486 0.02946,-0.58136 0.01705,-0.14262 0.150378,-0.14262 0.06666,0 0.111621,0.0434 0.04496,0.0434 0.04186,0.10852 z m 1.813843,-0.46354 q -0.0186,0.22789 -0.0186,0.45579 0,0.51624 0.04806,0.77979 0.0031,0.0217 0.0031,0.0357 0,0.062 -0.04341,0.10232 -0.04341,0.0403 -0.100769,0.0403 -0.09612,0 -0.141077,-0.13953 -0.111621,0.0822 -0.232544,0.12402 -0.119372,0.0419 -0.249597,0.0419 -0.320911,0 -0.531751,-0.21394 -0.217041,-0.21859 -0.217041,-0.5612 0,-0.41393 0.218592,-0.66353 0.220141,-0.2496 0.570508,-0.2496 0.179834,0 0.277502,0.0558 l 0.145728,0.10697 q 0.0217,-0.65267 0.05116,-0.87901 0.02015,-0.13798 0.141077,-0.13798 0.141076,0 0.141076,0.15038 0,0.21549 -0.06201,0.95188 z m -0.68833,0.0403 q -0.26045,0 -0.390674,0.15503 -0.130225,0.15348 -0.130225,0.46353 0,0.19999 0.141077,0.34417 0.142627,0.14418 0.333313,0.14418 0.130225,0 0.220142,-0.0481 0.05271,-0.0279 0.172082,-0.12868 0.02325,-0.0202 0.04496,-0.0481 l -0.0047,-0.2682 0.0015,-0.17983 0.0031,-0.18294 q -0.05891,-0.12557 -0.15658,-0.18758 -0.09767,-0.0636 -0.234094,-0.0636 z m 1.421619,-0.63407 q -0.07442,0 -0.128675,-0.0527 -0.05426,-0.0527 -0.05426,-0.12713 0,-0.0744 0.05426,-0.12712 0.05426,-0.0527 0.128675,-0.0527 0.07441,0 0.127124,0.0527 0.05426,0.0527 0.05426,0.12712 0,0.0744 -0.05426,0.12713 -0.05271,0.0527 -0.127124,0.0527 z m 0.06976,1.25884 q 0,0.093 0.0047,0.27905 0.0062,0.18448 0.0062,0.2775 0,0.0682 -0.04186,0.11162 -0.04186,0.0434 -0.110071,0.0434 -0.06666,0 -0.110071,-0.0434 -0.04186,-0.0434 -0.04186,-0.11162 0,-0.093 -0.0062,-0.2775 -0.0047,-0.18604 -0.0047,-0.27905 0,-0.14573 0.0155,-0.36277 0.0155,-0.21859 0.0155,-0.36432 0,-0.0698 0.04186,-0.11317 0.04341,-0.0434 0.110071,-0.0434 0.06666,0 0.10852,0.0434 0.04341,0.0434 0.04341,0.11317 0,0.14573 -0.0155,0.36432 -0.0155,0.21704 -0.0155,0.36277 z m 1.105358,0.7953 q -0.260449,0 -0.448034,-0.19224 -0.20929,-0.21394 -0.220142,-0.57516 -0.0093,-0.35037 0.176733,-0.61702 0.217041,-0.31471 0.604615,-0.31471 0.310058,0 0.469738,0.28371 0.127124,0.22944 0.122474,0.5519 -0.0047,0.34417 -0.179834,0.58756 -0.198438,0.27596 -0.52555,0.27596 z m 0.09302,-1.38442 q -0.227893,-0.002 -0.355017,0.21705 -0.100769,0.17518 -0.100769,0.39997 0,0.22479 0.122473,0.35037 0.102319,0.10387 0.240295,0.10387 0.161231,0 0.277503,-0.11783 0.131775,-0.13022 0.139526,-0.35191 0.0217,-0.59997 -0.324011,-0.60152 z"
         id="path4" />
      <desc
         id="desc6">Brand</desc>
      <title
         id="title6">Brand</title>
    </g>
    <rect
       style="font-size:3.175px;font-family:'Comic Sans MS';-inkscape-font-specification:'Comic Sans MS, Normal';text-align:center;text-anchor:middle;display:inline;fill:#c0c0c0;fill-opacity:1;stroke:#505050;stroke-width:0.2;stroke-miterlimit:0;stroke-opacity:1;stroke-dasharray:none"
       id="InputBlock"
       width="13"
       height="10.604429"
       x="6.1"
       y="15.292705"
       ry="2.5673883"
       inkscape:label="Input Block">
      <desc
         id="desc7">Input Block</desc>
      <title
         id="title7">Input Block</title>
    </rect>
    <rect
       style="display:inline;fill:#a0a0a0;fill-opacity:1;stroke:#4f4f4f;stroke-width:0.201639;stroke-miterlimit:0;stroke-dasharray:none;stroke-opacity:1"
       id="OutputBlock"
       width="12.998361"
       height="68.313217"
       x="6.1008196"
       y="31.925735"
       ry="3.1487052"
       inkscape:label="Output Block">
      <desc
         id="desc9">Output Block</desc>
      <title
         id="title9">Output Block</title>
    </rect>
    <!-- aria-label="			 STS Multiplier		" -->
    <path
       d="m 6.9008907,9.369758 q -0.4375262,0 -0.6890176,-0.1946475 -0.2118729,-0.1619191 -0.2118729,-0.3737921 0,-0.1085202 0.065457,-0.1791445 0.065457,-0.072347 0.1808672,-0.072347 0.1550289,0 0.2273758,0.1584741 0.098185,0.2118729 0.4444163,0.2118729 0.2962776,0 0.5736072,-0.1291908 0.2876648,-0.1326359 0.2876648,-0.29111 0,-0.2170405 -0.1791446,-0.2859422 Q 7.4727753,8.1639772 7.088648,8.1553645 6.7906479,8.1484743 6.5546593,8.0433991 6.2359887,7.9004279 6.2411563,7.6334336 6.246324,7.2975376 6.5994455,7.0184854 6.952567,6.7377108 7.3780354,6.7377108 q 0.1688093,0 0.4168556,0.077514 0.3083354,0.096462 0.3083354,0.2222081 0,0.089572 -0.062012,0.1584741 -0.068902,0.077514 -0.1774221,0.077514 -0.08096,0 -0.2428786,-0.034451 -0.1601966,-0.034451 -0.2428787,-0.034451 -0.2222082,0.00172 -0.4220233,0.1067977 -0.2067053,0.1067977 -0.2067053,0.2325434 0,0.065457 0.062012,0.1085203 0.063734,0.041341 0.1894798,0.058567 0.2204857,0.012058 0.4392487,0.024116 0.3824048,0.029283 0.604613,0.215318 0.2446012,0.2067053 0.2446012,0.5718846 0,0.4444164 -0.5064279,0.6735147 -0.3858499,0.173977 -0.8819425,0.173977 z m 2.4339547,-0.00345 q -0.1481388,0 -0.3117805,-0.034451 l -0.00172,0.702798 q 0,0.09991 -0.067179,0.165364 -0.067179,0.06546 -0.1705318,0.06546 -0.1033526,0 -0.1705319,-0.06546 -0.067179,-0.06546 -0.067179,-0.165364 0,-0.08096 0.00345,-0.642509 0.00345,-0.4168556 0,-0.6804048 -0.00517,-0.3720695 -0.024116,-0.6407864 -0.025838,-0.370347 -0.025838,-0.3393412 0,-0.1429711 0.063734,-0.2446012 0.074069,-0.1154104 0.1998151,-0.1154104 0.096462,0 0.1619191,0.065457 0.065457,0.065457 0.065457,0.1567515 l -0.00172,0.017226 q 0.1154105,-0.065457 0.2308209,-0.096463 0.117133,-0.032728 0.234266,-0.032728 0.3961851,0 0.5787751,0.335896 0.136081,0.253214 0.136081,0.6562893 0,0.3772371 -0.2153184,0.6252834 Q 9.7224178,9.3663129 9.3348454,9.3663129 Z M 9.4537009,7.941769 q -0.1085203,0 -0.2204856,0.051676 -0.1119654,0.049954 -0.2256533,0.1515839 0.02067,0.354844 0.02067,0.7114106 0.1533064,0.049954 0.3066129,0.049954 0.177422,0 0.2721619,-0.1257457 0.086127,-0.1136879 0.086127,-0.3066128 0,-0.2325434 -0.02067,-0.3221157 Q 9.6225102,7.941769 9.4537009,7.941769 Z m 1.5020581,1.0696998 q 0,0.3272834 -0.237711,0.3272834 -0.103352,0 -0.170532,-0.065457 -0.06718,-0.065457 -0.06718,-0.1688093 V 6.7222079 q 0,-0.099908 0.07235,-0.1636417 0.0689,-0.058566 0.170532,-0.058566 0.10163,0 0.167087,0.062012 0.06546,0.060289 0.06546,0.1601966 z m 0.828544,-1.8172839 q -0.110243,0 -0.191202,-0.074069 -0.08096,-0.074069 -0.08096,-0.1808671 0,-0.1067977 0.08096,-0.1808671 0.08096,-0.074069 0.191202,-0.074069 0.110243,0 0.18948,0.074069 0.08096,0.074069 0.08096,0.1808671 0,0.1067977 -0.08096,0.1808671 -0.07924,0.074069 -0.18948,0.074069 z m 0.146416,1.2626247 q 0,0.098185 0.0052,0.3152256 0.0069,0.2170405 0.0069,0.3152255 0,0.099908 -0.06718,0.1653643 -0.06718,0.063734 -0.170532,0.063734 -0.103353,0 -0.170532,-0.063734 -0.06718,-0.065457 -0.06718,-0.1653643 0,-0.098185 -0.0069,-0.3152255 -0.0052,-0.2170405 -0.0052,-0.3152256 0,-0.1533064 0.01722,-0.3841273 0.01723,-0.2308208 0.01723,-0.3841273 0,-0.099907 0.06718,-0.1636416 0.06718,-0.065457 0.170532,-0.065457 0.103353,0 0.170532,0.065457 0.06718,0.063734 0.06718,0.1636416 0,0.1533065 -0.01722,0.3841273 -0.01723,0.2308209 -0.01723,0.3841273 z m 1.6657,-0.5787747 q -0.03617,0 -0.08613,-0.00172 -0.04823,-0.00345 -0.0844,-0.00345 -0.07062,0 -0.163642,0.01378 0.03101,0.6959078 0.03101,0.9095032 0,0.022393 0.0017,0.084405 0.0017,0.060289 0.0017,0.098185 0,0.3961851 -0.249769,0.3961851 -0.09474,0 -0.163642,-0.058566 -0.07579,-0.062012 -0.07579,-0.155029 0,-0.062012 0.0052,-0.1860347 0.0052,-0.1240232 0.0052,-0.1860348 0,-0.2084278 -0.03101,-0.8922777 -0.106798,-0.00517 -0.323839,-0.027561 -0.215318,-0.024116 -0.215318,-0.2239308 0,-0.096462 0.06546,-0.1636416 0.06546,-0.067179 0.168809,-0.067179 0.06373,0 0.292833,0.02067 -0.0017,-0.055121 -0.0086,-0.1825897 -0.0069,-0.1102428 -0.0069,-0.1705318 0,-0.096463 0.07062,-0.1601966 0.07063,-0.063734 0.170532,-0.063734 0.254937,0 0.254937,0.4289135 l -0.0034,0.1412486 q 0.106797,-0.015503 0.173977,-0.015503 0.198092,0 0.270439,0.025838 0.137803,0.048231 0.137803,0.2101503 0,0.098185 -0.06718,0.1636417 -0.06718,0.065457 -0.170532,0.065457 z m 1.662255,0 q -0.03617,0 -0.08613,-0.00172 -0.04823,-0.00345 -0.08441,-0.00345 -0.07062,0 -0.163641,0.01378 0.03101,0.6959078 0.03101,0.9095032 0,0.022393 0.0017,0.084405 0.0017,0.060289 0.0017,0.098185 0,0.3961851 -0.249769,0.3961851 -0.09474,0 -0.163642,-0.058566 -0.07579,-0.062012 -0.07579,-0.155029 0,-0.062012 0.0052,-0.1860347 0.0052,-0.1240232 0.0052,-0.1860348 0,-0.2084278 -0.03101,-0.8922777 -0.106798,-0.00517 -0.323839,-0.027561 -0.215318,-0.024116 -0.215318,-0.2239308 0,-0.096462 0.06546,-0.1636416 0.06546,-0.067179 0.168809,-0.067179 0.06373,0 0.292833,0.02067 -0.0017,-0.055121 -0.0086,-0.1825897 -0.0069,-0.1102428 -0.0069,-0.1705318 0,-0.096463 0.07062,-0.1601966 0.07062,-0.063734 0.170532,-0.063734 0.254937,0 0.254937,0.4289135 l -0.0034,0.1412486 q 0.106798,-0.015503 0.173977,-0.015503 0.198093,0 0.27044,0.025838 0.137803,0.048231 0.137803,0.2101503 0,0.098185 -0.06718,0.1636417 -0.06718,0.065457 -0.170532,0.065457 z m 1.314301,1.4658849 q -0.411688,0 -0.673515,-0.19637 -0.289387,-0.2170406 -0.289387,-0.6115031 0,-0.4358037 0.229098,-0.7372488 0.254937,-0.3341736 0.687295,-0.3341736 0.299723,0 0.497816,0.096463 0.260104,0.1274682 0.260104,0.3961851 0,0.1894798 -0.211873,0.3358961 -0.09646,0.067179 -0.387573,0.19637 l -0.580497,0.256659 q 0.08268,0.089572 0.199815,0.1343585 0.117133,0.044786 0.268717,0.044786 0.230821,0 0.391018,-0.09474 0.142971,-0.084405 0.229098,-0.084405 0.179145,0 0.179145,0.173977 0,0.19637 -0.287665,0.3203932 -0.241156,0.1033526 -0.511596,0.1033526 z M 16.526466,7.88148 q -0.160196,0 -0.273884,0.1067977 -0.113688,0.1067977 -0.18259,0.3203932 Q 16.26464,8.2242662 16.457565,8.1415841 16.690108,8.0365089 16.827912,7.9469366 16.712501,7.88148 16.526466,7.88148 Z m 2.594152,0.1412486 q -0.0155,0.2635492 -0.239434,0.2635492 -0.21704,0 -0.21704,-0.2239307 l -0.0086,-0.173977 q -0.387573,0.062012 -0.554659,0.3979077 l 0.0017,0.8664396 q 0,0.098185 -0.06718,0.1619191 -0.06718,0.065457 -0.170532,0.065457 -0.106798,0 -0.165364,-0.068902 -0.05512,-0.062012 -0.05512,-0.1584741 V 8.0244511 q 0,-0.053399 0.0034,-0.158474 0.0034,-0.1067978 0.0034,-0.1601966 0,-0.096463 0.05684,-0.1601966 0.05857,-0.065457 0.165364,-0.065457 0.191202,0 0.227376,0.19637 0.30489,-0.2273758 0.676959,-0.2273758 0.344509,0 0.344509,0.4581967 0,0.08785 -0.0017,0.1154105 z"
       id="guid-7ea3ce76-c633-4333-b0f8-282663bfbd18"
       style="display:inline;font-weight:bold;font-size:3.52777px;font-family:'Comic Sans MS';-inkscape-font-specification:'Comic Sans MS, Bold';text-align:center;text-anchor:middle;stroke:#000000;stroke-width:0;stroke-linecap:round;stroke-linejoin:round;stroke-miterlimit:0"
       inkscape:label="Module"
       aria-label="Splitter" />
    <path
       style="fill:none;stroke:#555555;stroke-width:0.3;stroke-linecap:round;stroke-linejoin:round;stroke-miterlimit:0;stroke-dasharray:none;stroke-opacity:1"
       d="m 12.50224,20.552824 h 9.376199 V 88.51891 h -9.264578"
       id="path7" />
    <path
       style="display:inline;fill:none;stroke:#555555;stroke-width:0.3;stroke-linecap:round;stroke-linejoin:round;stroke-miterlimit:0;stroke-dasharray:none;stroke-opacity:1"
       d="m 12.461583,20.756115 h 9.143452 v 50.944838 h -9.034602"
       id="path7-1" />
    <path
       style="display:inline;fill:none;stroke:#555555;stroke-width:0.3;stroke-linecap:round;stroke-linejoin:round;stroke-miterlimit:0;stroke-dasharray:none;stroke-opacity:1"
       d="m 12.212003,20.940643 h 9.19177 v 33.381921 h -9.082345"
       id="path7-1-2" />
    <path
       style="display:inline;fill:none;stroke:#555555;stroke-width:0.3;stroke-linecap:round;stroke-linejoin:round;stroke-miterlimit:0;stroke-dasharray:none;stroke-opacity:1"
       d="m 13.08447,21.079912 h 8.156895 v 16.533575 h -8.059789"
       id="path7-1-2-4" />
    <path
       d="m 7.8973295,44.890083 q -0.088194,0 -0.1322916,-0.103352 -0.038585,-0.0882 -0.071658,-0.107487 -0.028939,-0.01516 -0.1433159,-0.01516 -0.1998154,0 -0.443728,0.305925 -0.3307289,0.410655 -0.3307289,0.778591 0,0.177766 0.1143771,0.305924 0.1171332,0.132291 0.2824976,0.132291 0.1419379,0 0.2852537,-0.07304 0.079926,-0.04134 0.2452906,-0.162608 0.078548,-0.05788 0.1185112,-0.05788 0.059256,0 0.099219,0.04547 0.039963,0.0441 0.039963,0.09922 0,0.06201 -0.052365,0.108865 -0.3638018,0.322461 -0.7358719,0.322461 -0.2852537,0 -0.482313,-0.219108 -0.1901691,-0.212218 -0.1901691,-0.501605 0,-0.467155 0.3913626,-0.957736 0.3265948,-0.409277 0.6587017,-0.409277 0.067524,0 0.1212673,0.0069 0.053743,0.0055 0.095085,0.01929 0.048231,-0.07028 0.1254014,-0.07028 0.095085,0 0.1198893,0.125401 0.022049,0.111621 0.022049,0.274229 0,0.0565 -0.030317,0.09922 -0.037207,0.05374 -0.1061088,0.05374 z m 1.5241091,1.631596 q -0.097841,0 -0.1281575,-0.10473 -0.031695,-0.112999 -0.057878,-0.321083 -0.024805,-0.199815 -0.024805,-0.327973 0,-0.03583 0.00276,-0.108865 0.00413,-0.07304 0.00413,-0.108865 0,-0.259071 -0.1295355,-0.259071 -0.1750107,0 -0.3128144,0.158475 -0.07028,0.0813 -0.1929252,0.310058 0,0.525032 -0.044097,0.621495 -0.038585,0.08544 -0.1198893,0.08544 -0.0565,0 -0.099219,-0.03858 -0.042719,-0.03859 -0.042719,-0.09371 0,-0.01929 0.012402,-0.06063 0.011024,-0.03445 0.015159,-0.201194 l 0.00413,-0.203949 0.00413,-1.012857 q 0.00965,-0.170877 0.00965,-0.230133 0,-0.07028 -0.01378,-0.132291 -0.012402,-0.06339 -0.012402,-0.130914 0,-0.05788 0.039963,-0.09508 0.039963,-0.03859 0.097841,-0.03859 0.1129991,0 0.1322916,0.121267 0.022049,0.13367 0.022049,0.241156 0,0.144694 -0.00965,0.301791 -0.00827,0.150206 -0.00689,0.30179 l 0.00138,0.121267 q 0.112999,-0.151584 0.2411565,-0.225998 0.1295355,-0.07579 0.2742294,-0.07579 0.2287542,0 0.3141925,0.148828 0.060634,0.104731 0.068902,0.352777 l 0.011024,0.263205 0.027561,0.286632 q 0.019293,0.161231 0.046853,0.283876 0.00551,0.02343 0.00551,0.03996 0,0.0565 -0.041341,0.09371 -0.041341,0.03858 -0.099219,0.03858 z m 1.5530474,0.0055 q -0.02618,0 -0.09508,-0.06063 -0.06201,-0.0565 -0.09233,-0.100597 -0.132291,0.07166 -0.232888,0.107487 -0.100597,0.03721 -0.168121,0.03721 -0.32246,0 -0.4699102,-0.181901 Q 9.776972,46.157878 9.776972,45.8051 q 0,-0.333485 0.228754,-0.570507 0.230132,-0.237023 0.548459,-0.237023 0.119889,0 0.268717,0.06201 0.187413,0.07717 0.187413,0.186035 0,0.03721 -0.02756,0.06615 -0.01378,0.05237 -0.02205,0.172254 -0.0069,0.11989 -0.0083,0.307303 -0.0014,0.170876 0.02343,0.270095 0.01378,0.06063 0.08682,0.242535 0.0096,0.0248 0.0317,0.07304 l 0.0083,0.02343 q 0,0.05512 -0.03858,0.09095 -0.03858,0.03583 -0.08957,0.03583 z m -0.286631,-0.957736 q 0,-0.05926 0.0069,-0.128158 0.0083,-0.07028 0.02343,-0.148828 -0.05099,-0.02618 -0.08819,-0.03859 -0.03583,-0.0124 -0.05788,-0.0124 -0.213595,0 -0.369314,0.175011 -0.15434,0.173632 -0.15434,0.401008 0,0.225999 0.07993,0.338998 0.07993,0.112999 0.239779,0.112999 0.132292,0 0.22462,-0.04823 0.04961,-0.02618 0.139182,-0.10473 -0.0441,-0.36518 -0.0441,-0.547081 z m 1.711522,0.964626 q -0.118512,0 -0.13367,-0.129536 l -0.03859,-0.30179 q -0.01929,-0.16123 -0.01929,-0.30179 0,-0.03859 0.0041,-0.130914 0.0055,-0.09233 0.0055,-0.130913 0,-0.297656 -0.110243,-0.297656 -0.15434,0 -0.2949,0.183279 -0.12678,0.166742 -0.198438,0.421679 -0.0028,0.05374 -0.0124,0.135048 -0.0083,0.0689 -0.0083,0.133669 0,0.04134 0.0083,0.124024 0.0083,0.08268 0.0083,0.124023 0,0.06201 -0.03859,0.100597 -0.03721,0.03858 -0.09646,0.03858 -0.06063,0 -0.09784,-0.03858 -0.03721,-0.03858 -0.03721,-0.100597 0,-0.04134 -0.0096,-0.124023 -0.0083,-0.08268 -0.0083,-0.124024 0,-0.141937 0.01929,-0.39274 0.02067,-0.252181 0.02067,-0.394119 0,-0.0441 -0.0055,-0.130913 -0.0041,-0.08682 -0.0041,-0.130914 0,-0.05926 0.03859,-0.09646 0.03996,-0.03859 0.09784,-0.03859 0.12678,0 0.139182,0.179144 l 0.0041,0.161231 q 0.23151,-0.308681 0.475423,-0.308681 0.220486,0 0.307302,0.194304 0.05926,0.129535 0.06477,0.383094 v 0.139182 l -0.0014,0.128157 q 0,0.114377 0.02894,0.296278 0.03032,0.180523 0.03032,0.293522 0,0.06063 -0.03996,0.09784 -0.03858,0.03858 -0.09784,0.03858 z m 1.477255,0 q -0.118511,0 -0.133669,-0.129536 l -0.03858,-0.30179 q -0.01929,-0.16123 -0.01929,-0.30179 0,-0.03859 0.0041,-0.130914 0.0055,-0.09233 0.0055,-0.130913 0,-0.297656 -0.110243,-0.297656 -0.154341,0 -0.2949,0.183279 -0.12678,0.166742 -0.198438,0.421679 -0.0028,0.05374 -0.0124,0.135048 -0.0083,0.0689 -0.0083,0.133669 0,0.04134 0.0083,0.124024 0.0083,0.08268 0.0083,0.124023 0,0.06201 -0.03858,0.100597 -0.03721,0.03858 -0.09646,0.03858 -0.06063,0 -0.09784,-0.03858 -0.03721,-0.03858 -0.03721,-0.100597 0,-0.04134 -0.0096,-0.124023 -0.0083,-0.08268 -0.0083,-0.124024 0,-0.141937 0.01929,-0.39274 0.02067,-0.252181 0.02067,-0.394119 0,-0.0441 -0.0055,-0.130913 -0.0041,-0.08682 -0.0041,-0.130914 0,-0.05926 0.03858,-0.09646 0.03996,-0.03859 0.09784,-0.03859 0.126779,0 0.139182,0.179144 l 0.0041,0.161231 q 0.23151,-0.308681 0.475423,-0.308681 0.220486,0 0.307302,0.194304 0.05926,0.129535 0.06477,0.383094 v 0.139182 l -0.0014,0.128157 q 0,0.114377 0.02894,0.296278 0.03032,0.180523 0.03032,0.293522 0,0.06063 -0.03996,0.09784 -0.03858,0.03858 -0.09784,0.03858 z m 1.063845,-0.03445 q -0.311436,0 -0.504361,-0.155718 -0.21084,-0.172255 -0.21084,-0.482313 0,-0.35829 0.173633,-0.600825 0.188791,-0.264583 0.504361,-0.264583 0.228754,0 0.373448,0.07717 0.177767,0.09508 0.177767,0.292144 0,0.137804 -0.155718,0.250803 -0.0689,0.04961 -0.292144,0.15434 l -0.52641,0.249425 q 0.07717,0.114377 0.191547,0.172255 0.115755,0.05788 0.268717,0.05788 0.09509,0 0.223242,-0.03583 0.162609,-0.04547 0.209462,-0.118511 0.04685,-0.07441 0.100597,-0.07441 0.04823,0 0.08544,0.03721 0.03859,0.03583 0.03859,0.08406 0,0.152962 -0.246669,0.263205 -0.210839,0.09371 -0.410655,0.09371 z m -0.03721,-1.255392 q -0.16812,0 -0.279741,0.130914 -0.111621,0.129535 -0.166743,0.391362 l 0.423058,-0.201193 q 0.249424,-0.121268 0.355533,-0.21084 -0.118511,-0.110243 -0.332107,-0.110243 z m 1.289843,0.108865 -0.02067,0.684884 q 0,0.108865 -0.01103,0.319705 -0.01378,0.137804 -0.135047,0.137804 -0.135048,0 -0.135048,-0.14056 0,-0.166743 0.01516,-0.500228 0.01516,-0.334863 0.01516,-0.501605 0,-0.21773 0.0069,-0.497471 0.0069,-0.28112 0.0069,-0.49885 0,-0.137804 0.135048,-0.137804 0.136425,0 0.136425,0.137804 0,0.21773 -0.0069,0.49885 -0.0069,0.279741 -0.0069,0.497471 z m 2.045008,1.084515 h -0.27423 l -0.272851,-0.0014 q -0.09646,0 -0.135048,-0.0124 -0.07028,-0.02481 -0.07028,-0.104731 0,-0.139182 0.216352,-0.139182 l 0.06615,0.0014 0.0565,0.0028 q 0,-0.06614 -0.0124,-0.195681 -0.01102,-0.129535 -0.01102,-0.194303 0,-0.175011 0.03169,-0.531923 0.03032,-0.351399 0.02894,-0.5333 -0.184657,0.143316 -0.235644,0.143316 -0.05512,0 -0.09646,-0.04134 -0.03996,-0.04134 -0.03996,-0.09508 0,-0.06477 0.118512,-0.157096 0.07441,-0.05236 0.210839,-0.16812 0.121268,-0.122646 0.23151,-0.122646 0.09233,0 0.09233,0.106109 0,0.03169 -0.0083,0.09508 -0.0083,0.06201 -0.0083,0.09371 0,0.04548 0.0041,0.137804 0.0055,0.09233 0.0055,0.137804 0,0.157096 -0.03307,0.468532 -0.03307,0.311437 -0.03307,0.467155 0,0.07993 0.01102,0.194303 0.01103,0.114377 0.0124,0.187413 l 0.144694,-0.0028 q 0.05788,0 0.09508,0.03858 0.03859,0.03721 0.03859,0.09371 0,0.05788 -0.03859,0.09508 -0.03721,0.03721 -0.09508,0.03721 z"
       id="guid-8a30545d-829d-435e-8427-faf32c77d2cd"
       style="font-size:2.82222px;font-family:'Comic Sans MS';-inkscape-font-specification:'Comic Sans MS, Normal';text-align:center;text-anchor:middle;stroke:#000000;stroke-width:0;stroke-miterlimit:0"
       inkscape:label="Channel 1"
       aria-label="Channel 1">
      <title
         id="title20">Channel 1</title>
    </path>
    <path
       d="m 7.8973293,61.901482 q -0.088194,0 -0.1322916,-0.103353 -0.038585,-0.08819 -0.071658,-0.107487 -0.028939,-0.01516 -0.1433159,-0.01516 -0.1998153,0 -0.4437279,0.305924 -0.3307289,0.410655 -0.3307289,0.778591 0,0.177767 0.114377,0.305924 0.1171332,0.132292 0.2824977,0.132292 0.1419378,0 0.2852537,-0.07304 0.079926,-0.04134 0.2452906,-0.162609 0.078548,-0.05788 0.1185112,-0.05788 0.059256,0 0.099219,0.04547 0.039963,0.0441 0.039963,0.09922 0,0.06201 -0.052365,0.108865 -0.3638018,0.32246 -0.7358718,0.32246 -0.2852537,0 -0.482313,-0.219108 -0.1901692,-0.212217 -0.1901692,-0.501605 0,-0.467155 0.3913626,-0.957736 0.3265948,-0.409277 0.6587017,-0.409277 0.067524,0 0.1212673,0.0069 0.053744,0.0055 0.095085,0.01929 0.048231,-0.07028 0.1254014,-0.07028 0.095084,0 0.1198892,0.125401 0.022049,0.111621 0.022049,0.27423 0,0.0565 -0.030317,0.09922 -0.037207,0.05374 -0.1061089,0.05374 z m 1.5241091,1.631596 q -0.097841,0 -0.1281574,-0.104731 -0.031695,-0.112999 -0.057878,-0.321083 -0.024805,-0.199815 -0.024805,-0.327973 0,-0.03583 0.00276,-0.108864 0.00413,-0.07304 0.00413,-0.108865 0,-0.259071 -0.1295355,-0.259071 -0.1750107,0 -0.3128144,0.158474 -0.07028,0.0813 -0.1929252,0.310058 0,0.525032 -0.044097,0.621495 -0.038585,0.08544 -0.1198892,0.08544 -0.0565,0 -0.099219,-0.03858 -0.042719,-0.03859 -0.042719,-0.09371 0,-0.01929 0.012402,-0.06063 0.011024,-0.03445 0.015158,-0.201193 l 0.00413,-0.20395 0.00413,-1.012857 q 0.00965,-0.170877 0.00965,-0.230132 0,-0.07028 -0.01378,-0.132292 -0.012402,-0.06339 -0.012402,-0.130913 0,-0.05788 0.039963,-0.09508 0.039963,-0.03859 0.097841,-0.03859 0.112999,0 0.1322915,0.121267 0.022049,0.13367 0.022049,0.241157 0,0.144694 -0.00965,0.30179 -0.00827,0.150206 -0.00689,0.30179 l 0.00138,0.121267 q 0.1129991,-0.151584 0.2411565,-0.225998 0.1295355,-0.07579 0.2742294,-0.07579 0.2287542,0 0.3141925,0.148828 0.060634,0.104731 0.068902,0.352778 l 0.011024,0.263205 0.027561,0.286631 q 0.019292,0.161231 0.046853,0.283876 0.00551,0.02343 0.00551,0.03996 0,0.0565 -0.041341,0.09371 -0.041341,0.03859 -0.099219,0.03859 z m 1.5530476,0.0055 q -0.02618,0 -0.09508,-0.06063 -0.06201,-0.0565 -0.09233,-0.100596 -0.132291,0.07166 -0.232888,0.107486 -0.100597,0.03721 -0.168121,0.03721 -0.32246,0 -0.4699104,-0.1819 -0.1391818,-0.170877 -0.1391818,-0.523655 0,-0.333485 0.2287542,-0.570507 0.230132,-0.237022 0.548459,-0.237022 0.119889,0 0.268717,0.06201 0.187413,0.07717 0.187413,0.186035 0,0.03721 -0.02756,0.06615 -0.01378,0.05237 -0.02205,0.172255 -0.0069,0.119889 -0.0083,0.307302 -0.0014,0.170877 0.02343,0.270095 0.01378,0.06063 0.08682,0.242535 0.0096,0.02481 0.03169,0.07304 l 0.0083,0.02343 q 0,0.05512 -0.03858,0.09095 -0.03858,0.03583 -0.08957,0.03583 z m -0.286632,-0.957736 q 0,-0.05926 0.0069,-0.128157 0.0083,-0.07028 0.02343,-0.148828 -0.05099,-0.02618 -0.08819,-0.03858 -0.03583,-0.0124 -0.05788,-0.0124 -0.213595,0 -0.369314,0.175011 -0.15434,0.173633 -0.15434,0.401009 0,0.225998 0.07993,0.338997 0.07993,0.112999 0.239779,0.112999 0.132291,0 0.22462,-0.04823 0.04961,-0.02618 0.139182,-0.104731 -0.0441,-0.36518 -0.0441,-0.547081 z m 1.711522,0.964626 q -0.118511,0 -0.133669,-0.129535 l -0.03859,-0.301791 q -0.01929,-0.16123 -0.01929,-0.30179 0,-0.03859 0.0041,-0.130913 0.0055,-0.09233 0.0055,-0.130914 0,-0.297656 -0.110243,-0.297656 -0.154341,0 -0.2949,0.183279 -0.12678,0.166743 -0.198438,0.42168 -0.0028,0.05374 -0.0124,0.135047 -0.0083,0.0689 -0.0083,0.13367 0,0.04134 0.0083,0.124023 0.0083,0.08268 0.0083,0.124023 0,0.06201 -0.03859,0.100597 -0.03721,0.03858 -0.09646,0.03858 -0.06063,0 -0.09784,-0.03858 -0.03721,-0.03858 -0.03721,-0.100597 0,-0.04134 -0.0096,-0.124023 -0.0083,-0.08268 -0.0083,-0.124023 0,-0.141938 0.01929,-0.392741 0.02067,-0.252181 0.02067,-0.394118 0,-0.0441 -0.0055,-0.130914 -0.0041,-0.08682 -0.0041,-0.130913 0,-0.05926 0.03859,-0.09646 0.03996,-0.03859 0.09784,-0.03859 0.126779,0 0.139182,0.179145 l 0.0041,0.16123 q 0.23151,-0.30868 0.475423,-0.30868 0.220486,0 0.307302,0.194303 0.05925,0.129535 0.06477,0.383094 v 0.139182 l -0.0014,0.128158 q 0,0.114377 0.02894,0.296278 0.03032,0.180522 0.03032,0.293521 0,0.06063 -0.03996,0.09784 -0.03858,0.03858 -0.09784,0.03858 z m 1.477256,0 q -0.118511,0 -0.133669,-0.129535 l -0.03858,-0.301791 q -0.01929,-0.16123 -0.01929,-0.30179 0,-0.03859 0.0041,-0.130913 0.0055,-0.09233 0.0055,-0.130914 0,-0.297656 -0.110243,-0.297656 -0.15434,0 -0.2949,0.183279 -0.126779,0.166743 -0.198437,0.42168 -0.0028,0.05374 -0.0124,0.135047 -0.0083,0.0689 -0.0083,0.13367 0,0.04134 0.0083,0.124023 0.0083,0.08268 0.0083,0.124023 0,0.06201 -0.03858,0.100597 -0.03721,0.03858 -0.09646,0.03858 -0.06063,0 -0.09784,-0.03858 -0.03721,-0.03858 -0.03721,-0.100597 0,-0.04134 -0.0096,-0.124023 -0.0083,-0.08268 -0.0083,-0.124023 0,-0.141938 0.01929,-0.392741 0.02067,-0.252181 0.02067,-0.394118 0,-0.0441 -0.0055,-0.130914 -0.0041,-0.08682 -0.0041,-0.130913 0,-0.05926 0.03858,-0.09646 0.03996,-0.03859 0.09784,-0.03859 0.126779,0 0.139181,0.179145 l 0.0041,0.16123 q 0.23151,-0.30868 0.475422,-0.30868 0.220486,0 0.307303,0.194303 0.05926,0.129535 0.06477,0.383094 v 0.139182 l -0.0014,0.128158 q 0,0.114377 0.02894,0.296278 0.03032,0.180522 0.03032,0.293521 0,0.06063 -0.03996,0.09784 -0.03858,0.03858 -0.09784,0.03858 z m 1.063845,-0.03445 q -0.311436,0 -0.504362,-0.155718 -0.210839,-0.172255 -0.210839,-0.482313 0,-0.35829 0.173632,-0.600824 0.188791,-0.264583 0.504362,-0.264583 0.228754,0 0.373448,0.07717 0.177767,0.09508 0.177767,0.292144 0,0.137803 -0.155718,0.250802 -0.0689,0.04961 -0.292144,0.154341 l -0.52641,0.249424 q 0.07717,0.114377 0.191547,0.172255 0.115755,0.05788 0.268717,0.05788 0.09509,0 0.223242,-0.03583 0.162608,-0.04547 0.209462,-0.118511 0.04685,-0.07441 0.100596,-0.07441 0.04823,0 0.08544,0.03721 0.03859,0.03583 0.03859,0.08406 0,0.152962 -0.246669,0.263205 -0.21084,0.09371 -0.410655,0.09371 z m -0.03721,-1.255392 q -0.168121,0 -0.279742,0.130914 -0.111621,0.129535 -0.166742,0.391362 l 0.423057,-0.201193 q 0.249425,-0.121267 0.355534,-0.21084 -0.118511,-0.110243 -0.332107,-0.110243 z m 1.289843,0.108865 -0.02067,0.684885 q 0,0.108865 -0.01102,0.319704 -0.01378,0.137804 -0.135048,0.137804 -0.135047,0 -0.135047,-0.14056 0,-0.166742 0.01516,-0.500227 0.01516,-0.334863 0.01516,-0.501606 0,-0.21773 0.0069,-0.497471 0.0069,-0.28112 0.0069,-0.49885 0,-0.137803 0.135048,-0.137803 0.136425,0 0.136425,0.137803 0,0.21773 -0.0069,0.49885 -0.0069,0.279741 -0.0069,0.497471 z m 2.463931,1.085894 q -0.03445,0 -0.09784,-0.02067 -0.06201,-0.02205 -0.09509,-0.02205 -0.07028,0 -0.210839,0.0083 -0.14056,0.0083 -0.212218,0.0083 -0.05374,0 -0.159852,0.01378 -0.104731,0.01378 -0.158475,0.01378 -0.01516,0 -0.0441,-0.0055 -0.02894,-0.0055 -0.0441,-0.0055 -0.09508,0 -0.124023,-0.09233 -0.01654,-0.04823 -0.01654,-0.165365 0,-0.321082 0.175011,-0.516764 0.07993,-0.08957 0.431326,-0.330729 0.197059,-0.135047 0.263205,-0.210839 0.118511,-0.132292 0.118511,-0.310059 0,-0.08819 -0.114377,-0.157096 -0.100597,-0.06201 -0.197059,-0.06201 -0.12678,0 -0.241157,0.07304 l -0.197059,0.15434 q -0.05926,0.04685 -0.09509,0.04685 -0.141938,0 -0.141938,-0.112999 0,-0.06477 0.05237,-0.111621 0.16123,-0.151584 0.279741,-0.219108 0.166743,-0.09509 0.343132,-0.09509 0.223242,0 0.398252,0.121268 0.195682,0.136425 0.195682,0.350021 0,0.14056 -0.03996,0.259071 -0.03996,0.118511 -0.121267,0.216352 -0.103353,0.124023 -0.350021,0.276985 -0.259071,0.162609 -0.340375,0.246669 -0.152963,0.158474 -0.150206,0.384472 l 0.283875,-0.02618 q 0.292144,-0.01654 0.417545,-0.01654 0.104731,0 0.198438,0.03583 0.124023,0.04823 0.124023,0.13367 0,0.05374 -0.03721,0.09646 -0.03721,0.04134 -0.09233,0.04134 z"
       id="guid-8a30545d-829d-435e-8427-faf32c77d2cd-0"
       style="font-size:2.82222px;font-family:'Comic Sans MS';-inkscape-font-specification:'Comic Sans MS, Normal';text-align:center;text-anchor:middle;stroke:#000000;stroke-width:0;stroke-miterlimit:0"
       inkscape:label="Channel 1"
       aria-label="Channel 2" />
    <path
       d="m 7.8973293,78.765381 q -0.088194,0 -0.1322916,-0.103353 -0.038585,-0.08819 -0.071658,-0.107487 -0.028939,-0.01516 -0.1433159,-0.01516 -0.1998153,0 -0.4437279,0.305924 -0.3307289,0.410655 -0.3307289,0.778591 0,0.177767 0.114377,0.305924 0.1171332,0.132292 0.2824977,0.132292 0.1419378,0 0.2852537,-0.07304 0.079926,-0.04134 0.2452906,-0.162608 0.078548,-0.05788 0.1185112,-0.05788 0.059256,0 0.099219,0.04547 0.039963,0.0441 0.039963,0.09922 0,0.06201 -0.052365,0.108865 -0.3638018,0.322461 -0.7358718,0.322461 -0.2852537,0 -0.482313,-0.219108 -0.1901692,-0.212218 -0.1901692,-0.501606 0,-0.467154 0.3913626,-0.957736 0.3265948,-0.409277 0.6587017,-0.409277 0.067524,0 0.1212673,0.0069 0.053744,0.0055 0.095085,0.01929 0.048231,-0.07028 0.1254014,-0.07028 0.095084,0 0.1198892,0.125401 0.022049,0.111622 0.022049,0.27423 0,0.0565 -0.030317,0.09922 -0.037207,0.05374 -0.1061089,0.05374 z m 1.5241091,1.631596 q -0.097841,0 -0.1281574,-0.104731 -0.031695,-0.112999 -0.057878,-0.321082 -0.024805,-0.199816 -0.024805,-0.327973 0,-0.03583 0.00276,-0.108865 0.00413,-0.07304 0.00413,-0.108865 0,-0.259071 -0.1295355,-0.259071 -0.1750107,0 -0.3128144,0.158474 -0.07028,0.0813 -0.1929252,0.310058 0,0.525033 -0.044097,0.621495 -0.038585,0.08544 -0.1198892,0.08544 -0.0565,0 -0.099219,-0.03859 -0.042719,-0.03858 -0.042719,-0.09371 0,-0.01929 0.012402,-0.06063 0.011024,-0.03445 0.015158,-0.201193 l 0.00413,-0.20395 0.00413,-1.012857 q 0.00965,-0.170877 0.00965,-0.230132 0,-0.07028 -0.01378,-0.132292 -0.012402,-0.06339 -0.012402,-0.130913 0,-0.05788 0.039963,-0.09508 0.039963,-0.03859 0.097841,-0.03859 0.112999,0 0.1322915,0.121267 0.022049,0.13367 0.022049,0.241157 0,0.144694 -0.00965,0.30179 -0.00827,0.150206 -0.00689,0.30179 l 0.00138,0.121267 q 0.1129991,-0.151584 0.2411565,-0.225998 0.1295355,-0.07579 0.2742294,-0.07579 0.2287542,0 0.3141925,0.148828 0.060634,0.104731 0.068902,0.352778 l 0.011024,0.263205 0.027561,0.286632 q 0.019292,0.16123 0.046853,0.283875 0.00551,0.02343 0.00551,0.03996 0,0.0565 -0.041341,0.09371 -0.041341,0.03859 -0.099219,0.03859 z m 1.5530476,0.0055 q -0.02618,0 -0.09508,-0.06063 -0.06201,-0.0565 -0.09233,-0.100597 -0.132291,0.07166 -0.232888,0.107487 -0.100597,0.03721 -0.168121,0.03721 -0.32246,0 -0.4699104,-0.181901 -0.1391818,-0.170877 -0.1391818,-0.523654 0,-0.333485 0.2287542,-0.570508 0.230132,-0.237022 0.548459,-0.237022 0.119889,0 0.268717,0.06201 0.187413,0.07717 0.187413,0.186035 0,0.03721 -0.02756,0.06615 -0.01378,0.05237 -0.02205,0.172255 -0.0069,0.119889 -0.0083,0.307302 -0.0014,0.170877 0.02343,0.270096 0.01378,0.06063 0.08682,0.242534 0.0096,0.02481 0.03169,0.07304 l 0.0083,0.02343 q 0,0.05512 -0.03858,0.09095 -0.03858,0.03583 -0.08957,0.03583 z m -0.286632,-0.957736 q 0,-0.05926 0.0069,-0.128157 0.0083,-0.07028 0.02343,-0.148828 -0.05099,-0.02618 -0.08819,-0.03858 -0.03583,-0.0124 -0.05788,-0.0124 -0.213595,0 -0.369314,0.175011 -0.15434,0.173633 -0.15434,0.401009 0,0.225998 0.07993,0.338997 0.07993,0.112999 0.239779,0.112999 0.132291,0 0.22462,-0.04823 0.04961,-0.02618 0.139182,-0.104731 -0.0441,-0.36518 -0.0441,-0.547081 z m 1.711522,0.964626 q -0.118511,0 -0.133669,-0.129535 l -0.03859,-0.30179 q -0.01929,-0.161231 -0.01929,-0.30179 0,-0.03858 0.0041,-0.130914 0.0055,-0.09233 0.0055,-0.130913 0,-0.297657 -0.110243,-0.297657 -0.154341,0 -0.2949,0.183279 -0.12678,0.166743 -0.198438,0.42168 -0.0028,0.05374 -0.0124,0.135047 -0.0083,0.0689 -0.0083,0.13367 0,0.04134 0.0083,0.124023 0.0083,0.08268 0.0083,0.124024 0,0.06201 -0.03859,0.100596 -0.03721,0.03858 -0.09646,0.03858 -0.06063,0 -0.09784,-0.03858 -0.03721,-0.03858 -0.03721,-0.100596 0,-0.04134 -0.0096,-0.124024 -0.0083,-0.08268 -0.0083,-0.124023 0,-0.141938 0.01929,-0.392741 0.02067,-0.25218 0.02067,-0.394118 0,-0.0441 -0.0055,-0.130914 -0.0041,-0.08682 -0.0041,-0.130913 0,-0.05926 0.03859,-0.09646 0.03996,-0.03859 0.09784,-0.03859 0.126779,0 0.139182,0.179145 l 0.0041,0.16123 q 0.23151,-0.30868 0.475423,-0.30868 0.220486,0 0.307302,0.194303 0.05925,0.129536 0.06477,0.383095 v 0.139181 l -0.0014,0.128158 q 0,0.114377 0.02894,0.296278 0.03032,0.180523 0.03032,0.293522 0,0.06063 -0.03996,0.09784 -0.03858,0.03858 -0.09784,0.03858 z m 1.477256,0 q -0.118511,0 -0.133669,-0.129535 l -0.03858,-0.30179 q -0.01929,-0.161231 -0.01929,-0.30179 0,-0.03858 0.0041,-0.130914 0.0055,-0.09233 0.0055,-0.130913 0,-0.297657 -0.110243,-0.297657 -0.15434,0 -0.2949,0.183279 -0.126779,0.166743 -0.198437,0.42168 -0.0028,0.05374 -0.0124,0.135047 -0.0083,0.0689 -0.0083,0.13367 0,0.04134 0.0083,0.124023 0.0083,0.08268 0.0083,0.124024 0,0.06201 -0.03858,0.100596 -0.03721,0.03858 -0.09646,0.03858 -0.06063,0 -0.09784,-0.03858 -0.03721,-0.03858 -0.03721,-0.100596 0,-0.04134 -0.0096,-0.124024 -0.0083,-0.08268 -0.0083,-0.124023 0,-0.141938 0.01929,-0.392741 0.02067,-0.25218 0.02067,-0.394118 0,-0.0441 -0.0055,-0.130914 -0.0041,-0.08682 -0.0041,-0.130913 0,-0.05926 0.03858,-0.09646 0.03996,-0.03859 0.09784,-0.03859 0.126779,0 0.139181,0.179145 l 0.0041,0.16123 q 0.23151,-0.30868 0.475422,-0.30868 0.220486,0 0.307303,0.194303 0.05926,0.129536 0.06477,0.383095 v 0.139181 l -0.0014,0.128158 q 0,0.114377 0.02894,0.296278 0.03032,0.180523 0.03032,0.293522 0,0.06063 -0.03996,0.09784 -0.03858,0.03858 -0.09784,0.03858 z m 1.063845,-0.03445 q -0.311436,0 -0.504362,-0.155718 -0.210839,-0.172254 -0.210839,-0.482313 0,-0.358289 0.173632,-0.600824 0.188791,-0.264583 0.504362,-0.264583 0.228754,0 0.373448,0.07717 0.177767,0.09508 0.177767,0.292144 0,0.137804 -0.155718,0.250803 -0.0689,0.04961 -0.292144,0.15434 l -0.52641,0.249424 q 0.07717,0.114378 0.191547,0.172255 0.115755,0.05788 0.268717,0.05788 0.09509,0 0.223242,-0.03583 0.162608,-0.04548 0.209462,-0.118511 0.04685,-0.07441 0.100596,-0.07441 0.04823,0 0.08544,0.03721 0.03859,0.03583 0.03859,0.08406 0,0.152962 -0.246669,0.263205 -0.21084,0.09371 -0.410655,0.09371 z m -0.03721,-1.255391 q -0.168121,0 -0.279742,0.130913 -0.111621,0.129536 -0.166742,0.391363 l 0.423057,-0.201194 q 0.249425,-0.121267 0.355534,-0.210839 -0.118511,-0.110243 -0.332107,-0.110243 z m 1.289843,0.108864 -0.02067,0.684885 q 0,0.108865 -0.01102,0.319705 -0.01378,0.137803 -0.135048,0.137803 -0.135047,0 -0.135047,-0.140559 0,-0.166743 0.01516,-0.500228 0.01516,-0.334863 0.01516,-0.501606 0,-0.217729 0.0069,-0.497471 0.0069,-0.281119 0.0069,-0.498849 0,-0.137804 0.135048,-0.137804 0.136425,0 0.136425,0.137804 0,0.21773 -0.0069,0.498849 -0.0069,0.279742 -0.0069,0.497471 z m 1.908582,1.146527 q -0.208084,0 -0.373448,-0.08682 -0.186035,-0.100597 -0.250803,-0.282498 -0.0083,-0.0248 -0.0083,-0.04823 0,-0.05512 0.04134,-0.09095 0.04272,-0.03721 0.09784,-0.03721 0.05512,0 0.09508,0.05099 l 0.06339,0.09508 q 0.04961,0.06752 0.133669,0.101974 0.08406,0.03307 0.201194,0.03307 0.150206,0 0.263205,-0.09371 0.119889,-0.09922 0.119889,-0.242535 0,-0.208083 -0.152962,-0.332107 -0.135048,-0.107487 -0.35829,-0.130913 -0.152962,-0.01516 -0.152962,-0.124024 0,-0.0813 0.119889,-0.124023 l 0.329351,-0.0813 q 0.09508,-0.03445 0.143316,-0.09233 0.04823,-0.05925 0.04961,-0.143316 0.0028,-0.121267 -0.09371,-0.195681 -0.100597,-0.07717 -0.282498,-0.07717 -0.09371,0 -0.181901,0.04547 l -0.155718,0.09784 q -0.04547,0.02894 -0.07304,0.02894 -0.05512,0 -0.09508,-0.04134 -0.03859,-0.04272 -0.03859,-0.09646 0,-0.108865 0.210839,-0.209462 0.183279,-0.08957 0.30179,-0.08957 0.296278,0 0.469911,0.130914 0.186035,0.140559 0.186035,0.401008 0,0.323839 -0.261827,0.427192 -0.02343,0.0096 -0.05374,0.01929 0.183279,0.06752 0.274229,0.202572 0.09095,0.133669 0.09095,0.334863 0,0.271473 -0.191547,0.461642 -0.191547,0.188791 -0.467154,0.188791 z"
       id="guid-8a30545d-829d-435e-8427-faf32c77d2cd-0-5"
       style="font-size:2.82222px;font-family:'Comic Sans MS';-inkscape-font-specification:'Comic Sans MS, Normal';text-align:center;text-anchor:middle;stroke:#000000;stroke-width:0;stroke-miterlimit:0"
       inkscape:label="Channel 1"
       aria-label="Channel 3" />
    <path
       d="m 7.8973293,95.418114 q -0.088194,0 -0.1322916,-0.103353 -0.038585,-0.08819 -0.071658,-0.107487 -0.028939,-0.01516 -0.1433159,-0.01516 -0.1998153,0 -0.4437279,0.305924 -0.3307289,0.410655 -0.3307289,0.778591 0,0.177767 0.114377,0.305924 0.1171332,0.132292 0.2824977,0.132292 0.1419378,0 0.2852537,-0.07304 0.079926,-0.04134 0.2452906,-0.162609 0.078548,-0.05788 0.1185112,-0.05788 0.059256,0 0.099219,0.04548 0.039963,0.0441 0.039963,0.09922 0,0.06201 -0.052365,0.108865 -0.3638018,0.32246 -0.7358718,0.32246 -0.2852537,0 -0.482313,-0.219107 -0.1901692,-0.212218 -0.1901692,-0.501606 0,-0.467155 0.3913626,-0.957736 0.3265948,-0.409277 0.6587017,-0.409277 0.067524,0 0.1212673,0.0069 0.053744,0.0055 0.095085,0.01929 0.048231,-0.07028 0.1254014,-0.07028 0.095084,0 0.1198892,0.125401 0.022049,0.111621 0.022049,0.27423 0,0.0565 -0.030317,0.09922 -0.037207,0.05374 -0.1061089,0.05374 z m 1.5241091,1.631596 q -0.097841,0 -0.1281574,-0.104731 -0.031695,-0.112999 -0.057878,-0.321083 -0.024805,-0.199815 -0.024805,-0.327972 0,-0.03583 0.00276,-0.108865 0.00413,-0.07304 0.00413,-0.108865 0,-0.259071 -0.1295355,-0.259071 -0.1750107,0 -0.3128144,0.158474 -0.07028,0.0813 -0.1929252,0.310058 0,0.525032 -0.044097,0.621495 -0.038585,0.08544 -0.1198892,0.08544 -0.0565,0 -0.099219,-0.03858 -0.042719,-0.03858 -0.042719,-0.09371 0,-0.01929 0.012402,-0.06063 0.011024,-0.03445 0.015158,-0.201193 l 0.00413,-0.20395 0.00413,-1.012857 q 0.00965,-0.170877 0.00965,-0.230132 0,-0.07028 -0.01378,-0.132292 -0.012402,-0.06339 -0.012402,-0.130913 0,-0.05788 0.039963,-0.09508 0.039963,-0.03858 0.097841,-0.03858 0.112999,0 0.1322915,0.121267 0.022049,0.13367 0.022049,0.241157 0,0.144694 -0.00965,0.30179 -0.00827,0.150206 -0.00689,0.30179 l 0.00138,0.121267 q 0.1129991,-0.151584 0.2411565,-0.225998 0.1295355,-0.07579 0.2742294,-0.07579 0.2287542,0 0.3141925,0.148828 0.060634,0.104731 0.068902,0.352778 l 0.011024,0.263205 0.027561,0.286632 q 0.019292,0.16123 0.046853,0.283875 0.00551,0.02343 0.00551,0.03996 0,0.0565 -0.041341,0.09371 -0.041341,0.03858 -0.099219,0.03858 z m 1.5530476,0.0055 q -0.02618,0 -0.09508,-0.06063 -0.06201,-0.0565 -0.09233,-0.100596 -0.132291,0.07166 -0.232888,0.107487 -0.100597,0.03721 -0.168121,0.03721 -0.32246,0 -0.4699104,-0.181901 -0.1391818,-0.170877 -0.1391818,-0.523654 0,-0.333485 0.2287542,-0.570508 0.230132,-0.237022 0.548459,-0.237022 0.119889,0 0.268717,0.06201 0.187413,0.07717 0.187413,0.186035 0,0.03721 -0.02756,0.06615 -0.01378,0.05237 -0.02205,0.172255 -0.0069,0.119889 -0.0083,0.307302 -0.0014,0.170877 0.02343,0.270095 0.01378,0.06063 0.08682,0.242535 0.0096,0.02481 0.03169,0.07304 l 0.0083,0.02343 q 0,0.05512 -0.03858,0.09095 -0.03858,0.03583 -0.08957,0.03583 z m -0.286632,-0.957736 q 0,-0.05926 0.0069,-0.128157 0.0083,-0.07028 0.02343,-0.148828 -0.05099,-0.02618 -0.08819,-0.03858 -0.03583,-0.0124 -0.05788,-0.0124 -0.213595,0 -0.369314,0.175011 -0.15434,0.173633 -0.15434,0.401009 0,0.225998 0.07993,0.338997 0.07993,0.112999 0.239779,0.112999 0.132291,0 0.22462,-0.04823 0.04961,-0.02618 0.139182,-0.104731 -0.0441,-0.36518 -0.0441,-0.547081 z m 1.711522,0.964626 q -0.118511,0 -0.133669,-0.129535 l -0.03859,-0.30179 q -0.01929,-0.161231 -0.01929,-0.301791 0,-0.03858 0.0041,-0.130913 0.0055,-0.09233 0.0055,-0.130914 0,-0.297656 -0.110243,-0.297656 -0.154341,0 -0.2949,0.183279 -0.12678,0.166743 -0.198438,0.42168 -0.0028,0.05374 -0.0124,0.135047 -0.0083,0.0689 -0.0083,0.13367 0,0.04134 0.0083,0.124023 0.0083,0.08268 0.0083,0.124024 0,0.06201 -0.03859,0.100596 -0.03721,0.03858 -0.09646,0.03858 -0.06063,0 -0.09784,-0.03858 -0.03721,-0.03858 -0.03721,-0.100596 0,-0.04134 -0.0096,-0.124024 -0.0083,-0.08268 -0.0083,-0.124023 0,-0.141938 0.01929,-0.392741 0.02067,-0.25218 0.02067,-0.394118 0,-0.0441 -0.0055,-0.130914 -0.0041,-0.08682 -0.0041,-0.130913 0,-0.05926 0.03859,-0.09646 0.03996,-0.03858 0.09784,-0.03858 0.126779,0 0.139182,0.179145 l 0.0041,0.16123 q 0.23151,-0.30868 0.475423,-0.30868 0.220486,0 0.307302,0.194303 0.05925,0.129536 0.06477,0.383094 v 0.139182 l -0.0014,0.128158 q 0,0.114377 0.02894,0.296278 0.03032,0.180522 0.03032,0.293522 0,0.06063 -0.03996,0.09784 -0.03858,0.03858 -0.09784,0.03858 z m 1.477256,0 q -0.118511,0 -0.133669,-0.129535 l -0.03858,-0.30179 q -0.01929,-0.161231 -0.01929,-0.301791 0,-0.03858 0.0041,-0.130913 0.0055,-0.09233 0.0055,-0.130914 0,-0.297656 -0.110243,-0.297656 -0.15434,0 -0.2949,0.183279 -0.126779,0.166743 -0.198437,0.42168 -0.0028,0.05374 -0.0124,0.135047 -0.0083,0.0689 -0.0083,0.13367 0,0.04134 0.0083,0.124023 0.0083,0.08268 0.0083,0.124024 0,0.06201 -0.03858,0.100596 -0.03721,0.03858 -0.09646,0.03858 -0.06063,0 -0.09784,-0.03858 -0.03721,-0.03858 -0.03721,-0.100596 0,-0.04134 -0.0096,-0.124024 -0.0083,-0.08268 -0.0083,-0.124023 0,-0.141938 0.01929,-0.392741 0.02067,-0.25218 0.02067,-0.394118 0,-0.0441 -0.0055,-0.130914 -0.0041,-0.08682 -0.0041,-0.130913 0,-0.05926 0.03858,-0.09646 0.03996,-0.03858 0.09784,-0.03858 0.126779,0 0.139181,0.179145 l 0.0041,0.16123 q 0.23151,-0.30868 0.475422,-0.30868 0.220486,0 0.307303,0.194303 0.05926,0.129536 0.06477,0.383094 v 0.139182 l -0.0014,0.128158 q 0,0.114377 0.02894,0.296278 0.03032,0.180522 0.03032,0.293522 0,0.06063 -0.03996,0.09784 -0.03858,0.03858 -0.09784,0.03858 z m 1.063845,-0.03445 q -0.311436,0 -0.504362,-0.155718 -0.210839,-0.172255 -0.210839,-0.482313 0,-0.35829 0.173632,-0.600824 0.188791,-0.264583 0.504362,-0.264583 0.228754,0 0.373448,0.07717 0.177767,0.09508 0.177767,0.292144 0,0.137803 -0.155718,0.250802 -0.0689,0.04961 -0.292144,0.154341 l -0.52641,0.249424 q 0.07717,0.114377 0.191547,0.172255 0.115755,0.05788 0.268717,0.05788 0.09509,0 0.223242,-0.03583 0.162608,-0.04548 0.209462,-0.118512 0.04685,-0.07441 0.100596,-0.07441 0.04823,0 0.08544,0.03721 0.03859,0.03583 0.03859,0.08406 0,0.152962 -0.246669,0.263205 -0.21084,0.09371 -0.410655,0.09371 z m -0.03721,-1.255392 q -0.168121,0 -0.279742,0.130914 -0.111621,0.129535 -0.166742,0.391362 l 0.423057,-0.201193 q 0.249425,-0.121267 0.355534,-0.21084 -0.118511,-0.110243 -0.332107,-0.110243 z m 1.289843,0.108865 -0.02067,0.684885 q 0,0.108865 -0.01102,0.319704 -0.01378,0.137804 -0.135048,0.137804 -0.135047,0 -0.135047,-0.14056 0,-0.166742 0.01516,-0.500227 0.01516,-0.334863 0.01516,-0.501606 0,-0.21773 0.0069,-0.497471 0.0069,-0.28112 0.0069,-0.49885 0,-0.137803 0.135048,-0.137803 0.136425,0 0.136425,0.137803 0,0.21773 -0.0069,0.49885 -0.0069,0.279741 -0.0069,0.497471 z m 2.403297,0.480935 v 0.509874 q 0,0.128158 -0.125401,0.128158 -0.146072,0 -0.146072,-0.199816 0,-0.02481 0.0028,-0.07028 0.0028,-0.04548 0.0028,-0.06201 l -0.0014,-0.312815 -0.607715,-0.01516 q -0.188791,0 -0.261827,-0.0124 -0.125401,-0.02067 -0.125401,-0.09784 0,-0.06201 0.07579,-0.157096 l 0.118511,-0.14056 0.677995,-0.989431 q 0.09233,-0.128157 0.234266,-0.128157 0.155718,0 0.155718,0.135047 v 1.145149 q 0.02343,-0.0014 0.0565,-0.0014 0.253558,0 0.253558,0.136426 0,0.09922 -0.10473,0.125401 -0.04685,0.0124 -0.205328,0.0069 z M 18.329071,95.19625 q -0.367936,0.587044 -0.574642,0.879188 l 0.574642,0.01378 z"
       id="guid-8a30545d-829d-435e-8427-faf32c77d2cd-0-5-4"
       style="font-size:2.82222px;font-family:'Comic Sans MS';-inkscape-font-specification:'Comic Sans MS, Normal';text-align:center;text-anchor:middle;stroke:#000000;stroke-width:0;stroke-miterlimit:0"
       inkscape:label="Channel 1"
       aria-label="Channel 4" />
    <path
       d="m 12.263493,27.769367 q -0.110242,0 -0.277329,-0.02239 l -0.27733,-0.03617 q -0.03962,0.50126 -0.03962,0.957734 0,0.120578 0.0069,0.298 0.0069,0.177422 0.0069,0.298 0,0.16192 -0.01206,0.294555 l 0.542602,-0.0069 q 0.07235,0 0.120578,0.05168 0.04995,0.04995 0.04995,0.124023 0,0.07579 -0.04995,0.127468 -0.04823,0.04995 -0.120578,0.04995 -0.09646,0 -0.289388,0.0052 -0.192925,0.0034 -0.289387,0.0034 -0.113688,0 -0.341064,0.03101 -0.225653,0.03273 -0.341064,0.03273 -0.07235,0 -0.1223,-0.05168 -0.04823,-0.04995 -0.04823,-0.124023 0,-0.07407 0.04823,-0.125746 0.04995,-0.05168 0.1223,-0.05168 0.111966,0 0.370347,-0.03617 0.01723,-0.139526 0.01723,-0.318671 0,-0.118855 -0.01206,-0.289387 -0.01033,-0.172255 -0.01033,-0.289388 0,-0.397907 0.04823,-0.993908 l -0.223931,0.0069 -0.223931,0.0052 q -0.07407,0 -0.124023,-0.04995 -0.04995,-0.04995 -0.04995,-0.127468 0,-0.160196 0.161919,-0.175699 0.139526,-0.01378 0.52193,-0.01378 0.342787,0 0.85955,0.07407 0.153306,0.02239 0.153306,0.184312 0,0.08096 -0.05857,0.129191 -0.05168,0.03962 -0.118856,0.03962 z m 1.839677,2.268591 q -0.148138,0 -0.167086,-0.161919 l -0.04823,-0.377238 q -0.02412,-0.201537 -0.02412,-0.377237 0,-0.04823 0.0052,-0.163641 0.0069,-0.115411 0.0069,-0.163642 0,-0.37207 -0.137803,-0.37207 -0.192925,0 -0.368624,0.229099 -0.158474,0.208428 -0.248047,0.527098 -0.0034,0.06718 -0.0155,0.16881 -0.01033,0.08613 -0.01033,0.167086 0,0.05168 0.01033,0.155029 0.01034,0.103353 0.01034,0.155029 0,0.07751 -0.04823,0.125746 -0.04651,0.04823 -0.120578,0.04823 -0.07579,0 -0.1223,-0.04823 -0.04651,-0.04823 -0.04651,-0.125746 0,-0.05168 -0.01206,-0.155029 -0.01034,-0.103352 -0.01034,-0.155029 0,-0.177422 0.02412,-0.490925 0.02584,-0.315225 0.02584,-0.492647 0,-0.05512 -0.0069,-0.163642 -0.0052,-0.10852 -0.0052,-0.163642 0,-0.07407 0.04823,-0.120578 0.04995,-0.04823 0.122301,-0.04823 0.158474,0 0.173977,0.223931 l 0.0052,0.201537 q 0.289388,-0.385849 0.594278,-0.385849 0.275607,0 0.384127,0.242878 0.07407,0.161919 0.08096,0.478867 v 0.173977 l -0.0017,0.160197 q 0,0.142971 0.03617,0.370347 0.0379,0.225653 0.0379,0.366902 0,0.07579 -0.04995,0.1223 -0.04823,0.04823 -0.122301,0.04823 z"
       id="guid-c50805fd-acaa-41cb-a986-1892d68a2cb9"
       style="font-size:3.52777px;font-family:'Comic Sans MS';-inkscape-font-specification:'Comic Sans MS, Normal';text-align:center;text-anchor:middle;stroke:#000000;stroke-width:0;stroke-miterlimit:0"
       inkscape:label="In"
       aria-label="In">
      <title
         id="title19">Input</title>
    </path>
  </g>
  <g
     inkscape:groupmode="layer"
     id="layer2"
     inkscape:label="components"
     style="display:none">
    <circle
       style="display:inline;fill:#0000ff"
       id="guid-d3b3f50f-dde3-4a64-ae52-29039fc3ca22"
       data-name="Out4#PJ301MPort"
       cx="12.7"
       cy="88.585907"
       r="5"
       inkscape:label="CH_4_OUT">
      <title
         id="title15">Channel 4 Out</title>
    </circle>
    <circle
       style="display:inline;fill:#0000ff"
       id="guid-db2c56fb-3459-447c-afe7-cfdd8b1d091c"
       data-name="Out3#PJ301MPort"
       cx="12.7"
       cy="71.585907"
       r="5"
       inkscape:label="CH_3_OUT">
      <title
         id="title14">Channel 3 Out</title>
    </circle>
    <circle
       style="display:inline;fill:#0000ff"
       id="guid-04545355-8e75-4d92-bb04-987e59fac65a"
       data-name="Out2#PJ301MPort"
       cx="12.7"
       cy="54.585911"
       r="5"
       inkscape:label="CH_2_OUT">
      <title
         id="title13">Channel 2 Out</title>
    </circle>
    <circle
       style="display:inline;fill:#0000ff"
       id="guid-f04a8e42-c2b6-4f11-8367-55466c0df6d4"
       data-name="Out1#PJ301MPort"
       cx="12.7"
       cy="37.585911"
       r="5"
       inkscape:label="CH_1_OUT">
      <title
         id="title12">Channel 1 Out</title>
    </circle>
    <circle
       style="display:inline;fill:#ff00ff;fill-opacity:1"
       id="guid-627104b8-4408-4868-bc45-a8737c1ea93c"
       data-name="Out0#PJ301MPort"
       cx="2.9589977"
       cy="37.640018"
       r="1.5"
       inkscape:label="LGT_1_OUT">
      <title
         id="title10">Light Out 1</title>
    </circle>
    <circle
       style="display:inline;fill:#ff00ff;fill-opacity:1"
       id="guid-4d63c350-d5db-42eb-987b-ab288677dda1"
       data-name="Out0#PJ301MPort"
       cx="2.9589977"
       cy="54.640018"
       r="1.5"
       inkscape:label="LGT_2_OUT">
      <title
         id="title11">Light Out 2</title>
    </circle>
    <circle
       style="display:inline;fill:#ff00ff;fill-opacity:1"
       id="guid-77c150f2-fb74-42c4-892a-5e43de3e1131"
       data-name="Out0#PJ301MPort"
       cx="2.9589977"
       cy="71.640015"
       r="1.5"
       inkscape:label="LGT_3_OUT">
      <title
         id="title16">Light Out 3</title>
    </circle>
    <circle
       style="display:inline;fill:#ff00ff;fill-opacity:1"
       id="guid-87017c7e-cdf5-43a0-b51e-3a05e708496a"
       data-name="Out0#PJ301MPort"
       cx="2.9589977"
       cy="88.640015"
       r="1.5"
       inkscape:label="LGT_4_OUT">
      <title
         id="title17">Light Out 4</title>
    </circle>
    <circle
       style="display:inline;fill:#00ff00;fill-opacity:1"
       id="guid-02a7bebb-177d-449f-aca3-055687f4c9a1"
       data-name="In#PJ301MPort"
       cx="12.7"
       cy="20.5"
       r="5"
       inkscape:label="POLY_IN">
      <title
         id="title18">Poly In</title>
    </circle>
  </g>
</svg>
