<?xml version="1.0" encoding="UTF-8" standalone="no"?>
<!-- Created with Inkscape (http://www.inkscape.org/) -->

<svg
   width="101.6mm"
   height="128.5mm"
   viewBox="0 0 101.6 128.5"
   version="1.1"
   id="svg1"
   inkscape:version="1.3.2 (091e20e, 2023-11-25, custom)"
   sodipodi:docname="Ticker.svg"
   xmlns:inkscape="http://www.inkscape.org/namespaces/inkscape"
   xmlns:sodipodi="http://sodipodi.sourceforge.net/DTD/sodipodi-0.dtd"
   xmlns:xlink="http://www.w3.org/1999/xlink"
   xmlns="http://www.w3.org/2000/svg"
   xmlns:svg="http://www.w3.org/2000/svg"
   xmlns:rdf="http://www.w3.org/1999/02/22-rdf-syntax-ns#"
   xmlns:cc="http://creativecommons.org/ns#"
   xmlns:dc="http://purl.org/dc/elements/1.1/">
  <title
     id="title8">STS Splitter</title>
  <sodipodi:namedview
     id="namedview1"
     pagecolor="#ffffff"
     bordercolor="#000000"
     borderopacity="0.25"
     inkscape:showpageshadow="2"
     inkscape:pageopacity="0.0"
     inkscape:pagecheckerboard="false"
     inkscape:deskcolor="#d1d1d1"
     inkscape:document-units="mm"
     inkscape:zoom="4.7405505"
     inkscape:cx="65.182303"
     inkscape:cy="93.660008"
     inkscape:window-width="1920"
     inkscape:window-height="1130"
     inkscape:window-x="-6"
     inkscape:window-y="-6"
     inkscape:window-maximized="1"
     inkscape:current-layer="layer1"
     showguides="true"
     showgrid="true">
    <inkscape:grid
       id="grid1"
       units="mm"
       originx="0"
       originy="0"
       spacingx="0.50000001"
       spacingy="0.50000001"
       empcolor="#0099e5"
       empopacity="0.30196078"
       color="#0099e5"
       opacity="0.14901961"
       empspacing="5"
       dotted="false"
       gridanglex="30"
       gridanglez="30"
       visible="true" />
  </sodipodi:namedview>
  <defs
     id="defs1">
    <inkscape:path-effect
       effect="bspline"
       id="path-effect6"
       is_visible="true"
       lpeversion="1.3"
       weight="33.333333"
       steps="2"
       helper_size="0"
       apply_no_weight="true"
       apply_with_weight="true"
       only_selected="false"
       uniform="false" />
    <inkscape:path-effect
       effect="bspline"
       id="path-effect5"
       is_visible="true"
       lpeversion="1.3"
       weight="33.333333"
       steps="2"
       helper_size="0"
       apply_no_weight="true"
       apply_with_weight="true"
       only_selected="false"
       uniform="false" />
    <inkscape:path-effect
       effect="bspline"
       id="path-effect2"
       is_visible="true"
       lpeversion="1.3"
       weight="33.333333"
       steps="2"
       helper_size="0"
       apply_no_weight="true"
       apply_with_weight="true"
       only_selected="false"
       uniform="false" />
    <inkscape:path-effect
       effect="bspline"
       id="path-effect1"
       is_visible="true"
       lpeversion="1.3"
       weight="33.333333"
       steps="2"
       helper_size="0"
       apply_no_weight="true"
       apply_with_weight="true"
       only_selected="false"
       uniform="false" />
    <linearGradient
       id="linearGradient1"
       inkscape:collect="always">
      <stop
         style="stop-color:#00ff00;stop-opacity:1;"
         offset="0"
         id="stop1" />
      <stop
         style="stop-color:#00ff00;stop-opacity:0;"
         offset="1"
         id="stop2" />
    </linearGradient>
    <linearGradient
       inkscape:collect="always"
       xlink:href="#linearGradient1"
       id="linearGradient2"
       x1="7.6999998"
       y1="20.585909"
       x2="17.700001"
       y2="20.585909"
       gradientUnits="userSpaceOnUse" />
  </defs>
  <g
     inkscape:label="Layer 1"
     inkscape:groupmode="layer"
     id="layer1"
     style="display:inline">
    <rect
       style="fill:#93b5cf;fill-opacity:1;stroke:#97c6c1;stroke-width:0.130784;stroke-linejoin:miter;stroke-miterlimit:0;stroke-dasharray:none;stroke-opacity:1;paint-order:normal"
       id="guid-133bc867-ad6a-494a-bd77-ef0c326a6449"
       width="101.46922"
       height="128.36923"
       x="0.065392196"
       y="0.065392412"
       ry="0"
       inkscape:transform-center-x="0.53972624"
       inkscape:transform-center-y="11.25627"
       inkscape:label="Panel" />
    <g
       id="guid-836c62ac-2363-4971-88ce-5a5d0a73b10b"
       style="font-size:3.175px;font-family:'Comic Sans MS';-inkscape-font-specification:'Comic Sans MS, Normal';text-align:center;text-anchor:middle;stroke:#000000;stroke-width:0;stroke-miterlimit:0"
       inkscape:label="Brand"
       aria-label="Sm@rTAZZ&#10;Studio"
       transform="translate(38.845702,-4.57625)">
      <path
         d="m 3.5270624,121.95735 q -0.00155,-0.0651 0.043408,-0.10542 0.046509,-0.0419 0.1131713,-0.0419 0.075964,0 0.1333252,0.0868 0.079065,0.11783 0.1410767,0.15968 0.1317749,0.0868 0.3829224,0.0868 0.2402954,0 0.4464843,-0.10387 0.2635498,-0.13332 0.2635498,-0.37052 0,-0.19534 -0.2216919,-0.30851 -0.1875854,-0.0977 -0.4635376,-0.10542 -0.2449462,-0.009 -0.4170288,-0.10697 -0.2201416,-0.12557 -0.2201416,-0.35967 0,-0.27595 0.3131592,-0.50384 0.2992066,-0.21549 0.6185669,-0.21549 0.1503784,0 0.3395142,0.0512 0.2511474,0.0667 0.2511474,0.17053 0,0.13643 -0.1395264,0.13643 -0.062012,0 -0.217041,-0.0326 -0.1550293,-0.0341 -0.2402954,-0.0326 -0.2418457,0.003 -0.4108276,0.11938 -0.1736328,0.11937 -0.1736328,0.2899 0,0.12868 0.2294433,0.18139 0.085266,0.0202 0.3302124,0.0372 0.3550171,0.0264 0.5550049,0.22324 0.1829346,0.17984 0.1829346,0.43874 0,0.36897 -0.3410645,0.58911 -0.2961059,0.19069 -0.6867797,0.19069 -0.2837036,0 -0.5193482,-0.10853 -0.2883545,-0.13332 -0.2930053,-0.36586 z m 4.1780395,0.51469 q -0.127124,0 -0.1488281,-0.13487 -0.027905,-0.17053 -0.055811,-0.48059 l -0.05271,-0.48059 q -0.015503,-0.10697 -0.05271,-0.20929 -0.05271,-0.13953 -0.1147217,-0.13953 -0.057361,0 -0.2139404,0.0977 -0.1488281,0.0899 -0.1953369,0.14418 -0.00155,0.14572 0.00775,0.29145 l 0.046509,0.41393 q 0.029456,0.24495 0.029456,0.40463 0,0.0682 -0.043408,0.11162 -0.041858,0.045 -0.1085205,0.045 -0.066663,0 -0.1100708,-0.045 -0.041858,-0.0434 -0.041858,-0.11162 0,-0.18759 -0.038757,-0.55346 -0.037207,-0.36742 -0.037207,-0.555 0,-0.16434 -0.046509,-0.2558 -0.1085205,0.0496 -0.2201416,0.16123 l -0.1829345,0.20464 q -0.024805,0.0372 -0.079065,0.0977 0,0.093 -0.017053,0.2744 -0.017053,0.18138 -0.017053,0.2682 0,0.0465 0.013953,0.13022 0.015503,0.0837 0.015503,0.12093 0,0.0636 -0.048059,0.10697 -0.046509,0.0434 -0.1100708,0.0434 -0.1751831,0 -0.1751831,-0.39842 0,-0.093 0.017053,-0.2775 0.017053,-0.18449 0.017053,-0.27751 0,-0.0822 -0.015503,-0.24649 -0.013953,-0.16433 -0.013953,-0.24805 0,-0.35192 0.1581299,-0.35192 0.060461,0 0.1100708,0.0527 0.05116,0.0527 0.05116,0.11472 0,0.0295 -0.00775,0.0915 -0.00775,0.062 -0.00775,0.0946 l 0.0031,0.16278 q 0.080615,-0.16588 0.2371949,-0.29921 0.1565796,-0.13487 0.2666504,-0.13487 0.2433959,0 0.3348632,0.24184 0.085266,-0.11317 0.2030884,-0.16898 0.1178223,-0.0574 0.269751,-0.0574 0.2588989,0 0.3534668,0.27905 0.018604,0.0558 0.063562,0.43564 0.043408,0.26665 0.1116211,0.88831 0.00465,0.062 -0.041858,0.10542 -0.046509,0.0434 -0.1131714,0.0434 z m 2.3068361,-0.76739 q -0.1643313,0 -0.2837039,-0.0481 -0.1193725,-0.0481 -0.1922363,-0.14263 -0.083716,0.0822 -0.1643311,0.12403 -0.079065,0.0418 -0.1550293,0.0418 -0.1720825,0 -0.3255615,-0.13952 -0.1519287,-0.14108 -0.1519287,-0.30851 0,-0.28681 0.2247925,-0.524 0.2263428,-0.2372 0.513147,-0.2372 0.065112,0 0.1085205,0.0481 0.043408,0.0481 0.043408,0.11628 0,0.093 -0.1550293,0.13797 -0.206189,0.0589 -0.2914551,0.13488 -0.1255737,0.11007 -0.1255737,0.32401 0,0.045 0.041858,0.0868 0.048059,0.0465 0.1193725,0.0434 0.1348755,-0.006 0.2495972,-0.25114 0.1038696,-0.21394 0.1844849,-0.21394 0.065112,0 0.1054199,0.048 0.040308,0.0481 0.040308,0.11783 0,0.031 -0.010852,0.093 -0.0093,0.062 -0.0093,0.093 0,0.10077 0.086816,0.12713 0.034106,0.0109 0.1472784,0.0109 0.21239,0 0.297656,-0.10387 0.07752,-0.093 0.07752,-0.30851 0,-0.37982 -0.305408,-0.62012 -0.2790531,-0.22014 -0.6666264,-0.22014 -0.4511352,0 -0.7069335,0.34107 -0.2309937,0.30385 -0.2309937,0.76429 0,0.42478 0.2713013,0.71624 0.2821533,0.30385 0.7255371,0.30385 0.1255737,0 0.2837036,-0.0481 l 0.2713016,-0.10077 q 0.06821,-0.0248 0.08837,-0.0248 0.06356,0 0.11007,0.0512 0.04651,0.0496 0.04651,0.11627 0,0.14728 -0.3302125,0.23875 -0.2495971,0.0682 -0.4666381,0.0682 -0.2185913,0 -0.4480347,-0.0853 -0.2278931,-0.0837 -0.3906738,-0.22479 -0.4805908,-0.41548 -0.4805908,-1.01079 0,-0.59531 0.3286621,-0.99529 0.3488159,-0.42788 0.9286254,-0.42788 0.5239991,0 0.8976204,0.31471 0.392224,0.33331 0.392224,0.84336 0,0.34882 -0.170533,0.5364 -0.178283,0.19379 -0.522448,0.19379 z m 2.353345,-0.50695 q -0.01085,0.19379 -0.15503,0.19379 -0.133325,0 -0.133325,-0.15348 0,-0.0295 -0.0047,-0.10852 l -0.0047,-0.13023 q -0.244946,0.0295 -0.392224,0.13798 -0.137976,0.10077 -0.229443,0.30386 l 0.0031,0.84956 q 0,0.15658 -0.153479,0.15658 -0.136426,0 -0.136426,-0.15658 v -1.08831 q 0,-0.0512 0.0031,-0.15348 0.0047,-0.10232 0.0047,-0.15348 0,-0.15657 0.136426,-0.15657 0.151929,0 0.153479,0.25734 0.297656,-0.2868 0.660425,-0.2868 0.125574,0 0.187585,0.0946 0.06201,0.0946 0.06201,0.28525 0,0.0806 -0.0015,0.10852 z m 2.215368,-0.81235 q -0.114722,0 -0.353467,-0.0186 -0.232544,-0.0171 -0.353467,-0.0155 h -0.11007 q 0.0047,0.21394 0.04186,0.69453 0.03411,0.44804 0.03411,0.69608 0,0.0543 0.01085,0.16434 0.01085,0.11007 0.01085,0.16588 0,0.10542 -0.03411,0.18138 -0.04341,0.10232 -0.134876,0.10232 -0.06201,0 -0.111621,-0.0434 -0.04961,-0.0434 -0.04961,-0.11162 0,-0.0232 0.0078,-0.0698 0.0078,-0.0465 0.0078,-0.0698 0,-0.076 -0.01085,-0.2279 -0.0093,-0.15193 -0.0093,-0.22944 0,-0.22169 -0.03566,-0.62322 -0.03721,-0.43408 -0.04186,-0.62322 l -0.141077,0.002 q -0.339514,0 -0.5333,-0.0496 -0.125574,-0.0326 -0.125574,-0.15347 0,-0.0636 0.04031,-0.11163 0.04651,-0.0543 0.119372,-0.0496 0.05426,0.003 0.248047,0.0279 0.155029,0.0186 0.251147,0.0186 0.09302,0 0.282154,-0.003 0.189136,-0.005 0.282153,-0.005 0.119373,0 0.353467,0.0171 0.235644,0.017 0.355017,0.017 0.06666,0 0.111621,0.0465 0.04496,0.045 0.04496,0.11317 0,0.0667 -0.04496,0.11317 -0.04496,0.045 -0.111621,0.045 z m 1.984375,2.00453 q -0.142627,0 -0.248047,-0.36587 -0.04031,-0.13953 -0.100769,-0.48834 -0.15813,0.0217 -0.413928,0.0775 l -0.412378,0.0853 q -0.07752,0.20309 -0.2651,0.59376 -0.04961,0.0868 -0.134876,0.0868 -0.06201,0 -0.111621,-0.045 -0.04806,-0.045 -0.04806,-0.11162 0,-0.0744 0.234094,-0.56586 -0.02636,-0.0403 -0.02636,-0.093 0,-0.12557 0.151929,-0.16123 0.176733,-0.33176 0.446484,-0.76274 0.36742,-0.58756 0.457337,-0.58756 0.122473,0 0.167431,0.17053 l 0.09767,0.5209 0.230994,1.07745 0.08837,0.24495 q 0.04496,0.12557 0.04496,0.16743 0,0.0667 -0.04806,0.11162 -0.04806,0.045 -0.110071,0.045 z m -0.547254,-1.77199 -0.443383,0.71469 q 0.187585,-0.0481 0.568957,-0.11627 z m 2.894398,-0.21394 -0.20929,0.14263 q -0.282153,0.21859 -0.638721,0.69918 l -0.544153,0.7922 q -0.03876,0.0589 -0.07596,0.10852 l 0.603064,-0.0232 q 0.395325,-0.0186 0.604614,-0.0186 0.204639,0 0.302307,0.0186 0.125574,0.0248 0.130225,0.12712 0.0031,0.076 -0.04961,0.12092 -0.04651,0.0388 -0.116272,0.0388 -0.04496,0 -0.134876,-0.006 -0.08992,-0.005 -0.134875,-0.005 -0.235645,0 -0.708484,0.0109 -0.471289,0.0124 -0.706934,0.0124 -0.178283,0 -0.178283,-0.15658 0,-0.10232 0.09612,-0.25734 l 0.165881,-0.231 0.559656,-0.77825 q 0.345715,-0.45733 0.643371,-0.71003 l -0.542602,0.031 H 17.35103 q -0.01705,0 -0.05116,0.003 -0.03256,0.002 -0.04806,0.002 -0.164331,0 -0.164331,-0.15968 0,-0.10542 0.08372,-0.13953 0.05116,-0.0217 0.168982,-0.0217 0.10697,0 0.31781,0.0233 0.21239,0.0217 0.31936,0.0217 0.119372,0 0.356567,-0.0155 0.238745,-0.0155 0.359668,-0.0155 0.398426,0 0.398426,0.15038 0,0.10232 -0.179834,0.23564 z m 2.201416,0 -0.20929,0.14263 q -0.282153,0.21859 -0.638721,0.69918 l -0.544152,0.7922 q -0.03876,0.0589 -0.07597,0.10852 l 0.603064,-0.0232 q 0.395325,-0.0186 0.604614,-0.0186 0.204639,0 0.302307,0.0186 0.125574,0.0248 0.130225,0.12712 0.0031,0.076 -0.04961,0.12092 -0.04651,0.0388 -0.116272,0.0388 -0.04496,0 -0.134876,-0.006 -0.08992,-0.005 -0.134875,-0.005 -0.235645,0 -0.708484,0.0109 -0.471289,0.0124 -0.706934,0.0124 -0.178283,0 -0.178283,-0.15658 0,-0.10232 0.09612,-0.25734 l 0.165881,-0.231 0.559656,-0.77825 q 0.345715,-0.45733 0.643371,-0.71003 l -0.542602,0.031 h -0.626318 q -0.01705,0 -0.05116,0.003 -0.03256,0.002 -0.04806,0.002 -0.164331,0 -0.164331,-0.15968 0,-0.10542 0.08372,-0.13953 0.05116,-0.0217 0.168982,-0.0217 0.10697,0 0.31781,0.0233 0.21239,0.0217 0.31936,0.0217 0.119372,0 0.356567,-0.0155 0.238745,-0.0155 0.359668,-0.0155 0.398426,0 0.398426,0.15038 0,0.10232 -0.179834,0.23564 z"
         id="path3" />
      <path
         d="m 7.6570428,125.9261 q -0.00155,-0.0651 0.043408,-0.10542 0.046509,-0.0419 0.1131714,-0.0419 0.075964,0 0.1333251,0.0868 0.079065,0.11783 0.1410767,0.15968 0.1317749,0.0868 0.3829224,0.0868 0.2402954,0 0.4464843,-0.10387 0.2635498,-0.13332 0.2635498,-0.37052 0,-0.19534 -0.2216919,-0.30851 -0.1875854,-0.0977 -0.4635376,-0.10542 -0.2449462,-0.009 -0.4170288,-0.10697 -0.2201416,-0.12557 -0.2201416,-0.35967 0,-0.27595 0.3131592,-0.50384 0.2992066,-0.21549 0.6185669,-0.21549 0.1503784,0 0.3395142,0.0512 0.2511474,0.0667 0.2511474,0.17053 0,0.13643 -0.1395263,0.13643 -0.062012,0 -0.2170411,-0.0326 -0.1550293,-0.0341 -0.2402954,-0.0326 -0.2418457,0.003 -0.4108276,0.11938 -0.1736328,0.11937 -0.1736328,0.2899 0,0.12868 0.2294434,0.18139 0.085266,0.0202 0.3302123,0.0372 0.3550171,0.0264 0.5550049,0.22324 0.1829346,0.17984 0.1829346,0.43874 0,0.36897 -0.3410645,0.58911 -0.2961059,0.19069 -0.6867797,0.19069 -0.2837036,0 -0.5193482,-0.10853 -0.2883545,-0.13332 -0.2930053,-0.36586 z m 3.2463132,-0.93483 q -0.03256,0 -0.07751,-0.003 -0.04341,-0.003 -0.07597,-0.003 -0.03566,0 -0.21084,0.0233 l 0.02946,0.91623 0.0015,0.0682 0.0016,0.0791 q 0.0062,0.33952 -0.162781,0.33952 -0.06201,0 -0.108521,-0.0403 -0.04496,-0.0403 -0.04496,-0.10077 0,-0.0589 0.0047,-0.17673 0.0047,-0.11783 0.0047,-0.17674 l -0.03101,-0.90537 q -0.113172,-0.005 -0.3441654,-0.0264 -0.137976,-0.0186 -0.137976,-0.15348 0,-0.0682 0.041858,-0.11317 0.041858,-0.045 0.1069702,-0.045 l 0.3255612,0.0263 q 0,-0.0791 -0.0078,-0.21084 -0.0062,-0.13332 -0.0062,-0.19223 0,-0.0651 0.04496,-0.10697 0.04496,-0.0434 0.110071,-0.0434 0.139526,0 0.162781,0.22789 0.0047,0.0574 0.0047,0.13798 l -0.0031,0.0899 -0.0015,0.0961 q 0.192236,-0.0248 0.220141,-0.0248 0.161231,0 0.21084,0.0155 0.09457,0.031 0.09457,0.14573 0,0.0682 -0.04341,0.11317 -0.04186,0.0434 -0.108521,0.0434 z m 1.723926,0.41548 q 0,0.11162 0.0015,0.33486 0.0016,0.22324 0.0016,0.33486 0,0.0341 0.0046,0.10387 0.0062,0.0698 0.0062,0.10387 0,0.0667 -0.04496,0.10852 -0.04496,0.0434 -0.110071,0.0434 -0.119372,0 -0.151928,-0.14728 -0.193787,0.10077 -0.446485,0.10077 -0.203088,0 -0.336413,-0.0899 -0.147278,-0.0992 -0.175183,-0.28991 -0.06046,-0.41083 -0.06046,-0.73174 0,-0.21239 0.04651,-0.48369 0.0217,-0.13487 0.147278,-0.13487 0.06666,0 0.111621,0.0434 0.04496,0.0419 0.04496,0.10852 0,0.0713 -0.02325,0.2279 -0.0217,0.15658 -0.0217,0.23874 0,0.2589 0.01705,0.44339 0.01705,0.18448 0.05116,0.2961 0.05116,0.0279 0.100769,0.0434 0.04961,0.014 0.09767,0.014 0.20774,0 0.438733,-0.0667 l -0.0015,-0.31471 -0.0031,-0.30076 q 0,-0.33486 0.02946,-0.58136 0.01705,-0.14262 0.150378,-0.14262 0.06666,0 0.111621,0.0434 0.04496,0.0434 0.04186,0.10852 z m 1.813843,-0.46354 q -0.0186,0.22789 -0.0186,0.45579 0,0.51624 0.04806,0.77979 0.0031,0.0217 0.0031,0.0357 0,0.062 -0.04341,0.10232 -0.04341,0.0403 -0.100769,0.0403 -0.09612,0 -0.141077,-0.13953 -0.111621,0.0822 -0.232544,0.12402 -0.119372,0.0419 -0.249597,0.0419 -0.320911,0 -0.531751,-0.21394 -0.217041,-0.21859 -0.217041,-0.5612 0,-0.41393 0.218592,-0.66353 0.220141,-0.2496 0.570508,-0.2496 0.179834,0 0.277502,0.0558 l 0.145728,0.10697 q 0.0217,-0.65267 0.05116,-0.87901 0.02015,-0.13798 0.141077,-0.13798 0.141076,0 0.141076,0.15038 0,0.21549 -0.06201,0.95188 z m -0.68833,0.0403 q -0.26045,0 -0.390674,0.15503 -0.130225,0.15348 -0.130225,0.46353 0,0.19999 0.141077,0.34417 0.142627,0.14418 0.333313,0.14418 0.130225,0 0.220142,-0.0481 0.05271,-0.0279 0.172082,-0.12868 0.02325,-0.0202 0.04496,-0.0481 l -0.0047,-0.2682 0.0015,-0.17983 0.0031,-0.18294 q -0.05891,-0.12557 -0.15658,-0.18758 -0.09767,-0.0636 -0.234094,-0.0636 z m 1.421619,-0.63407 q -0.07442,0 -0.128675,-0.0527 -0.05426,-0.0527 -0.05426,-0.12713 0,-0.0744 0.05426,-0.12712 0.05426,-0.0527 0.128675,-0.0527 0.07441,0 0.127124,0.0527 0.05426,0.0527 0.05426,0.12712 0,0.0744 -0.05426,0.12713 -0.05271,0.0527 -0.127124,0.0527 z m 0.06976,1.25884 q 0,0.093 0.0047,0.27905 0.0062,0.18448 0.0062,0.2775 0,0.0682 -0.04186,0.11162 -0.04186,0.0434 -0.110071,0.0434 -0.06666,0 -0.110071,-0.0434 -0.04186,-0.0434 -0.04186,-0.11162 0,-0.093 -0.0062,-0.2775 -0.0047,-0.18604 -0.0047,-0.27905 0,-0.14573 0.0155,-0.36277 0.0155,-0.21859 0.0155,-0.36432 0,-0.0698 0.04186,-0.11317 0.04341,-0.0434 0.110071,-0.0434 0.06666,0 0.10852,0.0434 0.04341,0.0434 0.04341,0.11317 0,0.14573 -0.0155,0.36432 -0.0155,0.21704 -0.0155,0.36277 z m 1.105358,0.7953 q -0.260449,0 -0.448034,-0.19224 -0.20929,-0.21394 -0.220142,-0.57516 -0.0093,-0.35037 0.176733,-0.61702 0.217041,-0.31471 0.604615,-0.31471 0.310058,0 0.469738,0.28371 0.127124,0.22944 0.122474,0.5519 -0.0047,0.34417 -0.179834,0.58756 -0.198438,0.27596 -0.52555,0.27596 z m 0.09302,-1.38442 q -0.227893,-0.002 -0.355017,0.21705 -0.100769,0.17518 -0.100769,0.39997 0,0.22479 0.122473,0.35037 0.102319,0.10387 0.240295,0.10387 0.161231,0 0.277503,-0.11783 0.131775,-0.13022 0.139526,-0.35191 0.0217,-0.59997 -0.324011,-0.60152 z"
         id="path4" />
      <desc
         id="desc6">Brand</desc>
      <title
         id="title6">Brand</title>
    </g>
    <path
       d="m 48.222155,7.0459073 q -0.134358,0 -0.418578,-0.018948 -0.273884,-0.018948 -0.418578,-0.017225 0.0069,0.19637 0.04651,0.6993528 0.03617,0.4444164 0.03617,0.702798 0,0.058566 0.01206,0.1739769 0.01206,0.1154105 0.01206,0.173977 0,0.1291908 -0.05512,0.2325434 -0.07062,0.1326359 -0.201537,0.1326359 -0.09474,0 -0.167087,-0.060289 -0.08096,-0.067179 -0.08096,-0.1688093 0,-0.024116 0.0086,-0.072347 0.0086,-0.049954 0.0086,-0.075792 0,-0.079237 -0.01206,-0.2394336 -0.01033,-0.1601966 -0.01033,-0.2411561 0,-0.2308209 -0.03617,-0.6252835 -0.04134,-0.453029 -0.04823,-0.6252834 h -0.08957 q -0.384127,0 -0.609781,-0.055121 -0.191202,-0.046509 -0.191202,-0.2256533 0,-0.08785 0.06201,-0.158474 0.07235,-0.084405 0.18948,-0.075792 0.06029,0.00345 0.273885,0.029283 0.170532,0.018948 0.275607,0.018948 0.105075,0 0.313503,-0.00345 0.21015,-0.00345 0.315225,-0.00345 0.130914,0 0.39274,0.018948 0.261827,0.017225 0.39274,0.017225 0.103353,0 0.172255,0.067179 0.07062,0.067179 0.07062,0.1653642 0,0.098185 -0.07062,0.1670868 -0.0689,0.067179 -0.172255,0.067179 z m 0.790648,-0.00517 q -0.110243,0 -0.191202,-0.074069 -0.08096,-0.074069 -0.08096,-0.1808671 0,-0.1067978 0.08096,-0.1808671 0.08096,-0.074069 0.191202,-0.074069 0.110243,0 0.18948,0.074069 0.08096,0.074069 0.08096,0.1808671 0,0.1067977 -0.08096,0.1808671 -0.07924,0.074069 -0.18948,0.074069 z m 0.146416,1.2626247 q 0,0.098185 0.0052,0.3152256 0.0069,0.2170405 0.0069,0.3152255 0,0.099908 -0.06718,0.1653642 -0.06718,0.063734 -0.170532,0.063734 -0.103353,0 -0.170532,-0.063734 -0.06718,-0.065457 -0.06718,-0.1653642 0,-0.098185 -0.0069,-0.3152255 -0.0052,-0.2170406 -0.0052,-0.3152256 0,-0.1533064 0.01723,-0.3841273 0.01723,-0.2308209 0.01723,-0.3841273 0,-0.099908 0.06718,-0.1636417 0.06718,-0.065457 0.170532,-0.065457 0.103353,0 0.170532,0.065457 0.06718,0.063734 0.06718,0.1636417 0,0.1533064 -0.01722,0.3841273 -0.01723,0.2308209 -0.01723,0.3841273 z m 1.241955,0.9163934 q -0.37896,0 -0.635619,-0.215318 -0.27044,-0.2273758 -0.27044,-0.5994453 0,-0.3427862 0.242879,-0.7079656 0.275607,-0.4168556 0.640786,-0.4168556 0.179145,0 0.418579,0.096462 0.29111,0.1188555 0.29111,0.2738844 0,0.084405 -0.05857,0.1498614 -0.06201,0.070624 -0.160197,0.070624 -0.07407,0 -0.179144,-0.079237 -0.103353,-0.080959 -0.311781,-0.080959 -0.132635,0 -0.287664,0.2601041 -0.148139,0.2514914 -0.148139,0.4340811 0,0.1808671 0.130913,0.2842198 0.124023,0.098185 0.327284,0.098185 0.11541,0 0.282497,-0.08785 0.167086,-0.08785 0.211873,-0.08785 0.09302,0 0.158474,0.067179 0.06718,0.067179 0.06718,0.1533064 0,0.1343584 -0.292833,0.2687169 -0.261826,0.1188555 -0.42719,0.1188555 z m 2.468405,-0.037896 q -0.136081,0 -0.206705,-0.1309133 Q 52.578469,8.894197 52.40966,8.6806015 52.147833,8.3481505 52.13233,8.32748 q -0.137803,0.1016301 -0.227375,0.155029 -0.01723,0.2394336 -0.01723,0.4581967 0,0.099907 -0.06718,0.1653642 -0.06718,0.065457 -0.170532,0.065457 -0.242879,0 -0.242879,-0.2893874 0,-0.136081 0.01895,-0.4065204 0.02067,-0.2721619 0.02067,-0.4082429 0,-0.2497689 0.0069,-0.5701621 0.0086,-0.3221157 0.0086,-0.5684395 0,-0.074069 -0.0086,-0.1739769 -0.0069,-0.1016301 -0.0069,-0.1756995 0,-0.099908 0.06718,-0.1636417 0.06718,-0.065457 0.170532,-0.065457 0.103353,0 0.170532,0.065457 0.06718,0.063734 0.06718,0.1636417 0,0.075792 0.0086,0.1791446 0.0086,0.1033526 0.0086,0.1791445 0,0.2049828 -0.01033,0.4857574 -0.01034,0.2687169 -0.0086,0.4788673 0.234266,-0.1808672 0.713134,-0.6580118 0.07579,-0.075792 0.172254,-0.075792 0.09646,0 0.170532,0.070624 0.07407,0.070624 0.07407,0.1636417 0,0.079237 -0.06718,0.1533064 -0.20326,0.2273758 -0.484035,0.4754222 l 0.358289,0.4616417 q 0.260104,0.3462314 0.260104,0.4616418 0,0.09474 -0.07579,0.1601966 -0.07579,0.067179 -0.172255,0.067179 z m 1.324637,0.00861 q -0.411688,0 -0.673515,-0.19637 -0.289388,-0.2170405 -0.289388,-0.6115031 0,-0.4358036 0.229099,-0.7372488 0.254936,-0.3341735 0.687295,-0.3341735 0.299723,0 0.497815,0.096462 0.260104,0.1274683 0.260104,0.3961852 0,0.1894798 -0.211873,0.335896 -0.09646,0.067179 -0.387572,0.19637 l -0.580497,0.2566591 q 0.08268,0.089572 0.199815,0.1343584 0.117133,0.044786 0.268717,0.044786 0.23082,0 0.391017,-0.09474 0.142971,-0.084405 0.229098,-0.084405 0.179145,0 0.179145,0.1739769 0,0.19637 -0.287665,0.3203932 -0.241156,0.1033526 -0.511595,0.1033526 z m -0.04651,-1.4624398 q -0.160197,0 -0.273885,0.1067977 -0.113688,0.1067978 -0.182589,0.3203932 0.194647,-0.084405 0.387572,-0.1670867 0.232544,-0.1050752 0.370347,-0.1946475 -0.11541,-0.065457 -0.301445,-0.065457 z m 2.594151,0.1412486 q -0.0155,0.2635493 -0.239434,0.2635493 -0.21704,0 -0.21704,-0.2239308 l -0.0086,-0.1739769 q -0.387573,0.062012 -0.554659,0.3979077 l 0.0017,0.8664396 q 0,0.098185 -0.06718,0.1619191 -0.06718,0.065457 -0.170532,0.065457 -0.106798,0 -0.165364,-0.068902 -0.05512,-0.062012 -0.05512,-0.158474 V 7.8710059 q 0,-0.053399 0.0034,-0.1584741 0.0034,-0.1067977 0.0034,-0.1601966 0,-0.096462 0.05684,-0.1601966 0.05857,-0.065457 0.165364,-0.065457 0.191202,0 0.227376,0.19637 0.30489,-0.2273758 0.676959,-0.2273758 0.344509,0 0.344509,0.4581967 0,0.08785 -0.0017,0.1154104 z"
       id="guid-6469b80e-6520-4632-87ee-c419dd76fb11"
       style="font-weight:bold;font-size:3.52777px;font-family:'Comic Sans MS';-inkscape-font-specification:'Comic Sans MS, Bold';display:inline;stroke-width:0.264583"
       aria-label="Ticker"
       inkscape:label="Module">
      <title
         id="title3">Module</title>
    </path>
    <rect
       style="display:inline;fill:#c0c0c0;fill-opacity:1;stroke:#505050;stroke-width:0.23816;stroke-miterlimit:0;stroke-dasharray:none;stroke-opacity:1;stroke-linejoin:round"
       id="guid-3f2a87df-1f08-4d83-afde-2a631047b44d"
       width="93.220634"
       height="13.288061"
       x="3.9935651"
       y="10.494392"
       ry="0.61247575"
       inkscape:label="Master Clock Block">
      <desc
         id="desc9">Output Block</desc>
      <title
         id="title9">Master Clock Block</title>
    </rect>
    <path
       style="font-size:3.52777px;font-family:'Comic Sans MS';-inkscape-font-specification:'Comic Sans MS, Normal';stroke-width:0.264583"
       d="m 39.807805,18.085273 q -0.387572,0.151584 -0.990462,0.151584 -0.07407,0 -0.141249,-0.07062 -0.06546,-0.0689 -0.06546,-0.142972 v -0.50126 q 0,-0.246324 0.03101,-0.702798 0.03445,-0.492647 0.0379,-0.713133 -0.0017,-0.158474 0.01895,-0.471977 0.01206,-0.08613 0.05684,-0.113688 0.234266,-0.07235 0.532266,-0.07235 0.303168,0 0.58222,0.206706 0.322116,0.237711 0.322116,0.587387 0,0.442694 -0.344509,0.69763 0.258382,0.110243 0.38585,0.244602 0.129191,0.134358 0.129191,0.292832 0,0.208428 -0.225654,0.403075 -0.156751,0.137804 -0.329006,0.204983 z m -0.520208,-2.285816 q -0.187757,0 -0.263549,0.01206 l -0.0034,0.301445 -0.03445,0.666625 q 0.244601,0.02067 0.261827,0.01895 0.260104,-0.02067 0.425468,-0.161919 0.177422,-0.153307 0.177422,-0.394463 0,-0.163642 -0.180867,-0.303168 -0.180867,-0.139526 -0.382405,-0.139526 z m 0.192925,1.379758 -0.18259,-0.02928 q -0.02239,0 -0.0689,0.0034 -0.04479,0.0017 -0.0689,0.0017 -0.09302,0 -0.198093,-0.0155 -0.01033,0.217041 -0.01033,0.387573 v 0.356566 q 0.451307,-0.0155 0.735526,-0.127468 0.120578,-0.04651 0.230821,-0.144694 0.105075,-0.08957 0.105075,-0.134358 0,-0.08096 -0.220485,-0.18259 -0.165364,-0.07751 -0.322116,-0.11541 z m 1.736324,-0.03617 q -0.04823,0 -0.21015,-0.02239 -0.01378,0.260105 -0.01378,0.911226 0,0.0689 -0.04479,0.117133 -0.04479,0.04651 -0.111966,0.04651 -0.0689,0 -0.113688,-0.04651 -0.04479,-0.04823 -0.04479,-0.117133 v -0.506428 q 0,-0.253214 0.03101,-0.713133 0.03445,-0.497815 0.0379,-0.713133 v -0.237711 q 0,-0.170532 0.02067,-0.248047 0.03962,-0.151583 0.16881,-0.130913 0.05512,-0.01722 0.156751,-0.02584 0.10163,-0.0086 0.249769,-0.0086 0.315226,0 0.590833,0.215318 0.303167,0.237711 0.303167,0.571885 0,0.427191 -0.323838,0.680405 -0.289387,0.227375 -0.695908,0.227375 z m 0.08613,-1.367699 q -0.07579,0 -0.136081,0.0034 -0.05857,0.0034 -0.09991,0.01034 l -0.0034,0.316948 -0.03617,0.685573 0.189479,0.02239 q 0.289388,0 0.48748,-0.146417 0.217041,-0.160196 0.217041,-0.432358 0,-0.192925 -0.206705,-0.332451 -0.191203,-0.127468 -0.411688,-0.127468 z m 3.837828,2.521804 q -0.09302,0 -0.153307,-0.09646 -0.05168,-0.08268 -0.09302,-0.275607 l -0.06201,-0.296277 q -0.07062,-0.275607 -0.22393,-1.216116 l -0.344509,1.038694 -0.10163,0.327283 q -0.06201,0.194648 -0.129191,0.318671 -0.07235,0.130913 -0.194648,0.130913 -0.10163,0 -0.160196,-0.110243 -0.0379,-0.07235 -0.0689,-0.184312 l -0.04995,-0.191202 q -0.173977,-0.608058 -0.306613,-1.302243 l -0.06201,0.308335 -0.222208,0.909503 q -0.01378,0.160197 -0.08613,0.4737 -0.05168,0.134358 -0.170531,0.134358 -0.08441,0 -0.134359,-0.06029 -0.04306,-0.05168 -0.04306,-0.127468 0,-0.287665 0.118855,-0.706243 l 0.18948,-0.694185 0.09991,-0.542602 q 0.07579,-0.380682 0.160197,-0.497815 0.0689,-0.09991 0.170532,-0.09991 0.111965,0 0.167087,0.127468 0.06718,0.153306 0.144693,0.625283 0.0913,0.566717 0.28422,1.226452 0.254937,-0.66318 0.440971,-1.381481 l 0.05168,-0.251491 q 0.03101,-0.151584 0.08096,-0.244601 0.06718,-0.127469 0.184312,-0.127469 0.148139,0 0.225654,0.285943 0.02756,0.09819 0.06718,0.40652 0.10163,0.77859 0.253214,1.329804 l 0.08441,0.296278 q 0.06546,0.237711 0.06546,0.292832 0,0.07407 -0.05684,0.124023 -0.05512,0.04995 -0.125745,0.04995 z"
       id="guid-da897450-d44c-49b3-b02c-31267b47e715"
       inkscape:label="BPM"
       aria-label="BPM">
      <title
         id="title1">BPM</title>
    </path>
    <!-- aria-label="			 STS Multiplier		" -->
  </g>
  <g
     inkscape:groupmode="layer"
     id="layer2"
     inkscape:label="components"
     style="display:none">
    <circle
       style="display:inline;fill:#00ff00;fill-opacity:1"
       id="guid-0c2e09f3-1fe9-4eed-b0c5-5d576dbccec5"
       data-name="In#PJ301MPort"
       cx="10.332064"
       cy="105.70638"
       r="5"
       inkscape:label="RUN_IN">
      <title
         id="title18">Run Trigger</title>
    </circle>
    <circle
       style="display:inline;fill:#0000ff"
       id="guid-069528e1-2a01-4682-9539-63c87038465d"
       data-name="Out1#PJ301MPort"
       cx="45.421223"
       cy="106.09956"
       r="5"
       inkscape:label="GATE_OUT">
      <title
         id="title12-9-6-7-6">Channel 1 Out</title>
    </circle>
    <circle
       style="display:inline;fill:#ff0000;fill-opacity:1;stroke:#ff0000;stroke-width:0;stroke-miterlimit:0;stroke-opacity:1"
       id="guid-0b8c06c9-0cee-4fb4-9205-9088f2582c7e"
       cx="30.373823"
       cy="16.835897"
       inkscape:label="BPM"
       r="2.5">
      <title
         id="title12">Beats Per Minute</title>
    </circle>
    <rect
       style="display:inline;fill:#ffff00;fill-opacity:1;stroke-width:0.289836"
       id="guid-4bf60ed1-e25e-4d60-a019-df1d5c7e2a93"
       width="15"
       height="8"
       x="7.0324116"
       y="13.060193"
       inkscape:label="BPM_DISPLAY">
      <title
         id="title2">BPM Display</title>
    </rect>
  </g>
  <metadata
     id="metadata1">
    <rdf:RDF>
      <cc:Work
         rdf:about="">
        <dc:title>STS Splitter</dc:title>
      </cc:Work>
    </rdf:RDF>
  </metadata>
</svg>
