<?xml version="1.0" encoding="UTF-8" standalone="no"?>
<!-- Created with Inkscape (http://www.inkscape.org/) -->

<svg
   width="25.4mm"
   height="128.5mm"
   viewBox="0 0 25.4 128.5"
   version="1.1"
   id="svg1"
   inkscape:version="1.3.2 (091e20e, 2023-11-25, custom)"
   sodipodi:docname="Triangle-VCO.svg"
   xmlns:inkscape="http://www.inkscape.org/namespaces/inkscape"
   xmlns:sodipodi="http://sodipodi.sourceforge.net/DTD/sodipodi-0.dtd"
   xmlns="http://www.w3.org/2000/svg"
   xmlns:svg="http://www.w3.org/2000/svg"
   xmlns:rdf="http://www.w3.org/1999/02/22-rdf-syntax-ns#"
   xmlns:cc="http://creativecommons.org/ns#"
   xmlns:dc="http://purl.org/dc/elements/1.1/">
  <title
     id="title8">STS Template Medium</title>
  <sodipodi:namedview
     id="namedview1"
     pagecolor="#ffffff"
     bordercolor="#000000"
     borderopacity="0.25"
     inkscape:showpageshadow="2"
     inkscape:pageopacity="0.0"
     inkscape:pagecheckerboard="false"
     inkscape:deskcolor="#d1d1d1"
     inkscape:document-units="mm"
     inkscape:zoom="2.0274078"
     inkscape:cx="70.286797"
     inkscape:cy="184.96525"
     inkscape:window-width="1920"
     inkscape:window-height="1010"
     inkscape:window-x="-6"
     inkscape:window-y="-6"
     inkscape:window-maximized="1"
     inkscape:current-layer="layer1" />
  <defs
     id="defs1">
    <rect
       x="-188.91118"
       y="163.26267"
       width="59.188883"
       height="31.567404"
       id="rect1" />
    <rect
       x="-188.91118"
       y="163.26266"
       width="59.188885"
       height="31.567404"
       id="rect1-7" />
    <rect
       x="-188.91118"
       y="163.26266"
       width="59.188885"
       height="31.567404"
       id="rect1-7-3" />
    <rect
       x="-188.91118"
       y="163.26266"
       width="59.188885"
       height="31.567404"
       id="rect1-7-3-9" />
    <rect
       x="-188.91118"
       y="163.26266"
       width="59.188885"
       height="31.567404"
       id="rect1-9" />
    <rect
       x="-188.91118"
       y="163.26266"
       width="59.188885"
       height="31.567404"
       id="rect1-7-3-9-5" />
    <rect
       x="-188.91118"
       y="163.26266"
       width="59.188885"
       height="31.567404"
       id="rect1-7-3-9-7" />
    <rect
       x="-188.91118"
       y="163.26266"
       width="59.188885"
       height="31.567404"
       id="rect1-7-3-97" />
    <rect
       x="-188.91118"
       y="163.26266"
       width="59.188885"
       height="31.567404"
       id="rect1-7-3-97-3" />
    <rect
       x="-188.91118"
       y="163.26266"
       width="59.188885"
       height="31.567404"
       id="rect1-7-3-97-3-8" />
    <rect
       x="-188.91118"
       y="163.26266"
       width="59.188885"
       height="31.567404"
       id="rect1-7-3-97-3-8-3" />
    <rect
       x="-188.91118"
       y="163.26266"
       width="59.188885"
       height="31.567404"
       id="rect1-7-3-97-3-8-3-9" />
    <rect
       x="-188.91118"
       y="163.26266"
       width="59.188885"
       height="31.567404"
       id="rect1-7-3-97-3-8-3-9-8" />
    <rect
       x="-188.91118"
       y="163.26266"
       width="59.188885"
       height="31.567404"
       id="rect1-7-3-97-3-8-3-9-8-4" />
  </defs>
  <g
     inkscape:label="Layer 1"
     inkscape:groupmode="layer"
     id="layer1"
     style="display:inline">
    <rect
       style="fill:#93b5cf;fill-opacity:1;stroke:#93b5cf;stroke-width:0.065;stroke-linejoin:miter;stroke-miterlimit:0;stroke-dasharray:none;stroke-opacity:1;paint-order:normal"
       id="guid-133bc867-ad6a-494a-bd77-ef0c326a6449"
       width="25.334633"
       height="128.43465"
       x="0.032499999"
       y="0.032683566"
       ry="0"
       inkscape:transform-center-x="0.13475906"
       inkscape:transform-center-y="11.262005"
       inkscape:label="Panel">
      <title
         id="title27">Panel</title>
    </rect>
    <rect
       style="font-size:3.175px;font-family:'Comic Sans MS';-inkscape-font-specification:'Comic Sans MS, Normal';text-align:center;text-anchor:middle;display:inline;fill:#c0c0c0;fill-opacity:1;stroke:#505050;stroke-width:0.167486;stroke-miterlimit:0;stroke-dasharray:none;stroke-opacity:1"
       id="guid-5b20c061-18d6-436b-9422-6e5ea1c08229"
       width="9.8325138"
       height="9.8325138"
       x="2.0837431"
       y="9.0837431"
       ry="2.3805037"
       inkscape:label="Input Block">
      <desc
         id="desc7">Input Block</desc>
      <title
         id="title7">Input Block</title>
    </rect>
    <rect
       style="font-size:3.175px;font-family:'Comic Sans MS';-inkscape-font-specification:'Comic Sans MS, Normal';text-align:center;text-anchor:middle;display:inline;fill:#a0a0a0;fill-opacity:1;stroke:#505050;stroke-width:0.167486;stroke-miterlimit:0;stroke-dasharray:none;stroke-opacity:1"
       id="guid-17a95c6b-1a97-4263-9d0a-42aa97d28769"
       width="9.8325138"
       height="9.8325138"
       x="13.483743"
       y="9.0837431"
       ry="2.3805037"
       inkscape:label="Output Block">
      <desc
         id="desc7-0">Input Block</desc>
      <title
         id="title7-9">Output Block</title>
    </rect>
    <g
       id="guid-836c62ac-2363-4971-88ce-5a5d0a73b10b"
       style="font-size:3.175px;font-family:'Comic Sans MS';-inkscape-font-specification:'Comic Sans MS, Normal';text-align:center;text-anchor:middle;stroke:#000000;stroke-width:0;stroke-miterlimit:0"
       inkscape:label="Brand"
       aria-label="Sm@rTAZZ&#10;Studio"
       transform="matrix(0.99997702,0,0,1,8.1047871e-5,-3.81625)">
      <path
         d="m 3.5270624,121.95735 q -0.00155,-0.0651 0.043408,-0.10542 0.046509,-0.0419 0.1131713,-0.0419 0.075964,0 0.1333252,0.0868 0.079065,0.11783 0.1410767,0.15968 0.1317749,0.0868 0.3829224,0.0868 0.2402954,0 0.4464843,-0.10387 0.2635498,-0.13332 0.2635498,-0.37052 0,-0.19534 -0.2216919,-0.30851 -0.1875854,-0.0977 -0.4635376,-0.10542 -0.2449462,-0.009 -0.4170288,-0.10697 -0.2201416,-0.12557 -0.2201416,-0.35967 0,-0.27595 0.3131592,-0.50384 0.2992066,-0.21549 0.6185669,-0.21549 0.1503784,0 0.3395142,0.0512 0.2511474,0.0667 0.2511474,0.17053 0,0.13643 -0.1395264,0.13643 -0.062012,0 -0.217041,-0.0326 -0.1550293,-0.0341 -0.2402954,-0.0326 -0.2418457,0.003 -0.4108276,0.11938 -0.1736328,0.11937 -0.1736328,0.2899 0,0.12868 0.2294433,0.18139 0.085266,0.0202 0.3302124,0.0372 0.3550171,0.0264 0.5550049,0.22324 0.1829346,0.17984 0.1829346,0.43874 0,0.36897 -0.3410645,0.58911 -0.2961059,0.19069 -0.6867797,0.19069 -0.2837036,0 -0.5193482,-0.10853 -0.2883545,-0.13332 -0.2930053,-0.36586 z m 4.1780395,0.51469 q -0.127124,0 -0.1488281,-0.13487 -0.027905,-0.17053 -0.055811,-0.48059 l -0.05271,-0.48059 q -0.015503,-0.10697 -0.05271,-0.20929 -0.05271,-0.13953 -0.1147217,-0.13953 -0.057361,0 -0.2139404,0.0977 -0.1488281,0.0899 -0.1953369,0.14418 -0.00155,0.14572 0.00775,0.29145 l 0.046509,0.41393 q 0.029456,0.24495 0.029456,0.40463 0,0.0682 -0.043408,0.11162 -0.041858,0.045 -0.1085205,0.045 -0.066663,0 -0.1100708,-0.045 -0.041858,-0.0434 -0.041858,-0.11162 0,-0.18759 -0.038757,-0.55346 -0.037207,-0.36742 -0.037207,-0.555 0,-0.16434 -0.046509,-0.2558 -0.1085205,0.0496 -0.2201416,0.16123 l -0.1829345,0.20464 q -0.024805,0.0372 -0.079065,0.0977 0,0.093 -0.017053,0.2744 -0.017053,0.18138 -0.017053,0.2682 0,0.0465 0.013953,0.13022 0.015503,0.0837 0.015503,0.12093 0,0.0636 -0.048059,0.10697 -0.046509,0.0434 -0.1100708,0.0434 -0.1751831,0 -0.1751831,-0.39842 0,-0.093 0.017053,-0.2775 0.017053,-0.18449 0.017053,-0.27751 0,-0.0822 -0.015503,-0.24649 -0.013953,-0.16433 -0.013953,-0.24805 0,-0.35192 0.1581299,-0.35192 0.060461,0 0.1100708,0.0527 0.05116,0.0527 0.05116,0.11472 0,0.0295 -0.00775,0.0915 -0.00775,0.062 -0.00775,0.0946 l 0.0031,0.16278 q 0.080615,-0.16588 0.2371949,-0.29921 0.1565796,-0.13487 0.2666504,-0.13487 0.2433959,0 0.3348632,0.24184 0.085266,-0.11317 0.2030884,-0.16898 0.1178223,-0.0574 0.269751,-0.0574 0.2588989,0 0.3534668,0.27905 0.018604,0.0558 0.063562,0.43564 0.043408,0.26665 0.1116211,0.88831 0.00465,0.062 -0.041858,0.10542 -0.046509,0.0434 -0.1131714,0.0434 z m 2.3068361,-0.76739 q -0.1643313,0 -0.2837039,-0.0481 -0.1193725,-0.0481 -0.1922363,-0.14263 -0.083716,0.0822 -0.1643311,0.12403 -0.079065,0.0418 -0.1550293,0.0418 -0.1720825,0 -0.3255615,-0.13952 -0.1519287,-0.14108 -0.1519287,-0.30851 0,-0.28681 0.2247925,-0.524 0.2263428,-0.2372 0.513147,-0.2372 0.065112,0 0.1085205,0.0481 0.043408,0.0481 0.043408,0.11628 0,0.093 -0.1550293,0.13797 -0.206189,0.0589 -0.2914551,0.13488 -0.1255737,0.11007 -0.1255737,0.32401 0,0.045 0.041858,0.0868 0.048059,0.0465 0.1193725,0.0434 0.1348755,-0.006 0.2495972,-0.25114 0.1038696,-0.21394 0.1844849,-0.21394 0.065112,0 0.1054199,0.048 0.040308,0.0481 0.040308,0.11783 0,0.031 -0.010852,0.093 -0.0093,0.062 -0.0093,0.093 0,0.10077 0.086816,0.12713 0.034106,0.0109 0.1472784,0.0109 0.21239,0 0.297656,-0.10387 0.07752,-0.093 0.07752,-0.30851 0,-0.37982 -0.305408,-0.62012 -0.2790531,-0.22014 -0.6666264,-0.22014 -0.4511352,0 -0.7069335,0.34107 -0.2309937,0.30385 -0.2309937,0.76429 0,0.42478 0.2713013,0.71624 0.2821533,0.30385 0.7255371,0.30385 0.1255737,0 0.2837036,-0.0481 l 0.2713016,-0.10077 q 0.06821,-0.0248 0.08837,-0.0248 0.06356,0 0.11007,0.0512 0.04651,0.0496 0.04651,0.11627 0,0.14728 -0.3302125,0.23875 -0.2495971,0.0682 -0.4666381,0.0682 -0.2185913,0 -0.4480347,-0.0853 -0.2278931,-0.0837 -0.3906738,-0.22479 -0.4805908,-0.41548 -0.4805908,-1.01079 0,-0.59531 0.3286621,-0.99529 0.3488159,-0.42788 0.9286254,-0.42788 0.5239991,0 0.8976204,0.31471 0.392224,0.33331 0.392224,0.84336 0,0.34882 -0.170533,0.5364 -0.178283,0.19379 -0.522448,0.19379 z m 2.353345,-0.50695 q -0.01085,0.19379 -0.15503,0.19379 -0.133325,0 -0.133325,-0.15348 0,-0.0295 -0.0047,-0.10852 l -0.0047,-0.13023 q -0.244946,0.0295 -0.392224,0.13798 -0.137976,0.10077 -0.229443,0.30386 l 0.0031,0.84956 q 0,0.15658 -0.153479,0.15658 -0.136426,0 -0.136426,-0.15658 v -1.08831 q 0,-0.0512 0.0031,-0.15348 0.0047,-0.10232 0.0047,-0.15348 0,-0.15657 0.136426,-0.15657 0.151929,0 0.153479,0.25734 0.297656,-0.2868 0.660425,-0.2868 0.125574,0 0.187585,0.0946 0.06201,0.0946 0.06201,0.28525 0,0.0806 -0.0015,0.10852 z m 2.215368,-0.81235 q -0.114722,0 -0.353467,-0.0186 -0.232544,-0.0171 -0.353467,-0.0155 h -0.11007 q 0.0047,0.21394 0.04186,0.69453 0.03411,0.44804 0.03411,0.69608 0,0.0543 0.01085,0.16434 0.01085,0.11007 0.01085,0.16588 0,0.10542 -0.03411,0.18138 -0.04341,0.10232 -0.134876,0.10232 -0.06201,0 -0.111621,-0.0434 -0.04961,-0.0434 -0.04961,-0.11162 0,-0.0232 0.0078,-0.0698 0.0078,-0.0465 0.0078,-0.0698 0,-0.076 -0.01085,-0.2279 -0.0093,-0.15193 -0.0093,-0.22944 0,-0.22169 -0.03566,-0.62322 -0.03721,-0.43408 -0.04186,-0.62322 l -0.141077,0.002 q -0.339514,0 -0.5333,-0.0496 -0.125574,-0.0326 -0.125574,-0.15347 0,-0.0636 0.04031,-0.11163 0.04651,-0.0543 0.119372,-0.0496 0.05426,0.003 0.248047,0.0279 0.155029,0.0186 0.251147,0.0186 0.09302,0 0.282154,-0.003 0.189136,-0.005 0.282153,-0.005 0.119373,0 0.353467,0.0171 0.235644,0.017 0.355017,0.017 0.06666,0 0.111621,0.0465 0.04496,0.045 0.04496,0.11317 0,0.0667 -0.04496,0.11317 -0.04496,0.045 -0.111621,0.045 z m 1.984375,2.00453 q -0.142627,0 -0.248047,-0.36587 -0.04031,-0.13953 -0.100769,-0.48834 -0.15813,0.0217 -0.413928,0.0775 l -0.412378,0.0853 q -0.07752,0.20309 -0.2651,0.59376 -0.04961,0.0868 -0.134876,0.0868 -0.06201,0 -0.111621,-0.045 -0.04806,-0.045 -0.04806,-0.11162 0,-0.0744 0.234094,-0.56586 -0.02636,-0.0403 -0.02636,-0.093 0,-0.12557 0.151929,-0.16123 0.176733,-0.33176 0.446484,-0.76274 0.36742,-0.58756 0.457337,-0.58756 0.122473,0 0.167431,0.17053 l 0.09767,0.5209 0.230994,1.07745 0.08837,0.24495 q 0.04496,0.12557 0.04496,0.16743 0,0.0667 -0.04806,0.11162 -0.04806,0.045 -0.110071,0.045 z m -0.547254,-1.77199 -0.443383,0.71469 q 0.187585,-0.0481 0.568957,-0.11627 z m 2.894398,-0.21394 -0.20929,0.14263 q -0.282153,0.21859 -0.638721,0.69918 l -0.544153,0.7922 q -0.03876,0.0589 -0.07596,0.10852 l 0.603064,-0.0232 q 0.395325,-0.0186 0.604614,-0.0186 0.204639,0 0.302307,0.0186 0.125574,0.0248 0.130225,0.12712 0.0031,0.076 -0.04961,0.12092 -0.04651,0.0388 -0.116272,0.0388 -0.04496,0 -0.134876,-0.006 -0.08992,-0.005 -0.134875,-0.005 -0.235645,0 -0.708484,0.0109 -0.471289,0.0124 -0.706934,0.0124 -0.178283,0 -0.178283,-0.15658 0,-0.10232 0.09612,-0.25734 l 0.165881,-0.231 0.559656,-0.77825 q 0.345715,-0.45733 0.643371,-0.71003 l -0.542602,0.031 H 17.35103 q -0.01705,0 -0.05116,0.003 -0.03256,0.002 -0.04806,0.002 -0.164331,0 -0.164331,-0.15968 0,-0.10542 0.08372,-0.13953 0.05116,-0.0217 0.168982,-0.0217 0.10697,0 0.31781,0.0233 0.21239,0.0217 0.31936,0.0217 0.119372,0 0.356567,-0.0155 0.238745,-0.0155 0.359668,-0.0155 0.398426,0 0.398426,0.15038 0,0.10232 -0.179834,0.23564 z m 2.201416,0 -0.20929,0.14263 q -0.282153,0.21859 -0.638721,0.69918 l -0.544152,0.7922 q -0.03876,0.0589 -0.07597,0.10852 l 0.603064,-0.0232 q 0.395325,-0.0186 0.604614,-0.0186 0.204639,0 0.302307,0.0186 0.125574,0.0248 0.130225,0.12712 0.0031,0.076 -0.04961,0.12092 -0.04651,0.0388 -0.116272,0.0388 -0.04496,0 -0.134876,-0.006 -0.08992,-0.005 -0.134875,-0.005 -0.235645,0 -0.708484,0.0109 -0.471289,0.0124 -0.706934,0.0124 -0.178283,0 -0.178283,-0.15658 0,-0.10232 0.09612,-0.25734 l 0.165881,-0.231 0.559656,-0.77825 q 0.345715,-0.45733 0.643371,-0.71003 l -0.542602,0.031 h -0.626318 q -0.01705,0 -0.05116,0.003 -0.03256,0.002 -0.04806,0.002 -0.164331,0 -0.164331,-0.15968 0,-0.10542 0.08372,-0.13953 0.05116,-0.0217 0.168982,-0.0217 0.10697,0 0.31781,0.0233 0.21239,0.0217 0.31936,0.0217 0.119372,0 0.356567,-0.0155 0.238745,-0.0155 0.359668,-0.0155 0.398426,0 0.398426,0.15038 0,0.10232 -0.179834,0.23564 z"
         id="path2" />
      <path
         d="m 7.6570428,125.9261 q -0.00155,-0.0651 0.043408,-0.10542 0.046509,-0.0419 0.1131714,-0.0419 0.075964,0 0.1333251,0.0868 0.079065,0.11783 0.1410767,0.15968 0.1317749,0.0868 0.3829224,0.0868 0.2402954,0 0.4464843,-0.10387 0.2635498,-0.13332 0.2635498,-0.37052 0,-0.19534 -0.2216919,-0.30851 -0.1875854,-0.0977 -0.4635376,-0.10542 -0.2449462,-0.009 -0.4170288,-0.10697 -0.2201416,-0.12557 -0.2201416,-0.35967 0,-0.27595 0.3131592,-0.50384 0.2992066,-0.21549 0.6185669,-0.21549 0.1503784,0 0.3395142,0.0512 0.2511474,0.0667 0.2511474,0.17053 0,0.13643 -0.1395263,0.13643 -0.062012,0 -0.2170411,-0.0326 -0.1550293,-0.0341 -0.2402954,-0.0326 -0.2418457,0.003 -0.4108276,0.11938 -0.1736328,0.11937 -0.1736328,0.2899 0,0.12868 0.2294434,0.18139 0.085266,0.0202 0.3302123,0.0372 0.3550171,0.0264 0.5550049,0.22324 0.1829346,0.17984 0.1829346,0.43874 0,0.36897 -0.3410645,0.58911 -0.2961059,0.19069 -0.6867797,0.19069 -0.2837036,0 -0.5193482,-0.10853 -0.2883545,-0.13332 -0.2930053,-0.36586 z m 3.2463132,-0.93483 q -0.03256,0 -0.07751,-0.003 -0.04341,-0.003 -0.07597,-0.003 -0.03566,0 -0.21084,0.0233 l 0.02946,0.91623 0.0015,0.0682 0.0016,0.0791 q 0.0062,0.33952 -0.162781,0.33952 -0.06201,0 -0.108521,-0.0403 -0.04496,-0.0403 -0.04496,-0.10077 0,-0.0589 0.0047,-0.17673 0.0047,-0.11783 0.0047,-0.17674 l -0.03101,-0.90537 q -0.113172,-0.005 -0.3441654,-0.0264 -0.137976,-0.0186 -0.137976,-0.15348 0,-0.0682 0.041858,-0.11317 0.041858,-0.045 0.1069702,-0.045 l 0.3255612,0.0263 q 0,-0.0791 -0.0078,-0.21084 -0.0062,-0.13332 -0.0062,-0.19223 0,-0.0651 0.04496,-0.10697 0.04496,-0.0434 0.110071,-0.0434 0.139526,0 0.162781,0.22789 0.0047,0.0574 0.0047,0.13798 l -0.0031,0.0899 -0.0015,0.0961 q 0.192236,-0.0248 0.220141,-0.0248 0.161231,0 0.21084,0.0155 0.09457,0.031 0.09457,0.14573 0,0.0682 -0.04341,0.11317 -0.04186,0.0434 -0.108521,0.0434 z m 1.723926,0.41548 q 0,0.11162 0.0015,0.33486 0.0016,0.22324 0.0016,0.33486 0,0.0341 0.0046,0.10387 0.0062,0.0698 0.0062,0.10387 0,0.0667 -0.04496,0.10852 -0.04496,0.0434 -0.110071,0.0434 -0.119372,0 -0.151928,-0.14728 -0.193787,0.10077 -0.446485,0.10077 -0.203088,0 -0.336413,-0.0899 -0.147278,-0.0992 -0.175183,-0.28991 -0.06046,-0.41083 -0.06046,-0.73174 0,-0.21239 0.04651,-0.48369 0.0217,-0.13487 0.147278,-0.13487 0.06666,0 0.111621,0.0434 0.04496,0.0419 0.04496,0.10852 0,0.0713 -0.02325,0.2279 -0.0217,0.15658 -0.0217,0.23874 0,0.2589 0.01705,0.44339 0.01705,0.18448 0.05116,0.2961 0.05116,0.0279 0.100769,0.0434 0.04961,0.014 0.09767,0.014 0.20774,0 0.438733,-0.0667 l -0.0015,-0.31471 -0.0031,-0.30076 q 0,-0.33486 0.02946,-0.58136 0.01705,-0.14262 0.150378,-0.14262 0.06666,0 0.111621,0.0434 0.04496,0.0434 0.04186,0.10852 z m 1.813843,-0.46354 q -0.0186,0.22789 -0.0186,0.45579 0,0.51624 0.04806,0.77979 0.0031,0.0217 0.0031,0.0357 0,0.062 -0.04341,0.10232 -0.04341,0.0403 -0.100769,0.0403 -0.09612,0 -0.141077,-0.13953 -0.111621,0.0822 -0.232544,0.12402 -0.119372,0.0419 -0.249597,0.0419 -0.320911,0 -0.531751,-0.21394 -0.217041,-0.21859 -0.217041,-0.5612 0,-0.41393 0.218592,-0.66353 0.220141,-0.2496 0.570508,-0.2496 0.179834,0 0.277502,0.0558 l 0.145728,0.10697 q 0.0217,-0.65267 0.05116,-0.87901 0.02015,-0.13798 0.141077,-0.13798 0.141076,0 0.141076,0.15038 0,0.21549 -0.06201,0.95188 z m -0.68833,0.0403 q -0.26045,0 -0.390674,0.15503 -0.130225,0.15348 -0.130225,0.46353 0,0.19999 0.141077,0.34417 0.142627,0.14418 0.333313,0.14418 0.130225,0 0.220142,-0.0481 0.05271,-0.0279 0.172082,-0.12868 0.02325,-0.0202 0.04496,-0.0481 l -0.0047,-0.2682 0.0015,-0.17983 0.0031,-0.18294 q -0.05891,-0.12557 -0.15658,-0.18758 -0.09767,-0.0636 -0.234094,-0.0636 z m 1.421619,-0.63407 q -0.07442,0 -0.128675,-0.0527 -0.05426,-0.0527 -0.05426,-0.12713 0,-0.0744 0.05426,-0.12712 0.05426,-0.0527 0.128675,-0.0527 0.07441,0 0.127124,0.0527 0.05426,0.0527 0.05426,0.12712 0,0.0744 -0.05426,0.12713 -0.05271,0.0527 -0.127124,0.0527 z m 0.06976,1.25884 q 0,0.093 0.0047,0.27905 0.0062,0.18448 0.0062,0.2775 0,0.0682 -0.04186,0.11162 -0.04186,0.0434 -0.110071,0.0434 -0.06666,0 -0.110071,-0.0434 -0.04186,-0.0434 -0.04186,-0.11162 0,-0.093 -0.0062,-0.2775 -0.0047,-0.18604 -0.0047,-0.27905 0,-0.14573 0.0155,-0.36277 0.0155,-0.21859 0.0155,-0.36432 0,-0.0698 0.04186,-0.11317 0.04341,-0.0434 0.110071,-0.0434 0.06666,0 0.10852,0.0434 0.04341,0.0434 0.04341,0.11317 0,0.14573 -0.0155,0.36432 -0.0155,0.21704 -0.0155,0.36277 z m 1.105358,0.7953 q -0.260449,0 -0.448034,-0.19224 -0.20929,-0.21394 -0.220142,-0.57516 -0.0093,-0.35037 0.176733,-0.61702 0.217041,-0.31471 0.604615,-0.31471 0.310058,0 0.469738,0.28371 0.127124,0.22944 0.122474,0.5519 -0.0047,0.34417 -0.179834,0.58756 -0.198438,0.27596 -0.52555,0.27596 z m 0.09302,-1.38442 q -0.227893,-0.002 -0.355017,0.21705 -0.100769,0.17518 -0.100769,0.39997 0,0.22479 0.122473,0.35037 0.102319,0.10387 0.240295,0.10387 0.161231,0 0.277503,-0.11783 0.131775,-0.13022 0.139526,-0.35191 0.0217,-0.59997 -0.324011,-0.60152 z"
         id="path3" />
      <desc
         id="desc6">Brand</desc>
      <title
         id="title6">Brand</title>
    </g>
    <rect
       style="display:inline;fill:#c0c0c0;fill-opacity:1;stroke:#505050;stroke-width:0.214884;stroke-miterlimit:0;stroke-dasharray:none;stroke-opacity:1"
       id="guid-e177fcca-23db-4d9a-8f50-21ab1e5511d2"
       width="23.03142"
       height="43.785118"
       x="1.1145678"
       y="24.568306"
       ry="2.0181518"
       inkscape:label="Modulation Block">
      <desc
         id="desc9">Output Block</desc>
      <title
         id="title9">Modulation Block</title>
    </rect>
    <rect
       style="display:inline;fill:#c0c0c0;fill-opacity:1;stroke:#505050;stroke-width:0.213348;stroke-miterlimit:0;stroke-dasharray:none;stroke-opacity:1"
       id="guid-c6124b5b-7089-4f40-8008-45f5eb46cf5e"
       width="23.032955"
       height="43.158672"
       x="0.90042377"
       y="70.106674"
       ry="1.9892776"
       inkscape:label="Parameter Block">
      <desc
         id="desc9-4">Output Block</desc>
      <title
         id="title9-9">Parameter Block</title>
    </rect>
    <path
       d="m 3.5151958,5.699353 q -0.1343585,0 -0.4185782,-0.018948 Q 2.8227331,5.661457 2.6780394,5.66318 q 0.00689,0.19637 0.046509,0.6993529 0.036173,0.4444163 0.036173,0.7027979 0,0.058567 0.012058,0.1739769 0.012058,0.1154105 0.012058,0.173977 0,0.1291908 -0.055121,0.2325434 -0.070624,0.1326359 -0.2015376,0.1326359 -0.09474,0 -0.1670868,-0.060289 -0.08096,-0.067179 -0.08096,-0.1688093 0,-0.024116 0.00861,-0.072347 0.00861,-0.049954 0.00861,-0.075792 0,-0.079237 -0.012058,-0.2394336 Q 2.274959,7.0015965 2.274959,6.9206369 2.274959,6.689816 2.238786,6.2953534 2.197445,5.8423244 2.190555,5.67007 H 2.100983 q -0.3841273,0 -0.6097806,-0.055121 Q 1.3,5.56844 1.3,5.3892957 q 0,-0.08785 0.062012,-0.158474 0.072347,-0.084405 0.1894798,-0.075792 0.060289,0.00345 0.2738845,0.029283 0.1705319,0.018948 0.2756071,0.018948 0.1050751,0 0.313503,-0.00345 0.2101503,-0.00345 0.3152255,-0.00345 0.1309133,0 0.39274,0.018948 0.2618267,0.017225 0.3927401,0.017225 0.1033526,0 0.1722544,0.067179 0.070624,0.067179 0.070624,0.1653643 0,0.098185 -0.070624,0.1670867 -0.068902,0.067179 -0.1722544,0.067179 z m 1.8413994,0.823376 q -0.015503,0.2635493 -0.2394336,0.2635493 -0.2170405,0 -0.2170405,-0.2239307 l -0.00861,-0.173977 Q 4.503936,6.4503822 4.3368492,6.7862783 l 0.00172,0.8664396 q 0,0.098185 -0.067179,0.1619191 -0.067179,0.065457 -0.1705318,0.065457 -0.1067977,0 -0.1653642,-0.068902 Q 3.8803732,7.749181 3.8803732,7.652718 V 6.5244516 q 0,-0.053399 0.00345,-0.1584741 0.00345,-0.1067977 0.00345,-0.1601965 0,-0.096463 0.056844,-0.1601966 0.058566,-0.065457 0.1653642,-0.065457 0.1912024,0 0.2273758,0.19637 0.3048903,-0.2273758 0.6769598,-0.2273758 0.3445088,0 0.3445088,0.4581967 0,0.08785 -0.00172,0.1154104 z M 6.0008269,5.6941854 q -0.1102428,0 -0.1912024,-0.074069 -0.080959,-0.074069 -0.080959,-0.1808671 0,-0.1067977 0.080959,-0.1808671 0.08096,-0.074069 0.1912024,-0.074069 0.1102428,0 0.1894798,0.074069 0.08096,0.074069 0.08096,0.1808671 0,0.1067977 -0.08096,0.1808671 -0.079237,0.074069 -0.1894798,0.074069 z m 0.1464162,1.2626247 q 0,0.098185 0.00517,0.3152256 0.00689,0.2170405 0.00689,0.3152255 0,0.099908 -0.067179,0.1653642 -0.067179,0.063734 -0.1705318,0.063734 -0.1033527,0 -0.1705319,-0.063734 -0.067179,-0.065457 -0.067179,-0.1653642 0,-0.098185 -0.00689,-0.3152255 -0.00517,-0.2170406 -0.00517,-0.3152256 0,-0.1533064 0.017225,-0.3841273 0.017225,-0.2308209 0.017225,-0.3841273 0,-0.099907 0.067179,-0.1636417 0.067179,-0.065457 0.1705318,-0.065457 0.1033527,0 0.1705319,0.065457 0.067179,0.063734 0.067179,0.1636417 0,0.1533064 -0.017225,0.3841273 -0.017226,0.2308209 -0.017226,0.3841273 z m 1.9361392,0.921561 q -0.079237,0 -0.2514914,-0.1722543 -0.1584741,0.075792 -0.2790522,0.1136879 -0.120578,0.039619 -0.2049827,0.039619 -0.4151331,0 -0.6235609,-0.2222082 Q 6.5175898,7.4150068 6.5175898,6.972313 q 0,-0.4151331 0.3066128,-0.7096881 0.3066129,-0.2962776 0.7338038,-0.2962776 0.1636417,0 0.3789596,0.093017 0.2601042,0.1119654 0.2601042,0.2601042 0,0.062011 -0.039618,0.1085202 -0.017226,0.068902 -0.027561,0.173977 -0.00861,0.1033526 -0.00861,0.2428787 0,0.3290059 0.046509,0.4736996 0.00517,0.015503 0.079237,0.1791445 0.067179,0.1481388 0.067179,0.1688093 0,0.091295 -0.070624,0.1515839 -0.068902,0.060289 -0.1601966,0.060289 z M 7.6561914,6.696706 q 0,-0.055121 0.00689,-0.1257457 0.00861,-0.072347 0.024116,-0.1601966 -0.034451,-0.017226 -0.062012,-0.024116 -0.025838,-0.00861 -0.044786,-0.00861 -0.2342659,0 -0.4099654,0.1843122 -0.1756995,0.1825896 -0.1756995,0.4237458 0,0.2308209 0.082682,0.3479539 0.082682,0.1154104 0.2480463,0.1154104 0.1067978,0 0.2015377,-0.034451 Q 7.623463,7.3788334 7.7078677,7.3099316 7.6561914,6.8999662 7.6561914,6.696706 Z m 2.2582552,1.1902779 q -0.2118729,0 -0.2359885,-0.2084279 -0.024116,-0.177422 -0.048231,-0.3565666 -0.025838,-0.1894798 -0.025838,-0.3565666 0,-0.044786 0.00517,-0.1533064 0.00689,-0.1085202 0.00689,-0.1533064 0,-0.012058 0.00345,-0.060289 0.00345,-0.049954 0.00345,-0.08096 0,-0.1429711 -0.074069,-0.1429711 -0.158474,0 -0.3117804,0.1860347 -0.1515839,0.1843122 -0.2377111,0.468532 -0.00345,0.056844 -0.015503,0.1515838 -0.010335,0.077515 -0.010335,0.1515839 0,0.048231 0.010335,0.1464162 0.012058,0.096463 0.012058,0.1446937 0,0.098185 -0.068902,0.1619192 -0.067179,0.065457 -0.1705318,0.065457 -0.1033527,0 -0.1705319,-0.065457 -0.067179,-0.063734 -0.067179,-0.1619192 0,-0.048231 -0.010335,-0.1446937 -0.010335,-0.098185 -0.010335,-0.1464162 0,-0.1653642 0.024116,-0.4599192 0.024116,-0.294555 0.024116,-0.4599193 0,-0.051676 -0.00689,-0.1533064 -0.00517,-0.1033526 -0.00517,-0.1533064 0,-0.096463 0.068902,-0.158474 0.070624,-0.063734 0.1722544,-0.063734 0.2256532,0 0.2411561,0.2704394 l 0.00172,0.018948 q 0.2514914,-0.2532139 0.5305435,-0.2532139 0.3255608,0 0.449584,0.2721619 0.082682,0.1825897 0.082682,0.5460464 v 0.1223007 q -0.0017,0.079237 -0.0017,0.1119653 0,0.1343585 0.03617,0.3462314 0.0379,0.2118729 0.0379,0.3445088 0,0.096462 -0.0689,0.1601965 -0.0689,0.063734 -0.170532,0.063734 z M 12.000447,6.738047 q -0.07235,0.4047979 -0.08613,0.8543819 -0.01723,0.5563817 -0.186035,0.8078731 -0.225653,0.335896 -0.79926,0.335896 -0.67007,0 -0.67007,-0.2652717 0,-0.09474 0.06029,-0.1533064 0.06029,-0.058566 0.158474,-0.058566 0.07752,0 0.222208,0.029283 0.144694,0.029283 0.256659,0.029283 0.25666,0 0.37896,-0.1567515 0.117133,-0.1533065 0.137804,-0.48748 -0.08785,0.089572 -0.198093,0.1343584 -0.110243,0.044786 -0.241156,0.044786 -0.342786,0 -0.558104,-0.2222082 -0.213596,-0.2239307 -0.213596,-0.5718846 0,-0.4685319 0.285943,-0.7579193 0.296277,-0.2997227 0.800983,-0.2997227 0.161919,0 0.279052,0.039618 0.117133,0.039619 0.189479,0.1205781 0.218764,0.025838 0.218764,0.2583816 0,0.1154105 -0.03617,0.3186706 z M 11.3321,6.3935382 q -0.29111,0 -0.453029,0.1912024 -0.144694,0.173977 -0.144694,0.4513065 0,0.2049828 0.07752,0.3083354 0.07751,0.1033527 0.232543,0.1033527 0.141249,0 0.28422,-0.1636417 0.134358,-0.155029 0.153306,-0.3066128 0.03273,-0.1653643 0.07579,-0.5150407 -0.05857,-0.034451 -0.11541,-0.051676 -0.05684,-0.017226 -0.110243,-0.017226 z m 1.474498,1.1179311 q 0,0.3272833 -0.237711,0.3272833 -0.103352,0 -0.170532,-0.065457 -0.06718,-0.065457 -0.06718,-0.1688093 V 5.2222084 q 0,-0.099908 0.07235,-0.1636417 0.0689,-0.058567 0.170532,-0.058567 0.10163,0 0.167087,0.062012 0.06546,0.060289 0.06546,0.1601966 z m 1.303966,0.332451 q -0.411688,0 -0.673515,-0.19637 -0.289387,-0.2170406 -0.289387,-0.6115032 0,-0.4358036 0.229098,-0.7372488 0.254937,-0.3341735 0.687295,-0.3341735 0.299723,0 0.497815,0.096462 0.260104,0.1274682 0.260104,0.3961851 0,0.1894798 -0.211872,0.335896 -0.09646,0.067179 -0.387573,0.1963701 l -0.580497,0.256659 q 0.08268,0.089572 0.199815,0.1343584 0.117133,0.044786 0.268717,0.044786 0.230821,0 0.391017,-0.09474 0.142971,-0.084405 0.229099,-0.084405 0.179144,0 0.179144,0.173977 0,0.19637 -0.287665,0.3203931 -0.241156,0.1033527 -0.511595,0.1033527 z m -0.04651,-1.4624399 q -0.160197,0 -0.273884,0.1067978 -0.113688,0.1067977 -0.18259,0.3203931 0.194647,-0.084405 0.387572,-0.1670867 0.232544,-0.1050752 0.370347,-0.1946475 -0.11541,-0.065457 -0.301445,-0.065457 z m 3.596672,0.6597344 q 0.260104,-0.6545667 0.403075,-1.0421391 0.07579,-0.2049828 0.149862,-0.411688 0.10163,-0.2446013 0.218763,-0.3772372 0.07751,-0.08785 0.186035,-0.08785 0.09819,0 0.172254,0.068902 0.07407,0.067179 0.07407,0.1653642 0,0.068902 -0.04651,0.136081 -0.09302,0.1343584 -0.170532,0.3238382 -0.0034,0.00689 -0.127468,0.3410637 -0.155029,0.3979077 -0.461642,1.193723 -0.07924,0.2084278 -0.194648,0.4168556 -0.07407,0.1343585 -0.215318,0.1343585 -0.179144,0 -0.249769,-0.1688093 -0.21015,-0.5012603 -0.466809,-1.4452144 -0.07062,-0.2325435 -0.142971,-0.4650869 -0.09646,-0.3238383 -0.09646,-0.449584 0,-0.1016301 0.07579,-0.1688093 0.07235,-0.062012 0.16881,-0.062012 0.165364,0 0.230821,0.1722544 0.03445,0.1498614 0.0689,0.2980001 0.05684,0.1860348 0.163642,0.5581043 0.134358,0.4926476 0.260104,0.8698847 z m 3.190151,-1.1110409 q -0.155029,0 -0.229098,-0.1636417 -0.03445,-0.077514 -0.0689,-0.093017 -0.02584,-0.012058 -0.136081,-0.012058 -0.217041,0 -0.50126,0.3376186 -0.397908,0.471977 -0.397908,0.883665 0,0.1877573 0.125746,0.3221158 0.125745,0.1343584 0.301445,0.1343584 0.170532,0 0.346231,-0.089572 0.06201,-0.032728 0.261827,-0.1688093 0.134358,-0.089572 0.20326,-0.089572 0.103353,0 0.1757,0.075792 0.06718,0.070624 0.06718,0.1619192 0,0.1016301 -0.08957,0.177422 -0.473699,0.3996302 -0.964624,0.3996302 -0.387573,0 -0.654567,-0.2824972 -0.254936,-0.272162 -0.254936,-0.6407864 0,-0.5770522 0.504705,-1.17822 0.428913,-0.5098731 0.876775,-0.5098731 0.07579,0 0.136081,0.00517 0.06201,0.00517 0.10852,0.015503 0.07579,-0.074069 0.18259,-0.074069 0.175699,0 0.21704,0.2015376 0.02928,0.1446937 0.02928,0.3376186 0,0.086127 -0.04995,0.1567515 -0.06546,0.093017 -0.18948,0.093017 z m 1.634696,1.9395845 q -0.509873,0 -0.868163,-0.2928324 -0.382404,-0.313503 -0.382404,-0.8113183 0,-0.5856649 0.366902,-1.0679772 0.411688,-0.5426014 1.036971,-0.5426014 0.601168,0 0.90089,0.2756071 0.299723,0.275607 0.299723,0.8285436 0,0.585665 -0.337618,1.0610871 -0.389295,0.5494915 -1.016301,0.5494915 z m 0.153306,-2.2479198 q -0.384127,0 -0.658012,0.3720694 -0.256659,0.3479539 -0.256659,0.7716997 0,0.2859423 0.222208,0.4650869 0.213596,0.1722544 0.539157,0.1722544 0.378959,0 0.632173,-0.3720695 0.232544,-0.3393411 0.232544,-0.7716997 0,-0.3617342 -0.161919,-0.5029828 -0.155029,-0.1343584 -0.549492,-0.1343584 z"
       id="guid-0ab4be0a-6ac4-45cd-abec-0f984dede2c3"
       style="font-weight:bold;font-size:3.52777px;font-family:'Comic Sans MS';-inkscape-font-specification:'Comic Sans MS, Bold';text-align:center;text-anchor:middle;display:inline;stroke:#000000;stroke-width:0;stroke-linecap:round;stroke-linejoin:round;stroke-miterlimit:0"
       inkscape:label="Module"
       aria-label="Triangle VCO" />
    <path
       d="m -168.4082,169.88718 q 0,-2.13867 1.14843,-3.34571 1.14844,-1.21289 2.96485,-1.21289 1.18945,0 2.14453,0.56836 0.95508,0.56836 1.45312,1.58789 0.50391,1.01368 0.50391,2.30274 0,1.30664 -0.52734,2.33789 -0.52735,1.03125 -1.49414,1.56445 -0.9668,0.52735 -2.08594,0.52735 -1.21289,0 -2.16797,-0.58594 -0.95508,-0.58594 -1.44727,-1.59961 -0.49218,-1.01367 -0.49218,-2.14453 z m 1.17187,0.0176 q 0,1.55273 0.83203,2.44921 0.83789,0.89063 2.09766,0.89063 1.2832,0 2.10937,-0.90234 0.83204,-0.90235 0.83204,-2.56055 0,-1.04883 -0.35743,-1.82813 -0.35156,-0.78515 -1.03711,-1.21289 -0.67968,-0.43359 -1.52929,-0.43359 -1.20703,0 -2.08008,0.83203 -0.86719,0.82617 -0.86719,2.76563 z m 12.45117,4.16601 v -0.91406 q -0.72656,1.05469 -1.97461,1.05469 -0.55078,0 -1.03125,-0.21094 -0.4746,-0.21094 -0.70898,-0.52734 -0.22852,-0.32227 -0.32227,-0.78516 -0.0644,-0.31055 -0.0644,-0.98438 v -3.85546 h 1.05469 v 3.45117 q 0,0.82617 0.0644,1.11328 0.0996,0.41601 0.42188,0.65625 0.32226,0.23437 0.79687,0.23437 0.47461,0 0.89063,-0.24023 0.41601,-0.24609 0.58593,-0.66211 0.17579,-0.42188 0.17579,-1.21875 v -3.33398 h 1.05468 v 6.22265 z m 4.89844,-0.94336 0.15235,0.93164 q -0.44532,0.0937 -0.79688,0.0937 -0.57422,0 -0.89062,-0.18164 -0.31641,-0.18164 -0.44532,-0.47461 -0.1289,-0.29883 -0.1289,-1.24804 v -3.58008 h -0.77344 v -0.82031 h 0.77344 v -1.54102 l 1.04882,-0.63281 v 2.17383 h 1.06055 v 0.82031 h -1.06055 v 3.63867 q 0,0.45117 0.0527,0.58008 0.0586,0.1289 0.18164,0.20508 0.12891,0.0762 0.36328,0.0762 0.17578,0 0.46289,-0.041 z"
       id="guid-37658660-4641-49a3-b4d1-90e9afedfbba"
       style="font-size:12px;font-family:Arial;-inkscape-font-specification:'Arial, Normal';text-align:center;white-space:pre;stroke:#00ff00;stroke-width:0;stroke-miterlimit:0"
       inkscape:label="Out label"
       transform="matrix(0.26458333,0,0,0.26458333,60.958003,-23.743187)"
       aria-label="Out">
      <title
         id="title26">Out label</title>
    </path>
    <path
       style="font-size:12px;font-family:Arial;-inkscape-font-specification:'Arial, Normal';text-align:center;white-space:pre;stroke:#000000;stroke-width:0;stroke-miterlimit:0"
       d="m -174.39355,174.07077 v -8.58984 h 3.24023 q 0.85547,0 1.30664,0.082 0.63281,0.10547 1.06055,0.4043 0.42773,0.29296 0.68554,0.82617 0.26368,0.5332 0.26368,1.17187 0,1.09571 -0.69727,1.85742 -0.69727,0.75586 -2.51953,0.75586 h -2.20313 v 3.49219 z m 1.13671,-4.50586 h 2.22071 q 1.10156,0 1.56445,-0.41015 0.46289,-0.41016 0.46289,-1.1543 0,-0.53906 -0.27539,-0.91992 -0.26953,-0.38672 -0.71484,-0.50977 -0.28711,-0.0762 -1.06055,-0.0762 h -2.19727 z m 6.83204,4.50586 v -8.58984 h 1.71093 l 2.03321,6.08203 q 0.28125,0.84961 0.41015,1.27148 0.14649,-0.46875 0.45703,-1.37695 l 2.05664,-5.97656 h 1.5293 v 8.58984 h -1.0957 v -7.18945 l -2.4961,7.18945 h -1.02539 l -2.48437,-7.3125 v 7.3125 z m 9.48632,-2.57812 v -1.06055 h 3.24024 v 1.06055 z m 4.73438,2.57812 v -8.58984 h 1.13672 v 8.58984 z m 3.00586,0 v -6.22265 h 0.94922 v 0.88476 q 0.68554,-1.02539 1.98047,-1.02539 0.5625,0 1.03125,0.20508 0.4746,0.19922 0.70898,0.52734 0.23437,0.32813 0.32812,0.7793 0.0586,0.29297 0.0586,1.02539 v 3.82617 h -1.05469 v -3.78515 q 0,-0.64454 -0.12305,-0.96094 -0.12304,-0.32227 -0.43945,-0.50977 -0.31055,-0.19336 -0.73242,-0.19336 -0.67383,0 -1.16602,0.42774 -0.48632,0.42773 -0.48632,1.62304 v 3.39844 z"
       id="guid-cf0d8384-f17a-4bb3-93d2-d556ab45062b"
       transform="matrix(0.26458597,0,0,0.26458333,49.055192,6.216505)"
       aria-label="PM-In"
       inkscape:label="PM-In label">
      <title
         id="title25">PM-In label</title>
    </path>
    <path
       style="font-size:12px;font-family:Arial;-inkscape-font-specification:'Arial, Normal';text-align:center;white-space:pre;stroke:#000000;stroke-width:0;stroke-miterlimit:0"
       d="m -173.99805,174.07077 v -8.58984 h 5.79493 v 1.01367 h -4.65821 v 2.66016 h 4.03125 v 1.01367 h -4.03125 v 3.90234 z m 7.23633,0 v -8.58984 h 1.71094 l 2.0332,6.08203 q 0.28125,0.84961 0.41016,1.27148 0.14648,-0.46875 0.45703,-1.37695 l 2.05664,-5.97656 h 1.5293 v 8.58984 h -1.09571 v -7.18945 l -2.49609,7.18945 h -1.02539 l -2.48438,-7.3125 v 7.3125 z m 9.48633,-2.57812 v -1.06055 h 3.24023 v 1.06055 z m 4.73437,2.57812 v -8.58984 h 1.13672 v 8.58984 z m 3.00586,0 v -6.22265 h 0.94922 v 0.88476 q 0.68555,-1.02539 1.98047,-1.02539 0.5625,0 1.03125,0.20508 0.47461,0.19922 0.70899,0.52734 0.23437,0.32813 0.32812,0.7793 0.0586,0.29297 0.0586,1.02539 v 3.82617 h -1.05468 v -3.78515 q 0,-0.64454 -0.12305,-0.96094 -0.12305,-0.32227 -0.43945,-0.50977 -0.31055,-0.19336 -0.73242,-0.19336 -0.67383,0 -1.16602,0.42774 -0.48633,0.42773 -0.48633,1.62304 v 3.39844 z"
       id="guid-ac70a577-6f01-4c9e-a4c6-03339188387c"
       transform="matrix(0.26458597,0,0,0.26458333,49.284901,-8.783495)"
       aria-label="FM-In"
       inkscape:label="FM-In label">
      <title
         id="title24">FM-In label</title>
    </path>
    <path
       style="font-size:12px;font-family:Arial;-inkscape-font-specification:'Arial, Normal';text-align:center;white-space:pre;stroke:#000000;stroke-width:0;stroke-miterlimit:0"
       d="m -179.00488,174.07077 v -8.58984 h 5.79492 v 1.01367 h -4.6582 v 2.66016 h 4.03125 v 1.01367 h -4.03125 v 3.90234 z m 7.23633,0 v -8.58984 h 1.71093 l 2.03321,6.08203 q 0.28125,0.84961 0.41015,1.27148 0.14649,-0.46875 0.45703,-1.37695 l 2.05664,-5.97656 h 1.5293 v 8.58984 h -1.0957 v -7.18945 l -2.4961,7.18945 h -1.02539 l -2.48437,-7.3125 v 7.3125 z m 11.75976,0 3.29883,-8.58984 h 1.22461 l 3.51562,8.58984 h -1.29492 l -1.00195,-2.60156 h -3.5918 l -0.94336,2.60156 z m 2.47852,-3.52734 h 2.91211 l -0.89649,-2.37891 q -0.41015,-1.08398 -0.60937,-1.78125 -0.16407,0.82617 -0.46289,1.64063 z m 8.63672,2.58398 0.15234,0.93164 q -0.44531,0.0937 -0.79688,0.0937 -0.57421,0 -0.89062,-0.18164 -0.31641,-0.18164 -0.44531,-0.47461 -0.12891,-0.29883 -0.12891,-1.24804 v -3.58008 h -0.77344 v -0.82031 h 0.77344 v -1.54102 l 1.04883,-0.63281 v 2.17383 h 1.06055 v 0.82031 h -1.06055 v 3.63867 q 0,0.45117 0.0527,0.58008 0.0586,0.1289 0.18164,0.20508 0.12891,0.0762 0.36328,0.0762 0.17579,0 0.4629,-0.041 z m 3.33398,0 0.15234,0.93164 q -0.44531,0.0937 -0.79687,0.0937 -0.57422,0 -0.89063,-0.18164 -0.3164,-0.18164 -0.44531,-0.47461 -0.12891,-0.29883 -0.12891,-1.24804 v -3.58008 h -0.77343 v -0.82031 h 0.77343 v -1.54102 l 1.04883,-0.63281 v 2.17383 h 1.06055 v 0.82031 h -1.06055 v 3.63867 q 0,0.45117 0.0527,0.58008 0.0586,0.1289 0.18164,0.20508 0.1289,0.0762 0.36328,0.0762 0.17578,0 0.46289,-0.041 z m 1.03125,0.94336 v -6.22265 h 0.94922 v 0.88476 q 0.68555,-1.02539 1.98047,-1.02539 0.5625,0 1.03125,0.20508 0.47461,0.19922 0.70898,0.52734 0.23438,0.32813 0.32813,0.7793 0.0586,0.29297 0.0586,1.02539 v 3.82617 h -1.05469 v -3.78515 q 0,-0.64454 -0.12304,-0.96094 -0.12305,-0.32227 -0.43946,-0.50977 -0.31054,-0.19336 -0.73242,-0.19336 -0.67383,0 -1.16601,0.42774 -0.48633,0.42773 -0.48633,1.62304 v 3.39844 z"
       id="guid-f4c2415b-d89d-4397-8c17-181637d51a17"
       transform="matrix(0.26458597,0,0,0.26458333,60.554794,-8.783495)"
       aria-label="FM Attn"
       inkscape:label="FM Attn label">
      <title
         id="title23">FM Attn label</title>
    </path>
    <path
       style="font-size:12px;font-family:Arial;-inkscape-font-specification:'Arial, Normal';text-align:center;white-space:pre;stroke:#000000;stroke-width:0;stroke-miterlimit:0"
       d="m -179.40039,174.07077 v -8.58984 h 3.24023 q 0.85547,0 1.30664,0.082 0.63282,0.10547 1.06055,0.4043 0.42774,0.29296 0.68555,0.82617 0.26367,0.5332 0.26367,1.17187 0,1.09571 -0.69727,1.85742 -0.69726,0.75586 -2.51953,0.75586 h -2.20312 v 3.49219 z m 1.13672,-4.50586 h 2.2207 q 1.10156,0 1.56445,-0.41015 0.4629,-0.41016 0.4629,-1.1543 0,-0.53906 -0.2754,-0.91992 -0.26953,-0.38672 -0.71484,-0.50977 -0.28711,-0.0762 -1.06055,-0.0762 h -2.19726 z m 6.83203,4.50586 v -8.58984 h 1.71094 l 2.0332,6.08203 q 0.28125,0.84961 0.41016,1.27148 0.14648,-0.46875 0.45703,-1.37695 l 2.05664,-5.97656 h 1.5293 v 8.58984 h -1.09571 v -7.18945 l -2.49609,7.18945 h -1.02539 l -2.48438,-7.3125 v 7.3125 z m 11.75977,0 3.29882,-8.58984 h 1.22461 l 3.51563,8.58984 h -1.29492 l -1.00196,-2.60156 h -3.59179 l -0.94336,2.60156 z m 2.47851,-3.52734 h 2.91211 l -0.89648,-2.37891 q -0.41016,-1.08398 -0.60938,-1.78125 -0.16406,0.82617 -0.46289,1.64063 z m 8.63672,2.58398 0.15234,0.93164 q -0.44531,0.0937 -0.79687,0.0937 -0.57422,0 -0.89063,-0.18164 -0.3164,-0.18164 -0.44531,-0.47461 -0.12891,-0.29883 -0.12891,-1.24804 v -3.58008 h -0.77343 v -0.82031 h 0.77343 v -1.54102 l 1.04883,-0.63281 v 2.17383 h 1.06055 v 0.82031 h -1.06055 v 3.63867 q 0,0.45117 0.0527,0.58008 0.0586,0.1289 0.18164,0.20508 0.1289,0.0762 0.36328,0.0762 0.17578,0 0.46289,-0.041 z m 3.33398,0 0.15235,0.93164 q -0.44531,0.0937 -0.79688,0.0937 -0.57422,0 -0.89062,-0.18164 -0.31641,-0.18164 -0.44531,-0.47461 -0.12891,-0.29883 -0.12891,-1.24804 v -3.58008 h -0.77344 v -0.82031 h 0.77344 v -1.54102 l 1.04883,-0.63281 v 2.17383 h 1.06054 v 0.82031 h -1.06054 v 3.63867 q 0,0.45117 0.0527,0.58008 0.0586,0.1289 0.18164,0.20508 0.12891,0.0762 0.36328,0.0762 0.17578,0 0.46289,-0.041 z m 1.03125,0.94336 v -6.22265 h 0.94922 v 0.88476 q 0.68555,-1.02539 1.98047,-1.02539 0.5625,0 1.03125,0.20508 0.47461,0.19922 0.70899,0.52734 0.23437,0.32813 0.32812,0.7793 0.0586,0.29297 0.0586,1.02539 v 3.82617 h -1.05468 v -3.78515 q 0,-0.64454 -0.12305,-0.96094 -0.12305,-0.32227 -0.43945,-0.50977 -0.31055,-0.19336 -0.73242,-0.19336 -0.67383,0 -1.16602,0.42774 -0.48633,0.42773 -0.48633,1.62304 v 3.39844 z"
       id="guid-678346f9-6204-405a-9cea-c57d2708c03f"
       transform="matrix(0.26459036,0,0,0.26458333,60.363069,6.216505)"
       aria-label="PM Attn"
       inkscape:label="PM Attn label">
      <title
         id="title22">PM Attn label</title>
    </path>
    <path
       style="font-size:12px;font-family:Arial;-inkscape-font-specification:'Arial, Normal';text-align:center;white-space:pre;stroke:#000000;stroke-width:0;stroke-miterlimit:0"
       d="m -176.94531,174.07077 -3.32813,-8.58984 h 1.23047 l 2.23242,6.24023 q 0.26953,0.75 0.45118,1.40625 0.19921,-0.70312 0.46289,-1.40625 l 2.32031,-6.24023 h 1.16015 l -3.36328,8.58984 z m 5.51367,0 v -8.58984 h 1.71094 l 2.0332,6.08203 q 0.28125,0.84961 0.41016,1.27148 0.14648,-0.46875 0.45703,-1.37695 l 2.05664,-5.97656 h 1.5293 v 8.58984 h -1.09571 v -7.18945 l -2.49609,7.18945 h -1.02539 l -2.48438,-7.3125 v 7.3125 z m 11.75977,0 3.29882,-8.58984 h 1.22461 l 3.51563,8.58984 h -1.29492 l -1.00196,-2.60156 h -3.59179 l -0.94336,2.60156 z m 2.47851,-3.52734 h 2.91211 l -0.89648,-2.37891 q -0.41016,-1.08398 -0.60938,-1.78125 -0.16406,0.82617 -0.46289,1.64063 z m 8.63672,2.58398 0.15234,0.93164 q -0.44531,0.0937 -0.79687,0.0937 -0.57422,0 -0.89063,-0.18164 -0.3164,-0.18164 -0.44531,-0.47461 -0.12891,-0.29883 -0.12891,-1.24804 v -3.58008 h -0.77343 v -0.82031 h 0.77343 v -1.54102 l 1.04883,-0.63281 v 2.17383 h 1.06055 v 0.82031 h -1.06055 v 3.63867 q 0,0.45117 0.0527,0.58008 0.0586,0.1289 0.18164,0.20508 0.1289,0.0762 0.36328,0.0762 0.17578,0 0.46289,-0.041 z m 3.33398,0 0.15235,0.93164 q -0.44531,0.0937 -0.79688,0.0937 -0.57422,0 -0.89062,-0.18164 -0.31641,-0.18164 -0.44531,-0.47461 -0.12891,-0.29883 -0.12891,-1.24804 v -3.58008 h -0.77344 v -0.82031 h 0.77344 v -1.54102 l 1.04883,-0.63281 v 2.17383 h 1.06054 v 0.82031 h -1.06054 v 3.63867 q 0,0.45117 0.0527,0.58008 0.0586,0.1289 0.18164,0.20508 0.12891,0.0762 0.36328,0.0762 0.17578,0 0.46289,-0.041 z m 1.03125,0.94336 v -6.22265 h 0.94922 v 0.88476 q 0.68555,-1.02539 1.98047,-1.02539 0.5625,0 1.03125,0.20508 0.47461,0.19922 0.70899,0.52734 0.23437,0.32813 0.32812,0.7793 0.0586,0.29297 0.0586,1.02539 v 3.82617 h -1.05468 v -3.78515 q 0,-0.64454 -0.12305,-0.96094 -0.12305,-0.32227 -0.43945,-0.50977 -0.31055,-0.19336 -0.73242,-0.19336 -0.67383,0 -1.16602,0.42774 -0.48633,0.42773 -0.48633,1.62304 v 3.39844 z"
       id="guid-60eabbb4-174c-4dbe-abb6-dd18b7d339ca"
       transform="matrix(0.26459036,0,0,0.26458333,60.467717,21.216505)"
       aria-label="VM Attn"
       inkscape:label="VM Attn label">
      <title
         id="title21">VM Attn label</title>
    </path>
    <path
       style="font-size:12px;font-family:Arial;-inkscape-font-specification:'Arial, Normal';text-align:center;white-space:pre;stroke:#000000;stroke-width:0;stroke-miterlimit:0"
       d="m -171.73047,174.07077 v -8.58984 h 3.24024 q 0.85546,0 1.30664,0.082 0.63281,0.10547 1.06054,0.4043 0.42774,0.29296 0.68555,0.82617 0.26367,0.5332 0.26367,1.17187 0,1.09571 -0.69726,1.85742 -0.69727,0.75586 -2.51953,0.75586 h -2.20313 v 3.49219 z m 1.13672,-4.50586 h 2.2207 q 1.10157,0 1.56446,-0.41015 0.46289,-0.41016 0.46289,-1.1543 0,-0.53906 -0.27539,-0.91992 -0.26953,-0.38672 -0.71485,-0.50977 -0.28711,-0.0762 -1.06054,-0.0762 h -2.19727 z m 6.73828,-2.87109 v -1.21289 h 1.05469 v 1.21289 z m 0,7.37695 v -6.22265 h 1.05469 v 6.22265 z m 4.96289,-0.94336 0.15235,0.93164 q -0.44532,0.0937 -0.79688,0.0937 -0.57422,0 -0.89062,-0.18164 -0.31641,-0.18164 -0.44532,-0.47461 -0.1289,-0.29883 -0.1289,-1.24804 v -3.58008 h -0.77344 v -0.82031 h 0.77344 v -1.54102 l 1.04883,-0.63281 v 2.17383 h 1.06054 v 0.82031 h -1.06054 v 3.63867 q 0,0.45117 0.0527,0.58008 0.0586,0.1289 0.18164,0.20508 0.12891,0.0762 0.36328,0.0762 0.17578,0 0.46289,-0.041 z m 5.0918,-1.33594 1.03711,0.13477 q -0.16992,1.07227 -0.87305,1.68164 -0.69726,0.60352 -1.7168,0.60352 -1.27734,0 -2.05664,-0.83203 -0.77343,-0.8379 -0.77343,-2.39649 0,-1.00781 0.33398,-1.76367 0.33399,-0.75586 1.01367,-1.13086 0.68555,-0.38086 1.48828,-0.38086 1.01368,0 1.65821,0.51563 0.64453,0.50976 0.82617,1.45312 l -1.02539,0.1582 q -0.14649,-0.62695 -0.52149,-0.94336 -0.36914,-0.3164 -0.89648,-0.3164 -0.79688,0 -1.29492,0.57422 -0.49805,0.56836 -0.49805,1.80468 0,1.25391 0.48047,1.82227 0.48047,0.56836 1.25391,0.56836 0.62109,0 1.03711,-0.38086 0.41601,-0.38086 0.52734,-1.17188 z m 1.93945,2.2793 v -8.58984 h 1.05469 v 3.08203 q 0.73828,-0.85547 1.86328,-0.85547 0.69141,0 1.20117,0.27539 0.50977,0.26953 0.72657,0.75 0.22265,0.48047 0.22265,1.39453 v 3.94336 h -1.05469 v -3.94336 q 0,-0.79101 -0.3457,-1.14844 -0.33984,-0.36328 -0.9668,-0.36328 -0.46875,0 -0.88476,0.2461 -0.41016,0.24023 -0.58594,0.65625 -0.17578,0.41601 -0.17578,1.14843 v 3.4043 z"
       id="guid-4e362417-c965-4f4f-a764-e104275f5997"
       transform="matrix(0.26458772,0,0,0.26458333,54.859428,36.216505)"
       aria-label="Pitch"
       inkscape:label="Pitch label">
      <title
         id="title20">Pitch label</title>
    </path>
    <path
       style="font-size:12px;font-family:Arial;-inkscape-font-specification:'Arial, Normal';text-align:center;white-space:pre;stroke:#000000;stroke-width:0;stroke-miterlimit:0"
       d="m -175.4043,174.07077 v -8.58984 h 3.24024 q 0.85547,0 1.30664,0.082 0.63281,0.10547 1.06055,0.4043 0.42773,0.29296 0.68554,0.82617 0.26367,0.5332 0.26367,1.17187 0,1.09571 -0.69726,1.85742 -0.69727,0.75586 -2.51953,0.75586 h -2.20313 v 3.49219 z m 1.13672,-4.50586 h 2.22071 q 1.10156,0 1.56445,-0.41015 0.46289,-0.41016 0.46289,-1.1543 0,-0.53906 -0.27539,-0.91992 -0.26953,-0.38672 -0.71485,-0.50977 -0.2871,-0.0762 -1.06054,-0.0762 h -2.19727 z m 6.73242,4.50586 v -8.58984 h 1.05469 v 3.08203 q 0.73828,-0.85547 1.86328,-0.85547 0.69141,0 1.20117,0.27539 0.50977,0.26953 0.72657,0.75 0.22265,0.48047 0.22265,1.39453 v 3.94336 h -1.05468 v -3.94336 q 0,-0.79101 -0.34571,-1.14844 -0.33984,-0.36328 -0.96679,-0.36328 -0.46875,0 -0.88477,0.2461 -0.41016,0.24023 -0.58594,0.65625 -0.17578,0.41601 -0.17578,1.14843 v 3.4043 z m 10.73438,-0.76758 q -0.58594,0.49805 -1.13086,0.70313 -0.53906,0.20508 -1.16016,0.20508 -1.02539,0 -1.57617,-0.49805 -0.55078,-0.50391 -0.55078,-1.2832 0,-0.45703 0.20508,-0.83203 0.21094,-0.38086 0.54492,-0.60938 0.33984,-0.22852 0.76172,-0.3457 0.31055,-0.082 0.9375,-0.15821 1.27734,-0.15234 1.88086,-0.36328 0.006,-0.21679 0.006,-0.27539 0,-0.64453 -0.29883,-0.9082 -0.4043,-0.35742 -1.20117,-0.35742 -0.74414,0 -1.10156,0.26367 -0.35157,0.25781 -0.52149,0.91992 l -1.03125,-0.14062 q 0.14063,-0.66211 0.46289,-1.06641 0.32227,-0.41016 0.93164,-0.62695 0.60938,-0.22266 1.41211,-0.22266 0.79688,0 1.29492,0.1875 0.49805,0.1875 0.73243,0.47461 0.23437,0.28125 0.32812,0.71484 0.0527,0.26953 0.0527,0.97266 v 1.40625 q 0,1.4707 0.0645,1.86328 0.0703,0.38672 0.26953,0.74414 h -1.10156 q -0.16407,-0.32812 -0.21094,-0.76758 z m -0.0879,-2.35547 q -0.57422,0.23438 -1.72266,0.39844 -0.65039,0.0937 -0.91992,0.21094 -0.26953,0.11719 -0.41602,0.3457 -0.14648,0.22266 -0.14648,0.49805 0,0.42187 0.31641,0.70312 0.32226,0.28125 0.9375,0.28125 0.60937,0 1.08398,-0.26367 0.47461,-0.26953 0.69727,-0.73242 0.16992,-0.35742 0.16992,-1.05469 z m 2.2793,1.26563 1.04296,-0.16406 q 0.0879,0.62695 0.48633,0.96093 0.4043,0.33399 1.125,0.33399 0.72656,0 1.07813,-0.29297 0.35156,-0.29883 0.35156,-0.69727 0,-0.35742 -0.31055,-0.5625 -0.21679,-0.14062 -1.07812,-0.35742 -1.16016,-0.29297 -1.61133,-0.5039 -0.44531,-0.2168 -0.67969,-0.5918 -0.22851,-0.38086 -0.22851,-0.83789 0,-0.41602 0.1875,-0.76758 0.19336,-0.35742 0.52148,-0.5918 0.24609,-0.18164 0.66797,-0.30468 0.42773,-0.12891 0.91406,-0.12891 0.73242,0 1.28321,0.21094 0.55664,0.21094 0.82031,0.57422 0.26367,0.35742 0.36328,0.96093 l -1.03125,0.14063 q -0.0703,-0.48047 -0.41016,-0.75 -0.33398,-0.26953 -0.94922,-0.26953 -0.72656,0 -1.03711,0.24023 -0.31054,0.24024 -0.31054,0.5625 0,0.20508 0.1289,0.36914 0.12891,0.16992 0.4043,0.28125 0.1582,0.0586 0.93164,0.26953 1.11914,0.29883 1.5586,0.49219 0.44531,0.1875 0.69726,0.55078 0.25195,0.36328 0.25195,0.90235 0,0.52734 -0.31054,0.99609 -0.30469,0.46289 -0.88477,0.7207 -0.58008,0.25196 -1.3125,0.25196 -1.21289,0 -1.85156,-0.50391 -0.63281,-0.50391 -0.80859,-1.49414 z m 10.68164,-0.14648 1.08984,0.13476 q -0.25781,0.95508 -0.95508,1.48242 -0.69726,0.52735 -1.78125,0.52735 -1.36523,0 -2.16797,-0.83789 -0.79687,-0.84375 -0.79687,-2.36133 0,-1.57031 0.80859,-2.4375 0.8086,-0.86719 2.09766,-0.86719 1.24804,0 2.03906,0.84961 0.79102,0.84961 0.79102,2.39062 0,0.0937 -0.006,0.28125 h -4.64063 q 0.0586,1.0254 0.58008,1.57032 0.52148,0.54492 1.30078,0.54492 0.58008,0 0.99024,-0.30469 0.41015,-0.30469 0.65039,-0.97265 z m -3.46289,-1.70508 h 3.4746 q -0.0703,-0.78516 -0.39843,-1.17774 -0.50391,-0.60937 -1.30664,-0.60937 -0.72657,0 -1.22461,0.48633 -0.49219,0.48632 -0.54492,1.30078 z"
       id="guid-c62db9bc-4c46-4e97-a41d-542dd05a9c53"
       transform="matrix(0.26458772,0,0,0.26458333,54.56367,51.216505)"
       aria-label="Phase"
       inkscape:label="Phase label">
      <title
         id="title19">Phase label</title>
    </path>
    <path
       style="font-size:12px;font-family:Arial;-inkscape-font-specification:'Arial, Normal';text-align:center;white-space:pre;stroke:#000000;stroke-width:0;stroke-miterlimit:0"
       d="m -175.94922,174.07077 -3.32812,-8.58984 h 1.23047 l 2.23242,6.24023 q 0.26953,0.75 0.45117,1.40625 0.19922,-0.70312 0.46289,-1.40625 l 2.32031,-6.24023 h 1.16016 l -3.36328,8.58984 z m 4.35938,-3.11133 q 0,-1.72851 0.96093,-2.56054 0.80274,-0.69141 1.95704,-0.69141 1.2832,0 2.09765,0.84375 0.81445,0.83789 0.81445,2.32031 0,1.20117 -0.36328,1.89258 -0.35742,0.68555 -1.04882,1.06641 -0.68555,0.38086 -1.5,0.38086 -1.30665,0 -2.11524,-0.83789 -0.80273,-0.83789 -0.80273,-2.41407 z m 1.08398,0 q 0,1.19532 0.52149,1.79297 0.52148,0.5918 1.3125,0.5918 0.78515,0 1.30664,-0.59766 0.52148,-0.59765 0.52148,-1.82226 0,-1.1543 -0.52734,-1.7461 -0.52149,-0.59765 -1.30078,-0.59765 -0.79102,0 -1.3125,0.59179 -0.52149,0.5918 -0.52149,1.78711 z m 5.95899,3.11133 v -8.58984 h 1.05468 v 8.58984 z m 6.76757,0 v -0.91406 q -0.72656,1.05469 -1.97461,1.05469 -0.55078,0 -1.03125,-0.21094 -0.47461,-0.21094 -0.70898,-0.52734 -0.22852,-0.32227 -0.32227,-0.78516 -0.0645,-0.31055 -0.0645,-0.98438 v -3.85546 h 1.05469 v 3.45117 q 0,0.82617 0.0644,1.11328 0.0996,0.41601 0.42188,0.65625 0.32226,0.23437 0.79687,0.23437 0.47461,0 0.89063,-0.24023 0.41601,-0.24609 0.58593,-0.66211 0.17579,-0.42188 0.17579,-1.21875 v -3.33398 h 1.05468 v 6.22265 z m 2.59571,0 v -6.22265 h 0.94336 v 0.87304 q 0.29296,-0.45703 0.77929,-0.73242 0.48633,-0.28125 1.10742,-0.28125 0.69141,0 1.13086,0.28711 0.44532,0.28711 0.62696,0.80273 0.73828,-1.08984 1.92187,-1.08984 0.92578,0 1.42383,0.51563 0.49805,0.50976 0.49805,1.57617 v 4.27148 h -1.04883 v -3.91992 q 0,-0.63281 -0.10547,-0.9082 -0.0996,-0.28125 -0.36914,-0.45118 -0.26953,-0.16992 -0.63281,-0.16992 -0.65625,0 -1.08985,0.43946 -0.43359,0.43359 -0.43359,1.39453 v 3.61523 h -1.05469 v -4.04297 q 0,-0.70312 -0.25781,-1.05468 -0.25781,-0.35157 -0.84375,-0.35157 -0.44531,0 -0.82617,0.23438 -0.375,0.23437 -0.54492,0.68554 -0.16993,0.45118 -0.16993,1.30079 v 3.22851 z m 14.25586,-2.0039 1.08984,0.13476 q -0.25781,0.95508 -0.95508,1.48242 -0.69726,0.52735 -1.78125,0.52735 -1.36523,0 -2.16797,-0.83789 -0.79687,-0.84375 -0.79687,-2.36133 0,-1.57031 0.80859,-2.4375 0.8086,-0.86719 2.09766,-0.86719 1.24804,0 2.03906,0.84961 0.79102,0.84961 0.79102,2.39062 0,0.0937 -0.006,0.28125 h -4.64063 q 0.0586,1.0254 0.58008,1.57032 0.52148,0.54492 1.30078,0.54492 0.58008,0 0.99024,-0.30469 0.41015,-0.30469 0.65039,-0.97265 z m -3.46289,-1.70508 h 3.4746 q -0.0703,-0.78516 -0.39843,-1.17774 -0.50391,-0.60937 -1.30664,-0.60937 -0.72657,0 -1.22461,0.48633 -0.49219,0.48632 -0.54492,1.30078 z"
       id="guid-f55fc6b0-4bfb-4d9e-abc7-1a4276d46e68"
       transform="matrix(0.26458772,0,0,0.26458333,54.492133,66.216505)"
       aria-label="Volume"
       inkscape:label="Volume label">
      <title
         id="title18">Volume label</title>
    </path>
    <path
       style="font-size:12px;font-family:Arial;-inkscape-font-specification:'Arial, Normal';text-align:center;white-space:pre;stroke:#000000;stroke-width:0;stroke-miterlimit:0"
       d="m -171.93848,174.07077 -3.32812,-8.58984 h 1.23047 l 2.23242,6.24023 q 0.26953,0.75 0.45117,1.40625 0.19922,-0.70312 0.46289,-1.40625 l 2.32031,-6.24023 h 1.16016 l -3.36328,8.58984 z m 5.51368,0 v -8.58984 h 1.71093 l 2.03321,6.08203 q 0.28125,0.84961 0.41015,1.27148 0.14649,-0.46875 0.45703,-1.37695 l 2.05664,-5.97656 h 1.5293 v 8.58984 h -1.0957 v -7.18945 l -2.4961,7.18945 h -1.02539 l -2.48437,-7.3125 v 7.3125 z m 9.48632,-2.57812 v -1.06055 h 3.24024 v 1.06055 z m 4.73438,2.57812 v -8.58984 h 1.13672 v 8.58984 z m 3.00586,0 v -6.22265 h 0.94922 v 0.88476 q 0.68554,-1.02539 1.98047,-1.02539 0.5625,0 1.03125,0.20508 0.4746,0.19922 0.70898,0.52734 0.23437,0.32813 0.32812,0.7793 0.0586,0.29297 0.0586,1.02539 v 3.82617 h -1.05469 v -3.78515 q 0,-0.64454 -0.12305,-0.96094 -0.12304,-0.32227 -0.43945,-0.50977 -0.31055,-0.19336 -0.73242,-0.19336 -0.67383,0 -1.16602,0.42774 -0.48632,0.42773 -0.48632,1.62304 v 3.39844 z"
       id="guid-38616f39-12dd-448f-acc9-7c5a5dc56087"
       transform="matrix(0.26458597,0,0,0.26458333,49.056083,21.216505)"
       aria-label="VM-In"
       inkscape:label="VM-In label">
      <title
         id="title17">VM-In label</title>
    </path>
    <path
       style="display:inline;font-size:12px;font-family:Arial;-inkscape-font-specification:'Arial, Normal';text-align:center;white-space:pre;stroke:#000000;stroke-width:0;stroke-miterlimit:0"
       d="m -166.60937,174.07077 -3.32813,-8.58984 h 1.23047 l 2.23242,6.24023 q 0.26953,0.75 0.45117,1.40625 0.19922,-0.70312 0.46289,-1.40625 l 2.32032,-6.24023 h 1.16015 l -3.36328,8.58984 z m 4.34179,-2.57812 v -1.06055 h 3.24024 v 1.06055 z m 4.73438,2.57812 v -8.58984 h 1.13672 v 8.58984 z m 3.00586,0 v -6.22265 h 0.94922 v 0.88476 q 0.68554,-1.02539 1.98046,-1.02539 0.5625,0 1.03125,0.20508 0.47461,0.19922 0.70899,0.52734 0.23437,0.32813 0.32812,0.7793 0.0586,0.29297 0.0586,1.02539 v 3.82617 h -1.05469 v -3.78515 q 0,-0.64454 -0.12305,-0.96094 -0.12304,-0.32227 -0.43945,-0.50977 -0.31055,-0.19336 -0.73242,-0.19336 -0.67383,0 -1.16602,0.42774 -0.48633,0.42773 -0.48633,1.62304 v 3.39844 z"
       id="guid-8e31c4c7-f0d4-41eb-a0d9-0d129d38e8be"
       transform="matrix(0.26458333,0,0,0.26458333,48.96263,-23.783495)"
       aria-label="V-In"
       inkscape:label="V-In label">
      <title
         id="title16">V-In label</title>
    </path>
  </g>
  <g
     inkscape:groupmode="layer"
     id="layer2"
     inkscape:label="components"
     style="display:none">
    <circle
       style="display:inline;fill:#0000ff;fill-opacity:1;stroke:#0000ff;stroke-width:0;stroke-miterlimit:0;stroke-opacity:1"
       id="guid-a9c30311-ec54-40a1-9071-744922170655"
       cx="18.5"
       cy="14"
       inkscape:label="Output"
       r="2.5">
      <title
         id="title15">Output</title>
    </circle>
    <circle
       style="display:inline;fill:#ff0000;fill-opacity:1;stroke:#ff0000;stroke-width:0;stroke-miterlimit:0;stroke-opacity:1"
       id="guid-8f37b48a-3637-414f-82d8-9c5ad212e3d2"
       cx="12.7"
       cy="104.5"
       inkscape:label="Volume"
       r="2.5">
      <title
         id="title14">Volume</title>
    </circle>
    <circle
       style="display:inline;fill:#ff0000;fill-opacity:1;stroke:#ff0000;stroke-width:0;stroke-miterlimit:0;stroke-opacity:1"
       id="guid-d7bc7031-b5cb-44bb-b936-e21ebeb97e3e"
       cx="12.7"
       cy="89.5"
       inkscape:label="Phase"
       r="2.5">
      <title
         id="title13">Phase</title>
    </circle>
    <circle
       style="display:inline;fill:#ff0000;fill-opacity:1;stroke:#ff0000;stroke-width:0;stroke-miterlimit:0;stroke-opacity:1"
       id="guid-0b8c06c9-0cee-4fb4-9205-9088f2582c7e"
       cx="12.7"
       cy="74.5"
       inkscape:label="Pitch"
       r="2.5">
      <title
         id="title12">Pitch</title>
    </circle>
    <ellipse
       style="display:inline;fill:#ff0000;fill-opacity:1;stroke:#ff0000;stroke-width:0;stroke-miterlimit:0;stroke-opacity:1"
       id="guid-5311432b-da94-4877-b1b4-d35952ab2305"
       cx="18.500158"
       cy="59.5"
       inkscape:label="VM Attn"
       rx="2.500025"
       ry="2.5">
      <title
         id="title11">VM Attn</title>
    </ellipse>
    <ellipse
       style="display:inline;fill:#00ff00;fill-opacity:1;stroke:#00ff00;stroke-width:0;stroke-miterlimit:0;stroke-opacity:1"
       id="guid-b60d8bcf-c346-40fe-8eeb-cf399ec7d822"
       cx="6.5000381"
       cy="59.5"
       inkscape:label="VM In"
       rx="2.500025"
       ry="2.5">
      <title
         id="title10">VM In</title>
    </ellipse>
    <ellipse
       style="display:inline;fill:#ff0000;fill-opacity:1;stroke:#ff0000;stroke-width:0;stroke-miterlimit:0;stroke-opacity:1"
       id="guid-d9e53a4f-69fc-46a7-9c1e-b13b52292838"
       cx="18.500158"
       cy="44.5"
       inkscape:label="PM Attn"
       rx="2.500025"
       ry="2.5">
      <title
         id="title4">PM Attn</title>
    </ellipse>
    <ellipse
       style="display:inline;fill:#00ff00;fill-opacity:1;stroke:#00ff00;stroke-width:0;stroke-miterlimit:0;stroke-opacity:1"
       id="guid-86ad5fe8-16fa-40cc-887b-735f5e6b3c3c"
       cx="6.5000381"
       cy="44.5"
       inkscape:label="PM In"
       rx="2.500025"
       ry="2.5">
      <title
         id="title3">PM In</title>
    </ellipse>
    <ellipse
       style="display:inline;fill:#ff0000;fill-opacity:1;stroke:#ff0000;stroke-width:0;stroke-miterlimit:0;stroke-opacity:1"
       id="path1-3-2"
       cx="18.500158"
       cy="29.5"
       inkscape:label="FM Attn"
       rx="2.500025"
       ry="2.5" />
    <ellipse
       style="display:inline;fill:#00ff00;fill-opacity:1;stroke:#00ff00;stroke-width:0;stroke-miterlimit:0;stroke-opacity:1"
       id="guif-b36c6462-3c82-4ef8-8787-623bff0e9651"
       cx="6.5000381"
       cy="29.5"
       inkscape:label="FM In"
       rx="2.500025"
       ry="2.5">
      <title
         id="title2">FM In</title>
    </ellipse>
    <circle
       style="display:inline;fill:#00ff00;fill-opacity:1;stroke:#00ff00;stroke-width:0;stroke-miterlimit:0;stroke-opacity:1"
       id="guid-0c6a422c-8084-4159-921d-08edca51f80f"
       cx="7"
       cy="14"
       inkscape:label="V-Oct In"
       r="2.5">
      <title
         id="title1">V-Oct In</title>
    </circle>
  </g>
  <metadata
     id="metadata8">
    <rdf:RDF>
      <cc:Work
         rdf:about="">
        <dc:title>STS Template Medium</dc:title>
        <dc:date>Jan 2, 2024</dc:date>
        <dc:creator>
          <cc:Agent>
            <dc:title>Marinko Laban</dc:title>
          </cc:Agent>
        </dc:creator>
        <dc:rights>
          <cc:Agent>
            <dc:title>(C) SmarTazz Studio</dc:title>
          </cc:Agent>
        </dc:rights>
      </cc:Work>
    </rdf:RDF>
  </metadata>
</svg>
