<?xml version="1.0" encoding="UTF-8" standalone="no"?>
<!-- Created with Inkscape (http://www.inkscape.org/) -->

<svg
   width="25.4mm"
   height="128.5mm"
   viewBox="0 0 25.4 128.5"
   version="1.1"
   id="svg1"
   inkscape:version="1.3.2 (091e20e, 2023-11-25, custom)"
   sodipodi:docname="STS-Triangle-VCO.svg"
   xmlns:inkscape="http://www.inkscape.org/namespaces/inkscape"
   xmlns:sodipodi="http://sodipodi.sourceforge.net/DTD/sodipodi-0.dtd"
   xmlns="http://www.w3.org/2000/svg"
   xmlns:svg="http://www.w3.org/2000/svg"
   xmlns:rdf="http://www.w3.org/1999/02/22-rdf-syntax-ns#"
   xmlns:cc="http://creativecommons.org/ns#"
   xmlns:dc="http://purl.org/dc/elements/1.1/">
  <title
     id="title8">STS Template Medium</title>
  <sodipodi:namedview
     id="namedview1"
     pagecolor="#ffffff"
     bordercolor="#000000"
     borderopacity="0.25"
     inkscape:showpageshadow="2"
     inkscape:pageopacity="0.0"
     inkscape:pagecheckerboard="false"
     inkscape:deskcolor="#d1d1d1"
     inkscape:document-units="mm"
     inkscape:zoom="2.0274078"
     inkscape:cx="70.286797"
     inkscape:cy="184.96525"
     inkscape:window-width="1920"
     inkscape:window-height="1010"
     inkscape:window-x="-6"
     inkscape:window-y="-6"
     inkscape:window-maximized="1"
     inkscape:current-layer="layer1" />
  <defs
     id="defs1">
    <rect
       x="-188.91118"
       y="163.26267"
       width="59.188883"
       height="31.567404"
       id="rect1" />
    <rect
       x="-188.91118"
       y="163.26266"
       width="59.188885"
       height="31.567404"
       id="rect1-7" />
    <rect
       x="-188.91118"
       y="163.26266"
       width="59.188885"
       height="31.567404"
       id="rect1-7-3" />
    <rect
       x="-188.91118"
       y="163.26266"
       width="59.188885"
       height="31.567404"
       id="rect1-7-3-9" />
    <rect
       x="-188.91118"
       y="163.26266"
       width="59.188885"
       height="31.567404"
       id="rect1-9" />
    <rect
       x="-188.91118"
       y="163.26266"
       width="59.188885"
       height="31.567404"
       id="rect1-7-3-9-5" />
    <rect
       x="-188.91118"
       y="163.26266"
       width="59.188885"
       height="31.567404"
       id="rect1-7-3-9-7" />
    <rect
       x="-188.91118"
       y="163.26266"
       width="59.188885"
       height="31.567404"
       id="rect1-7-3-97" />
    <rect
       x="-188.91118"
       y="163.26266"
       width="59.188885"
       height="31.567404"
       id="rect1-7-3-97-3" />
    <rect
       x="-188.91118"
       y="163.26266"
       width="59.188885"
       height="31.567404"
       id="rect1-7-3-97-3-8" />
    <rect
       x="-188.91118"
       y="163.26266"
       width="59.188885"
       height="31.567404"
       id="rect1-7-3-97-3-8-3" />
    <rect
       x="-188.91118"
       y="163.26266"
       width="59.188885"
       height="31.567404"
       id="rect1-7-3-97-3-8-3-9" />
    <rect
       x="-188.91118"
       y="163.26266"
       width="59.188885"
       height="31.567404"
       id="rect1-7-3-97-3-8-3-9-8" />
    <rect
       x="-188.91118"
       y="163.26266"
       width="59.188885"
       height="31.567404"
       id="rect1-7-3-97-3-8-3-9-8-4" />
  </defs>
  <g
     inkscape:label="Layer 1"
     inkscape:groupmode="layer"
     id="layer1"
     style="display:inline">
    <rect
       style="fill:#93b5cf;fill-opacity:1;stroke:#93b5cf;stroke-width:0.065;stroke-linejoin:miter;stroke-miterlimit:0;stroke-dasharray:none;stroke-opacity:1;paint-order:normal"
       id="guid-133bc867-ad6a-494a-bd77-ef0c326a6449"
       width="25.334633"
       height="128.43465"
       x="0.032499999"
       y="0.032683566"
       ry="0"
       inkscape:transform-center-x="0.13475906"
       inkscape:transform-center-y="11.262005"
       inkscape:label="Panel">
      <title
         id="title27">Panel</title>
    </rect>
    <rect
       style="font-size:3.175px;font-family:'Comic Sans MS';-inkscape-font-specification:'Comic Sans MS, Normal';text-align:center;text-anchor:middle;display:inline;fill:#c0c0c0;fill-opacity:1;stroke:#505050;stroke-width:0.167486;stroke-miterlimit:0;stroke-dasharray:none;stroke-opacity:1"
       id="guid-5b20c061-18d6-436b-9422-6e5ea1c08229"
       width="9.8325138"
       height="9.8325138"
       x="2.0837431"
       y="9.0837431"
       ry="2.3805037"
       inkscape:label="Input Block">
      <desc
         id="desc7">Input Block</desc>
      <title
         id="title7">Input Block</title>
    </rect>
    <rect
       style="font-size:3.175px;font-family:'Comic Sans MS';-inkscape-font-specification:'Comic Sans MS, Normal';text-align:center;text-anchor:middle;display:inline;fill:#a0a0a0;fill-opacity:1;stroke:#505050;stroke-width:0.167486;stroke-miterlimit:0;stroke-dasharray:none;stroke-opacity:1"
       id="guid-17a95c6b-1a97-4263-9d0a-42aa97d28769"
       width="9.8325138"
       height="9.8325138"
       x="13.483743"
       y="9.0837431"
       ry="2.3805037"
       inkscape:label="Output Block">
      <desc
         id="desc7-0">Input Block</desc>
      <title
         id="title7-9">Output Block</title>
    </rect>
    <g
       id="guid-836c62ac-2363-4971-88ce-5a5d0a73b10b"
       style="font-size:3.175px;font-family:'Comic Sans MS';-inkscape-font-specification:'Comic Sans MS, Normal';text-align:center;text-anchor:middle;stroke:#000000;stroke-width:0;stroke-miterlimit:0"
       inkscape:label="Brand"
       aria-label="Sm@rTAZZ&#10;Studio"
       transform="matrix(0.99997702,0,0,1,8.1047871e-5,-3.81625)">
      <path
         d="m 3.5270624,121.95735 q -0.00155,-0.0651 0.043408,-0.10542 0.046509,-0.0419 0.1131713,-0.0419 0.075964,0 0.1333252,0.0868 0.079065,0.11783 0.1410767,0.15968 0.1317749,0.0868 0.3829224,0.0868 0.2402954,0 0.4464843,-0.10387 0.2635498,-0.13332 0.2635498,-0.37052 0,-0.19534 -0.2216919,-0.30851 -0.1875854,-0.0977 -0.4635376,-0.10542 -0.2449462,-0.009 -0.4170288,-0.10697 -0.2201416,-0.12557 -0.2201416,-0.35967 0,-0.27595 0.3131592,-0.50384 0.2992066,-0.21549 0.6185669,-0.21549 0.1503784,0 0.3395142,0.0512 0.2511474,0.0667 0.2511474,0.17053 0,0.13643 -0.1395264,0.13643 -0.062012,0 -0.217041,-0.0326 -0.1550293,-0.0341 -0.2402954,-0.0326 -0.2418457,0.003 -0.4108276,0.11938 -0.1736328,0.11937 -0.1736328,0.2899 0,0.12868 0.2294433,0.18139 0.085266,0.0202 0.3302124,0.0372 0.3550171,0.0264 0.5550049,0.22324 0.1829346,0.17984 0.1829346,0.43874 0,0.36897 -0.3410645,0.58911 -0.2961059,0.19069 -0.6867797,0.19069 -0.2837036,0 -0.5193482,-0.10853 -0.2883545,-0.13332 -0.2930053,-0.36586 z m 4.1780395,0.51469 q -0.127124,0 -0.1488281,-0.13487 -0.027905,-0.17053 -0.055811,-0.48059 l -0.05271,-0.48059 q -0.015503,-0.10697 -0.05271,-0.20929 -0.05271,-0.13953 -0.1147217,-0.13953 -0.057361,0 -0.2139404,0.0977 -0.1488281,0.0899 -0.1953369,0.14418 -0.00155,0.14572 0.00775,0.29145 l 0.046509,0.41393 q 0.029456,0.24495 0.029456,0.40463 0,0.0682 -0.043408,0.11162 -0.041858,0.045 -0.1085205,0.045 -0.066663,0 -0.1100708,-0.045 -0.041858,-0.0434 -0.041858,-0.11162 0,-0.18759 -0.038757,-0.55346 -0.037207,-0.36742 -0.037207,-0.555 0,-0.16434 -0.046509,-0.2558 -0.1085205,0.0496 -0.2201416,0.16123 l -0.1829345,0.20464 q -0.024805,0.0372 -0.079065,0.0977 0,0.093 -0.017053,0.2744 -0.017053,0.18138 -0.017053,0.2682 0,0.0465 0.013953,0.13022 0.015503,0.0837 0.015503,0.12093 0,0.0636 -0.048059,0.10697 -0.046509,0.0434 -0.1100708,0.0434 -0.1751831,0 -0.1751831,-0.39842 0,-0.093 0.017053,-0.2775 0.017053,-0.18449 0.017053,-0.27751 0,-0.0822 -0.015503,-0.24649 -0.013953,-0.16433 -0.013953,-0.24805 0,-0.35192 0.1581299,-0.35192 0.060461,0 0.1100708,0.0527 0.05116,0.0527 0.05116,0.11472 0,0.0295 -0.00775,0.0915 -0.00775,0.062 -0.00775,0.0946 l 0.0031,0.16278 q 0.080615,-0.16588 0.2371949,-0.29921 0.1565796,-0.13487 0.2666504,-0.13487 0.2433959,0 0.3348632,0.24184 0.085266,-0.11317 0.2030884,-0.16898 0.1178223,-0.0574 0.269751,-0.0574 0.2588989,0 0.3534668,0.27905 0.018604,0.0558 0.063562,0.43564 0.043408,0.26665 0.1116211,0.88831 0.00465,0.062 -0.041858,0.10542 -0.046509,0.0434 -0.1131714,0.0434 z m 2.3068361,-0.76739 q -0.1643313,0 -0.2837039,-0.0481 -0.1193725,-0.0481 -0.1922363,-0.14263 -0.083716,0.0822 -0.1643311,0.12403 -0.079065,0.0418 -0.1550293,0.0418 -0.1720825,0 -0.3255615,-0.13952 -0.1519287,-0.14108 -0.1519287,-0.30851 0,-0.28681 0.2247925,-0.524 0.2263428,-0.2372 0.513147,-0.2372 0.065112,0 0.1085205,0.0481 0.043408,0.0481 0.043408,0.11628 0,0.093 -0.1550293,0.13797 -0.206189,0.0589 -0.2914551,0.13488 -0.1255737,0.11007 -0.1255737,0.32401 0,0.045 0.041858,0.0868 0.048059,0.0465 0.1193725,0.0434 0.1348755,-0.006 0.2495972,-0.25114 0.1038696,-0.21394 0.1844849,-0.21394 0.065112,0 0.1054199,0.048 0.040308,0.0481 0.040308,0.11783 0,0.031 -0.010852,0.093 -0.0093,0.062 -0.0093,0.093 0,0.10077 0.086816,0.12713 0.034106,0.0109 0.1472784,0.0109 0.21239,0 0.297656,-0.10387 0.07752,-0.093 0.07752,-0.30851 0,-0.37982 -0.305408,-0.62012 -0.2790531,-0.22014 -0.6666264,-0.22014 -0.4511352,0 -0.7069335,0.34107 -0.2309937,0.30385 -0.2309937,0.76429 0,0.42478 0.2713013,0.71624 0.2821533,0.30385 0.7255371,0.30385 0.1255737,0 0.2837036,-0.0481 l 0.2713016,-0.10077 q 0.06821,-0.0248 0.08837,-0.0248 0.06356,0 0.11007,0.0512 0.04651,0.0496 0.04651,0.11627 0,0.14728 -0.3302125,0.23875 -0.2495971,0.0682 -0.4666381,0.0682 -0.2185913,0 -0.4480347,-0.0853 -0.2278931,-0.0837 -0.3906738,-0.22479 -0.4805908,-0.41548 -0.4805908,-1.01079 0,-0.59531 0.3286621,-0.99529 0.3488159,-0.42788 0.9286254,-0.42788 0.5239991,0 0.8976204,0.31471 0.392224,0.33331 0.392224,0.84336 0,0.34882 -0.170533,0.5364 -0.178283,0.19379 -0.522448,0.19379 z m 2.353345,-0.50695 q -0.01085,0.19379 -0.15503,0.19379 -0.133325,0 -0.133325,-0.15348 0,-0.0295 -0.0047,-0.10852 l -0.0047,-0.13023 q -0.244946,0.0295 -0.392224,0.13798 -0.137976,0.10077 -0.229443,0.30386 l 0.0031,0.84956 q 0,0.15658 -0.153479,0.15658 -0.136426,0 -0.136426,-0.15658 v -1.08831 q 0,-0.0512 0.0031,-0.15348 0.0047,-0.10232 0.0047,-0.15348 0,-0.15657 0.136426,-0.15657 0.151929,0 0.153479,0.25734 0.297656,-0.2868 0.660425,-0.2868 0.125574,0 0.187585,0.0946 0.06201,0.0946 0.06201,0.28525 0,0.0806 -0.0015,0.10852 z m 2.215368,-0.81235 q -0.114722,0 -0.353467,-0.0186 -0.232544,-0.0171 -0.353467,-0.0155 h -0.11007 q 0.0047,0.21394 0.04186,0.69453 0.03411,0.44804 0.03411,0.69608 0,0.0543 0.01085,0.16434 0.01085,0.11007 0.01085,0.16588 0,0.10542 -0.03411,0.18138 -0.04341,0.10232 -0.134876,0.10232 -0.06201,0 -0.111621,-0.0434 -0.04961,-0.0434 -0.04961,-0.11162 0,-0.0232 0.0078,-0.0698 0.0078,-0.0465 0.0078,-0.0698 0,-0.076 -0.01085,-0.2279 -0.0093,-0.15193 -0.0093,-0.22944 0,-0.22169 -0.03566,-0.62322 -0.03721,-0.43408 -0.04186,-0.62322 l -0.141077,0.002 q -0.339514,0 -0.5333,-0.0496 -0.125574,-0.0326 -0.125574,-0.15347 0,-0.0636 0.04031,-0.11163 0.04651,-0.0543 0.119372,-0.0496 0.05426,0.003 0.248047,0.0279 0.155029,0.0186 0.251147,0.0186 0.09302,0 0.282154,-0.003 0.189136,-0.005 0.282153,-0.005 0.119373,0 0.353467,0.0171 0.235644,0.017 0.355017,0.017 0.06666,0 0.111621,0.0465 0.04496,0.045 0.04496,0.11317 0,0.0667 -0.04496,0.11317 -0.04496,0.045 -0.111621,0.045 z m 1.984375,2.00453 q -0.142627,0 -0.248047,-0.36587 -0.04031,-0.13953 -0.100769,-0.48834 -0.15813,0.0217 -0.413928,0.0775 l -0.412378,0.0853 q -0.07752,0.20309 -0.2651,0.59376 -0.04961,0.0868 -0.134876,0.0868 -0.06201,0 -0.111621,-0.045 -0.04806,-0.045 -0.04806,-0.11162 0,-0.0744 0.234094,-0.56586 -0.02636,-0.0403 -0.02636,-0.093 0,-0.12557 0.151929,-0.16123 0.176733,-0.33176 0.446484,-0.76274 0.36742,-0.58756 0.457337,-0.58756 0.122473,0 0.167431,0.17053 l 0.09767,0.5209 0.230994,1.07745 0.08837,0.24495 q 0.04496,0.12557 0.04496,0.16743 0,0.0667 -0.04806,0.11162 -0.04806,0.045 -0.110071,0.045 z m -0.547254,-1.77199 -0.443383,0.71469 q 0.187585,-0.0481 0.568957,-0.11627 z m 2.894398,-0.21394 -0.20929,0.14263 q -0.282153,0.21859 -0.638721,0.69918 l -0.544153,0.7922 q -0.03876,0.0589 -0.07596,0.10852 l 0.603064,-0.0232 q 0.395325,-0.0186 0.604614,-0.0186 0.204639,0 0.302307,0.0186 0.125574,0.0248 0.130225,0.12712 0.0031,0.076 -0.04961,0.12092 -0.04651,0.0388 -0.116272,0.0388 -0.04496,0 -0.134876,-0.006 -0.08992,-0.005 -0.134875,-0.005 -0.235645,0 -0.708484,0.0109 -0.471289,0.0124 -0.706934,0.0124 -0.178283,0 -0.178283,-0.15658 0,-0.10232 0.09612,-0.25734 l 0.165881,-0.231 0.559656,-0.77825 q 0.345715,-0.45733 0.643371,-0.71003 l -0.542602,0.031 H 17.35103 q -0.01705,0 -0.05116,0.003 -0.03256,0.002 -0.04806,0.002 -0.164331,0 -0.164331,-0.15968 0,-0.10542 0.08372,-0.13953 0.05116,-0.0217 0.168982,-0.0217 0.10697,0 0.31781,0.0233 0.21239,0.0217 0.31936,0.0217 0.119372,0 0.356567,-0.0155 0.238745,-0.0155 0.359668,-0.0155 0.398426,0 0.398426,0.15038 0,0.10232 -0.179834,0.23564 z m 2.201416,0 -0.20929,0.14263 q -0.282153,0.21859 -0.638721,0.69918 l -0.544152,0.7922 q -0.03876,0.0589 -0.07597,0.10852 l 0.603064,-0.0232 q 0.395325,-0.0186 0.604614,-0.0186 0.204639,0 0.302307,0.0186 0.125574,0.0248 0.130225,0.12712 0.0031,0.076 -0.04961,0.12092 -0.04651,0.0388 -0.116272,0.0388 -0.04496,0 -0.134876,-0.006 -0.08992,-0.005 -0.134875,-0.005 -0.235645,0 -0.708484,0.0109 -0.471289,0.0124 -0.706934,0.0124 -0.178283,0 -0.178283,-0.15658 0,-0.10232 0.09612,-0.25734 l 0.165881,-0.231 0.559656,-0.77825 q 0.345715,-0.45733 0.643371,-0.71003 l -0.542602,0.031 h -0.626318 q -0.01705,0 -0.05116,0.003 -0.03256,0.002 -0.04806,0.002 -0.164331,0 -0.164331,-0.15968 0,-0.10542 0.08372,-0.13953 0.05116,-0.0217 0.168982,-0.0217 0.10697,0 0.31781,0.0233 0.21239,0.0217 0.31936,0.0217 0.119372,0 0.356567,-0.0155 0.238745,-0.0155 0.359668,-0.0155 0.398426,0 0.398426,0.15038 0,0.10232 -0.179834,0.23564 z"
         id="path2" />
      <path
         d="m 7.6570428,125.9261 q -0.00155,-0.0651 0.043408,-0.10542 0.046509,-0.0419 0.1131714,-0.0419 0.075964,0 0.1333251,0.0868 0.079065,0.11783 0.1410767,0.15968 0.1317749,0.0868 0.3829224,0.0868 0.2402954,0 0.4464843,-0.10387 0.2635498,-0.13332 0.2635498,-0.37052 0,-0.19534 -0.2216919,-0.30851 -0.1875854,-0.0977 -0.4635376,-0.10542 -0.2449462,-0.009 -0.4170288,-0.10697 -0.2201416,-0.12557 -0.2201416,-0.35967 0,-0.27595 0.3131592,-0.50384 0.2992066,-0.21549 0.6185669,-0.21549 0.1503784,0 0.3395142,0.0512 0.2511474,0.0667 0.2511474,0.17053 0,0.13643 -0.1395263,0.13643 -0.062012,0 -0.2170411,-0.0326 -0.1550293,-0.0341 -0.2402954,-0.0326 -0.2418457,0.003 -0.4108276,0.11938 -0.1736328,0.11937 -0.1736328,0.2899 0,0.12868 0.2294434,0.18139 0.085266,0.0202 0.3302123,0.0372 0.3550171,0.0264 0.5550049,0.22324 0.1829346,0.17984 0.1829346,0.43874 0,0.36897 -0.3410645,0.58911 -0.2961059,0.19069 -0.6867797,0.19069 -0.2837036,0 -0.5193482,-0.10853 -0.2883545,-0.13332 -0.2930053,-0.36586 z m 3.2463132,-0.93483 q -0.03256,0 -0.07751,-0.003 -0.04341,-0.003 -0.07597,-0.003 -0.03566,0 -0.21084,0.0233 l 0.02946,0.91623 0.0015,0.0682 0.0016,0.0791 q 0.0062,0.33952 -0.162781,0.33952 -0.06201,0 -0.108521,-0.0403 -0.04496,-0.0403 -0.04496,-0.10077 0,-0.0589 0.0047,-0.17673 0.0047,-0.11783 0.0047,-0.17674 l -0.03101,-0.90537 q -0.113172,-0.005 -0.3441654,-0.0264 -0.137976,-0.0186 -0.137976,-0.15348 0,-0.0682 0.041858,-0.11317 0.041858,-0.045 0.1069702,-0.045 l 0.3255612,0.0263 q 0,-0.0791 -0.0078,-0.21084 -0.0062,-0.13332 -0.0062,-0.19223 0,-0.0651 0.04496,-0.10697 0.04496,-0.0434 0.110071,-0.0434 0.139526,0 0.162781,0.22789 0.0047,0.0574 0.0047,0.13798 l -0.0031,0.0899 -0.0015,0.0961 q 0.192236,-0.0248 0.220141,-0.0248 0.161231,0 0.21084,0.0155 0.09457,0.031 0.09457,0.14573 0,0.0682 -0.04341,0.11317 -0.04186,0.0434 -0.108521,0.0434 z m 1.723926,0.41548 q 0,0.11162 0.0015,0.33486 0.0016,0.22324 0.0016,0.33486 0,0.0341 0.0046,0.10387 0.0062,0.0698 0.0062,0.10387 0,0.0667 -0.04496,0.10852 -0.04496,0.0434 -0.110071,0.0434 -0.119372,0 -0.151928,-0.14728 -0.193787,0.10077 -0.446485,0.10077 -0.203088,0 -0.336413,-0.0899 -0.147278,-0.0992 -0.175183,-0.28991 -0.06046,-0.41083 -0.06046,-0.73174 0,-0.21239 0.04651,-0.48369 0.0217,-0.13487 0.147278,-0.13487 0.06666,0 0.111621,0.0434 0.04496,0.0419 0.04496,0.10852 0,0.0713 -0.02325,0.2279 -0.0217,0.15658 -0.0217,0.23874 0,0.2589 0.01705,0.44339 0.01705,0.18448 0.05116,0.2961 0.05116,0.0279 0.100769,0.0434 0.04961,0.014 0.09767,0.014 0.20774,0 0.438733,-0.0667 l -0.0015,-0.31471 -0.0031,-0.30076 q 0,-0.33486 0.02946,-0.58136 0.01705,-0.14262 0.150378,-0.14262 0.06666,0 0.111621,0.0434 0.04496,0.0434 0.04186,0.10852 z m 1.813843,-0.46354 q -0.0186,0.22789 -0.0186,0.45579 0,0.51624 0.04806,0.77979 0.0031,0.0217 0.0031,0.0357 0,0.062 -0.04341,0.10232 -0.04341,0.0403 -0.100769,0.0403 -0.09612,0 -0.141077,-0.13953 -0.111621,0.0822 -0.232544,0.12402 -0.119372,0.0419 -0.249597,0.0419 -0.320911,0 -0.531751,-0.21394 -0.217041,-0.21859 -0.217041,-0.5612 0,-0.41393 0.218592,-0.66353 0.220141,-0.2496 0.570508,-0.2496 0.179834,0 0.277502,0.0558 l 0.145728,0.10697 q 0.0217,-0.65267 0.05116,-0.87901 0.02015,-0.13798 0.141077,-0.13798 0.141076,0 0.141076,0.15038 0,0.21549 -0.06201,0.95188 z m -0.68833,0.0403 q -0.26045,0 -0.390674,0.15503 -0.130225,0.15348 -0.130225,0.46353 0,0.19999 0.141077,0.34417 0.142627,0.14418 0.333313,0.14418 0.130225,0 0.220142,-0.0481 0.05271,-0.0279 0.172082,-0.12868 0.02325,-0.0202 0.04496,-0.0481 l -0.0047,-0.2682 0.0015,-0.17983 0.0031,-0.18294 q -0.05891,-0.12557 -0.15658,-0.18758 -0.09767,-0.0636 -0.234094,-0.0636 z m 1.421619,-0.63407 q -0.07442,0 -0.128675,-0.0527 -0.05426,-0.0527 -0.05426,-0.12713 0,-0.0744 0.05426,-0.12712 0.05426,-0.0527 0.128675,-0.0527 0.07441,0 0.127124,0.0527 0.05426,0.0527 0.05426,0.12712 0,0.0744 -0.05426,0.12713 -0.05271,0.0527 -0.127124,0.0527 z m 0.06976,1.25884 q 0,0.093 0.0047,0.27905 0.0062,0.18448 0.0062,0.2775 0,0.0682 -0.04186,0.11162 -0.04186,0.0434 -0.110071,0.0434 -0.06666,0 -0.110071,-0.0434 -0.04186,-0.0434 -0.04186,-0.11162 0,-0.093 -0.0062,-0.2775 -0.0047,-0.18604 -0.0047,-0.27905 0,-0.14573 0.0155,-0.36277 0.0155,-0.21859 0.0155,-0.36432 0,-0.0698 0.04186,-0.11317 0.04341,-0.0434 0.110071,-0.0434 0.06666,0 0.10852,0.0434 0.04341,0.0434 0.04341,0.11317 0,0.14573 -0.0155,0.36432 -0.0155,0.21704 -0.0155,0.36277 z m 1.105358,0.7953 q -0.260449,0 -0.448034,-0.19224 -0.20929,-0.21394 -0.220142,-0.57516 -0.0093,-0.35037 0.176733,-0.61702 0.217041,-0.31471 0.604615,-0.31471 0.310058,0 0.469738,0.28371 0.127124,0.22944 0.122474,0.5519 -0.0047,0.34417 -0.179834,0.58756 -0.198438,0.27596 -0.52555,0.27596 z m 0.09302,-1.38442 q -0.227893,-0.002 -0.355017,0.21705 -0.100769,0.17518 -0.100769,0.39997 0,0.22479 0.122473,0.35037 0.102319,0.10387 0.240295,0.10387 0.161231,0 0.277503,-0.11783 0.131775,-0.13022 0.139526,-0.35191 0.0217,-0.59997 -0.324011,-0.60152 z"
         id="path3" />
      <desc
         id="desc6">Brand</desc>
      <title
         id="title6">Brand</title>
    </g>
    <rect
       style="display:inline;fill:#c0c0c0;fill-opacity:1;stroke:#505050;stroke-width:0.214884;stroke-miterlimit:0;stroke-dasharray:none;stroke-opacity:1"
       id="guid-e177fcca-23db-4d9a-8f50-21ab1e5511d2"
       width="23.03142"
       height="43.785118"
       x="1.1145678"
       y="24.568306"
       ry="2.0181518"
       inkscape:label="Modulation Block">
      <desc
         id="desc9">Output Block</desc>
      <title
         id="title9">Modulation Block</title>
    </rect>
    <rect
       style="display:inline;fill:#c0c0c0;fill-opacity:1;stroke:#505050;stroke-width:0.213348;stroke-miterlimit:0;stroke-dasharray:none;stroke-opacity:1"
       id="guid-c6124b5b-7089-4f40-8008-45f5eb46cf5e"
       width="23.032955"
       height="43.158672"
       x="0.90042377"
       y="70.106674"
       ry="1.9892776"
       inkscape:label="Parameter Block">
      <desc
         id="desc9-4">Output Block</desc>
      <title
         id="title9-9">Parameter Block</title>
    </rect>
    <path
       d="m -168.4082,169.88718 q 0,-2.13867 1.14843,-3.34571 1.14844,-1.21289 2.96485,-1.21289 1.18945,0 2.14453,0.56836 0.95508,0.56836 1.45312,1.58789 0.50391,1.01368 0.50391,2.30274 0,1.30664 -0.52734,2.33789 -0.52735,1.03125 -1.49414,1.56445 -0.9668,0.52735 -2.08594,0.52735 -1.21289,0 -2.16797,-0.58594 -0.95508,-0.58594 -1.44727,-1.59961 -0.49218,-1.01367 -0.49218,-2.14453 z m 1.17187,0.0176 q 0,1.55273 0.83203,2.44921 0.83789,0.89063 2.09766,0.89063 1.2832,0 2.10937,-0.90234 0.83204,-0.90235 0.83204,-2.56055 0,-1.04883 -0.35743,-1.82813 -0.35156,-0.78515 -1.03711,-1.21289 -0.67968,-0.43359 -1.52929,-0.43359 -1.20703,0 -2.08008,0.83203 -0.86719,0.82617 -0.86719,2.76563 z m 12.45117,4.16601 v -0.91406 q -0.72656,1.05469 -1.97461,1.05469 -0.55078,0 -1.03125,-0.21094 -0.4746,-0.21094 -0.70898,-0.52734 -0.22852,-0.32227 -0.32227,-0.78516 -0.0644,-0.31055 -0.0644,-0.98438 v -3.85546 h 1.05469 v 3.45117 q 0,0.82617 0.0644,1.11328 0.0996,0.41601 0.42188,0.65625 0.32226,0.23437 0.79687,0.23437 0.47461,0 0.89063,-0.24023 0.41601,-0.24609 0.58593,-0.66211 0.17579,-0.42188 0.17579,-1.21875 v -3.33398 h 1.05468 v 6.22265 z m 4.89844,-0.94336 0.15235,0.93164 q -0.44532,0.0937 -0.79688,0.0937 -0.57422,0 -0.89062,-0.18164 -0.31641,-0.18164 -0.44532,-0.47461 -0.1289,-0.29883 -0.1289,-1.24804 v -3.58008 h -0.77344 v -0.82031 h 0.77344 v -1.54102 l 1.04882,-0.63281 v 2.17383 h 1.06055 v 0.82031 h -1.06055 v 3.63867 q 0,0.45117 0.0527,0.58008 0.0586,0.1289 0.18164,0.20508 0.12891,0.0762 0.36328,0.0762 0.17578,0 0.46289,-0.041 z"
       id="guid-37658660-4641-49a3-b4d1-90e9afedfbba"
       style="font-size:12px;font-family:Arial;-inkscape-font-specification:'Arial, Normal';text-align:center;white-space:pre;stroke:#00ff00;stroke-width:0;stroke-miterlimit:0"
       inkscape:label="Out label"
       transform="matrix(0.26458333,0,0,0.26458333,60.958003,-23.743187)"
       aria-label="Out">
      <title
         id="title26">Out label</title>
    </path>
    <path
       style="font-size:12px;font-family:Arial;-inkscape-font-specification:'Arial, Normal';text-align:center;white-space:pre;stroke:#000000;stroke-width:0;stroke-miterlimit:0"
       d="m -174.39355,174.07077 v -8.58984 h 3.24023 q 0.85547,0 1.30664,0.082 0.63281,0.10547 1.06055,0.4043 0.42773,0.29296 0.68554,0.82617 0.26368,0.5332 0.26368,1.17187 0,1.09571 -0.69727,1.85742 -0.69727,0.75586 -2.51953,0.75586 h -2.20313 v 3.49219 z m 1.13671,-4.50586 h 2.22071 q 1.10156,0 1.56445,-0.41015 0.46289,-0.41016 0.46289,-1.1543 0,-0.53906 -0.27539,-0.91992 -0.26953,-0.38672 -0.71484,-0.50977 -0.28711,-0.0762 -1.06055,-0.0762 h -2.19727 z m 6.83204,4.50586 v -8.58984 h 1.71093 l 2.03321,6.08203 q 0.28125,0.84961 0.41015,1.27148 0.14649,-0.46875 0.45703,-1.37695 l 2.05664,-5.97656 h 1.5293 v 8.58984 h -1.0957 v -7.18945 l -2.4961,7.18945 h -1.02539 l -2.48437,-7.3125 v 7.3125 z m 9.48632,-2.57812 v -1.06055 h 3.24024 v 1.06055 z m 4.73438,2.57812 v -8.58984 h 1.13672 v 8.58984 z m 3.00586,0 v -6.22265 h 0.94922 v 0.88476 q 0.68554,-1.02539 1.98047,-1.02539 0.5625,0 1.03125,0.20508 0.4746,0.19922 0.70898,0.52734 0.23437,0.32813 0.32812,0.7793 0.0586,0.29297 0.0586,1.02539 v 3.82617 h -1.05469 v -3.78515 q 0,-0.64454 -0.12305,-0.96094 -0.12304,-0.32227 -0.43945,-0.50977 -0.31055,-0.19336 -0.73242,-0.19336 -0.67383,0 -1.16602,0.42774 -0.48632,0.42773 -0.48632,1.62304 v 3.39844 z"
       id="guid-cf0d8384-f17a-4bb3-93d2-d556ab45062b"
       transform="matrix(0.26458597,0,0,0.26458333,49.055192,6.216505)"
       aria-label="PM-In"
       inkscape:label="PM-In label">
      <title
         id="title25">PM-In label</title>
    </path>
    <path
       style="font-size:12px;font-family:Arial;-inkscape-font-specification:'Arial, Normal';text-align:center;white-space:pre;stroke:#000000;stroke-width:0;stroke-miterlimit:0"
       d="m -173.99805,174.07077 v -8.58984 h 5.79493 v 1.01367 h -4.65821 v 2.66016 h 4.03125 v 1.01367 h -4.03125 v 3.90234 z m 7.23633,0 v -8.58984 h 1.71094 l 2.0332,6.08203 q 0.28125,0.84961 0.41016,1.27148 0.14648,-0.46875 0.45703,-1.37695 l 2.05664,-5.97656 h 1.5293 v 8.58984 h -1.09571 v -7.18945 l -2.49609,7.18945 h -1.02539 l -2.48438,-7.3125 v 7.3125 z m 9.48633,-2.57812 v -1.06055 h 3.24023 v 1.06055 z m 4.73437,2.57812 v -8.58984 h 1.13672 v 8.58984 z m 3.00586,0 v -6.22265 h 0.94922 v 0.88476 q 0.68555,-1.02539 1.98047,-1.02539 0.5625,0 1.03125,0.20508 0.47461,0.19922 0.70899,0.52734 0.23437,0.32813 0.32812,0.7793 0.0586,0.29297 0.0586,1.02539 v 3.82617 h -1.05468 v -3.78515 q 0,-0.64454 -0.12305,-0.96094 -0.12305,-0.32227 -0.43945,-0.50977 -0.31055,-0.19336 -0.73242,-0.19336 -0.67383,0 -1.16602,0.42774 -0.48633,0.42773 -0.48633,1.62304 v 3.39844 z"
       id="guid-ac70a577-6f01-4c9e-a4c6-03339188387c"
       transform="matrix(0.26458597,0,0,0.26458333,49.284901,-8.783495)"
       aria-label="FM-In"
       inkscape:label="FM-In label">
      <title
         id="title24">FM-In label</title>
    </path>
    <path
       style="font-size:12px;font-family:Arial;-inkscape-font-specification:'Arial, Normal';text-align:center;white-space:pre;stroke:#000000;stroke-width:0;stroke-miterlimit:0"
       d="m -179.00488,174.07077 v -8.58984 h 5.79492 v 1.01367 h -4.6582 v 2.66016 h 4.03125 v 1.01367 h -4.03125 v 3.90234 z m 7.23633,0 v -8.58984 h 1.71093 l 2.03321,6.08203 q 0.28125,0.84961 0.41015,1.27148 0.14649,-0.46875 0.45703,-1.37695 l 2.05664,-5.97656 h 1.5293 v 8.58984 h -1.0957 v -7.18945 l -2.4961,7.18945 h -1.02539 l -2.48437,-7.3125 v 7.3125 z m 11.75976,0 3.29883,-8.58984 h 1.22461 l 3.51562,8.58984 h -1.29492 l -1.00195,-2.60156 h -3.5918 l -0.94336,2.60156 z m 2.47852,-3.52734 h 2.91211 l -0.89649,-2.37891 q -0.41015,-1.08398 -0.60937,-1.78125 -0.16407,0.82617 -0.46289,1.64063 z m 8.63672,2.58398 0.15234,0.93164 q -0.44531,0.0937 -0.79688,0.0937 -0.57421,0 -0.89062,-0.18164 -0.31641,-0.18164 -0.44531,-0.47461 -0.12891,-0.29883 -0.12891,-1.24804 v -3.58008 h -0.77344 v -0.82031 h 0.77344 v -1.54102 l 1.04883,-0.63281 v 2.17383 h 1.06055 v 0.82031 h -1.06055 v 3.63867 q 0,0.45117 0.0527,0.58008 0.0586,0.1289 0.18164,0.20508 0.12891,0.0762 0.36328,0.0762 0.17579,0 0.4629,-0.041 z m 3.33398,0 0.15234,0.93164 q -0.44531,0.0937 -0.79687,0.0937 -0.57422,0 -0.89063,-0.18164 -0.3164,-0.18164 -0.44531,-0.47461 -0.12891,-0.29883 -0.12891,-1.24804 v -3.58008 h -0.77343 v -0.82031 h 0.77343 v -1.54102 l 1.04883,-0.63281 v 2.17383 h 1.06055 v 0.82031 h -1.06055 v 3.63867 q 0,0.45117 0.0527,0.58008 0.0586,0.1289 0.18164,0.20508 0.1289,0.0762 0.36328,0.0762 0.17578,0 0.46289,-0.041 z m 1.03125,0.94336 v -6.22265 h 0.94922 v 0.88476 q 0.68555,-1.02539 1.98047,-1.02539 0.5625,0 1.03125,0.20508 0.47461,0.19922 0.70898,0.52734 0.23438,0.32813 0.32813,0.7793 0.0586,0.29297 0.0586,1.02539 v 3.82617 h -1.05469 v -3.78515 q 0,-0.64454 -0.12304,-0.96094 -0.12305,-0.32227 -0.43946,-0.50977 -0.31054,-0.19336 -0.73242,-0.19336 -0.67383,0 -1.16601,0.42774 -0.48633,0.42773 -0.48633,1.62304 v 3.39844 z"
       id="guid-f4c2415b-d89d-4397-8c17-181637d51a17"
       transform="matrix(0.26458597,0,0,0.26458333,60.554794,-8.783495)"
       aria-label="FM Attn"
       inkscape:label="FM Attn label">
      <title
         id="title23">FM Attn label</title>
    </path>
    <path
       style="font-size:12px;font-family:Arial;-inkscape-font-specification:'Arial, Normal';text-align:center;white-space:pre;stroke:#000000;stroke-width:0;stroke-miterlimit:0"
       d="m -179.40039,174.07077 v -8.58984 h 3.24023 q 0.85547,0 1.30664,0.082 0.63282,0.10547 1.06055,0.4043 0.42774,0.29296 0.68555,0.82617 0.26367,0.5332 0.26367,1.17187 0,1.09571 -0.69727,1.85742 -0.69726,0.75586 -2.51953,0.75586 h -2.20312 v 3.49219 z m 1.13672,-4.50586 h 2.2207 q 1.10156,0 1.56445,-0.41015 0.4629,-0.41016 0.4629,-1.1543 0,-0.53906 -0.2754,-0.91992 -0.26953,-0.38672 -0.71484,-0.50977 -0.28711,-0.0762 -1.06055,-0.0762 h -2.19726 z m 6.83203,4.50586 v -8.58984 h 1.71094 l 2.0332,6.08203 q 0.28125,0.84961 0.41016,1.27148 0.14648,-0.46875 0.45703,-1.37695 l 2.05664,-5.97656 h 1.5293 v 8.58984 h -1.09571 v -7.18945 l -2.49609,7.18945 h -1.02539 l -2.48438,-7.3125 v 7.3125 z m 11.75977,0 3.29882,-8.58984 h 1.22461 l 3.51563,8.58984 h -1.29492 l -1.00196,-2.60156 h -3.59179 l -0.94336,2.60156 z m 2.47851,-3.52734 h 2.91211 l -0.89648,-2.37891 q -0.41016,-1.08398 -0.60938,-1.78125 -0.16406,0.82617 -0.46289,1.64063 z m 8.63672,2.58398 0.15234,0.93164 q -0.44531,0.0937 -0.79687,0.0937 -0.57422,0 -0.89063,-0.18164 -0.3164,-0.18164 -0.44531,-0.47461 -0.12891,-0.29883 -0.12891,-1.24804 v -3.58008 h -0.77343 v -0.82031 h 0.77343 v -1.54102 l 1.04883,-0.63281 v 2.17383 h 1.06055 v 0.82031 h -1.06055 v 3.63867 q 0,0.45117 0.0527,0.58008 0.0586,0.1289 0.18164,0.20508 0.1289,0.0762 0.36328,0.0762 0.17578,0 0.46289,-0.041 z m 3.33398,0 0.15235,0.93164 q -0.44531,0.0937 -0.79688,0.0937 -0.57422,0 -0.89062,-0.18164 -0.31641,-0.18164 -0.44531,-0.47461 -0.12891,-0.29883 -0.12891,-1.24804 v -3.58008 h -0.77344 v -0.82031 h 0.77344 v -1.54102 l 1.04883,-0.63281 v 2.17383 h 1.06054 v 0.82031 h -1.06054 v 3.63867 q 0,0.45117 0.0527,0.58008 0.0586,0.1289 0.18164,0.20508 0.12891,0.0762 0.36328,0.0762 0.17578,0 0.46289,-0.041 z m 1.03125,0.94336 v -6.22265 h 0.94922 v 0.88476 q 0.68555,-1.02539 1.98047,-1.02539 0.5625,0 1.03125,0.20508 0.47461,0.19922 0.70899,0.52734 0.23437,0.32813 0.32812,0.7793 0.0586,0.29297 0.0586,1.02539 v 3.82617 h -1.05468 v -3.78515 q 0,-0.64454 -0.12305,-0.96094 -0.12305,-0.32227 -0.43945,-0.50977 -0.31055,-0.19336 -0.73242,-0.19336 -0.67383,0 -1.16602,0.42774 -0.48633,0.42773 -0.48633,1.62304 v 3.39844 z"
       id="guid-678346f9-6204-405a-9cea-c57d2708c03f"
       transform="matrix(0.26459036,0,0,0.26458333,60.363069,6.216505)"
       aria-label="PM Attn"
       inkscape:label="PM Attn label">
      <title
         id="title22">PM Attn label</title>
    </path>
    <path
       style="font-size:12px;font-family:Arial;-inkscape-font-specification:'Arial, Normal';text-align:center;white-space:pre;stroke:#000000;stroke-width:0;stroke-miterlimit:0"
       d="m -176.94531,174.07077 -3.32813,-8.58984 h 1.23047 l 2.23242,6.24023 q 0.26953,0.75 0.45118,1.40625 0.19921,-0.70312 0.46289,-1.40625 l 2.32031,-6.24023 h 1.16015 l -3.36328,8.58984 z m 5.51367,0 v -8.58984 h 1.71094 l 2.0332,6.08203 q 0.28125,0.84961 0.41016,1.27148 0.14648,-0.46875 0.45703,-1.37695 l 2.05664,-5.97656 h 1.5293 v 8.58984 h -1.09571 v -7.18945 l -2.49609,7.18945 h -1.02539 l -2.48438,-7.3125 v 7.3125 z m 11.75977,0 3.29882,-8.58984 h 1.22461 l 3.51563,8.58984 h -1.29492 l -1.00196,-2.60156 h -3.59179 l -0.94336,2.60156 z m 2.47851,-3.52734 h 2.91211 l -0.89648,-2.37891 q -0.41016,-1.08398 -0.60938,-1.78125 -0.16406,0.82617 -0.46289,1.64063 z m 8.63672,2.58398 0.15234,0.93164 q -0.44531,0.0937 -0.79687,0.0937 -0.57422,0 -0.89063,-0.18164 -0.3164,-0.18164 -0.44531,-0.47461 -0.12891,-0.29883 -0.12891,-1.24804 v -3.58008 h -0.77343 v -0.82031 h 0.77343 v -1.54102 l 1.04883,-0.63281 v 2.17383 h 1.06055 v 0.82031 h -1.06055 v 3.63867 q 0,0.45117 0.0527,0.58008 0.0586,0.1289 0.18164,0.20508 0.1289,0.0762 0.36328,0.0762 0.17578,0 0.46289,-0.041 z m 3.33398,0 0.15235,0.93164 q -0.44531,0.0937 -0.79688,0.0937 -0.57422,0 -0.89062,-0.18164 -0.31641,-0.18164 -0.44531,-0.47461 -0.12891,-0.29883 -0.12891,-1.24804 v -3.58008 h -0.77344 v -0.82031 h 0.77344 v -1.54102 l 1.04883,-0.63281 v 2.17383 h 1.06054 v 0.82031 h -1.06054 v 3.63867 q 0,0.45117 0.0527,0.58008 0.0586,0.1289 0.18164,0.20508 0.12891,0.0762 0.36328,0.0762 0.17578,0 0.46289,-0.041 z m 1.03125,0.94336 v -6.22265 h 0.94922 v 0.88476 q 0.68555,-1.02539 1.98047,-1.02539 0.5625,0 1.03125,0.20508 0.47461,0.19922 0.70899,0.52734 0.23437,0.32813 0.32812,0.7793 0.0586,0.29297 0.0586,1.02539 v 3.82617 h -1.05468 v -3.78515 q 0,-0.64454 -0.12305,-0.96094 -0.12305,-0.32227 -0.43945,-0.50977 -0.31055,-0.19336 -0.73242,-0.19336 -0.67383,0 -1.16602,0.42774 -0.48633,0.42773 -0.48633,1.62304 v 3.39844 z"
       id="guid-60eabbb4-174c-4dbe-abb6-dd18b7d339ca"
       transform="matrix(0.26459036,0,0,0.26458333,60.467717,21.216505)"
       aria-label="VM Attn"
       inkscape:label="VM Attn label">
      <title
         id="title21">VM Attn label</title>
    </path>
    <path
       style="font-size:12px;font-family:Arial;-inkscape-font-specification:'Arial, Normal';text-align:center;white-space:pre;stroke:#000000;stroke-width:0;stroke-miterlimit:0"
       d="m -171.73047,174.07077 v -8.58984 h 3.24024 q 0.85546,0 1.30664,0.082 0.63281,0.10547 1.06054,0.4043 0.42774,0.29296 0.68555,0.82617 0.26367,0.5332 0.26367,1.17187 0,1.09571 -0.69726,1.85742 -0.69727,0.75586 -2.51953,0.75586 h -2.20313 v 3.49219 z m 1.13672,-4.50586 h 2.2207 q 1.10157,0 1.56446,-0.41015 0.46289,-0.41016 0.46289,-1.1543 0,-0.53906 -0.27539,-0.91992 -0.26953,-0.38672 -0.71485,-0.50977 -0.28711,-0.0762 -1.06054,-0.0762 h -2.19727 z m 6.73828,-2.87109 v -1.21289 h 1.05469 v 1.21289 z m 0,7.37695 v -6.22265 h 1.05469 v 6.22265 z m 4.96289,-0.94336 0.15235,0.93164 q -0.44532,0.0937 -0.79688,0.0937 -0.57422,0 -0.89062,-0.18164 -0.31641,-0.18164 -0.44532,-0.47461 -0.1289,-0.29883 -0.1289,-1.24804 v -3.58008 h -0.77344 v -0.82031 h 0.77344 v -1.54102 l 1.04883,-0.63281 v 2.17383 h 1.06054 v 0.82031 h -1.06054 v 3.63867 q 0,0.45117 0.0527,0.58008 0.0586,0.1289 0.18164,0.20508 0.12891,0.0762 0.36328,0.0762 0.17578,0 0.46289,-0.041 z m 5.0918,-1.33594 1.03711,0.13477 q -0.16992,1.07227 -0.87305,1.68164 -0.69726,0.60352 -1.7168,0.60352 -1.27734,0 -2.05664,-0.83203 -0.77343,-0.8379 -0.77343,-2.39649 0,-1.00781 0.33398,-1.76367 0.33399,-0.75586 1.01367,-1.13086 0.68555,-0.38086 1.48828,-0.38086 1.01368,0 1.65821,0.51563 0.64453,0.50976 0.82617,1.45312 l -1.02539,0.1582 q -0.14649,-0.62695 -0.52149,-0.94336 -0.36914,-0.3164 -0.89648,-0.3164 -0.79688,0 -1.29492,0.57422 -0.49805,0.56836 -0.49805,1.80468 0,1.25391 0.48047,1.82227 0.48047,0.56836 1.25391,0.56836 0.62109,0 1.03711,-0.38086 0.41601,-0.38086 0.52734,-1.17188 z m 1.93945,2.2793 v -8.58984 h 1.05469 v 3.08203 q 0.73828,-0.85547 1.86328,-0.85547 0.69141,0 1.20117,0.27539 0.50977,0.26953 0.72657,0.75 0.22265,0.48047 0.22265,1.39453 v 3.94336 h -1.05469 v -3.94336 q 0,-0.79101 -0.3457,-1.14844 -0.33984,-0.36328 -0.9668,-0.36328 -0.46875,0 -0.88476,0.2461 -0.41016,0.24023 -0.58594,0.65625 -0.17578,0.41601 -0.17578,1.14843 v 3.4043 z"
       id="guid-4e362417-c965-4f4f-a764-e104275f5997"
       transform="matrix(0.26458772,0,0,0.26458333,54.859428,36.216505)"
       aria-label="Pitch"
       inkscape:label="Pitch label">
      <title
         id="title20">Pitch label</title>
    </path>
    <path
       style="font-size:12px;font-family:Arial;-inkscape-font-specification:'Arial, Normal';text-align:center;white-space:pre;stroke:#000000;stroke-width:0;stroke-miterlimit:0"
       d="m -175.4043,174.07077 v -8.58984 h 3.24024 q 0.85547,0 1.30664,0.082 0.63281,0.10547 1.06055,0.4043 0.42773,0.29296 0.68554,0.82617 0.26367,0.5332 0.26367,1.17187 0,1.09571 -0.69726,1.85742 -0.69727,0.75586 -2.51953,0.75586 h -2.20313 v 3.49219 z m 1.13672,-4.50586 h 2.22071 q 1.10156,0 1.56445,-0.41015 0.46289,-0.41016 0.46289,-1.1543 0,-0.53906 -0.27539,-0.91992 -0.26953,-0.38672 -0.71485,-0.50977 -0.2871,-0.0762 -1.06054,-0.0762 h -2.19727 z m 6.73242,4.50586 v -8.58984 h 1.05469 v 3.08203 q 0.73828,-0.85547 1.86328,-0.85547 0.69141,0 1.20117,0.27539 0.50977,0.26953 0.72657,0.75 0.22265,0.48047 0.22265,1.39453 v 3.94336 h -1.05468 v -3.94336 q 0,-0.79101 -0.34571,-1.14844 -0.33984,-0.36328 -0.96679,-0.36328 -0.46875,0 -0.88477,0.2461 -0.41016,0.24023 -0.58594,0.65625 -0.17578,0.41601 -0.17578,1.14843 v 3.4043 z m 10.73438,-0.76758 q -0.58594,0.49805 -1.13086,0.70313 -0.53906,0.20508 -1.16016,0.20508 -1.02539,0 -1.57617,-0.49805 -0.55078,-0.50391 -0.55078,-1.2832 0,-0.45703 0.20508,-0.83203 0.21094,-0.38086 0.54492,-0.60938 0.33984,-0.22852 0.76172,-0.3457 0.31055,-0.082 0.9375,-0.15821 1.27734,-0.15234 1.88086,-0.36328 0.006,-0.21679 0.006,-0.27539 0,-0.64453 -0.29883,-0.9082 -0.4043,-0.35742 -1.20117,-0.35742 -0.74414,0 -1.10156,0.26367 -0.35157,0.25781 -0.52149,0.91992 l -1.03125,-0.14062 q 0.14063,-0.66211 0.46289,-1.06641 0.32227,-0.41016 0.93164,-0.62695 0.60938,-0.22266 1.41211,-0.22266 0.79688,0 1.29492,0.1875 0.49805,0.1875 0.73243,0.47461 0.23437,0.28125 0.32812,0.71484 0.0527,0.26953 0.0527,0.97266 v 1.40625 q 0,1.4707 0.0645,1.86328 0.0703,0.38672 0.26953,0.74414 h -1.10156 q -0.16407,-0.32812 -0.21094,-0.76758 z m -0.0879,-2.35547 q -0.57422,0.23438 -1.72266,0.39844 -0.65039,0.0937 -0.91992,0.21094 -0.26953,0.11719 -0.41602,0.3457 -0.14648,0.22266 -0.14648,0.49805 0,0.42187 0.31641,0.70312 0.32226,0.28125 0.9375,0.28125 0.60937,0 1.08398,-0.26367 0.47461,-0.26953 0.69727,-0.73242 0.16992,-0.35742 0.16992,-1.05469 z m 2.2793,1.26563 1.04296,-0.16406 q 0.0879,0.62695 0.48633,0.96093 0.4043,0.33399 1.125,0.33399 0.72656,0 1.07813,-0.29297 0.35156,-0.29883 0.35156,-0.69727 0,-0.35742 -0.31055,-0.5625 -0.21679,-0.14062 -1.07812,-0.35742 -1.16016,-0.29297 -1.61133,-0.5039 -0.44531,-0.2168 -0.67969,-0.5918 -0.22851,-0.38086 -0.22851,-0.83789 0,-0.41602 0.1875,-0.76758 0.19336,-0.35742 0.52148,-0.5918 0.24609,-0.18164 0.66797,-0.30468 0.42773,-0.12891 0.91406,-0.12891 0.73242,0 1.28321,0.21094 0.55664,0.21094 0.82031,0.57422 0.26367,0.35742 0.36328,0.96093 l -1.03125,0.14063 q -0.0703,-0.48047 -0.41016,-0.75 -0.33398,-0.26953 -0.94922,-0.26953 -0.72656,0 -1.03711,0.24023 -0.31054,0.24024 -0.31054,0.5625 0,0.20508 0.1289,0.36914 0.12891,0.16992 0.4043,0.28125 0.1582,0.0586 0.93164,0.26953 1.11914,0.29883 1.5586,0.49219 0.44531,0.1875 0.69726,0.55078 0.25195,0.36328 0.25195,0.90235 0,0.52734 -0.31054,0.99609 -0.30469,0.46289 -0.88477,0.7207 -0.58008,0.25196 -1.3125,0.25196 -1.21289,0 -1.85156,-0.50391 -0.63281,-0.50391 -0.80859,-1.49414 z m 10.68164,-0.14648 1.08984,0.13476 q -0.25781,0.95508 -0.95508,1.48242 -0.69726,0.52735 -1.78125,0.52735 -1.36523,0 -2.16797,-0.83789 -0.79687,-0.84375 -0.79687,-2.36133 0,-1.57031 0.80859,-2.4375 0.8086,-0.86719 2.09766,-0.86719 1.24804,0 2.03906,0.84961 0.79102,0.84961 0.79102,2.39062 0,0.0937 -0.006,0.28125 h -4.64063 q 0.0586,1.0254 0.58008,1.57032 0.52148,0.54492 1.30078,0.54492 0.58008,0 0.99024,-0.30469 0.41015,-0.30469 0.65039,-0.97265 z m -3.46289,-1.70508 h 3.4746 q -0.0703,-0.78516 -0.39843,-1.17774 -0.50391,-0.60937 -1.30664,-0.60937 -0.72657,0 -1.22461,0.48633 -0.49219,0.48632 -0.54492,1.30078 z"
       id="guid-c62db9bc-4c46-4e97-a41d-542dd05a9c53"
       transform="matrix(0.26458772,0,0,0.26458333,54.56367,51.216505)"
       aria-label="Phase"
       inkscape:label="Phase label">
      <title
         id="title19">Phase label</title>
    </path>
    <path
       style="font-size:12px;font-family:Arial;-inkscape-font-specification:'Arial, Normal';text-align:center;white-space:pre;stroke:#000000;stroke-width:0;stroke-miterlimit:0"
       d="m -175.94922,174.07077 -3.32812,-8.58984 h 1.23047 l 2.23242,6.24023 q 0.26953,0.75 0.45117,1.40625 0.19922,-0.70312 0.46289,-1.40625 l 2.32031,-6.24023 h 1.16016 l -3.36328,8.58984 z m 4.35938,-3.11133 q 0,-1.72851 0.96093,-2.56054 0.80274,-0.69141 1.95704,-0.69141 1.2832,0 2.09765,0.84375 0.81445,0.83789 0.81445,2.32031 0,1.20117 -0.36328,1.89258 -0.35742,0.68555 -1.04882,1.06641 -0.68555,0.38086 -1.5,0.38086 -1.30665,0 -2.11524,-0.83789 -0.80273,-0.83789 -0.80273,-2.41407 z m 1.08398,0 q 0,1.19532 0.52149,1.79297 0.52148,0.5918 1.3125,0.5918 0.78515,0 1.30664,-0.59766 0.52148,-0.59765 0.52148,-1.82226 0,-1.1543 -0.52734,-1.7461 -0.52149,-0.59765 -1.30078,-0.59765 -0.79102,0 -1.3125,0.59179 -0.52149,0.5918 -0.52149,1.78711 z m 5.95899,3.11133 v -8.58984 h 1.05468 v 8.58984 z m 6.76757,0 v -0.91406 q -0.72656,1.05469 -1.97461,1.05469 -0.55078,0 -1.03125,-0.21094 -0.47461,-0.21094 -0.70898,-0.52734 -0.22852,-0.32227 -0.32227,-0.78516 -0.0645,-0.31055 -0.0645,-0.98438 v -3.85546 h 1.05469 v 3.45117 q 0,0.82617 0.0644,1.11328 0.0996,0.41601 0.42188,0.65625 0.32226,0.23437 0.79687,0.23437 0.47461,0 0.89063,-0.24023 0.41601,-0.24609 0.58593,-0.66211 0.17579,-0.42188 0.17579,-1.21875 v -3.33398 h 1.05468 v 6.22265 z m 2.59571,0 v -6.22265 h 0.94336 v 0.87304 q 0.29296,-0.45703 0.77929,-0.73242 0.48633,-0.28125 1.10742,-0.28125 0.69141,0 1.13086,0.28711 0.44532,0.28711 0.62696,0.80273 0.73828,-1.08984 1.92187,-1.08984 0.92578,0 1.42383,0.51563 0.49805,0.50976 0.49805,1.57617 v 4.27148 h -1.04883 v -3.91992 q 0,-0.63281 -0.10547,-0.9082 -0.0996,-0.28125 -0.36914,-0.45118 -0.26953,-0.16992 -0.63281,-0.16992 -0.65625,0 -1.08985,0.43946 -0.43359,0.43359 -0.43359,1.39453 v 3.61523 h -1.05469 v -4.04297 q 0,-0.70312 -0.25781,-1.05468 -0.25781,-0.35157 -0.84375,-0.35157 -0.44531,0 -0.82617,0.23438 -0.375,0.23437 -0.54492,0.68554 -0.16993,0.45118 -0.16993,1.30079 v 3.22851 z m 14.25586,-2.0039 1.08984,0.13476 q -0.25781,0.95508 -0.95508,1.48242 -0.69726,0.52735 -1.78125,0.52735 -1.36523,0 -2.16797,-0.83789 -0.79687,-0.84375 -0.79687,-2.36133 0,-1.57031 0.80859,-2.4375 0.8086,-0.86719 2.09766,-0.86719 1.24804,0 2.03906,0.84961 0.79102,0.84961 0.79102,2.39062 0,0.0937 -0.006,0.28125 h -4.64063 q 0.0586,1.0254 0.58008,1.57032 0.52148,0.54492 1.30078,0.54492 0.58008,0 0.99024,-0.30469 0.41015,-0.30469 0.65039,-0.97265 z m -3.46289,-1.70508 h 3.4746 q -0.0703,-0.78516 -0.39843,-1.17774 -0.50391,-0.60937 -1.30664,-0.60937 -0.72657,0 -1.22461,0.48633 -0.49219,0.48632 -0.54492,1.30078 z"
       id="guid-f55fc6b0-4bfb-4d9e-abc7-1a4276d46e68"
       transform="matrix(0.26458772,0,0,0.26458333,54.492133,66.216505)"
       aria-label="Volume"
       inkscape:label="Volume label">
      <title
         id="title18">Volume label</title>
    </path>
    <path
       style="font-size:12px;font-family:Arial;-inkscape-font-specification:'Arial, Normal';text-align:center;white-space:pre;stroke:#000000;stroke-width:0;stroke-miterlimit:0"
       d="m -171.93848,174.07077 -3.32812,-8.58984 h 1.23047 l 2.23242,6.24023 q 0.26953,0.75 0.45117,1.40625 0.19922,-0.70312 0.46289,-1.40625 l 2.32031,-6.24023 h 1.16016 l -3.36328,8.58984 z m 5.51368,0 v -8.58984 h 1.71093 l 2.03321,6.08203 q 0.28125,0.84961 0.41015,1.27148 0.14649,-0.46875 0.45703,-1.37695 l 2.05664,-5.97656 h 1.5293 v 8.58984 h -1.0957 v -7.18945 l -2.4961,7.18945 h -1.02539 l -2.48437,-7.3125 v 7.3125 z m 9.48632,-2.57812 v -1.06055 h 3.24024 v 1.06055 z m 4.73438,2.57812 v -8.58984 h 1.13672 v 8.58984 z m 3.00586,0 v -6.22265 h 0.94922 v 0.88476 q 0.68554,-1.02539 1.98047,-1.02539 0.5625,0 1.03125,0.20508 0.4746,0.19922 0.70898,0.52734 0.23437,0.32813 0.32812,0.7793 0.0586,0.29297 0.0586,1.02539 v 3.82617 h -1.05469 v -3.78515 q 0,-0.64454 -0.12305,-0.96094 -0.12304,-0.32227 -0.43945,-0.50977 -0.31055,-0.19336 -0.73242,-0.19336 -0.67383,0 -1.16602,0.42774 -0.48632,0.42773 -0.48632,1.62304 v 3.39844 z"
       id="guid-38616f39-12dd-448f-acc9-7c5a5dc56087"
       transform="matrix(0.26458597,0,0,0.26458333,49.056083,21.216505)"
       aria-label="VM-In"
       inkscape:label="VM-In label">
      <title
         id="title17">VM-In label</title>
    </path>
    <path
       style="display:inline;font-size:12px;font-family:Arial;-inkscape-font-specification:'Arial, Normal';text-align:center;white-space:pre;stroke:#000000;stroke-width:0;stroke-miterlimit:0"
       d="m -166.60937,174.07077 -3.32813,-8.58984 h 1.23047 l 2.23242,6.24023 q 0.26953,0.75 0.45117,1.40625 0.19922,-0.70312 0.46289,-1.40625 l 2.32032,-6.24023 h 1.16015 l -3.36328,8.58984 z m 4.34179,-2.57812 v -1.06055 h 3.24024 v 1.06055 z m 4.73438,2.57812 v -8.58984 h 1.13672 v 8.58984 z m 3.00586,0 v -6.22265 h 0.94922 v 0.88476 q 0.68554,-1.02539 1.98046,-1.02539 0.5625,0 1.03125,0.20508 0.47461,0.19922 0.70899,0.52734 0.23437,0.32813 0.32812,0.7793 0.0586,0.29297 0.0586,1.02539 v 3.82617 h -1.05469 v -3.78515 q 0,-0.64454 -0.12305,-0.96094 -0.12304,-0.32227 -0.43945,-0.50977 -0.31055,-0.19336 -0.73242,-0.19336 -0.67383,0 -1.16602,0.42774 -0.48633,0.42773 -0.48633,1.62304 v 3.39844 z"
       id="guid-8e31c4c7-f0d4-41eb-a0d9-0d129d38e8be"
       transform="matrix(0.26458333,0,0,0.26458333,48.96263,-23.783495)"
       aria-label="V-In"
       inkscape:label="V-In label">
      <title
         id="title16">V-In label</title>
    </path>
    <path
       d="m 0.78840622,6.5735391 q -0.001378,-0.057878 0.038585,-0.093707 0.0413411,-0.037207 0.10059671,-0.037207 0.0675238,0 0.11851123,0.07717 0.07028,0.1047308 0.1254013,0.1419378 0.1171332,0.07717 0.3403752,0.07717 0.2135958,0 0.3968747,-0.092328 0.2342663,-0.1185112 0.2342663,-0.3293508 0,-0.1736327 -0.1970593,-0.2742294 Q 1.7792149,5.9561784 1.5339243,5.9492882 1.3161944,5.94102 1.1632323,5.8542037 0.96755105,5.7425827 0.96755105,5.5344991 q 0,-0.2452907 0.27836355,-0.4478621 0.2659611,-0.1915472 0.5498368,-0.1915472 0.1336696,0 0.3017901,0.045475 0.223242,0.059256 0.223242,0.1515841 0,0.1212673 -0.1240233,0.1212673 -0.055121,0 -0.1929252,-0.028939 -0.1378037,-0.030317 -0.2135958,-0.028939 -0.2149738,0.00276 -0.3651798,0.1061089 -0.1543402,0.1061089 -0.1543402,0.257693 0,0.114377 0.2039495,0.1612303 0.075792,0.017915 0.2935219,0.033073 0.3155705,0.023427 0.4933373,0.1984373 0.1626084,0.1598523 0.1626084,0.3899846 0,0.3279728 -0.3031682,0.5236541 -0.2632051,0.1694985 -0.6104704,0.1694985 -0.2521808,0 -0.4616425,-0.096463 Q 0.79254033,6.7802446 0.78840622,6.5735391 Z M 4.4374486,5.1762094 q -0.1019748,0 -0.3141925,-0.016536 -0.2067056,-0.015159 -0.3141925,-0.01378 H 3.711223 q 0.00413,0.1901691 0.037207,0.6173606 0.030317,0.3982528 0.030317,0.6187387 0,0.048231 0.00965,0.1460719 0.00965,0.097841 0.00965,0.14745 0,0.093706 -0.030317,0.1612304 -0.038585,0.09095 -0.1198892,0.09095 -0.055121,0 -0.099219,-0.038585 -0.044097,-0.038585 -0.044097,-0.099219 0,-0.020671 0.00689,-0.062012 0.00689,-0.041341 0.00689,-0.062012 0,-0.067524 -0.00965,-0.2025715 -0.00827,-0.1350476 -0.00827,-0.2039495 0,-0.1970593 -0.031695,-0.5539709 -0.033073,-0.3858504 -0.037207,-0.553971 l -0.1254014,0.00138 q -0.3017902,0 -0.4740448,-0.044097 -0.111621,-0.028939 -0.111621,-0.1364257 0,-0.0565 0.035829,-0.099219 0.041341,-0.048231 0.1061088,-0.044097 0.048231,0.00276 0.220486,0.024805 0.1378037,0.016536 0.223242,0.016536 0.082682,0 0.2508027,-0.00276 0.1681206,-0.00413 0.2508028,-0.00413 0.1061089,0 0.3141925,0.015158 0.2094616,0.015158 0.3155705,0.015158 0.059256,0 0.099219,0.041341 0.039963,0.039963 0.039963,0.1005967 0,0.059256 -0.039963,0.1005967 -0.039963,0.039963 -0.099219,0.039963 z m 0.2259981,1.3973297 q -0.00138,-0.057878 0.038585,-0.093707 0.041341,-0.037207 0.1005967,-0.037207 0.067524,0 0.1185112,0.07717 0.07028,0.1047308 0.1254014,0.1419378 0.1171331,0.07717 0.3403752,0.07717 0.2135957,0 0.3968747,-0.092328 0.2342663,-0.1185112 0.2342663,-0.3293508 0,-0.1736327 -0.1970593,-0.2742294 Q 5.6542555,5.9561784 5.4089648,5.9492882 5.191235,5.94102 5.0382729,5.8542037 4.8425916,5.7425827 4.8425916,5.5344991 q 0,-0.2452907 0.2783635,-0.4478621 0.2659612,-0.1915472 0.5498368,-0.1915472 0.1336696,0 0.3017901,0.045475 0.2232421,0.059256 0.2232421,0.1515841 0,0.1212673 -0.1240234,0.1212673 -0.055122,0 -0.1929252,-0.028939 -0.1378037,-0.030317 -0.2135957,-0.028939 -0.2149738,0.00276 -0.3651799,0.1061089 -0.1543401,0.1061089 -0.1543401,0.257693 0,0.114377 0.2039495,0.1612303 0.075792,0.017915 0.2935219,0.033073 0.3155705,0.023427 0.4933373,0.1984373 0.1626083,0.1598523 0.1626083,0.3899846 0,0.3279728 -0.3031681,0.5236541 -0.2632051,0.1694985 -0.6104705,0.1694985 -0.2521808,0 -0.4616424,-0.096463 Q 4.6675809,6.7802446 4.6634467,6.5735391 Z m 4.492401,-1.3973297 q -0.1019747,0 -0.3141924,-0.016536 -0.2067056,-0.015159 -0.3141925,-0.01378 h -0.097841 q 0.00413,0.1901691 0.037207,0.6173606 0.030317,0.3982528 0.030317,0.6187387 0,0.048231 0.00965,0.1460719 0.00965,0.097841 0.00965,0.14745 0,0.093706 -0.030317,0.1612304 -0.038585,0.09095 -0.1198892,0.09095 -0.055122,0 -0.099219,-0.038585 -0.044097,-0.038585 -0.044097,-0.099219 0,-0.020671 0.00689,-0.062012 0.00689,-0.041341 0.00689,-0.062012 0,-0.067524 -0.00965,-0.2025715 -0.00827,-0.1350476 -0.00827,-0.2039495 0,-0.1970593 -0.031695,-0.5539709 -0.033073,-0.3858504 -0.037207,-0.553971 l -0.1254014,0.00138 q -0.3017901,0 -0.4740447,-0.044097 -0.111621,-0.028939 -0.111621,-0.1364257 0,-0.0565 0.035829,-0.099219 0.041341,-0.048231 0.1061089,-0.044097 0.048231,0.00276 0.2204859,0.024805 0.1378037,0.016536 0.223242,0.016536 0.082682,0 0.2508028,-0.00276 0.1681205,-0.00413 0.2508028,-0.00413 0.1061088,0 0.3141924,0.015158 0.2094617,0.015158 0.3155705,0.015158 0.059256,0 0.099219,0.041341 0.039963,0.039963 0.039963,0.1005967 0,0.059256 -0.039963,0.1005967 -0.039963,0.039963 -0.099219,0.039963 z m 1.3050003,0.7220915 q -0.0096,0.1722546 -0.137803,0.1722546 -0.118511,0 -0.118511,-0.1364257 0,-0.026183 -0.0041,-0.096463 l -0.0041,-0.1157551 Q 9.9785354,5.7480948 9.8476219,5.8445574 9.7249766,5.9341298 9.6436724,6.1146527 l 0.00276,0.7551644 q 0,0.1391817 -0.1364257,0.1391817 -0.1212673,0 -0.1212673,-0.1391817 V 5.902435 q 0,-0.045475 0.00276,-0.1364257 0.00413,-0.09095 0.00413,-0.1364257 0,-0.1391817 0.1212673,-0.1391817 0.1350476,0 0.1364256,0.2287541 0.2645832,-0.2549368 0.5870434,-0.2549368 0.111621,0 0.166743,0.08406 0.05512,0.08406 0.05512,0.2535589 0,0.071658 -0.0014,0.096463 z M 11.00793,5.1720753 q -0.06615,0 -0.114377,-0.046853 -0.04823,-0.046853 -0.04823,-0.112999 0,-0.066146 0.04823,-0.1129991 0.04823,-0.046853 0.114377,-0.046853 0.06615,0 0.112999,0.046853 0.04823,0.046853 0.04823,0.1129991 0,0.066146 -0.04823,0.112999 -0.04685,0.046853 -0.112999,0.046853 z m 0.06201,1.1189662 q 0,0.082682 0.0041,0.2480466 0.0055,0.1639865 0.0055,0.2466687 0,0.060634 -0.03721,0.099219 -0.03721,0.038585 -0.09784,0.038585 -0.05926,0 -0.09784,-0.038585 -0.03721,-0.038585 -0.03721,-0.099219 0,-0.082682 -0.0055,-0.2466687 -0.0041,-0.1653644 -0.0041,-0.2480466 0,-0.1295355 0.01378,-0.3224607 0.01378,-0.1943033 0.01378,-0.3238388 0,-0.062012 0.03721,-0.1005967 0.03859,-0.038585 0.09784,-0.038585 0.05926,0 0.09646,0.038585 0.03859,0.038585 0.03859,0.1005967 0,0.1295355 -0.01378,0.3238388 -0.01378,0.1929252 -0.01378,0.3224607 z m 1.542023,0.7165793 q -0.02618,0 -0.09508,-0.060634 -0.06201,-0.0565 -0.09233,-0.1005967 -0.132292,0.071658 -0.232889,0.1074869 -0.100596,0.037207 -0.16812,0.037207 -0.322461,0 -0.469911,-0.1819009 -0.139182,-0.1708766 -0.139182,-0.5236541 0,-0.333485 0.228755,-0.5705074 0.230132,-0.2370224 0.548458,-0.2370224 0.11989,0 0.268718,0.062012 0.187413,0.07717 0.187413,0.186035 0,0.037207 -0.02756,0.066146 -0.01378,0.052365 -0.02205,0.1722547 -0.0069,0.1198892 -0.0083,0.3073022 -0.0014,0.1708766 0.02343,0.2700953 0.01378,0.060634 0.08682,0.2425346 0.0096,0.024805 0.0317,0.073036 l 0.0083,0.023427 q 0,0.055121 -0.03858,0.09095 -0.03858,0.035829 -0.08957,0.035829 z M 12.325333,6.049885 q 0,-0.059256 0.0069,-0.1281575 0.0083,-0.07028 0.02343,-0.148828 -0.05099,-0.026183 -0.0882,-0.038585 -0.03583,-0.012402 -0.05788,-0.012402 -0.213596,0 -0.369314,0.1750107 -0.15434,0.1736327 -0.15434,0.4010088 0,0.2259981 0.07993,0.3389972 0.07993,0.112999 0.239778,0.112999 0.132292,0 0.22462,-0.048231 0.04961,-0.026183 0.139182,-0.1047308 -0.0441,-0.3651798 -0.0441,-0.5470807 z m 1.711523,0.964626 q -0.118512,0 -0.13367,-0.1295355 l -0.03858,-0.3017902 q -0.01929,-0.1612303 -0.01929,-0.3017901 0,-0.038585 0.0041,-0.1309135 0.0055,-0.092329 0.0055,-0.1309136 0,-0.297656 -0.110243,-0.297656 -0.15434,0 -0.2949,0.183279 -0.12678,0.1667424 -0.198438,0.4216793 -0.0028,0.053744 -0.0124,0.1350477 -0.0083,0.068902 -0.0083,0.1336696 0,0.041341 0.0083,0.1240233 0.0083,0.082682 0.0083,0.1240234 0,0.062012 -0.03858,0.1005967 -0.03721,0.038585 -0.09646,0.038585 -0.06063,0 -0.09784,-0.038585 -0.03721,-0.038585 -0.03721,-0.1005967 0,-0.041341 -0.0096,-0.1240234 -0.0083,-0.082682 -0.0083,-0.1240233 0,-0.1419379 0.01929,-0.3927406 0.02067,-0.2521808 0.02067,-0.3941186 0,-0.044097 -0.0055,-0.1309136 -0.0041,-0.086816 -0.0041,-0.1309135 0,-0.059256 0.03858,-0.096463 0.03996,-0.038585 0.09784,-0.038585 0.126779,0 0.139182,0.1791448 l 0.0041,0.1612303 q 0.23151,-0.3086803 0.475423,-0.3086803 0.220486,0 0.307302,0.1943032 0.05926,0.1295355 0.06477,0.3830944 v 0.1391817 l -0.0014,0.1281575 q 0,0.1143771 0.02894,0.296278 0.03032,0.1805228 0.03032,0.2935219 0,0.060634 -0.03996,0.097841 -0.03858,0.038585 -0.09784,0.038585 z m 1.554425,-0.6917747 -0.03169,0.4630205 q -0.0083,0.2756074 -0.0565,0.4506181 -0.06201,0.2232421 -0.198437,0.3293509 -0.165365,0.1281575 -0.478179,0.1281575 -0.183279,0 -0.307302,-0.024805 -0.173633,-0.034451 -0.173633,-0.1433159 0,-0.1226453 0.119889,-0.1226453 0.04961,0 0.165365,0.023427 0.115755,0.024805 0.256314,0.022049 0.264584,-0.00413 0.36518,-0.2563149 0.06615,-0.1681206 0.07028,-0.516764 -0.07441,0.1378037 -0.177767,0.2067056 -0.101974,0.068902 -0.234266,0.068902 -0.249425,0 -0.406521,-0.1694986 -0.155718,-0.1708766 -0.155718,-0.4423499 0,-0.3720701 0.213596,-0.5994462 0.220486,-0.2342663 0.600824,-0.2342663 0.128157,0 0.214974,0.033073 0.08682,0.033073 0.132291,0.099219 0.14745,0.00413 0.14745,0.1639865 0,0.097841 -0.02894,0.261827 -0.03169,0.1901692 -0.03721,0.259071 z M 15.148932,5.7260462 q -0.261828,0 -0.405143,0.1805229 -0.128158,0.1626084 -0.128158,0.4134111 0,0.1998154 0.07579,0.3004121 0.07579,0.1005967 0.227376,0.1005967 0.139182,0 0.270096,-0.1570962 0.118511,-0.1446939 0.135047,-0.2866317 0.02894,-0.148828 0.06201,-0.4671546 -0.05512,-0.042719 -0.114377,-0.06339 -0.05926,-0.020671 -0.122645,-0.020671 z m 1.156172,0.1074869 -0.02067,0.6848845 q 0,0.1088649 -0.01103,0.3197046 -0.01378,0.1378037 -0.135047,0.1378037 -0.135048,0 -0.135048,-0.1405598 0,-0.1667425 0.01516,-0.5002275 0.01516,-0.334863 0.01516,-0.5016055 0,-0.2177298 0.0069,-0.4974714 0.0069,-0.2811196 0.0069,-0.4988494 0,-0.1378038 0.135048,-0.1378038 0.136425,0 0.136425,0.1378038 0,0.2177298 -0.0069,0.4988494 -0.0069,0.2797416 -0.0069,0.4974714 z M 17.371705,6.98006 q -0.311436,0 -0.504362,-0.1557182 -0.210839,-0.1722546 -0.210839,-0.482313 0,-0.3582896 0.173632,-0.6008242 0.188791,-0.2645831 0.504362,-0.2645831 0.228754,0 0.373448,0.07717 0.177767,0.095084 0.177767,0.2921439 0,0.1378037 -0.155718,0.2508027 -0.0689,0.049609 -0.292144,0.1543402 L 16.91144,6.5005031 q 0.07717,0.1143771 0.191548,0.1722546 0.115755,0.057878 0.268717,0.057878 0.09508,0 0.223242,-0.035829 0.162608,-0.045475 0.209462,-0.1185112 0.04685,-0.074414 0.100596,-0.074414 0.04823,0 0.08544,0.037207 0.03859,0.035829 0.03859,0.08406 0,0.1529621 -0.246669,0.2632051 -0.21084,0.093706 -0.410655,0.093706 z m -0.03721,-1.2553918 q -0.168121,0 -0.279742,0.1309135 -0.111621,0.1295355 -0.166742,0.3913626 l 0.423057,-0.2011935 q 0.249425,-0.1212672 0.355534,-0.2108396 -0.118511,-0.110243 -0.332107,-0.110243 z m 3.39135,-0.6972868 q -0.08544,0.1281574 -0.139182,0.2687172 l -0.104731,0.3017902 -0.370692,1.001833 q -0.06477,0.1763887 -0.151584,0.3445093 -0.0441,0.082682 -0.124023,0.082682 -0.106109,0 -0.148828,-0.1074869 Q 19.520065,6.5005031 19.316116,5.7136439 L 19.207251,5.3346837 q -0.0813,-0.2866318 -0.0813,-0.3748261 0,-0.062012 0.0441,-0.1019748 0.03996,-0.037207 0.09646,-0.037207 0.104731,0 0.135048,0.1129991 l 0.05099,0.2397784 0.132292,0.4685327 q 0.132292,0.5126298 0.257693,0.8833218 l 0.0083,-0.022049 0.369314,-1.000455 0.117133,-0.3376191 q 0.07855,-0.2039495 0.166743,-0.3086803 0.04547,-0.055121 0.107487,-0.055121 0.05512,0 0.09784,0.042719 0.0441,0.041341 0.0441,0.1005968 0,0.041341 -0.02756,0.082682 z m 1.555804,0.3431312 q -0.0882,0 -0.132292,-0.1033527 -0.03859,-0.088194 -0.07166,-0.1074869 -0.02894,-0.015159 -0.143316,-0.015159 -0.199815,0 -0.443728,0.3059243 -0.330729,0.4106551 -0.330729,0.778591 0,0.1777668 0.114378,0.3059242 0.117133,0.1322916 0.282497,0.1322916 0.141938,0 0.285254,-0.073036 0.07993,-0.041341 0.24529,-0.1626084 0.07855,-0.057878 0.118512,-0.057878 0.05926,0 0.09922,0.045475 0.03996,0.044097 0.03996,0.099219 0,0.062012 -0.05236,0.1088649 -0.363802,0.3224607 -0.735872,0.3224607 -0.285254,0 -0.482313,-0.2191079 -0.190169,-0.2122177 -0.190169,-0.5016055 0,-0.4671546 0.391363,-0.9577358 0.326594,-0.4092771 0.658701,-0.4092771 0.06752,0 0.121268,0.00689 0.05374,0.00551 0.09508,0.019292 0.04823,-0.07028 0.125402,-0.07028 0.09508,0 0.119889,0.1254014 0.02205,0.111621 0.02205,0.2742294 0,0.0565 -0.03032,0.099219 -0.03721,0.053743 -0.106109,0.053743 z m 1.284331,1.630218 q -0.388606,0 -0.658702,-0.2328883 -0.286631,-0.2480467 -0.286631,-0.6394092 0,-0.4768009 0.282497,-0.8667854 0.315571,-0.4327037 0.786859,-0.4327037 0.453375,0 0.673861,0.2039495 0.230132,0.2122178 0.230132,0.6697261 0,0.4768008 -0.259071,0.8598952 -0.297656,0.4382158 -0.768945,0.4382158 z m 0.124023,-1.8892889 q -0.337619,0 -0.571885,0.336241 -0.216352,0.3086803 -0.216352,0.6807504 0,0.2659611 0.197059,0.4327036 0.188792,0.1570963 0.467155,0.1570963 0.334863,0 0.552593,-0.3376191 0.194303,-0.3017902 0.194303,-0.6779943 0,-0.3293509 -0.14745,-0.4630205 -0.14056,-0.1281574 -0.475423,-0.1281574 z"
       id="guid-0ab4be0a-6ac4-45cd-abec-0f984dede2c3"
       style="display:inline;font-size:2.82222px;font-family:'Comic Sans MS';-inkscape-font-specification:'Comic Sans MS, Normal';text-align:center;text-anchor:middle;stroke:#000000;stroke-width:0;stroke-linecap:round;stroke-linejoin:round;stroke-miterlimit:0"
       aria-label="STS Triangle VCO"
       inkscape:label="Module">
      <title
         id="title5">Module</title>
    </path>
  </g>
  <g
     inkscape:groupmode="layer"
     id="layer2"
     inkscape:label="components"
     style="display:none">
    <circle
       style="display:inline;fill:#0000ff;fill-opacity:1;stroke:#0000ff;stroke-width:0;stroke-miterlimit:0;stroke-opacity:1"
       id="guid-a9c30311-ec54-40a1-9071-744922170655"
       cx="18.5"
       cy="14"
       inkscape:label="Output"
       r="2.5">
      <title
         id="title15">Output</title>
    </circle>
    <circle
       style="display:inline;fill:#ff0000;fill-opacity:1;stroke:#ff0000;stroke-width:0;stroke-miterlimit:0;stroke-opacity:1"
       id="guid-8f37b48a-3637-414f-82d8-9c5ad212e3d2"
       cx="12.7"
       cy="104.5"
       inkscape:label="Volume"
       r="2.5">
      <title
         id="title14">Volume</title>
    </circle>
    <circle
       style="display:inline;fill:#ff0000;fill-opacity:1;stroke:#ff0000;stroke-width:0;stroke-miterlimit:0;stroke-opacity:1"
       id="guid-d7bc7031-b5cb-44bb-b936-e21ebeb97e3e"
       cx="12.7"
       cy="89.5"
       inkscape:label="Phase"
       r="2.5">
      <title
         id="title13">Phase</title>
    </circle>
    <circle
       style="display:inline;fill:#ff0000;fill-opacity:1;stroke:#ff0000;stroke-width:0;stroke-miterlimit:0;stroke-opacity:1"
       id="guid-0b8c06c9-0cee-4fb4-9205-9088f2582c7e"
       cx="12.7"
       cy="74.5"
       inkscape:label="Pitch"
       r="2.5">
      <title
         id="title12">Pitch</title>
    </circle>
    <ellipse
       style="display:inline;fill:#ff0000;fill-opacity:1;stroke:#ff0000;stroke-width:0;stroke-miterlimit:0;stroke-opacity:1"
       id="guid-5311432b-da94-4877-b1b4-d35952ab2305"
       cx="18.500158"
       cy="59.5"
       inkscape:label="VM Attn"
       rx="2.500025"
       ry="2.5">
      <title
         id="title11">VM Attn</title>
    </ellipse>
    <ellipse
       style="display:inline;fill:#00ff00;fill-opacity:1;stroke:#00ff00;stroke-width:0;stroke-miterlimit:0;stroke-opacity:1"
       id="guid-b60d8bcf-c346-40fe-8eeb-cf399ec7d822"
       cx="6.5000381"
       cy="59.5"
       inkscape:label="VM In"
       rx="2.500025"
       ry="2.5">
      <title
         id="title10">VM In</title>
    </ellipse>
    <ellipse
       style="display:inline;fill:#ff0000;fill-opacity:1;stroke:#ff0000;stroke-width:0;stroke-miterlimit:0;stroke-opacity:1"
       id="guid-d9e53a4f-69fc-46a7-9c1e-b13b52292838"
       cx="18.500158"
       cy="44.5"
       inkscape:label="PM Attn"
       rx="2.500025"
       ry="2.5">
      <title
         id="title4">PM Attn</title>
    </ellipse>
    <ellipse
       style="display:inline;fill:#00ff00;fill-opacity:1;stroke:#00ff00;stroke-width:0;stroke-miterlimit:0;stroke-opacity:1"
       id="guid-86ad5fe8-16fa-40cc-887b-735f5e6b3c3c"
       cx="6.5000381"
       cy="44.5"
       inkscape:label="PM In"
       rx="2.500025"
       ry="2.5">
      <title
         id="title3">PM In</title>
    </ellipse>
    <ellipse
       style="display:inline;fill:#ff0000;fill-opacity:1;stroke:#ff0000;stroke-width:0;stroke-miterlimit:0;stroke-opacity:1"
       id="path1-3-2"
       cx="18.500158"
       cy="29.5"
       inkscape:label="FM Attn"
       rx="2.500025"
       ry="2.5" />
    <ellipse
       style="display:inline;fill:#00ff00;fill-opacity:1;stroke:#00ff00;stroke-width:0;stroke-miterlimit:0;stroke-opacity:1"
       id="guif-b36c6462-3c82-4ef8-8787-623bff0e9651"
       cx="6.5000381"
       cy="29.5"
       inkscape:label="FM In"
       rx="2.500025"
       ry="2.5">
      <title
         id="title2">FM In</title>
    </ellipse>
    <circle
       style="display:inline;fill:#00ff00;fill-opacity:1;stroke:#00ff00;stroke-width:0;stroke-miterlimit:0;stroke-opacity:1"
       id="guid-0c6a422c-8084-4159-921d-08edca51f80f"
       cx="7"
       cy="14"
       inkscape:label="V-Oct In"
       r="2.5">
      <title
         id="title1">V-Oct In</title>
    </circle>
  </g>
  <metadata
     id="metadata8">
    <rdf:RDF>
      <cc:Work
         rdf:about="">
        <dc:title>STS Template Medium</dc:title>
        <dc:date>Jan 2, 2024</dc:date>
        <dc:creator>
          <cc:Agent>
            <dc:title>Marinko Laban</dc:title>
          </cc:Agent>
        </dc:creator>
        <dc:rights>
          <cc:Agent>
            <dc:title>(C) SmarTazz Studio</dc:title>
          </cc:Agent>
        </dc:rights>
      </cc:Work>
    </rdf:RDF>
  </metadata>
</svg>
