<?xml version="1.0" encoding="UTF-8" standalone="no"?>
<!-- Created with Inkscape (http://www.inkscape.org/) -->

<svg
   width="25.4mm"
   height="128.5mm"
   viewBox="0 0 25.4 128.5"
   version="1.1"
   id="svg1"
   inkscape:version="1.3.2 (091e20e, 2023-11-25, custom)"
   sodipodi:docname="STS-Splitter.svg"
   xmlns:inkscape="http://www.inkscape.org/namespaces/inkscape"
   xmlns:sodipodi="http://sodipodi.sourceforge.net/DTD/sodipodi-0.dtd"
   xmlns:xlink="http://www.w3.org/1999/xlink"
   xmlns="http://www.w3.org/2000/svg"
   xmlns:svg="http://www.w3.org/2000/svg">
  <title
     id="title8">STS Splitter</title>
  <sodipodi:namedview
     id="namedview1"
     pagecolor="#ffffff"
     bordercolor="#000000"
     borderopacity="0.25"
     inkscape:showpageshadow="2"
     inkscape:pageopacity="0.0"
     inkscape:pagecheckerboard="false"
     inkscape:deskcolor="#d1d1d1"
     inkscape:document-units="mm"
     inkscape:zoom="2.3702751"
     inkscape:cx="31.852843"
     inkscape:cy="217.69625"
     inkscape:window-width="1920"
     inkscape:window-height="1010"
     inkscape:window-x="-6"
     inkscape:window-y="-6"
     inkscape:window-maximized="1"
     inkscape:current-layer="layer1" />
  <defs
     id="defs1">
    <inkscape:path-effect
       effect="bspline"
       id="path-effect6"
       is_visible="true"
       lpeversion="1.3"
       weight="33.333333"
       steps="2"
       helper_size="0"
       apply_no_weight="true"
       apply_with_weight="true"
       only_selected="false"
       uniform="false" />
    <inkscape:path-effect
       effect="bspline"
       id="path-effect5"
       is_visible="true"
       lpeversion="1.3"
       weight="33.333333"
       steps="2"
       helper_size="0"
       apply_no_weight="true"
       apply_with_weight="true"
       only_selected="false"
       uniform="false" />
    <inkscape:path-effect
       effect="bspline"
       id="path-effect2"
       is_visible="true"
       lpeversion="1.3"
       weight="33.333333"
       steps="2"
       helper_size="0"
       apply_no_weight="true"
       apply_with_weight="true"
       only_selected="false"
       uniform="false" />
    <inkscape:path-effect
       effect="bspline"
       id="path-effect1"
       is_visible="true"
       lpeversion="1.3"
       weight="33.333333"
       steps="2"
       helper_size="0"
       apply_no_weight="true"
       apply_with_weight="true"
       only_selected="false"
       uniform="false" />
    <linearGradient
       id="linearGradient1"
       inkscape:collect="always">
      <stop
         style="stop-color:#00ff00;stop-opacity:1;"
         offset="0"
         id="stop1" />
      <stop
         style="stop-color:#00ff00;stop-opacity:0;"
         offset="1"
         id="stop2" />
    </linearGradient>
    <linearGradient
       inkscape:collect="always"
       xlink:href="#linearGradient1"
       id="linearGradient2"
       x1="7.6999998"
       y1="20.585909"
       x2="17.7"
       y2="20.585909"
       gradientUnits="userSpaceOnUse" />
  </defs>
  <g
     inkscape:label="Layer 1"
     inkscape:groupmode="layer"
     id="layer1"
     style="display:inline">
    <rect
       style="fill:#93b5cf;fill-opacity:1;stroke:#97c6c1;stroke-width:0.0653667;stroke-linejoin:miter;stroke-miterlimit:0;stroke-dasharray:none;stroke-opacity:1;paint-order:normal"
       id="guid-133bc867-ad6a-494a-bd77-ef0c326a6449"
       width="25.334633"
       height="128.43465"
       x="0.03268335"
       y="0.032683566"
       ry="0"
       inkscape:transform-center-x="0.13475906"
       inkscape:transform-center-y="11.262005"
       inkscape:label="Panel" />
    <g
       id="guid-836c62ac-2363-4971-88ce-5a5d0a73b10b"
       style="font-size:3.175px;font-family:'Comic Sans MS';-inkscape-font-specification:'Comic Sans MS, Normal';text-align:center;text-anchor:middle;stroke:#000000;stroke-width:0;stroke-miterlimit:0"
       inkscape:label="Brand"
       aria-label="Sm@rTAZZ&#10;Studio"
       transform="translate(0,-4.5766488)">
      <path
         d="m 3.5270624,121.95735 q -0.00155,-0.0651 0.043408,-0.10542 0.046509,-0.0419 0.1131713,-0.0419 0.075964,0 0.1333252,0.0868 0.079065,0.11783 0.1410767,0.15968 0.1317749,0.0868 0.3829224,0.0868 0.2402954,0 0.4464843,-0.10387 0.2635498,-0.13332 0.2635498,-0.37052 0,-0.19534 -0.2216919,-0.30851 -0.1875854,-0.0977 -0.4635376,-0.10542 -0.2449462,-0.009 -0.4170288,-0.10697 -0.2201416,-0.12557 -0.2201416,-0.35967 0,-0.27595 0.3131592,-0.50384 0.2992066,-0.21549 0.6185669,-0.21549 0.1503784,0 0.3395142,0.0512 0.2511474,0.0667 0.2511474,0.17053 0,0.13643 -0.1395264,0.13643 -0.062012,0 -0.217041,-0.0326 -0.1550293,-0.0341 -0.2402954,-0.0326 -0.2418457,0.003 -0.4108276,0.11938 -0.1736328,0.11937 -0.1736328,0.2899 0,0.12868 0.2294433,0.18139 0.085266,0.0202 0.3302124,0.0372 0.3550171,0.0264 0.5550049,0.22324 0.1829346,0.17984 0.1829346,0.43874 0,0.36897 -0.3410645,0.58911 -0.2961059,0.19069 -0.6867797,0.19069 -0.2837036,0 -0.5193482,-0.10853 -0.2883545,-0.13332 -0.2930053,-0.36586 z m 4.1780395,0.51469 q -0.127124,0 -0.1488281,-0.13487 -0.027905,-0.17053 -0.055811,-0.48059 l -0.05271,-0.48059 q -0.015503,-0.10697 -0.05271,-0.20929 -0.05271,-0.13953 -0.1147217,-0.13953 -0.057361,0 -0.2139404,0.0977 -0.1488281,0.0899 -0.1953369,0.14418 -0.00155,0.14572 0.00775,0.29145 l 0.046509,0.41393 q 0.029456,0.24495 0.029456,0.40463 0,0.0682 -0.043408,0.11162 -0.041858,0.045 -0.1085205,0.045 -0.066663,0 -0.1100708,-0.045 -0.041858,-0.0434 -0.041858,-0.11162 0,-0.18759 -0.038757,-0.55346 -0.037207,-0.36742 -0.037207,-0.555 0,-0.16434 -0.046509,-0.2558 -0.1085205,0.0496 -0.2201416,0.16123 l -0.1829345,0.20464 q -0.024805,0.0372 -0.079065,0.0977 0,0.093 -0.017053,0.2744 -0.017053,0.18138 -0.017053,0.2682 0,0.0465 0.013953,0.13022 0.015503,0.0837 0.015503,0.12093 0,0.0636 -0.048059,0.10697 -0.046509,0.0434 -0.1100708,0.0434 -0.1751831,0 -0.1751831,-0.39842 0,-0.093 0.017053,-0.2775 0.017053,-0.18449 0.017053,-0.27751 0,-0.0822 -0.015503,-0.24649 -0.013953,-0.16433 -0.013953,-0.24805 0,-0.35192 0.1581299,-0.35192 0.060461,0 0.1100708,0.0527 0.05116,0.0527 0.05116,0.11472 0,0.0295 -0.00775,0.0915 -0.00775,0.062 -0.00775,0.0946 l 0.0031,0.16278 q 0.080615,-0.16588 0.2371949,-0.29921 0.1565796,-0.13487 0.2666504,-0.13487 0.2433959,0 0.3348632,0.24184 0.085266,-0.11317 0.2030884,-0.16898 0.1178223,-0.0574 0.269751,-0.0574 0.2588989,0 0.3534668,0.27905 0.018604,0.0558 0.063562,0.43564 0.043408,0.26665 0.1116211,0.88831 0.00465,0.062 -0.041858,0.10542 -0.046509,0.0434 -0.1131714,0.0434 z m 2.3068361,-0.76739 q -0.1643313,0 -0.2837039,-0.0481 -0.1193725,-0.0481 -0.1922363,-0.14263 -0.083716,0.0822 -0.1643311,0.12403 -0.079065,0.0418 -0.1550293,0.0418 -0.1720825,0 -0.3255615,-0.13952 -0.1519287,-0.14108 -0.1519287,-0.30851 0,-0.28681 0.2247925,-0.524 0.2263428,-0.2372 0.513147,-0.2372 0.065112,0 0.1085205,0.0481 0.043408,0.0481 0.043408,0.11628 0,0.093 -0.1550293,0.13797 -0.206189,0.0589 -0.2914551,0.13488 -0.1255737,0.11007 -0.1255737,0.32401 0,0.045 0.041858,0.0868 0.048059,0.0465 0.1193725,0.0434 0.1348755,-0.006 0.2495972,-0.25114 0.1038696,-0.21394 0.1844849,-0.21394 0.065112,0 0.1054199,0.048 0.040308,0.0481 0.040308,0.11783 0,0.031 -0.010852,0.093 -0.0093,0.062 -0.0093,0.093 0,0.10077 0.086816,0.12713 0.034106,0.0109 0.1472784,0.0109 0.21239,0 0.297656,-0.10387 0.07752,-0.093 0.07752,-0.30851 0,-0.37982 -0.305408,-0.62012 -0.2790531,-0.22014 -0.6666264,-0.22014 -0.4511352,0 -0.7069335,0.34107 -0.2309937,0.30385 -0.2309937,0.76429 0,0.42478 0.2713013,0.71624 0.2821533,0.30385 0.7255371,0.30385 0.1255737,0 0.2837036,-0.0481 l 0.2713016,-0.10077 q 0.06821,-0.0248 0.08837,-0.0248 0.06356,0 0.11007,0.0512 0.04651,0.0496 0.04651,0.11627 0,0.14728 -0.3302125,0.23875 -0.2495971,0.0682 -0.4666381,0.0682 -0.2185913,0 -0.4480347,-0.0853 -0.2278931,-0.0837 -0.3906738,-0.22479 -0.4805908,-0.41548 -0.4805908,-1.01079 0,-0.59531 0.3286621,-0.99529 0.3488159,-0.42788 0.9286254,-0.42788 0.5239991,0 0.8976204,0.31471 0.392224,0.33331 0.392224,0.84336 0,0.34882 -0.170533,0.5364 -0.178283,0.19379 -0.522448,0.19379 z m 2.353345,-0.50695 q -0.01085,0.19379 -0.15503,0.19379 -0.133325,0 -0.133325,-0.15348 0,-0.0295 -0.0047,-0.10852 l -0.0047,-0.13023 q -0.244946,0.0295 -0.392224,0.13798 -0.137976,0.10077 -0.229443,0.30386 l 0.0031,0.84956 q 0,0.15658 -0.153479,0.15658 -0.136426,0 -0.136426,-0.15658 v -1.08831 q 0,-0.0512 0.0031,-0.15348 0.0047,-0.10232 0.0047,-0.15348 0,-0.15657 0.136426,-0.15657 0.151929,0 0.153479,0.25734 0.297656,-0.2868 0.660425,-0.2868 0.125574,0 0.187585,0.0946 0.06201,0.0946 0.06201,0.28525 0,0.0806 -0.0015,0.10852 z m 2.215368,-0.81235 q -0.114722,0 -0.353467,-0.0186 -0.232544,-0.0171 -0.353467,-0.0155 h -0.11007 q 0.0047,0.21394 0.04186,0.69453 0.03411,0.44804 0.03411,0.69608 0,0.0543 0.01085,0.16434 0.01085,0.11007 0.01085,0.16588 0,0.10542 -0.03411,0.18138 -0.04341,0.10232 -0.134876,0.10232 -0.06201,0 -0.111621,-0.0434 -0.04961,-0.0434 -0.04961,-0.11162 0,-0.0232 0.0078,-0.0698 0.0078,-0.0465 0.0078,-0.0698 0,-0.076 -0.01085,-0.2279 -0.0093,-0.15193 -0.0093,-0.22944 0,-0.22169 -0.03566,-0.62322 -0.03721,-0.43408 -0.04186,-0.62322 l -0.141077,0.002 q -0.339514,0 -0.5333,-0.0496 -0.125574,-0.0326 -0.125574,-0.15347 0,-0.0636 0.04031,-0.11163 0.04651,-0.0543 0.119372,-0.0496 0.05426,0.003 0.248047,0.0279 0.155029,0.0186 0.251147,0.0186 0.09302,0 0.282154,-0.003 0.189136,-0.005 0.282153,-0.005 0.119373,0 0.353467,0.0171 0.235644,0.017 0.355017,0.017 0.06666,0 0.111621,0.0465 0.04496,0.045 0.04496,0.11317 0,0.0667 -0.04496,0.11317 -0.04496,0.045 -0.111621,0.045 z m 1.984375,2.00453 q -0.142627,0 -0.248047,-0.36587 -0.04031,-0.13953 -0.100769,-0.48834 -0.15813,0.0217 -0.413928,0.0775 l -0.412378,0.0853 q -0.07752,0.20309 -0.2651,0.59376 -0.04961,0.0868 -0.134876,0.0868 -0.06201,0 -0.111621,-0.045 -0.04806,-0.045 -0.04806,-0.11162 0,-0.0744 0.234094,-0.56586 -0.02636,-0.0403 -0.02636,-0.093 0,-0.12557 0.151929,-0.16123 0.176733,-0.33176 0.446484,-0.76274 0.36742,-0.58756 0.457337,-0.58756 0.122473,0 0.167431,0.17053 l 0.09767,0.5209 0.230994,1.07745 0.08837,0.24495 q 0.04496,0.12557 0.04496,0.16743 0,0.0667 -0.04806,0.11162 -0.04806,0.045 -0.110071,0.045 z m -0.547254,-1.77199 -0.443383,0.71469 q 0.187585,-0.0481 0.568957,-0.11627 z m 2.894398,-0.21394 -0.20929,0.14263 q -0.282153,0.21859 -0.638721,0.69918 l -0.544153,0.7922 q -0.03876,0.0589 -0.07596,0.10852 l 0.603064,-0.0232 q 0.395325,-0.0186 0.604614,-0.0186 0.204639,0 0.302307,0.0186 0.125574,0.0248 0.130225,0.12712 0.0031,0.076 -0.04961,0.12092 -0.04651,0.0388 -0.116272,0.0388 -0.04496,0 -0.134876,-0.006 -0.08992,-0.005 -0.134875,-0.005 -0.235645,0 -0.708484,0.0109 -0.471289,0.0124 -0.706934,0.0124 -0.178283,0 -0.178283,-0.15658 0,-0.10232 0.09612,-0.25734 l 0.165881,-0.231 0.559656,-0.77825 q 0.345715,-0.45733 0.643371,-0.71003 l -0.542602,0.031 H 17.35103 q -0.01705,0 -0.05116,0.003 -0.03256,0.002 -0.04806,0.002 -0.164331,0 -0.164331,-0.15968 0,-0.10542 0.08372,-0.13953 0.05116,-0.0217 0.168982,-0.0217 0.10697,0 0.31781,0.0233 0.21239,0.0217 0.31936,0.0217 0.119372,0 0.356567,-0.0155 0.238745,-0.0155 0.359668,-0.0155 0.398426,0 0.398426,0.15038 0,0.10232 -0.179834,0.23564 z m 2.201416,0 -0.20929,0.14263 q -0.282153,0.21859 -0.638721,0.69918 l -0.544152,0.7922 q -0.03876,0.0589 -0.07597,0.10852 l 0.603064,-0.0232 q 0.395325,-0.0186 0.604614,-0.0186 0.204639,0 0.302307,0.0186 0.125574,0.0248 0.130225,0.12712 0.0031,0.076 -0.04961,0.12092 -0.04651,0.0388 -0.116272,0.0388 -0.04496,0 -0.134876,-0.006 -0.08992,-0.005 -0.134875,-0.005 -0.235645,0 -0.708484,0.0109 -0.471289,0.0124 -0.706934,0.0124 -0.178283,0 -0.178283,-0.15658 0,-0.10232 0.09612,-0.25734 l 0.165881,-0.231 0.559656,-0.77825 q 0.345715,-0.45733 0.643371,-0.71003 l -0.542602,0.031 h -0.626318 q -0.01705,0 -0.05116,0.003 -0.03256,0.002 -0.04806,0.002 -0.164331,0 -0.164331,-0.15968 0,-0.10542 0.08372,-0.13953 0.05116,-0.0217 0.168982,-0.0217 0.10697,0 0.31781,0.0233 0.21239,0.0217 0.31936,0.0217 0.119372,0 0.356567,-0.0155 0.238745,-0.0155 0.359668,-0.0155 0.398426,0 0.398426,0.15038 0,0.10232 -0.179834,0.23564 z"
         id="path3" />
      <path
         d="m 7.6570428,125.9261 q -0.00155,-0.0651 0.043408,-0.10542 0.046509,-0.0419 0.1131714,-0.0419 0.075964,0 0.1333251,0.0868 0.079065,0.11783 0.1410767,0.15968 0.1317749,0.0868 0.3829224,0.0868 0.2402954,0 0.4464843,-0.10387 0.2635498,-0.13332 0.2635498,-0.37052 0,-0.19534 -0.2216919,-0.30851 -0.1875854,-0.0977 -0.4635376,-0.10542 -0.2449462,-0.009 -0.4170288,-0.10697 -0.2201416,-0.12557 -0.2201416,-0.35967 0,-0.27595 0.3131592,-0.50384 0.2992066,-0.21549 0.6185669,-0.21549 0.1503784,0 0.3395142,0.0512 0.2511474,0.0667 0.2511474,0.17053 0,0.13643 -0.1395263,0.13643 -0.062012,0 -0.2170411,-0.0326 -0.1550293,-0.0341 -0.2402954,-0.0326 -0.2418457,0.003 -0.4108276,0.11938 -0.1736328,0.11937 -0.1736328,0.2899 0,0.12868 0.2294434,0.18139 0.085266,0.0202 0.3302123,0.0372 0.3550171,0.0264 0.5550049,0.22324 0.1829346,0.17984 0.1829346,0.43874 0,0.36897 -0.3410645,0.58911 -0.2961059,0.19069 -0.6867797,0.19069 -0.2837036,0 -0.5193482,-0.10853 -0.2883545,-0.13332 -0.2930053,-0.36586 z m 3.2463132,-0.93483 q -0.03256,0 -0.07751,-0.003 -0.04341,-0.003 -0.07597,-0.003 -0.03566,0 -0.21084,0.0233 l 0.02946,0.91623 0.0015,0.0682 0.0016,0.0791 q 0.0062,0.33952 -0.162781,0.33952 -0.06201,0 -0.108521,-0.0403 -0.04496,-0.0403 -0.04496,-0.10077 0,-0.0589 0.0047,-0.17673 0.0047,-0.11783 0.0047,-0.17674 l -0.03101,-0.90537 q -0.113172,-0.005 -0.3441654,-0.0264 -0.137976,-0.0186 -0.137976,-0.15348 0,-0.0682 0.041858,-0.11317 0.041858,-0.045 0.1069702,-0.045 l 0.3255612,0.0263 q 0,-0.0791 -0.0078,-0.21084 -0.0062,-0.13332 -0.0062,-0.19223 0,-0.0651 0.04496,-0.10697 0.04496,-0.0434 0.110071,-0.0434 0.139526,0 0.162781,0.22789 0.0047,0.0574 0.0047,0.13798 l -0.0031,0.0899 -0.0015,0.0961 q 0.192236,-0.0248 0.220141,-0.0248 0.161231,0 0.21084,0.0155 0.09457,0.031 0.09457,0.14573 0,0.0682 -0.04341,0.11317 -0.04186,0.0434 -0.108521,0.0434 z m 1.723926,0.41548 q 0,0.11162 0.0015,0.33486 0.0016,0.22324 0.0016,0.33486 0,0.0341 0.0046,0.10387 0.0062,0.0698 0.0062,0.10387 0,0.0667 -0.04496,0.10852 -0.04496,0.0434 -0.110071,0.0434 -0.119372,0 -0.151928,-0.14728 -0.193787,0.10077 -0.446485,0.10077 -0.203088,0 -0.336413,-0.0899 -0.147278,-0.0992 -0.175183,-0.28991 -0.06046,-0.41083 -0.06046,-0.73174 0,-0.21239 0.04651,-0.48369 0.0217,-0.13487 0.147278,-0.13487 0.06666,0 0.111621,0.0434 0.04496,0.0419 0.04496,0.10852 0,0.0713 -0.02325,0.2279 -0.0217,0.15658 -0.0217,0.23874 0,0.2589 0.01705,0.44339 0.01705,0.18448 0.05116,0.2961 0.05116,0.0279 0.100769,0.0434 0.04961,0.014 0.09767,0.014 0.20774,0 0.438733,-0.0667 l -0.0015,-0.31471 -0.0031,-0.30076 q 0,-0.33486 0.02946,-0.58136 0.01705,-0.14262 0.150378,-0.14262 0.06666,0 0.111621,0.0434 0.04496,0.0434 0.04186,0.10852 z m 1.813843,-0.46354 q -0.0186,0.22789 -0.0186,0.45579 0,0.51624 0.04806,0.77979 0.0031,0.0217 0.0031,0.0357 0,0.062 -0.04341,0.10232 -0.04341,0.0403 -0.100769,0.0403 -0.09612,0 -0.141077,-0.13953 -0.111621,0.0822 -0.232544,0.12402 -0.119372,0.0419 -0.249597,0.0419 -0.320911,0 -0.531751,-0.21394 -0.217041,-0.21859 -0.217041,-0.5612 0,-0.41393 0.218592,-0.66353 0.220141,-0.2496 0.570508,-0.2496 0.179834,0 0.277502,0.0558 l 0.145728,0.10697 q 0.0217,-0.65267 0.05116,-0.87901 0.02015,-0.13798 0.141077,-0.13798 0.141076,0 0.141076,0.15038 0,0.21549 -0.06201,0.95188 z m -0.68833,0.0403 q -0.26045,0 -0.390674,0.15503 -0.130225,0.15348 -0.130225,0.46353 0,0.19999 0.141077,0.34417 0.142627,0.14418 0.333313,0.14418 0.130225,0 0.220142,-0.0481 0.05271,-0.0279 0.172082,-0.12868 0.02325,-0.0202 0.04496,-0.0481 l -0.0047,-0.2682 0.0015,-0.17983 0.0031,-0.18294 q -0.05891,-0.12557 -0.15658,-0.18758 -0.09767,-0.0636 -0.234094,-0.0636 z m 1.421619,-0.63407 q -0.07442,0 -0.128675,-0.0527 -0.05426,-0.0527 -0.05426,-0.12713 0,-0.0744 0.05426,-0.12712 0.05426,-0.0527 0.128675,-0.0527 0.07441,0 0.127124,0.0527 0.05426,0.0527 0.05426,0.12712 0,0.0744 -0.05426,0.12713 -0.05271,0.0527 -0.127124,0.0527 z m 0.06976,1.25884 q 0,0.093 0.0047,0.27905 0.0062,0.18448 0.0062,0.2775 0,0.0682 -0.04186,0.11162 -0.04186,0.0434 -0.110071,0.0434 -0.06666,0 -0.110071,-0.0434 -0.04186,-0.0434 -0.04186,-0.11162 0,-0.093 -0.0062,-0.2775 -0.0047,-0.18604 -0.0047,-0.27905 0,-0.14573 0.0155,-0.36277 0.0155,-0.21859 0.0155,-0.36432 0,-0.0698 0.04186,-0.11317 0.04341,-0.0434 0.110071,-0.0434 0.06666,0 0.10852,0.0434 0.04341,0.0434 0.04341,0.11317 0,0.14573 -0.0155,0.36432 -0.0155,0.21704 -0.0155,0.36277 z m 1.105358,0.7953 q -0.260449,0 -0.448034,-0.19224 -0.20929,-0.21394 -0.220142,-0.57516 -0.0093,-0.35037 0.176733,-0.61702 0.217041,-0.31471 0.604615,-0.31471 0.310058,0 0.469738,0.28371 0.127124,0.22944 0.122474,0.5519 -0.0047,0.34417 -0.179834,0.58756 -0.198438,0.27596 -0.52555,0.27596 z m 0.09302,-1.38442 q -0.227893,-0.002 -0.355017,0.21705 -0.100769,0.17518 -0.100769,0.39997 0,0.22479 0.122473,0.35037 0.102319,0.10387 0.240295,0.10387 0.161231,0 0.277503,-0.11783 0.131775,-0.13022 0.139526,-0.35191 0.0217,-0.59997 -0.324011,-0.60152 z"
         id="path4" />
      <desc
         id="desc6">Brand</desc>
      <title
         id="title6">Brand</title>
    </g>
    <rect
       style="font-size:3.175px;font-family:'Comic Sans MS';-inkscape-font-specification:'Comic Sans MS, Normal';text-align:center;text-anchor:middle;display:inline;fill:#c0c0c0;fill-opacity:1;stroke:#505050;stroke-width:0.2;stroke-miterlimit:0;stroke-opacity:1;stroke-dasharray:none"
       id="InputBlock"
       width="13"
       height="10.604429"
       x="6.1"
       y="15.292705"
       ry="2.5673883"
       inkscape:label="Input Block">
      <desc
         id="desc7">Input Block</desc>
      <title
         id="title7">Input Block</title>
    </rect>
    <rect
       style="display:inline;fill:#a0a0a0;stroke:#4f4f4f;stroke-width:0.2;stroke-miterlimit:0;stroke-opacity:1;stroke-dasharray:none;fill-opacity:1"
       id="OutputBlock"
       width="13"
       height="67.198601"
       x="6.1"
       y="31.924915"
       ry="3.0973301"
       inkscape:label="Output Block">
      <desc
         id="desc9">Output Block</desc>
      <title
         id="title9">Output Block</title>
    </rect>
    <!-- aria-label="			 STS Multiplier		" -->
    <path
       d="m 7.7414122,97.683678 -0.8805664,-2.27273 h 0.3255615 l 0.5906616,1.651062 q 0.071314,0.198438 0.1193726,0.372071 0.05271,-0.186036 0.1224731,-0.372071 l 0.613916,-1.651062 h 0.306958 l -0.8898681,2.27273 z m 1.1487673,-0.682129 v -0.280603 h 0.857312 v 0.280603 z m 1.1100095,-0.42478 q 0,-0.565857 0.303857,-0.885218 0.303858,-0.32091 0.784449,-0.32091 0.314709,0 0.567407,0.150378 0.252698,0.150378 0.384473,0.420129 0.133325,0.268201 0.133325,0.609266 0,0.345715 -0.139527,0.618566 -0.139526,0.272852 -0.395324,0.413929 -0.255799,0.139526 -0.551905,0.139526 -0.32091,0 -0.573608,-0.155029 -0.252698,-0.15503 -0.382922,-0.42323 -0.130225,-0.268201 -0.130225,-0.567407 z m 0.310059,0.0046 q 0,0.410828 0.220141,0.648023 0.221692,0.235644 0.555005,0.235644 0.339514,0 0.558106,-0.238745 0.220141,-0.238745 0.220141,-0.677478 0,-0.277502 -0.09457,-0.483691 -0.09302,-0.207739 -0.274402,-0.320911 -0.179834,-0.114721 -0.404626,-0.114721 -0.31936,0 -0.550354,0.220141 -0.229443,0.218591 -0.229443,0.731738 z m 3.294372,1.102259 v -0.241846 q -0.192236,0.279053 -0.522448,0.279053 -0.145728,0 -0.272852,-0.05581 -0.125574,-0.05581 -0.187585,-0.139526 -0.06046,-0.08527 -0.08527,-0.207739 -0.01705,-0.08217 -0.01705,-0.26045 v -1.020092 h 0.279053 v 0.913122 q 0,0.218591 0.01705,0.294556 0.02635,0.110071 0.111621,0.173633 0.08527,0.06201 0.21084,0.06201 0.125574,0 0.235645,-0.06356 0.110071,-0.06511 0.155029,-0.175183 0.04651,-0.111621 0.04651,-0.322461 v -0.882116 h 0.279053 v 1.646411 z m 1.296045,-0.249597 0.04031,0.246496 q -0.117823,0.02481 -0.21084,0.02481 -0.151929,0 -0.235645,-0.04806 -0.08372,-0.04806 -0.117822,-0.125574 -0.03411,-0.07906 -0.03411,-0.330212 v -0.947229 h -0.204638 v -0.217041 h 0.204638 V 95.62954 l 0.277503,-0.167432 v 0.575159 h 0.280603 v 0.217041 h -0.280603 v 0.962731 q 0,0.119373 0.01395,0.153479 0.0155,0.03411 0.04806,0.05426 0.03411,0.02015 0.09612,0.02015 0.04651,0 0.122473,-0.01085 z m 1.971973,0.249597 v -0.544153 h -0.985987 v -0.255798 l 1.037146,-1.472779 h 0.227893 v 1.472779 h 0.306959 v 0.255798 H 17.15169 v 0.544153 z m 0,-0.799951 v -1.024744 l -0.711585,1.024744 z"
       id="Output4"
       style="font-size:3.175px;font-family:Arial;-inkscape-font-specification:'Arial, Normal';text-align:center;text-anchor:middle;stroke:#000000;stroke-width:0;stroke-miterlimit:0"
       inkscape:label="Output 4"
       aria-label="    V-Out 4  ">
      <desc
         id="desc5">Output 4</desc>
      <title
         id="title5">Output 4</title>
    </path>
    <path
       d="m 7.6823435,80.828499 -0.8805664,-2.27273 h 0.3255615 l 0.5906616,1.651062 q 0.071314,0.198438 0.1193726,0.372071 0.05271,-0.186035 0.1224731,-0.372071 l 0.613916,-1.651062 H 8.88072 l -0.8898682,2.27273 z M 8.8311108,80.14637 v -0.280603 h 0.857312 v 0.280603 z m 1.1100096,-0.42478 q 0,-0.565857 0.3038576,-0.885218 0.303857,-0.32091 0.784448,-0.32091 0.314709,0 0.567407,0.150378 0.252698,0.150379 0.384473,0.42013 0.133325,0.2682 0.133325,0.609265 0,0.345715 -0.139526,0.618567 -0.139527,0.272851 -0.395325,0.413928 -0.255798,0.139526 -0.551904,0.139526 -0.320911,0 -0.573609,-0.155029 Q 10.20157,80.557198 10.071345,80.288997 9.9411204,80.020796 9.9411204,79.72159 Z m 0.3100586,0.0047 q 0,0.410827 0.220142,0.648022 0.221691,0.235645 0.555004,0.235645 0.339515,0 0.558106,-0.238746 0.220141,-0.238745 0.220141,-0.677478 0,-0.277502 -0.09457,-0.483691 -0.09302,-0.207739 -0.274402,-0.320911 -0.179834,-0.114721 -0.404627,-0.114721 -0.31936,0 -0.550354,0.220141 -0.229443,0.218592 -0.229443,0.731739 z m 3.294373,1.102258 v -0.241846 q -0.192237,0.279053 -0.522449,0.279053 -0.145728,0 -0.272852,-0.05581 -0.125573,-0.05581 -0.187585,-0.139526 -0.06046,-0.08527 -0.08527,-0.207739 -0.01705,-0.08217 -0.01705,-0.26045 v -1.020092 h 0.279052 v 0.913122 q 0,0.218592 0.01705,0.294556 0.02635,0.110071 0.111621,0.173633 0.08527,0.06201 0.21084,0.06201 0.125573,0 0.235644,-0.06356 0.110071,-0.06511 0.155029,-0.175183 0.04651,-0.111621 0.04651,-0.322461 v -0.882116 h 0.279053 v 1.646411 z m 1.296044,-0.249597 0.04031,0.246496 q -0.117822,0.0248 -0.21084,0.0248 -0.151929,0 -0.235645,-0.04806 -0.08371,-0.04806 -0.117822,-0.125574 -0.03411,-0.07906 -0.03411,-0.330212 v -0.947229 h -0.204639 v -0.217041 h 0.204639 v -0.407727 l 0.277502,-0.167432 v 0.575159 h 0.280603 v 0.217041 h -0.280603 v 0.962732 q 0,0.119372 0.01395,0.153479 0.0155,0.03411 0.04806,0.05426 0.03411,0.02015 0.09612,0.02015 0.04651,0 0.122473,-0.01085 z m 1.079004,-0.350367 0.279053,-0.03721 q 0.04806,0.237195 0.162781,0.342615 0.116272,0.10387 0.282153,0.10387 0.196887,0 0.331763,-0.136426 0.136426,-0.136426 0.136426,-0.337964 0,-0.192236 -0.125574,-0.31626 -0.125574,-0.125573 -0.31936,-0.125573 -0.07906,0 -0.196888,0.03101 l 0.03101,-0.244947 q 0.02791,0.0031 0.04496,0.0031 0.178283,0 0.32091,-0.09302 0.142627,-0.09302 0.142627,-0.286804 0,-0.153479 -0.103869,-0.254248 -0.10387,-0.100769 -0.268201,-0.100769 -0.162781,0 -0.271301,0.102319 -0.108521,0.10232 -0.139527,0.306958 l -0.279052,-0.04961 q 0.05116,-0.280603 0.232544,-0.434082 0.181384,-0.155029 0.451135,-0.155029 0.186035,0 0.342615,0.08061 0.156579,0.07906 0.238745,0.217041 0.08372,0.137976 0.08372,0.293005 0,0.147278 -0.07906,0.268201 -0.07906,0.120923 -0.234095,0.192236 0.201538,0.04651 0.313159,0.193787 0.111622,0.145727 0.111622,0.365869 0,0.297656 -0.217041,0.505395 -0.217041,0.206189 -0.548804,0.206189 -0.299207,0 -0.497644,-0.178283 -0.196887,-0.178284 -0.224793,-0.461988 z"
       id="Output3"
       style="font-size:3.175px;font-family:Arial;-inkscape-font-specification:'Arial, Normal';text-align:center;text-anchor:middle;stroke:#000000;stroke-width:0;stroke-miterlimit:0"
       inkscape:label="Output 3"
       aria-label="    V-Out 3  ">
      <desc
         id="desc4">Output 3</desc>
      <title
         id="title4">Output 3</title>
    </path>
    <path
       d="M 7.7353354,63.863453 6.854769,61.590723 h 0.3255615 l 0.5906616,1.651062 q 0.071314,0.198438 0.1193726,0.372071 0.05271,-0.186035 0.1224731,-0.372071 l 0.613916,-1.651062 h 0.306958 l -0.8898681,2.27273 z m 1.1487673,-0.682129 v -0.280603 h 0.857312 v 0.280603 z m 1.1100095,-0.42478 q 0,-0.565857 0.3038578,-0.885218 0.303857,-0.32091 0.784448,-0.32091 0.314709,0 0.567407,0.150378 0.252698,0.150379 0.384473,0.42013 0.133325,0.2682 0.133325,0.609265 0,0.345715 -0.139526,0.618567 -0.139527,0.272851 -0.395325,0.413928 -0.255798,0.139526 -0.551904,0.139526 -0.320911,0 -0.573609,-0.155029 -0.252698,-0.155029 -0.382922,-0.42323 Q 9.9941122,63.05575 9.9941122,62.756544 Z m 0.3100588,0.0047 q 0,0.410827 0.220141,0.648022 0.221692,0.235645 0.555005,0.235645 0.339514,0 0.558106,-0.238746 0.220141,-0.238745 0.220141,-0.677478 0,-0.277502 -0.09457,-0.483691 -0.09302,-0.207739 -0.274401,-0.320911 -0.179834,-0.114721 -0.404627,-0.114721 -0.31936,0 -0.550354,0.220141 -0.229443,0.218592 -0.229443,0.731739 z m 3.294373,1.102258 v -0.241846 q -0.192237,0.279053 -0.522449,0.279053 -0.145728,0 -0.272852,-0.05581 -0.125573,-0.05581 -0.187585,-0.139526 -0.06046,-0.08527 -0.08527,-0.207739 -0.01705,-0.08217 -0.01705,-0.260449 v -1.020093 h 0.279052 v 0.913122 q 0,0.218592 0.01705,0.294556 0.02636,0.110071 0.111622,0.173633 0.08527,0.06201 0.210839,0.06201 0.125574,0 0.235645,-0.06356 0.110071,-0.06511 0.155029,-0.175184 0.04651,-0.111621 0.04651,-0.322461 v -0.882116 h 0.279053 v 1.646411 z m 1.296044,-0.249597 0.04031,0.246496 q -0.117823,0.02481 -0.21084,0.02481 -0.151929,0 -0.235645,-0.04806 -0.08371,-0.04806 -0.117822,-0.125574 -0.03411,-0.07906 -0.03411,-0.330212 v -0.947229 h -0.204639 v -0.217041 h 0.204639 v -0.407727 l 0.277502,-0.167432 v 0.575159 h 0.280603 v 0.217041 h -0.280603 v 0.962732 q 0,0.119372 0.01395,0.153479 0.0155,0.03411 0.04806,0.05426 0.03411,0.02015 0.09612,0.02015 0.04651,0 0.122473,-0.01085 z m 2.544031,-0.0186 v 0.268201 h -1.502234 q -0.0031,-0.100769 0.03256,-0.193787 0.05736,-0.153479 0.182935,-0.302307 0.127124,-0.148828 0.365869,-0.344165 0.37052,-0.303857 0.500745,-0.480591 0.130224,-0.178283 0.130224,-0.336413 0,-0.165882 -0.119372,-0.279053 -0.117823,-0.114722 -0.308509,-0.114722 -0.201538,0 -0.322461,0.120923 -0.120922,0.120923 -0.122473,0.334863 l -0.286804,-0.02945 q 0.02946,-0.320911 0.221692,-0.488342 0.192236,-0.168982 0.516248,-0.168982 0.327111,0 0.517797,0.181384 0.190686,0.181384 0.190686,0.449585 0,0.136426 -0.05581,0.268201 -0.05581,0.131775 -0.186035,0.277502 -0.128675,0.145728 -0.429431,0.399976 -0.251148,0.210839 -0.322461,0.286804 -0.07131,0.07441 -0.117823,0.150378 z"
       id="Output2"
       style="font-size:3.175px;font-family:Arial;-inkscape-font-specification:'Arial, Normal';text-align:center;text-anchor:middle;stroke:#000000;stroke-width:0;stroke-miterlimit:0"
       inkscape:label="Output 2"
       aria-label="    V-Out 2  ">
      <desc
         id="desc3">Output 2</desc>
      <title
         id="title3">Output 2</title>
    </path>
    <path
       d="M 7.8384876,46.157177 6.9579213,43.884448 h 0.3255615 l 0.5906616,1.651062 q 0.071314,0.198437 0.1193725,0.37207 0.05271,-0.186035 0.1224732,-0.37207 l 0.613916,-1.651062 h 0.306958 l -0.8898682,2.272729 z m 1.1487673,-0.682129 v -0.280603 h 0.857312 v 0.280603 z m 1.1100101,-0.42478 q 0,-0.565857 0.303857,-0.885217 0.303857,-0.320911 0.784448,-0.320911 0.31471,0 0.567407,0.150378 0.252698,0.150379 0.384473,0.42013 0.133325,0.2682 0.133325,0.609265 0,0.345715 -0.139526,0.618567 -0.139527,0.272851 -0.395325,0.413928 -0.255798,0.139526 -0.551904,0.139526 -0.320911,0 -0.573609,-0.155029 -0.252697,-0.155029 -0.382922,-0.42323 -0.130224,-0.268201 -0.130224,-0.567407 z m 0.310058,0.0047 q 0,0.410827 0.220142,0.648022 0.221692,0.235645 0.555005,0.235645 0.339514,0 0.558105,-0.238745 0.220142,-0.238746 0.220142,-0.677478 0,-0.277503 -0.09457,-0.483692 -0.09302,-0.207739 -0.274402,-0.320911 -0.179834,-0.114721 -0.404627,-0.114721 -0.31936,0 -0.550354,0.220141 -0.229443,0.218592 -0.229443,0.731739 z m 3.294373,1.102258 v -0.241846 q -0.192236,0.279053 -0.522449,0.279053 -0.145727,0 -0.272851,-0.05581 -0.125574,-0.05581 -0.187586,-0.139526 -0.06046,-0.08527 -0.08527,-0.207739 -0.01705,-0.08217 -0.01705,-0.260449 v -1.020093 h 0.279053 v 0.913122 q 0,0.218592 0.01705,0.294556 0.02636,0.110071 0.111621,0.173633 0.08527,0.06201 0.21084,0.06201 0.125573,0 0.235644,-0.06356 0.110071,-0.06511 0.155029,-0.175184 0.04651,-0.111621 0.04651,-0.32246 v -0.882117 h 0.279053 v 1.646411 z m 1.296044,-0.249597 0.04031,0.246496 q -0.117822,0.0248 -0.21084,0.0248 -0.151929,0 -0.235644,-0.04806 -0.08372,-0.04806 -0.117823,-0.125574 -0.03411,-0.07906 -0.03411,-0.330212 v -0.947229 h -0.204639 v -0.217041 h 0.204639 v -0.407727 l 0.277502,-0.167432 v 0.575159 h 0.280603 v 0.217041 h -0.280603 v 0.962732 q 0,0.119372 0.01395,0.153479 0.0155,0.03411 0.04806,0.05426 0.03411,0.02015 0.09612,0.02015 0.04651,0 0.122473,-0.01085 z m 2.128553,0.249597 H 16.84724 v -1.778186 q -0.100769,0.09612 -0.2651,0.192236 -0.162781,0.09612 -0.293005,0.144178 v -0.269751 q 0.234094,-0.110071 0.409277,-0.266651 0.175183,-0.156579 0.248047,-0.303857 h 0.179834 z"
       id="Output1"
       style="font-size:3.175px;font-family:Arial;-inkscape-font-specification:'Arial, Normal';text-align:center;text-anchor:middle;stroke:#000000;stroke-width:0;stroke-miterlimit:0"
       inkscape:label="Output 1"
       aria-label="    V-Out 1  ">
      <desc
         id="desc2">Output 1</desc>
      <title
         id="title2">Output 1</title>
    </path>
    <path
       d="M 10.508873,29.02265 9.6283064,26.74992 h 0.3255615 l 0.5906621,1.651062 q 0.07131,0.198438 0.119372,0.372071 0.05271,-0.186036 0.122473,-0.372071 l 0.613916,-1.651062 h 0.306958 l -0.889868,2.27273 z m 1.148767,-0.682129 v -0.280603 h 0.857312 v 0.280603 z m 1.252637,0.682129 v -2.27273 h 0.300756 v 2.27273 z m 0.7953,0 v -1.646411 h 0.251147 v 0.234094 q 0.181384,-0.271301 0.523999,-0.271301 0.148828,0 0.272852,0.05426 0.125573,0.05271 0.187585,0.139526 0.06201,0.08682 0.08682,0.206189 0.0155,0.07751 0.0155,0.271301 v 1.012342 h -0.279052 v -1.001489 q 0,-0.170533 -0.03256,-0.254249 -0.03256,-0.08527 -0.116272,-0.134875 -0.08216,-0.05116 -0.193786,-0.05116 -0.178284,0 -0.308508,0.113172 -0.128675,0.113171 -0.128675,0.429431 v 0.89917 z"
       id="Input"
       style="font-size:3.175px;font-family:Arial;-inkscape-font-specification:'Arial, Normal';text-align:center;text-anchor:middle;stroke:#000000;stroke-width:0;stroke-miterlimit:0"
       inkscape:label="Input"
       aria-label="    V-In  ">
      <desc
         id="desc1">Input (V-In)</desc>
      <title
         id="title1">Input</title>
    </path>
    <path
       style="font-size:3.175px;font-family:'Comic Sans MS';-inkscape-font-specification:'Comic Sans MS, Normal';text-align:center;text-anchor:middle;stroke:#000000;stroke-width:0.065;stroke-miterlimit:0"
       d="m 3.4437242,9.4370295 q -0.00155,-0.065112 0.043408,-0.10542 0.046509,-0.041858 0.1131714,-0.041858 0.075964,0 0.1333252,0.086816 0.079065,0.1178223 0.1410766,0.1596802 0.1317749,0.086816 0.3829224,0.086816 0.2402954,0 0.4464844,-0.1038696 0.2635498,-0.1333252 0.2635498,-0.37052 0,-0.1953369 -0.2216919,-0.3085083 Q 4.5583848,8.7424982 4.2824327,8.7347468 4.0374864,8.725445 3.8654039,8.6277765 3.6452623,8.5022028 3.6452623,8.2681086 q 0,-0.2759522 0.3131592,-0.5038452 0.2992065,-0.2154907 0.6185668,-0.2154907 0.1503785,0 0.3395142,0.05116 0.2511475,0.066663 0.2511475,0.1705322 0,0.1364258 -0.1395264,0.1364258 -0.062012,0 -0.217041,-0.032556 -0.1550293,-0.034107 -0.2402954,-0.032556 -0.2418457,0.0031 -0.4108277,0.1193726 -0.1736328,0.1193725 -0.1736328,0.2899048 0,0.1286743 0.2294434,0.1813842 0.085266,0.020154 0.3302124,0.037207 0.3550171,0.026355 0.5550049,0.2232421 0.1829345,0.179834 0.1829345,0.438733 0,0.3689697 -0.3410644,0.5891113 -0.296106,0.190686 -0.6867798,0.190686 -0.2837036,0 -0.5193481,-0.1085205 Q 3.4483751,9.6695734 3.4437242,9.4370295 Z M 7.5489,7.8650324 q -0.1147217,0 -0.3534668,-0.018603 Q 6.9628892,7.8293757 6.8419664,7.830926 H 6.7318956 q 0.00465,0.2139404 0.041858,0.6945312 0.034106,0.4480347 0.034106,0.6960815 0,0.05426 0.010852,0.1643311 0.010852,0.1100708 0.010852,0.1658813 0,0.10542 -0.034106,0.1813843 -0.043408,0.1023193 -0.1348755,0.1023193 -0.062012,0 -0.1116211,-0.043408 -0.049609,-0.043408 -0.049609,-0.111621 0,-0.023254 0.00775,-0.069763 0.00775,-0.046509 0.00775,-0.069763 0,-0.075964 -0.010852,-0.2278931 -0.0093,-0.1519287 -0.0093,-0.2294433 0,-0.2216919 -0.035657,-0.6232178 -0.037207,-0.434082 -0.041858,-0.6232178 l -0.1410767,0.00155 q -0.3395141,0 -0.5333007,-0.049609 -0.1255738,-0.032556 -0.1255738,-0.153479 0,-0.063562 0.040308,-0.1116211 0.046509,-0.05426 0.1193725,-0.049609 0.05426,0.0031 0.2480469,0.027905 0.1550293,0.018604 0.2511474,0.018604 0.093018,0 0.2821534,-0.0031 0.1891357,-0.00465 0.2821533,-0.00465 0.1193725,0 0.3534668,0.017053 0.2356445,0.017053 0.3550171,0.017053 0.066663,0 0.111621,0.046509 0.044958,0.044958 0.044958,0.1131713 0,0.066663 -0.044958,0.1131714 -0.044958,0.044958 -0.111621,0.044958 z m 0.2542478,1.5719971 q -0.00155,-0.065112 0.043408,-0.10542 0.046509,-0.041858 0.1131714,-0.041858 0.075964,0 0.1333252,0.086816 0.079065,0.1178223 0.1410767,0.1596802 0.1317749,0.086816 0.3829223,0.086816 0.2402954,0 0.4464844,-0.1038696 0.2635498,-0.1333252 0.2635498,-0.37052 0,-0.1953369 -0.2216919,-0.3085083 Q 8.9178085,8.7424982 8.6418563,8.7347468 8.39691,8.725445 8.2248275,8.6277765 8.0046859,8.5022028 8.0046859,8.2681086 q 0,-0.2759522 0.3131592,-0.5038452 0.2992065,-0.2154907 0.6185669,-0.2154907 0.1503784,0 0.3395141,0.05116 0.2511475,0.066663 0.2511475,0.1705322 0,0.1364258 -0.1395264,0.1364258 -0.062012,0 -0.217041,-0.032556 -0.1550293,-0.034107 -0.2402954,-0.032556 -0.2418457,0.0031 -0.4108276,0.1193726 -0.1736328,0.1193725 -0.1736328,0.2899048 0,0.1286743 0.2294433,0.1813842 0.085266,0.020154 0.3302124,0.037207 0.3550171,0.026355 0.5550049,0.2232421 0.1829346,0.179834 0.1829346,0.438733 0,0.3689697 -0.3410645,0.5891113 -0.2961059,0.190686 -0.6867798,0.190686 -0.2837036,0 -0.5193481,-0.1085205 Q 7.8077987,9.6695734 7.8031478,9.4370295 Z m 3.1501952,0 q -0.0015,-0.065112 0.04341,-0.10542 0.04651,-0.041858 0.113171,-0.041858 0.07596,0 0.133325,0.086816 0.07906,0.1178223 0.141077,0.1596802 0.131775,0.086816 0.382922,0.086816 0.240296,0 0.446485,-0.1038696 0.263549,-0.1333252 0.263549,-0.37052 0,-0.1953369 -0.221691,-0.3085083 -0.187586,-0.097668 -0.463538,-0.1054199 -0.244946,-0.0093 -0.417029,-0.1069703 -0.220141,-0.1255737 -0.220141,-0.3596679 0,-0.2759522 0.313159,-0.5038452 0.299206,-0.2154907 0.618567,-0.2154907 0.150378,0 0.339514,0.05116 0.251147,0.066663 0.251147,0.1705322 0,0.1364258 -0.139526,0.1364258 -0.06201,0 -0.217041,-0.032556 -0.155029,-0.034107 -0.240296,-0.032556 -0.241845,0.0031 -0.410827,0.1193726 -0.173633,0.1193725 -0.173633,0.2899048 0,0.1286743 0.229443,0.1813842 0.08527,0.020154 0.330213,0.037207 0.355017,0.026355 0.555005,0.2232421 0.182934,0.179834 0.182934,0.438733 0,0.3689697 -0.341064,0.5891113 -0.296106,0.190686 -0.68678,0.190686 -0.283704,0 -0.519348,-0.1085205 -0.288355,-0.1333252 -0.293006,-0.3658691 z m 2.868042,0.4402832 q -0.155029,0 -0.341065,-0.049609 l -0.0031,0.7410397 q 0,0.06821 -0.04341,0.111621 -0.04186,0.04341 -0.108521,0.04341 -0.06666,0 -0.110071,-0.04341 -0.04186,-0.04341 -0.04186,-0.111621 l 0.0047,-0.6201169 V 9.3300592 q -0.0047,-0.3395141 -0.02325,-0.6185668 l -0.02325,-0.3147095 q 0,-0.1100708 0.04031,-0.1860352 0.04651,-0.091467 0.134876,-0.091467 0.06046,0 0.100769,0.043408 0.04186,0.041858 0.04186,0.1038696 0,0.013953 -0.0047,0.05116 -0.0078,0.048059 -0.01085,0.088367 0.133325,-0.091467 0.257348,-0.1364258 0.124024,-0.046509 0.237195,-0.046509 0.31781,0 0.465088,0.2821533 0.116272,0.2232422 0.116272,0.5906616 0,0.3348633 -0.179834,0.5519043 -0.190686,0.2294434 -0.508496,0.2294434 z m 0.10697,-1.344104 q -0.142627,0 -0.257348,0.063562 -0.08217,0.044958 -0.20774,0.164331 0.02015,0.3519165 0.02015,0.7394898 0.168982,0.065112 0.337964,0.065112 0.193787,0 0.296106,-0.1441773 0.08837,-0.1255737 0.08837,-0.3255615 0,-0.2821533 -0.06976,-0.4216797 -0.06821,-0.1410766 -0.207739,-0.1410766 z m 1.325501,0.071314 -0.02326,0.7704955 q 0,0.1224732 -0.0124,0.359668 -0.0155,0.1550293 -0.151929,0.1550293 -0.151929,0 -0.151929,-0.1581299 0,-0.1875854 0.01705,-0.5627563 0.01705,-0.3767212 0.01705,-0.5643066 0,-0.2449463 0.0078,-0.5596558 0.0078,-0.3162598 0.0078,-0.561206 0,-0.1550293 0.151929,-0.1550293 0.153479,0 0.153479,0.1550293 0,0.2449462 -0.0078,0.561206 -0.0078,0.3147095 -0.0078,0.5596558 z m 0.772046,-0.7441407 q -0.07441,0 -0.128674,-0.05271 -0.05426,-0.05271 -0.05426,-0.127124 0,-0.074414 0.05426,-0.1271241 0.05426,-0.05271 0.128674,-0.05271 0.07441,0 0.127124,0.05271 0.05426,0.05271 0.05426,0.1271241 0,0.074414 -0.05426,0.127124 -0.05271,0.05271 -0.127124,0.05271 z m 0.06976,1.2588379 q 0,0.093018 0.0047,0.2790527 0.0062,0.1844849 0.0062,0.2775025 0,0.068213 -0.04186,0.1116211 -0.04186,0.043408 -0.110071,0.043408 -0.06666,0 -0.11007,-0.043408 -0.04186,-0.043408 -0.04186,-0.1116211 0,-0.093018 -0.0062,-0.2775025 -0.0047,-0.1860351 -0.0047,-0.2790527 0,-0.1457275 0.0155,-0.3627685 0.0155,-0.2185913 0.0155,-0.3643189 0,-0.069763 0.04186,-0.1131714 0.04341,-0.043408 0.110071,-0.043408 0.06666,0 0.108521,0.043408 0.04341,0.043408 0.04341,0.1131714 0,0.1457276 -0.0155,0.3643189 -0.0155,0.217041 -0.0155,0.3627685 z M 17.65681,8.5022028 q -0.03256,0 -0.07752,-0.0031 -0.04341,-0.0031 -0.07596,-0.0031 -0.03566,0 -0.21084,0.023254 l 0.02946,0.9162232 0.0016,0.068213 0.0016,0.079065 q 0.0062,0.3395142 -0.162781,0.3395142 -0.06201,0 -0.10852,-0.040308 -0.04496,-0.040308 -0.04496,-0.100769 0,-0.058911 0.0047,-0.1767334 0.0047,-0.1178223 0.0047,-0.1767334 l -0.03101,-0.9053711 q -0.113171,-0.00465 -0.344165,-0.026355 -0.137976,-0.018603 -0.137976,-0.153479 0,-0.068213 0.04186,-0.1131713 0.04186,-0.044958 0.10697,-0.044958 l 0.325562,0.026355 q 0,-0.079065 -0.0078,-0.2108398 -0.0062,-0.1333252 -0.0062,-0.1922363 0,-0.065112 0.04496,-0.1069702 0.04496,-0.043408 0.11007,-0.043408 0.139527,0 0.162781,0.227893 0.0047,0.057361 0.0047,0.1379761 l -0.0031,0.089917 -0.0015,0.096118 q 0.192236,-0.024805 0.220142,-0.024805 0.16123,0 0.21084,0.015503 0.09457,0.031006 0.09457,0.1457275 0,0.068213 -0.04341,0.1131714 -0.04186,0.043408 -0.10852,0.043408 z m 1.496032,0 q -0.03256,0 -0.07751,-0.0031 -0.04341,-0.0031 -0.07597,-0.0031 -0.03566,0 -0.210839,0.023254 l 0.02946,0.9162232 0.0015,0.068213 0.0016,0.079065 q 0.0062,0.3395142 -0.162781,0.3395142 -0.06201,0 -0.10852,-0.040308 -0.04496,-0.040308 -0.04496,-0.100769 0,-0.058911 0.0047,-0.1767334 0.0047,-0.1178223 0.0047,-0.1767334 l -0.03101,-0.9053711 q -0.113171,-0.00465 -0.344165,-0.026355 -0.137976,-0.018603 -0.137976,-0.153479 0,-0.068213 0.04186,-0.1131713 0.04186,-0.044958 0.10697,-0.044958 l 0.325561,0.026355 q 0,-0.079065 -0.0078,-0.2108398 -0.0062,-0.1333252 -0.0062,-0.1922363 0,-0.065112 0.04496,-0.1069702 0.04496,-0.043408 0.110071,-0.043408 0.139526,0 0.162781,0.227893 0.0047,0.057361 0.0047,0.1379761 l -0.0031,0.089917 -0.0015,0.096118 q 0.192236,-0.024805 0.220141,-0.024805 0.161231,0 0.21084,0.015503 0.09457,0.031006 0.09457,0.1457275 0,0.068213 -0.04341,0.1131714 -0.04186,0.043408 -0.108521,0.043408 z m 1.182874,1.3921631 q -0.350366,0 -0.567407,-0.1751831 -0.237195,-0.1937866 -0.237195,-0.5426026 0,-0.4030761 0.195337,-0.6759277 0.21239,-0.2976562 0.567407,-0.2976562 0.257349,0 0.420129,0.086816 0.199988,0.1069702 0.199988,0.3286621 0,0.1550293 -0.175183,0.2821533 -0.07751,0.05581 -0.328662,0.1736328 l -0.592212,0.280603 q 0.08682,0.1286744 0.215491,0.1937867 0.130224,0.065112 0.302307,0.065112 0.10697,0 0.251147,-0.040308 0.182935,-0.05116 0.235645,-0.1333252 0.05271,-0.083716 0.113171,-0.083716 0.05426,0 0.09612,0.041858 0.04341,0.040308 0.04341,0.094568 0,0.1720825 -0.277503,0.296106 -0.237195,0.1054199 -0.461987,0.1054199 z M 20.293858,8.482049 q -0.189136,0 -0.314709,0.1472778 -0.125574,0.1457276 -0.187586,0.4402832 l 0.47594,-0.2263427 Q 20.548106,8.7068415 20.667479,8.6060724 20.534153,8.482049 20.293858,8.482049 Z m 2.263429,0.1953369 q -0.01085,0.1937866 -0.15503,0.1937866 -0.133325,0 -0.133325,-0.153479 0,-0.029455 -0.0047,-0.1085205 l -0.0047,-0.1302246 q -0.244946,0.029456 -0.392224,0.1379761 -0.137976,0.100769 -0.229443,0.3038574 l 0.0031,0.8495605 q 0,0.1565796 -0.153479,0.1565796 -0.136425,0 -0.136425,-0.1565796 V 8.6820368 q 0,-0.05116 0.0031,-0.153479 0.0047,-0.1023193 0.0047,-0.153479 0,-0.1565796 0.136426,-0.1565796 0.151929,0 0.153479,0.2573486 0.297656,-0.2868042 0.660425,-0.2868042 0.125573,0 0.187585,0.094568 0.06201,0.094568 0.06201,0.2852539 0,0.080615 -0.0016,0.1085205 z"
       id="ModuleName"
       inkscape:label="Module"
       aria-label="STS Splitter" />
    <path
       style="fill:none;stroke:#555555;stroke-width:0.3;stroke-linecap:round;stroke-linejoin:round;stroke-miterlimit:0;stroke-dasharray:none;stroke-opacity:1"
       d="m 12.50224,20.552824 h 9.376199 V 88.51891 h -9.264578"
       id="path7" />
    <path
       style="display:inline;fill:none;stroke:#555555;stroke-width:0.256487;stroke-linecap:round;stroke-linejoin:round;stroke-miterlimit:0;stroke-dasharray:none;stroke-opacity:1"
       d="m 12.461583,20.756115 h 9.143452 v 50.944838 h -9.034602"
       id="path7-1" />
    <path
       style="display:inline;fill:none;stroke:#555555;stroke-width:0.208169;stroke-linecap:round;stroke-linejoin:round;stroke-miterlimit:0;stroke-dasharray:none;stroke-opacity:1"
       d="m 12.212003,20.940643 h 9.19177 v 33.381921 h -9.082345"
       id="path7-1-2" />
    <path
       style="display:inline;fill:none;stroke:#555555;stroke-width:0.138009;stroke-linecap:round;stroke-linejoin:round;stroke-miterlimit:0;stroke-dasharray:none;stroke-opacity:1"
       d="m 13.08447,21.079912 h 8.156895 v 16.533575 h -8.059789"
       id="path7-1-2-4" />
  </g>
  <g
     inkscape:groupmode="layer"
     id="layer2"
     inkscape:label="components"
     style="display:none">
    <circle
       style="display:inline;fill:#0000ff"
       id="guid-d3b3f50f-dde3-4a64-ae52-29039fc3ca22"
       data-name="Out4#PJ301MPort"
       cx="12.7"
       cy="88.585907"
       r="5"
       inkscape:label="CH_4_OUT">
      <title
         id="title15">Channel 4 Out</title>
    </circle>
    <circle
       style="display:inline;fill:#0000ff"
       id="guid-db2c56fb-3459-447c-afe7-cfdd8b1d091c"
       data-name="Out3#PJ301MPort"
       cx="12.7"
       cy="71.585907"
       r="5"
       inkscape:label="CH_3_OUT">
      <title
         id="title14">Channel 3 Out</title>
    </circle>
    <circle
       style="display:inline;fill:#0000ff"
       id="guid-04545355-8e75-4d92-bb04-987e59fac65a"
       data-name="Out2#PJ301MPort"
       cx="12.7"
       cy="54.585911"
       r="5"
       inkscape:label="CH_2_OUT">
      <title
         id="title13">Channel 2 Out</title>
    </circle>
    <circle
       style="display:inline;fill:#0000ff"
       id="guid-f04a8e42-c2b6-4f11-8367-55466c0df6d4"
       data-name="Out1#PJ301MPort"
       cx="12.7"
       cy="37.585911"
       r="5"
       inkscape:label="CH_1_OUT">
      <title
         id="title12">Channel 1 Out</title>
    </circle>
    <circle
       style="display:inline;fill:#ff00ff;fill-opacity:1"
       id="guid-627104b8-4408-4868-bc45-a8737c1ea93c"
       data-name="Out0#PJ301MPort"
       cx="2.9589977"
       cy="37.640018"
       r="1.5"
       inkscape:label="LGT_1_OUT">
      <title
         id="title10">Light Out 1</title>
    </circle>
    <circle
       style="display:inline;fill:#ff00ff;fill-opacity:1"
       id="guid-4d63c350-d5db-42eb-987b-ab288677dda1"
       data-name="Out0#PJ301MPort"
       cx="2.9589977"
       cy="54.640018"
       r="1.5"
       inkscape:label="LGT_2_OUT">
      <title
         id="title11">Light Out 2</title>
    </circle>
    <circle
       style="display:inline;fill:#ff00ff;fill-opacity:1"
       id="guid-77c150f2-fb74-42c4-892a-5e43de3e1131"
       data-name="Out0#PJ301MPort"
       cx="2.9589977"
       cy="71.640015"
       r="1.5"
       inkscape:label="LGT_3_OUT">
      <title
         id="title16">Light Out 3</title>
    </circle>
    <circle
       style="display:inline;fill:#ff00ff;fill-opacity:1"
       id="guid-87017c7e-cdf5-43a0-b51e-3a05e708496a"
       data-name="Out0#PJ301MPort"
       cx="2.9589977"
       cy="88.640015"
       r="1.5"
       inkscape:label="LGT_4_OUT">
      <title
         id="title17">Light Out 4</title>
    </circle>
    <circle
       style="display:inline;fill:#00ff00;fill-opacity:1"
       id="guid-02a7bebb-177d-449f-aca3-055687f4c9a1"
       data-name="In#PJ301MPort"
       cx="12.7"
       cy="20.5"
       r="5"
       inkscape:label="POLY_IN">
      <title
         id="title18">Poly In</title>
    </circle>
  </g>
</svg>
